<?xml version="1.0" encoding="UTF-8" standalone="no"?>
<!-- Created with Inkscape (http://www.inkscape.org/) -->

<svg
   xmlns:dc="http://purl.org/dc/elements/1.1/"
   xmlns:cc="http://creativecommons.org/ns#"
   xmlns:rdf="http://www.w3.org/1999/02/22-rdf-syntax-ns#"
   xmlns:svg="http://www.w3.org/2000/svg"
   xmlns="http://www.w3.org/2000/svg"
   xmlns:xlink="http://www.w3.org/1999/xlink"
   xmlns:sodipodi="http://sodipodi.sourceforge.net/DTD/sodipodi-0.dtd"
   xmlns:inkscape="http://www.inkscape.org/namespaces/inkscape"
   width="154.23714mm"
   height="159.25021mm"
   id="svg5155"
   sodipodi:version="0.32"
   inkscape:version="0.92.1 r15371"
   sodipodi:docname="SVG-Drawing.svg"
   inkscape:output_extension="org.inkscape.output.svg.inkscape"
   sodipodi:modified="true"
   version="1.1">
  <defs
     id="defs5157">
    <marker
       inkscape:stockid="RazorWire"
       id="RazorWire"
       refX="0"
       refY="0"
       orient="auto">
       style=&quot;overflow:visible&quot;&gt;
      <path
   id="path11058"
   style="fill:#808080;fill-opacity:1;fill-rule:evenodd;stroke:#000000;stroke-width:0.08533334pt"
   d="M 0.01939394,-0.63154356 V 0.59512311 L -6.620606,2.5684564 H 9.112727 L 2.979394,0.59512311 V -0.63154356 L 9.1660604,-2.4715436 H -6.5939394 Z"
   inkscape:connector-curvature="0" />
</marker>
    <marker
       style="overflow:visible"
       inkscape:stockid="InfiniteLineStart"
       id="InfiniteLineStart"
       refX="0"
       refY="0"
       orient="auto">
      <g
         id="g11040"
         transform="translate(-13.866667)">
        <circle
           id="circle11042"
           r="0.85333335"
           cy="0"
           cx="3.2"
           style="stroke-width:1.06666672" />
        <circle
           id="circle11044"
           r="0.85333335"
           cy="0"
           cx="6.9333334"
           style="stroke-width:1.06666672" />
        <circle
           id="circle11046"
           r="0.85333335"
           cy="0"
           cx="10.666667"
           style="stroke-width:1.06666672" />
      </g>
    </marker>
    <marker
       inkscape:stockid="Scissors"
       orient="auto"
       refY="0"
       refX="0"
       id="Scissors"
       style="overflow:visible">
      <path
         id="schere"
         style="stroke-width:1.06666672;marker-start:none"
         d="M 9.6958781,-3.8465086 C 8.6612106,-5.0954641 6.7944114,-5.0515514 5.3998462,-4.5149583 l -8.7598983,3.2830964 c -2.5475128,-1.3938277 -5.0648397,-0.9947063 -5.0648397,-1.6733731 0,-0.5304708 0.4871106,-0.4142103 0.4141939,-1.795407 -0.070011,-1.3261618 -1.4544823,-2.3072849 -2.7630921,-2.2204198 -1.309089,-0.00784 -2.666068,0.9953721 -2.677697,2.3787319 -0.09752,1.3934788 1.074356,2.6876689 2.460548,2.7789137 1.6238303,0.2417724 4.4994755,-0.7419271 5.848475,1.67558405 C -6.1475677,1.7663094 -7.9307567,1.7714497 -9.5430087,1.6786429 -10.881541,1.6015922 -12.489242,1.9852006 -13.1277,3.3008941 c -0.616925,1.2608919 -0.01195,3.0555757 1.404532,3.4415061 1.429537,0.5246162 3.3927135,-0.1383584 3.7326637,-1.7821058 0.2620357,-1.2670112 -0.635057,-1.8623546 -0.2906746,-2.3222973 0.2598544,-0.3470506 1.910166,-0.1459682 4.8502457,-1.4664793 L 6.0547699,4.5152734 C 7.2533508,4.849885 8.7179397,4.8386822 9.7796729,3.6601188 L -0.05508366,-0.0573037 Z M -9.8324436,-5.8737129 c 1.3808629,0.7709865 1.2680951,2.8624749 -0.1668557,3.2675082 -1.2976187,0.4519051 -2.9557617,-0.8095674 -2.5420567,-2.2159624 0.242291,-1.1539754 1.763613,-1.5793408 2.7089124,-1.0515458 z m 0.060015,8.5518559 c 1.4408854,0.5321225 1.1962058,2.9700647 -0.2690354,3.2977163 -0.971797,0.3374284 -2.361119,-0.1480508 -2.45941,-1.2929487 -0.189449,-1.3920587 1.446491,-2.6497581 2.7284454,-2.0047676 z"
         inkscape:connector-curvature="0" />
    </marker>
    <linearGradient
       id="linearGradient10056">
      <stop
         style="stop-color:#f1b926;stop-opacity:1;"
         offset="0"
         id="stop10058" />
      <stop
         id="stop10064"
         offset="0.5"
         style="stop-color:#18b9e7;stop-opacity:0.49803922;" />
      <stop
         style="stop-color:#55b926;stop-opacity:0;"
         offset="1"
         id="stop10060" />
    </linearGradient>
    <linearGradient
       id="linearGradient10048">
      <stop
         style="stop-color:#fc0000;stop-opacity:1;"
         offset="0"
         id="stop10050" />
      <stop
         style="stop-color:#fc0000;stop-opacity:0;"
         offset="1"
         id="stop10052" />
    </linearGradient>
    <radialGradient
       inkscape:collect="always"
       xlink:href="#linearGradient10056"
       id="radialGradient10062"
       cx="495.65128"
       cy="128.87486"
       fx="495.65128"
       fy="128.87486"
       r="906.72266"
       gradientTransform="matrix(1,0,0,0.9795953,0,1.0823001)"
       gradientUnits="userSpaceOnUse" />
  </defs>
  <sodipodi:namedview
     id="base"
     pagecolor="#ffffff"
     bordercolor="#666666"
     borderopacity="1.0"
     inkscape:pageopacity="0.0"
     inkscape:pageshadow="2"
     inkscape:zoom="0.7"
     inkscape:cx="136.91999"
     inkscape:cy="335.65892"
     inkscape:document-units="px"
     inkscape:current-layer="layer1"
     inkscape:window-width="1280"
     inkscape:window-height="964"
     inkscape:window-x="-4"
     inkscape:window-y="-4"
     showgrid="false"
     fit-margin-top="0"
     fit-margin-left="0"
     fit-margin-right="0"
     fit-margin-bottom="0"
     inkscape:window-maximized="0" />
  <metadata
     id="metadata5160">
    <rdf:RDF>
      <cc:Work
         rdf:about="">
        <dc:format>image/svg+xml</dc:format>
        <dc:type
           rdf:resource="http://purl.org/dc/dcmitype/StillImage" />
        <dc:title />
      </cc:Work>
    </rdf:RDF>
  </metadata>
  <g
     inkscape:label="Ebene 1"
     inkscape:groupmode="layer"
     id="layer1"
     transform="translate(-111.99225,-265.03249)">
    <path
       sodipodi:type="star"
       style="opacity:1;fill:url(#radialGradient10062);fill-opacity:1;fill-rule:evenodd;stroke:#ff1100;stroke-width:5;stroke-linejoin:miter;stroke-miterlimit:4;stroke-dasharray:none;stroke-dashoffset:0;stroke-opacity:1"
       id="path8088"
       sodipodi:sides="5"
       sodipodi:cx="485.71429"
       sodipodi:cy="118.07647"
       sodipodi:r1="954.78601"
       sodipodi:r2="329.44101"
       sodipodi:arg1="-2.7355221"
       sodipodi:arg2="-5.2438002"
       inkscape:flatsided="false"
       inkscape:rounded="0"
       inkscape:randomized="0"
       d="M -391.42857,-259.06638 652.65867,402.08519 573.3464,-832.67951 267.1946,364.61353 1417.0168,-92.380199 183.71732,-13.563968 973.65877,938.76308 517.58959,-209.81886 -144.02192,835.74536 807.41129,47.066451 Z"
       transform="matrix(0.32698571,0.05471353,-0.05471353,0.32698571,226.36226,506.27202)" />
  </g>
</svg>
