#define xvkbd_icon_width 48
#define xvkbd_icon_height 48
static unsigned char xvkbd_icon_bits[] = {
   0x00, 0x00, 0x00, 0x00, 0x00, 0x00, 0x54, 0x55, 0x05, 0xa0, 0xaa, 0x02,
   0xaa, 0xaa, 0x2a, 0x54, 0x55, 0x15, 0x54, 0x55, 0x55, 0xaa, 0xaa, 0x2a,
   0x00, 0x00, 0x68, 0x14, 0x00, 0x34, 0x00, 0x00, 0xf0, 0x0a, 0x00, 0x78,
   0x00, 0x00, 0xe0, 0xc5, 0x03, 0x71, 0x00, 0x00, 0xc0, 0xc2, 0x83, 0x60,
   0x00, 0x00, 0xe0, 0x85, 0x47, 0x70, 0x00, 0x00, 0xc0, 0x02, 0x4f, 0x60,
   0x00, 0x00, 0xe0, 0x05, 0x2e, 0x70, 0x00, 0x00, 0xc0, 0x02, 0x16, 0x60,
   0x00, 0x00, 0xe0, 0x05, 0x3a, 0x70, 0x00, 0x00, 0xc0, 0x02, 0x79, 0x60,
   0x00, 0x00, 0xe0, 0x05, 0xf1, 0x70, 0x00, 0x00, 0xc0, 0x82, 0xf0, 0x60,
   0x00, 0x00, 0xe0, 0x45, 0xe0, 0x71, 0x00, 0x00, 0xc0, 0x02, 0x00, 0x60,
   0x00, 0x00, 0xe0, 0x05, 0x00, 0x70, 0x00, 0x00, 0xd0, 0x0a, 0x00, 0x68,
   0x00, 0x00, 0x68, 0x14, 0x00, 0x34, 0x54, 0x55, 0x75, 0xba, 0xaa, 0x3a,
   0xfe, 0xff, 0x3f, 0xfc, 0xff, 0x1f, 0xfe, 0xff, 0x0f, 0xf0, 0xff, 0x07,
   0x00, 0x00, 0x00, 0x00, 0x40, 0x15, 0x00, 0x00, 0x00, 0x00, 0xa8, 0x2a,
   0x00, 0x00, 0x00, 0x00, 0x54, 0x15, 0x00, 0x00, 0x00, 0x00, 0x28, 0x00,
   0x00, 0x00, 0x00, 0x10, 0x14, 0x00, 0x00, 0x00, 0x00, 0x10, 0x0a, 0x00,
   0x00, 0x00, 0x00, 0x10, 0x04, 0x00, 0x00, 0x00, 0x08, 0x10, 0x0a, 0x00,
   0x00, 0x00, 0x08, 0x1c, 0x04, 0x00, 0x00, 0x40, 0x08, 0x16, 0x0a, 0x00,
   0x00, 0x40, 0x68, 0x13, 0x04, 0x00, 0x00, 0x40, 0x5a, 0x11, 0x0a, 0x00,
   0x00, 0x70, 0x8b, 0x11, 0x04, 0x00, 0x00, 0x51, 0x89, 0x1a, 0x0a, 0x00,
   0x80, 0xd9, 0xc8, 0x0e, 0x04, 0x00, 0x58, 0xcb, 0x69, 0x00, 0x0a, 0x00,
   0x70, 0x4a, 0x1b, 0x00, 0x04, 0x00, 0x60, 0x4e, 0x06, 0x00, 0x0a, 0x00,
   0xe0, 0x44, 0x00, 0x00, 0x14, 0x00, 0xb0, 0x04, 0x00, 0x00, 0x28, 0x00,
   0x10, 0x01, 0x00, 0x00, 0x74, 0x15, 0x18, 0x00, 0x00, 0x00, 0xf8, 0x3f,
   0x00, 0x00, 0x00, 0x00, 0xe0, 0x3f, 0x00, 0x00, 0x00, 0x00, 0x00, 0x00};
