#define ams_ops_width 105
#define ams_ops_height 288
static unsigned char const ams_ops_bits[] = {
   0x00, 0x00, 0x00, 0x00, 0x00, 0x00, 0x00, 0x00, 0x00, 0x00, 0x00, 0x00,
   0x00, 0x00, 0x00, 0x00, 0x00, 0x00, 0x00, 0x00, 0x00, 0x00, 0x00, 0x00,
   0x00, 0x00, 0x00, 0x00, 0x00, 0x00, 0x00, 0x00, 0x00, 0x00, 0x00, 0x00,
   0x00, 0x00, 0x00, 0x00, 0x00, 0x00, 0x00, 0x00, 0x01, 0x00, 0x00, 0x00,
   0x00, 0x00, 0x00, 0x00, 0x00, 0x00, 0x00, 0x00, 0x00, 0x80, 0x03, 0x00,
   0x00, 0x00, 0x00, 0x00, 0x00, 0x00, 0x00, 0x00, 0x00, 0x00, 0x00, 0x00,
   0x01, 0x00, 0x00, 0x00, 0x00, 0x00, 0x00, 0x00, 0x00, 0x00, 0x00, 0x00,
   0x00, 0x00, 0x00, 0x00, 0x00, 0x00, 0x00, 0x00, 0x00, 0x00, 0x00, 0x00,
   0x00, 0x00, 0x00, 0x00, 0x00, 0x00, 0x00, 0x00, 0x00, 0x00, 0x00, 0x00,
   0x00, 0x00, 0x00, 0x00, 0x00, 0x00, 0x01, 0x00, 0x00, 0x00, 0x00, 0x00,
   0x00, 0x00, 0x00, 0x00, 0x00, 0x00, 0x00, 0x00, 0x01, 0x00, 0x00, 0x00,
   0x00, 0x00, 0x00, 0x00, 0xc0, 0x3f, 0x00, 0x00, 0x00, 0x00, 0x01, 0x00,
   0x00, 0x00, 0x00, 0x00, 0x00, 0x00, 0x20, 0x40, 0x00, 0x00, 0x00, 0x00,
   0x01, 0x00, 0x00, 0x00, 0x00, 0x00, 0x00, 0x00, 0x10, 0x80, 0x00, 0x00,
   0x00, 0x00, 0x01, 0x00, 0x00, 0x00, 0x00, 0x00, 0x00, 0x00, 0x08, 0x00,
   0x01, 0x00, 0x00, 0x00, 0x01, 0x00, 0x00, 0x20, 0x00, 0x00, 0x00, 0x00,
   0x04, 0x07, 0x02, 0x00, 0x00, 0x00, 0x01, 0x00, 0x00, 0x40, 0x00, 0x00,
   0x00, 0x00, 0x84, 0x08, 0x02, 0x00, 0x00, 0x00, 0x01, 0x00, 0x00, 0x80,
   0x01, 0x00, 0x00, 0x00, 0x44, 0x10, 0x02, 0x00, 0x00, 0x00, 0x01, 0x00,
   0x00, 0x00, 0x02, 0x00, 0x00, 0x00, 0x44, 0x10, 0x02, 0x00, 0x00, 0x00,
   0x01, 0x00, 0x00, 0x00, 0x04, 0x00, 0x00, 0x00, 0x44, 0x10, 0x02, 0x00,
   0x80, 0xff, 0xff, 0x03, 0x00, 0x00, 0x08, 0x00, 0x00, 0x00, 0x44, 0x10,
   0x02, 0x00, 0x00, 0x00, 0x01, 0x00, 0x00, 0x00, 0x10, 0x00, 0x00, 0x00,
   0x44, 0x10, 0x02, 0x00, 0x00, 0x00, 0x01, 0x00, 0x00, 0x00, 0x60, 0x00,
   0x00, 0x00, 0x44, 0x10, 0x02, 0x00, 0x00, 0x00, 0x01, 0x00, 0x00, 0x00,
   0x80, 0x00, 0x00, 0x00, 0x44, 0x10, 0x02, 0x00, 0x00, 0x00, 0x01, 0x00,
   0x00, 0x00, 0x00, 0x01, 0x00, 0x00, 0x44, 0x10, 0x02, 0x00, 0x00, 0x00,
   0x01, 0x00, 0x00, 0x00, 0x00, 0x02, 0x00, 0x00, 0x44, 0x10, 0x02, 0x00,
   0x00, 0x00, 0x01, 0x00, 0x00, 0x00, 0x00, 0x0c, 0x00, 0x00, 0x44, 0x10,
   0x02, 0x00, 0x00, 0x00, 0x01, 0x00, 0x00, 0x00, 0x00, 0x10, 0x00, 0x00,
   0x44, 0x10, 0x02, 0x00, 0x00, 0x00, 0x01, 0x00, 0x00, 0x00, 0x00, 0x20,
   0x00, 0x00, 0x00, 0x00, 0x00, 0x00, 0x00, 0x00, 0x01, 0x00, 0x00, 0x00,
   0x00, 0x00, 0x00, 0x00, 0x00, 0x00, 0x00, 0x00, 0x00, 0x00, 0x01, 0x00,
   0x00, 0x00, 0x00, 0x00, 0x00, 0x00, 0x00, 0x00, 0x00, 0x00, 0x00, 0x00,
   0x00, 0x00, 0x00, 0x00, 0x00, 0x00, 0x00, 0x00, 0x00, 0x00, 0x00, 0x00,
   0x00, 0x00, 0x00, 0x00, 0x00, 0x00, 0x00, 0x00, 0x00, 0x00, 0x00, 0x00,
   0x00, 0x00, 0x00, 0x00, 0x00, 0x00, 0x00, 0x00, 0x00, 0x00, 0x00, 0x00,
   0x00, 0x00, 0x00, 0x00, 0x00, 0x00, 0x00, 0x00, 0x00, 0x00, 0x00, 0x00,
   0x00, 0x00, 0x00, 0x00, 0x00, 0x00, 0x00, 0x00, 0x00, 0x00, 0x00, 0x00,
   0x00, 0x00, 0x00, 0x00, 0x00, 0x00, 0x00, 0x00, 0x00, 0x00, 0x00, 0x00,
   0x00, 0x00, 0x00, 0x00, 0x00, 0x00, 0x00, 0x00, 0x00, 0x00, 0x00, 0x00,
   0x00, 0x00, 0x00, 0x00, 0x00, 0x00, 0x00, 0x00, 0x00, 0x00, 0x00, 0x00,
   0x00, 0x00, 0x00, 0x00, 0x00, 0x00, 0x00, 0x00, 0x00, 0x00, 0x00, 0x00,
   0x00, 0x00, 0x00, 0x00, 0x00, 0x00, 0x00, 0x00, 0x00, 0x00, 0x00, 0x00,
   0x00, 0x00, 0x00, 0x00, 0x00, 0x00, 0x00, 0x00, 0x00, 0x00, 0x00, 0x00,
   0x00, 0x00, 0x00, 0x00, 0x00, 0x00, 0x00, 0x00, 0x00, 0x00, 0x00, 0x00,
   0x00, 0x00, 0x00, 0x00, 0x00, 0x00, 0x00, 0x00, 0x00, 0x00, 0x00, 0x00,
   0x00, 0x00, 0x00, 0x00, 0x00, 0x00, 0x00, 0x00, 0x00, 0x00, 0x00, 0x00,
   0x00, 0x00, 0x00, 0x00, 0x00, 0x00, 0x00, 0x00, 0x00, 0x00, 0x00, 0x00,
   0x00, 0x00, 0x00, 0x00, 0x00, 0x00, 0x00, 0x00, 0x00, 0x00, 0x00, 0x00,
   0x00, 0x00, 0x00, 0x00, 0x00, 0x00, 0x00, 0xc0, 0xff, 0x1f, 0x00, 0x00,
   0x00, 0x00, 0x00, 0x00, 0x00, 0x00, 0x00, 0x00, 0x00, 0x00, 0x00, 0x00,
   0x00, 0x00, 0x04, 0x00, 0x01, 0x00, 0x00, 0x00, 0x00, 0x00, 0x00, 0x00,
   0x00, 0x00, 0x00, 0x00, 0x08, 0x00, 0x01, 0x00, 0x00, 0x44, 0x10, 0x02,
   0x00, 0x00, 0x00, 0x00, 0x00, 0x00, 0x08, 0x80, 0x00, 0x00, 0x00, 0x44,
   0x10, 0x02, 0x00, 0x00, 0x00, 0x00, 0x00, 0x00, 0x10, 0x80, 0x00, 0x00,
   0x00, 0x44, 0x10, 0x02, 0x00, 0x00, 0x20, 0x00, 0x00, 0x00, 0x10, 0x40,
   0x00, 0x00, 0x00, 0x44, 0x10, 0x02, 0x00, 0x00, 0x20, 0x00, 0x00, 0x00,
   0x20, 0x40, 0x00, 0x00, 0x00, 0x44, 0x10, 0x02, 0x00, 0x00, 0x50, 0x00,
   0x00, 0x00, 0x20, 0x20, 0x00, 0x00, 0x00, 0x44, 0x10, 0x02, 0x00, 0x00,
   0x50, 0x00, 0x00, 0x00, 0x40, 0x20, 0x00, 0x00, 0x00, 0x44, 0x10, 0x02,
   0x00, 0x00, 0x88, 0x00, 0x00, 0x00, 0x40, 0x10, 0x00, 0x00, 0x00, 0x44,
   0x10, 0x02, 0x00, 0x00, 0x88, 0x00, 0x00, 0x00, 0x80, 0x10, 0x00, 0x00,
   0x00, 0x44, 0x10, 0x02, 0x00, 0x00, 0x88, 0x00, 0x00, 0x00, 0x80, 0x08,
   0x00, 0x00, 0x00, 0x44, 0x10, 0x02, 0x00, 0x00, 0x04, 0x01, 0x00, 0x00,
   0x00, 0x09, 0x00, 0x00, 0x00, 0x44, 0x10, 0x02, 0x00, 0x00, 0x04, 0x01,
   0x00, 0x00, 0x00, 0x05, 0x00, 0x00, 0x00, 0x44, 0x10, 0x02, 0x00, 0x00,
   0x02, 0x02, 0x00, 0x00, 0x00, 0x06, 0x00, 0x00, 0x00, 0x44, 0x10, 0x02,
   0x00, 0x00, 0x02, 0x02, 0x00, 0x00, 0x00, 0x02, 0x00, 0x00, 0x00, 0x84,
   0x0f, 0x02, 0x00, 0x00, 0x02, 0x02, 0x00, 0x00, 0x00, 0x00, 0x00, 0x00,
   0x00, 0x04, 0x00, 0x01, 0x00, 0x00, 0x01, 0x04, 0x00, 0x00, 0x00, 0x00,
   0x00, 0x00, 0x00, 0x08, 0x80, 0x00, 0x00, 0x00, 0x01, 0x04, 0x00, 0x00,
   0x00, 0x00, 0x00, 0x00, 0x00, 0x10, 0x40, 0x00, 0x00, 0x80, 0x00, 0x08,
   0x00, 0x00, 0x00, 0x00, 0x00, 0x00, 0x00, 0xe0, 0x3f, 0x00, 0x00, 0x80,
   0x00, 0x08, 0x00, 0x00, 0xfc, 0xff, 0x01, 0x00, 0x00, 0x00, 0x00, 0x00,
   0x00, 0x00, 0x00, 0x00, 0x00, 0x00, 0x00, 0x00, 0x00, 0x00, 0x00, 0x00,
   0x00, 0x00, 0x00, 0x00, 0x00, 0x00, 0x00, 0x00, 0x00, 0x00, 0x00, 0x00,
   0x00, 0x00, 0x00, 0x00, 0x00, 0x00, 0x00, 0x00, 0x00, 0x00, 0x00, 0x00,
   0x00, 0x00, 0x00, 0x00, 0x00, 0x00, 0x00, 0x00, 0x00, 0x00, 0x00, 0x00,
   0x00, 0x00, 0x00, 0x00, 0x00, 0x00, 0x00, 0x00, 0x00, 0x00, 0x00, 0x00,
   0x00, 0x00, 0x00, 0x00, 0x00, 0x00, 0x00, 0x00, 0x00, 0x00, 0x00, 0x00,
   0x00, 0x00, 0x00, 0x00, 0x00, 0x00, 0x00, 0x00, 0x00, 0x00, 0x00, 0x00,
   0x00, 0x00, 0x00, 0x00, 0x00, 0x00, 0x00, 0x00, 0x00, 0x00, 0x00, 0x00,
   0x00, 0x00, 0x00, 0x00, 0x00, 0x00, 0x00, 0x00, 0x00, 0x00, 0x00, 0x00,
   0x00, 0x00, 0x00, 0x00, 0x00, 0x00, 0x00, 0x00, 0x00, 0x00, 0x00, 0x00,
   0x00, 0x00, 0x00, 0x00, 0x00, 0x00, 0x00, 0x00, 0x00, 0x00, 0x00, 0x00,
   0x00, 0x00, 0x00, 0x00, 0x00, 0x00, 0x00, 0x00, 0x00, 0x00, 0x00, 0x00,
   0x00, 0x00, 0x00, 0x00, 0x00, 0x00, 0x00, 0x00, 0x00, 0x00, 0x00, 0x00,
   0x00, 0x00, 0x00, 0x00, 0x00, 0x00, 0x00, 0x00, 0x00, 0x00, 0x00, 0x00,
   0x00, 0x00, 0x00, 0x00, 0x00, 0x00, 0x00, 0x00, 0x00, 0x00, 0x00, 0xf8,
   0xff, 0x03, 0x00, 0x00, 0x00, 0x00, 0x00, 0x00, 0x00, 0x00, 0x00, 0x00,
   0x00, 0x00, 0x00, 0x00, 0x00, 0x00, 0x00, 0x00, 0x00, 0x00, 0x00, 0x00,
   0x00, 0x00, 0x00, 0x00, 0x00, 0x00, 0x00, 0x00, 0x00, 0x00, 0x00, 0x00,
   0x00, 0x00, 0x00, 0x00, 0x00, 0x00, 0x00, 0x00, 0x00, 0x00, 0x00, 0x00,
   0x00, 0x00, 0x00, 0x00, 0x00, 0x00, 0x00, 0x00, 0x00, 0x00, 0x00, 0xf0,
   0xff, 0x7f, 0x00, 0xc0, 0xff, 0xff, 0x01, 0x00, 0x00, 0x00, 0x00, 0x00,
   0x00, 0x10, 0x00, 0x40, 0x00, 0xc0, 0x00, 0x80, 0x01, 0x00, 0x00, 0xf8,
   0xff, 0x03, 0x00, 0x10, 0x00, 0x40, 0x00, 0x40, 0x01, 0x40, 0x01, 0x00,
   0x00, 0x00, 0x00, 0x00, 0x00, 0x10, 0x00, 0x40, 0x00, 0x40, 0x02, 0x20,
   0x01, 0x00, 0x00, 0x00, 0x00, 0x00, 0x00, 0x10, 0x00, 0x40, 0x00, 0x40,
   0x04, 0x10, 0x01, 0x00, 0x00, 0x00, 0x00, 0x00, 0x00, 0x10, 0x00, 0x40,
   0x00, 0x40, 0x08, 0x08, 0x01, 0x00, 0x00, 0x00, 0x00, 0x00, 0x00, 0x10,
   0x00, 0x40, 0x00, 0x40, 0x10, 0x04, 0x01, 0x00, 0x00, 0x00, 0x02, 0x00,
   0x00, 0x10, 0x00, 0x40, 0x00, 0x40, 0x20, 0x02, 0x01, 0x00, 0x00, 0x00,
   0x02, 0x00, 0x00, 0x10, 0x00, 0x40, 0x00, 0x40, 0x40, 0x01, 0x01, 0x00,
   0x00, 0x00, 0x05, 0x00, 0x00, 0xf0, 0xff, 0x7f, 0x00, 0x40, 0x80, 0x00,
   0x01, 0x00, 0x00, 0x00, 0x05, 0x00, 0x00, 0x10, 0x00, 0x40, 0x00, 0x40,
   0x80, 0x00, 0x01, 0x00, 0x00, 0x80, 0x08, 0x00, 0x00, 0x10, 0x00, 0x40,
   0x00, 0x40, 0x40, 0x01, 0x01, 0x00, 0x00, 0x80, 0x08, 0x00, 0x00, 0x10,
   0x00, 0x40, 0x00, 0x40, 0x20, 0x02, 0x01, 0x00, 0x00, 0x80, 0x08, 0x00,
   0x00, 0x10, 0x00, 0x40, 0x00, 0x40, 0x10, 0x04, 0x01, 0x00, 0x00, 0x40,
   0x10, 0x00, 0x00, 0x10, 0x00, 0x40, 0x00, 0x40, 0x08, 0x08, 0x01, 0x00,
   0x00, 0x40, 0x10, 0x00, 0x00, 0x10, 0x00, 0x40, 0x00, 0x40, 0x04, 0x10,
   0x01, 0x00, 0x00, 0x20, 0x20, 0x00, 0x00, 0x10, 0x00, 0x40, 0x00, 0x40,
   0x02, 0x20, 0x01, 0x00, 0x00, 0x20, 0x20, 0x00, 0x00, 0x10, 0x00, 0x40,
   0x00, 0x40, 0x01, 0x40, 0x01, 0x00, 0x00, 0x20, 0x20, 0x00, 0x00, 0x10,
   0x00, 0x40, 0x00, 0xc0, 0x00, 0x80, 0x01, 0x00, 0x00, 0x10, 0x40, 0x00,
   0x00, 0xf0, 0xff, 0x7f, 0x00, 0xc0, 0xff, 0xff, 0x01, 0x00, 0x00, 0x10,
   0x40, 0x00, 0x00, 0x00, 0x00, 0x00, 0x00, 0x00, 0x00, 0x00, 0x00, 0x00,
   0x00, 0x08, 0x80, 0x00, 0x00, 0x00, 0x00, 0x00, 0x00, 0x00, 0x00, 0x00,
   0x00, 0x00, 0x00, 0x08, 0x80, 0x00, 0x00, 0x00, 0x00, 0x00, 0x00, 0x00,
   0x00, 0x00, 0x00, 0x00, 0x00, 0x00, 0x00, 0x00, 0x00, 0x00, 0x00, 0x00,
   0x00, 0x00, 0x00, 0x00, 0x00, 0x00, 0x00, 0x00, 0x00, 0x00, 0x00, 0x00,
   0x00, 0x00, 0x00, 0x00, 0x00, 0x00, 0x00, 0x00, 0x00, 0x00, 0x00, 0x00,
   0x00, 0x00, 0x00, 0x00, 0x00, 0x00, 0x00, 0x00, 0x00, 0x00, 0x00, 0x00,
   0x00, 0x00, 0x00, 0x00, 0x00, 0x00, 0x00, 0x00, 0x00, 0x00, 0x00, 0x00,
   0x00, 0x00, 0x00, 0x00, 0x00, 0x00, 0x00, 0x00, 0x00, 0x00, 0x00, 0x00,
   0x00, 0x00, 0x00, 0x00, 0x00, 0x00, 0x00, 0x00, 0x00, 0x00, 0x00, 0x00,
   0x00, 0x00, 0x00, 0x00, 0x00, 0x00, 0x00, 0x00, 0x00, 0x00, 0x00, 0x00,
   0x00, 0x00, 0x00, 0x00, 0x00, 0x00, 0x00, 0x00, 0x00, 0x00, 0x00, 0x00,
   0x00, 0x00, 0x00, 0x00, 0x00, 0x00, 0x00, 0x00, 0x00, 0x00, 0x00, 0x00,
   0x00, 0x00, 0x00, 0x00, 0x00, 0x00, 0x00, 0x00, 0x00, 0x00, 0x00, 0x00,
   0x00, 0x00, 0x00, 0x00, 0x00, 0x00, 0x00, 0x00, 0x00, 0x00, 0x00, 0x00,
   0x00, 0x00, 0x00, 0x00, 0x00, 0x00, 0x00, 0x00, 0x00, 0x00, 0x00, 0x00,
   0x00, 0x00, 0x00, 0x00, 0x00, 0x00, 0x00, 0x00, 0x00, 0x00, 0x00, 0x00,
   0x00, 0x00, 0x00, 0x00, 0x00, 0x00, 0x00, 0x00, 0x00, 0x00, 0x00, 0x00,
   0x00, 0x00, 0x00, 0x00, 0x00, 0x00, 0x00, 0x00, 0x00, 0x00, 0x00, 0x00,
   0x00, 0x00, 0x00, 0x00, 0x00, 0x00, 0x00, 0x00, 0x80, 0xff, 0xff, 0x03,
   0x00, 0xf0, 0xff, 0x7f, 0x00, 0x00, 0x00, 0x00, 0x00, 0x00, 0x80, 0x00,
   0x00, 0x02, 0x00, 0x10, 0x20, 0x40, 0x00, 0x00, 0x00, 0x00, 0x00, 0x00,
   0x80, 0x00, 0x00, 0x02, 0x00, 0x10, 0x20, 0x40, 0x00, 0x00, 0xe0, 0x01,
   0x00, 0x00, 0x80, 0x00, 0x00, 0x02, 0x00, 0x10, 0x20, 0x40, 0x00, 0x00,
   0xe1, 0x41, 0x00, 0x00, 0x80, 0x00, 0x00, 0x02, 0x00, 0x10, 0x20, 0x40,
   0x00, 0x00, 0xe3, 0x61, 0x00, 0x00, 0x80, 0x00, 0x00, 0x02, 0x00, 0x10,
   0x20, 0x40, 0x00, 0x00, 0xe6, 0x31, 0x00, 0x00, 0x80, 0x00, 0x00, 0x02,
   0x00, 0x10, 0x20, 0x40, 0x00, 0x00, 0x0c, 0x18, 0x00, 0x00, 0x80, 0x00,
   0x00, 0x02, 0x00, 0x10, 0x20, 0x40, 0x00, 0x00, 0x18, 0x0c, 0x00, 0x00,
   0x80, 0x00, 0x01, 0x02, 0x00, 0x10, 0x20, 0x40, 0x00, 0x00, 0x30, 0x06,
   0x00, 0x00, 0x80, 0x80, 0x03, 0x02, 0x00, 0xf0, 0xff, 0x7f, 0x00, 0x00,
   0x60, 0x03, 0x00, 0x00, 0x80, 0x00, 0x01, 0x02, 0x00, 0x10, 0x20, 0x40,
   0x00, 0xc0, 0xff, 0xff, 0x01, 0x00, 0x80, 0x00, 0x00, 0x02, 0x00, 0x10,
   0x20, 0x40, 0x00, 0x00, 0xc0, 0x01, 0x00, 0x00, 0x80, 0x00, 0x00, 0x02,
   0x00, 0x10, 0x20, 0x40, 0x00, 0x00, 0x60, 0x03, 0x00, 0x00, 0x80, 0x00,
   0x00, 0x02, 0x00, 0x10, 0x20, 0x40, 0x00, 0x00, 0x30, 0x06, 0x00, 0x00,
   0x80, 0x00, 0x00, 0x02, 0x00, 0x10, 0x20, 0x40, 0x00, 0x00, 0x18, 0x0c,
   0x00, 0x00, 0x80, 0x00, 0x00, 0x02, 0x00, 0x10, 0x20, 0x40, 0x00, 0x00,
   0xec, 0x19, 0x00, 0x00, 0x80, 0x00, 0x00, 0x02, 0x00, 0x10, 0x20, 0x40,
   0x00, 0x00, 0xe6, 0x31, 0x00, 0x00, 0x80, 0x00, 0x00, 0x02, 0x00, 0x10,
   0x20, 0x40, 0x00, 0x00, 0xe3, 0x61, 0x00, 0x00, 0x80, 0x00, 0x00, 0x02,
   0x00, 0x10, 0x20, 0x40, 0x00, 0x00, 0xe1, 0x41, 0x00, 0x00, 0x80, 0xff,
   0xff, 0x03, 0x00, 0xf0, 0xff, 0x7f, 0x00, 0x00, 0x00, 0x00, 0x00, 0x00,
   0x00, 0x00, 0x00, 0x00, 0x00, 0x00, 0x00, 0x00, 0x00, 0x00, 0x00, 0x00,
   0x00, 0x00, 0x00, 0x00, 0x00, 0x00, 0x00, 0x00, 0x00, 0x00, 0x00, 0x00,
   0x00, 0x00, 0x00, 0x00, 0x00, 0x00, 0x00, 0x00, 0x00, 0x00, 0x00, 0x00,
   0x00, 0x00, 0x00, 0x00, 0x00, 0x00, 0x00, 0x00, 0x00, 0x00, 0x00, 0x00,
   0x00, 0x00, 0x00, 0x00, 0x00, 0x00, 0x00, 0x00, 0x00, 0x00, 0x00, 0x00,
   0x00, 0x00, 0x00, 0x00, 0x00, 0x00, 0x00, 0x00, 0x00, 0x00, 0x00, 0x00,
   0x00, 0x00, 0x00, 0x00, 0x00, 0x00, 0x00, 0x00, 0x00, 0x00, 0x00, 0x00,
   0x00, 0x00, 0x00, 0x00, 0x00, 0x00, 0x00, 0x00, 0x00, 0x00, 0x00, 0x00,
   0x00, 0x00, 0x00, 0x00, 0x00, 0x00, 0x00, 0x00, 0x00, 0x00, 0x00, 0x00,
   0x00, 0x00, 0x00, 0x00, 0x00, 0x00, 0x00, 0x00, 0x00, 0x00, 0x00, 0x00,
   0x00, 0x00, 0x00, 0x00, 0x00, 0x00, 0x00, 0x00, 0x00, 0x00, 0x00, 0x00,
   0x00, 0x00, 0x00, 0x00, 0x00, 0x00, 0x00, 0x00, 0x00, 0x00, 0x00, 0x00,
   0x00, 0x00, 0x00, 0x00, 0x00, 0x00, 0x00, 0x00, 0x00, 0x00, 0x00, 0x00,
   0x00, 0x00, 0x00, 0x00, 0x00, 0x00, 0x00, 0x00, 0x00, 0x00, 0x00, 0x00,
   0x00, 0x00, 0x00, 0x00, 0x00, 0x00, 0x00, 0x00, 0x00, 0x00, 0x00, 0x00,
   0x00, 0x00, 0x00, 0x00, 0x00, 0x00, 0x00, 0x00, 0x00, 0x00, 0x00, 0x00,
   0x00, 0x00, 0x00, 0x00, 0x00, 0x00, 0x00, 0x00, 0x00, 0x00, 0x00, 0x00,
   0x00, 0x00, 0x00, 0x00, 0x00, 0x00, 0x00, 0x00, 0x00, 0x00, 0x00, 0x00,
   0x00, 0x00, 0x00, 0x00, 0x00, 0x00, 0x00, 0x00, 0x00, 0x00, 0x00, 0x00,
   0x00, 0x00, 0x00, 0x00, 0x00, 0x00, 0x00, 0x00, 0x00, 0x00, 0x00, 0x00,
   0x00, 0x00, 0x00, 0x00, 0x00, 0x00, 0x00, 0x40, 0x00, 0x00, 0x00, 0x00,
   0x00, 0x00, 0x00, 0x00, 0x00, 0x00, 0x00, 0x00, 0x00, 0x80, 0x00, 0x00,
   0x00, 0x00, 0x00, 0x00, 0x00, 0x00, 0x00, 0x00, 0x00, 0x00, 0x00, 0x00,
   0x01, 0x00, 0x00, 0x00, 0x00, 0x00, 0x00, 0x00, 0x00, 0x00, 0x00, 0x08,
   0x00, 0x00, 0x02, 0x00, 0x00, 0x00, 0x00, 0x02, 0x40, 0x00, 0x00, 0x20,
   0x00, 0x0c, 0x00, 0x00, 0x04, 0x00, 0x00, 0x00, 0x00, 0x06, 0x20, 0x00,
   0x00, 0x40, 0x00, 0x0a, 0x00, 0x00, 0x08, 0x00, 0x00, 0x00, 0x00, 0x0a,
   0x10, 0x00, 0x00, 0x80, 0x00, 0x09, 0x00, 0x00, 0x10, 0x00, 0x00, 0x00,
   0x00, 0x12, 0x08, 0x00, 0x00, 0x00, 0x81, 0x08, 0x00, 0x00, 0x20, 0x00,
   0x00, 0x00, 0x00, 0x22, 0x04, 0x00, 0x00, 0x00, 0x42, 0x08, 0x00, 0x00,
   0x40, 0x00, 0x00, 0x00, 0x00, 0x42, 0x02, 0x00, 0x00, 0x00, 0x24, 0x08,
   0x00, 0x00, 0x80, 0x00, 0x00, 0x00, 0x00, 0x82, 0x01, 0x00, 0x00, 0x00,
   0x18, 0x08, 0x00, 0x00, 0x40, 0x01, 0x00, 0x00, 0x00, 0x82, 0x01, 0x00,
   0x00, 0x00, 0x10, 0x08, 0x00, 0x00, 0x20, 0x02, 0x00, 0x00, 0x00, 0x82,
   0x01, 0x00, 0x00, 0x00, 0x28, 0x08, 0x00, 0x00, 0x10, 0x04, 0x00, 0x00,
   0x00, 0x42, 0x02, 0x00, 0x00, 0x00, 0x44, 0x08, 0x00, 0x00, 0x08, 0x08,
   0x00, 0x00, 0x00, 0x22, 0x04, 0x00, 0x00, 0x00, 0x82, 0x08, 0x00, 0x00,
   0x04, 0x10, 0x00, 0x00, 0x00, 0x12, 0x08, 0x00, 0x00, 0x00, 0x01, 0x09,
   0x00, 0x00, 0x02, 0x20, 0x00, 0x00, 0x00, 0x0a, 0x10, 0x00, 0x00, 0x80,
   0x00, 0x0a, 0x00, 0x00, 0x01, 0x40, 0x00, 0x00, 0x00, 0x06, 0x20, 0x00,
   0x00, 0x40, 0x00, 0x0c, 0x00, 0x80, 0x00, 0x80, 0x00, 0x00, 0x00, 0x02,
   0x40, 0x00, 0x00, 0x20, 0x00, 0x08, 0x00, 0x40, 0x00, 0x00, 0x01, 0x00,
   0x00, 0x00, 0x00, 0x00, 0x00, 0x00, 0x00, 0x00, 0x00, 0x00, 0x00, 0x00,
   0x00, 0x00, 0x00, 0x00, 0x00, 0x00, 0x00, 0x00, 0x00, 0x00, 0x00, 0x00,
   0x00, 0x00, 0x00, 0x00, 0x00, 0x00, 0x00, 0x00, 0x00, 0x00, 0x00, 0x00,
   0x00, 0x00, 0x00, 0x00, 0x00, 0x00, 0x00, 0x00, 0x00, 0x00, 0x00, 0x00,
   0x00, 0x00, 0x00, 0x00, 0x00, 0x00, 0x00, 0x00, 0x00, 0x00, 0x00, 0x00,
   0x00, 0x00, 0x00, 0x00, 0x00, 0x00, 0x00, 0x00, 0x00, 0x00, 0x00, 0x00,
   0x00, 0x00, 0x00, 0x00, 0x00, 0x00, 0x00, 0x00, 0x00, 0x00, 0x00, 0x00,
   0x00, 0x00, 0x00, 0x00, 0x00, 0x00, 0x00, 0x00, 0x00, 0x00, 0x00, 0x00,
   0x00, 0x00, 0x00, 0x00, 0x00, 0x00, 0x00, 0x00, 0x00, 0x00, 0x00, 0x00,
   0x00, 0x00, 0x00, 0x00, 0x00, 0x00, 0x00, 0x00, 0x00, 0x00, 0x00, 0x00,
   0x00, 0x00, 0x00, 0x00, 0x00, 0x00, 0x00, 0x00, 0x00, 0x00, 0x00, 0x00,
   0x00, 0x00, 0x00, 0x00, 0x00, 0x00, 0x00, 0x00, 0x00, 0x00, 0x00, 0x00,
   0x00, 0x00, 0x00, 0x00, 0x00, 0x00, 0x00, 0x00, 0x00, 0x00, 0x00, 0x00,
   0x00, 0x00, 0x00, 0x00, 0x00, 0x00, 0x00, 0x00, 0x00, 0x00, 0x00, 0x00,
   0x00, 0x00, 0x00, 0x00, 0x00, 0x00, 0x00, 0x00, 0x00, 0x00, 0x00, 0x00,
   0x00, 0x00, 0x00, 0x00, 0x00, 0x00, 0x00, 0x00, 0x00, 0x00, 0x00, 0x00,
   0x00, 0x00, 0x00, 0x00, 0x00, 0x00, 0x00, 0x00, 0x00, 0x00, 0x00, 0x00,
   0x00, 0x00, 0x00, 0x00, 0x00, 0x00, 0x00, 0x00, 0x00, 0x00, 0x00, 0x00,
   0x00, 0x00, 0x00, 0x00, 0x00, 0x00, 0x00, 0x00, 0x00, 0x00, 0x00, 0x02,
   0x00, 0x00, 0x00, 0x00, 0x00, 0x00, 0x00, 0x00, 0x00, 0x00, 0x00, 0x00,
   0x00, 0x01, 0x00, 0x00, 0x00, 0x00, 0x00, 0x00, 0x00, 0x00, 0x00, 0x00,
   0x00, 0x00, 0x80, 0x00, 0x00, 0x00, 0x00, 0x00, 0x00, 0x00, 0x00, 0x00,
   0x00, 0x00, 0x00, 0x00, 0x40, 0x00, 0x00, 0x00, 0x20, 0x00, 0x00, 0x00,
   0x07, 0xc0, 0x01, 0x00, 0x00, 0x00, 0x20, 0x00, 0x00, 0x00, 0x20, 0x00,
   0x00, 0x00, 0x08, 0x20, 0x00, 0x00, 0x00, 0x00, 0x10, 0x00, 0x00, 0x00,
   0x20, 0x00, 0x00, 0x00, 0x10, 0x10, 0x00, 0x00, 0x00, 0x00, 0x08, 0x00,
   0x00, 0x00, 0x20, 0x00, 0x00, 0x00, 0x20, 0x08, 0x00, 0x00, 0x00, 0x00,
   0x04, 0x00, 0x00, 0x00, 0x20, 0x00, 0x00, 0x00, 0x60, 0x0c, 0x00, 0x00,
   0x00, 0x00, 0x02, 0x00, 0x00, 0x00, 0x20, 0x00, 0x00, 0x00, 0x40, 0x04,
   0x00, 0x00, 0x00, 0x00, 0x01, 0x00, 0x00, 0x00, 0x20, 0x00, 0x00, 0x00,
   0x40, 0x04, 0x00, 0x00, 0x00, 0x80, 0x02, 0x00, 0x00, 0x00, 0x70, 0x00,
   0x00, 0x00, 0x80, 0x02, 0x00, 0x00, 0x00, 0x40, 0x04, 0x00, 0x00, 0x00,
   0x70, 0x00, 0x00, 0x00, 0x80, 0x03, 0x00, 0x00, 0x00, 0x20, 0x08, 0x00,
   0x00, 0x00, 0x50, 0x00, 0x00, 0x00, 0x80, 0x03, 0x00, 0x00, 0x00, 0x10,
   0x10, 0x00, 0x00, 0x00, 0x50, 0x00, 0x00, 0x00, 0x80, 0x03, 0x00, 0x00,
   0x00, 0x08, 0x20, 0x00, 0x00, 0x00, 0x50, 0x00, 0x00, 0x00, 0x80, 0x03,
   0x00, 0x00, 0x00, 0x04, 0x40, 0x00, 0x00, 0x00, 0x88, 0x00, 0x00, 0x00,
   0x00, 0x01, 0x00, 0x00, 0x00, 0x02, 0x80, 0x00, 0x00, 0x00, 0x04, 0x01,
   0x00, 0x00, 0x00, 0x01, 0x00, 0x00, 0x00, 0x01, 0x00, 0x01, 0x00, 0x00,
   0x02, 0x02, 0x00, 0x00, 0x00, 0x01, 0x00, 0x00, 0x80, 0x00, 0x00, 0x00,
   0x00, 0x00, 0x01, 0x04, 0x00, 0x00, 0x00, 0x01, 0x00, 0x00, 0x00, 0x00,
   0x00, 0x00, 0x00, 0xe0, 0x00, 0x38, 0x00, 0x00, 0x00, 0x01, 0x00, 0x00,
   0x00, 0x00, 0x00, 0x00, 0x00, 0x00, 0x00, 0x00, 0x00, 0x00, 0x00, 0x00,
   0x00, 0x00, 0x00, 0x00, 0x00, 0x00, 0x00, 0x00, 0x00, 0x00, 0x00, 0x00,
   0x00, 0x00, 0x00, 0x00, 0x00, 0x00, 0x00, 0x00, 0x00, 0x00, 0x00, 0x00,
   0x00, 0x00, 0x00, 0x00, 0x00, 0x00, 0x00, 0x00, 0x00, 0x00, 0x00, 0x00,
   0x00, 0x00, 0x00, 0x00, 0x00, 0x00, 0x00, 0x00, 0x00, 0x00, 0x00, 0x00,
   0x00, 0x00, 0x00, 0x00, 0x00, 0x00, 0x00, 0x00, 0x00, 0x00, 0x00, 0x00,
   0x00, 0x00, 0x00, 0x00, 0x00, 0x00, 0x00, 0x00, 0x00, 0x00, 0x00, 0x00,
   0x00, 0x00, 0x00, 0x00, 0x00, 0x00, 0x00, 0x00, 0x00, 0x00, 0x00, 0x00,
   0x00, 0x00, 0x00, 0x00, 0x00, 0x00, 0x00, 0x00, 0x00, 0x00, 0x00, 0x00,
   0x00, 0x00, 0x00, 0x00, 0x00, 0x00, 0x00, 0x00, 0x00, 0x00, 0x00, 0x00,
   0x00, 0x00, 0x00, 0x00, 0x00, 0x00, 0x00, 0x00, 0x00, 0x00, 0x00, 0x00,
   0x00, 0x00, 0x00, 0x00, 0x00, 0x00, 0x00, 0x00, 0x00, 0x00, 0x00, 0x00,
   0x00, 0x00, 0x00, 0x00, 0x00, 0x00, 0x00, 0x00, 0x00, 0x00, 0x00, 0x00,
   0x00, 0x00, 0x00, 0x00, 0x00, 0x00, 0x00, 0x00, 0x00, 0x00, 0x00, 0x00,
   0x00, 0x00, 0x00, 0x00, 0x00, 0x00, 0x00, 0x00, 0x00, 0x00, 0x00, 0x00,
   0x00, 0x00, 0x00, 0x00, 0x00, 0x00, 0x00, 0x00, 0x00, 0x00, 0x00, 0x00,
   0x00, 0x00, 0x00, 0x00, 0x00, 0x00, 0x00, 0x00, 0x00, 0x00, 0x00, 0x00,
   0x00, 0x00, 0x00, 0x00, 0x00, 0x00, 0x00, 0x00, 0x00, 0x00, 0x00, 0x00,
   0x00, 0x00, 0x00, 0x00, 0x00, 0x00, 0x00, 0x00, 0x00, 0x00, 0x00, 0x00,
   0x00, 0x00, 0x00, 0x00, 0x00, 0x00, 0x00, 0x00, 0x00, 0x00, 0x00, 0x80,
   0x00, 0x00, 0x00, 0x00, 0x00, 0x00, 0x00, 0x00, 0x00, 0x00, 0x00, 0x00,
   0x00, 0x78, 0x0f, 0x00, 0x00, 0x00, 0x70, 0x00, 0x00, 0x00, 0x00, 0x00,
   0x00, 0x00, 0x00, 0x06, 0x30, 0x00, 0x00, 0x00, 0x8e, 0x03, 0x00, 0x00,
   0xe0, 0x03, 0x00, 0x00, 0x00, 0x01, 0x40, 0x00, 0x00, 0x00, 0x01, 0x04,
   0x00, 0x00, 0x18, 0x0c, 0x00, 0x00, 0x80, 0x00, 0x80, 0x00, 0x00, 0x80,
   0x20, 0x08, 0x00, 0x00, 0x04, 0x10, 0x00, 0x00, 0x80, 0x00, 0x80, 0x00,
   0x00, 0x40, 0x20, 0x10, 0x00, 0x00, 0x02, 0x20, 0x00, 0x00, 0x40, 0x00,
   0x00, 0x01, 0x00, 0x20, 0x21, 0x24, 0x00, 0x00, 0xc1, 0x41, 0x00, 0x00,
   0x40, 0x00, 0x00, 0x01, 0x00, 0x20, 0x22, 0x22, 0x00, 0x00, 0x21, 0x42,
   0x00, 0x00, 0x40, 0x00, 0x00, 0x01, 0x00, 0x20, 0xac, 0x21, 0x00, 0x80,
   0x10, 0x84, 0x00, 0x00, 0x40, 0x00, 0x00, 0x01, 0x00, 0x10, 0x70, 0x40,
   0x00, 0x80, 0x08, 0x88, 0x00, 0x00, 0x20, 0xf8, 0x1f, 0x02, 0x00, 0x10,
   0x20, 0x40, 0x00, 0x80, 0x08, 0x88, 0x00, 0x00, 0x40, 0x00, 0x00, 0x01,
   0x00, 0x10, 0x70, 0x40, 0x00, 0x80, 0x08, 0x88, 0x00, 0x00, 0x40, 0x00,
   0x00, 0x01, 0x00, 0x20, 0xac, 0x21, 0x00, 0x80, 0x10, 0x84, 0x00, 0x00,
   0x40, 0x00, 0x00, 0x01, 0x00, 0x20, 0x22, 0x22, 0x00, 0x00, 0x21, 0x42,
   0x00, 0x00, 0x40, 0x00, 0x00, 0x01, 0x00, 0x20, 0x21, 0x24, 0x00, 0x00,
   0xc1, 0x41, 0x00, 0x00, 0x80, 0x00, 0x80, 0x00, 0x00, 0x40, 0x20, 0x10,
   0x00, 0x00, 0x02, 0x20, 0x00, 0x00, 0x80, 0x00, 0x80, 0x00, 0x00, 0x80,
   0x20, 0x08, 0x00, 0x00, 0x04, 0x10, 0x00, 0x00, 0x00, 0x01, 0x40, 0x00,
   0x00, 0x00, 0x01, 0x04, 0x00, 0x00, 0x18, 0x0c, 0x00, 0x00, 0x00, 0x06,
   0x30, 0x00, 0x00, 0x00, 0x8e, 0x03, 0x00, 0x00, 0xe0, 0x03, 0x00, 0x00,
   0x00, 0x78, 0x0f, 0x00, 0x00, 0x00, 0x70, 0x00, 0x00, 0x00, 0x00, 0x00,
   0x00, 0x00, 0x00, 0x80, 0x00, 0x00, 0x00, 0x00, 0x00, 0x00, 0x00, 0x00,
   0x00, 0x00, 0x00, 0x00, 0x00, 0x00, 0x00, 0x00, 0x00, 0x00, 0x00, 0x00,
   0x00, 0x00, 0x00, 0x00, 0x00, 0x00, 0x00, 0x00, 0x00, 0x00, 0x00, 0x00,
   0x00, 0x00, 0x00, 0x00, 0x00, 0x00, 0x00, 0x00, 0x00, 0x00, 0x00, 0x00,
   0x00, 0x00, 0x00, 0x00, 0x00, 0x00, 0x00, 0x00, 0x00, 0x00, 0x00, 0x00,
   0x00, 0x00, 0x00, 0x00, 0x00, 0x00, 0x00, 0x00, 0x00, 0x00, 0x00, 0x00,
   0x00, 0x00, 0x00, 0x00, 0x00, 0x00, 0x00, 0x00, 0x00, 0x00, 0x00, 0x00,
   0x00, 0x00, 0x00, 0x00, 0x00, 0x00, 0x00, 0x00, 0x00, 0x00, 0x00, 0x00,
   0x00, 0x00, 0x00, 0x00, 0x00, 0x00, 0x00, 0x00, 0x00, 0x00, 0x00, 0x00,
   0x00, 0x00, 0x00, 0x00, 0x00, 0x00, 0x00, 0x00, 0x00, 0x00, 0x00, 0x00,
   0x00, 0x00, 0x00, 0x00, 0x00, 0x00, 0x00, 0x00, 0x00, 0x00, 0x00, 0x00,
   0x00, 0x00, 0x00, 0x00, 0x00, 0x00, 0x00, 0x00, 0x00, 0x00, 0x00, 0x00,
   0x00, 0x00, 0x00, 0x00, 0x00, 0x00, 0x00, 0x00, 0x00, 0x00, 0x00, 0x00,
   0x00, 0x00, 0x00, 0x00, 0x00, 0x00, 0x00, 0x00, 0x00, 0x00, 0x00, 0x00,
   0x00, 0x00, 0x00, 0x00, 0x00, 0x00, 0x00, 0x00, 0x00, 0x00, 0x00, 0x00,
   0x00, 0x00, 0x00, 0x00, 0x00, 0x00, 0x00, 0x00, 0x00, 0x00, 0x00, 0x00,
   0x00, 0x00, 0x00, 0x00, 0x00, 0x00, 0x00, 0x00, 0x00, 0x00, 0x00, 0x00,
   0x00, 0x00, 0x00, 0x00, 0x00, 0x00, 0x00, 0x00, 0x00, 0x00, 0x00, 0x00,
   0x00, 0x00, 0x00, 0x00, 0x00, 0x00, 0x00, 0x00, 0x00, 0x00, 0x00, 0x00,
   0x00, 0x00, 0x00, 0x00, 0x00, 0x00, 0x00, 0x00, 0x00, 0x00, 0x00, 0x00,
   0x00, 0x00, 0x00, 0x00, 0x00, 0x00, 0x00, 0x00, 0x00, 0x00, 0x00, 0x00,
   0x00, 0x00, 0x00, 0x00, 0x00, 0x00, 0x00, 0x00, 0xff, 0x0f, 0x00, 0x00,
   0x00, 0x00, 0x00, 0x00, 0x00, 0x00, 0x00, 0x00, 0x00, 0x00, 0xfe, 0x07,
   0x00, 0x00, 0x00, 0x00, 0x00, 0x00, 0x00, 0x00, 0x00, 0x00, 0x00, 0x00,
   0x60, 0x00, 0x00, 0x00, 0x00, 0x00, 0x00, 0x00, 0x00, 0x00, 0x00, 0x00,
   0x00, 0x00, 0x60, 0x00, 0x00, 0x00, 0x00, 0x00, 0x00, 0x00, 0x00, 0x00,
   0x00, 0x00, 0x00, 0x00, 0x60, 0x00, 0x00, 0x00, 0x00, 0x00, 0x00, 0x00,
   0x00, 0x00, 0x00, 0x00, 0x00, 0x00, 0x60, 0x00, 0x00, 0x00, 0x00, 0x00,
   0x00, 0x00, 0x00, 0x00, 0x00, 0x00, 0x00, 0x00, 0x60, 0x00, 0x00, 0x00,
   0x00, 0x00, 0x00, 0x00, 0x00, 0xe0, 0x03, 0x00, 0x00, 0x00, 0x60, 0x00,
   0x00, 0x00, 0x00, 0x00, 0x00, 0x00, 0x00, 0xe0, 0x03, 0x00, 0x00, 0x00,
   0x60, 0x00, 0x00, 0x00, 0x00, 0x00, 0x00, 0x00, 0x00, 0xe0, 0x03, 0x00,
   0x00, 0x00, 0x60, 0x00, 0x00, 0x00, 0x00, 0x00, 0x00, 0x00, 0x00, 0xe0,
   0x03, 0x00, 0x00, 0x00, 0x60, 0x00, 0x00, 0x00, 0x00, 0x00, 0x00, 0x00,
   0x00, 0xe0, 0x03, 0x00, 0x00, 0x00, 0x60, 0x00, 0x00, 0x00, 0x00, 0x00,
   0x00, 0x00, 0x00, 0x00, 0x00, 0x00, 0x00, 0x00, 0x60, 0x00, 0x00, 0x00,
   0x00, 0x00, 0x00, 0x00, 0x00, 0x00, 0x00, 0x00, 0x00, 0x00, 0x60, 0x00,
   0x00, 0x00, 0x00, 0x00, 0x00, 0x00, 0x00, 0x00, 0x00, 0x00, 0x00, 0x00,
   0x60, 0x00, 0x00, 0x00, 0x00, 0x00, 0x00, 0x00, 0x00, 0x00, 0x00, 0x00,
   0x00, 0x00, 0x60, 0x00, 0x00, 0x00, 0x00, 0x00, 0x00, 0x00, 0x00, 0x00,
   0x00, 0x00, 0x00, 0x00, 0x60, 0x00, 0x00, 0x00, 0x00, 0x00, 0x00, 0x00,
   0x00, 0x00, 0x00, 0x00, 0x00, 0x00, 0x60, 0x00, 0x00, 0x00, 0x00, 0x00,
   0x00, 0x00, 0x00, 0x00, 0x00, 0x00, 0x00, 0x00, 0x00, 0x00, 0x00, 0x00,
   0x00, 0x00, 0x00, 0x00, 0x00, 0x00, 0x00, 0x00, 0x00, 0x00, 0x00, 0x00,
   0x00, 0x00, 0x00, 0x00, 0x00, 0x00, 0x00, 0x00, 0x00, 0x00, 0x00, 0x00,
   0x00, 0x00, 0x00, 0x00, 0x00, 0x00, 0x00, 0x00, 0x00, 0x00, 0x00, 0x00,
   0x00, 0x00, 0x00, 0x00, 0x00, 0x00, 0x00, 0x00, 0x00, 0x00, 0x00, 0x00,
   0x00, 0x00, 0x00, 0x00, 0x00, 0x00, 0x00, 0x00, 0x00, 0x00, 0x00, 0x00};
