/* XPM */
static char *a[] = {
/* columns rows colors chars-per-pixel */
"8 13 3 1",
"  c black",
". c #5972ff",
"X c None",
/* pixels */
"XXXXXX.X",
"XXXXX.XX",
"XXXXX.XX",
"XXXX.XXX",
"XXXX.XXX",
"XXX.XXXX",
"XXX.XXXX",
"XX.XXXXX",
"XX.XXXXX",
"X.XXXXXX",
"X.XXXXXX",
"........",
".XXXXXXX"
};
