/* XPM */
static char *a[] = {
/* columns rows colors chars-per-pixel */
"14 9 3 1",
"  c black",
". c #5972ff",
"X c None",
/* pixels */
"XX...XXXXXXXX.",
"X.XXX..XXXXXX.",
".XXXXXX.XXXX.X",
".XXXXXXX....XX",
"XXXXXXXXXXXXXX",
"XX...XXXXXXXX.",
"X.XXX..XXXXXX.",
".XXXXXX.XXXX.X",
".XXXXXXX....XX"
};
