/* XPM */
static char *a[] = {
/* columns rows colors chars-per-pixel */
"19 10 3 1",
"  c black",
". c #5972ff",
"X c None",
/* pixels */
"XXXXXXXXXXXX....XXX",
".XXXXXXXXXX..XX..XX",
".XXXXXXXXX.XXXXX..X",
"X.XXXXXXX.XXXXXXX..",
"XX..XXXX.XXXXXXXXX.",
"XXX.....XXXXXXXXXXX",
"XXXXXXXXXXXXXXXXXXX",
"XXXXXXXXXXXXXXXXXXX",
"XXXXXXXXXXXXXXXXXXX",
"..................."
};
