/* XPM */
static char *bbbk[] = {
/* columns rows colors chars-per-pixel */
"11 19 3 1",
"  c black",
". c gray100",
"X c None",
/* pixels */
"XXXXXXXXXXX",
"XXXXXXXXXXX",
"XXXXXXXXXXX",
"XXXXXXXXXXX",
"X    XXXXXX",
"XX X XXXXXX",
"XX X XXXXXX",
"XX X XXXXXX",
"XX X X   XX",
"XX X X  XXX",
"XX X   XXXX",
"XX X X XXXX",
"XX X  X XXX",
"XX X X X XX",
"X    X    X",
"XXXXXXXXXXX",
"XXXXXXXXXXX",
"XXXXXXXXXXX",
"XXXXXXXXXXX"
};
