/* XPM */
static char *a[] = {
/* columns rows colors chars-per-pixel */
"16 22 3 1",
"  c black",
". c #5972ff",
"X c None",
/* pixels */
"..XXXXXXXXXXXX..",
"..XXXXXXXXXXXX..",
"..XXXXXXXXXXXX..",
"..XXXXXXXXXXXX..",
"..XXXXXXXXXXXX..",
"..XXXXXXXXXXXX..",
"..XXXXXXXXXXXX..",
"..XXXXXXXXXXXX..",
"..XXXXXXXXXXXX..",
"..XXXXXXXXXXXX..",
"..XXXXXXXXXXXX..",
"..XXXXXXXXXXXX..",
"..XXXXXXXXXXXX..",
"..XXXXXXXXXXXX..",
"..XXXXXXXXXXXX..",
"..XXXXXXXXXXXX..",
"...XXXXXXXXXX...",
"X..XXXXXXXXXX..X",
"X...XXXXXXXX...X",
"XX....XXXX....XX",
"XXX..........XXX",
"XXXXX......XXXXX"
};
