/* XPM */
static char *bigcirc[] = {
/* columns rows colors chars-per-pixel */
"17 19 3 1",
"  c black",
". c gray100",
"X c None",
/* pixels */
"XXXXXXXXXXXXXXXXX",
"XXXXXXXXXXXXXXXXX",
"XXXXXXXXXXXXXXXXX",
"XXXXXX     XXXXXX",
"XXXX  XXXXX  XXXX",
"XXX XXXXXXXXX XXX",
"XX XXXXXXXXXXX XX",
"XX XXXXXXXXXXX XX",
"X XXXXXXXXXXXXX X",
"X XXXXXXXXXXXXX X",
"X XXXXXXXXXXXXX X",
"X XXXXXXXXXXXXX X",
"X XXXXXXXXXXXXX X",
"XX XXXXXXXXXXX XX",
"XX XXXXXXXXXXX XX",
"XXX XXXXXXXXX XXX",
"XXXX  XXXXX  XXXX",
"XXXXXX     XXXXXX",
"XXXXXXXXXXXXXXXXX"
};
