/* XPM */
static char *a[] = {
/* columns rows colors chars-per-pixel */
"19 20 3 1",
"  c black",
". c #5972ff",
"X c None",
/* pixels */
"XXXXXXX.....XXXXXXX",
"XXXXX..XXXXX...XXXX",
"XXX..XXXXXXXXX..XXX",
"XX..XXXXXXXXXXX..XX",
"XX.XXXXXXXXXXXXX.XX",
"X.XXXXXXXXXXXXXXX.X",
"X.XXXXXXXXXXXXXXX.X",
".XXXXXXXXXXXXXXXXX.",
".XXXXXXXXXXXXXXXXX.",
".XXXXXXXXXXXXXXXXX.",
".XXXXXXXXXXXXXXXXX.",
".XXXXXXXXXXXXXXXXX.",
".XXXXXXXXXXXXXXXXX.",
"X.XXXXXXXXXXXXXXX.X",
"X.XXXXXXXXXXXXXXX.X",
"XX.XXXXXXXXXXXXX.XX",
"XX..XXXXXXXXXXX..XX",
"XXX..XXXXXXXXX..XXX",
"XXXXX..XXXXX..XXXXX",
"XXXXXXX.....XXXXXXX"
};
