/* XPM */
static char *bigsqcup[] = {
/* columns rows colors chars-per-pixel */
"13 19 3 1",
"  c black",
". c gray100",
"X c None",
/* pixels */
"XXXXXXXXXXXXX",
"XXXXXXXXXXXXX",
"XXXXXXXXXXXXX",
"XXXXXXXXXXXXX",
"X XXXXXXXXX X",
"X XXXXXXXXX X",
"X XXXXXXXXX X",
"X XXXXXXXXX X",
"X XXXXXXXXX X",
"X XXXXXXXXX X",
"X XXXXXXXXX X",
"X XXXXXXXXX X",
"X XXXXXXXXX X",
"X XXXXXXXXX X",
"X XXXXXXXXX X",
"X XXXXXXXXX X",
"X XXXXXXXXX X",
"X XXXXXXXXX X",
"X           X"
};
