/* XPM */
static char *a[] = {
/* columns rows colors chars-per-pixel */
"16 22 3 1",
"  c black",
". c black",
"X c None",
/* pixels */
".XXXXXXXXXXXXX..",
"..XXXXXXXXXXXX..",
"X.XXXXXXXXXXXX.X",
"X..XXXXXXXXXX..X",
"X..XXXXXXXXXX..X",
"XX.XXXXXXXXXX.XX",
"XX..XXXXXXXX..XX",
"XX..XXXXXXXX..XX",
"XXX.XXXXXXXX.XXX",
"XXX..XXXXXX..XXX",
"XXX..XXXXXX..XXX",
"XXXX.XXXXXX.XXXX",
"XXXX..XXXX..XXXX",
"XXXX..XXXX..XXXX",
"XXXXX.XXXX.XXXXX",
"XXXXX..XX..XXXXX",
"XXXXXX.XX.XXXXXX",
"XXXXXX.XX.XXXXXX",
"XXXXXX....XXXXXX",
"XXXXXXX..XXXXXXX",
"XXXXXXX..XXXXXXX",
"XXXXXXX..XXXXXXX"
};
