/* XPM */
static char *blacktriangle[] = {
/* columns rows colors chars-per-pixel */
"11 19 3 1",
"  c black",
". c gray100",
"X c None",
/* pixels */
"XXXXXXXXXXX",
"XXXXXXXXXXX",
"XXXXXXXXXXX",
"XXXXXXXXXXX",
"XXXXXXXXXXX",
"XXXXXXXXXXX",
"XXXXXXXXXXX",
"XXXXX XXXXX",
"XXXX   XXXX",
"XXXX   XXXX",
"XXX     XXX",
"XXX     XXX",
"XX       XX",
"XX       XX",
"X         X",
"XXXXXXXXXXX",
"XXXXXXXXXXX",
"XXXXXXXXXXX",
"XXXXXXXXXXX"
};
