#define bop_width 118
#define bop_height 259
static unsigned char const bop_bits[] = {
 0x00,0x00,0x00,0x00,0x00,0x00,0x00,0x00,0x00,0x00,0x00,0x00,0x00,0x00,0xc0,
 0x00,0x00,0x00,0x00,0x00,0x00,0x00,0x00,0x00,0x00,0x00,0x00,0x00,0x00,0xc0,
 0x00,0x00,0x00,0x00,0x00,0x00,0x00,0x00,0x00,0x00,0x00,0x00,0x00,0x00,0xc0,
 0x00,0x00,0x00,0x00,0x00,0x00,0x00,0x00,0x00,0x00,0x00,0x00,0x00,0x00,0xc0,
 0x00,0x00,0x00,0x00,0x00,0x00,0x00,0x00,0x00,0x00,0x00,0x00,0x00,0x00,0xc0,
 0x00,0x00,0x00,0x00,0x00,0x00,0x00,0x00,0x00,0x00,0x00,0x00,0x00,0x00,0xc0,
 0x00,0x00,0x00,0x00,0x00,0x00,0x00,0x00,0x00,0x00,0x00,0x00,0x00,0x00,0xc0,
 0x00,0x40,0x00,0x00,0x00,0x00,0x00,0x00,0x00,0x00,0x00,0x00,0x00,0x00,0xc0,
 0x00,0x40,0x00,0x00,0x80,0x1f,0x00,0x00,0x00,0x00,0x00,0x00,0x00,0x00,0xc0,
 0x00,0x40,0x00,0x00,0x60,0x60,0x00,0x00,0x00,0x00,0x00,0x00,0xf8,0x01,0xc0,
 0x00,0x40,0x00,0x00,0x20,0x40,0x00,0x00,0x00,0x00,0x00,0x00,0x4c,0x02,0xc0,
 0x00,0x40,0x00,0x00,0x10,0x80,0x00,0x00,0x40,0x00,0x00,0x00,0x42,0x04,0xc0,
 0x00,0x40,0x00,0x00,0x10,0x80,0x00,0x00,0xa0,0x00,0x00,0x00,0x41,0x08,0xc0,
 0x00,0x40,0x00,0x00,0x10,0x80,0x00,0x00,0x10,0x01,0x00,0x80,0x40,0x10,0xc0,
 0x80,0xff,0x1f,0x00,0x10,0x80,0x00,0x00,0x08,0x02,0x00,0x80,0x40,0x10,0xc0,
 0x00,0x40,0x00,0x00,0x10,0x80,0x00,0x00,0x04,0x04,0x00,0x80,0xff,0x1f,0xc0,
 0x00,0x40,0x00,0x00,0x10,0x80,0x00,0x00,0x08,0x02,0x00,0x80,0x40,0x10,0xc0,
 0x00,0x40,0x00,0x00,0x10,0x80,0x00,0x00,0x08,0x02,0x00,0x80,0x40,0x10,0xc0,
 0x00,0x40,0x00,0x00,0x10,0x80,0x00,0x00,0x10,0x01,0x00,0x80,0x41,0x18,0xc0,
 0x00,0x40,0x00,0x00,0x10,0x80,0x00,0x00,0xa0,0x00,0x00,0x00,0x41,0x08,0xc0,
 0x80,0xff,0x1f,0x00,0x10,0x80,0x00,0x00,0x40,0x00,0x00,0x00,0x42,0x04,0xc0,
 0x00,0x00,0x00,0x00,0x00,0x00,0x00,0x00,0x00,0x00,0x00,0x00,0x4c,0x02,0xc0,
 0x00,0x00,0x00,0x00,0x00,0x00,0x00,0x00,0x00,0x00,0x00,0x00,0xf8,0x01,0xc0,
 0x00,0x00,0x00,0x00,0x00,0x00,0x00,0x00,0x00,0x00,0x00,0x00,0x00,0x00,0xc0,
 0x00,0x00,0x00,0x00,0x00,0x00,0x00,0x00,0x00,0x00,0x00,0x00,0x00,0x00,0xc0,
 0x00,0x00,0x00,0x00,0x00,0x00,0x00,0x00,0x00,0x00,0x00,0x00,0x00,0x00,0xc0,
 0x00,0x00,0x00,0x00,0x00,0x00,0x00,0x00,0x00,0x00,0x00,0x00,0x00,0x00,0xc0,
 0x00,0x00,0x00,0x00,0x00,0x00,0x00,0x00,0x00,0x00,0x00,0x00,0x00,0x00,0xc0,
 0x00,0x00,0x00,0x00,0x00,0x00,0x00,0x00,0x00,0x00,0x00,0x00,0x00,0x00,0xc0,
 0x00,0x00,0x00,0x00,0x00,0x00,0x00,0x00,0x00,0x00,0x00,0x00,0x00,0x00,0xc0,
 0x00,0x00,0x00,0x00,0x00,0x00,0x00,0x00,0x00,0x00,0x00,0x00,0x00,0x00,0xc0,
 0x00,0x00,0x00,0x00,0x00,0x00,0x00,0x00,0x00,0x00,0x00,0x00,0x00,0x00,0xc0,
 0x00,0x00,0x00,0x00,0x00,0x00,0x00,0x00,0x00,0x00,0x00,0x00,0x00,0x00,0xc0,
 0x00,0x00,0x00,0x00,0x00,0x00,0x00,0x00,0x00,0x00,0x00,0x00,0x00,0x00,0xc0,
 0x00,0x00,0x00,0x00,0x00,0x00,0x00,0x00,0x00,0x00,0x00,0x00,0x00,0x00,0xc0,
 0x00,0x00,0x00,0x00,0x00,0x00,0x00,0x00,0x00,0x00,0x00,0x00,0x00,0x00,0xc0,
 0x00,0x00,0x00,0x00,0x00,0x00,0x00,0x00,0x00,0x00,0x00,0x00,0x00,0x00,0xc0,
 0x00,0x00,0x00,0x00,0x00,0x00,0x00,0x00,0x00,0x00,0x00,0x00,0x00,0x00,0xc0,
 0x00,0x00,0x00,0x00,0x00,0x00,0x00,0x00,0x20,0x00,0x00,0x00,0x00,0x00,0xc0,
 0x00,0x00,0x00,0x00,0x00,0x00,0x00,0x00,0x50,0x00,0x00,0x00,0x00,0x00,0xc0,
 0x00,0x00,0x00,0x00,0x10,0x80,0x00,0x00,0x50,0x00,0x00,0x00,0x00,0x00,0xc0,
 0x00,0x00,0x00,0x00,0x10,0x80,0x00,0x00,0x88,0x00,0x00,0x00,0xf8,0x01,0xc0,
 0x80,0xff,0x1f,0x00,0x10,0x80,0x00,0x00,0x88,0x00,0x00,0x00,0x04,0x02,0xc0,
 0x00,0x40,0x00,0x00,0x10,0x80,0x00,0x00,0x04,0x01,0x00,0x00,0x02,0x04,0xc0,
 0x00,0x40,0x00,0x00,0x10,0x80,0x00,0x00,0x04,0x01,0x00,0x00,0x01,0x08,0xc0,
 0x00,0x40,0x00,0x00,0x10,0x80,0x00,0x00,0x02,0x02,0x00,0x80,0x00,0x10,0xc0,
 0x00,0x40,0x00,0x00,0x10,0x80,0x00,0x00,0x02,0x02,0x00,0x80,0x00,0x10,0xc0,
 0x00,0x40,0x00,0x00,0x10,0x80,0x00,0x00,0x01,0x04,0x00,0x80,0xff,0x1f,0xc0,
 0x00,0x40,0x00,0x00,0x10,0x80,0x00,0x00,0x01,0x04,0x00,0x80,0x00,0x10,0xc0,
 0x80,0xff,0x1f,0x00,0x10,0x80,0x00,0x80,0x00,0x08,0x00,0x80,0x00,0x10,0xc0,
 0x00,0x40,0x00,0x00,0x20,0x40,0x00,0x80,0x00,0x08,0x00,0x80,0x01,0x18,0xc0,
 0x00,0x40,0x00,0x00,0x60,0x60,0x00,0x40,0x00,0x10,0x00,0x00,0x01,0x08,0xc0,
 0x00,0x40,0x00,0x00,0x80,0x1f,0x00,0xc0,0xff,0x1f,0x00,0x00,0x02,0x04,0xc0,
 0x00,0x40,0x00,0x00,0x00,0x00,0x00,0x00,0x00,0x00,0x00,0x00,0x0c,0x03,0xc0,
 0x00,0x40,0x00,0x00,0x00,0x00,0x00,0x00,0x00,0x00,0x00,0x00,0xf8,0x01,0xc0,
 0x00,0x40,0x00,0x00,0x00,0x00,0x00,0x00,0x00,0x00,0x00,0x00,0x00,0x00,0xc0,
 0x00,0x40,0x00,0x00,0x00,0x00,0x00,0x00,0x00,0x00,0x00,0x00,0x00,0x00,0xc0,
 0x00,0x00,0x00,0x00,0x00,0x00,0x00,0x00,0x00,0x00,0x00,0x00,0x00,0x00,0xc0,
 0x00,0x00,0x00,0x00,0x00,0x00,0x00,0x00,0x00,0x00,0x00,0x00,0x00,0x00,0xc0,
 0x00,0x00,0x00,0x00,0x00,0x00,0x00,0x00,0x00,0x00,0x00,0x00,0x00,0x00,0xc0,
 0x00,0x00,0x00,0x00,0x00,0x00,0x00,0x00,0x00,0x00,0x00,0x00,0x00,0x00,0xc0,
 0x00,0x00,0x00,0x00,0x00,0x00,0x00,0x00,0x00,0x00,0x00,0x00,0x00,0x00,0xc0,
 0x00,0x00,0x00,0x00,0x00,0x00,0x00,0x00,0x00,0x00,0x00,0x00,0x00,0x00,0xc0,
 0x00,0x00,0x00,0x00,0x00,0x00,0x00,0x00,0x00,0x00,0x00,0x00,0x00,0x00,0xc0,
 0x00,0x00,0x00,0x00,0x00,0x00,0x00,0x00,0x00,0x00,0x00,0x00,0x00,0x00,0xc0,
 0x00,0x00,0x00,0x00,0x00,0x00,0x00,0x00,0x00,0x00,0x00,0x00,0x00,0x00,0xc0,
 0x00,0x00,0x00,0x00,0x00,0x00,0x00,0x00,0x00,0x00,0x00,0x00,0x00,0x00,0xc0,
 0x00,0x00,0x00,0x00,0x00,0x00,0x00,0x00,0x00,0x00,0x00,0x00,0x00,0x00,0xc0,
 0x00,0x00,0x00,0x00,0x00,0x00,0x00,0x00,0x00,0x00,0x00,0x00,0x00,0x00,0xc0,
 0x00,0x00,0x00,0x00,0x00,0x00,0x00,0x00,0x00,0x00,0x00,0x00,0x00,0x00,0xc0,
 0x00,0x00,0x00,0x00,0x00,0x00,0x00,0x00,0x00,0x00,0x00,0x00,0x00,0x00,0xc0,
 0x00,0x00,0x00,0x00,0x00,0x00,0x00,0x00,0x00,0x00,0x00,0x00,0x00,0x00,0xc0,
 0x00,0x00,0x00,0x00,0x00,0x00,0x00,0x00,0x00,0x00,0x00,0x00,0x00,0x00,0xc0,
 0x00,0x00,0x00,0x00,0x10,0x80,0x00,0x00,0x00,0x00,0x00,0x00,0x00,0x00,0xc0,
 0x00,0x00,0x00,0x00,0x10,0x80,0x00,0x00,0x00,0x00,0x00,0x00,0xf8,0x01,0xc0,
 0x00,0x00,0x00,0x00,0x10,0x82,0x00,0xc0,0xff,0x1f,0x00,0x00,0x0c,0x03,0xc0,
 0x00,0x02,0x02,0x00,0x10,0x82,0x00,0x40,0x00,0x10,0x00,0x00,0x02,0x04,0xc0,
 0x00,0x04,0x01,0x00,0x10,0x82,0x00,0x80,0x00,0x08,0x00,0x00,0x05,0x0a,0xc0,
 0x00,0x88,0x00,0x00,0x10,0x82,0x00,0x80,0x00,0x08,0x00,0x80,0x09,0x19,0xc0,
 0x00,0x50,0x00,0x00,0xd0,0xbf,0x00,0x00,0x01,0x04,0x00,0x80,0x90,0x10,0xc0,
 0x00,0x20,0x00,0x00,0x10,0x82,0x00,0x00,0x01,0x04,0x00,0x80,0x60,0x10,0xc0,
 0x00,0x50,0x00,0x00,0x10,0x82,0x00,0x00,0x02,0x02,0x00,0x80,0x60,0x10,0xc0,
 0x00,0x88,0x00,0x00,0x10,0x82,0x00,0x00,0x02,0x02,0x00,0x80,0x90,0x10,0xc0,
 0x00,0x88,0x00,0x00,0x20,0x40,0x00,0x00,0x04,0x01,0x00,0x80,0x09,0x19,0xc0,
 0x00,0x04,0x01,0x00,0x60,0x60,0x00,0x00,0x04,0x01,0x00,0x00,0x05,0x0a,0xc0,
 0x00,0x02,0x02,0x00,0x80,0x1f,0x00,0x00,0x88,0x00,0x00,0x00,0x02,0x04,0xc0,
 0x00,0x00,0x00,0x00,0x00,0x00,0x00,0x00,0x88,0x00,0x00,0x00,0x0c,0x03,0xc0,
 0x00,0x00,0x00,0x00,0x00,0x00,0x00,0x00,0x50,0x00,0x00,0x00,0xf8,0x01,0xc0,
 0x00,0x00,0x00,0x00,0x00,0x00,0x00,0x00,0x50,0x00,0x00,0x00,0x00,0x00,0xc0,
 0x00,0x00,0x00,0x00,0x00,0x00,0x00,0x00,0x20,0x00,0x00,0x00,0x00,0x00,0xc0,
 0x00,0x00,0x00,0x00,0x00,0x00,0x00,0x00,0x20,0x00,0x00,0x00,0x00,0x00,0xc0,
 0x00,0x00,0x00,0x00,0x00,0x00,0x00,0x00,0x00,0x00,0x00,0x00,0x00,0x00,0xc0,
 0x00,0x00,0x00,0x00,0x00,0x00,0x00,0x00,0x00,0x00,0x00,0x00,0x00,0x00,0xc0,
 0x00,0x00,0x00,0x00,0x00,0x00,0x00,0x00,0x00,0x00,0x00,0x00,0x00,0x00,0xc0,
 0x00,0x00,0x00,0x00,0x00,0x00,0x00,0x00,0x00,0x00,0x00,0x00,0x00,0x00,0xc0,
 0x00,0x00,0x00,0x00,0x00,0x00,0x00,0x00,0x00,0x00,0x00,0x00,0x00,0x00,0xc0,
 0x00,0x00,0x00,0x00,0x00,0x00,0x00,0x00,0x00,0x00,0x00,0x00,0x00,0x00,0xc0,
 0x00,0x00,0x00,0x00,0x00,0x00,0x00,0x00,0x00,0x00,0x00,0x00,0x00,0x00,0xc0,
 0x00,0x00,0x00,0x00,0x00,0x00,0x00,0x00,0x00,0x00,0x00,0x00,0x00,0x00,0xc0,
 0x00,0x00,0x00,0x00,0x00,0x00,0x00,0x00,0x00,0x00,0x00,0x00,0x00,0x00,0xc0,
 0x00,0x00,0x00,0x00,0x00,0x00,0x00,0x00,0x00,0x00,0x00,0x00,0x00,0x00,0xc0,
 0x00,0x00,0x00,0x00,0x00,0x00,0x00,0x00,0x00,0x00,0x00,0x00,0x00,0x00,0xc0,
 0x00,0x00,0x00,0x00,0x00,0x00,0x00,0x00,0x00,0x00,0x00,0x00,0x00,0x00,0xc0,
 0x00,0x00,0x00,0x00,0x00,0x00,0x00,0x00,0x00,0x00,0x00,0x00,0x00,0x00,0xc0,
 0x00,0x00,0x00,0x00,0x00,0x00,0x00,0x00,0x00,0x00,0x00,0x00,0x00,0x00,0xc0,
 0x00,0x00,0x00,0x00,0x00,0x00,0x00,0x00,0x00,0x00,0x00,0x00,0x00,0x00,0xc0,
 0x00,0x00,0x00,0x00,0xf0,0xff,0x00,0x00,0x00,0x00,0x00,0x00,0x00,0x00,0xc0,
 0x00,0x00,0x00,0x00,0x10,0x80,0x00,0x00,0x00,0x00,0x00,0x00,0xf8,0x01,0xc0,
 0x00,0x60,0x00,0x00,0x10,0x80,0x00,0x00,0x00,0x00,0x00,0x00,0x0c,0x03,0xc0,
 0x00,0x60,0x00,0x00,0x10,0x80,0x00,0x00,0x06,0x00,0x00,0x00,0x02,0x04,0xc0,
 0x00,0x00,0x00,0x00,0x10,0x80,0x00,0x00,0x1a,0x00,0x00,0x00,0x01,0x0a,0xc0,
 0x00,0x00,0x00,0x00,0x10,0x80,0x00,0x00,0x62,0x00,0x00,0x80,0x01,0x19,0xc0,
 0x00,0x00,0x00,0x00,0x10,0x80,0x00,0x00,0x82,0x01,0x00,0x80,0x80,0x10,0xc0,
 0x80,0xff,0x1f,0x00,0x10,0x80,0x00,0x00,0x02,0x02,0x00,0x80,0x40,0x10,0xc0,
 0x00,0x00,0x00,0x00,0x10,0x80,0x00,0x00,0x02,0x03,0x00,0x80,0x20,0x10,0xc0,
 0x00,0x00,0x00,0x00,0x10,0x80,0x00,0x00,0xc2,0x00,0x00,0x80,0x10,0x10,0xc0,
 0x00,0x00,0x00,0x00,0x10,0x80,0x00,0x00,0x22,0x00,0x00,0x80,0x09,0x18,0xc0,
 0x00,0x60,0x00,0x00,0x10,0x80,0x00,0x00,0x1a,0x00,0x00,0x00,0x05,0x08,0xc0,
 0x00,0x60,0x00,0x00,0x10,0x80,0x00,0x00,0x06,0x00,0x00,0x00,0x02,0x04,0xc0,
 0x00,0x00,0x00,0x00,0x00,0x00,0x00,0x00,0x00,0x00,0x00,0x00,0x0c,0x03,0xc0,
 0x00,0x00,0x00,0x00,0x00,0x00,0x00,0x00,0x00,0x00,0x00,0x00,0xf8,0x01,0xc0,
 0x00,0x00,0x00,0x00,0x00,0x00,0x00,0x00,0x00,0x00,0x00,0x00,0x00,0x00,0xc0,
 0x00,0x00,0x00,0x00,0x00,0x00,0x00,0x00,0x00,0x00,0x00,0x00,0x00,0x00,0xc0,
 0x00,0x00,0x00,0x00,0x00,0x00,0x00,0x00,0x00,0x00,0x00,0x00,0x00,0x00,0xc0,
 0x00,0x00,0x00,0x00,0x00,0x00,0x00,0x00,0x00,0x00,0x00,0x00,0x00,0x00,0xc0,
 0x00,0x00,0x00,0x00,0x00,0x00,0x00,0x00,0x00,0x00,0x00,0x00,0x00,0x00,0xc0,
 0x00,0x00,0x00,0x00,0x00,0x00,0x00,0x00,0x00,0x00,0x00,0x00,0x00,0x00,0xc0,
 0x00,0x00,0x00,0x00,0x00,0x00,0x00,0x00,0x00,0x00,0x00,0x00,0x00,0x00,0xc0,
 0x00,0x00,0x00,0x00,0x00,0x00,0x00,0x00,0x00,0x00,0x00,0x00,0x00,0x00,0xc0,
 0x00,0x00,0x00,0x00,0x00,0x00,0x00,0x00,0x00,0x00,0x00,0x00,0x00,0x00,0xc0,
 0x00,0x00,0x00,0x00,0x00,0x00,0x00,0x00,0x00,0x00,0x00,0x00,0x00,0x00,0xc0,
 0x00,0x00,0x00,0x00,0x00,0x00,0x00,0x00,0x00,0x00,0x00,0x00,0x00,0x00,0xc0,
 0x00,0x00,0x00,0x00,0x00,0x00,0x00,0x00,0x00,0x00,0x00,0x00,0x00,0x00,0xc0,
 0x00,0x00,0x00,0x00,0x00,0x00,0x00,0x00,0x00,0x00,0x00,0x00,0x00,0x00,0xc0,
 0x00,0x00,0x00,0x00,0x00,0x00,0x00,0x00,0x00,0x00,0x00,0x00,0x00,0x00,0xc0,
 0x00,0x00,0x00,0x00,0x00,0x00,0x00,0x00,0x00,0x00,0x00,0x00,0x00,0x00,0xc0,
 0x00,0x00,0x00,0x00,0x00,0x00,0x00,0x00,0x00,0x00,0x00,0x00,0x00,0x00,0xc0,
 0x00,0x00,0x00,0x00,0x00,0x00,0x00,0x00,0x00,0x00,0x00,0x00,0x00,0x00,0xc0,
 0x00,0x00,0x00,0x00,0x00,0x00,0x00,0x00,0x00,0x00,0x00,0x00,0x00,0x00,0xc0,
 0x00,0x00,0x00,0x00,0x10,0x80,0x00,0x00,0x00,0x00,0x00,0x00,0x00,0x00,0xc0,
 0x00,0x00,0x00,0x00,0x10,0x80,0x00,0x00,0x00,0x00,0x00,0x00,0xf8,0x01,0xc0,
 0x00,0x00,0x00,0x00,0x10,0x80,0x00,0x00,0x00,0x00,0x00,0x00,0x0c,0x03,0xc0,
 0x00,0x00,0x00,0x00,0x10,0x80,0x00,0x00,0x00,0x03,0x00,0x00,0x02,0x04,0xc0,
 0x00,0x00,0x00,0x00,0x10,0x80,0x00,0x00,0xc0,0x02,0x00,0x00,0x01,0x08,0xc0,
 0x00,0x00,0x00,0x00,0x10,0x80,0x00,0x00,0x20,0x02,0x00,0x80,0x01,0x18,0xc0,
 0x00,0x00,0x00,0x00,0x10,0x80,0x00,0x00,0x18,0x02,0x00,0x80,0x60,0x10,0xc0,
 0x00,0x40,0x00,0x00,0x10,0x80,0x00,0x00,0x04,0x02,0x00,0x80,0x60,0x10,0xc0,
 0x00,0x40,0x00,0x00,0x10,0x80,0x00,0x00,0x0c,0x02,0x00,0x80,0x60,0x10,0xc0,
 0x00,0x00,0x00,0x00,0x10,0x80,0x00,0x00,0x10,0x02,0x00,0x80,0x00,0x10,0xc0,
 0x00,0x00,0x00,0x00,0x10,0x80,0x00,0x00,0x60,0x02,0x00,0x80,0x01,0x18,0xc0,
 0x00,0x00,0x00,0x00,0x10,0x80,0x00,0x00,0x80,0x02,0x00,0x00,0x01,0x08,0xc0,
 0x00,0x00,0x00,0x00,0xf0,0xff,0x00,0x00,0x00,0x03,0x00,0x00,0x02,0x04,0xc0,
 0x00,0x00,0x00,0x00,0x00,0x00,0x00,0x00,0x00,0x00,0x00,0x00,0x0c,0x03,0xc0,
 0x00,0x00,0x00,0x00,0x00,0x00,0x00,0x00,0x00,0x00,0x00,0x00,0xf8,0x01,0xc0,
 0x00,0x00,0x00,0x00,0x00,0x00,0x00,0x00,0x00,0x00,0x00,0x00,0x00,0x00,0xc0,
 0x00,0x00,0x00,0x00,0x00,0x00,0x00,0x00,0x00,0x00,0x00,0x00,0x00,0x00,0xc0,
 0x00,0x00,0x00,0x00,0x00,0x00,0x00,0x00,0x00,0x00,0x00,0x00,0x00,0x00,0xc0,
 0x00,0x00,0x00,0x00,0x00,0x00,0x00,0x00,0x00,0x00,0x00,0x00,0x00,0x00,0xc0,
 0x00,0x00,0x00,0x00,0x00,0x00,0x00,0x00,0x00,0x00,0x00,0x00,0x00,0x00,0xc0,
 0x00,0x00,0x00,0x00,0x00,0x00,0x00,0x00,0x00,0x00,0x00,0x00,0x00,0x00,0xc0,
 0x00,0x00,0x00,0x00,0x00,0x00,0x00,0x00,0x00,0x00,0x00,0x00,0x00,0x00,0xc0,
 0x00,0x00,0x00,0x00,0x00,0x00,0x00,0x00,0x00,0x00,0x00,0x00,0x00,0x00,0xc0,
 0x00,0x00,0x00,0x00,0x00,0x00,0x00,0x00,0x00,0x00,0x00,0x00,0x00,0x00,0xc0,
 0x00,0x00,0x00,0x00,0x00,0x00,0x00,0x00,0x00,0x00,0x00,0x00,0x00,0x00,0xc0,
 0x00,0x00,0x00,0x00,0x00,0x00,0x00,0x00,0x00,0x00,0x00,0x00,0x00,0x00,0xc0,
 0x00,0x00,0x00,0x00,0x00,0x00,0x00,0x00,0x00,0x00,0x00,0x00,0x00,0x00,0xc0,
 0x00,0x00,0x00,0x00,0x00,0x00,0x00,0x00,0x00,0x00,0x00,0x00,0x00,0x00,0xc0,
 0x00,0x00,0x00,0x00,0x00,0x00,0x00,0x00,0x00,0x00,0x00,0x00,0x00,0x00,0xc0,
 0x00,0x00,0x00,0x00,0x00,0x00,0x00,0x00,0x00,0x00,0x00,0x00,0x00,0x00,0xc0,
 0x00,0x00,0x00,0x00,0x00,0x00,0x00,0x00,0x00,0x00,0x00,0x00,0xf0,0x01,0xc0,
 0x00,0x00,0x00,0x00,0x00,0x00,0x00,0x00,0x1f,0x3f,0x00,0x00,0x0c,0x0e,0xc0,
 0x00,0x00,0x00,0x00,0x20,0x80,0x00,0x00,0x04,0x04,0x00,0x00,0x03,0x18,0xc0,
 0x00,0x00,0x00,0x00,0x20,0x80,0x00,0x00,0x04,0x04,0x00,0x80,0x01,0x30,0xc0,
 0x00,0x00,0x00,0x00,0x40,0x40,0x00,0x00,0x04,0x04,0x00,0x80,0x00,0x20,0xc0,
 0x00,0x20,0x00,0x00,0x40,0x40,0x00,0x00,0x04,0x04,0x00,0x40,0x00,0x40,0xc0,
 0x00,0x20,0x00,0x00,0x40,0x20,0x00,0x00,0x04,0x04,0x00,0x40,0x00,0x40,0xc0,
 0x00,0x20,0x00,0x00,0x80,0x20,0x00,0x00,0x04,0x04,0x00,0x20,0x00,0x80,0xc0,
 0x00,0x22,0x02,0x00,0x80,0x20,0x00,0x00,0x04,0x04,0x00,0x20,0x00,0x80,0xc0,
 0x00,0xfc,0x01,0x00,0x00,0x11,0x00,0x00,0x04,0x04,0x00,0x20,0x00,0x80,0xc0,
 0x00,0x70,0x00,0x00,0x00,0x11,0x00,0x00,0x04,0x04,0x00,0x20,0x00,0x80,0xc0,
 0x00,0x50,0x00,0x00,0x00,0x09,0x00,0x00,0x04,0x04,0x00,0x20,0x00,0x80,0xc0,
 0x00,0x50,0x00,0x00,0x00,0x0a,0x00,0x00,0x04,0x04,0x00,0x20,0x00,0x80,0xc0,
 0x00,0x88,0x00,0x00,0x00,0x06,0x00,0x00,0x04,0x04,0x00,0x40,0x00,0x40,0xc0,
 0x00,0x84,0x00,0x00,0x00,0x04,0x00,0x00,0xff,0x3f,0x00,0x40,0x00,0x40,0xc0,
 0x00,0x00,0x00,0x00,0x00,0x00,0x00,0x00,0x00,0x00,0x00,0x80,0x00,0x20,0xc0,
 0x00,0x00,0x00,0x00,0x00,0x00,0x00,0x00,0x00,0x00,0x00,0x80,0x01,0x30,0xc0,
 0x00,0x00,0x00,0x00,0x00,0x00,0x00,0x00,0x00,0x00,0x00,0x00,0x03,0x18,0xc0,
 0x00,0x00,0x00,0x00,0x00,0x00,0x00,0x00,0x00,0x00,0x00,0x00,0x0c,0x06,0xc0,
 0x00,0x00,0x00,0x00,0x00,0x00,0x00,0x00,0x00,0x00,0x00,0x00,0xf0,0x01,0xc0,
 0x00,0x00,0x00,0x00,0x00,0x00,0x00,0x00,0x00,0x00,0x00,0x00,0x00,0x00,0xc0,
 0x00,0x00,0x00,0x00,0x00,0x00,0x00,0x00,0x00,0x00,0x00,0x00,0x00,0x00,0xc0,
 0x00,0x00,0x00,0x00,0x00,0x00,0x00,0x00,0x00,0x00,0x00,0x00,0x00,0x00,0xc0,
 0x00,0x00,0x00,0x00,0x00,0x00,0x00,0x00,0x00,0x00,0x00,0x00,0x00,0x00,0xc0,
 0x00,0x00,0x00,0x00,0x00,0x00,0x00,0x00,0x00,0x00,0x00,0x00,0x00,0x00,0xc0,
 0x00,0x00,0x00,0x00,0x00,0x00,0x00,0x00,0x00,0x00,0x00,0x00,0x00,0x00,0xc0,
 0x00,0x00,0x00,0x00,0x00,0x00,0x00,0x00,0x00,0x00,0x00,0x00,0x00,0x00,0xc0,
 0x00,0x00,0x00,0x00,0x00,0x00,0x00,0x00,0x00,0x00,0x00,0x00,0x00,0x00,0xc0,
 0x00,0x00,0x00,0x00,0x00,0x00,0x00,0x00,0x00,0x00,0x00,0x00,0x00,0x00,0xc0,
 0x00,0x00,0x00,0x00,0x00,0x00,0x00,0x00,0x00,0x00,0x00,0x00,0x00,0x00,0xc0,
 0x00,0x00,0x00,0x00,0x00,0x00,0x00,0x00,0x00,0x00,0x00,0x00,0x00,0x00,0xc0,
 0x00,0x00,0x00,0x00,0x00,0x00,0x00,0x00,0x00,0x00,0x00,0x00,0x00,0x00,0xc0,
 0x00,0x04,0x00,0x00,0x00,0x00,0x00,0x00,0x00,0x00,0x00,0x00,0x00,0x00,0xc0,
 0x00,0x04,0x00,0x00,0x00,0x00,0x00,0x00,0x00,0x00,0x00,0x00,0x00,0x00,0xc0,
 0x00,0x04,0x00,0x00,0x00,0x00,0x00,0x00,0x40,0x00,0x00,0x00,0x00,0x00,0xc0,
 0x00,0x08,0x00,0x00,0x00,0x04,0x00,0x00,0x40,0x00,0x00,0x00,0x00,0x00,0xc0,
 0x00,0x08,0x00,0x00,0x00,0x04,0x00,0x00,0x40,0x00,0x00,0x00,0x00,0x00,0xc0,
 0x00,0x08,0x00,0x00,0x00,0x0a,0x00,0x00,0x40,0x00,0x00,0x00,0x00,0x00,0xc0,
 0x00,0x10,0x00,0x00,0x00,0x0a,0x00,0x00,0xf8,0x03,0x00,0x00,0x00,0x00,0xc0,
 0x00,0x10,0x00,0x00,0x00,0x11,0x00,0x00,0x40,0x00,0x00,0x00,0xf0,0x00,0xc0,
 0x00,0x10,0x00,0x00,0x00,0x11,0x00,0x00,0x40,0x00,0x00,0x00,0x08,0x01,0xc0,
 0x00,0x10,0x00,0x00,0x00,0x11,0x00,0x00,0x40,0x00,0x00,0x00,0x04,0x02,0xc0,
 0x00,0x20,0x00,0x00,0x80,0x20,0x00,0x00,0x40,0x00,0x00,0x00,0x04,0x02,0xc0,
 0x00,0x20,0x00,0x00,0x80,0x20,0x00,0x00,0x40,0x00,0x00,0x00,0x04,0x02,0xc0,
 0x00,0x20,0x00,0x00,0x40,0x40,0x00,0x00,0x40,0x00,0x00,0x00,0x04,0x02,0xc0,
 0x00,0x40,0x00,0x00,0x40,0x40,0x00,0x00,0x40,0x00,0x00,0x00,0x08,0x01,0xc0,
 0x00,0x40,0x00,0x00,0x20,0x80,0x00,0x00,0x40,0x00,0x00,0x00,0xf0,0x00,0xc0,
 0x00,0x40,0x00,0x00,0x20,0x80,0x00,0x00,0x40,0x00,0x00,0x00,0x00,0x00,0xc0,
 0x00,0x80,0x00,0x00,0x00,0x00,0x00,0x00,0x40,0x00,0x00,0x00,0x00,0x00,0xc0,
 0x00,0x80,0x00,0x00,0x00,0x00,0x00,0x00,0x40,0x00,0x00,0x00,0x00,0x00,0xc0,
 0x00,0x80,0x00,0x00,0x00,0x00,0x00,0x00,0x40,0x00,0x00,0x00,0x00,0x00,0xc0,
 0x00,0x00,0x01,0x00,0x00,0x00,0x00,0x00,0x40,0x00,0x00,0x00,0x00,0x00,0xc0,
 0x00,0x00,0x01,0x00,0x00,0x00,0x00,0x00,0x40,0x00,0x00,0x00,0x00,0x00,0xc0,
 0x00,0x00,0x00,0x00,0x00,0x00,0x00,0x00,0x00,0x00,0x00,0x00,0x00,0x00,0xc0,
 0x00,0x00,0x00,0x00,0x00,0x00,0x00,0x00,0x00,0x00,0x00,0x00,0x00,0x00,0xc0,
 0x00,0x00,0x00,0x00,0x00,0x00,0x00,0x00,0x00,0x00,0x00,0x00,0x00,0x00,0xc0,
 0x00,0x00,0x00,0x00,0x00,0x00,0x00,0x00,0x00,0x00,0x00,0x00,0x00,0x00,0xc0,
 0x00,0x00,0x00,0x00,0x00,0x00,0x00,0x00,0x00,0x00,0x00,0x00,0x00,0x00,0xc0,
 0x00,0x00,0x00,0x00,0x00,0x00,0x00,0x00,0x00,0x00,0x00,0x00,0x00,0x00,0xc0,
 0x00,0x00,0x00,0x00,0x00,0x00,0x00,0x00,0x00,0x00,0x00,0x00,0x00,0x00,0xc0,
 0x00,0x00,0x00,0x00,0x00,0x00,0x00,0x00,0x00,0x00,0x00,0x00,0x00,0x00,0xc0,
 0x00,0x00,0x00,0x00,0x00,0x00,0x00,0x00,0x00,0x00,0x00,0x00,0x00,0x00,0xc0,
 0x00,0x00,0x00,0x00,0x00,0x00,0x00,0x00,0x00,0x00,0x00,0x00,0x00,0x00,0xc0,
 0x00,0x00,0x00,0x00,0x00,0x00,0x00,0x00,0x00,0x00,0x00,0x00,0x00,0x00,0xc0,
 0x00,0x00,0x00,0x00,0x00,0x00,0x00,0x00,0x00,0x00,0x00,0x00,0x00,0x00,0xc0,
 0x00,0x00,0x00,0x00,0x00,0x00,0x00,0x00,0x00,0x00,0x00,0x00,0x00,0x00,0xc0,
 0x00,0x00,0x00,0x00,0x00,0x00,0x00,0x00,0x00,0x00,0x00,0x00,0x00,0x00,0xc0,
 0x00,0x00,0x00,0x00,0x00,0x00,0x00,0x00,0x40,0x00,0x00,0x00,0x00,0x00,0xc0,
 0x00,0x00,0x00,0x00,0x00,0x00,0x00,0x00,0x40,0x00,0x00,0x00,0x00,0x00,0xc0,
 0x00,0x00,0x00,0x00,0x00,0x07,0x00,0x00,0x40,0x00,0x00,0x00,0x00,0x00,0xc0,
 0x00,0x00,0x00,0x00,0x00,0x04,0x00,0x00,0xf8,0x03,0x00,0x00,0x00,0x00,0xc0,
 0x00,0x00,0x00,0x00,0x00,0x08,0x00,0x00,0x40,0x00,0x00,0x00,0x00,0x00,0xc0,
 0x00,0xf8,0x00,0x00,0x00,0x08,0x00,0x00,0x40,0x00,0x00,0x00,0x00,0x00,0xc0,
 0x00,0xf8,0x00,0x00,0x00,0x08,0x00,0x00,0x40,0x00,0x00,0x00,0x00,0x00,0xc0,
 0x00,0xfc,0x01,0x00,0x00,0x04,0x00,0x00,0x40,0x00,0x00,0x00,0x00,0x00,0xc0,
 0x00,0xfc,0x01,0x00,0x00,0x04,0x00,0x00,0x00,0x00,0x00,0x00,0x00,0x00,0xc0,
 0x00,0xfc,0x01,0x00,0x00,0x02,0x00,0x00,0x40,0x00,0x00,0x00,0x00,0x00,0xc0,
 0x00,0xfc,0x01,0x00,0x00,0x01,0x00,0x00,0x40,0x00,0x00,0x00,0x00,0x00,0xc0,
 0x00,0xf8,0x00,0x00,0x00,0x01,0x00,0x00,0x40,0x00,0x00,0x00,0x00,0x00,0xc0,
 0x00,0x70,0x00,0x00,0x00,0x01,0x00,0x00,0x40,0x00,0x00,0x00,0x00,0x00,0xc0,
 0x00,0x00,0x00,0x00,0x00,0x01,0x00,0x00,0xf8,0x03,0x00,0x00,0x00,0x00,0xc0,
 0x00,0x00,0x00,0x00,0x00,0x02,0x00,0x00,0x40,0x00,0x00,0x00,0x00,0x00,0xc0,
 0x00,0x00,0x00,0x00,0x00,0x0e,0x00,0x00,0x40,0x00,0x00,0x00,0x00,0x00,0xc0,
 0x00,0x00,0x00,0x00,0x00,0x00,0x00,0x00,0x40,0x00,0x00,0x00,0x00,0x00,0xc0,
 0x00,0x00,0x00,0x00,0x00,0x00,0x00,0x00,0x40,0x00,0x00,0x00,0x00,0x00,0xc0,
 0x00,0x00,0x00,0x00,0x00,0x00,0x00,0x00,0x00,0x00,0x00,0x00,0x00,0x00,0xc0,
 0x00,0x00,0x00,0x00,0x00,0x00,0x00,0x00,0x00,0x00,0x00,0x00,0x00,0x00,0xc0,
 0x00,0x00,0x00,0x00,0x00,0x00,0x00,0x00,0x00,0x00,0x00,0x00,0x00,0x00,0xc0,
 0x00,0x00,0x00,0x00,0x00,0x00,0x00,0x00,0x00,0x00,0x00,0x00,0x00,0x00,0xc0,
 0x00,0x00,0x00,0x00,0x00,0x00,0x00,0x00,0x00,0x00,0x00,0x00,0x00,0x00,0xc0
 };


