/* XPM */
static char *a[] = {
/* columns rows colors chars-per-pixel */
"19 20 3 1",
"  c #000000",
". c #000000",
"X c None",
/* pixels */
"...................",
".XXXXXXXX.XXXXXXXX.",
".XXXXXXXX.XXXXXXXX.",
".XXXXXXXX.XXXXXXXX.",
".XXXXXXXX.XXXXXXXX.",
".XXXXXXXX.XXXXXXXX.",
".XXXXXXXX.XXXXXXXX.",
".XXXXXXXX.XXXXXXXX.",
".XXXXXXXX.XXXXXXXX.",
"...................",
".XXXXXXXX.XXXXXXXX.",
".XXXXXXXX.XXXXXXXX.",
".XXXXXXXX.XXXXXXXX.",
".XXXXXXXX.XXXXXXXX.",
".XXXXXXXX.XXXXXXXX.",
".XXXXXXXX.XXXXXXXX.",
".XXXXXXXX.XXXXXXXX.",
".XXXXXXXX.XXXXXXXX.",
".XXXXXXXX.XXXXXXXX.",
"..................."
};
