/* XPM */
static char *a[] = {
/* columns rows colors chars-per-pixel */
"19 20 3 1",
"  c black",
". c black",
"X c None",
/* pixels */
"...................",
".XXXXXXXX.XXXXXXXX.",
".XXXXXXXX.XXXXXXXX.",
".XXXXXXXX.XXXXXXXX.",
".XXXXXXXX.XXXXXXXX.",
".XXXXXXXX.XXXXXXXX.",
".XXXXXXXX.XXXXXXXX.",
".XXXXXXXX.XXXXXXXX.",
".XXXXXXXX.XXXXXXXX.",
"...................",
".XXXXXXXX.XXXXXXXX.",
".XXXXXXXX.XXXXXXXX.",
".XXXXXXXX.XXXXXXXX.",
".XXXXXXXX.XXXXXXXX.",
".XXXXXXXX.XXXXXXXX.",
".XXXXXXXX.XXXXXXXX.",
".XXXXXXXX.XXXXXXXX.",
".XXXXXXXX.XXXXXXXX.",
".XXXXXXXX.XXXXXXXX.",
"..................."
};
