/* XPM */
static char *a[] = {
/* columns rows colors chars-per-pixel */
"11 16 3 1",
"  c black",
". c #5972ff",
"X c None",
/* pixels */
"X.XXXXXXX.X",
"X.XXXXXXX.X",
"XX..XXX..XX",
"XXXX...XXXX",
"XXXXXXXXXXX",
".X.X.X.X.X.",
"XXXXXXXXXXX",
".XXXXXXXXX.",
"XXXXXXXXXXX",
".XXXXXXXXX.",
"XXXXXXXXXXX",
".XXXXXXXXX.",
"XXXXXXXXXXX",
".XXXXXXXXX.",
"XXXXXXXXXXX",
".X.X.X.X.X."
};
