/* XPM */
static char *a[] = {
/* columns rows colors chars-per-pixel */
"19 10 3 1",
"  c black",
". c black",
"X c None",
/* pixels */
"XXXXXXX.....XXXXXXX",
"XXXXXX..XXX..XXXXXX",
"XXXXX..XXXXX..XXXXX",
".......XXXXX.......",
"XXXXXXXXXXXXXXXXXXX",
"XXXXXXXXXXXXXXXXXXX",
"XXXXXXXXXXXXXXXXXXX",
"XXXXXXXXXXXXXXXXXXX",
"XXXXXXXXXXXXXXXXXXX",
"..................."
};
