/* XPM */
static char *bumpeq2[] = {
/* columns rows colors chars-per-pixel */
"12 19 3 1",
"  c black",
". c gray100",
"X c None",
/* pixels */
"XXXXXXXXXXXX",
"XXXXXXXXXXXX",
"XXXXXXXXXXXX",
"XXXXXXXXXXXX",
"XXXXXXXXXXXX",
"XXXXXXXXXXXX",
"XXXXXXXXXXXX",
"XXXXX  XXXXX",
"XXXX XX XXXX",
"X    XX    X",
"XXXXXXXXXXXX",
"XXXXXXXXXXXX",
"X    XX    X",
"XXXX XX XXXX",
"XXXXX  XXXXX",
"XXXXXXXXXXXX",
"XXXXXXXXXXXX",
"XXXXXXXXXXXX",
"XXXXXXXXXXXX"
};
