/* XPM */
static char *doublecap[] = {
/* columns rows colors chars-per-pixel */
"10 19 3 1",
"  c black",
". c gray100",
"X c None",
/* pixels */
"XXXXXXXXXX",
"XXXXXXXXXX",
"XXXXXXXXXX",
"XXXXXXXXXX",
"XXXXXXXXXX",
"XXXXXXXXXX",
"XXX    XXX",
"XX XXXX XX",
"X XX  XX X",
"X X XX X X",
"X X XX X X",
"X X XX X X",
"X X XX X X",
"X X XX X X",
"X X XX X X",
"XXXXXXXXXX",
"XXXXXXXXXX",
"XXXXXXXXXX",
"XXXXXXXXXX"
};
