/* XPM */
static char const * const cases_xpm[] = {
/* width height ncolors chars_per_pixel */
"19 33 29 1",
/* colors */
"= c None",
"  c #000000",
". c #CECEDE",
"X c #2C2CF8",
"o c #939393",
"O c #5858F1",
"+ c #0F0FFC",
"@ c #676767",
"# c #8484EA",
"$ c #3B3BF5",
"% c #B0B0E3",
"& c #6767EE",
"* c #3B3B3B",
"- c #9393E7",
"; c #CECECE",
": c #0F0F0F",
"> c #BFBFE0",
", c #B0B0B0",
"< c #A2A2A2",
"1 c #848484",
"2 c #1E1EFA",
"3 c #585858",
"4 c #4A4AF3",
"5 c #4A4A4A",
"6 c #7676EC",
"7 c #1E1E1E",
"8 c #BFBFBF",
"9 c #0000FF",
"0 c None",
/* pixels */
"===================",
"=======;@==========",
"======;*,==========",
"======3,===========",
"======*============",
"======:============",
"====== ============",
"====== ============",
"====== ============",
"====== ===.#$2-====",
"====== ===O#=&%====",
"====== ===9.=4>====",
"====== ===&9&X$====",
"=====83============",
"=====31============",
"====,*=============",
"===,3;=============",
"===,3,=============",
"====87,============",
"=====35============",
"=====< ============",
"====== ===69-======",
"====== ====O.======",
"====== ====4=======",
"====== ===>4OX=====",
"====== ===#-=9=====",
"====== ===+.=4=====",
"====== ===&94.=====",
"======:============",
"======5============",
"======@<===========",
"=======@o==========",
"========@=========="
};
