/* XPM */
static char *a[] = {
/* columns rows colors chars-per-pixel */
"12 16 3 1",
"  c black",
". c black",
"X c None",
/* pixels */
"X...XXXXXXXX",
".XX..XXXXXX.",
"XXX..XXXXX.X",
"XXXX..XXX.XX",
"XXXX..XX.XXX",
"XXXX..X.XXXX",
"XXXXX.X.XXXX",
"XXXXX..XXXXX",
"XXXXX..XXXXX",
"XXXX.X.XXXXX",
"XXXX.X.XXXXX",
"XXX.XX..XXXX",
"XX.XXX..XXXX",
"X.XXXXX.XXXX",
"X.XXXXX..X.X",
".XXXXXXX...X"
};
