/* XPM */
static char *chi[] = {
/* columns rows colors chars-per-pixel */
"12 19 3 1",
"  c black",
". c gray100",
"X c None",
/* pixels */
"XXXXXXXXXXXX",
"XXXXXXXXXXXX",
"XXXXXXXXXXXX",
"XXXXXXXXXXXX",
"XXXXXXXXXXXX",
"XXXXXXXXXXXX",
"XXXXXXXXXXXX",
"XXXXXXXXXXXX",
"XX XXXXXXX X",
"X X XXXXX XX",
"XXXX XXX XXX",
"XXXX XX XXXX",
"XXXXX  XXXXX",
"XXXXX XXXXXX",
"XXXX X XXXXX",
"XXX XX XXXXX",
"XX XXXX X XX",
"X XXXXXX XXX",
"XXXXXXXXXXXX"
};
