/* XPM */
static char *circleds[] = {
/* columns rows colors chars-per-pixel */
"16 19 3 1",
"  c black",
". c gray100",
"X c None",
/* pixels */
"XXXXXXXXXXXXXXXX",
"XXXXXXXXXXXXXXXX",
"XXXXXXXXXXXXXXXX",
"XXXXXXXXXXXXXXXX",
"XXXXXX    XXXXXX",
"XXXX  XXXX  XXXX",
"XXX XXXXXXXX XXX",
"XX XXXX  XXXX XX",
"XX XXX XX  XX XX",
"X XXX XXXX XXX X",
"X XXXX  XXXXXX X",
"X XXXXXX  XXXX X",
"X XXX XXXX XXX X",
"XX XX  XX XXX XX",
"XX XXXX  XXXX XX",
"XXX XXXXXXXX XXX",
"XXXX  XXXX  XXXX",
"XXXXXX    XXXXXX",
"XXXXXXXXXXXXXXXX"
};
