/* XPM */
static char *a[] = {
/* columns rows colors chars-per-pixel */
"19 22 3 1",
"  c black",
". c #5972ff",
"X c None",
/* pixels */
"XXXXXXXXXXXXX..XXXX",
"XXXXXXXXXXX...XXXXX",
"XXXXXXXXX....XXXXXX",
"XXXXX.XXXX....XXXXX",
"XXXX.XXXXXX.XX.XXXX",
"XXX.XXXXXXX..XX.XXX",
"XX.XXXXXXXXX.XXX.XX",
"X.XXXXXXXXXXXXXXX.X",
"X.XXXXXXXXXXXXXXX.X",
".XXXXXXXXXXXXXXXXX.",
".XXXXXXXXXXXXXXXXX.",
".XXXXXXXXXXXXXXXXX.",
".XXXXXXXXXXXXXXXXX.",
".XXXXXXXXXXXXXXXXX.",
".XXXXXXXXXXXXXXXXX.",
".XXXXXXXXXXXXXXXXX.",
"X.XXXXXXXXXXXXXXX.X",
"X.XXXXXXXXXXXXXXX.X",
"XX.XXXXXXXXXXXXX.XX",
"XXX.XXXXXXXXXXX.XXX",
"XXXX..XXXXXXX..XXXX",
"XXXXXX.......XXXXXX"
};
