/* XPM */
static char *clubsuit[] = {
/* columns rows colors chars-per-pixel */
"11 19 3 1",
"  c black",
". c gray100",
"X c None",
/* pixels */
"XXXXXXXXXXX",
"XXXXXXXXXXX",
"XXXXXXXXXXX",
"XXXXXXXXXXX",
"XXXXXXXXXXX",
"XXXX   XXXX",
"XXX     XXX",
"XXX     XXX",
"XXX     XXX",
"XXXX   XXXX",
"XX       XX",
"X         X",
"X         X",
"X         X",
"XX  X X  XX",
"XXXXX XXXXX",
"XXXXX XXXXX",
"XXXXXXXXXXX",
"XXXXXXXXXXX"
};
