/* XPM */
static char *a[] = {
/* columns rows colors chars-per-pixel */
"11 25 3 1",
"  c black",
". c #5972ff",
"X c None",
/* pixels */
"XXX.....XXX",
"XX.......XX",
"X...XXX...X",
"...XXXXX...",
"..XXXXXXX..",
"..XXXXXXX..",
"..XXXXXXX..",
"..XXXXXXX..",
"..XXXXXXX.X",
"..XXXXXXXXX",
"..XXXXXXXXX",
"..XXXXXXXXX",
"..XXXXXXXXX",
"..XXXXXXXXX",
"..XXXXXXXXX",
"..XXXXXXXXX",
"..XXXXXXXXX",
"..XXXXXXXX.",
"..XXXXXXX..",
"..XXXXXXX..",
"..XXXXXXX..",
"..XXXXXXX..",
"..XXXXXX...",
"...........",
"XX......XXX"
};
