/* XPM */
static char *a[] = {
/* columns rows colors chars-per-pixel */
"15 11 3 1",
"  c black",
". c black",
"X c None",
/* pixels */
"XX...XXXXXXXX.X",
"X.XXX.XXXXXXX.X",
"..XXXX.XXXXX..X",
".XXXXXX..XXX.XX",
".XXXXXXXX...XXX",
"XXXXXXXXXXXXXXX",
"XX.............",
"XXXXXXXXXXXXXXX",
"XXXXXXXXXXXXXXX",
"XXXXXXXXXXXXXXX",
"XX............."
};
