/* XPM */
static char *a[] = {
/* columns rows colors chars-per-pixel */
"19 22 3 1",
"  c black",
". c #5972ff",
"X c None",
/* pixels */
".......XXXXX.......",
"XXX..XXXXXXXXX..XXX",
"XXX..XXXXXXXXX..XXX",
"XXX..XXXXXXXXX..XXX",
"XXX..XXXXXXXXX..XXX",
"XXX..XXXXXXXXX..XXX",
"XXX..XXXXXXXXX..XXX",
"XXX..XXXXXXXXX..XXX",
"XXX..XXXXXXXXX..XXX",
"XXX..XXXXXXXXX..XXX",
"XXX..XXXXXXXXX..XXX",
"XXX..XXXXXXXXX..XXX",
"XXX..XXXXXXXXX..XXX",
"XXX..XXXXXXXXX..XXX",
"XXX..XXXXXXXXX..XXX",
"XXX..XXXXXXXXX..XXX",
"XXX..XXXXXXXXX..XXX",
"XXX..XXXXXXXXX..XXX",
"XXX..XXXXXXXXX..XXX",
"XX...XXXXXXXXX...XX",
"...................",
"..................."
};
