/* XPM */
static char *a[] = {
/* columns rows colors chars-per-pixel */
"27 13 3 1",
"  c black",
". c #5972ff",
"X c None",
/* pixels */
"XXXXXXXXX.....XXXXXXXXXXXXX",
"XXXXXX...XXXXX...XXXXXXXXXX",
"XXXXX.XXXXXXXXXXX..XXXXXXXX",
"XXXX.XXXXXXXXXXXXX..XXXXXXX",
"XXX.XXXXXXXXXXXXXXX..XXXXXX",
"XX.XXXXXXXXXXXXXXXXX.XXXXXX",
"X..XXXXXXXXXXXXXXXXXX.XXXXX",
"X.XXXXXXXXXXXXXXXX.XXX.XXX.",
"X.XXXXXXXXXXXXXXXXX.XX.XX.X",
".XXXXXXXXXXXXXXXXXXX.X.X.XX",
".XXXXXXXXXXXXXXXXXXXX...XXX",
".XXXXXXXXXXXXXXXXXXXXX.XXXX",
".XXXXXXXXXXXXXXXXXXXXXXXXXX"
};
