/* XPM */
static char *a[] = {
/* columns rows colors chars-per-pixel */
"7 19 3 1",
"  c black",
". c #5972ff",
"X c None",
/* pixels */
"XXX.XXX",
"XXX.XXX",
"XXX.XXX",
"XXX.XXX",
".......",
"XXX.XXX",
"XXX.XXX",
"XXX.XXX",
"XXX.XXX",
"XXX.XXX",
"XXX.XXX",
"XXX.XXX",
"XXX.XXX",
"XXX.XXX",
"XXX.XXX",
"XXX.XXX",
"XXX.XXX",
"XXX.XXX",
"XXX.XXX"
};
