/* XPM */
static char *daleth[] = {
/* columns rows colors chars-per-pixel */
"11 19 3 1",
"  c black",
". c gray100",
"X c None",
/* pixels */
"XXXXXXXXXXX",
"XXXXXXXXXXX",
"XXXXXXXXXXX",
"X XXXXXXXXX",
"X         X",
"XX        X",
"XXXXXXXX XX",
"XXXXXXXX XX",
"XXXXXXXX XX",
"XXXXXXXX XX",
"XXXXXXXX XX",
"XXXXXXXX XX",
"XXXXXXXX XX",
"XXXXXXXX XX",
"XXXXXXXX XX",
"XXXXXXXXXXX",
"XXXXXXXXXXX",
"XXXXXXXXXXX",
"XXXXXXXXXXX"
};
