/* XPM */
static char *a[] = {
/* columns rows colors chars-per-pixel */
"11 16 3 1",
"  c #000000",
". c #000000",
"X c None",
/* pixels */
"XXX.XXX.XXX",
"XX...X...XX",
"XXX.XXX.XXX",
"XXXXXXXXXXX",
"XXXXXXXXXXX",
".X.X.X.X.X.",
"XXXXXXXXXXX",
".XXXXXXXXX.",
"XXXXXXXXXXX",
".XXXXXXXXX.",
"XXXXXXXXXXX",
".XXXXXXXXX.",
"XXXXXXXXXXX",
".XXXXXXXXX.",
"XXXXXXXXXXX",
".X.X.X.X.X."
};
