/* XPM */
static char *a[] = {
/* columns rows colors chars-per-pixel */
"8 8 3 1",
"  c #000000",
". c #000000",
"X c None",
/* pixels */
"..XXXXXX",
"..XXXXXX",
"XXXXXXXX",
"XXX..XXX",
"XXX..XXX",
"XXXXXXXX",
"XXXXXX..",
"XXXXXX.."
};
