#define delim_width 192
#define delim_height 64
static unsigned char const delim_bits[] = {
   0x00, 0x00, 0x00, 0x00, 0x00, 0x00, 0x00, 0x00, 0x00, 0x00, 0x00, 0x00,
   0x00, 0x00, 0x00, 0x00, 0x00, 0x00, 0x00, 0x00, 0x00, 0x00, 0x00, 0x00,
   0x00, 0x00, 0x00, 0x00, 0x00, 0x00, 0x00, 0x00, 0x00, 0x00, 0x00, 0x00,
   0x00, 0x00, 0x00, 0x00, 0x00, 0x00, 0x00, 0x00, 0x00, 0x00, 0x00, 0x00,
   0x00, 0x00, 0x00, 0x00, 0x00, 0x00, 0x00, 0x00, 0x00, 0x00, 0x00, 0x00,
   0x00, 0x00, 0x00, 0x00, 0x00, 0x00, 0x00, 0x00, 0x00, 0x00, 0x00, 0x00,
   0x00, 0x02, 0x00, 0x00, 0xe0, 0x07, 0xf0, 0x03, 0x00, 0x00, 0x00, 0x00,
   0x00, 0x00, 0x00, 0x00, 0x10, 0x00, 0x00, 0x01, 0x40, 0x00, 0x80, 0x00,
   0x00, 0x01, 0x30, 0x00, 0x20, 0x00, 0x00, 0x02, 0x00, 0x00, 0x00, 0x00,
   0xc0, 0x01, 0x70, 0x00, 0x10, 0x00, 0x00, 0x01, 0xe0, 0x00, 0x80, 0x00,
   0x80, 0x00, 0x20, 0x00, 0x20, 0x00, 0x00, 0x02, 0x40, 0x00, 0x80, 0x00,
   0x40, 0x00, 0x40, 0x00, 0x10, 0x00, 0x00, 0x01, 0xe0, 0x00, 0x40, 0x01,
   0x80, 0x00, 0x40, 0x00, 0x20, 0x00, 0x00, 0x02, 0xe0, 0x00, 0x80, 0x00,
   0x40, 0x00, 0x40, 0x00, 0x10, 0x00, 0x00, 0x01, 0x58, 0x03, 0x60, 0x03,
   0x40, 0x00, 0x80, 0x00, 0x20, 0x00, 0x00, 0x02, 0x50, 0x01, 0x40, 0x01,
   0x40, 0x00, 0x40, 0x00, 0x10, 0x00, 0x00, 0x01, 0x40, 0x00, 0x30, 0x06,
   0x40, 0x00, 0x80, 0x00, 0x20, 0x00, 0x00, 0x02, 0x48, 0x02, 0x40, 0x01,
   0x40, 0x00, 0x40, 0x00, 0x10, 0x00, 0x00, 0x01, 0x40, 0x00, 0x28, 0x0a,
   0x40, 0x00, 0x80, 0x00, 0x20, 0x00, 0x00, 0x02, 0x40, 0x00, 0x20, 0x02,
   0x40, 0x00, 0x40, 0x00, 0x10, 0x00, 0x00, 0x01, 0x40, 0x00, 0x24, 0x12,
   0x20, 0x00, 0x00, 0x01, 0x20, 0x00, 0x00, 0x02, 0x40, 0x00, 0x30, 0x06,
   0x40, 0x00, 0x40, 0x00, 0x10, 0x00, 0x00, 0x01, 0x40, 0x00, 0x20, 0x02,
   0x20, 0x00, 0x00, 0x01, 0x20, 0x00, 0x00, 0x02, 0x40, 0x00, 0x2c, 0x0a,
   0x40, 0x00, 0x40, 0x00, 0x10, 0x00, 0x00, 0x01, 0x40, 0x00, 0x20, 0x02,
   0x20, 0x00, 0x00, 0x01, 0x20, 0x00, 0x00, 0x02, 0x40, 0x00, 0x24, 0x12,
   0x40, 0x00, 0x40, 0x00, 0x10, 0x00, 0x00, 0x01, 0x40, 0x00, 0x20, 0x02,
   0x20, 0x00, 0x00, 0x01, 0x20, 0x00, 0x00, 0x02, 0x40, 0x00, 0x20, 0x02,
   0x40, 0x00, 0x40, 0x00, 0x10, 0x00, 0x00, 0x01, 0x40, 0x00, 0x20, 0x02,
   0x20, 0x00, 0x00, 0x01, 0x20, 0x00, 0x00, 0x02, 0x40, 0x00, 0x20, 0x02,
   0x40, 0x00, 0x40, 0x00, 0x10, 0x00, 0x00, 0x01, 0x40, 0x00, 0x20, 0x02,
   0x20, 0x00, 0x00, 0x01, 0x20, 0x00, 0x00, 0x02, 0x40, 0x00, 0x20, 0x02,
   0x40, 0x00, 0x40, 0x00, 0x10, 0x00, 0x00, 0x01, 0x40, 0x00, 0x20, 0x02,
   0x20, 0x00, 0x00, 0x01, 0x20, 0x00, 0x00, 0x02, 0x40, 0x00, 0x20, 0x02,
   0x40, 0x00, 0x40, 0x00, 0x10, 0x00, 0x00, 0x01, 0x40, 0x00, 0x20, 0x02,
   0x20, 0x00, 0x00, 0x01, 0x20, 0x00, 0x00, 0x02, 0x40, 0x00, 0x20, 0x02,
   0x40, 0x00, 0x40, 0x00, 0x10, 0x00, 0x00, 0x01, 0x40, 0x00, 0x20, 0x02,
   0x20, 0x00, 0x00, 0x01, 0x20, 0x00, 0x00, 0x02, 0x40, 0x00, 0x20, 0x02,
   0x40, 0x00, 0x40, 0x00, 0x10, 0x00, 0x00, 0x01, 0x40, 0x00, 0x20, 0x02,
   0x40, 0x00, 0x80, 0x00, 0x20, 0x00, 0x00, 0x02, 0x40, 0x00, 0x20, 0x02,
   0x40, 0x00, 0x40, 0x00, 0x10, 0x00, 0x00, 0x01, 0x40, 0x00, 0x24, 0x12,
   0x40, 0x00, 0x80, 0x00, 0x20, 0x00, 0x00, 0x02, 0x40, 0x00, 0x20, 0x02,
   0x40, 0x00, 0x40, 0x00, 0x10, 0x00, 0x00, 0x01, 0x40, 0x00, 0x28, 0x0a,
   0x40, 0x00, 0x80, 0x00, 0x20, 0x00, 0x00, 0x02, 0x40, 0x00, 0x20, 0x02,
   0x40, 0x00, 0x40, 0x00, 0x10, 0x00, 0x00, 0x01, 0x40, 0x00, 0x30, 0x06,
   0x80, 0x00, 0x40, 0x00, 0x20, 0x00, 0x00, 0x02, 0x40, 0x00, 0x20, 0x02,
   0x40, 0x00, 0x40, 0x00, 0x10, 0x00, 0x00, 0x01, 0x48, 0x02, 0x20, 0x02,
   0x80, 0x00, 0x20, 0x00, 0x20, 0x00, 0x00, 0x02, 0x40, 0x00, 0x20, 0x02,
   0x40, 0x00, 0x40, 0x00, 0x10, 0x00, 0x00, 0x01, 0xd0, 0x01, 0x40, 0x01,
   0x00, 0x01, 0x20, 0x00, 0x20, 0x00, 0x00, 0x02, 0x00, 0x00, 0x00, 0x00,
   0x40, 0x00, 0x40, 0x00, 0x10, 0x00, 0x00, 0x01, 0x60, 0x00, 0x80, 0x00,
   0x00, 0x02, 0x10, 0x00, 0x20, 0x00, 0x00, 0x02, 0x00, 0x00, 0x00, 0x00,
   0xc0, 0x01, 0x70, 0x00, 0xf0, 0x03, 0xf8, 0x01, 0x40, 0x00, 0x80, 0x00,
   0x00, 0x00, 0x00, 0x00, 0x00, 0x00, 0x00, 0x00, 0x00, 0x00, 0x00, 0x00,
   0x00, 0x00, 0x00, 0x00, 0x00, 0x00, 0x00, 0x00, 0x00, 0x00, 0x00, 0x00,
   0x00, 0x00, 0x00, 0x00, 0x00, 0x00, 0x00, 0x00, 0x00, 0x00, 0x00, 0x00,
   0x00, 0x00, 0x00, 0x00, 0x00, 0x00, 0x00, 0x00, 0x00, 0x00, 0x00, 0x00,
   0x00, 0x00, 0x00, 0x00, 0x00, 0x00, 0x00, 0x00, 0x00, 0x00, 0x00, 0x00,
   0x00, 0x00, 0x00, 0x00, 0x00, 0x00, 0x00, 0x00, 0x00, 0x00, 0x00, 0x00,
   0x00, 0x00, 0x00, 0x00, 0x00, 0x00, 0x00, 0x00, 0x00, 0x00, 0x00, 0x00,
   0x00, 0x00, 0x00, 0x00, 0x00, 0x00, 0x00, 0x00, 0x00, 0x00, 0x00, 0x00,
   0x00, 0x00, 0x00, 0x00, 0x00, 0x00, 0x00, 0x00, 0x00, 0x00, 0x00, 0x00,
   0x00, 0x00, 0x00, 0x00, 0x00, 0x00, 0x00, 0x00, 0x00, 0x00, 0x00, 0x00,
   0x01, 0x00, 0x00, 0x00, 0x00, 0x00, 0x00, 0x00, 0x00, 0x00, 0x00, 0x00,
   0x00, 0x00, 0x00, 0x00, 0x00, 0x00, 0x00, 0x00, 0x00, 0x00, 0x00, 0x00,
   0x00, 0x00, 0x00, 0x00, 0x00, 0x00, 0x00, 0x00, 0x00, 0x00, 0x00, 0x00,
   0x00, 0x00, 0x00, 0x00, 0x00, 0x00, 0x00, 0x00, 0x00, 0x00, 0x00, 0x00,
   0x00, 0x00, 0x00, 0x00, 0x00, 0x00, 0x00, 0x00, 0x00, 0x00, 0x00, 0x00,
   0x00, 0x00, 0x00, 0x00, 0x00, 0x00, 0x00, 0x00, 0x00, 0x00, 0x00, 0x00,
   0x00, 0x00, 0x00, 0x00, 0x00, 0x00, 0x00, 0x00, 0x00, 0x00, 0x00, 0x00,
   0x00, 0x00, 0x00, 0x00, 0x00, 0x00, 0x00, 0x00, 0x00, 0x00, 0x00, 0x00,
   0x00, 0x00, 0x00, 0x00, 0x00, 0x02, 0x00, 0x00, 0x00, 0x00, 0x00, 0x00,
   0x00, 0x00, 0x00, 0x00, 0x00, 0x00, 0x00, 0x00, 0x00, 0x00, 0x00, 0x00,
   0x00, 0x06, 0x30, 0x00, 0x00, 0x02, 0x10, 0x00, 0x00, 0x00, 0x00, 0x00,
   0x00, 0x00, 0x00, 0x00, 0x10, 0x00, 0x20, 0x02, 0x00, 0x00, 0x00, 0x00,
   0x80, 0x01, 0xc0, 0x00, 0x00, 0x02, 0x10, 0x00, 0x40, 0x00, 0x00, 0x00,
   0x00, 0x01, 0x20, 0x00, 0x10, 0x00, 0x20, 0x02, 0x00, 0x00, 0x00, 0x00,
   0x80, 0x00, 0x80, 0x00, 0x00, 0x01, 0x20, 0x00, 0x40, 0x00, 0x00, 0x00,
   0x00, 0x01, 0x20, 0x00, 0x10, 0x00, 0x20, 0x02, 0x00, 0x00, 0x00, 0x00,
   0x80, 0x00, 0x80, 0x00, 0x00, 0x01, 0x20, 0x00, 0x40, 0x00, 0x20, 0x02,
   0x80, 0x00, 0x40, 0x00, 0x10, 0x00, 0x20, 0x02, 0x00, 0x00, 0x00, 0x00,
   0x80, 0x00, 0x80, 0x00, 0x00, 0x01, 0x20, 0x00, 0x40, 0x00, 0x20, 0x02,
   0x80, 0x00, 0x40, 0x00, 0x10, 0x00, 0x20, 0x02, 0x00, 0x00, 0x00, 0x00,
   0x80, 0x00, 0x80, 0x00, 0x80, 0x00, 0x40, 0x00, 0x40, 0x00, 0x20, 0x02,
   0x80, 0x00, 0x40, 0x00, 0x10, 0x00, 0x20, 0x02, 0x00, 0x00, 0x00, 0x00,
   0x80, 0x00, 0x80, 0x00, 0x80, 0x00, 0x40, 0x00, 0x40, 0x00, 0x20, 0x02,
   0x40, 0x00, 0x40, 0x00, 0x10, 0x00, 0x20, 0x02, 0x00, 0x00, 0x00, 0x00,
   0x80, 0x00, 0x80, 0x00, 0x80, 0x00, 0x40, 0x00, 0x40, 0x00, 0x20, 0x02,
   0x40, 0x00, 0x80, 0x00, 0x10, 0x00, 0x20, 0x02, 0x00, 0x00, 0x00, 0x00,
   0x80, 0x00, 0x80, 0x00, 0x40, 0x00, 0x80, 0x00, 0x40, 0x00, 0x20, 0x02,
   0x40, 0x00, 0x80, 0x00, 0x10, 0x00, 0x20, 0x02, 0x00, 0x00, 0x00, 0x00,
   0x80, 0x00, 0x80, 0x00, 0x40, 0x00, 0x80, 0x00, 0x40, 0x00, 0x20, 0x02,
   0x20, 0x00, 0x80, 0x00, 0x10, 0x00, 0x20, 0x02, 0x00, 0x00, 0x00, 0x00,
   0x40, 0x00, 0x00, 0x01, 0x40, 0x00, 0x80, 0x00, 0x40, 0x00, 0x20, 0x02,
   0x20, 0x00, 0x00, 0x01, 0x10, 0x00, 0x20, 0x02, 0x00, 0x00, 0x00, 0x00,
   0x30, 0x00, 0x00, 0x06, 0x40, 0x00, 0x00, 0x01, 0x40, 0x00, 0x20, 0x02,
   0x20, 0x00, 0x00, 0x01, 0x10, 0x00, 0x20, 0x02, 0x00, 0x00, 0x00, 0x00,
   0x40, 0x00, 0x00, 0x01, 0x20, 0x00, 0x00, 0x01, 0x40, 0x00, 0x20, 0x02,
   0x20, 0x00, 0x00, 0x01, 0x10, 0x00, 0x20, 0x02, 0x00, 0x00, 0x00, 0x00,
   0x80, 0x00, 0x80, 0x00, 0x20, 0x00, 0x00, 0x01, 0x40, 0x00, 0x20, 0x02,
   0x20, 0x00, 0x80, 0x00, 0x10, 0x00, 0x20, 0x02, 0x00, 0x00, 0x00, 0x00,
   0x80, 0x00, 0x80, 0x00, 0x20, 0x00, 0x00, 0x02, 0x40, 0x00, 0x24, 0x12,
   0x40, 0x00, 0x80, 0x00, 0x10, 0x00, 0x20, 0x02, 0x00, 0x00, 0x00, 0x00,
   0x80, 0x00, 0x80, 0x00, 0x10, 0x00, 0x00, 0x02, 0x40, 0x00, 0x2c, 0x1a,
   0x40, 0x00, 0x80, 0x00, 0x10, 0x00, 0x20, 0x02, 0x00, 0x00, 0x00, 0x00,
   0x80, 0x00, 0x80, 0x00, 0x10, 0x00, 0x00, 0x02, 0x48, 0x02, 0x30, 0x06,
   0x40, 0x00, 0x40, 0x00, 0x10, 0x00, 0x20, 0x02, 0x00, 0x00, 0x00, 0x00,
   0x80, 0x00, 0x80, 0x00, 0x10, 0x00, 0x00, 0x04, 0x50, 0x01, 0x20, 0x02,
   0x80, 0x00, 0x40, 0x00, 0x10, 0x00, 0x20, 0x02, 0x00, 0x00, 0x00, 0x00,
   0x80, 0x00, 0x80, 0x00, 0x08, 0x00, 0x00, 0x04, 0xe0, 0x00, 0x40, 0x01,
   0x80, 0x00, 0x40, 0x00, 0x10, 0x00, 0x20, 0x02, 0x00, 0x00, 0x00, 0x00,
   0x80, 0x00, 0x80, 0x00, 0x08, 0x00, 0x00, 0x08, 0x40, 0x00, 0x40, 0x01,
   0x80, 0x00, 0x40, 0x00, 0x10, 0x00, 0x20, 0x02, 0x00, 0x00, 0x00, 0x00,
   0x80, 0x00, 0x80, 0x00, 0x08, 0x00, 0x00, 0x08, 0x00, 0x00, 0x80, 0x00,
   0x00, 0x01, 0x20, 0x00, 0x10, 0x00, 0x20, 0x02, 0x00, 0x00, 0x00, 0x00,
   0x80, 0x01, 0xc0, 0x00, 0x08, 0x00, 0x00, 0x00, 0x00, 0x00, 0x80, 0x00,
   0x00, 0x01, 0x20, 0x00, 0x10, 0x00, 0x20, 0x02, 0x00, 0x00, 0x00, 0x00,
   0x00, 0x06, 0x30, 0x00, 0x00, 0x00, 0x00, 0x00, 0x00, 0x00, 0x00, 0x00,
   0x00, 0x00, 0x00, 0x00, 0x10, 0x00, 0x20, 0x02, 0x00, 0x00, 0x00, 0x00,
   0x00, 0x00, 0x00, 0x00, 0x00, 0x00, 0x00, 0x00, 0x00, 0x00, 0x00, 0x00,
   0x00, 0x00, 0x00, 0x00, 0x00, 0x00, 0x00, 0x00, 0x00, 0x00, 0x00, 0x00,
   0x00, 0x00, 0x00, 0x00, 0x00, 0x00, 0x00, 0x00, 0x00, 0x00, 0x00, 0x00,
   0x00, 0x00, 0x00, 0x00, 0x00, 0x00, 0x00, 0x00, 0x00, 0x00, 0x00, 0x00,
   0x00, 0x00, 0x00, 0x00, 0x00, 0x00, 0x00, 0x00, 0x00, 0x00, 0x00, 0x00,
   0x00, 0x00, 0x00, 0x00, 0x00, 0x00, 0x00, 0x00, 0x00, 0x00, 0x00, 0x00,
   0x00, 0x00, 0x00, 0x00, 0x00, 0x00, 0x00, 0x00, 0x00, 0x00, 0x00, 0x00,
   0x00, 0x00, 0x00, 0x00, 0x00, 0x00, 0x00, 0x00, 0x00, 0x00, 0x00, 0x00,
   0x00, 0x00, 0x00, 0x00, 0x00, 0x00, 0x00, 0x00, 0x00, 0x00, 0x00, 0x00,
   0x00, 0x00, 0x00, 0x00, 0x00, 0x00, 0x00, 0x00, 0x00, 0x00, 0x00, 0x00};
