/* XPM */
static char *diamondsuit[] = {
/* columns rows colors chars-per-pixel */
"13 19 2 1",
"  c black",
". c None",
/* pixels */
".............",
".............",
".............",
".............",
".............",
"...... ......",
"..... . .....",
".... ... ....",
"... ..... ...",
".. ....... ..",
". ......... .",
".. ....... ..",
"... ..... ...",
".... ... ....",
"..... . .....",
"...... ......",
".............",
".............",
"............."
};
