/* XPM */
static char *a[] = {
/* columns rows colors chars-per-pixel */
"20 20 2 1",
". c #000000",
"X c None",
/* pixels */
"XXXXXXXXXXXXXXXXXXXX",
"XXXXXXXXXX.XXXXXXXXX",
"XXXXXXXXX...XXXXXXXX",
"XXXXXXXXXX.XXXXXXXXX",
"XXXXXXXXXXXXXXXXXXXX",
"XXXXXXXXXXXXXXXXXXXX",
"XXXX.X.X.X.X.X.X.XXX",
"XXXXXXXXXXXXXXXXXXXX",
"XXXX.XXXXXXXXXXX.XXX",
"XXXXXXXXXXXXXXXXXXXX",
"XXXX.XXXXXXXXXXX.XXX",
"XXXXXXXXXXXXXXXXXXXX",
"XXXX.XXXXXXXXXXX.XXX",
"XXXXXXXXXXXXXXXXXXXX",
"XXXX.XXXXXXXXXXX.XXX",
"XXXXXXXXXXXXXXXXXXXX",
"XXXX.XXXXXXXXXXX.XXX",
"XXXXXXXXXXXXXXXXXXXX",
"XXXX.X.X.X.X.X.X.XXX",
"XXXXXXXXXXXXXXXXXXXX"
};
