/* XPM */
static char *dotsintop[] = {
/* columns rows colors chars-per-pixel */
"20 19 2 1",
"  c black",
"X c None",
/* pixels */
"XXXXXXXXXXXXXXX X X ",
"XXXXXXXXXXXXXXXXXXXX",
"XXX  XXXXXXX  X XXX ",
"XX XXXXXXXX XXXXXXXX",
"XX XXXXXXXX XXX X X ",
"XX XXXXXXXX XXXXXXXX",
"XX XXXXXXXX XXXXXXXX",
"XX XXXXXXXX XXXXXXXX",
"XX XXXXXXXX XXXXXXXX",
"XX XXXXXXXX XXXXXXXX",
"XX XX XX XX XXXXXXXX",
"XX XXXXXXXX XXXXXXXX",
"XX XXXXXXXX XXXXXXXX",
"XX XXXXXXXX XXXXXXXX",
"XX XXXXXXXX XXXXXXXX",
"XX XXXXXXXX XXXXXXXX",
"XX XXXXXXXX XXXXXXXX",
"XX XXXXXXXX XXXXXXXX",
"  XXXXXXX  XXXXXXXXX"
};
