/* XPM */
static char *doublebarwedge[] = {
/* columns rows colors chars-per-pixel */
"9 19 3 1",
"  c black",
". c gray100",
"X c None",
/* pixels */
"XXXXXXXXX",
"XXXXXXXXX",
"XXXXXXXXX",
"X       X",
"XXXXXXXXX",
"XXXXXXXXX",
"X       X",
"XXXXXXXXX",
"XXXXXXXXX",
"XXXX XXXX",
"XXXX XXXX",
"XXX X XXX",
"XXX X XXX",
"XX XXX XX",
"XX XXX XX",
"X XXXXX X",
"X XXXXX X",
"XXXXXXXXX",
"XXXXXXXXX"
};
