/* XPM */
static char *ell[] = {
/* columns rows colors chars-per-pixel */
"9 19 3 1",
"  c black",
". c gray100",
"X c None",
/* pixels */
"XXXXXXXXX",
"XXXXXXXXX",
"XXXXXXXXX",
"XXXXXXXXX",
"XXXXXX XX",
"XXXXX X X",
"XXXX XX X",
"XXXX X XX",
"XXX XX XX",
"XXX X XXX",
"XXX  XXXX",
"XXX XXXXX",
"XX  XXXXX",
"X X XX XX",
"XXXX  XXX",
"XXXXXXXXX",
"XXXXXXXXX",
"XXXXXXXXX",
"XXXXXXXXX"
};
