/* XPM */
static char *a[] = {
/* columns rows colors chars-per-pixel */
"6 11 3 1",
"  c black",
". c #5972ff",
"X c None",
/* pixels */
"XXX...",
"XX.XXX",
"X..XXX",
"X.XXXX",
"..XXXX",
".....X",
".XXXXX",
".XXXXX",
".XXXXX",
"X.XXX.",
"XX...X"
};
