/* XPM */
static char *a[] = {
/* columns rows colors chars-per-pixel */
"21 8 3 1",
"  c #000000",
". c #000000",
"X c None",
/* pixels */
".....................",
"XXXXXXXX.XXX.XXXXXXXX",
"XXXXXXXX.XXX.XXXXXXXX",
"XXXXXXX.XXXXX.XXXXXXX",
"XXXXXXX.XXXXX.XXXXXXX",
"XXXXXXXX.XXX.XXXXXXXX",
"XXXXXXXX.XXX.XXXXXXXX",
"....................X"
};
