/* XPM */
static char *a[] = {
/* columns rows colors chars-per-pixel */
"17 22 3 1",
"  c black",
". c black",
"X c None",
/* pixels */
".XXXXXXXXXXXXXXXX",
"X..XXXXXXXXXXXXXX",
"XXX..XXXXXXXXXXXX",
"XXXXX..XXXXXXXXXX",
"XXXXXXX.XXXXXXXXX",
".XXXXXXX..XXXXXXX",
"X..XXXXXXX..XXXXX",
"XXX..XXXXXXX..XXX",
"XXXXX..XXXXXXX..X",
"XXXXXXX..XXXXXXX.",
"XXXXXXXXX..XXXXXX",
"XXXXXXXXXXX..XXXX",
"XXXXXXXXXXXXX..XX",
"XXXXXXXXXXXXXXX..",
"XXXXXXXXXXXXXX..X",
"XXXXXXXXXXXX..XXX",
"XXXXXXXXXX..XXXXX",
"XXXXXXXX..XXXXXXX",
"XXXXXX..XXXXXXXXX",
"XXXX..XXXXXXXXXXX",
"XX..XXXXXXXXXXXXX",
"..XXXXXXXXXXXXXXX"
};
