/* XPM */
static char *a[] = {
/* columns rows colors chars-per-pixel */
"13 9 3 1",
"  c #000000",
". c #000000",
"X c None",
/* pixels */
".............",
"XXXXXXXXXXXXX",
"XXXXXXXXXXXXX",
"XXXXXXXXXXXXX",
".............",
"XXXXXXXXXXXXX",
"XXXXXXXXXXXXX",
"XXXXXXXXXXXXX",
"............."
};
