/* XPM */
static char *a[] = {
/* columns rows colors chars-per-pixel */
"10 16 3 1",
"  c black",
". c #5972ff",
"X c None",
/* pixels */
"X..XXX...X",
".XX.X.XXX.",
".XX..XXXX.",
".XX.XXXXX.",
"XX..XXXXX.",
"XX..XXXXX.",
"XX.XXXXX.X",
"XX.XXXXX.X",
"X..XXXXX.X",
"X..XXXXX.X",
"X.XXXXX..X",
"XXXXXXX.XX",
"XXXXXXX.XX",
"XXXXXXX.XX",
"XXXXXX..XX",
"XXXXXX..XX"
};
