/* XPM */
static char const * style_xpm[] = {
"20 20 5 1",
" 	c None",
".	c #0000ff",
"X	c #000000",
"o	c #0000ff",
"Y	c #0000ff",
"                    ",
"  ......     oooooo ",
"  ......    oo   oo ",
"  ..  ..   oo   oo  ",
"  ......   ooooooo  ",
"  ......  oo   oo   ",
"  ..  ..  oo   oo   ",
"  ..  .. oo   oo    ",
"  ..  .. oo   oo    ",
"                    ",
"    XX              ",
"   XXXX     YYYYY   ",
"  XX  XX   Y     Y  ",
" XX    XX  Y     Y  ",
" XXXXXXXX  YYYYYYY  ",
" XX    XX  Y     Y  ",
" XX    XX  Y     Y  ",
" XX    XX  Y     Y  ",
" XX    XX YYY   YYY ",
"                    "};
