/* XPM */
static char *forall[] = {
/* columns rows colors chars-per-pixel */
"10 19 3 1",
"  c black",
". c gray100",
"X c None",
/* pixels */
"XXXXXXXXXX",
"XXXXXXXXXX",
"XXXXXXXXXX",
"XXXXXXXXXX",
"X XXXXXXX ",
"X XXXXXXX ",
"XX XXXXX X",
"XX XXXXX X",
"XXX     XX",
"XXX XXX XX",
"XXX XXX XX",
"XXXX X XXX",
"XXXX X XXX",
"XXXXX XXXX",
"XXXXX XXXX",
"XXXXXXXXXX",
"XXXXXXXXXX",
"XXXXXXXXXX",
"XXXXXXXXXX"
};
