/* XPM */
static char *geqslant[] = {
/* columns rows colors chars-per-pixel */
"11 19 3 1",
"  c black",
". c gray100",
"X c None",
/* pixels */
"XXXXXXXXXXX",
"XXXXXXXXXXX",
"XXXXXXXXXXX",
"XXXXXXXXXXX",
"XXXXXXXXXXX",
"X  XXXXXXXX",
"XXX  XXXXXX",
"XXXXX  XXXX",
"XXXXXXX  XX",
"XXXXXXXXX X",
"XXXXXXX  XX",
"XXXXX  XXXX",
"XXX  XXXX X",
"X  XXXX  XX",
"XXXXX  XXXX",
"XXX  XXXXXX",
"X  XXXXXXXX",
"XXXXXXXXXXX",
"XXXXXXXXXXX"
};
