/* XPM */
static char *gg[] = {
/* columns rows colors chars-per-pixel */
"16 19 3 1",
"  c black",
". c gray100",
"X c None",
/* pixels */
"XXXXXXXXXXXXXXXX",
"XXXXXXXXXXXXXXXX",
"XXXXXXXXXXXXXXXX",
"XXXXXXXXXXXXXXXX",
"XXXXXXXXXXXXXXXX",
"XXXXXXXXXXXXXXXX",
"X  XXX  XXXXXXXX",
"XXX  XXX  XXXXXX",
"XXXXX  XXX  XXXX",
"XXXXXXX  XXX  XX",
"XXXXXXXXX XXXX X",
"XXXXXXX  XXX  XX",
"XXXXX  XXX  XXXX",
"XXX  XXX  XXXXXX",
"X  XXX  XXXXXXXX",
"XXXXXXXXXXXXXXXX",
"XXXXXXXXXXXXXXXX",
"XXXXXXXXXXXXXXXX",
"XXXXXXXXXXXXXXXX"
};
