/* XPM */
static char *a[] = {
/* columns rows colors chars-per-pixel */
"19 24 3 1",
"  c black",
". c #5972ff",
"X c None",
/* pixels */
"X.XXXXXXXXXXXXXXXXX",
"XX..XXXXXXXXXXXXXXX",
"XXXX..XXXXXXXXXXXXX",
"XXXXXX..XXXXXXXXXXX",
"XXXXXXXX..XXXXXXXXX",
"XXXXXXXXXX..XXXXXXX",
"XXXXXXXXXXXX..XXXXX",
"XXXXXXXXXXXXXX...XX",
"XXXXXXXXXXXXXX..XXX",
"XXXXXXXXXXXX..XXXXX",
"XXXXXXXXXX..XXXXXXX",
"XXXXXXXX..XXXXXXXXX",
"XXXXXX..XXXXXXXXXXX",
"XXXX..XXXXXXXXXXXXX",
"XX..XXXXXXXXXXXXXXX",
"X.XXXXXXXXXXXXXXXXX",
"XXXXXXXXXXXXXXXXXXX",
"XXXXXXXXXXXXXXXXXXX",
"XXX.....XXXXXXXXXXX",
"XX..XXX..XXXXXXXXX.",
"X.XXXXXXX.XXXXXXXX.",
".XXXXXXXXX.XXXXXX..",
".XXXXXXXXXX.XXXXX.X",
".XXXXXXXXXXX.....XX"
};
