/* XPM */
static char *a[] = {
/* columns rows colors chars-per-pixel */
"13 17 3 1",
"  c black",
". c #5972ff",
"X c None",
/* pixels */
"XXXXXX.XXXXXX",
"XXXX..X..XXXX",
"XXX.XXXXX.XXX",
"X..XXXXXXX..X",
".XXXXXXXXXXX.",
"XXXXXXXXXXXXX",
"X.X.X.X.X.X.X",
"XXXXXXXXXXXXX",
"X.XXXXXXXXX.X",
"XXXXXXXXXXXXX",
"X.XXXXXXXXX.X",
"XXXXXXXXXXXXX",
"X.XXXXXXXXX.X",
"XXXXXXXXXXXXX",
"X.XXXXXXXXX.X",
"XXXXXXXXXXXXX",
"X.X.X.X.X.X.X"
};
