/* XPM */
static char *a[] = {
/* columns rows colors chars-per-pixel */
"9 14 3 1",
"  c black",
". c #5972ff",
"X c None",
/* pixels */
"X...XXXXX",
"XXX.XXXXX",
".......XX",
"XX..XXXXX",
"XX.XXXXXX",
"XX.X...XX",
"XX..XX..X",
"X..XXX..X",
"X.XXXX.XX",
"X.XXXX.XX",
"X.XXXX.XX",
"..XXX..X.",
".XXXX.X.X",
".XXXX...X"
};
