/* XPM */
static char *a[] = {
/* columns rows colors chars-per-pixel */
"23 9 3 1",
"  c black",
". c #5972ff",
"X c None",
/* pixels */
"XXXX.XXXXXXXXXXXXXX...X",
"XXX.XXXXXXXXXXXXXXXXXX.",
"XXX.XXXXXXXXXXXXXXXXXX.",
"X..XXXXXXXXXXXXXXXXXXX.",
"......................X",
"X..XXXXXXXXXXXXXXXXXXXX",
"XX.XXXXXXXXXXXXXXXXXXXX",
"XXX.XXXXXXXXXXXXXXXXXXX",
"XXX..XXXXXXXXXXXXXXXXXX"
};
