/* XPM */
static char *phantom[] = {
/* columns rows colors chars-per-pixel */
"13 19 3 1",
"  c red",
". c black",
"X c None",
/* pixels */
"XXXXXXXXXXXXX",
"XXXXXXXXXXXXX",
".X.X.X.X.X.X.",
"XXXXXXXXXXXXX",
".XXXXXXXXXXX.",
"XXXXXXXXXXXXX",
".XXXXXXXXXXX.",
"XXX XXXXX XXX",
".X XXXXXXX X.",
"X           X",
".X XXXXXXX X.",
"XXX XXXXX XXX",
".XXXXXXXXXXX.",
"XXXXXXXXXXXXX",
".XXXXXXXXXXX.",
"XXXXXXXXXXXXX",
".X.X.X.X.X.X.",
"XXXXXXXXXXXXX",
"XXXXXXXXXXXXX"
};
