/* XPM */
static char *a[] = {
/* columns rows colors chars-per-pixel */
"15 20 3 1",
"  c black",
". c #5972ff",
"X c None",
/* pixels */
"XXX....XXXXXXXX",
"XXXXX..XXXXXXXX",
"XXXXX..XXXX...X",
"XXXXX..X....XXX",
"XXXX....XXXXXXX",
"X.....XXXXXXXXX",
"XXXX..XXXXXXXXX",
"XXXX.XX....XXXX",
"XXX....XXXX.XXX",
"XXX..XXXXXX..XX",
"XXX..XXXXXX..XX",
"XX...XXXXXX..XX",
"XX..XXXXXXX.XXX",
"XX..XXXXXX..XXX",
"XX..XXXXXX..XXX",
"X...XXXXXX.XXX.",
"X..XXXXXX..XXX.",
"X..XXXXXX..XXX.",
"X..XXXXXX..XX.X",
"..XXXXXXX....XX"
};
