/* XPM */
static char *iiiintop[] = {
/* columns rows colors chars-per-pixel */
"20 19 3 1",
"  c black",
". c gray100",
"X c None",
/* pixels */
"XXXXXXXXXXXXXXX X X ",
"XXXXXXXXXXXXXXXXXXXX",
"XXX  X  X  X  X XXX ",
"XX XX XX XX XXXXXXXX",
"XX XX XX XX XXX X X ",
"XX XX XX XX XXXXXXXX",
"XX XX XX XX XXXXXXXX",
"XX XX XX XX XXXXXXXX",
"XX XX XX XX XXXXXXXX",
"XX XX XX XX XXXXXXXX",
"XX XX XX XX XXXXXXXX",
"XX XX XX XX XXXXXXXX",
"XX XX XX XX XXXXXXXX",
"XX XX XX XX XXXXXXXX",
"XX XX XX XX XXXXXXXX",
"XX XX XX XX XXXXXXXX",
"XX XX XX XX XXXXXXXX",
"XX XX XX XX XXXXXXXX",
"  X  X  X  XXXXXXXXX"
};
