/* XPM */
static char *a[] = {
/* columns rows colors chars-per-pixel */
"4 9 3 1",
"  c #000000",
". c #000000",
"X c None",
/* pixels */
"...X",
"XX.X",
"XX.X",
"XX.X",
"XX.X",
"XX.X",
"XX.X",
"XX.X",
"...."
};
