/* XPM */
static char *a[] = {
/* columns rows colors chars-per-pixel */
"10 12 3 1",
"  c #000000",
". c #000000",
"X c None",
/* pixels */
"XXXX......",
"XX..XXXXXX",
"X.XXXXXXXX",
".XXXXXXXXX",
".XXXXXXXXX",
"..........",
".XXXXXXXXX",
".XXXXXXXXX",
"X.XXXXXXXX",
"X.XXXXXXXX",
"XX..XXXXXX",
"XXXX......"
};
