/* XPM */
static char *a[] = {
/* columns rows colors chars-per-pixel */
"19 9 3 1",
"  c black",
". c black",
"X c None",
/* pixels */
"XX....XXXXXXX....XX",
"X..XX...XXX..XXX..X",
"..XXXXX..X.XXXXXX..",
".XXXXXXX...XXXXXXX.",
".XXXXXXX...XXXXXXX.",
".XXXXXXX...XXXXXXX.",
"..XXXXXX.X..XXXXX..",
"X..XXX..XXX...XX..X",
"XX....XXXXXXX....XX"
};
