/* XPM */
static char *infty[] = {
/* columns rows colors chars-per-pixel */
"17 19 3 1",
"  c black",
". c gray100",
"X c None",
/* pixels */
"XXXXXXXXXXXXXXXXX",
"XXXXXXXXXXXXXXXXX",
"XXXXXXXXXXXXXXXXX",
"XXXXXXXXXXXXXXXXX",
"XXXXXXXXXXXXXXXXX",
"XXXXXXXXXXXXXXXXX",
"XXXXXXXXXXXXXXXXX",
"XXXXXXXXXXXXXXXXX",
"XXX   XXXXX   XXX",
"XX XXX XXX XXX XX",
"X XXXXX X XXXXX X",
"X XXXXXX XXXXXX X",
"X XXXXX X XXXXX X",
"XX XXX XXX XXX XX",
"XXX   XXXXX   XXX",
"XXXXXXXXXXXXXXXXX",
"XXXXXXXXXXXXXXXXX",
"XXXXXXXXXXXXXXXXX",
"XXXXXXXXXXXXXXXXX"
};
