/* XPM */
static char *int[] = {
/* columns rows colors chars-per-pixel */
"10 19 3 1",
"  c black",
". c gray100",
"X c None",
/* pixels */
"XXXXXXXXXX",
"XXXXXXXXXX",
"XXXXXX  XX",
"XXXXX XXXX",
"XXXXX XXXX",
"XXXXX XXXX",
"XXXXX XXXX",
"XXXXX XXXX",
"XXXXX XXXX",
"XXXXX XXXX",
"XXXXX XXXX",
"XXXXX XXXX",
"XXXXX XXXX",
"XXXXX XXXX",
"XXXXX XXXX",
"XXXXX XXXX",
"XXXXX XXXX",
"XXXXX XXXX",
"XXX  XXXXX"
};
