/* XPM */
static char *iota[] = {
/* columns rows colors chars-per-pixel */
"6 19 3 1",
"  c black",
". c gray100",
"X c None",
/* pixels */
"XXXXXX",
"XXXXXX",
"XXXXXX",
"XXXXXX",
"XXXXXX",
"XXXXXX",
"XXXXXX",
"XXXXXX",
"XX XXX",
"XX XXX",
"XX XXX",
"X XXXX",
"X XXXX",
"X XX X",
"XX  XX",
"XXXXXX",
"XXXXXX",
"XXXXXX",
"XXXXXX"
};
