/* XPM */
static char *jmath[] = {
/* columns rows colors chars-per-pixel */
"8 19 3 1",
"  c black",
". c gray100",
"X c None",
/* pixels */
"XXXXXXXX",
"XXXXXXXX",
"XXXXXXXX",
"XXXXXXXX",
"XXXXXXXX",
"XXXXXXXX",
"XXXXXXXX",
"XXXXXXXX",
"XXXXX  X",
"XXXX X X",
"XXXXXX X",
"XXXXX XX",
"XXXXX XX",
"XXXXX XX",
"XXXX XXX",
"XXXX XXX",
"X XX XXX",
"X   XXXX",
"XXXXXXXX"
};
