/* XPM */
static char *a[] = {
/* columns rows colors chars-per-pixel */
"5 13 3 1",
"  c black",
". c black",
"X c None",
/* pixels */
"XX...",
"XXXX.",
"XXXX.",
"XXXX.",
"XXXX.",
"XXXX.",
"XXXX.",
"XXXX.",
"XXXX.",
"XXXX.",
"XXXX.",
"..XX.",
"....X"
};
