/* XPM */
static char *ldots[] = {
/* columns rows colors chars-per-pixel */
"18 19 3 1",
"  c black",
". c gray100",
"X c None",
/* pixels */
"XXXXXXXXXXXXXXXXXX",
"XXXXXXXXXXXXXXXXXX",
"XXXXXXXXXXXXXXXXXX",
"XXXXXXXXXXXXXXXXXX",
"XXXXXXXXXXXXXXXXXX",
"XXXXXXXXXXXXXXXXXX",
"XXXXXXXXXXXXXXXXXX",
"XXXXXXXXXXXXXXXXXX",
"XXXXXXXXXXXXXXXXXX",
"XXXXXXXXXXXXXXXXXX",
"XXXXXXXXXXXXXXXXXX",
"XXXXXXXXXXXXXXXXXX",
"XXXXXXXXXXXXXXXXXX",
"X  XXXXX  XXXXX  X",
"X  XXXXX  XXXXX  X",
"XXXXXXXXXXXXXXXXXX",
"XXXXXXXXXXXXXXXXXX",
"XXXXXXXXXXXXXXXXXX",
"XXXXXXXXXXXXXXXXXX"
};
