/* XPM */
static char *a[] = {
/* columns rows colors chars-per-pixel */
"26 19 3 1",
"  c black",
". c black",
"X c None",
/* pixels */
"XXXX.XXXXXXXXXXXXXXXXXXXXX",
"XXX.XXXXXXXXXXXXXXXXXXXXXX",
"XX.XXXXXXXXXXXXXXXXXXXXXXX",
"X.XXXXXXXXXXXXXXXXXXXXXXXX",
"..........................",
"X.XXXXXXXXXXXXXXXXXXXXXXXX",
"XX.XXXXXXXXXXXXXXXXXXXXXXX",
"XXX.XXXXXXXXXXXXXXXXXXXXXX",
"XXXX.XXXXXXXXXXXXXXXXXXXXX",
"XXXX.XXXXXXXXXXXXXXXXXXXXX",
"XXXX.XXXXXXXXXXXXXXXXXXXXX",
"XXX.XXXXXXXXXXXXXXXXXXXXXX",
"XX.XXXXXXXXXXXXXXXXXXXXXXX",
"X.XXXXXXXXXXXXXXXXXXXXXXXX",
".........................X",
"X.XXXXXXXXXXXXXXXXXXXXXXXX",
"XX.XXXXXXXXXXXXXXXXXXXXXXX",
"XXX.XXXXXXXXXXXXXXXXXXXXXX",
"XXXX.XXXXXXXXXXXXXXXXXXXXX"
};
