/* XPM */
static char *a[] = {
/* columns rows colors chars-per-pixel */
"21 9 3 1",
"  c black",
". c #5972ff",
"X c None",
/* pixels */
"XXXX.XXXXXXXXXXX.XXXX",
"XXX.XXXXXXXXXXXXX.XXX",
"XXX.XXXXXXXXXXXXX.XXX",
"X..XXXXXXXXXXXXXXX..X",
".....................",
"X..XXXXXXXXXXXXXXX..X",
"XX.XXXXXXXXXXXXXXX.XX",
"XXX.XXXXXXXXXXXXX.XXX",
"XXX..XXXXXXXXXXX.XXXX"
};
