/* XPM */
static char *a[] = {
/* columns rows colors chars-per-pixel */
"27 21 3 1",
"  c black",
". c #5972ff",
"X c None",
/* pixels */
"XXXXX.XXXXXXXXXXXXXXXXXXXXX",
"XXXX.XXXXXXXXXXXXXXXXXXXXXX",
"XXX.XXXXXXXXXXXXXXXXXXXXXXX",
"XX.XXXXXXXXXXXXXXXXXXXXXXXX",
"X.XXXXXXXXXXXXXXXXXXXXXXXXX",
"...........................",
"X.XXXXXXXXXXXXXXXXXXXXXXXXX",
"XX.XXXXXXXXXXXXXXXXXXXXXXXX",
"XXX.XXXXXXXXXXXXXXXXXXXXXXX",
"XXXX.XXXXXXXXXXXXXXXXXXXXXX",
"XXXXX.XXXXXXXXXXXXXXX.XXXXX",
"XXXXXXXXXXXXXXXXXXXXXX.XXXX",
"XXXXXXXXXXXXXXXXXXXXXXX.XXX",
"XXXXXXXXXXXXXXXXXXXXXXXX.XX",
"XXXXXXXXXXXXXXXXXXXXXXXXX.X",
"X..........................",
"XXXXXXXXXXXXXXXXXXXXXXXXX.X",
"XXXXXXXXXXXXXXXXXXXXXXXX.XX",
"XXXXXXXXXXXXXXXXXXXXXXX.XXX",
"XXXXXXXXXXXXXXXXXXXXXX.XXXX",
"XXXXXXXXXXXXXXXXXXXXX.XXXXX"
};
