/* XPM */
static char *a[] = {
/* columns rows colors chars-per-pixel */
"27 15 3 1",
"  c black",
". c #5972ff",
"X c None",
/* pixels */
"XXXXX.XXXXXXXXXXXXXXXXXXXXX",
"XXXXX.XXXXXXXXXXXXXXXXXXXXX",
"XXXX.XXXXXXXXXXXXXXXXXXXXXX",
"XXX.XXXXXXXXXXXXXXXXXXXXXXX",
"XX.........................",
"XXXXXXXXXXXXXXXXXXXXXXXXXXX",
"XXXXXXXXXXXXXXXXXXXXXXXXXXX",
"XXXXXXXXXXXXXXXXXXXXXXXXXXX",
"XXXXXXXXXXXXXXXXXXXXXXXXXXX",
"XXXXXXXXXXXXXXXXXXXXXXXXXXX",
"...........................",
"XXXXXXXXXXXXXXXXXXXXXXXXX.X",
"XXXXXXXXXXXXXXXXXXXXXXXX.XX",
"XXXXXXXXXXXXXXXXXXXXXXX.XXX",
"XXXXXXXXXXXXXXXXXXXXXXX.XXX"
};
