/* XPM */
static char *a[] = {
/* columns rows colors chars-per-pixel */
"18 25 3 1",
"  c black",
". c #5972ff",
"X c None",
/* pixels */
"XXXXXXXXXXXXXXXX..",
"XXXXXXXXXXXXXX..XX",
"XXXXXXXXXXXX..XXXX",
"XXXXXXXXXX..XXXXXX",
"XXXXXXXX..XXXXXXXX",
"XXXXXX..XXXXXXXXXX",
"XXXX..XXXXXXXXXXXX",
"XX..XXXXXXXXXXXXXX",
"..XXXXXXXXXXXXXXXX",
"XX..XXXXXXXXXXXXXX",
"XXXX..XXXXXXXXXXXX",
"XXXXXX..XXXXXXXXXX",
"XXXXXXXX..XXXXXXXX",
"XXXXXXXXXX..XXXXXX",
"XXXXXXXXXXXX..XXXX",
"XXXXXXXXXXXXXX..XX",
"XXXXXXXXXXXXXXXX..",
"XXXXXXXXXXXXXXXXXX",
"XXXXXXXXXXXXXXXXXX",
"..................",
"XXXXXXXXXXXXXXXXXX",
"XXXXXXXXXXXXXXXXXX",
"XXXXXXXXXXXXXXXXXX",
"XXXXXXXXXXXXXXXXXX",
".................."
};
