/* XPM */
static char *lessapprox[] = {
/* columns rows colors chars-per-pixel */
"13 19 3 1",
"  c black",
". c gray100",
"X c None",
/* pixels */
"XXXXXXXXXXXXX",
"XXXXXXXXXXXXX",
"XXXXXXXXXXXXX",
"XXXXXXXXX  XX",
"XXXXXXX  XXXX",
"XXXXX  XXXXXX",
"XXX  XXXXXXXX",
"XX XXXXXXXXXX",
"XXX  XXXXXXXX",
"XXXXX  XXXXXX",
"XXXXXXX  XXXX",
"XXXXXXXXX  XX",
"XXXXXXXXXXXXX",
"XXX   XXXXX X",
"XX XXX XXX XX",
"X XXXXX   XXX",
"XXX   XXXXX X",
"XX XXX XXX XX",
"X XXXXX   XXX"
};
