/* XPM */
static char *a[] = {
/* columns rows colors chars-per-pixel */
"6 23 3 1",
"  c black",
". c black",
"X c None",
/* pixels */
".XXXXX",
".XXXXX",
".XXXXX",
".XXXXX",
".XXXXX",
".XXXXX",
".XXXXX",
".XXXXX",
".XXXXX",
".XXXXX",
".XXXXX",
".XXXXX",
".XXXXX",
".XXXXX",
".XXXXX",
".XXXXX",
".XXXXX",
".XXXXX",
".XXXXX",
".XXXXX",
".XXXXX",
".XXXXX",
"......"
};
