/* XPM */
static char *a[] = {
/* columns rows colors chars-per-pixel */
"25 21 3 1",
"  c black",
". c #5972ff",
"X c None",
/* pixels */
"XXXXXXXXX.XXXXXXXXXXXXXXX",
"XXXXXXXXX.XXXXXXXXXXXXXXX",
"XXXXXXXX.XXXXXXXXXXXXXXXX",
"XXXXXXX.XXXXXXXXXXXXXXXXX",
"XXXXXX...................",
"XXXXX..XXXXXXXXXXXXXXXXXX",
"XXXX..XXXXXXXXXXXXXXXXXXX",
"XXX..XXXXXXXXXXXXXXXXXXXX",
"XX..XXXXXXXXXXXXXXXXXXXXX",
"X..XXXXXXXXXXXXXXXXXXXXXX",
".........................",
"X..XXXXXXXXXXXXXXXXXXXXXX",
"XX..XXXXXXXXXXXXXXXXXXXXX",
"XXX..XXXXXXXXXXXXXXXXXXXX",
"XXXX..XXXXXXXXXXXXXXXXXXX",
"XXXXX..XXXXXXXXXXXXXXXXXX",
"XXXXXX...................",
"XXXXXXX.XXXXXXXXXXXXXXXXX",
"XXXXXXXX.XXXXXXXXXXXXXXXX",
"XXXXXXXXX.XXXXXXXXXXXXXXX",
"XXXXXXXXX.XXXXXXXXXXXXXXX"
};
