/* XPM */
static char *matbb_N[] = {
/* columns rows colors chars-per-pixel */
"12 19 3 1",
"  c black",
". c gray100",
"X c None",
/* pixels */
"XXXXXXXXXXXX",
"XXXXXXXXXXXX",
"XXXXXXXXXXXX",
"XXXXXXXXXXXX",
"X    XXX   X",
"XX  X XXX XX",
"XX  X XXX XX",
"XX X X XX XX",
"XX XX X X XX",
"XX XX X X XX",
"XX XXX X  XX",
"XX XXXX X XX",
"XX XXXX X XX",
"XX XXXXX  XX",
"X   XXXXX XX",
"XXXXXXXXXXXX",
"XXXXXXXXXXXX",
"XXXXXXXXXXXX",
"XXXXXXXXXXXX"
};
