/* XPM */
static char *mathbb_Q[] = {
/* columns rows colors chars-per-pixel */
"13 19 3 1",
"  c black",
". c gray100",
"X c None",
/* pixels */
"XXXXXXXXXXXXX",
"XXXXXXXXXXXXX",
"XXXXXXXXXXXXX",
"XXXXXXXXXXXXX",
"XXXXX   XXXXX",
"XXX  XXX  XXX",
"XX X XXX X XX",
"X X XXXXX X X",
"X X XXXXX X X",
"X X XXXXX X X",
"X X XXXXX X X",
"X X XXXXX X X",
"XX X XXX X XX",
"XXX  XXX  XXX",
"XXXXX   XXXXX",
"XXXXX X XXXXX",
"XXXXXX X XXXX",
"XXXXXXX   XXX",
"XXXXXXXXXXXXX"
};
