#define misc_width 150
#define misc_height 193
static unsigned char const misc_bits[] = {
   0x00, 0x00, 0x00, 0x00, 0x00, 0x00, 0x00, 0x00, 0x00, 0x00, 0x00, 0x00,
   0x00, 0x00, 0x00, 0x00, 0x00, 0x00, 0xc0, 0x00, 0x00, 0x00, 0x00, 0x00,
   0x00, 0x00, 0x00, 0x00, 0x00, 0x00, 0x00, 0x00, 0x00, 0x00, 0x00, 0x00,
   0x00, 0xc0, 0x00, 0x00, 0x00, 0x00, 0x00, 0x00, 0x00, 0x00, 0x00, 0x00,
   0x00, 0x00, 0x00, 0x00, 0x00, 0x00, 0x00, 0x00, 0xc0, 0x00, 0x00, 0x00,
   0x00, 0x00, 0x00, 0x00, 0x00, 0x00, 0x00, 0x00, 0x00, 0x00, 0x00, 0x00,
   0x00, 0x00, 0x00, 0xc0, 0x00, 0x00, 0x00, 0x00, 0x00, 0x00, 0x00, 0x00,
   0x00, 0x00, 0x00, 0x00, 0x00, 0x00, 0x00, 0x00, 0x00, 0x00, 0xc0, 0x00,
   0x00, 0x00, 0x00, 0x00, 0x00, 0x00, 0x00, 0x00, 0x00, 0x00, 0x00, 0x00,
   0x00, 0x00, 0x00, 0x00, 0x00, 0xc0, 0x00, 0x00, 0x00, 0x00, 0x00, 0x00,
   0x00, 0x00, 0x00, 0x00, 0x00, 0x00, 0x00, 0x00, 0x00, 0x00, 0x00, 0x00,
   0xc0, 0x00, 0x00, 0x00, 0x00, 0x00, 0x3c, 0x00, 0x00, 0x00, 0x00, 0x00,
   0x00, 0x00, 0x00, 0x00, 0x00, 0x00, 0x06, 0xc0, 0xc0, 0xff, 0x1f, 0x00,
   0x00, 0x62, 0x00, 0x00, 0x00, 0x00, 0x00, 0x00, 0x00, 0x00, 0x00, 0x00,
   0x00, 0x05, 0xc0, 0x80, 0x01, 0x08, 0x00, 0x00, 0x42, 0x00, 0x00, 0x00,
   0x00, 0x00, 0x00, 0x00, 0x00, 0x00, 0x00, 0x80, 0x04, 0xc0, 0x80, 0x01,
   0x08, 0x00, 0x00, 0xc3, 0x00, 0x00, 0x00, 0x00, 0x00, 0x00, 0x00, 0x0c,
   0x00, 0x00, 0x80, 0x04, 0xc0, 0x00, 0x03, 0x04, 0x00, 0x00, 0x81, 0x00,
   0x00, 0x00, 0x00, 0x00, 0x00, 0x00, 0x0c, 0x00, 0x00, 0xc0, 0x02, 0xc0,
   0x00, 0x03, 0x04, 0x00, 0x00, 0x80, 0x00, 0x00, 0x00, 0x00, 0x00, 0x00,
   0x00, 0x0c, 0x00, 0x00, 0x40, 0x02, 0xc0, 0x00, 0x06, 0x02, 0x00, 0x00,
   0x9e, 0x00, 0x00, 0x78, 0xc0, 0x03, 0x00, 0x00, 0x04, 0x00, 0x00, 0x40,
   0x01, 0xc0, 0x00, 0x06, 0x02, 0x00, 0x00, 0xe3, 0x00, 0x00, 0xcc, 0x31,
   0x06, 0x00, 0x00, 0x06, 0x00, 0x00, 0x60, 0x01, 0xc0, 0x00, 0x0c, 0x01,
   0x00, 0x80, 0xc1, 0x00, 0x00, 0x06, 0x0b, 0x0c, 0x00, 0x00, 0x06, 0x00,
   0x00, 0xe0, 0x00, 0xc0, 0x00, 0x0c, 0x01, 0x00, 0xc0, 0x40, 0x00, 0x00,
   0x02, 0x0e, 0x08, 0x00, 0x00, 0x02, 0x00, 0x00, 0x60, 0x00, 0xc0, 0x00,
   0x98, 0x00, 0x00, 0xc0, 0x60, 0x00, 0x00, 0x02, 0x0e, 0x08, 0x00, 0x00,
   0x02, 0x00, 0x00, 0x60, 0x00, 0xc0, 0x00, 0x98, 0x00, 0x00, 0x40, 0x60,
   0x00, 0x00, 0x02, 0x0e, 0x08, 0x00, 0x00, 0x03, 0x00, 0x00, 0x20, 0x00,
   0xc0, 0x00, 0x70, 0x00, 0x00, 0x40, 0x30, 0x00, 0x00, 0x06, 0x1a, 0x0c,
   0x00, 0x00, 0x01, 0x00, 0x00, 0x38, 0x00, 0xc0, 0x00, 0x70, 0x00, 0x00,
   0x80, 0x18, 0x00, 0x00, 0x8c, 0x71, 0x06, 0x00, 0x00, 0x01, 0x00, 0x00,
   0x20, 0x03, 0xc0, 0x00, 0x20, 0x00, 0x00, 0x00, 0x0f, 0x00, 0x00, 0x78,
   0xc0, 0x03, 0x00, 0x00, 0x00, 0x00, 0x00, 0xc0, 0x00, 0xc0, 0x00, 0x00,
   0x00, 0x00, 0x00, 0x00, 0x00, 0x00, 0x00, 0x00, 0x00, 0x00, 0x00, 0x00,
   0x00, 0x00, 0x00, 0x00, 0xc0, 0x00, 0x00, 0x00, 0x00, 0x00, 0x00, 0x00,
   0x00, 0x00, 0x00, 0x00, 0x00, 0x00, 0x00, 0x00, 0x00, 0x00, 0x00, 0xc0,
   0x00, 0x00, 0x00, 0x00, 0x00, 0x00, 0x00, 0x00, 0x00, 0x00, 0x00, 0x00,
   0x00, 0x00, 0x00, 0x00, 0x00, 0x00, 0xc0, 0x00, 0x00, 0x00, 0x00, 0x00,
   0x00, 0x00, 0x00, 0x00, 0x00, 0x00, 0x00, 0x00, 0x00, 0x00, 0x00, 0x00,
   0x00, 0xc0, 0x00, 0x00, 0x00, 0x00, 0x00, 0x00, 0x00, 0x00, 0x00, 0x00,
   0x00, 0x00, 0x00, 0x00, 0x00, 0x00, 0x00, 0x00, 0xc0, 0x00, 0x00, 0x00,
   0x00, 0x00, 0x00, 0x00, 0x00, 0x00, 0x00, 0x00, 0x00, 0x00, 0x00, 0x00,
   0x00, 0x00, 0x00, 0xc0, 0x00, 0x00, 0x00, 0x00, 0x00, 0x00, 0x00, 0x00,
   0x00, 0x00, 0x00, 0x00, 0x00, 0x00, 0x00, 0x00, 0x00, 0x00, 0xc0, 0x00,
   0x00, 0x00, 0x00, 0x00, 0x00, 0x00, 0x00, 0x00, 0x00, 0x00, 0x00, 0x00,
   0x00, 0x00, 0x00, 0x00, 0x00, 0xc0, 0x00, 0x00, 0x00, 0x00, 0x00, 0x00,
   0x00, 0x00, 0x00, 0x00, 0x00, 0x00, 0x00, 0x00, 0x00, 0x00, 0x00, 0x00,
   0xc0, 0x00, 0x00, 0x00, 0x00, 0x00, 0x00, 0x00, 0x00, 0x00, 0x00, 0x00,
   0x00, 0x00, 0x00, 0x00, 0x00, 0x00, 0x00, 0xc0, 0x00, 0x00, 0x00, 0x00,
   0x00, 0x00, 0x00, 0x00, 0x00, 0x00, 0x00, 0x00, 0x00, 0x00, 0x00, 0x00,
   0x00, 0x00, 0xc0, 0x00, 0x00, 0x00, 0x00, 0x00, 0x00, 0x00, 0x00, 0x00,
   0x00, 0x00, 0x00, 0x00, 0x00, 0x00, 0x00, 0x00, 0x00, 0xc0, 0x00, 0x00,
   0x00, 0x00, 0x00, 0x00, 0x00, 0x00, 0x00, 0x00, 0x00, 0x00, 0x00, 0x00,
   0x00, 0x00, 0x00, 0x00, 0xc0, 0x00, 0x00, 0x00, 0x00, 0x00, 0x00, 0x00,
   0x00, 0x00, 0x00, 0x00, 0x00, 0x00, 0x00, 0x00, 0x00, 0x00, 0x00, 0xc0,
   0x00, 0x00, 0x00, 0x00, 0x00, 0x00, 0x00, 0x00, 0x00, 0x00, 0x00, 0x00,
   0x00, 0x00, 0x00, 0x00, 0x00, 0x00, 0xc0, 0x00, 0x00, 0x00, 0x00, 0x00,
   0x00, 0x00, 0x00, 0x00, 0x00, 0x00, 0x00, 0x00, 0x00, 0x00, 0x00, 0x00,
   0x00, 0xc0, 0x00, 0x00, 0x01, 0x00, 0x00, 0x00, 0x00, 0x00, 0x00, 0x00,
   0x00, 0x00, 0x00, 0x00, 0x00, 0x00, 0x00, 0x00, 0xc0, 0x00, 0x70, 0x01,
   0x00, 0x00, 0x00, 0x00, 0x00, 0x00, 0x00, 0x00, 0x00, 0x00, 0x00, 0x00,
   0x00, 0x00, 0x00, 0xc0, 0x00, 0x98, 0x01, 0x00, 0xc0, 0xff, 0x00, 0x00,
   0x10, 0x40, 0x00, 0x00, 0x00, 0x00, 0x00, 0x00, 0x00, 0x00, 0xc0, 0x00,
   0x88, 0x01, 0x00, 0x00, 0x80, 0x00, 0x00, 0x10, 0x40, 0x00, 0x00, 0x00,
   0x00, 0x00, 0x00, 0x00, 0x00, 0xc0, 0x00, 0x84, 0x02, 0x00, 0x00, 0x80,
   0x00, 0x00, 0x20, 0x20, 0x00, 0x00, 0x00, 0x00, 0x00, 0x00, 0x00, 0x00,
   0xc0, 0x00, 0x84, 0x02, 0x00, 0x00, 0x80, 0x00, 0x00, 0x20, 0x20, 0x00,
   0x00, 0x00, 0x00, 0x00, 0x00, 0x00, 0x00, 0xc0, 0x00, 0x44, 0x02, 0x00,
   0x00, 0x80, 0x00, 0x00, 0xc0, 0x1f, 0x00, 0x00, 0x00, 0x00, 0x00, 0x00,
   0x00, 0x00, 0xc0, 0x00, 0x44, 0x02, 0x00, 0x00, 0x80, 0x00, 0x00, 0x40,
   0x10, 0x00, 0x00, 0x80, 0x03, 0x00, 0x00, 0xc0, 0x01, 0xc0, 0x00, 0x44,
   0x02, 0x00, 0xc0, 0xff, 0x00, 0x00, 0x40, 0x10, 0x00, 0x00, 0x00, 0x02,
   0x00, 0x00, 0x00, 0x01, 0xc0, 0x00, 0x24, 0x02, 0x00, 0x00, 0x80, 0x00,
   0x00, 0x80, 0x08, 0x00, 0x00, 0x00, 0x02, 0x00, 0x00, 0x00, 0x01, 0xc0,
   0x00, 0x24, 0x02, 0x00, 0x00, 0x80, 0x00, 0x00, 0x80, 0x08, 0x00, 0x00,
   0x00, 0x02, 0x00, 0x00, 0x00, 0x01, 0xc0, 0x00, 0x24, 0x02, 0x00, 0x00,
   0x80, 0x00, 0x00, 0x80, 0x08, 0x00, 0x00, 0x00, 0x02, 0x00, 0x00, 0x00,
   0x01, 0xc0, 0x00, 0x14, 0x02, 0x00, 0x00, 0x80, 0x00, 0x00, 0x00, 0x05,
   0x00, 0x00, 0x00, 0x02, 0x00, 0x00, 0x00, 0x01, 0xc0, 0x00, 0x14, 0x02,
   0x00, 0x00, 0x80, 0x00, 0x00, 0x00, 0x05, 0x00, 0x00, 0x00, 0x02, 0x00,
   0x00, 0x00, 0x01, 0xc0, 0x00, 0x18, 0x01, 0x00, 0x00, 0x80, 0x00, 0x00,
   0x00, 0x03, 0x00, 0x00, 0x00, 0x02, 0x00, 0x00, 0x00, 0x01, 0xc0, 0x00,
   0x98, 0x01, 0x00, 0xc0, 0xff, 0x00, 0x00, 0x00, 0x02, 0x00, 0x00, 0x80,
   0x07, 0x00, 0x00, 0x00, 0x01, 0xc0, 0x00, 0xe8, 0x00, 0x00, 0x00, 0x00,
   0x00, 0x00, 0x00, 0x00, 0x00, 0x00, 0x00, 0x00, 0x00, 0x00, 0x00, 0x01,
   0xc0, 0x00, 0x08, 0x00, 0x00, 0x00, 0x00, 0x00, 0x00, 0x00, 0x00, 0x00,
   0x00, 0x00, 0x00, 0x00, 0x00, 0x00, 0x01, 0xc0, 0x00, 0x00, 0x00, 0x00,
   0x00, 0x00, 0x00, 0x00, 0x00, 0x00, 0x00, 0x00, 0x00, 0x00, 0x00, 0x00,
   0x30, 0x01, 0xc0, 0x00, 0x00, 0x00, 0x00, 0x00, 0x00, 0x00, 0x00, 0x00,
   0x00, 0x00, 0x00, 0x00, 0x00, 0x00, 0x00, 0xf0, 0x00, 0xc0, 0x00, 0x00,
   0x00, 0x00, 0x00, 0x00, 0x00, 0x00, 0x00, 0x00, 0x00, 0x00, 0x00, 0x00,
   0x00, 0x00, 0x00, 0x00, 0xc0, 0x00, 0x00, 0x00, 0x00, 0x00, 0x00, 0x00,
   0x00, 0x00, 0x00, 0x00, 0x00, 0x00, 0x00, 0x00, 0x00, 0x00, 0x00, 0xc0,
   0x00, 0x00, 0x00, 0x00, 0x00, 0x00, 0x00, 0x00, 0x00, 0x00, 0x00, 0x00,
   0x00, 0x00, 0x00, 0x00, 0x00, 0x00, 0xc0, 0x00, 0x00, 0x00, 0x00, 0x00,
   0x00, 0x00, 0x00, 0x00, 0x00, 0x00, 0x00, 0x00, 0x00, 0x00, 0x00, 0x00,
   0x00, 0xc0, 0x00, 0x00, 0x00, 0x00, 0x00, 0x00, 0x00, 0x00, 0x00, 0x00,
   0x00, 0x00, 0x00, 0x00, 0x00, 0x00, 0x00, 0x00, 0xc0, 0x00, 0x00, 0x00,
   0x00, 0x00, 0x00, 0x00, 0x00, 0x00, 0x00, 0x00, 0x00, 0x00, 0x00, 0x00,
   0x00, 0x00, 0x00, 0xc0, 0x00, 0x00, 0x00, 0x00, 0x00, 0x00, 0x00, 0x00,
   0x00, 0x00, 0x00, 0x00, 0x00, 0x00, 0x00, 0x00, 0x00, 0x00, 0xc0, 0x00,
   0x00, 0x00, 0x00, 0x00, 0x00, 0x00, 0x00, 0x00, 0x00, 0x00, 0x00, 0x00,
   0x00, 0x00, 0x00, 0x00, 0x00, 0xc0, 0x00, 0x00, 0x00, 0x00, 0x00, 0x00,
   0x00, 0x00, 0x00, 0x00, 0x00, 0x00, 0x00, 0x00, 0x00, 0x00, 0x00, 0x00,
   0xc0, 0x00, 0x00, 0x00, 0x00, 0x00, 0x00, 0x00, 0x00, 0x00, 0x00, 0x00,
   0x00, 0x00, 0x00, 0x00, 0x00, 0x00, 0x00, 0xc0, 0x00, 0x00, 0x00, 0x00,
   0x00, 0x00, 0x00, 0x00, 0x00, 0x00, 0x00, 0x00, 0x00, 0x00, 0x00, 0x00,
   0x00, 0x00, 0xc0, 0x00, 0x00, 0x00, 0x00, 0x00, 0x00, 0x00, 0x00, 0x00,
   0x00, 0x00, 0x00, 0x00, 0x00, 0x00, 0x00, 0x00, 0x00, 0xc0, 0x00, 0x00,
   0x00, 0x00, 0x00, 0x00, 0x00, 0x00, 0x00, 0x00, 0x00, 0x00, 0x00, 0x00,
   0x00, 0x00, 0x00, 0x00, 0xc0, 0x00, 0x00, 0x00, 0x00, 0x00, 0x00, 0x00,
   0x00, 0x00, 0x00, 0x00, 0x00, 0x00, 0x00, 0x00, 0x00, 0x00, 0x00, 0xc0,
   0x00, 0x00, 0x00, 0x00, 0x00, 0x00, 0x00, 0x00, 0x00, 0x00, 0x00, 0x00,
   0x00, 0x00, 0x00, 0x00, 0x00, 0x00, 0xc0, 0x00, 0x87, 0x03, 0x00, 0x80,
   0x0f, 0x00, 0x00, 0x20, 0x10, 0x00, 0x00, 0x00, 0x00, 0x00, 0x00, 0xe0,
   0x00, 0xc0, 0x80, 0x69, 0x06, 0x00, 0xc0, 0x38, 0x00, 0x00, 0x20, 0x30,
   0x00, 0x00, 0x00, 0x00, 0x00, 0x00, 0x80, 0x00, 0xc0, 0x80, 0x18, 0x06,
   0x00, 0x20, 0x70, 0x02, 0x00, 0x40, 0x60, 0x00, 0x00, 0x00, 0x00, 0x00,
   0x00, 0xf0, 0x07, 0xc0, 0x80, 0x10, 0x0c, 0x00, 0x20, 0xc0, 0x01, 0x00,
   0x80, 0xc0, 0x00, 0x00, 0x00, 0x00, 0x00, 0x00, 0xc0, 0x00, 0xc0, 0x00,
   0x11, 0x1c, 0x00, 0x20, 0x00, 0x00, 0x00, 0x80, 0xa1, 0x00, 0x00, 0x80,
   0x01, 0x00, 0x00, 0x40, 0x00, 0xc0, 0x00, 0x12, 0x0c, 0x00, 0xc0, 0x80,
   0x01, 0x00, 0x80, 0x23, 0x00, 0x00, 0x40, 0x78, 0x00, 0x00, 0x40, 0x07,
   0xc0, 0x00, 0xf2, 0x03, 0x00, 0x00, 0x43, 0x02, 0x00, 0x40, 0x26, 0x00,
   0x00, 0x40, 0x44, 0x00, 0x00, 0xc0, 0x0c, 0xc0, 0x80, 0x12, 0x01, 0x00,
   0x00, 0x40, 0x00, 0x00, 0x40, 0x2c, 0x00, 0x00, 0x20, 0xc2, 0x00, 0x00,
   0x60, 0x0c, 0xc0, 0x80, 0x11, 0x01, 0x00, 0x00, 0x40, 0x00, 0x00, 0x40,
   0x38, 0x00, 0x00, 0x20, 0xc1, 0x00, 0x00, 0x20, 0x04, 0xc0, 0x00, 0x10,
   0x01, 0x00, 0x00, 0x80, 0x00, 0x00, 0x40, 0x30, 0x00, 0x00, 0xa0, 0x40,
   0x00, 0x00, 0x20, 0x04, 0xc0, 0x00, 0x10, 0x01, 0x00, 0xe0, 0x01, 0x01,
   0x00, 0xc0, 0x60, 0x00, 0x00, 0x60, 0x40, 0x00, 0x00, 0x20, 0x04, 0xc0,
   0x80, 0x10, 0x01, 0x00, 0x80, 0x03, 0x01, 0x00, 0x80, 0x40, 0x00, 0x00,
   0x60, 0x40, 0x00, 0x00, 0x30, 0x16, 0xc0, 0x80, 0x08, 0x09, 0x00, 0x00,
   0x86, 0x01, 0x00, 0x80, 0x81, 0x00, 0x00, 0xc0, 0x22, 0x00, 0x00, 0x10,
   0x0a, 0xc0, 0x00, 0x09, 0x1f, 0x00, 0x00, 0xfc, 0x00, 0x00, 0xe0, 0x81,
   0x00, 0x00, 0xa0, 0x12, 0x00, 0x00, 0x10, 0x0e, 0xc0, 0x00, 0x06, 0x06,
   0x00, 0x00, 0x00, 0x00, 0x00, 0x00, 0x00, 0x00, 0x00, 0x20, 0x0d, 0x00,
   0x00, 0x00, 0x00, 0xc0, 0x00, 0x00, 0x00, 0x00, 0x00, 0x00, 0x00, 0x00,
   0x00, 0x00, 0x00, 0x00, 0x20, 0x01, 0x00, 0x00, 0x00, 0x00, 0xc0, 0x00,
   0x00, 0x00, 0x00, 0x00, 0x00, 0x00, 0x00, 0x00, 0x00, 0x00, 0x00, 0x20,
   0x01, 0x00, 0x00, 0x00, 0x00, 0xc0, 0x00, 0x00, 0x00, 0x00, 0x00, 0x00,
   0x00, 0x00, 0x00, 0x00, 0x00, 0x00, 0xa0, 0x00, 0x00, 0x00, 0x00, 0x00,
   0xc0, 0x00, 0x00, 0x00, 0x00, 0x00, 0x00, 0x00, 0x00, 0x00, 0x00, 0x00,
   0x00, 0x60, 0x00, 0x00, 0x00, 0x00, 0x00, 0xc0, 0x00, 0x00, 0x00, 0x00,
   0x00, 0x00, 0x00, 0x00, 0x00, 0x00, 0x00, 0x00, 0x00, 0x00, 0x00, 0x00,
   0x00, 0x00, 0xc0, 0x00, 0x00, 0x00, 0x00, 0x00, 0x00, 0x00, 0x00, 0x00,
   0x00, 0x00, 0x00, 0x00, 0x00, 0x00, 0x00, 0x00, 0x00, 0xc0, 0x00, 0x00,
   0x00, 0x00, 0x00, 0x00, 0x00, 0x00, 0x00, 0x00, 0x00, 0x00, 0x00, 0x00,
   0x00, 0x00, 0x00, 0x00, 0xc0, 0x00, 0x00, 0x00, 0x00, 0x00, 0x00, 0x00,
   0x00, 0x00, 0x00, 0x00, 0x00, 0x00, 0x00, 0x00, 0x00, 0x00, 0x00, 0xc0,
   0x00, 0x00, 0x00, 0x00, 0x00, 0x00, 0x00, 0x00, 0x00, 0x00, 0x00, 0x00,
   0x00, 0x00, 0x00, 0x00, 0x00, 0x00, 0xc0, 0x00, 0x00, 0x00, 0x00, 0x00,
   0x00, 0x00, 0x00, 0x00, 0x00, 0x00, 0x00, 0x00, 0x00, 0x00, 0x00, 0x00,
   0x00, 0xc0, 0x00, 0x00, 0x00, 0x00, 0x00, 0x00, 0x00, 0x00, 0x00, 0x00,
   0x00, 0x00, 0x00, 0x00, 0x00, 0x00, 0x00, 0x00, 0xc0, 0x00, 0x00, 0x00,
   0x00, 0x00, 0x00, 0x00, 0x00, 0x00, 0x00, 0x00, 0x00, 0x00, 0x00, 0x00,
   0x00, 0x00, 0x00, 0xc0, 0x00, 0x00, 0x00, 0x00, 0x00, 0x00, 0x00, 0x00,
   0x00, 0x00, 0x00, 0x00, 0x00, 0x00, 0x00, 0x00, 0x00, 0x00, 0xc0, 0x00,
   0x00, 0x00, 0x00, 0x00, 0x00, 0x00, 0x00, 0x00, 0x00, 0x00, 0x00, 0x00,
   0x00, 0x00, 0x00, 0x00, 0x00, 0xc0, 0x00, 0x00, 0x00, 0x00, 0x00, 0x00,
   0x00, 0x00, 0x00, 0x00, 0x00, 0x00, 0x00, 0x00, 0x00, 0x00, 0x00, 0x00,
   0xc0, 0x00, 0x00, 0x00, 0x00, 0x00, 0x00, 0x00, 0x00, 0x00, 0x00, 0x00,
   0x00, 0x00, 0x00, 0x00, 0x00, 0x00, 0x00, 0xc0, 0x00, 0x00, 0x00, 0x00,
   0x00, 0x00, 0x00, 0x00, 0x00, 0x00, 0x00, 0x00, 0x80, 0x08, 0x00, 0x00,
   0x00, 0x00, 0xc0, 0x00, 0x00, 0x00, 0x00, 0x00, 0x00, 0x00, 0x00, 0x00,
   0x00, 0x00, 0x00, 0x80, 0x08, 0x00, 0x00, 0x00, 0x00, 0xc0, 0x00, 0x00,
   0x00, 0x00, 0xf0, 0xff, 0x03, 0x00, 0x00, 0x04, 0x00, 0x00, 0x80, 0x08,
   0x00, 0x00, 0x00, 0x00, 0xc0, 0x00, 0x00, 0x01, 0x00, 0x00, 0x08, 0x00,
   0x00, 0x00, 0x04, 0x00, 0x00, 0x80, 0x08, 0x00, 0x00, 0x00, 0x00, 0xc0,
   0x00, 0x80, 0x00, 0x00, 0x00, 0x08, 0x00, 0x00, 0x00, 0x04, 0x00, 0x00,
   0x80, 0x08, 0x00, 0x00, 0x00, 0x00, 0xc0, 0x00, 0x80, 0x00, 0x00, 0x00,
   0x08, 0x00, 0x00, 0x00, 0x04, 0x00, 0x00, 0x80, 0x08, 0x00, 0x00, 0x00,
   0x00, 0xc0, 0x00, 0x40, 0x00, 0x00, 0x00, 0x08, 0x00, 0x00, 0x00, 0x04,
   0x00, 0x00, 0x80, 0x08, 0x00, 0x00, 0x00, 0x00, 0xc0, 0x00, 0x40, 0x00,
   0x00, 0x00, 0x08, 0x00, 0x00, 0x00, 0x04, 0x00, 0x00, 0x80, 0x08, 0x00,
   0x00, 0x00, 0x00, 0xc0, 0x00, 0x20, 0x00, 0x00, 0x00, 0x08, 0x00, 0x00,
   0x00, 0x04, 0x00, 0x00, 0x80, 0x08, 0x00, 0x00, 0xfc, 0x3f, 0xc0, 0x00,
   0x20, 0x00, 0x00, 0x00, 0x08, 0x00, 0x00, 0x00, 0x04, 0x00, 0x00, 0x80,
   0x08, 0x00, 0x00, 0x00, 0x20, 0xc0, 0x00, 0x10, 0x00, 0x00, 0x00, 0x08,
   0x00, 0x00, 0x00, 0x04, 0x00, 0x00, 0x80, 0x08, 0x00, 0x00, 0x00, 0x20,
   0xc0, 0x00, 0x10, 0x00, 0x00, 0x00, 0x08, 0x00, 0x00, 0x00, 0x04, 0x00,
   0x00, 0x80, 0x08, 0x00, 0x00, 0x00, 0x20, 0xc0, 0x00, 0x08, 0x00, 0x00,
   0x00, 0x08, 0x00, 0x00, 0x00, 0x04, 0x00, 0x00, 0x80, 0x08, 0x00, 0x00,
   0x00, 0x20, 0xc0, 0x00, 0x08, 0x00, 0x00, 0x00, 0x08, 0x00, 0x00, 0x00,
   0x04, 0x00, 0x00, 0x80, 0x08, 0x00, 0x00, 0x00, 0x20, 0xc0, 0x00, 0xfc,
   0x03, 0x00, 0x00, 0x08, 0x00, 0x00, 0x00, 0x04, 0x00, 0x00, 0x80, 0x08,
   0x00, 0x00, 0x00, 0x00, 0xc0, 0x00, 0x04, 0x00, 0x00, 0x00, 0x08, 0x00,
   0x00, 0xf8, 0xff, 0x01, 0x00, 0x80, 0x08, 0x00, 0x00, 0x00, 0x00, 0xc0,
   0x00, 0x00, 0x00, 0x00, 0x00, 0x00, 0x00, 0x00, 0x00, 0x00, 0x00, 0x00,
   0x80, 0x08, 0x00, 0x00, 0x00, 0x00, 0xc0, 0x00, 0x00, 0x00, 0x00, 0x00,
   0x00, 0x00, 0x00, 0x00, 0x00, 0x00, 0x00, 0x80, 0x08, 0x00, 0x00, 0x00,
   0x00, 0xc0, 0x00, 0x00, 0x00, 0x00, 0x00, 0x00, 0x00, 0x00, 0x00, 0x00,
   0x00, 0x00, 0x80, 0x08, 0x00, 0x00, 0x00, 0x00, 0xc0, 0x00, 0x00, 0x00,
   0x00, 0x00, 0x00, 0x00, 0x00, 0x00, 0x00, 0x00, 0x00, 0x80, 0x08, 0x00,
   0x00, 0x00, 0x00, 0xc0, 0x00, 0x00, 0x00, 0x00, 0x00, 0x00, 0x00, 0x00,
   0x00, 0x00, 0x00, 0x00, 0x80, 0x08, 0x00, 0x00, 0x00, 0x00, 0xc0, 0x00,
   0x00, 0x00, 0x00, 0x00, 0x00, 0x00, 0x00, 0x00, 0x00, 0x00, 0x00, 0x00,
   0x00, 0x00, 0x00, 0x00, 0x00, 0xc0, 0x00, 0x00, 0x00, 0x00, 0x00, 0x00,
   0x00, 0x00, 0x00, 0x00, 0x00, 0x00, 0x00, 0x00, 0x00, 0x00, 0x00, 0x00,
   0xc0, 0x00, 0x00, 0x00, 0x00, 0x00, 0x00, 0x00, 0x00, 0x00, 0x00, 0x00,
   0x00, 0x00, 0x00, 0x00, 0x00, 0x00, 0x00, 0xc0, 0x00, 0x00, 0x00, 0x00,
   0x00, 0x00, 0x00, 0x00, 0x00, 0x00, 0x00, 0x00, 0x00, 0x00, 0x00, 0x00,
   0x00, 0x00, 0xc0, 0x00, 0x00, 0x00, 0x00, 0x00, 0x00, 0x00, 0x00, 0x00,
   0x00, 0x00, 0x00, 0x00, 0x00, 0x00, 0x00, 0x00, 0x00, 0xc0, 0x00, 0x00,
   0x00, 0x00, 0x00, 0x00, 0x00, 0x00, 0x00, 0x00, 0x00, 0x00, 0x00, 0x00,
   0x00, 0x00, 0x00, 0x00, 0xc0, 0x00, 0x00, 0x00, 0x00, 0x00, 0x00, 0x00,
   0x00, 0x00, 0x00, 0x00, 0x00, 0x00, 0x00, 0x00, 0x00, 0x00, 0x00, 0xc0,
   0x00, 0x00, 0x00, 0x00, 0x00, 0x00, 0x00, 0x00, 0x00, 0x00, 0x00, 0x00,
   0x00, 0x00, 0x00, 0x00, 0x00, 0x00, 0xc0, 0x00, 0x00, 0x00, 0x00, 0x00,
   0x00, 0x00, 0x00, 0x00, 0x00, 0x00, 0x00, 0x00, 0x00, 0x00, 0x00, 0x00,
   0x00, 0xc0, 0x00, 0x00, 0x00, 0x00, 0x00, 0x00, 0x00, 0x00, 0x00, 0x00,
   0x00, 0x00, 0x00, 0x00, 0x00, 0x00, 0x00, 0x00, 0xc0, 0x00, 0x00, 0x00,
   0x00, 0x00, 0x00, 0x00, 0x00, 0x00, 0x00, 0x00, 0x00, 0x00, 0x00, 0x00,
   0x00, 0x00, 0x00, 0xc0, 0x00, 0x00, 0x00, 0x00, 0x00, 0x00, 0x00, 0x00,
   0x00, 0x00, 0x00, 0x00, 0x00, 0x00, 0x00, 0x00, 0x00, 0x00, 0xc0, 0x00,
   0x08, 0x00, 0x00, 0x00, 0x00, 0x00, 0x00, 0x00, 0x00, 0x00, 0x00, 0x00,
   0x00, 0x04, 0x00, 0x00, 0x00, 0xc0, 0x00, 0x08, 0x00, 0x00, 0x00, 0x01,
   0x00, 0x00, 0x00, 0x08, 0x00, 0x00, 0x00, 0x00, 0x04, 0x00, 0x00, 0x00,
   0xc0, 0x00, 0x08, 0x00, 0x00, 0x00, 0x01, 0x00, 0x00, 0x00, 0x09, 0x00,
   0x00, 0x00, 0x00, 0x02, 0x00, 0x00, 0x00, 0xc0, 0x00, 0x08, 0x00, 0x00,
   0x00, 0x01, 0x00, 0x00, 0x00, 0x09, 0x00, 0x00, 0x00, 0x00, 0x02, 0x00,
   0x00, 0x00, 0xc0, 0x00, 0x08, 0x00, 0x00, 0x00, 0x01, 0x00, 0x00, 0x00,
   0x09, 0x00, 0x00, 0x00, 0x00, 0x01, 0x00, 0x80, 0x00, 0xc0, 0x00, 0x08,
   0x00, 0x00, 0x00, 0x21, 0x00, 0x00, 0x00, 0x19, 0x00, 0x00, 0x00, 0x00,
   0x01, 0x00, 0x40, 0x01, 0xc0, 0x00, 0x08, 0x00, 0x00, 0x00, 0x3d, 0x00,
   0x00, 0x00, 0x1f, 0x00, 0x00, 0x00, 0x80, 0x00, 0x00, 0x40, 0x01, 0xc0,
   0x00, 0xe8, 0x00, 0x00, 0x00, 0x2f, 0x00, 0x00, 0x80, 0x0f, 0x00, 0x00,
   0x00, 0x80, 0x00, 0x00, 0x20, 0x02, 0xc0, 0x00, 0x98, 0x01, 0x00, 0x00,
   0x21, 0x00, 0x00, 0x80, 0x09, 0x00, 0x00, 0x00, 0x40, 0x00, 0x00, 0x20,
   0x02, 0xc0, 0x00, 0x88, 0x01, 0x00, 0x00, 0x21, 0x00, 0x00, 0x00, 0x09,
   0x00, 0x00, 0x00, 0x40, 0x00, 0x00, 0x10, 0x04, 0xc0, 0x00, 0x88, 0x01,
   0x00, 0x00, 0x21, 0x00, 0x00, 0x00, 0x09, 0x00, 0x00, 0x20, 0x20, 0x00,
   0x00, 0x10, 0x04, 0xc0, 0x00, 0x88, 0x00, 0x00, 0x00, 0x21, 0x00, 0x00,
   0x00, 0x09, 0x00, 0x00, 0x30, 0x20, 0x00, 0x00, 0x08, 0x08, 0xc0, 0x00,
   0x88, 0x00, 0x00, 0x00, 0x21, 0x00, 0x00, 0x00, 0x09, 0x00, 0x00, 0x68,
   0x10, 0x00, 0x00, 0x08, 0x08, 0xc0, 0x00, 0x48, 0x00, 0x00, 0x00, 0x21,
   0x00, 0x00, 0x00, 0x09, 0x00, 0x00, 0x60, 0x10, 0x00, 0x00, 0x04, 0x10,
   0xc0, 0x00, 0x28, 0x00, 0x00, 0x00, 0x21, 0x00, 0x00, 0x00, 0x19, 0x00,
   0x00, 0xc0, 0x10, 0x00, 0x00, 0x04, 0x10, 0xc0, 0x00, 0x18, 0x00, 0x00,
   0x00, 0x3d, 0x00, 0x00, 0x00, 0x1f, 0x00, 0x00, 0xc0, 0x08, 0x00, 0x00,
   0x02, 0x20, 0xc0, 0x00, 0x00, 0x00, 0x00, 0x00, 0x2f, 0x00, 0x00, 0x80,
   0x0b, 0x00, 0x00, 0x80, 0x08, 0x00, 0x00, 0x02, 0x20, 0xc0, 0x00, 0x00,
   0x00, 0x00, 0x00, 0x21, 0x00, 0x00, 0x80, 0x09, 0x00, 0x00, 0x80, 0x05,
   0x00, 0x00, 0x01, 0x40, 0xc0, 0x00, 0x00, 0x00, 0x00, 0x00, 0x20, 0x00,
   0x00, 0x00, 0x09, 0x00, 0x00, 0x00, 0x05, 0x00, 0x00, 0xff, 0x7f, 0xc0,
   0x00, 0x00, 0x00, 0x00, 0x00, 0x20, 0x00, 0x00, 0x00, 0x01, 0x00, 0x00,
   0x00, 0x03, 0x00, 0x00, 0x00, 0x00, 0xc0, 0x00, 0x00, 0x00, 0x00, 0x00,
   0x20, 0x00, 0x00, 0x00, 0x01, 0x00, 0x00, 0x00, 0x03, 0x00, 0x00, 0x00,
   0x00, 0xc0, 0x00, 0x00, 0x00, 0x00, 0x00, 0x00, 0x00, 0x00, 0x00, 0x00,
   0x00, 0x00, 0x00, 0x00, 0x00, 0x00, 0x00, 0x00, 0xc0, 0x00, 0x00, 0x00,
   0x00, 0x00, 0x00, 0x00, 0x00, 0x00, 0x00, 0x00, 0x00, 0x00, 0x00, 0x00,
   0x00, 0x00, 0x00, 0xc0, 0x00, 0x00, 0x00, 0x00, 0x00, 0x00, 0x00, 0x00,
   0x00, 0x00, 0x00, 0x00, 0x00, 0x00, 0x00, 0x00, 0x00, 0x00, 0xc0, 0x00,
   0x00, 0x00, 0x00, 0x00, 0x00, 0x00, 0x00, 0x00, 0x00, 0x00, 0x00, 0x00,
   0x00, 0x00, 0x00, 0x00, 0x00, 0xc0, 0x00, 0x00, 0x00, 0x00, 0x00, 0x00,
   0x00, 0x00, 0x00, 0x00, 0x00, 0x00, 0x00, 0x00, 0x00, 0x00, 0x00, 0x00,
   0xc0, 0x00, 0x00, 0x00, 0x00, 0x00, 0x00, 0x00, 0x00, 0x00, 0x00, 0x00,
   0x00, 0x00, 0x00, 0x00, 0x00, 0x00, 0x00, 0xc0, 0x00, 0x00, 0x00, 0x00,
   0x00, 0x00, 0x00, 0x00, 0x00, 0x00, 0x00, 0x00, 0x00, 0x00, 0x00, 0x00,
   0x00, 0x00, 0xc0, 0x00, 0x00, 0x00, 0x00, 0x00, 0x00, 0x00, 0x00, 0x00,
   0x00, 0x00, 0x00, 0x00, 0x00, 0x00, 0x00, 0x00, 0x00, 0xc0, 0x00, 0x00,
   0x00, 0x00, 0x00, 0x00, 0x00, 0x00, 0x00, 0x00, 0x00, 0x00, 0x00, 0x00,
   0x00, 0x00, 0x00, 0x00, 0xc0, 0x00, 0x00, 0x00, 0x00, 0x00, 0x00, 0x00,
   0x00, 0x00, 0x00, 0x00, 0x00, 0x00, 0x00, 0x00, 0x00, 0x00, 0x00, 0xc0,
   0x00, 0x00, 0x00, 0x00, 0x00, 0x00, 0x00, 0x00, 0x00, 0x00, 0x00, 0x00,
   0x00, 0x00, 0x00, 0x00, 0x00, 0x00, 0xc0, 0x00, 0x00, 0x00, 0x00, 0x00,
   0x00, 0x00, 0x00, 0x00, 0x00, 0x00, 0x00, 0x00, 0x00, 0x00, 0x00, 0x00,
   0x00, 0xc0, 0x00, 0x00, 0x00, 0x00, 0x00, 0x00, 0x00, 0x00, 0x00, 0x00,
   0x00, 0x00, 0x00, 0x00, 0x00, 0x00, 0x00, 0x00, 0xc0, 0x00, 0x40, 0x00,
   0x00, 0x00, 0x00, 0x00, 0x00, 0x00, 0x00, 0x00, 0x00, 0x00, 0x00, 0x00,
   0x00, 0x00, 0x00, 0xc0, 0x00, 0xa0, 0x00, 0x00, 0x00, 0x00, 0x00, 0x00,
   0x00, 0x00, 0x00, 0x00, 0x00, 0x00, 0x00, 0x00, 0x00, 0x00, 0xc0, 0x00,
   0xa0, 0x00, 0x00, 0xc0, 0xe1, 0x00, 0x00, 0x00, 0x0f, 0x00, 0x00, 0x00,
   0x02, 0x00, 0x00, 0x00, 0x00, 0xc0, 0x00, 0x10, 0x01, 0x00, 0x20, 0x12,
   0x01, 0x00, 0x80, 0x1f, 0x00, 0x00, 0x00, 0x07, 0x00, 0x00, 0x00, 0x00,
   0xc0, 0x00, 0x10, 0x01, 0x00, 0x10, 0x0c, 0x02, 0x00, 0x80, 0x1f, 0x00,
   0x00, 0x00, 0x07, 0x00, 0x00, 0x00, 0x00, 0xc0, 0x00, 0x08, 0x02, 0x00,
   0x10, 0x04, 0x02, 0x00, 0x80, 0x1f, 0x00, 0x00, 0x80, 0x0f, 0x00, 0x00,
   0x00, 0x00, 0xc0, 0x00, 0x04, 0x04, 0x00, 0x10, 0x00, 0x02, 0x00, 0x80,
   0x1f, 0x00, 0x00, 0xc0, 0x1f, 0x00, 0x00, 0x00, 0x00, 0xc0, 0x00, 0x02,
   0x08, 0x00, 0x10, 0x00, 0x02, 0x00, 0x80, 0x1f, 0x00, 0x00, 0xe0, 0x3f,
   0x00, 0x00, 0x00, 0x00, 0xc0, 0x00, 0x01, 0x10, 0x00, 0x10, 0x00, 0x02,
   0x00, 0x80, 0x1f, 0x00, 0x00, 0xf0, 0x7f, 0x00, 0x00, 0x00, 0x00, 0xc0,
   0x00, 0x01, 0x10, 0x00, 0x20, 0x00, 0x01, 0x00, 0x60, 0x6f, 0x00, 0x00,
   0xf0, 0x7f, 0x00, 0x00, 0x00, 0x00, 0xc0, 0x00, 0x02, 0x08, 0x00, 0x20,
   0x00, 0x01, 0x00, 0xf0, 0xff, 0x00, 0x00, 0xf8, 0xff, 0x00, 0x00, 0x00,
   0x00, 0xc0, 0x00, 0x04, 0x04, 0x00, 0x40, 0x80, 0x00, 0x00, 0xf8, 0xff,
   0x01, 0x00, 0xf8, 0xff, 0x00, 0x00, 0x00, 0x00, 0xc0, 0x00, 0x08, 0x02,
   0x00, 0x80, 0x40, 0x00, 0x00, 0xf8, 0xff, 0x01, 0x00, 0xf8, 0xff, 0x00,
   0x00, 0x00, 0x00, 0xc0, 0x00, 0x08, 0x01, 0x00, 0x00, 0x21, 0x00, 0x00,
   0xf8, 0xff, 0x01, 0x00, 0xf8, 0xff, 0x00, 0x00, 0x00, 0x00, 0xc0, 0x00,
   0x10, 0x01, 0x00, 0x00, 0x12, 0x00, 0x00, 0xf8, 0xff, 0x01, 0x00, 0xf8,
   0xff, 0x00, 0x00, 0x00, 0x00, 0xc0, 0x00, 0xa0, 0x00, 0x00, 0x00, 0x0c,
   0x00, 0x00, 0xf0, 0xff, 0x00, 0x00, 0xf0, 0x7f, 0x00, 0x00, 0x00, 0x00,
   0xc0, 0x00, 0xa0, 0x00, 0x00, 0x00, 0x0c, 0x00, 0x00, 0xe0, 0x72, 0x00,
   0x00, 0xf0, 0x7a, 0x00, 0x00, 0x00, 0x00, 0xc0, 0x00, 0x40, 0x00, 0x00,
   0x00, 0x00, 0x00, 0x00, 0x00, 0x06, 0x00, 0x00, 0x00, 0x02, 0x00, 0x00,
   0x00, 0x00, 0xc0, 0x00, 0x00, 0x00, 0x00, 0x00, 0x00, 0x00, 0x00, 0x00,
   0x06, 0x00, 0x00, 0x00, 0x02, 0x00, 0x00, 0x00, 0x00, 0xc0, 0x00, 0x00,
   0x00, 0x00, 0x00, 0x00, 0x00, 0x00, 0x00, 0x06, 0x00, 0x00, 0x00, 0x02,
   0x00, 0x00, 0x00, 0x00, 0xc0, 0x00, 0x00, 0x00, 0x00, 0x00, 0x00, 0x00,
   0x00, 0x00, 0x00, 0x00, 0x00, 0x00, 0x00, 0x00, 0x00, 0x00, 0x00, 0xc0,
   0x00, 0x00, 0x00, 0x00, 0x00, 0x00, 0x00, 0x00, 0x00, 0x00, 0x00, 0x00,
   0x00, 0x00, 0x00, 0x00, 0x00, 0x00, 0xc0};

#define misc2_width 90
#define misc2_height 64
static unsigned char const misc2_bits[] = {
   0x00, 0x00, 0x00, 0x00, 0x00, 0x00, 0x00, 0x00, 0x00, 0x00, 0x00, 0x00,
   0x00, 0x00, 0x00, 0x00, 0x00, 0x00, 0x00, 0x00, 0x00, 0x00, 0x00, 0x00,
   0x00, 0x00, 0x00, 0x00, 0x00, 0x00, 0x00, 0x00, 0x00, 0x00, 0x00, 0x00,
   0x00, 0x00, 0x00, 0x00, 0x00, 0x00, 0x00, 0x00, 0x00, 0x00, 0x00, 0x00,
   0x00, 0x00, 0x00, 0x00, 0x00, 0x00, 0x00, 0x00, 0x00, 0x00, 0x00, 0x00,
   0x00, 0x00, 0x00, 0x00, 0x00, 0x00, 0x00, 0x00, 0x00, 0x00, 0x00, 0x00,
   0x00, 0x00, 0x00, 0x00, 0x00, 0x00, 0x00, 0x00, 0x00, 0x00, 0x00, 0x00,
   0x00, 0x00, 0x00, 0x00, 0x00, 0x00, 0x00, 0x00, 0x00, 0x00, 0x00, 0x00,
   0x00, 0x00, 0x00, 0x00, 0x00, 0x00, 0x00, 0x00, 0x00, 0x00, 0x00, 0x00,
   0x00, 0x00, 0x00, 0x00, 0x00, 0x00, 0x00, 0x00, 0x00, 0x00, 0x00, 0x00,
   0x00, 0x3e, 0xf8, 0x00, 0x80, 0xff, 0x07, 0x00, 0x40, 0x3f, 0x00, 0x00,
   0x00, 0x28, 0x20, 0x00, 0x80, 0x42, 0x04, 0x00, 0xa0, 0xd0, 0x00, 0x00,
   0x00, 0x28, 0x20, 0x00, 0x80, 0x21, 0x02, 0x00, 0x50, 0x10, 0x01, 0x00,
   0x00, 0x48, 0x20, 0x00, 0x80, 0x20, 0x01, 0x00, 0x58, 0x20, 0x01, 0x00,
   0x00, 0x98, 0x20, 0x00, 0x00, 0x90, 0x00, 0x00, 0x48, 0x40, 0x02, 0x00,
   0x00, 0x28, 0x21, 0x00, 0x00, 0x90, 0x00, 0x00, 0x28, 0x40, 0x02, 0x00,
   0x00, 0x48, 0x22, 0x00, 0x00, 0x48, 0x00, 0x00, 0x28, 0x40, 0x02, 0x00,
   0x00, 0x88, 0x24, 0x00, 0x00, 0x24, 0x00, 0x00, 0x28, 0x40, 0x02, 0x00,
   0x00, 0x08, 0x29, 0x00, 0x00, 0x24, 0x00, 0x00, 0x28, 0x40, 0x02, 0x00,
   0x00, 0x08, 0x32, 0x00, 0x00, 0x12, 0x00, 0x00, 0x28, 0x40, 0x02, 0x00,
   0x00, 0x08, 0x24, 0x00, 0x00, 0x0a, 0x04, 0x00, 0x50, 0x40, 0x01, 0x00,
   0x00, 0x08, 0x28, 0x00, 0x00, 0x09, 0x06, 0x00, 0x50, 0xa0, 0x00, 0x00,
   0x00, 0x08, 0x28, 0x00, 0x80, 0x04, 0x05, 0x00, 0xe0, 0x51, 0x00, 0x00,
   0x00, 0x1e, 0xf8, 0x00, 0xc0, 0xff, 0x07, 0x00, 0x80, 0x3f, 0x00, 0x00,
   0x00, 0x00, 0x00, 0x00, 0x00, 0x00, 0x00, 0x00, 0x00, 0x11, 0x00, 0x00,
   0x00, 0x00, 0x00, 0x00, 0x00, 0x00, 0x00, 0x00, 0x00, 0x12, 0x02, 0x00,
   0x00, 0x00, 0x00, 0x00, 0x00, 0x00, 0x00, 0x00, 0x00, 0x14, 0x01, 0x00,
   0x00, 0x00, 0x00, 0x00, 0x00, 0x00, 0x00, 0x00, 0x00, 0xf8, 0x00, 0x00,
   0x00, 0x00, 0x00, 0x00, 0x00, 0x00, 0x00, 0x00, 0x00, 0x00, 0x00, 0x00,
   0x00, 0x00, 0x00, 0x00, 0x00, 0x00, 0x00, 0x00, 0x00, 0x00, 0x00, 0x00,
   0x00, 0x00, 0x00, 0x00, 0x00, 0x00, 0x00, 0x00, 0x00, 0x00, 0x00, 0x00,
   0x00, 0x00, 0x00, 0x00, 0x00, 0x00, 0x00, 0x00, 0x00, 0x00, 0x00, 0x00,
   0x00, 0x00, 0x00, 0x00, 0x00, 0x00, 0x00, 0x00, 0x00, 0x00, 0x00, 0x00,
   0x00, 0x00, 0x00, 0x00, 0x00, 0x00, 0x00, 0x00, 0x00, 0x00, 0x00, 0x00,
   0x00, 0x00, 0x00, 0x00, 0x00, 0x00, 0x00, 0x00, 0x00, 0x00, 0x00, 0x00,
   0x00, 0x00, 0x00, 0x00, 0x00, 0x00, 0x00, 0x00, 0x00, 0x00, 0x00, 0x00,
   0x00, 0x00, 0x00, 0x00, 0x00, 0x00, 0x00, 0x00, 0x00, 0x00, 0x00, 0x00,
   0x00, 0x00, 0x00, 0x00, 0x00, 0x00, 0x00, 0x00, 0x00, 0x00, 0x00, 0x00,
   0x00, 0x00, 0x00, 0x00, 0x00, 0x00, 0x00, 0x00, 0x00, 0x00, 0x00, 0x00,
   0x00, 0x00, 0x00, 0x00, 0x00, 0x00, 0x00, 0x00, 0x00, 0x00, 0x00, 0x00,
   0x00, 0x00, 0x00, 0x00, 0x00, 0x00, 0x00, 0x00, 0x00, 0x00, 0x00, 0x00,
   0x00, 0x00, 0x00, 0x00, 0x00, 0x00, 0x00, 0x00, 0x00, 0x00, 0x00, 0x00,
   0x00, 0x00, 0x00, 0x00, 0x00, 0x00, 0x00, 0x00, 0x00, 0x00, 0x00, 0x00,
   0x00, 0xfc, 0x1f, 0x00, 0x00, 0xfe, 0x07, 0x00, 0xf8, 0xf3, 0x07, 0x00,
   0x00, 0x48, 0x22, 0x00, 0x00, 0x09, 0x05, 0x00, 0x20, 0x21, 0x01, 0x00,
   0x00, 0x48, 0x24, 0x00, 0x80, 0x04, 0x06, 0x00, 0x20, 0x21, 0x01, 0x00,
   0x00, 0x48, 0x24, 0x00, 0x40, 0x04, 0x04, 0x00, 0x20, 0x21, 0x01, 0x00,
   0x00, 0x48, 0x24, 0x00, 0x40, 0x02, 0x00, 0x00, 0x20, 0x21, 0x01, 0x00,
   0x00, 0x48, 0x26, 0x00, 0x40, 0x02, 0x00, 0x00, 0x20, 0x21, 0x01, 0x00,
   0x00, 0x48, 0x1e, 0x00, 0x40, 0x02, 0x00, 0x00, 0x20, 0x3f, 0x01, 0x00,
   0x00, 0xc8, 0x03, 0x00, 0x40, 0x02, 0x00, 0x00, 0x20, 0x21, 0x01, 0x00,
   0x00, 0x48, 0x05, 0x00, 0x40, 0x02, 0x00, 0x00, 0x20, 0x21, 0x01, 0x00,
   0x00, 0x48, 0x0a, 0x00, 0x40, 0x02, 0x00, 0x00, 0x20, 0x21, 0x01, 0x00,
   0x00, 0x48, 0x12, 0x00, 0x80, 0x02, 0x00, 0x00, 0x20, 0x21, 0x01, 0x00,
   0x00, 0x48, 0x24, 0x00, 0x80, 0x04, 0x04, 0x00, 0x20, 0x21, 0x01, 0x00,
   0x00, 0x48, 0x48, 0x00, 0x00, 0x19, 0x02, 0x00, 0x20, 0x21, 0x01, 0x00,
   0x00, 0xfe, 0xf8, 0x00, 0x00, 0xfe, 0x01, 0x00, 0xf8, 0xf3, 0x07, 0x00,
   0x00, 0x00, 0x00, 0x00, 0x00, 0x00, 0x00, 0x00, 0x00, 0x00, 0x00, 0x00,
   0x00, 0x00, 0x00, 0x00, 0x00, 0x00, 0x00, 0x00, 0x00, 0x00, 0x00, 0x00,
   0x00, 0x00, 0x00, 0x00, 0x00, 0x00, 0x00, 0x00, 0x00, 0x00, 0x00, 0x00,
   0x00, 0x00, 0x00, 0x00, 0x00, 0x00, 0x00, 0x00, 0x00, 0x00, 0x00, 0x00,
   0x00, 0x00, 0x00, 0x00, 0x00, 0x00, 0x00, 0x00, 0x00, 0x00, 0x00, 0x00,
   0x00, 0x00, 0x00, 0x00, 0x00, 0x00, 0x00, 0x00, 0x00, 0x00, 0x00, 0x00,
   0x00, 0x00, 0x00, 0x00, 0x00, 0x00, 0x00, 0x00, 0x00, 0x00, 0x00, 0x00};

#define misc3_width 60
#define misc3_height 64
static unsigned char const misc3_bits[] = {
   0x00, 0x00, 0x00, 0x00, 0x00, 0x00, 0x00, 0x00, 0x00, 0x00, 0x00, 0x00,
   0x00, 0x00, 0x00, 0x00, 0x00, 0x00, 0x00, 0x00, 0x00, 0x00, 0x00, 0x00,
   0x00, 0x00, 0x00, 0x00, 0x00, 0x00, 0x00, 0x00, 0x00, 0x00, 0x00, 0x00,
   0x00, 0x00, 0x00, 0x00, 0x00, 0x00, 0x00, 0x00, 0x00, 0x00, 0x00, 0x00,
   0x00, 0x00, 0x00, 0x00, 0x00, 0x00, 0x00, 0x00, 0x00, 0x00, 0x00, 0x00,
   0x00, 0x00, 0x00, 0x00, 0x00, 0x00, 0x00, 0x00, 0x00, 0x00, 0x00, 0x00,
   0x00, 0xf0, 0x7f, 0x00, 0x00, 0xe0, 0x01, 0x00, 0x00, 0xc8, 0x20, 0x00,
   0x00, 0x10, 0x03, 0x00, 0x00, 0xc4, 0x00, 0x00, 0x00, 0x08, 0x03, 0x00,
   0x00, 0xc2, 0x00, 0x00, 0x00, 0x04, 0x00, 0x00, 0x00, 0x40, 0x00, 0x00,
   0x00, 0x04, 0x00, 0x00, 0x00, 0x60, 0x00, 0x00, 0x00, 0x04, 0x00, 0x00,
   0x00, 0x60, 0x00, 0x00, 0x00, 0x04, 0x00, 0x00, 0x00, 0xe0, 0x0f, 0x00,
   0x00, 0x06, 0x00, 0x00, 0x00, 0x30, 0x00, 0x00, 0x00, 0x02, 0x00, 0x00,
   0x00, 0x30, 0x00, 0x00, 0x00, 0x02, 0x00, 0x00, 0x00, 0x10, 0x00, 0x00,
   0x00, 0x02, 0x00, 0x00, 0x00, 0x18, 0x00, 0x00, 0x00, 0x03, 0x00, 0x00,
   0xc0, 0x08, 0x00, 0x00, 0x00, 0x01, 0x04, 0x00, 0x80, 0x0f, 0x00, 0x00,
   0x80, 0x0f, 0x02, 0x00, 0x00, 0x03, 0x00, 0x00, 0x40, 0xf0, 0x01, 0x00,
   0x00, 0x00, 0x00, 0x00, 0x00, 0x00, 0x00, 0x00, 0x00, 0x00, 0x00, 0x00,
   0x00, 0x00, 0x00, 0x00, 0x00, 0x00, 0x00, 0x00, 0x00, 0x00, 0x00, 0x00,
   0x00, 0x00, 0x00, 0x00, 0x00, 0x00, 0x00, 0x00, 0x00, 0x00, 0x00, 0x00,
   0x00, 0x00, 0x00, 0x00, 0x00, 0x00, 0x00, 0x00, 0x00, 0x00, 0x00, 0x00,
   0x00, 0x00, 0x00, 0x00, 0x00, 0x00, 0x00, 0x00, 0x00, 0x00, 0x00, 0x00,
   0x00, 0x00, 0x00, 0x00, 0x00, 0x00, 0x00, 0x00, 0x00, 0x00, 0x00, 0x00,
   0x00, 0x00, 0x00, 0x00, 0x00, 0x00, 0x00, 0x00, 0x00, 0x00, 0x00, 0x00,
   0x00, 0x00, 0x00, 0x00, 0x00, 0x00, 0x00, 0x00, 0x00, 0x00, 0x00, 0x00,
   0x00, 0x00, 0x00, 0x00, 0x00, 0x00, 0x00, 0x00, 0x00, 0x00, 0x00, 0x00,
   0x00, 0x00, 0x00, 0x00, 0x00, 0x00, 0x00, 0x00, 0x00, 0x00, 0x00, 0x00,
   0x00, 0x00, 0x00, 0x00, 0x00, 0x00, 0x00, 0x00, 0x00, 0x00, 0x00, 0x00,
   0x00, 0x00, 0x00, 0x00, 0x00, 0x3c, 0x40, 0x00, 0x00, 0x00, 0x00, 0x00,
   0x00, 0x32, 0x60, 0x00, 0x00, 0x88, 0x0f, 0x00, 0x00, 0x31, 0x20, 0x00,
   0x00, 0xc4, 0x1e, 0x00, 0x80, 0x10, 0x30, 0x00, 0x00, 0x62, 0x18, 0x00,
   0x00, 0x10, 0x10, 0x00, 0x00, 0x31, 0x18, 0x00, 0x00, 0x10, 0x18, 0x00,
   0x80, 0x18, 0x18, 0x00, 0x00, 0xf8, 0x1f, 0x00, 0x80, 0x01, 0x18, 0x00,
   0x00, 0x18, 0x08, 0x00, 0x80, 0x00, 0x18, 0x00, 0x00, 0x08, 0x08, 0x00,
   0xc0, 0x00, 0x08, 0x00, 0x00, 0x0c, 0x0c, 0x00, 0xc0, 0x00, 0x08, 0x00,
   0x00, 0x04, 0x04, 0x00, 0xc0, 0x00, 0x04, 0x00, 0x00, 0x04, 0x06, 0x00,
   0xc0, 0x01, 0x02, 0x00, 0x00, 0x02, 0x42, 0x00, 0x80, 0x01, 0x01, 0x00,
   0x00, 0x02, 0x22, 0x00, 0x80, 0x87, 0x00, 0x00, 0x00, 0x01, 0x1e, 0x00,
   0x00, 0x7e, 0x00, 0x00, 0x00, 0x00, 0x00, 0x00, 0x00, 0x00, 0x00, 0x00,
   0x00, 0x00, 0x00, 0x00, 0x00, 0x00, 0x00, 0x00, 0x00, 0x00, 0x00, 0x00,
   0x00, 0x00, 0x00, 0x00, 0x00, 0x00, 0x00, 0x00, 0x00, 0x00, 0x00, 0x00,
   0x00, 0x00, 0x00, 0x00, 0x00, 0x00, 0x00, 0x00, 0x00, 0x00, 0x00, 0x00,
   0x00, 0x00, 0x00, 0x00, 0x00, 0x00, 0x00, 0x00, 0x00, 0x00, 0x00, 0x00,
   0x00, 0x00, 0x00, 0x00, 0x00, 0x00, 0x00, 0x00};


#define misc4_width 150
#define misc4_height 30
static unsigned char const misc4_bits[] = {
   0x00, 0x00, 0x00, 0x00, 0x00, 0x00, 0x00, 0x00, 0x00, 0x00, 0x00, 0x00,
   0x00, 0x00, 0x00, 0x00, 0x00, 0x00, 0x00, 0x00, 0x00, 0x00, 0x00, 0x00,
   0x00, 0x00, 0x00, 0x00, 0x00, 0x00, 0x00, 0x00, 0x00, 0x00, 0x00, 0x00,
   0x00, 0x00, 0x00, 0x00, 0x00, 0x00, 0x00, 0x00, 0x00, 0x00, 0x00, 0x00,
   0x00, 0x00, 0x00, 0x00, 0x00, 0x00, 0x00, 0x00, 0x00, 0x00, 0x00, 0x00,
   0x00, 0x00, 0x00, 0x00, 0x00, 0x00, 0x00, 0x00, 0x00, 0x00, 0x00, 0x00,
   0x00, 0x00, 0x00, 0x00, 0x00, 0x80, 0x03, 0x00, 0x00, 0x00, 0x00, 0x00,
   0x00, 0x00, 0x00, 0x00, 0x00, 0x00, 0x00, 0x00, 0x00, 0x00, 0x00, 0x00,
   0x40, 0x04, 0x00, 0x00, 0x00, 0x00, 0x00, 0x00, 0x40, 0x00, 0x00, 0x00,
   0x00, 0x00, 0x00, 0x00, 0x00, 0x00, 0x00, 0x40, 0x04, 0x00, 0x00, 0x00,
   0x00, 0x00, 0x00, 0xb0, 0x01, 0x00, 0x00, 0x00, 0x00, 0x00, 0x00, 0x00,
   0x00, 0x00, 0x40, 0x04, 0x00, 0x00, 0x00, 0x00, 0x00, 0x00, 0x0c, 0x02,
   0x00, 0x00, 0x00, 0x00, 0x00, 0x00, 0x00, 0x00, 0x00, 0x40, 0x04, 0x00,
   0x00, 0x60, 0x08, 0x00, 0x00, 0x03, 0x0c, 0x00, 0x00, 0x00, 0x00, 0x00,
   0x00, 0x00, 0x00, 0x00, 0x80, 0x03, 0x00, 0x00, 0x98, 0x05, 0x00, 0x80,
   0x00, 0x10, 0x00, 0x00, 0x00, 0x00, 0x00, 0xe0, 0xff, 0x03, 0x00, 0x00,
   0x03, 0x00, 0x00, 0x0c, 0x02, 0x00, 0x00, 0x00, 0x00, 0x00, 0x00, 0x00,
   0x00, 0x00, 0xe0, 0xff, 0x03, 0x00, 0x80, 0x03, 0x00, 0x00, 0x06, 0x05,
   0x00, 0x00, 0x00, 0x00, 0x00, 0x00, 0x00, 0x00, 0x00, 0x20, 0x08, 0x02,
   0x00, 0x80, 0x06, 0x00, 0x00, 0x03, 0x05, 0x00, 0x00, 0x00, 0x00, 0x00,
   0x00, 0x00, 0x00, 0x00, 0x00, 0x08, 0x00, 0x00, 0x40, 0x06, 0x00, 0x00,
   0x83, 0x08, 0x00, 0x00, 0x00, 0x00, 0x00, 0x00, 0x00, 0x00, 0x00, 0x00,
   0x08, 0x00, 0x00, 0x40, 0x0c, 0x00, 0x80, 0x41, 0x08, 0x00, 0x00, 0x00,
   0x00, 0x00, 0x00, 0x00, 0x00, 0x00, 0x00, 0x08, 0x00, 0x00, 0x40, 0x0c,
   0x00, 0x80, 0x41, 0x08, 0x00, 0x00, 0x00, 0x00, 0x00, 0x00, 0x00, 0x00,
   0x00, 0x00, 0x08, 0x00, 0x00, 0x20, 0x0c, 0x00, 0x80, 0x21, 0x08, 0x00,
   0x00, 0x00, 0x00, 0x00, 0x00, 0x00, 0x00, 0x00, 0x00, 0x08, 0x00, 0x00,
   0x20, 0x18, 0x00, 0x80, 0x11, 0x08, 0x00, 0x00, 0x00, 0x00, 0x00, 0x00,
   0x00, 0x00, 0x00, 0x00, 0x08, 0x00, 0x00, 0xe0, 0x1f, 0x00, 0x00, 0x11,
   0x08, 0x00, 0x00, 0x00, 0x00, 0x00, 0x00, 0x00, 0x00, 0x00, 0x00, 0x08,
   0x00, 0x00, 0x20, 0x18, 0x00, 0x00, 0x0b, 0x08, 0x00, 0x00, 0x00, 0x00,
   0x00, 0x00, 0x00, 0x00, 0x00, 0x00, 0x08, 0x00, 0x00, 0x10, 0x30, 0x00,
   0x00, 0x06, 0x0c, 0x00, 0x00, 0x00, 0x00, 0x00, 0x00, 0x00, 0x00, 0x00,
   0x00, 0x08, 0x00, 0x00, 0x10, 0x30, 0x00, 0x00, 0x06, 0x06, 0x00, 0x00,
   0x00, 0x00, 0x00, 0x00, 0x00, 0x00, 0x00, 0x00, 0x3e, 0x00, 0x00, 0x38,
   0x78, 0x00, 0x00, 0x0a, 0x03, 0x00, 0x00, 0x00, 0x00, 0x00, 0x00, 0x00,
   0x00, 0x00, 0x00, 0x3e, 0x00, 0x00, 0x00, 0x00, 0x00, 0x00, 0xf1, 0x01,
   0x00, 0x00, 0x00, 0x00, 0x00, 0x00, 0x00, 0x00, 0x00, 0x00, 0x00, 0x00,
   0x00, 0x00, 0x00, 0x00, 0x00, 0x00, 0x00, 0x00, 0x00, 0x00, 0x00, 0x00,
   0xf0, 0xff, 0x03, 0x00, 0x00, 0x00, 0x00, 0x00, 0x00, 0x00, 0x00, 0x00,
   0x00, 0x00, 0x00, 0x00, 0x00, 0x00, 0x00, 0x00, 0x00, 0x00, 0x00, 0x00,
   0x00, 0x00, 0x00, 0x00, 0x00, 0x00, 0x00, 0x00, 0x00, 0x00, 0x00, 0x00,
   0x00, 0x00, 0x00, 0x00, 0x00, 0x00, 0x00, 0x00, 0x00, 0x00, 0x00, 0x00,
   0x00, 0x00, 0x00, 0x00, 0x00, 0x00, 0x00, 0x00, 0x00, 0x00, 0x00, 0x00,
   0x00, 0x00, 0x00, 0x00, 0x00, 0x00, 0x00, 0x00, 0x00, 0x00, 0x00, 0x00,
   0x00, 0x00, 0x00, 0x00, 0x00, 0x00, 0x00, 0x00, 0x00, 0x00, 0x00, 0x00,
   0x00, 0x00, 0x00, 0x00, 0x00, 0x00, 0x00, 0x00, 0x00, 0x00, 0x00, 0x00,
   0x00, 0x00, 0x00, 0x00, 0x00, 0x00};
