/* XPM */
static char *a[] = {
/* columns rows colors chars-per-pixel */
"15 21 3 1",
"  c black",
". c black",
"X c None",
/* pixels */
".XXXXXXXXXXXXXX",
".XXXXXXXXXXXXXX",
".XXXXXXXXXXXXXX",
".XXXXXXXXXXXXXX",
".XXXXXXXXXXXXXX",
".XXXXXXXXXXXXXX",
".XXXXXXXXXXXXXX",
".XXXXXXXXXXXXXX",
".X.............",
".XXXXXXXXXXXXXX",
".XXXXXXXXXXXXXX",
".XXXXXXXXXXXXXX",
".X.............",
".XXXXXXXXXXXXXX",
".XXXXXXXXXXXXXX",
".XXXXXXXXXXXXXX",
".XXXXXXXXXXXXXX",
".XXXXXXXXXXXXXX",
".XXXXXXXXXXXXXX",
".XXXXXXXXXXXXXX",
".XXXXXXXXXXXXXX"
};
