/* XPM */
static char *a[] = {
/* columns rows colors chars-per-pixel */
"14 15 3 1",
"  c black",
". c black",
"X c None",
/* pixels */
"..............",
"XXXXXXX.XXXXXX",
"XXXXXXX.XXXXXX",
"XXXXXXX.XXXXXX",
"XXXXXXX.XXXXXX",
"XXXXXXX.XXXXXX",
"XXXXXXX.XXXXXX",
"..............",
"XXXXXXX.XXXXXX",
"XXXXXXX.XXXXXX",
"XXXXXXX.XXXXXX",
"XXXXXXX.XXXXXX",
"XXXXXXX.XXXXXX",
"XXXXXXX.XXXXXX",
"XXXXXXX.XXXXXX"
};
