/* XPM */
static char *a[] = {
/* columns rows colors chars-per-pixel */
"15 14 3 1",
"  c black",
". c #5972ff",
"X c None",
/* pixels */
"...............",
"X..XXXXXXXXXX.X",
"X..XXXXXXXXXX.X",
"XX..XXXXXXXX.XX",
"XX..XXXXXXXX.XX",
"XXX..XXXXXX.XXX",
"XXX..XXXXXX.XXX",
"XXXX..XXXX.XXXX",
"XXXX..XXXX.XXXX",
"XXXXX..XX.XXXXX",
"XXXXX..XX.XXXXX",
"XXXXXX...XXXXXX",
"XXXXXX...XXXXXX",
"XXXXXXX.XXXXXXX"
};
