/* XPM */
static char *nearrow[] = {
/* columns rows colors chars-per-pixel */
"16 19 3 1",
"  c black",
". c gray100",
"X c None",
/* pixels */
"XXXXXXXXXXXXXXXX",
"XXXXXXXXXXXXXXXX",
"XXXXXXXXXXXXXXXX",
"XXXXXXXXXXXXXXXX",
"XXXXXXXXXXX    X",
"XXXXXXXXXXXXX  X",
"XXXXXXXXXXXX X X",
"XXXXXXXXXXX XX X",
"XXXXXXXXXX XXXXX",
"XXXXXXXXX XXXXXX",
"XXXXXXXX XXXXXXX",
"XXXXXXX XXXXXXXX",
"XXXXXX XXXXXXXXX",
"XXXXX XXXXXXXXXX",
"XXXX XXXXXXXXXXX",
"XXX XXXXXXXXXXXX",
"XX XXXXXXXXXXXXX",
"X XXXXXXXXXXXXXX",
"XXXXXXXXXXXXXXXX"
};
