/* XPM */
static char *a[] = {
/* columns rows colors chars-per-pixel */
"12 6 3 1",
"  c black",
". c black",
"X c None",
/* pixels */
"............",
"XXXXXXXXXXX.",
"XXXXXXXXXXX.",
"XXXXXXXXXXX.",
"XXXXXXXXXXX.",
"XXXXXXXXXXX."
};
