/* XPM */
static char *a[] = {
/* columns rows colors chars-per-pixel */
"13 20 3 1",
"  c black",
". c #5972ff",
"X c None",
/* pixels */
"XXXXXXXXXX.XX",
"XXXXXXXXXX.XX",
"XXXXXXXXX.XXX",
"XXXXXXXXX.XXX",
"XXXXXXXX.XXXX",
"XXXXXXXX.XXXX",
"XXXXXXX.XXXXX",
".............",
"XXXXXX.XXXXXX",
"XXXXXX.XXXXXX",
"XXXXX.XXXXXXX",
".............",
"XXXX.XXXXXXXX",
"XXXX.XXXXXXXX",
"XXX.XXXXXXXXX",
"XXX.XXXXXXXXX",
"XX.XXXXXXXXXX",
"XX.XXXXXXXXXX",
"X.XXXXXXXXXXX",
"X.XXXXXXXXXXX"
};
