/* XPM */
static char *ngeqq[] = {
/* columns rows colors chars-per-pixel */
"11 19 3 1",
"  c black",
". c gray100",
"X c None",
/* pixels */
"XXXXXXXXXXX",
"XXXXXXXX XX",
"XXXXXXXX XX",
"X  XXXX XXX",
"XXX  XX XXX",
"XXXXX   XXX",
"XXXXXX   XX",
"XXXXXX XX X",
"XXXXXX   XX",
"XXXXX  XXXX",
"XXX   XXXXX",
"X  X XXXXXX",
"XXXX XXXXXX",
"XXXX XXXXXX",
"X         X",
"XXX XXXXXXX",
"XXX XXXXXXX",
"X         X",
"XX XXXXXXXX"
};
