/* XPM */
static char *nleftrightarrow2[] = {
/* columns rows colors chars-per-pixel */
"15 19 3 1",
"  c black",
". c gray100",
"X c None",
/* pixels */
"XXXXXXXXXXXXXXX",
"XXXXXXXXXXXXXXX",
"XXXXXXXXXXXXXXX",
"XXXXXXXXXXXXXXX",
"XXXXXXXXXXXXXXX",
"XXXXXXXXXXXXXXX",
"XXXXXXXXXXXXXXX",
"XXXX XXX X XXXX",
"XXX XXXX XX XXX",
"XX           XX",
"X XXXXX XXXXX X",
"X XXXXX XXXXX X",
"XX           XX",
"XXX XX XXXX XXX",
"XXXX X XXX XXXX",
"XXXXXXXXXXXXXXX",
"XXXXXXXXXXXXXXX",
"XXXXXXXXXXXXXXX",
"XXXXXXXXXXXXXXX"
};
