/* XPM */
static char *nparallel[] = {
/* columns rows colors chars-per-pixel */
"9 19 3 1",
"  c black",
". c gray100",
"X c None",
/* pixels */
"XXXXXXXXX",
"XXXXXXXXX",
"XXXXXXXXX",
"XXX X XXX",
"XXX X XXX",
"XXX X XXX",
"XXX X XXX",
"XXX X XXX",
"XXX X X X",
"XXX X  XX",
"XXX X XXX",
"XXX   XXX",
"XXX X XXX",
"XX  X XXX",
"X X X XXX",
"XXX X XXX",
"XXX X XXX",
"XXX X XXX",
"XXX X XXX"
};
