/* XPM */
static char *nrightarrow2[] = {
/* columns rows colors chars-per-pixel */
"15 19 3 1",
"  c black",
". c gray100",
"X c None",
/* pixels */
"XXXXXXXXXXXXXXX",
"XXXXXXXXXXXXXXX",
"XXXXXXXXXXXXXXX",
"XXXXXXXXXXXXXXX",
"XXXXXXXXXXXXXXX",
"XXXXXXXXXXXXXXX",
"XXXXXXXXXXXXXXX",
"XXXXXXXX X XXXX",
"XXXXXXXX XX XXX",
"X            XX",
"XXXXXXX XXXXX X",
"XXXXXX XXXXXX X",
"X            XX",
"XXXXX XXXXX XXX",
"XXXXX XXXX XXXX",
"XXXXXXXXXXXXXXX",
"XXXXXXXXXXXXXXX",
"XXXXXXXXXXXXXXX",
"XXXXXXXXXXXXXXX"
};
