/* XPM */
static char *a[] = {
/* columns rows colors chars-per-pixel */
"17 26 3 1",
"  c black",
". c #5972ff",
"X c None",
/* pixels */
"XXXXXXXXXXXXXXX.X",
"XXXXXXXXXXXXXX.XX",
"XXXXXXXXXXXXXX.XX",
"XXXXXXXXXXXXX.XXX",
"XXXXXXXXXXXXX.XXX",
"XXXXXXXXXXXX.XXX.",
"XXXXXXXXXXXX.X...",
"XXXXXXXXXXX...XX.",
"XXXXXXXXXX..XXXX.",
"XXXXXXXX...XXXXX.",
"XXXXXX..XX.XXXXX.",
"XXXX..XXX.XXXXXX.",
"XX..XXXXX.XXXXXX.",
"X.XXXXXX.XXXXXXX.",
"XX..XXXX.XXXXXXX.",
"XXXX..X.XXXXXXXX.",
"XXXXXX..XXXXXXXX.",
"XXXXXX.X..XXXXXX.",
"XXXXXX.XXX..XXXX.",
"XXXXX.XXXXXX..XX.",
"XXXXX.XXXXXXXX...",
"XXXX.XXXXXXXXXXX.",
"XXXX.XXXXXXXXXXXX",
".................",
"XXX.XXXXXXXXXXXXX",
"XX.XXXXXXXXXXXXXX"
};
