/* XPM */
static char *a[] = {
/* columns rows colors chars-per-pixel */
"17 33 3 1",
"  c black",
". c black",
"X c None",
/* pixels */
"XXXXXXXXXXXXX.XXX",
"XXXXXXXXXXXXX.XXX",
"XXXXXXXXXXXX.XXXX",
"XXXXXXXXXXXX.XXXX",
"XXXXXXXXXXXX.XXXX",
".XXXXXXXXXX.XXXXX",
"...XXXXXXXX.XXXXX",
".XX..XXXXXX.XXXXX",
".XXXX..XXXX.XXXXX",
".XXXXXX..X.XXXXXX",
".XXXXXXXX..XXXXXX",
".XXXXXXXXX...XXXX",
".XXXXXXXX.XXX..XX",
".XXXXXXXX.XXXXX..",
".XXXXXXXX.XXXX..X",
".XXXXXXX.XXX..XXX",
".XXXXXXX.X..XXXXX",
".XXXXXXX..XXXXXXX",
".XXXXX..XXXXXXXXX",
".XXX..X.XXXXXXXXX",
"....XXX.XXXXXXXXX",
".XXXXX.XXXXXXXXXX",
"XXXXXX.XXXXXXXXXX",
"XXXXXX.XXXXXXXXXX",
"XXXXXX.XXXXXXXXXX",
"XXXXX.XXXXXXXXXXX",
"XXXXX.XXXXXXXXXXX",
".................",
"XXXX.XXXXXXXXXXXX",
"XXXX.XXXXXXXXXXXX",
"XXX..XXXXXXXXXXXX",
"XXX.XXXXXXXXXXXXX",
"XXX.XXXXXXXXXXXXX"
};
