/* XPM */
static char *a[] = {
/* columns rows colors chars-per-pixel */
"10 11 3 1",
"  c black",
". c #5972ff",
"X c None",
/* pixels */
"XXX.XXXXX.",
"...XXXXX..",
"XX.XXXXX..",
"XX.XXXXX.X",
"X..XXXX..X",
"X..XXXX.XX",
"X.XXXX.XXX",
"X.XXX.XXXX",
"X.XX.XXXXX",
"..X.XXXXXX",
"...XXXXXXX"
};
