/* XPM */
static char *a[] = {
/* columns rows colors chars-per-pixel */
"19 20 3 1",
"  c black",
". c #5972ff",
"X c None",
/* pixels */
"XXXX.XXXXXXXXXXXX.X",
"XXXX.XXXXXXXXXXX.XX",
"XXXX.XXXXXXXXXX.XXX",
"XXXX.XXXXXXXXX.XXXX",
"XXXX.XXXXXXXX.XXXXX",
"XXXX.XXXXXXXX.XXXXX",
"XXXX.XXXXXXX.XXXXXX",
"XXXX.XXXXXX.XXXXXXX",
"XXXX.XXXXX.XXXXXXXX",
"XXXX...............",
"XXXX.XXX.XXXXXXXXXX",
"XXXX.XX.XXXXXXXXXXX",
"XXXX.X.XXXXXXXXXXXX",
"XXXX..XXXXXXXXXXXXX",
"XXXX.XXXXXXXXXXXXXX",
"XXXX.XXXXXXXXXXXXXX",
"XXX..XXXXXXXXXXXXXX",
"XX.X.XXXXXXXXXXXXXX",
"X.XX.XXXXXXXXXXXXXX",
".XXX.XXXXXXXXXXXXXX"
};
