/* XPM */
static char *a[] = {
/* columns rows colors chars-per-pixel */
"20 20 3 1",
"  c black",
". c black",
"X c None",
/* pixels */
"XXX.XXXX.XXXXXXXXXX.",
"XXX.XXXX.XXXXXXXXX.X",
"XXX.XXXX.XXXXXXXX.XX",
"XXX.XXXX.XXXXXXX.XXX",
"XXX.XXXX.XXXXXX.XXXX",
"XXX.XXXX.XXXXX.XXXXX",
"XXX.XXXX............",
"XXX.XXXX.XXX.XXXXXXX",
"XXX.XXXX.XX.XXXXXXXX",
"XXX.XXXX.X.XXXXXXXXX",
"XXX.XXXX..XXXXXXXXXX",
"XXX.XXXX.XXXXXXXXXXX",
"XXX.XXX.............",
"XXX.XX.X.XXXXXXXXXXX",
"XXX.X.XX.XXXXXXXXXXX",
"XXX..XXX.XXXXXXXXXXX",
"XXX.XXXX.XXXXXXXXXXX",
"XX..XXXX.XXXXXXXXXXX",
"X.X.XXXX.XXXXXXXXXXX",
".XX.XXXX.XXXXXXXXXXX"
};
