/* XPM */
static char * nwarrow_xpm[] = {
"36 37 2 1",
"+	c None",
".	c #5972ff",
"++++++++++++++++++++++++++++++++++++",
"++++++++++++++++++++++++++++++++++++",
"++++++++++++++++++++++++++++++++++++",
"++++++++++++++++++++++++++++++++++++",
"++++++++++++++++++++++++++++++++++++",
"++++++++++++++++++++++++++++++++++++",
"++++++++++++++++++++++++++++++++++++",
"++++++++++++++++++++++++++++++++++++",
"++++++++++++++++++++++++++++++++++++",
"++++++++++++++++++++++++++++++++++++",
"++++++++++++++++++++++++++++++++++++",
"++++++++.......+++++++++++++++++++++",
"++++++++......++++++++++++++++++++++",
"++++++++....++++++++++++++++++++++++",
"++++++++.....+++++++++++++++++++++++",
"++++++++...+..++++++++++++++++++++++",
"++++++++...++..+++++++++++++++++++++",
"++++++++..++++..++++++++++++++++++++",
"++++++++.++++++..+++++++++++++++++++",
"++++++++++++++++..++++++++++++++++++",
"+++++++++++++++++..+++++++++++++++++",
"++++++++++++++++++..++++++++++++++++",
"+++++++++++++++++++..+++++++++++++++",
"++++++++++++++++++++..++++++++++++++",
"+++++++++++++++++++++..+++++++++++++",
"++++++++++++++++++++++..++++++++++++",
"+++++++++++++++++++++++..+++++++++++",
"++++++++++++++++++++++++..++++++++++",
"+++++++++++++++++++++++++..+++++++++",
"++++++++++++++++++++++++++..++++++++",
"+++++++++++++++++++++++++++..+++++++",
"++++++++++++++++++++++++++++++++++++",
"++++++++++++++++++++++++++++++++++++",
"++++++++++++++++++++++++++++++++++++",
"++++++++++++++++++++++++++++++++++++",
"++++++++++++++++++++++++++++++++++++",
"++++++++++++++++++++++++++++++++++++"};
