/* XPM */
static char *ointop[] = {
/* columns rows colors chars-per-pixel */
"14 19 3 1",
"  c black",
". c gray100",
"X c None",
/* pixels */
"XXXXXXXXX X X ",
"XXXXXXXXXXXXXX",
"XXXXX  XX XXX ",
"XXXX XXXXXXXXX",
"XXXX XXXX X X ",
"XXXX XXXXXXXXX",
"XXXX XXXXXXXXX",
"XXX   XXXXXXXX",
"XX X X XXXXXXX",
"X XX XX XXXXXX",
"X XX XX XXXXXX",
"X XX XX XXXXXX",
"XX X X XXXXXXX",
"XXX   XXXXXXXX",
"XXXX XXXXXXXXX",
"XXXX XXXXXXXXX",
"XXXX XXXXXXXXX",
"XXXX XXXXXXXXX",
"XX  XXXXXXXXXX"
};
