/* XPM */
static char *a[] = {
/* columns rows colors chars-per-pixel */
"16 26 3 1",
"  c #000000",
". c #000000",
"X c None",
/* pixels */
"XXXXXXXXXX...XXX",
"XXXXXXXXX.....XX",
"XXXXXXXX..XXX.XX",
"XXXXXXXX..XX..XX",
"XXXXXXXX..XXXXXX",
"XXXXXXX..XXXXXXX",
"XXXXXXX..XXXXXXX",
"XXXXXXX..XXXXXXX",
"XXXXXXX..XXXXXXX",
"XXXXX.....XXXXXX",
"XXX...X....XXXXX",
"XX.XXXX..XX.XXXX",
"X...XXX..XX.XXXX",
".X.X.X..XXX.XXXX",
"XX.XXX..XXX.XXXX",
"XXX.....X..XXXXX",
"XXXXX....XXXXXXX",
"XXXXXX..XXXXXXXX",
"XXXXXX..XXXXXXXX",
"XXXXXX..XXXXXXXX",
"XXXXXX..XXXXXXXX",
"XXXXX..XX.X.X.X.",
"X..XX..XXXXXXXXX",
"X.XXX..XX.XXXXX.",
"X.....XXXXXXXXXX",
"XX...XXXX.X.X.X."
};
