/* XPM */
static char *a[] = {
/* columns rows colors chars-per-pixel */
"14 14 3 1",
"  c black",
". c black",
"X c None",
/* pixels */
"XXXX......XXXX",
"XXX..XXXX..XXX",
"XX.XXXXXXXX.XX",
"X.XXXXXXXX.X.X",
"..XXXXXXX.XX..",
".XXXXXXX.XXXX.",
".XXXXXX.XXXXX.",
".XXXXX.XXXXXX.",
".XXXX.XXXXXXX.",
"..XX.XXXXXXX..",
"X.X.XXXXXXXX.X",
"XX.XXXXXXXX.XX",
"XXX..XXXX..XXX",
"XXXX......XXXX"
};
