/* XPM */
static char *a[] = {
/* columns rows colors chars-per-pixel */
"27 20 3 1",
"  c black",
". c #5972ff",
"X c None",
/* pixels */
"XXXX.XXXXXXXXXXXXXXXXXXXXXX",
"XXX.XXXXXXXXXXXXXXXXXXXXXXX",
"XXX.XXXXXXXXXXXXXXXXXXXXXXX",
"X..XXXXXXXXXXXXXXXXXXXXXXXX",
"...........................",
"X..XXXXXXXXXXXXXXXXXXXXXXXX",
"XXX.XXXXXXXXXXXXXXXXXXXXXXX",
"XXX.XXXXXXXXXXXXXXXXXXXXXXX",
"XXXX.XXXXXXXXXXXXXXXXXXXXXX",
"XXXXXXXX.X.X.X.X.X.XXXXXXXX",
"XXXXXXXXXXXXXXXXXXXXXXXXXXX",
"XXXXXXXX.XXXXXXXXX.XXXXXXXX",
"XXXXXXXXXXXXXXXXXXXXXXXXXXX",
"XXXXXXXX.XXXXXXXXX.XXXXXXXX",
"XXXXXXXXXXXXXXXXXXXXXXXXXXX",
"XXXXXXXX.XXXXXXXXX.XXXXXXXX",
"XXXXXXXXXXXXXXXXXXXXXXXXXXX",
"XXXXXXXX.XXXXXXXXX.XXXXXXXX",
"XXXXXXXXXXXXXXXXXXXXXXXXXXX",
"XXXXXXXX.X.X.X.X.X.XXXXXXXX"
};
