/* XPM */
static char *phantom[] = {
/* columns rows colors chars-per-pixel */
"13 19 3 1",
"  c red",
". c black",
"X c None",
/* pixels */
"XXXXXXXXXXXXX",
"XXXXXXXXXXXXX",
".X.X.X.X.X.X.",
"XXXXXX XXXXXX",
".XXXX   XXXX.",
"XXXX X X XXXX",
".XXXXX XXXXX.",
"XXX XX XX XXX",
".X XXX XXX X.",
"X           X",
".X XXX XXX X.",
"XXX XX XX XXX",
".XXXXX XXXXX.",
"XXXX X X XXXX",
".XXXX   XXXX.",
"XXXXXX XXXXXX",
".X.X.X.X.X.X.",
"XXXXXXXXXXXXX",
"XXXXXXXXXXXXX"
};
