/* XPM */
static char *a[] = {
/* columns rows colors chars-per-pixel */
"11 21 3 1",
"  c black",
". c #5972ff",
"X c None",
/* pixels */
"XXXXXXX.XXX",
"XXXXXXX.XXX",
"XXXXXXX.XXX",
"XXXXXXX.XXX",
"XXXXXX.XXXX",
"XXXXXX.XXXX",
"XXXX.....XX",
"XX..XX.XX.X",
"X.XXX.XXXX.",
"X.XXX.XXXX.",
"..XXX.XXX..",
".XXXX.XXX..",
".XXX.XXXX.X",
".XXX.XXX..X",
"X.XX.XX..XX",
"X..X.X..XXX",
"XXX...XXXXX",
"XXX.XXXXXXX",
"XXX.XXXXXXX",
"XXX.XXXXXXX",
"XXX.XXXXXXX"
};
