/* XPM */
static char *a[] = {
/* columns rows colors chars-per-pixel */
"15 16 3 1",
"  c black",
". c #5972ff",
"X c None",
/* pixels */
"...............",
"XX..XXXXXXX..XX",
"XX..XXXXXXX..XX",
"XX..XXXXXXX..XX",
"XX..XXXXXXX..XX",
"XX..XXXXXXX..XX",
"XX..XXXXXXX..XX",
"XX..XXXXXXX..XX",
"XX..XXXXXXX..XX",
"XX..XXXXXXX..XX",
"XX..XXXXXXX..XX",
"XX..XXXXXXX..XX",
"XX..XXXXXXX..XX",
"XX..XXXXXXX..XX",
"XX..XXXXXXX..XX",
"......XXX......"
};
