/* XPM */
static char *preccurlyeq[] = {
/* columns rows colors chars-per-pixel */
"11 19 3 1",
"  c black",
". c gray100",
"X c None",
/* pixels */
"XXXXXXXXXXX",
"XXXXXXXXXXX",
"XXXXXXXXXXX",
"XXXXXXXXXXX",
"XXXXXXXXXXX",
"XXXXXXXXXXX",
"XXXXXXXXX X",
"XXXXXXXXX X",
"XXXXXXXX XX",
"XXXXXX  XXX",
"X     XXXXX",
"XXXXXX  XXX",
"X    XXX XX",
"XXXXX  XX X",
"XXXXXXX X X",
"XXXXXXX XXX",
"XXXXXXXXXXX",
"XXXXXXXXXXX",
"XXXXXXXXXXX"
};
