/* XPM */
static char *rfloor[] = {
/* columns rows colors chars-per-pixel */
"6 19 3 1",
"  c black",
". c gray100",
"X c None",
/* pixels */
"XXXXXX",
"XXXXXX",
"XXXXXX",
"XXXXXX",
"XXXX X",
"XXXX X",
"XXXX X",
"XXXX X",
"XXXX X",
"XXXX X",
"XXXX X",
"XXXX X",
"XXXX X",
"XXXX X",
"XXXX X",
"XXXX X",
"XXXX X",
"XXXX X",
"X    X"
};
