/* XPM */
static char *rho[] = {
/* columns rows colors chars-per-pixel */
"9 19 3 1",
"  c black",
". c gray100",
"X c None",
/* pixels */
"XXXXXXXXX",
"XXXXXXXXX",
"XXXXXXXXX",
"XXXXXXXXX",
"XXXXXXXXX",
"XXXXXXXXX",
"XXXXXXXXX",
"XXXXXXXXX",
"XXXX   XX",
"XXX XXX X",
"XXX XXX X",
"XX XXXX X",
"XX XXX XX",
"XX  XX XX",
"XX X  XXX",
"X XXXXXXX",
"X XXXXXXX",
"X XXXXXXX",
"XXXXXXXXX"
};
