/* XPM */
static char *rightrightarrows[] = {
/* columns rows colors chars-per-pixel */
"15 19 3 1",
"  c black",
". c gray100",
"X c None",
/* pixels */
"XXXXXXXXXXXXXXX",
"XXXXXXXXXXXXXXX",
"XXXXXXXXXXXXXXX",
"XXXXXXXXXXXXXXX",
"XXXXXXXXXXXXXXX",
"XXXXXXXXXXXXXXX",
"XXXXXXXXXXX XXX",
"XXXXXXXXXXXX XX",
"X             X",
"XXXXXXXXXXXX XX",
"XXXXXXXXXXX XXX",
"XXXXXXXXXXX XXX",
"XXXXXXXXXXXX XX",
"X             X",
"XXXXXXXXXXXX XX",
"XXXXXXXXXXX XXX",
"XXXXXXXXXXXXXXX",
"XXXXXXXXXXXXXXX",
"XXXXXXXXXXXXXXX"
};
