/* XPM */
static char *a[] = {
/* columns rows colors chars-per-pixel */
"21 9 3 1",
"  c black",
". c black",
"X c None",
/* pixels */
"XXXXXXXXXXXXXXXX.XXXX",
"XXXXXXXXXXXXXXXXX.XXX",
"XXXXXXXXXXXXXXXXX.XXX",
"XXXXXXXXXXXXXXXXXX..X",
".....................",
"XXXXXXXXXXXXXXXXXX..X",
"XXXXXXXXXXXXXXXXXX.XX",
"XXXXXXXXXXXXXXXXX.XXX",
"XXXXXXXXXXXXXXXX.XXXX"
};
