/* XPM */
static char *setminus[] = {
/* columns rows colors chars-per-pixel */
"8 19 3 1",
"  c black",
". c gray100",
"X c None",
/* pixels */
"XXXXXXXX",
"XXXXXXXX",
"XXXXXXXX",
"XXXXXXXX",
"X XXXXXX",
"X XXXXXX",
"XX XXXXX",
"XX XXXXX",
"XX XXXXX",
"XXX XXXX",
"XXX XXXX",
"XXX XXXX",
"XXXX XXX",
"XXXX XXX",
"XXXXX XX",
"XXXXX XX",
"XXXXX XX",
"XXXXXX X",
"XXXXXX X"
};
