/* XPM */
static char *a[] = {
/* columns rows colors chars-per-pixel */
"8 14 3 1",
"  c black",
". c #5972ff",
"X c None",
/* pixels */
".XXXXXX.",
".XXXXXX.",
".XXXXXX.",
".XXXXXX.",
".XXXXXX.",
".XXXXXX.",
".XXXXXX.",
".XXXXXX.",
".XXXXXX.",
".XXXXXX.",
".XXXXXX.",
".XXXXXX.",
".XXXXXX.",
".XXXXXX."
};
