/* XPM */
static char *sigma[] = {
/* columns rows colors chars-per-pixel */
"10 19 3 1",
"  c black",
". c gray100",
"X c None",
/* pixels */
"XXXXXXXXXX",
"XXXXXXXXXX",
"XXXXXXXXXX",
"XXXXXXXXXX",
"XXXXXXXXXX",
"XXXXXXXXXX",
"XXXXXXXXXX",
"XXXXXXXXXX",
"XXX      X",
"XX XXX XXX",
"X XXXX XXX",
"X XXXX XXX",
"X XXXX XXX",
"X XXX XXXX",
"XX   XXXXX",
"XXXXXXXXXX",
"XXXXXXXXXX",
"XXXXXXXXXX",
"XXXXXXXXXX"
};
