/* XPM */
static char *smallfrown[] = {
/* columns rows colors chars-per-pixel */
"12 19 3 1",
"  c black",
". c gray100",
"X c None",
/* pixels */
"XXXXXXXXXXXX",
"XXXXXXXXXXXX",
"XXXXXXXXXXXX",
"XXXXXXXXXXXX",
"XXXXXXXXXXXX",
"XXXXXXXXXXXX",
"XXXXXXXXXXXX",
"XXXXXXXXXXXX",
"XXXXXXXXXXXX",
"XXXX    XXXX",
"XXX XXXX XXX",
"XX XXXXXX XX",
"X XXXXXXXX X",
"XXXXXXXXXXXX",
"XXXXXXXXXXXX",
"XXXXXXXXXXXX",
"XXXXXXXXXXXX",
"XXXXXXXXXXXX",
"XXXXXXXXXXXX"
};
