/* XPM */
static char *a[] = {
/* columns rows colors chars-per-pixel */
"21 8 3 1",
"  c black",
". c #5972ff",
"X c None",
/* pixels */
"XXXXXXX.......XXXXXXX",
"XXXXX...XXXXX...XXXXX",
"XXXX..XXXXXXXXX..XXXX",
"XXX..XXXXXXXXXXX..XXX",
"XX..XXXXXXXXXXXXX..XX",
"X..XXXXXXXXXXXXXXX..X",
"..XXXXXXXXXXXXXXXXX..",
".XXXXXXXXXXXXXXXXXXX."
};
