/* XPM */
static char *a[] = {
/* columns rows colors chars-per-pixel */
"12 13 3 1",
"  c black",
". c #5972ff",
"X c None",
/* pixels */
"............",
".XXXXXXXXXX.",
".XXXXXXXXXX.",
".XXXXXXXXXX.",
".XXXXXXXXXX.",
".XXXXXXXXXX.",
".XXXXXXXXXX.",
".XXXXXXXXXX.",
".XXXXXXXXXX.",
".XXXXXXXXXX.",
".XXXXXXXXXX.",
".XXXXXXXXXX.",
".XXXXXXXXXX."
};
