/* XPM */
static char *a[] = {
/* columns rows colors chars-per-pixel */
"24 32 3 1",
"  c #000000",
". c #000000",
"X c None",
/* pixels */
"XXXXXXXXX...XXXXXX...XXX",
"XXXXXXXX.....XXXX.....XX",
"XXXXXXX..XXX.XXX..XXX.XX",
"XXXXXXX..XX..XXX..XX..XX",
"XXXXXXX..XXXXXXX..XXXXXX",
"XXXXXX..XXXXXXX..XXXXXXX",
"XXXXXX..XXXXXXX..XXXXXXX",
"XXXXXX..XXXXXXX..XXXXXXX",
"XXXXXX..XXXXXXX..XXXXXXX",
"X....................XXX",
"X.XXXX..XXXXXXX..XXX.XXX",
"X.XXXX..XXXXXXX..XXX.XXX",
"X.XXXX..XXXXXXX..XXX.XXX",
"X.XXX..XXXXXXX..XXXX.XXX",
"X.XXX..XXXXXXX..XXXX.XXX",
"X.XXX..XXXXXXX..XXXX.XXX",
"X....................XXX",
"XXXXX..XXXXXXX..XXXXXXXX",
"XXXXX..XXXXXXX..XXXXXXXX",
"XXXXX..XXXXXXX..XXXXXXXX",
"XXXXX..XXXXXXX..XXXXXXXX",
"XXXX..XXXXXXX..XXXXXXXXX",
"..XX..XXX..XX..XXXXXXXXX",
".XXX..XXX.XXX..XXXXXXXXX",
".....XXXX.....XXXXXXXXXX",
"X...XXXXXX...XXXXXXXXXXX",
"XXXXXXXXXXXXXXXXXXXXXXXX",
"XXXXXXXX.X.X.X.XXXXXXXXX",
"XXXXXXXXXXXXXXXXXXXXXXXX",
"XXXXXXXX.XXXXX.XXXXXXXXX",
"XXXXXXXXXXXXXXXXXXXXXXXX",
"XXXXXXXX.X.X.X.XXXXXXXXX"
};
