/* XPM */
static char const * const sqrt_xpm[] = {
/* width height ncolors chars_per_pixel */
"20 25 11 1",
/* colors */
"o c None",
"  c #000000",
". c #939393",
"X c #676767",
"O c #CECECE",
"+ c #848484",
"@ c #767676",
"# c #2C2C2C",
"$ c #BFBFBF",
"% c #0000FF",
"& c None",
/* pixels */
"oooooooooooooooooooo",
"oooooooooooooooooooo",
"oooooooooooooooooooo",
"oooooooooooooooooooo",
"oooooooooooooooooooo",
"oooooooooooooooooooo",
"oooooooooooooooooooo",
"oooooooooooooooooooo",
"oooooooooooooooooooo",
"ooooooooo         oo",
"ooooooooO.oooooooooo",
"oooooooo+ooooooooooo",
"oooooooO@%%%%%%%%%oo",
"ooooooo@O%ooooooo%oo",
"ooOOooO@o%ooooooo%oo",
"ooXXoo@Oo%ooooooo%oo",
"ooo#Oo+oo%ooooooo%oo",
"ooo@+.Ooo%ooooooo%oo",
"oooO#+ooo%ooooooo%oo",
"ooooX$ooo%%%%%%%%%oo",
"oooooooooooooooooooo",
"oooooooooooooooooooo",
"oooooooooooooooooooo",
"oooooooooooooooooooo",
"oooooooooooooooooooo"
};
