/* XPM */
static char *a[] = {
/* columns rows colors chars-per-pixel */
"20 17 3 1",
"  c #000000",
". c #000000",
"X c None",
/* pixels */
"....................",
"XXXXXXXXXXXXXXXXXXX.",
"XXXXXXXXXXXXXXXXXXX.",
"XXXXXXXXXXXXXXXXXXX.",
"XXXXXXXXXXXXXXXXXXX.",
"XXXXXXXXXXXXXXXXXXX.",
"XXXXXXXXXXXXXXXXXXX.",
"XXXXXXXXXXXXXXXXXXX.",
"XXXXXXXXXXXXXXXXXXX.",
"XXXXXXXXXXXXXXXXXXX.",
"XXXXXXXXXXXXXXXXXXX.",
"XXXXXXXXXXXXXXXXXXX.",
"XXXXXXXXXXXXXXXXXXX.",
"XXXXXXXXXXXXXXXXXXX.",
"XXXXXXXXXXXXXXXXXXX.",
"XXXXXXXXXXXXXXXXXXX.",
"...................."
};
