/* XPM */
static char *a[] = {
/* columns rows colors chars-per-pixel */
"20 17 3 1",
"  c black",
". c #5972ff",
"X c None",
/* pixels */
"....................",
"XXXXXXXXXXXXXXXXXXX.",
"XXXXXXXXXXXXXXXXXXX.",
"XXXXXXXXXXXXXXXXXXX.",
"XXXXXXXXXXXXXXXXXXX.",
"XXXXXXXXXXXXXXXXXXX.",
"XXXXXXXXXXXXXXXXXXX.",
"XXXXXXXXXXXXXXXXXXX.",
"XXXXXXXXXXXXXXXXXXX.",
"XXXXXXXXXXXXXXXXXXX.",
"XXXXXXXXXXXXXXXXXXX.",
"XXXXXXXXXXXXXXXXXXX.",
"XXXXXXXXXXXXXXXXXXX.",
"XXXXXXXXXXXXXXXXXXX.",
"XXXXXXXXXXXXXXXXXXX.",
"XXXXXXXXXXXXXXXXXXX.",
"...................."
};
