/* XPM */
static char *a[] = {
/* columns rows colors chars-per-pixel */
"18 27 3 1",
"  c black",
". c #5972ff",
"X c None",
/* pixels */
"XXXXX............X",
"XXXX.XXXXXXXXXXXXX",
"XXX.XXXXXXXXXXXXXX",
"XX.XXXXXXXXXXXXXXX",
"X.XXXXXXXXXXXXXXXX",
".XXXXXXXXXXXXXXXXX",
".XXXXXXXXXXXXXXXXX",
".XXXXXXXXXXXXXXXXX",
".XXXXXXXXXXXXXXXXX",
".XXXXXXXXXXXXXXXXX",
".XXXXXXXXXXXXXXXXX",
".XXXXXXXXXXXXXXXXX",
"X.XXXXXXXXXXXXXXXX",
"XX.XXXXXXXXXXXXXXX",
"XXX.XXXXXXXXXXXXXX",
"XXXX.XXXXXXXXXXXXX",
"XXXXX............X",
"XXXXXXXXXXXXXXXXXX",
"XXXXXXXXXXXX.XXXXX",
"XXXXXXXXXXX.XXXXXX",
"XXXXXXXXXX.XXXXXXX",
"XXXXXXXXX.XXXXXXXX",
"X.................",
"XXXXXXX.XXXXXXXXXX",
"XXXXXX.XXXXXXXXXXX",
"XXXXX.XXXXXXXXXXXX",
"XXXX.XXXXXXXXXXXXX"
};
