/* XPM */
static char *succsim[] = {
/* columns rows colors chars-per-pixel */
"13 19 3 1",
"  c black",
". c gray100",
"X c None",
/* pixels */
"XXXXXXXXXXXXX",
"XXXXXXXXXXXXX",
"XXXXXXXXXXXXX",
"XXXXXXXXXXXXX",
"X XXXXXXXXXXX",
"X XXXXXXXXXXX",
"XX XXXXXXXXXX",
"XXX  XXXXXXXX",
"XXXXX     XXX",
"XXX  XXXXXXXX",
"XX XXXXXXXXXX",
"X XXXXXXXXXXX",
"X XXXXXXXXXXX",
"XXXXXXXXXXXXX",
"XXXXXXXXXXXXX",
"XXX   XXXXX X",
"XX XXX XXX XX",
"X XXXXX   XXX",
"XXXXXXXXXXXXX"
};
