/* XPM */
static char const * const sum_xpm[] = {
/* width height ncolors chars_per_pixel */
"20 25 17 1",
/* colors */
"O c None",
"  c #000000",
". c #939393",
"X c #676767",
"o c #3B3B3B",
"+ c #CECECE",
"@ c #0F0F0F",
"# c #B0B0B0",
"$ c #A2A2A2",
"% c #848484",
"& c #767676",
"* c #585858",
"= c #4A4A4A",
"- c #2C2C2C",
"; c #1E1E1E",
": c #BFBFBF",
"> c None",
/* pixels */
"OOOOOOOOOOOOOOOOOOOO",
"OOOOOOOOOOOOOOOOOOOO",
"OOOOOOOOOOOOOOOOOOOO",
"OOOOOOOOOOOOOOOOOOOO",
"OOOOOOOOOOOOOOOOOOOO",
"OOOOOOOOOOOOOOOOOOOO",
"OOO.        ;o; :OOO",
"OOOO*-OOOOOOOOO%XOOO",
"OOOO+;XOOOOOOOOO$+OO",
"OOOOO# %OOOOOOOOOOOO",
"OOOOOO&@#OOOOOOOOOOO",
"OOOOOOO=;+OOOOOOOOOO",
"OOOOOOO+@oOOOOOOOOOO",
"OOOOOOOO$;+OOOOOOOOO",
"OOOOOOOOX#OOOOOOOOOO",
"OOOOOOO.#OOOOOOOOOOO",
"OOOOOO.#OOOOOOOOOOOO",
"OOOOO#.OOOOOOOOO#+OO",
"OOOO+.OOOOOOOOO%XOOO",
"OOO+-         @ :OOO",
"OOOOOOOOOOOOOOOOOOOO",
"OOOOOOOOOOOOOOOOOOOO",
"OOOOOOOOOOOOOOOOOOOO",
"OOOOOOOOOOOOOOOOOOOO",
"OOOOOOOOOOOOOOOOOOOO"
};
