/* XPM */
static char *a[] = {
/* columns rows colors chars-per-pixel */
"20 20 3 1",
"  c black",
". c black",
"X c None",
/* pixels */
"XXXXX.XXXXXXXXXXXXXX",
"X....XXXXXXXXXXXXXXX",
"X..XXXXXXXXXXXXXXXXX",
"X.X.XXXXXXXXXXXXXXXX",
"X.XX.XXXXXXXXXXXXXXX",
"X.XXX.XXXXXXXXXXXXXX",
".XXXXX.XXXXXXXXXXXXX",
"XXXXXXX.XXXXXXXXXXXX",
"XXXXXXXX.XXXXXXXXXXX",
"XXXXXXXXX.XXXXXXXXXX",
"XXXXXXXXXX.XXXXXXXXX",
"XXXXXXXXXXX.XXXXXXXX",
"XXXXXXXXXXXX.XXXXXXX",
"XXXXXXXXXXXXX.XXXXXX",
"XXXXXXXXXXXXXX.XXXXX",
"XXXXXXXXXXXXXXX.XXXX",
"XXXXXXXXXXXXXXX..XXX",
"XXXXXXXXXXXXXXXX..XX",
"XXXXXXXXXXXXXXXXX..X",
"XXXXXXXXXXXXXXXXXX.."
};
