/* XPM */
static char *a[] = {
/* columns rows colors chars-per-pixel */
"17 20 3 1",
"  c black",
". c #5972ff",
"X c None",
/* pixels */
"XX.XXXXXXXXXXXXXX",
"XX...XXXXXXXXXXXX",
"XX.XX..XXXXXXXXXX",
"XX.XXXX..XXXXXXXX",
"XX.XXXXXX..XXXXXX",
"XX.XXXXXXXX..XXXX",
"XX.XXXXXXXXXX..XX",
"XX.XXXXXXXXXXXX..",
"XX.XXXXXXXXXXX..X",
"XX.XXXXXXXXX..XXX",
"XX.XXXXXXX..XXXXX",
"XX.XXXXXX.XXXXXXX",
"XX.XXXX..XXXXXXXX",
"XX.XX..XXXXXXXXXX",
"XX...XXXXXXXXXXXX",
"XX.XXXXXXXXXXXXXX",
"XXXXXXXXXXXXXXXXX",
"XXXXXXXXXXXXXXXXX",
"XXXXXXXXXXXXXXXXX",
"................."
};
