/* XPM */
static char *a[] = {
/* columns rows colors chars-per-pixel */
"9 10 3 1",
"  c #000000",
". c #000000",
"X c None",
/* pixels */
"..XXXXXXX",
".X..XXXXX",
".XXX..XXX",
".XXXXX..X",
".XXXXXXX.",
".XXXXXX..",
".XXXX..XX",
".XXX.XXXX",
".X..XXXXX",
"..XXXXXXX"
};
