/* XPM */
static char *a[] = {
/* columns rows colors chars-per-pixel */
"16 19 3 1",
"  c black",
". c #5972ff",
"X c None",
/* pixels */
"................",
".XXXXXXXXXXXXXX.",
"X.XXXXXXXXXXXX.X",
"X.XXXXXXXXXXXX.X",
"XX.XXXXXXXXXX.XX",
"XX.XXXXXXXXXX.XX",
"XX.XXXXXXXXX.XXX",
"XXX.XXXXXXXX.XXX",
"XXX.XXXXXXX.XXXX",
"XXX.XXXXXXX.XXXX",
"XXXX.XXXXXX.XXXX",
"XXXX.XXXXX.XXXXX",
"XXXXX.XXXX.XXXXX",
"XXXXX.XXX.XXXXXX",
"XXXXX.XXX.XXXXXX",
"XXXXXX.X.XXXXXXX",
"XXXXXX.X.XXXXXXX",
"XXXXXXX.XXXXXXXX",
"XXXXXXX.XXXXXXXX"
};
