/* XPM */
static char *a[] = {
/* columns rows colors chars-per-pixel */
"15 15 3 1",
"  c black",
". c black",
"X c None",
/* pixels */
"XXXXXXX.XXXXXXX",
"XXXXXX.X.XXXXXX",
"XXXXXX.X.XXXXXX",
"XXXXX.XXX.XXXXX",
"XXXXX.XXX.XXXXX",
"XXXX.XXXXX.XXXX",
"XXXX.XXXXX.XXXX",
"XXX.XXXXXXX.XXX",
"XXX.XXXXXXX.XXX",
"XX.XXXXXXXXX.XX",
"XX.XXXXXXXXX.XX",
"X.XXXXXXXXXXX.X",
"X.XXXXXXXXXXX.X",
".XXXXXXXXXXXXX.",
"..............."
};
