/* XPM */
static char *a[] = {
/* columns rows colors chars-per-pixel */
"29 19 3 1",
"  c #000000",
". c #000000",
"X c None",
/* pixels */
"XXXXXXXXX.X.X.X.X.X.XXXXXXXXX",
"XXXXXXXXXXXXXXXXXXXXXXXXXXXXX",
"XXXXXXXXX.XXXXXXXXX.XXXXXXXXX",
"XXXXXXXXXXXXXXXXXXXXXXXXXXXXX",
"XXXXXXXXX.XXXXXXXXX.XXXXXXXXX",
"XXXXXXXXXXXXXXXXXXXXXXXXXXXXX",
"XXXXXXXXX.XXXXXXXXX.XXXXXXXXX",
"XXXXXXXXXXXXXXXXXXXXXXXXXXXXX",
"XXXXXXXXX.XXXXXXXXX.XXXXXXXXX",
"XXXXXXXXXXXXXXXXXXXXXXXXXXXXX",
"XXXXXXXXX.X.X.X.X.X.XXXXXXXXX"
"XXXXXXXXXXXXXXXXXXXXXXXXXXXXX",
"XXXXXXXXXXXXXXXXXXXXXXXXXXXXX",
"XXXXXXXXXXX.X.X.X.XXXXXXXXXXX",
"XXXXXXXXXXXXXXXXXXXXXXXXXXXXX",
"XXXXXXXXXXX.XXXXX.XXXXXXXXXXX",
"XXXXXXXXXXXXXXXXXXXXXXXXXXXXX",
"XXXXXXXXXXX.X.X.X.XXXXXXXXXXX",
"XXXXXXXXXXXXXXXXXXXXXXXXXXXXX",
};
