/* XPM */
static char * underscore[] = {
/* columns rows colors chars-per-pixel */
"13 14 2 1",
" 	c None",
".	c #000000",
/* pixels */
"             ",
"             ",
"             ",
"             ",
"             ",
"             ",
"             ",
"             ",
"             ",
"             ",
"             ",
"             ",
"             ",
"      ......."
};
