/* XPM */
static char * underscore_xpm[] = {
"19 10 2 1",
" 	c None",
".	c #000000",
"                   ",
"                   ",
"                   ",
"                   ",
"                   ",
"                   ",
"                   ",
"                   ",
"                   ",
"..................."};
