/* XPM */
static char *uparrow[] = {
/* columns rows colors chars-per-pixel */
"7 19 3 1",
"  c black",
". c gray100",
"X c None",
/* pixels */
"XXXXXXX",
"XXXXXXX",
"XXXXXXX",
"XXXXXXX",
"XXX XXX",
"XX   XX",
"X X X X",
"XXX XXX",
"XXX XXX",
"XXX XXX",
"XXX XXX",
"XXX XXX",
"XXX XXX",
"XXX XXX",
"XXX XXX",
"XXX XXX",
"XXX XXX",
"XXX XXX",
"XXXXXXX"
};
