/* XPM */
static char *upuparrows[] = {
/* columns rows colors chars-per-pixel */
"12 19 3 1",
"  c black",
". c gray100",
"X c None",
/* pixels */
"XXXXXXXXXXXX",
"XXXXXXXXXXXX",
"XXXXXXXXXXXX",
"XXXXXXXXXXXX",
"XXX XXXX XXX",
"XX   XX   XX",
"X X X  X X X",
"XXX XXXX XXX",
"XXX XXXX XXX",
"XXX XXXX XXX",
"XXX XXXX XXX",
"XXX XXXX XXX",
"XXX XXXX XXX",
"XXX XXXX XXX",
"XXX XXXX XXX",
"XXX XXXX XXX",
"XXX XXXX XXX",
"XXX XXXX XXX",
"XXXXXXXXXXXX"
};
