/* XPM */
static char *urcorner[] = {
/* columns rows colors chars-per-pixel */
"13 19 3 1",
"  c black",
". c gray100",
"X c None",
/* pixels */
"XXXXXXXXXXXXX",
"XXXXXXXXXXXXX",
"XXXXXXXXXXXXX",
"XXXXXXX     X",
"XXXXXXXXXXX X",
"XXXXXXXXXXX X",
"XXXXXXXXXXX X",
"XXXXXXXXXXX X",
"XXXXXXXXXXXXX",
"XXXXXXXXXXXXX",
"XXXXXXXXXXXXX",
"XXXXXXXXXXXXX",
"XXXXXXXXXXXXX",
"XXXXXXXXXXXXX",
"XXXXXXXXXXXXX",
"XXXXXXXXXXXXX",
"XXXXXXXXXXXXX",
"XXXXXXXXXXXXX",
"XXXXXXXXXXXXX"
};
