/* XPM */
static char *varkappa[] = {
/* columns rows colors chars-per-pixel */
"12 19 3 1",
"  c black",
". c gray100",
"X c None",
/* pixels */
"XXXXXXXXXXXX",
"XXXXXXXXXXXX",
"XXXXXXXXXXXX",
"XXXXXXXXXXXX",
"XXXXXXXXXXXX",
"XXXXXXXXXXXX",
"XXXXXXXXXXXX",
"XXXXXXXXXXXX",
"XXXXXXXXXXXX",
"XXX  XXXX  X",
"XX X XX  XXX",
"XXXX X  XXXX",
"XXXX  X XXXX",
"XXX XXX X XX",
"X  XXXX  XXX",
"XXXXXXXXXXXX",
"XXXXXXXXXXXX",
"XXXXXXXXXXXX",
"XXXXXXXXXXXX"
};
