/* XPM */
static char *a[] = {
/* columns rows colors chars-per-pixel */
"19 17 3 1",
"  c black",
". c black",
"X c None",
/* pixels */
"XXXXXX.......XXXXX.",
"XXXXX.XXXXXXX.XXX.X",
"XXXX.XXXXXXXXX.X.XX",
"XXX.XXXXXXXXXXX.XXX",
"XX.XXXXXXXXXXX.X.XX",
"X.XXXXXXXXXXX.XXX.X",
"X.XXXXXXXXX..XXXX.X",
"X.XXXXXXXX.XXXXXX.X",
"X.XXXXXXX.XXXXXXX.X",
"X.XXXXXX.XXXXXXXX.X",
"X.XXXX..XXXXXXXXX.X",
"X.XXX.XXXXXXXXXXX.X",
"XX.X.XXXXXXXXXXX.XX",
"XXX.XXXXXXXXXXX.XXX",
"XX.X.XXXXXXXXX.XXXX",
"X.XXX.XXXXXXX.XXXXX",
".XXXXX.......XXXXXX"
};
