/* XPM */
static char *varpi[] = {
/* columns rows colors chars-per-pixel */
"14 19 3 1",
"  c black",
". c gray100",
"X c None",
/* pixels */
"XXXXXXXXXXXXXX",
"XXXXXXXXXXXXXX",
"XXXXXXXXXXXXXX",
"XXXXXXXXXXXXXX",
"XXXXXXXXXXXXXX",
"XXXXXXXXXXXXXX",
"XXXXXXXXXXXXXX",
"XXXXXXXXXXXXXX",
"XX           X",
"X X XXXXXXX XX",
"XXX XXX XXX XX",
"XX XXXX XXX XX",
"XX XXX  XXX XX",
"XX XXX XXX XXX",
"XXX   X   XXXX",
"XXXXXXXXXXXXXX",
"XXXXXXXXXXXXXX",
"XXXXXXXXXXXXXX",
"XXXXXXXXXXXXXX"
};
