/* XPM */
static char *a[] = {
/* columns rows colors chars-per-pixel */
"18 30 3 1",
"  c black",
". c #5972ff",
"X c None",
/* pixels */
"XXXXX.............",
"XXXX.XXXXXXXXXXXXX",
"XXX.XXXXXXXXXXXXXX",
"XX.XXXXXXXXXXXXXXX",
"X.XXXXXXXXXXXXXXXX",
".XXXXXXXXXXXXXXXXX",
".XXXXXXXXXXXXXXXXX",
".XXXXXXXXXXXXXXXXX",
".XXXXXXXXXXXXXXXXX",
".XXXXXXXXXXXXXXXXX",
".XXXXXXXXXXXXXXXXX",
".XXXXXXXXXXXXXXXXX",
"X.XXXXXXXXXXXXX.XX",
"XX.XXXXXXXXXXXX.XX",
"XXX.XXXXXXXXXX..XX",
"XXXX.XXXXXXXXX.XXX",
"XXXXX............X",
"XXXXXXXXXXXX.XXXXX",
"XXXXXXXXXXX..XXXXX",
"XXXXXXXXXXX.XXXXXX",
"XXXXXXXXXX..XXXXXX",
".................X",
"XXXXXXXXX.XXXXXXXX",
"XXXXXXXX.XXXXXXXXX",
"XXXXXXX..XXXXXXXXX",
"XXXXXXX.XXXXXXXXXX",
"XXXXXX..XXXXXXXXXX",
".................X",
"XXXXX.XXXXXXXXXXXX",
"XXXX..XXXXXXXXXXXX"
};
