/* XPM */
static char *a[] = {
/* columns rows colors chars-per-pixel */
"18 29 3 1",
"  c black",
". c #5972ff",
"X c None",
/* pixels */
"............XXXXXX",
"XXXXXXXXXXXX..XXXX",
"XXXXXXXXXXXXXX.XXX",
"XXXXXXXXXXXXXXX.XX",
"XXXXXXXXXXXXXXXX.X",
"XXXXXXXXXXXXXXXX.X",
"XXXXXXXXXXXXXXXXX.",
"XXXXXXXXXXXXXXXXX.",
"XXXXXXXXXXXXXXXXX.",
"XXXXXXXXXXXXXXXXX.",
"XXXXXXXXXXXXXXXXX.",
"XXXXXXXXXX.XXXXX.X",
"XXXXXXXXXX.XXXXX.X",
"XXXXXXXXX.XXXXX.XX",
"XXXXXXXXX.XXXX.XXX",
"XXXXXXXX.XXX..XXXX",
"............XXXXXX",
"XXXXXXX.XXXXXXXXXX",
"XXXXXXX.XXXXXXXXXX",
"XXXXXX.XXXXXXXXXXX",
"XXXXXX.XXXXXXXXXXX",
"..................",
"XXXXX.XXXXXXXXXXXX",
"XXXX.XXXXXXXXXXXXX",
"XXXX.XXXXXXXXXXXXX",
"XXX.XXXXXXXXXXXXXX",
"..................",
"XX.XXXXXXXXXXXXXXX",
"XX.XXXXXXXXXXXXXXX"
};
