#define varsz_width 110
#define varsz_height 192
static unsigned char const varsz_bits[] = {
 0x00,0x00,0x00,0x00,0x00,0x00,0x00,0x00,0x00,0x00,0x00,0x00,0x00,0xc0,0x00,
 0x00,0x00,0x00,0x00,0x00,0x00,0x00,0x00,0x00,0x00,0x00,0x00,0xc0,0x00,0x00,
 0x00,0x00,0x00,0x00,0x00,0x00,0x00,0x00,0x00,0x00,0x00,0xc0,0x00,0x00,0x00,
 0x00,0x00,0x00,0x00,0x00,0x00,0x00,0x00,0x00,0x00,0xc0,0x00,0x00,0x00,0x00,
 0x00,0x00,0x00,0x00,0x00,0x00,0x00,0x00,0x00,0xc0,0x00,0x00,0x00,0x00,0x00,
 0x00,0x00,0x1c,0x00,0x00,0x00,0x00,0x1c,0xc0,0x00,0x00,0x00,0x00,0x00,0x00,
 0x00,0x3e,0x00,0x00,0x00,0x00,0x3e,0xc0,0xc0,0xff,0xff,0x01,0x00,0x00,0x00,
 0x22,0x00,0x00,0x00,0x00,0x23,0xc0,0x80,0xff,0xff,0x03,0x00,0x00,0x00,0x33,
 0x00,0x00,0x00,0x00,0x33,0xc0,0x80,0x01,0xc0,0x03,0x00,0x00,0x00,0x03,0x00,
 0x00,0x00,0x00,0x03,0xc0,0x00,0x03,0x00,0x03,0x00,0x00,0x00,0x03,0x00,0x00,
 0x00,0x80,0x01,0xc0,0x00,0x02,0x00,0x04,0x00,0x00,0x00,0x03,0x00,0x00,0x00,
 0x80,0x01,0xc0,0x00,0x06,0x00,0x04,0x00,0x00,0x00,0x01,0x00,0x00,0x00,0x80,
 0x01,0xc0,0x00,0x0c,0x00,0x00,0x00,0x00,0x00,0x01,0x00,0x00,0x00,0x80,0x01,
 0xc0,0x00,0x18,0x00,0x00,0x00,0x00,0x00,0x01,0x00,0x00,0x00,0xe0,0x03,0xc0,
 0x00,0x30,0x00,0x00,0x00,0x00,0x00,0x01,0x00,0x00,0x00,0xb8,0x07,0xc0,0x00,
 0x70,0x00,0x00,0x00,0x00,0x80,0x01,0x00,0x00,0x00,0x8c,0x09,0xc0,0x00,0x60,
 0x00,0x00,0x00,0x00,0x80,0x01,0x00,0x00,0x00,0x8c,0x09,0xc0,0x00,0xc0,0x00,
 0x00,0x00,0x00,0x80,0x01,0x00,0x00,0x00,0xcc,0x08,0xc0,0x00,0x40,0x00,0x00,
 0x00,0x00,0x80,0x01,0x00,0x00,0x00,0xdc,0x08,0xc0,0x00,0x20,0x00,0x00,0x00,
 0x00,0x80,0x01,0x00,0x00,0x00,0xf8,0x06,0xc0,0x00,0x10,0x00,0x00,0x00,0x00,
 0x80,0x01,0x00,0x00,0x00,0xe0,0x01,0xc0,0x00,0x08,0x00,0x00,0x00,0x00,0x80,
 0x01,0x00,0x00,0x00,0xc0,0x00,0xc0,0x00,0x04,0x00,0x04,0x00,0x00,0x80,0x00,
 0x00,0x00,0x00,0xc0,0x00,0xc0,0x00,0x02,0x00,0x04,0x00,0x00,0x80,0x00,0x00,
 0x00,0x00,0xc0,0x00,0xc0,0x00,0x01,0x00,0x03,0x00,0x00,0x80,0x00,0x00,0x00,
 0x00,0xc0,0x00,0xc0,0x80,0x00,0xc0,0x03,0x00,0x00,0xc0,0x00,0x00,0x00,0x00,
 0x60,0x00,0xc0,0x80,0xff,0xff,0x03,0x00,0x00,0xcc,0x00,0x00,0x00,0x00,0x66,
 0x00,0xc0,0xc0,0xff,0xff,0x01,0x00,0x00,0x44,0x00,0x00,0x00,0x00,0x62,0x00,
 0xc0,0x00,0x00,0x00,0x00,0x00,0x00,0x7c,0x00,0x00,0x00,0x00,0x3e,0x00,0xc0,
 0x00,0x00,0x00,0x00,0x00,0x00,0x38,0x00,0x00,0x00,0x00,0x1c,0x00,0xc0,0x00,
 0x00,0x00,0x00,0x00,0x00,0x00,0x00,0x00,0x00,0x00,0x00,0x00,0xc0,0x00,0x00,
 0x00,0x00,0x00,0x00,0x00,0x00,0x00,0x00,0x00,0x00,0x00,0xc0,0x00,0x00,0x00,
 0x00,0x00,0x00,0x00,0x00,0x00,0x00,0x00,0x00,0x00,0xc0,0x00,0x00,0x00,0x00,
 0x00,0x00,0x00,0x00,0x00,0x00,0x00,0x00,0x00,0xc0,0x00,0x00,0x00,0x00,0x00,
 0x00,0x00,0x00,0x00,0x00,0x00,0x00,0x00,0xc0,0x00,0x00,0x00,0x00,0x00,0x00,
 0x00,0x00,0x00,0x00,0x00,0x00,0x00,0xc0,0x00,0x00,0x00,0x00,0x00,0x00,0x00,
 0x00,0x00,0x00,0x00,0x00,0x00,0xc0,0x00,0x00,0x00,0x00,0x00,0x00,0x00,0x00,
 0x00,0x00,0x00,0x00,0x00,0xc0,0x00,0x00,0x00,0x00,0x00,0x00,0x00,0x00,0x00,
 0x00,0x00,0x00,0x00,0xc0,0x00,0x00,0x00,0x00,0x00,0x00,0x00,0x00,0x00,0x00,
 0x00,0x00,0x00,0xc0,0x00,0x00,0x00,0x00,0x00,0x00,0x00,0x00,0x00,0x00,0x00,
 0x00,0x00,0xc0,0x00,0x00,0x00,0x00,0x00,0x00,0x00,0x00,0x00,0x00,0x00,0x00,
 0x00,0xc0,0x00,0x00,0x00,0x00,0x00,0x00,0x00,0x00,0x00,0x00,0x00,0x00,0x00,
 0xc0,0x00,0x00,0x00,0x00,0x00,0x00,0x00,0x00,0x00,0x00,0x00,0x00,0x00,0xc0,
 0x00,0x00,0x00,0x00,0x00,0x00,0x00,0x00,0x00,0x00,0x00,0x00,0x00,0xc0,0x80,
 0xff,0xff,0x03,0x00,0x80,0x3f,0xf8,0x03,0x00,0x80,0x01,0x60,0xc0,0x80,0xff,
 0xff,0x03,0x00,0x00,0x0c,0x60,0x00,0x00,0x80,0x01,0x60,0xc0,0x00,0x0e,0xe0,
 0x00,0x00,0x00,0x0c,0x60,0x00,0x00,0x80,0x01,0x60,0xc0,0x00,0x0c,0x60,0x00,
 0x00,0x00,0x0c,0x60,0x00,0x00,0x80,0x01,0x60,0xc0,0x00,0x0c,0x60,0x00,0x00,
 0x00,0x0c,0x60,0x00,0x00,0x80,0x01,0x60,0xc0,0x00,0x0c,0x60,0x00,0x00,0x00,
 0x0c,0x60,0x00,0x00,0x80,0x01,0x60,0xc0,0x00,0x0c,0x60,0x00,0x00,0x00,0x0c,
 0x60,0x00,0x00,0x80,0x01,0x60,0xc0,0x00,0x0c,0x60,0x00,0x00,0x00,0x0c,0x60,
 0x00,0x00,0x80,0x01,0x60,0xc0,0x00,0x0c,0x60,0x00,0x00,0x00,0x0c,0x60,0x00,
 0x00,0x80,0x01,0x60,0xc0,0x00,0x0c,0x60,0x00,0x00,0x00,0x0c,0x60,0x00,0x00,
 0x80,0x01,0x60,0xc0,0x00,0x0c,0x60,0x00,0x00,0x00,0x0c,0x60,0x00,0x00,0x80,
 0x01,0x60,0xc0,0x00,0x0c,0x60,0x00,0x00,0x00,0x0c,0x60,0x00,0x00,0x80,0x01,
 0x60,0xc0,0x00,0x0c,0x60,0x00,0x00,0x00,0x0c,0x60,0x00,0x00,0x80,0x01,0x60,
 0xc0,0x00,0x0c,0x60,0x00,0x00,0x00,0x0c,0x60,0x00,0x00,0x80,0x01,0x60,0xc0,
 0x00,0x0c,0x60,0x00,0x00,0x00,0x0c,0x60,0x00,0x00,0x80,0x01,0x60,0xc0,0x00,
 0x0c,0x60,0x00,0x00,0x00,0x0c,0x60,0x00,0x00,0x80,0x01,0x60,0xc0,0x00,0x0c,
 0x60,0x00,0x00,0x00,0x0c,0x60,0x00,0x00,0x80,0x01,0x60,0xc0,0x00,0x0c,0x60,
 0x00,0x00,0x00,0x0c,0x60,0x00,0x00,0x80,0x01,0x60,0xc0,0x00,0x0c,0x60,0x00,
 0x00,0x00,0x0c,0x60,0x00,0x00,0x80,0x01,0x60,0xc0,0x00,0x0c,0x60,0x00,0x00,
 0x00,0x0e,0xe0,0x00,0x00,0x80,0x01,0x60,0xc0,0x00,0x0c,0x60,0x00,0x00,0x80,
 0xff,0xff,0x03,0x00,0x80,0xff,0x7f,0xc0,0x80,0x3f,0xf8,0x03,0x00,0x80,0xff,
 0xff,0x03,0x00,0x80,0xff,0x7f,0xc0,0x00,0x00,0x00,0x00,0x00,0x00,0x00,0x00,
 0x00,0x00,0x00,0x00,0x00,0xc0,0x00,0x00,0x00,0x00,0x00,0x00,0x00,0x00,0x00,
 0x00,0x00,0x00,0x00,0xc0,0x00,0x00,0x00,0x00,0x00,0x00,0x00,0x00,0x00,0x00,
 0x00,0x00,0x00,0xc0,0x00,0x00,0x00,0x00,0x00,0x00,0x00,0x00,0x00,0x00,0x00,
 0x00,0x00,0xc0,0x00,0x00,0x00,0x00,0x00,0x00,0x00,0x00,0x00,0x00,0x00,0x00,
 0x00,0xc0,0x00,0x00,0x00,0x00,0x00,0x00,0x00,0x00,0x00,0x00,0x00,0x00,0x00,
 0xc0,0x00,0x00,0x00,0x00,0x00,0x00,0x00,0x00,0x00,0x00,0x00,0x00,0x00,0xc0,
 0x00,0x00,0x00,0x00,0x00,0x00,0x00,0x00,0x00,0x00,0x00,0x00,0x00,0xc0,0x00,
 0x00,0x00,0x00,0x00,0x00,0x00,0x00,0x00,0x00,0x00,0x00,0x00,0xc0,0x00,0x00,
 0x00,0x00,0x00,0x00,0x00,0x00,0x00,0x00,0x00,0x00,0x00,0xc0,0x00,0x00,0x00,
 0x00,0x00,0x00,0x00,0x00,0x00,0x00,0x00,0x00,0x00,0xc0,0x00,0x00,0x00,0x00,
 0x00,0x00,0x00,0x00,0x00,0x00,0x00,0x00,0x00,0xc0,0x00,0x00,0x00,0x00,0x00,
 0x00,0x00,0x00,0x00,0x00,0x00,0x00,0x00,0xc0,0x00,0x00,0x00,0x00,0x00,0x00,
 0x00,0x00,0x00,0x00,0x00,0x00,0x00,0xc0,0x00,0x00,0x00,0x00,0x00,0x00,0x00,
 0x00,0x00,0x00,0x00,0x00,0x00,0xc0,0x00,0x00,0x00,0x00,0x00,0x00,0x00,0x00,
 0x00,0x00,0x00,0x00,0x00,0xc0,0x00,0x00,0x00,0x00,0x00,0x00,0x00,0x00,0x00,
 0x00,0x00,0x00,0x00,0xc0,0x00,0xe0,0x07,0x00,0x00,0x00,0xe0,0x07,0x00,0x00,
 0x00,0xf0,0x03,0xc0,0x00,0xfc,0x3f,0x00,0x00,0x00,0xfc,0x3f,0x00,0x00,0x00,
 0xfc,0x0f,0xc0,0x00,0x1e,0x78,0x00,0x00,0x00,0x1e,0x78,0x00,0x00,0x00,0xc7,
 0x38,0xc0,0x00,0x07,0xe0,0x00,0x00,0x00,0x07,0xe0,0x00,0x00,0x80,0xc1,0x60,
 0xc0,0x80,0x07,0xe0,0x01,0x00,0x80,0x03,0xc0,0x01,0x00,0xc0,0xc0,0xc0,0xc0,
 0xc0,0x0f,0xf0,0x03,0x00,0xc0,0x01,0x80,0x03,0x00,0x40,0xc0,0x80,0xc0,0xc0,
 0x1c,0x38,0x03,0x00,0xc0,0x00,0x00,0x03,0x00,0x60,0xc0,0x80,0xc1,0xc0,0x38,
 0x1c,0x03,0x00,0xc0,0x00,0x00,0x03,0x00,0x20,0xc0,0x00,0xc1,0x60,0x70,0x0e,
 0x06,0x00,0x60,0x00,0x00,0x06,0x00,0x20,0xc0,0x00,0xc1,0x60,0xe0,0x07,0x06,
 0x00,0x60,0x00,0x00,0x06,0x00,0x30,0xc0,0x00,0xc3,0x60,0xc0,0x03,0x06,0x00,
 0x60,0x80,0x01,0x06,0x00,0xf0,0xff,0xff,0xc3,0x60,0xc0,0x03,0x06,0x00,0x60,
 0x80,0x01,0x06,0x00,0xf0,0xff,0xff,0xc3,0x60,0xe0,0x07,0x06,0x00,0x60,0x00,
 0x00,0x06,0x00,0x30,0xc0,0x00,0xc3,0x60,0x70,0x0e,0x06,0x00,0x60,0x00,0x00,
 0x06,0x00,0x20,0xc0,0x00,0xc1,0xc0,0x38,0x1c,0x03,0x00,0xc0,0x00,0x00,0x03,
 0x00,0x20,0xc0,0x00,0xc1,0xc0,0x1c,0x38,0x03,0x00,0xc0,0x00,0x00,0x03,0x00,
 0x60,0xc0,0x80,0xc1,0xc0,0x0f,0xf0,0x03,0x00,0xc0,0x01,0x80,0x03,0x00,0x40,
 0xc0,0x80,0xc0,0x80,0x07,0xe0,0x01,0x00,0x80,0x03,0xc0,0x01,0x00,0xc0,0xc0,
 0xc0,0xc0,0x00,0x07,0xe0,0x00,0x00,0x00,0x07,0xe0,0x00,0x00,0x80,0xc1,0x60,
 0xc0,0x00,0x1e,0x78,0x00,0x00,0x00,0x1e,0x78,0x00,0x00,0x00,0xc7,0x38,0xc0,
 0x00,0xf8,0x3f,0x00,0x00,0x00,0xf8,0x3f,0x00,0x00,0x00,0xfc,0x0f,0xc0,0x00,
 0xe0,0x07,0x00,0x00,0x00,0xe0,0x07,0x00,0x00,0x00,0xf0,0x03,0xc0,0x00,0x00,
 0x00,0x00,0x00,0x00,0x00,0x00,0x00,0x00,0x00,0x00,0x00,0xc0,0x00,0x00,0x00,
 0x00,0x00,0x00,0x00,0x00,0x00,0x00,0x00,0x00,0x00,0xc0,0x00,0x00,0x00,0x00,
 0x00,0x00,0x00,0x00,0x00,0x00,0x00,0x00,0x00,0xc0,0x00,0x00,0x00,0x00,0x00,
 0x00,0x00,0x00,0x00,0x00,0x00,0x00,0x00,0xc0,0x00,0x00,0x00,0x00,0x00,0x00,
 0x00,0x00,0x00,0x00,0x00,0x00,0x00,0xc0,0x00,0x00,0x00,0x00,0x00,0x00,0x00,
 0x00,0x00,0x00,0x00,0x00,0x00,0xc0,0x00,0x00,0x00,0x00,0x00,0x00,0x00,0x00,
 0x00,0x00,0x00,0x00,0x00,0xc0,0x00,0x00,0x00,0x00,0x00,0x00,0x00,0x00,0x00,
 0x00,0x00,0x00,0x00,0xc0,0x00,0x00,0x00,0x00,0x00,0x00,0x00,0x00,0x00,0x00,
 0x00,0x00,0x00,0xc0,0x00,0x00,0x00,0x00,0x00,0x00,0x00,0x00,0x00,0x00,0x00,
 0x00,0x00,0xc0,0x00,0x00,0x00,0x00,0x00,0x00,0x00,0x00,0x00,0x00,0x00,0x00,
 0x00,0xc0,0x00,0x00,0x00,0x00,0x00,0x00,0x00,0x00,0x00,0x00,0x00,0x00,0x00,
 0xc0,0x00,0x00,0x00,0x00,0x00,0x00,0x00,0x00,0x00,0x00,0x00,0x00,0x00,0xc0,
 0x00,0x00,0x00,0x00,0x00,0x00,0x00,0x00,0x00,0x00,0x00,0x00,0x00,0xc0,0x00,
 0x00,0x00,0x00,0x00,0x00,0x00,0x00,0x00,0x00,0x00,0x00,0x00,0xc0,0x00,0x00,
 0x00,0x00,0x00,0x00,0x00,0x00,0x00,0x00,0x00,0x00,0x00,0xc0,0x00,0x00,0x00,
 0x00,0x00,0x00,0x00,0x00,0x00,0x00,0x00,0x00,0x00,0xc0,0x00,0x00,0x00,0x00,
 0x00,0x00,0x00,0x00,0x00,0x00,0x00,0x00,0x00,0xc0,0x00,0xe0,0x07,0x00,0x00,
 0x00,0x03,0xc0,0x00,0x00,0x80,0x01,0x60,0xc0,0x00,0xf8,0x1f,0x00,0x00,0x00,
 0x03,0xc0,0x00,0x00,0x80,0x01,0x60,0xc0,0x00,0x3c,0x3c,0x00,0x00,0x00,0x03,
 0xc0,0x00,0x00,0x80,0x01,0x60,0xc0,0x00,0x0e,0x70,0x00,0x00,0x00,0x03,0xc0,
 0x00,0x00,0x80,0x01,0x60,0xc0,0x00,0x06,0x60,0x00,0x00,0x00,0x03,0xc0,0x00,
 0x00,0x80,0x01,0x60,0xc0,0x00,0x07,0xe0,0x00,0x00,0x00,0x03,0xc0,0x00,0x00,
 0x80,0x01,0x60,0xc0,0x00,0x03,0xc0,0x00,0x00,0x00,0x03,0xc0,0x00,0x00,0x80,
 0xc1,0x60,0xc0,0x00,0x03,0xc0,0x00,0x00,0x00,0x03,0xc0,0x00,0x00,0x80,0xc1,
 0x60,0xc0,0x00,0x03,0xc0,0x00,0x00,0x00,0x03,0xc0,0x00,0x00,0x80,0xc1,0x60,
 0xc0,0x00,0x03,0xc0,0x00,0x00,0x00,0x03,0xc0,0x00,0x00,0x80,0xf9,0x67,0xc0,
 0x00,0x03,0xc0,0x00,0x00,0x00,0x03,0xc0,0x00,0x00,0x80,0xf9,0x67,0xc0,0x00,
 0x03,0xc0,0x00,0x00,0x00,0x03,0xc0,0x00,0x00,0x80,0xc1,0x60,0xc0,0x00,0x03,
 0xc0,0x00,0x00,0x00,0x03,0xc0,0x00,0x00,0x80,0xc1,0x60,0xc0,0x00,0x03,0xc0,
 0x00,0x00,0x00,0x03,0xc0,0x00,0x00,0x80,0xc1,0x60,0xc0,0x00,0x03,0xc0,0x00,
 0x00,0x00,0x03,0xc0,0x00,0x00,0x80,0xc1,0x60,0xc0,0x00,0x03,0xc0,0x00,0x00,
 0x00,0x03,0xc0,0x00,0x00,0x80,0x01,0x60,0xc0,0x00,0x03,0xc0,0x00,0x00,0x00,
 0x07,0xe0,0x00,0x00,0x80,0x03,0x70,0xc0,0x00,0x03,0xc0,0x00,0x00,0x00,0x06,
 0x60,0x00,0x00,0x00,0x03,0x30,0xc0,0x00,0x03,0xc0,0x00,0x00,0x00,0x0e,0x70,
 0x00,0x00,0x00,0x07,0x38,0xc0,0x00,0x03,0xc0,0x00,0x00,0x00,0x3c,0x3c,0x00,
 0x00,0x00,0x1e,0x1e,0xc0,0x00,0x03,0xc0,0x00,0x00,0x00,0xf8,0x1f,0x00,0x00,
 0x00,0xfc,0x0f,0xc0,0x00,0x03,0xc0,0x00,0x00,0x00,0xe0,0x07,0x00,0x00,0x00,
 0xf0,0x03,0xc0,0x00,0x00,0x00,0x00,0x00,0x00,0x00,0x00,0x00,0x00,0x00,0x00,
 0x00,0xc0,0x00,0x00,0x00,0x00,0x00,0x00,0x00,0x00,0x00,0x00,0x00,0x00,0x00,
 0xc0,0x00,0x00,0x00,0x00,0x00,0x00,0x00,0x00,0x00,0x00,0x00,0x00,0x00,0xc0,
 0x00,0x00,0x00,0x00,0x00,0x00,0x00,0x00,0x00,0x00,0x00,0x00,0x00,0xc0,0x00,
 0x00,0x00,0x00,0x00,0x00,0x00,0x00,0x00,0x00,0x00,0x00,0x00,0xc0,0x00,0x00,
 0x00,0x00,0x00,0x00,0x00,0x00,0x00,0x00,0x00,0x00,0x00,0xc0,0x00,0x00,0x00,
 0x00,0x00,0x00,0x00,0x00,0x00,0x00,0x00,0x00,0x00,0xc0,0x00,0x00,0x00,0x00,
 0x00,0x00,0x00,0x00,0x00,0x00,0x00,0x00,0x00,0xc0,0x00,0x00,0x00,0x00,0x00,
 0x00,0x00,0x00,0x00,0x00,0x00,0x00,0x00,0xc0,0x00,0x00,0x00,0x00,0x00,0x00,
 0x00,0x00,0x00,0x00,0x00,0x00,0x00,0xc0,0x00,0x00,0x00,0x00,0x00,0x00,0x00,
 0x00,0x00,0x00,0x00,0x00,0x00,0xc0,0x00,0x00,0x00,0x00,0x00,0x00,0x00,0x00,
 0x00,0x00,0x00,0x00,0x00,0xc0,0x00,0x00,0x00,0x00,0x00,0x00,0x00,0x00,0x00,
 0x00,0x00,0x00,0x00,0xc0,0x00,0x00,0x00,0x00,0x00,0x00,0x00,0x00,0x00,0x00,
 0x00,0x00,0x00,0xc0,0x00,0x00,0x00,0x00,0x00,0x00,0x00,0x00,0x00,0x00,0x00,
 0x00,0x00,0xc0,0x00,0x00,0x00,0x00,0x00,0x00,0x00,0x00,0x00,0x00,0x00,0x00,
 0x00,0xc0,0x00,0x00,0x00,0x00,0x00,0x00,0x00,0x00,0x00,0x00,0x00,0x00,0x00,
 0xc0,0x00,0x01,0xc0,0x00,0x00,0x00,0x80,0x01,0x00,0x00,0x00,0x00,0x00,0xc0,
 0x00,0x03,0xc0,0x00,0x00,0x00,0x80,0x01,0x00,0x00,0x00,0x00,0x00,0xc0,0x00,
 0x02,0x40,0x00,0x00,0x00,0x80,0x01,0x00,0x00,0x00,0x00,0x00,0xc0,0x00,0x06,
 0x60,0x00,0x00,0x00,0xc0,0x03,0x00,0x00,0x00,0x00,0x00,0xc0,0x00,0x06,0x60,
 0x00,0x00,0x00,0x40,0x02,0x00,0x00,0x00,0x00,0x00,0xc0,0x00,0x04,0x20,0x00,
 0x00,0x00,0x40,0x02,0x00,0x00,0x00,0x00,0x00,0xc0,0x00,0x0c,0x30,0x00,0x00,
 0x00,0x60,0x06,0x00,0x00,0x00,0x00,0x00,0xc0,0x00,0x0c,0x30,0x00,0x00,0x00,
 0x20,0x04,0x00,0x00,0x00,0x00,0x00,0xc0,0x00,0x08,0x10,0x00,0x00,0x00,0x30,
 0x0c,0x00,0x00,0x00,0x00,0x00,0xc0,0x00,0x18,0x18,0x00,0x00,0x00,0x30,0x0c,
 0x00,0x00,0x00,0x00,0x00,0xc0,0x00,0x18,0x18,0x00,0x00,0x00,0x10,0x08,0x00,
 0x00,0x00,0x00,0x00,0xc0,0x00,0x10,0x08,0x00,0x00,0x00,0x18,0x18,0x00,0x00,
 0x00,0x00,0x00,0xc0,0x00,0x30,0x0c,0x00,0x00,0x00,0x18,0x18,0x00,0x00,0x00,
 0x00,0x00,0xc0,0x00,0x30,0x0c,0x00,0x00,0x00,0x08,0x10,0x00,0x00,0x00,0x00,
 0x00,0xc0,0x00,0x20,0x04,0x00,0x00,0x00,0x0c,0x30,0x00,0x00,0x00,0x00,0x00,
 0xc0,0x00,0x60,0x06,0x00,0x00,0x00,0x0c,0x30,0x00,0x00,0x00,0x00,0x00,0xc0,
 0x00,0x40,0x02,0x00,0x00,0x00,0x04,0x20,0x00,0x00,0x00,0x00,0x00,0xc0,0x00,
 0x40,0x02,0x00,0x00,0x00,0x06,0x60,0x00,0x00,0x00,0x00,0x00,0xc0,0x00,0xc0,
 0x03,0x00,0x00,0x00,0x06,0x60,0x00,0x00,0x00,0x00,0x00,0xc0,0x00,0x80,0x01,
 0x00,0x00,0x00,0x02,0x40,0x00,0x00,0x00,0x00,0x00,0xc0,0x00,0x80,0x01,0x00,
 0x00,0x00,0x03,0xc0,0x00,0x00,0x00,0x00,0x00,0xc0,0x00,0x80,0x01,0x00,0x00,
 0x00,0x01,0xc0,0x00,0x00,0x00,0x00,0x00,0xc0,0x00,0x00,0x00,0x00,0x00,0x00,
 0x00,0x00,0x00,0x00,0x00,0x00,0x00,0xc0,0x00,0x00,0x00,0x00,0x00,0x00,0x00,
 0x00,0x00,0x00,0x00,0x00,0x00,0xc0,0x00,0x00,0x00,0x00,0x00,0x00,0x00,0x00,
 0x00,0x00,0x00,0x00,0x00,0xc0,0x00,0x00,0x00,0x00,0x00,0x00,0x00,0x00,0x00,
 0x00,0x00,0x00,0x00,0xc0,0x00,0x00,0x00,0x00,0x00,0x00,0x00,0x00,0x00,0x00,
 0x00,0x00,0x00,0xc0,0x00,0x00,0x00,0x00,0x00,0x00,0x00,0x00,0x00,0x00,0x00,
 0x00,0x00,0xc0};


