/* XPM */
static char *a[] = {
/* columns rows colors chars-per-pixel */
"9 14 3 1",
"  c black",
". c black",
"X c None",
/* pixels */
"XXXX.....",
"XX..XXXX.",
"X.XXXXXXX",
"X.XXXXXXX",
".XXXXXXXX",
".XXXXXXXX",
".XXXXXXXX",
"...XXXXXX",
"X....XXXX",
"XXX...XXX",
"XXXXX..XX",
"XXXXXX.XX",
"XXXXX..XX",
"XXX..XXXX"
};
