/* XPM */
static char *vartriangleright[] = {
/* columns rows colors chars-per-pixel */
"11 19 3 1",
"  c black",
". c gray100",
"X c None",
/* pixels */
"XXXXXXXXXXX",
"XXXXXXXXXXX",
"XXXXXXXXXXX",
"XXXXXXXXXXX",
"XXXXXXXXXXX",
"XXXXXXXXXXX",
"XXXXXXXXXXX",
"X  XXXXXXXX",
"X X  XXXXXX",
"X XXX  XXXX",
"X XXXXX  XX",
"X XXXXXXX X",
"X XXXXX  XX",
"X XXX  XXXX",
"X X  XXXXXX",
"X  XXXXXXXX",
"XXXXXXXXXXX",
"XXXXXXXXXXX",
"XXXXXXXXXXX"
};
