/* XPM */
static char *a[] = {
/* columns rows colors chars-per-pixel */
"15 16 3 1",
"  c black",
". c #5972ff",
"X c None",
/* pixels */
".XXXXXXXXXXXXXX",
"...XXXXXXXXXXXX",
".XX..XXXXXXXXXX",
".XXXX..XXXXXXXX",
".XXXXXX.XXXXXXX",
".XXXXXXX..XXXXX",
".XXXXXXXXX..XXX",
".XXXXXXXXXXX..X",
".XXXXXXXXXXXXX.",
".XXXXXXXXXXX..X",
".XXXXXXXXX..XXX",
".XXXXXXX..XXXXX",
".XXXXX..XXXXXXX",
".XXX..XXXXXXXXX",
".X..XXXXXXXXXXX",
"..XXXXXXXXXXXXX"
};
