/* XPM */
static char *a[] = {
/* columns rows colors chars-per-pixel */
"11 17 3 1",
"  c black",
". c black",
"X c None",
/* pixels */
"XXXXXXXX.XX",
"XXXXXXXXX.X",
"...........",
"XXXXXXXXX.X",
"XXXXXXXX.XX",
"XXXXXXXXXXX",
".X.X.X.X.X.",
"XXXXXXXXXXX",
".XXXXXXXXX.",
"XXXXXXXXXXX",
".XXXXXXXXX.",
"XXXXXXXXXXX",
".XXXXXXXXX.",
"XXXXXXXXXXX",
".XXXXXXXXX.",
"XXXXXXXXXXX",
".X.X.X.X.X."
};
