/* XPM */
static char *veebar[] = {
/* columns rows colors chars-per-pixel */
"9 19 3 1",
"  c black",
". c gray100",
"X c None",
/* pixels */
"XXXXXXXXX",
"XXXXXXXXX",
"XXXXXXXXX",
"XXXXXXXXX",
"X XXXXX X",
"X XXXXX X",
"XX XXX XX",
"XX XXX XX",
"XXX X XXX",
"XXX X XXX",
"XXXX XXXX",
"XXXX XXXX",
"XXXXXXXXX",
"XXXXXXXXX",
"X       X",
"XXXXXXXXX",
"XXXXXXXXX",
"XXXXXXXXX",
"XXXXXXXXX"
};
