/* XPM */
static char *vert[] = {
/* columns rows colors chars-per-pixel */
"3 19 3 1",
"  c black",
". c gray100",
"X c None",
/* pixels */
"XXX",
"XXX",
"XXX",
"XXX",
"X X",
"X X",
"X X",
"X X",
"X X",
"X X",
"X X",
"X X",
"X X",
"X X",
"X X",
"X X",
"X X",
"X X",
"X X"
};
