/* XPM */
static char *a[] = {
/* columns rows colors chars-per-pixel */
"29 16 3 1",
"  c black",
". c black",
"X c None",
/* pixels */
"XXXXXX.......XXXXXXXXXXXXXX..",
"XX....XXXXXXX...XXXXXXXX...XX",
"..XXXXXXXXXXXXXX........XXXXX",
"XXXXXXXXXXXXXXXXXXXXXXXXXXXXX",
"XXXXXXXXXXXXXXXXXXXXXXXXXXXXX",
"XXXXXXXXX.X.X.X.X.X.XXXXXXXXX",
"XXXXXXXXXXXXXXXXXXXXXXXXXXXXX",
"XXXXXXXXX.XXXXXXXXX.XXXXXXXXX",
"XXXXXXXXXXXXXXXXXXXXXXXXXXXXX",
"XXXXXXXXX.XXXXXXXXX.XXXXXXXXX",
"XXXXXXXXXXXXXXXXXXXXXXXXXXXXX",
"XXXXXXXXX.XXXXXXXXX.XXXXXXXXX",
"XXXXXXXXXXXXXXXXXXXXXXXXXXXXX",
"XXXXXXXXX.XXXXXXXXX.XXXXXXXXX",
"XXXXXXXXXXXXXXXXXXXXXXXXXXXXX",
"XXXXXXXXX.X.X.X.X.X.XXXXXXXXX"
};
