/* XPM */
static char *wp[] = {
/* columns rows colors chars-per-pixel */
"10 19 3 1",
"  c black",
". c gray100",
"X c None",
/* pixels */
"XXXXXXXXXX",
"XXXXXXXXXX",
"XXXXXXXXXX",
"XXXXXXXXXX",
"XXXXXXXXXX",
"XXXXXXXXXX",
"XXXXXXXXXX",
"XXXXXXXXXX",
"XX XXXXXXX",
"X XX    XX",
"X X XXXX X",
"X X XXXX X",
"X  XXXXX X",
"X  X XX XX",
"XX XX  XXX",
"X X XXXXXX",
"X X XXXXXX",
"XX XXXXXXX",
"XXXXXXXXXX"
};
