/* XPM */
static char *a[] = {
/* columns rows colors chars-per-pixel */
"4 14 3 1",
"  c black",
". c #5972ff",
"X c None",
/* pixels */
"...X",
"XX.X",
"XXX.",
"XXX.",
"XXX.",
"XX.X",
"XX.X",
"X.XX",
".XXX",
".XXX",
".XXX",
".XXX",
"X.XX",
"X..."
};
