/* XPM */
static char *a[] = {
/* columns rows colors chars-per-pixel */
"14 16 3 1",
"  c #000000",
". c #000000",
"X c None",
/* pixels */
"..............",
"..............",
".XXXXXXXXXXXX.",
".XXXXXXXXXXXX.",
"XXXXXXXXXXXXXX",
"XXXXXXXXXXXXXX",
"XX.XXXXXXXX.XX",
"XX..........XX",
"XX..........XX",
"XX.XXXXXXXX.XX",
"XXXXXXXXXXXXXX",
"XXXXXXXXXXXXXX",
".XXXXXXXXXXXX.",
".XXXXXXXXXXXX.",
"..............",
".............."
};
