/* XPM */
static char *a[] = {
/* columns rows colors chars-per-pixel */
"10 22 3 1",
"  c black",
". c #5972ff",
"X c None",
/* pixels */
"XXXXXX.XXX",
"XXXXXX.XXX",
"XXXXXX....",
"XXXXX.....",
"XXXX.XXXXX",
"XXX.XXXXXX",
"XX..XXXXXX",
"XX.XXXXXXX",
"X.XXXXXXXX",
"X.XXXXXXXX",
"..XXXXXXXX",
".XXXXXXXXX",
".XXXXXXXXX",
".XXXXXXXXX",
"..XXXXXXXX",
"X..XXXXXXX",
"XX....XXXX",
"XXXX...XXX",
"XXXXXXX.XX",
"XXXXXXX.XX",
"XXX.XXX.XX",
"XXXX...XXX"
};
