/* XPM */
static char *zeta[] = {
/* columns rows colors chars-per-pixel */
"9 19 3 1",
"  c black",
". c gray100",
"X c None",
/* pixels */
"XXXXXXXXX",
"XXXXXXXXX",
"XXXXXXXXX",
"XXXXXXXXX",
"XXXXX XXX",
"XXXXX   X",
"XXXX    X",
"XXX XXXXX",
"XX XXXXXX",
"XX XXXXXX",
"X XXXXXXX",
"X XXXXXXX",
"X XXXXXXX",
"X XXXXXXX",
"XX  XXXXX",
"XXXX  XXX",
"XXXXXX XX",
"XXXX  XXX",
"XXXXXXXXX"
};
