/* XPM */
static char * bar_xpm[] = {
"16 27 2 1",
" 	c None",
".	c #5972ff",
"++++++++++++++++",
"++++++++++++++++",
"++++++++++++++++",
"+++.++++++++++++",
"+++.++++++++++++",
"+++.++++++++++++",
"+++.++++++++++++",
"+++.++++++++++++",
"+++.++++++++++++",
"+++.++++++++++++",
"+++.++++++++++++",
"+++.++++++++++++",
"+++.++++++++++++",
"+++.++++++++++++",
"+++.++++++++++++",
"+++.++++++++++++",
"+++.++++++++++++",
"+++.++++++++++++",
"+++.++++++++++++",
"+++.++++++++++++",
"+++.++++++++++++",
"+++.++++++++++++",
"+++.++++++++++++",
"+++.++++++++++++",
"+++.++++++++++++",
"+++.++++++++++++",
"++++++++++++++++"};
