/* XPM */
static const char * ams_brel_xpm[] = {
"22 13 2 1",
".	c None",
"+	c #0000FF",
"......................",
"......................",
"......................",
".......++.............",
".....++........++.+...",
"...++.........+.++....",
".....++...............",
".......++.....+++++...",
"......................",
"...++++++.....+++++...",
"......................",
"......................",
"......................"};
