/* XPM */
static const char * greek_xpm[] = {
"31 20 2 1",
".	c None",
"+	c #000000",
"...............................",
"...............................",
"...............++++............",
"..............+...++...........",
"..............+....+...........",
"..............+....+...........",
"....+++..++...+...++..++....+..",
"...++..+.++...+.+++..+.+....+..",
"..++....++....+...++.+..+..+...",
"..++....++....+....++...+..+...",
"..++....++....+....++...+.+....",
"..++....+.....+.....+...+.+....",
"..++...++..+..+.....+....+.....",
"...++..+.+.+..++...++....+.....",
"....+++...+...+.++++....+......",
"..............+.........+......",
"..............+........++......",
"..............+........++......",
".............++........++......",
"..............................."};
