/* XPM */
static char const * close_xpm[] = {
"20 20 5 1",
" 	c #BFBFBFBFBFBF",
".	c #7B7B00000000",
"X	c #000000000000",
"o	c #9A9A94949494",
"O	c #E5E5E0E0E1E1",
"               .... ",
"               ..   ",
"               . .. ",
" XXXXX         .   .",
"XXooooX            .",
"XooooooXXXXXXXX    .",
"XoooooooooooooX   . ",
"XoooooooooooooX     ",
"XoooooooooooooX     ",
"XooooXXXXXXXXXXXXXXX",
"XooooXOOOOOOOOOOOOOX",
"XoooXOOOOOOOOOOOOOX ",
"XoooXOOOOOOOOOOOOOX ",
"XooXOOOOOOOOOOOOOX  ",
"XooXOOOOOOOOOOOOOX  ",
"XoXOOOOOOOOOOOOOX   ",
"XoXOOOOOOOOOOOOOX   ",
"XXOOOOOOOOOOOOOX    ",
"XXOOOOOOOOOOOOOX    ",
"XXXXXXXXXXXXXXX     "};


