/* XPM */
static char const * deco[] = {
"20 20 3 1",
" 	c None",
".	c Black",
"X	c Blue",
"                    ",
"                    ",
"              ...   ",
"     ..........     ",
"    ..........      ",
"   ..               ",
"   .  XXXXXXXX      ",
"      XXXXXXXX      ",
"      XX    XX      ",
"      XX    XX      ",
"      XX    XX      ",
"      XX    XX      ",
"      XX    XX      ",
"      XX    XX      ",
"      XX    XX      ",
"      XXXXXXXX      ",
"      XXXXXXXX      ",
"                    ",
"                    ",
"                    "};


