/* XPM */
static char const * delim0[] = {
/* width height num_colors chars_per_pixel */
"    31    31        2            1",
/* colors */
"# c #a2a2a2",
"a c #0000ff",
/* pixels */
"###############################",
"###############################",
"###############################",
"###############################",
"#######a###########a###########",
"######a#############a##########",
"#####a###############a#########",
"#####a################a########",
"####a##################a#######",
"####a##################a#######",
"####a##################a#######",
"###a####################a######",
"###a####################a######",
"###a####################a######",
"###a####################a######",
"###a####################a######",
"###a####################a######",
"###a####################a######",
"###a####################a######",
"###a####################a######",
"####a##################a#######",
"####a##################a#######",
"####a##################a#######",
"#####a################a########",
"#####a###############a#########",
"######a##############a#########",
"#######a############a##########",
"###############################",
"###############################",
"###############################",
"###############################"
};


