
#define font1_width 60
#define font1_height 180
static unsigned char const font1_bits[] = {
   0x00, 0x00, 0x00, 0x00, 0x00, 0x00, 0x00, 0x00, 0x00, 0x00, 0x00, 0x00,
   0x00, 0x00, 0x00, 0x00, 0x00, 0x00, 0x00, 0x00, 0x00, 0x00, 0x00, 0x00,
   0x00, 0xfe, 0x01, 0x00, 0x00, 0xf8, 0x07, 0x00, 0x00, 0xfe, 0x01, 0x00,
   0x00, 0x3e, 0x0f, 0x00, 0x00, 0xf0, 0x01, 0x00, 0x00, 0x8f, 0x0f, 0x00,
   0x00, 0xf0, 0x01, 0x00, 0x00, 0x8f, 0x0f, 0x00, 0x00, 0xf0, 0x01, 0x00,
   0x80, 0x07, 0x0f, 0x00, 0x00, 0xf0, 0x01, 0x00, 0x80, 0x07, 0x07, 0x00,
   0x00, 0xf0, 0x01, 0x00, 0x80, 0x07, 0x00, 0x00, 0x00, 0xf0, 0x01, 0x00,
   0x80, 0x07, 0x00, 0x00, 0x00, 0xf0, 0x01, 0x00, 0x80, 0x07, 0x00, 0x00,
   0x00, 0xf0, 0x01, 0x00, 0x80, 0x07, 0x00, 0x00, 0x00, 0xf0, 0xf1, 0x01,
   0xf0, 0xff, 0x00, 0x00, 0x00, 0xf0, 0xfd, 0x0f, 0xf0, 0xff, 0x00, 0x00,
   0x00, 0xf0, 0x07, 0x3e, 0x80, 0x0f, 0x00, 0x00, 0x00, 0xf0, 0x01, 0x7c,
   0x80, 0x0f, 0x00, 0x00, 0x00, 0xf0, 0x01, 0x78, 0x80, 0x0f, 0x00, 0x00,
   0x00, 0xf0, 0x01, 0xf8, 0x80, 0x0f, 0x00, 0x00, 0x00, 0xf0, 0x01, 0xf8,
   0x80, 0x0f, 0x00, 0x00, 0x00, 0xf0, 0x01, 0xf8, 0x81, 0x0f, 0x00, 0x00,
   0x00, 0xf0, 0x01, 0xf8, 0x81, 0x0f, 0x00, 0x00, 0x00, 0xf0, 0x01, 0xf8,
   0x81, 0x0f, 0x00, 0x00, 0x00, 0xf0, 0x01, 0xf8, 0x81, 0x0f, 0x00, 0x00,
   0x00, 0xf0, 0x01, 0xf8, 0x81, 0x0f, 0x00, 0x00, 0x00, 0xf0, 0x01, 0xf8,
   0x80, 0x0f, 0x00, 0x00, 0x00, 0xf0, 0x01, 0xf8, 0x80, 0x0f, 0x00, 0x00,
   0x00, 0xf0, 0x01, 0x78, 0x80, 0x0f, 0x00, 0x00, 0x00, 0xf0, 0x03, 0x7c,
   0x80, 0x0f, 0x00, 0x00, 0x00, 0xf0, 0x07, 0x1e, 0x80, 0x0f, 0x00, 0x00,
   0x00, 0x70, 0xfc, 0x0f, 0xf0, 0x7f, 0x00, 0x00, 0x00, 0x70, 0xf0, 0x01,
   0xf0, 0x7f, 0x00, 0x00, 0x00, 0x00, 0x00, 0x00, 0x00, 0x00, 0x00, 0x00,
   0x00, 0x00, 0x00, 0x00, 0x00, 0x00, 0x00, 0x00, 0x00, 0x00, 0x00, 0x00,
   0x00, 0x00, 0x00, 0x00, 0x00, 0x00, 0x00, 0x00, 0x00, 0x00, 0x00, 0x00,
   0x00, 0x00, 0x00, 0x00, 0x00, 0x00, 0x00, 0x00, 0x00, 0x00, 0x00, 0x00,
   0x00, 0x00, 0x00, 0x00, 0x00, 0x00, 0x00, 0x00, 0x00, 0x00, 0x00, 0x00,
   0x00, 0x00, 0x00, 0x00, 0x00, 0x0f, 0x00, 0x00, 0x00, 0x00, 0x00, 0x00,
   0xc0, 0x1f, 0x00, 0x00, 0x00, 0x00, 0x00, 0x00, 0xe0, 0x1f, 0x00, 0x00,
   0x00, 0x00, 0x00, 0x00, 0x70, 0x00, 0x00, 0x00, 0x00, 0x00, 0x00, 0x00,
   0x38, 0x00, 0x00, 0x00, 0x00, 0x00, 0x00, 0x00, 0x38, 0x00, 0x00, 0x00,
   0x00, 0x00, 0x00, 0x00, 0x38, 0x00, 0x00, 0x00, 0x00, 0x00, 0x00, 0x00,
   0x38, 0x00, 0x00, 0x00, 0x00, 0x00, 0x00, 0x00, 0x38, 0x00, 0x00, 0x00,
   0x00, 0x00, 0x00, 0x00, 0x38, 0x00, 0x00, 0x00, 0x00, 0x00, 0x00, 0x00,
   0x38, 0x00, 0x00, 0x00, 0x00, 0x00, 0xf8, 0x0f, 0xff, 0x07, 0x00, 0x00,
   0x00, 0x00, 0xfe, 0x1f, 0xff, 0x07, 0x00, 0x00, 0x00, 0x00, 0x0e, 0x1c,
   0xff, 0x07, 0x00, 0x00, 0x00, 0x00, 0x07, 0x10, 0x38, 0x00, 0x00, 0x00,
   0x00, 0x00, 0x07, 0x00, 0x38, 0x00, 0x00, 0x00, 0x00, 0x00, 0x07, 0x00,
   0x38, 0x00, 0x00, 0x00, 0x00, 0x00, 0x0f, 0x00, 0x38, 0x00, 0x00, 0x00,
   0x00, 0x00, 0x7e, 0x00, 0x38, 0x00, 0x00, 0x00, 0x00, 0x00, 0xfc, 0x07,
   0x38, 0x00, 0x00, 0x00, 0x00, 0x00, 0xf8, 0x0f, 0x38, 0x00, 0x00, 0x00,
   0x00, 0x00, 0xc0, 0x1f, 0x38, 0x00, 0x00, 0x00, 0x00, 0x00, 0x00, 0x1e,
   0x38, 0x00, 0x00, 0x00, 0x00, 0x00, 0x00, 0x3c, 0x38, 0x00, 0x00, 0x00,
   0x00, 0x00, 0x00, 0x38, 0x38, 0x00, 0x00, 0x00, 0x00, 0x00, 0x00, 0x38,
   0x38, 0x00, 0x00, 0x00, 0x00, 0x00, 0x03, 0x1c, 0x38, 0x00, 0x00, 0x00,
   0x00, 0x00, 0x1f, 0x1e, 0x38, 0x00, 0x00, 0x00, 0x00, 0x00, 0xff, 0x0f,
   0x38, 0x00, 0x00, 0x00, 0x00, 0x00, 0xfc, 0x07, 0x38, 0x00, 0x00, 0x00,
   0x00, 0x00, 0x00, 0x00, 0x00, 0x00, 0x00, 0x00, 0x00, 0x00, 0x00, 0x00,
   0x00, 0x00, 0x00, 0x00, 0x00, 0x00, 0x00, 0x00, 0x00, 0x00, 0x00, 0x00,
   0x00, 0x00, 0x00, 0x00, 0x00, 0x00, 0x00, 0x00, 0x00, 0x00, 0x00, 0x00,
   0x00, 0x00, 0x00, 0x00, 0x00, 0x00, 0x00, 0x00, 0x00, 0x00, 0x00, 0x00,
   0x00, 0x00, 0x00, 0x00, 0x00, 0x00, 0x00, 0x00, 0x00, 0x00, 0x00, 0x00,
   0x00, 0x00, 0x00, 0x00, 0x00, 0x00, 0x00, 0x00, 0x00, 0x00, 0x00, 0x00,
   0x00, 0x00, 0x00, 0x00, 0x00, 0x00, 0x00, 0x00, 0x00, 0x00, 0x00, 0x00,
   0x00, 0x00, 0x00, 0x00, 0xf0, 0xe7, 0xe1, 0xc7, 0x0f, 0xfe, 0x00, 0x00,
   0x00, 0x97, 0x03, 0x27, 0x18, 0xc3, 0x01, 0x00, 0x00, 0x8f, 0x03, 0x17,
   0xb8, 0x80, 0x03, 0x00, 0x00, 0x8f, 0x03, 0x0f, 0xf0, 0x80, 0x03, 0x00,
   0x00, 0x07, 0x00, 0x07, 0x70, 0x80, 0x03, 0x00, 0x00, 0x07, 0x00, 0x07,
   0x70, 0x80, 0x03, 0x00, 0x00, 0x07, 0x00, 0x07, 0x70, 0x80, 0x03, 0x00,
   0x00, 0x07, 0x00, 0x07, 0x70, 0x80, 0x03, 0x00, 0x00, 0x07, 0x00, 0x07,
   0x70, 0x80, 0x03, 0x00, 0x00, 0x07, 0x00, 0x07, 0x70, 0x80, 0x03, 0x00,
   0x00, 0x07, 0x00, 0x07, 0x70, 0x80, 0x03, 0x00, 0x00, 0x07, 0x00, 0x07,
   0x70, 0x80, 0x03, 0x00, 0x00, 0x07, 0x00, 0x07, 0x70, 0x80, 0x03, 0x00,
   0x00, 0x07, 0x00, 0x07, 0x70, 0x80, 0x03, 0x00, 0x00, 0x07, 0x00, 0x07,
   0x70, 0x80, 0x03, 0x00, 0x00, 0x07, 0x00, 0x07, 0x70, 0x80, 0x03, 0x00,
   0x00, 0x07, 0x00, 0x07, 0x70, 0x80, 0x03, 0x00, 0xf0, 0x3f, 0xe0, 0x3f,
   0xff, 0xf3, 0x1f, 0x00, 0x00, 0x00, 0x00, 0x00, 0x00, 0x00, 0x00, 0x00,
   0x00, 0x00, 0x00, 0x00, 0x00, 0x00, 0x00, 0x00, 0x00, 0x00, 0x00, 0x00,
   0x00, 0x00, 0x00, 0x00, 0x00, 0x00, 0x00, 0x00, 0x00, 0x00, 0x00, 0x00,
   0x00, 0x00, 0x00, 0x00, 0x00, 0x00, 0x00, 0x00, 0x00, 0x00, 0x00, 0x00,
   0x00, 0x00, 0x00, 0x00, 0x00, 0x00, 0x00, 0x00, 0x00, 0x00, 0x00, 0x00,
   0x00, 0x00, 0x00, 0x00, 0x00, 0x00, 0x00, 0x00, 0x00, 0x00, 0x00, 0x00,
   0x00, 0x00, 0x00, 0x00, 0x00, 0x00, 0x00, 0x00, 0x00, 0x00, 0x00, 0x00,
   0x00, 0x00, 0x00, 0x00, 0x00, 0x00, 0x00, 0x00, 0x00, 0x00, 0x00, 0x00,
   0x00, 0x00, 0x00, 0x00, 0x00, 0x00, 0x00, 0x00, 0x00, 0x00, 0x00, 0x00,
   0x00, 0x00, 0x00, 0x1c, 0x00, 0x00, 0x00, 0x00, 0x00, 0x00, 0x00, 0x1e,
   0x80, 0x01, 0x00, 0x00, 0x00, 0x00, 0x00, 0x0e, 0xc0, 0x01, 0x00, 0x00,
   0x00, 0x00, 0x00, 0x00, 0xc0, 0x01, 0x00, 0x00, 0x00, 0x00, 0x00, 0x00,
   0xc0, 0x01, 0x00, 0x00, 0x00, 0x00, 0x00, 0x00, 0xc0, 0x00, 0x00, 0x00,
   0x00, 0x00, 0x00, 0x00, 0xe0, 0x00, 0x00, 0x00, 0x00, 0x00, 0x00, 0x00,
   0xe0, 0x00, 0x00, 0x00, 0x00, 0x00, 0x00, 0x00, 0xe0, 0x00, 0x00, 0x00,
   0x00, 0x00, 0xc0, 0x03, 0xff, 0x0f, 0x00, 0x00, 0x00, 0x00, 0x20, 0x06,
   0xff, 0x0f, 0x00, 0x00, 0x00, 0x00, 0x10, 0x06, 0x70, 0x00, 0x00, 0x00,
   0x00, 0x00, 0x10, 0x06, 0x70, 0x00, 0x00, 0x00, 0x00, 0x00, 0x18, 0x07,
   0x30, 0x00, 0x00, 0x00, 0x00, 0x00, 0x08, 0x07, 0x38, 0x00, 0x00, 0x00,
   0x00, 0x00, 0x08, 0x03, 0x38, 0x00, 0x00, 0x00, 0x00, 0x00, 0x80, 0x03,
   0x38, 0x00, 0x00, 0x00, 0x00, 0x00, 0x80, 0x03, 0x18, 0x00, 0x00, 0x00,
   0x00, 0x00, 0xc0, 0x01, 0x1c, 0x00, 0x00, 0x00, 0x00, 0x00, 0xc0, 0x01,
   0x1c, 0x00, 0x00, 0x00, 0x00, 0x00, 0xc0, 0x00, 0x1c, 0x00, 0x00, 0x00,
   0x00, 0x00, 0xe0, 0x10, 0x0c, 0x04, 0x00, 0x00, 0x00, 0x00, 0xe0, 0x18,
   0x0e, 0x06, 0x00, 0x00, 0x00, 0x00, 0x70, 0x08, 0x0e, 0x02, 0x00, 0x00,
   0x00, 0x00, 0x70, 0x08, 0x0e, 0x03, 0x00, 0x00, 0x00, 0x00, 0x70, 0x04,
   0x8c, 0x01, 0x00, 0x00, 0x00, 0x00, 0x60, 0x02, 0xcc, 0x00, 0x00, 0x00,
   0x00, 0x00, 0xc0, 0x01, 0x38, 0x00, 0x00, 0x00, 0x00, 0x00, 0x00, 0x00,
   0x00, 0x00, 0x00, 0x00, 0x00, 0x00, 0x00, 0x00, 0x00, 0x00, 0x00, 0x00,
   0x00, 0x00, 0x00, 0x00, 0x00, 0x00, 0x00, 0x00, 0x00, 0x00, 0x00, 0x00,
   0x00, 0x00, 0x00, 0x00, 0x00, 0x00, 0x00, 0x00, 0x00, 0x00, 0x00, 0x00,
   0x00, 0x00, 0x00, 0x00, 0x00, 0x00, 0x00, 0x00, 0x00, 0x00, 0x00, 0x00,
   0x00, 0x00, 0x00, 0x00, 0x00, 0x00, 0x00, 0x00, 0x00, 0x00, 0x00, 0x00,
   0x00, 0x00, 0x00, 0x00, 0x00, 0x00, 0x00, 0x00, 0x00, 0x00, 0x00, 0x00,
   0x00, 0x00, 0x00, 0x00, 0x00, 0x00, 0x03, 0x00, 0xc0, 0x00, 0x00, 0x00,
   0x00, 0x80, 0x03, 0x00, 0xe0, 0x00, 0x00, 0x00, 0x00, 0x80, 0x03, 0x00,
   0xe0, 0x00, 0x00, 0x00, 0x00, 0x80, 0x03, 0x00, 0xe0, 0x00, 0x00, 0x00,
   0x00, 0x80, 0x03, 0x00, 0xe0, 0x00, 0x00, 0x00, 0x00, 0xfc, 0xff, 0x03,
   0xff, 0xff, 0x00, 0x00, 0x00, 0xfc, 0xff, 0x03, 0xff, 0xff, 0x00, 0x00,
   0x00, 0xfc, 0xff, 0x03, 0xff, 0xff, 0x00, 0x00, 0x00, 0x80, 0x03, 0x00,
   0xe0, 0x00, 0x00, 0x00, 0x00, 0x80, 0x03, 0x00, 0xe0, 0x00, 0x00, 0x00,
   0x00, 0x80, 0x03, 0x00, 0xe0, 0x00, 0x00, 0x00, 0x00, 0x80, 0x03, 0x00,
   0xe0, 0x00, 0x00, 0x00, 0x00, 0x80, 0x03, 0x00, 0xe0, 0x00, 0x00, 0x00,
   0x00, 0x80, 0x03, 0x00, 0xe0, 0x00, 0x00, 0x00, 0x00, 0x80, 0x03, 0x00,
   0xe0, 0x00, 0x00, 0x00, 0x00, 0x80, 0x03, 0x00, 0xe0, 0x00, 0x00, 0x00,
   0x00, 0x80, 0x03, 0x06, 0xe0, 0x80, 0x01, 0x00, 0x00, 0x80, 0x03, 0x07,
   0xe0, 0xc0, 0x01, 0x00, 0x00, 0x80, 0x03, 0x07, 0xe0, 0xc0, 0x01, 0x00,
   0x00, 0x80, 0x03, 0x07, 0xe0, 0xc0, 0x01, 0x00, 0x00, 0x00, 0x8f, 0x07,
   0xc0, 0xe3, 0x01, 0x00, 0x00, 0x00, 0xff, 0x03, 0xc0, 0xff, 0x00, 0x00,
   0x00, 0x00, 0xfc, 0x00, 0x00, 0x3f, 0x00, 0x00, 0x00, 0x00, 0x00, 0x00,
   0x00, 0x00, 0x00, 0x00, 0x00, 0x00, 0x00, 0x00, 0x00, 0x00, 0x00, 0x00,
   0x00, 0x00, 0x00, 0x00, 0x00, 0x00, 0x00, 0x00, 0x00, 0x00, 0x00, 0x00,
   0x00, 0x00, 0x00, 0x00, 0x00, 0x00, 0x00, 0x00, 0x00, 0x00, 0x00, 0x00,
   0x00, 0x00, 0x00, 0x00, 0x00, 0x00, 0x00, 0x00, 0x00, 0x00, 0x00, 0x00,
   0x00, 0x00, 0x00, 0x00, 0x00, 0x00, 0x00, 0x00, 0x00, 0x00, 0x00, 0x00};

#define font2_width 100
#define font2_height 120
static unsigned char const font2_bits[] = {
   0x00, 0x00, 0x00, 0x00, 0x00, 0x00, 0x00, 0x00, 0x00, 0x00, 0x00, 0x00,
   0x00, 0x00, 0x00, 0x00, 0x00, 0x00, 0x00, 0x00, 0x00, 0x00, 0x00, 0x00,
   0x00, 0x00, 0x00, 0x00, 0x00, 0x00, 0x00, 0x00, 0x00, 0x00, 0x00, 0x00,
   0x00, 0x00, 0x00, 0x00, 0x00, 0x00, 0x00, 0x00, 0x00, 0x00, 0x00, 0x00,
   0x00, 0x00, 0x00, 0x00, 0x00, 0x00, 0x00, 0x00, 0x00, 0x00, 0x00, 0x00,
   0x00, 0x00, 0x00, 0x00, 0x00, 0x00, 0x00, 0x00, 0x00, 0x00, 0x00, 0x00,
   0x00, 0x00, 0x00, 0x00, 0x00, 0x00, 0x00, 0x00, 0xf8, 0xff, 0x0f, 0x80,
   0xff, 0xff, 0x00, 0x00, 0x00, 0x00, 0x00, 0x00, 0x00, 0xf8, 0xff, 0x7f,
   0x80, 0xff, 0xff, 0x07, 0x00, 0x00, 0x00, 0x00, 0x00, 0x00, 0x80, 0x31,
   0xcc, 0x01, 0x18, 0xc3, 0x1c, 0x00, 0x00, 0x00, 0x00, 0x00, 0x00, 0x80,
   0x31, 0x18, 0x03, 0x18, 0x83, 0x31, 0x00, 0x00, 0x00, 0x00, 0x00, 0x00,
   0x80, 0x31, 0x10, 0x02, 0x18, 0x03, 0x21, 0x00, 0x00, 0x00, 0x00, 0x00,
   0x00, 0x80, 0x31, 0x30, 0x06, 0x18, 0x03, 0x63, 0x00, 0x00, 0x00, 0x00,
   0x00, 0x00, 0x80, 0x31, 0x30, 0x06, 0x18, 0x03, 0x63, 0x00, 0x00, 0x00,
   0x00, 0x00, 0x00, 0x80, 0x31, 0x30, 0x06, 0x18, 0x03, 0x63, 0x00, 0x00,
   0x00, 0x00, 0x00, 0x00, 0x80, 0x31, 0x30, 0x06, 0x18, 0x03, 0x63, 0x00,
   0x00, 0x00, 0x00, 0x00, 0x00, 0x80, 0x31, 0x30, 0x02, 0x18, 0x03, 0x23,
   0x00, 0x00, 0x00, 0x00, 0x00, 0x00, 0x80, 0x31, 0x10, 0x03, 0x18, 0x03,
   0x31, 0x00, 0x00, 0x00, 0x00, 0x00, 0x00, 0x80, 0x31, 0x98, 0x01, 0x18,
   0x83, 0x19, 0x00, 0x00, 0x00, 0x00, 0x00, 0x00, 0x80, 0x31, 0xec, 0x00,
   0x18, 0xc3, 0x0e, 0x00, 0x00, 0x00, 0x00, 0x00, 0x00, 0x80, 0xf1, 0x3f,
   0x00, 0x18, 0xff, 0x03, 0x00, 0x00, 0x00, 0x00, 0x00, 0x00, 0x80, 0xf1,
   0xff, 0x01, 0x18, 0xff, 0x1f, 0x00, 0x00, 0x00, 0x00, 0x00, 0x00, 0x80,
   0x31, 0x18, 0x03, 0x18, 0x83, 0x31, 0x00, 0x00, 0x00, 0x00, 0x00, 0x00,
   0x80, 0x31, 0x30, 0x06, 0x18, 0x03, 0x63, 0x00, 0x00, 0x00, 0x00, 0x00,
   0x00, 0x80, 0x31, 0x20, 0x0c, 0x18, 0x03, 0xc2, 0x00, 0x00, 0x00, 0x00,
   0x00, 0x00, 0x80, 0x31, 0x60, 0x08, 0x18, 0x03, 0x86, 0x00, 0x00, 0x00,
   0x00, 0x00, 0x00, 0x80, 0x31, 0x60, 0x18, 0x18, 0x03, 0x86, 0x01, 0x00,
   0x00, 0x00, 0x00, 0x00, 0x80, 0x31, 0x60, 0x18, 0x18, 0x03, 0x86, 0x01,
   0x00, 0x00, 0x00, 0x00, 0x00, 0x80, 0x31, 0x60, 0x18, 0x18, 0x03, 0x86,
   0x01, 0x00, 0x00, 0x00, 0x00, 0x00, 0x80, 0x31, 0x60, 0x18, 0x18, 0x03,
   0x86, 0x01, 0x00, 0x00, 0x00, 0x00, 0x00, 0x80, 0x31, 0x60, 0x08, 0x18,
   0x03, 0x86, 0x00, 0x00, 0x00, 0x00, 0x00, 0x00, 0x80, 0x31, 0x20, 0x0c,
   0x18, 0x03, 0xc2, 0x00, 0x00, 0x00, 0x00, 0x00, 0x00, 0x80, 0x31, 0x30,
   0x07, 0x18, 0x03, 0x73, 0x00, 0x00, 0x00, 0x00, 0x00, 0x00, 0x80, 0x31,
   0xd8, 0x03, 0x18, 0x83, 0x3d, 0x00, 0x00, 0x00, 0x00, 0x00, 0x00, 0xf8,
   0xff, 0xff, 0x80, 0xff, 0xff, 0x0f, 0x00, 0x00, 0x00, 0x00, 0x00, 0x00,
   0xf8, 0xff, 0x0f, 0x80, 0xff, 0xff, 0x00, 0x00, 0x00, 0x00, 0x00, 0x00,
   0x00, 0x00, 0x00, 0x00, 0x00, 0x00, 0x00, 0x00, 0x00, 0x00, 0x00, 0x00,
   0x00, 0x00, 0x00, 0x00, 0x00, 0x00, 0x00, 0x00, 0x00, 0x00, 0x00, 0x00,
   0x00, 0x00, 0x00, 0x00, 0x00, 0x00, 0x00, 0x00, 0x00, 0x00, 0x00, 0x00,
   0x00, 0x00, 0x00, 0x00, 0x00, 0x00, 0x00, 0x00, 0x00, 0x00, 0x00, 0x00,
   0x00, 0x00, 0x00, 0x00, 0x00, 0x00, 0x00, 0x00, 0x00, 0x00, 0x00, 0x00,
   0x00, 0x00, 0x00, 0x00, 0x00, 0x00, 0x00, 0x00, 0x00, 0x00, 0x00, 0x00,
   0x00, 0x00, 0x00, 0x00, 0x00, 0x00, 0x00, 0x00, 0x00, 0x00, 0x00, 0x00,
   0x00, 0x00, 0x00, 0x00, 0x00, 0x00, 0x00, 0x80, 0x0f, 0x00, 0x00, 0x00,
   0x00, 0x00, 0x00, 0x80, 0x01, 0x00, 0x00, 0x00, 0xe0, 0x3f, 0x00, 0x00,
   0x00, 0x00, 0x00, 0x00, 0xc2, 0x00, 0x00, 0x00, 0x00, 0xf0, 0xff, 0x00,
   0x01, 0x00, 0x00, 0x00, 0x00, 0x66, 0x00, 0x00, 0x00, 0x00, 0x30, 0xfc,
   0x83, 0x00, 0x00, 0x00, 0x00, 0x00, 0x3e, 0x00, 0x00, 0x00, 0x00, 0x18,
   0xf0, 0xcf, 0x00, 0x00, 0x00, 0x00, 0x00, 0x1e, 0x00, 0x00, 0x00, 0x00,
   0x0c, 0xc0, 0x7f, 0x00, 0x00, 0x00, 0x00, 0x00, 0x1e, 0x06, 0x00, 0x00,
   0x00, 0x04, 0x80, 0x3f, 0x00, 0x00, 0x00, 0x00, 0x00, 0x9e, 0x0f, 0x00,
   0x00, 0x00, 0x04, 0x60, 0x1e, 0x00, 0x00, 0x00, 0x00, 0x00, 0x5e, 0x0f,
   0x00, 0x00, 0x00, 0x04, 0x30, 0x00, 0x00, 0x00, 0x00, 0x00, 0x00, 0x3c,
   0x1e, 0x00, 0x00, 0x00, 0x00, 0x18, 0x00, 0x20, 0x00, 0x00, 0x08, 0x00,
   0x1c, 0x1c, 0x00, 0x00, 0x00, 0x00, 0x0c, 0x00, 0x70, 0x38, 0x00, 0x3e,
   0x03, 0x1c, 0x0c, 0x00, 0x00, 0x00, 0x00, 0x0c, 0x00, 0xf8, 0x3c, 0x00,
   0xff, 0x03, 0x1c, 0x06, 0x00, 0x00, 0x00, 0x00, 0x0e, 0x08, 0xfc, 0xfe,
   0xc1, 0xfe, 0x03, 0x1c, 0x02, 0x00, 0x00, 0x00, 0x00, 0x1e, 0x1c, 0xe0,
   0xf9, 0xf0, 0xe0, 0x03, 0x1c, 0x01, 0x00, 0x00, 0x00, 0x00, 0x1e, 0x3e,
   0xe0, 0x70, 0x70, 0xc0, 0x01, 0xff, 0x0f, 0x00, 0x00, 0x00, 0x00, 0x3c,
   0x3f, 0xe0, 0x00, 0x70, 0xc0, 0x81, 0xff, 0x07, 0x00, 0x00, 0x00, 0x00,
   0xbc, 0x18, 0xe0, 0x00, 0x70, 0xc0, 0x01, 0x1c, 0x00, 0x00, 0x00, 0x00,
   0x00, 0x78, 0x00, 0xe0, 0x00, 0x70, 0xc0, 0x01, 0x1c, 0x00, 0x00, 0x00,
   0x00, 0x00, 0xf8, 0x00, 0xe0, 0x00, 0x70, 0xc0, 0x01, 0x1c, 0x00, 0x00,
   0x00, 0x00, 0x00, 0xf0, 0x00, 0xe0, 0x00, 0x78, 0xc0, 0x01, 0x1c, 0x00,
   0x00, 0x00, 0x00, 0x7c, 0xe0, 0x01, 0xe0, 0x00, 0x78, 0xc0, 0x01, 0x1c,
   0x00, 0x00, 0x00, 0x00, 0x7f, 0xe0, 0x03, 0xe0, 0x00, 0x78, 0xc0, 0x03,
   0x1c, 0x00, 0x00, 0x00, 0x00, 0x78, 0xc0, 0x03, 0xe0, 0x00, 0x78, 0xc0,
   0x03, 0x1c, 0x00, 0x00, 0x00, 0x00, 0x70, 0x80, 0x07, 0xe0, 0x01, 0x78,
   0xc0, 0x03, 0x1c, 0x00, 0x00, 0x00, 0x00, 0x70, 0x80, 0x07, 0xe0, 0x01,
   0xf8, 0xe0, 0x03, 0x3c, 0x10, 0x00, 0x00, 0x00, 0x70, 0x00, 0x07, 0xe0,
   0x63, 0xf8, 0xf8, 0x17, 0x7c, 0x0c, 0x00, 0x00, 0x00, 0x70, 0x00, 0x07,
   0xc0, 0x1f, 0xf0, 0xcf, 0x0f, 0xfc, 0x07, 0x00, 0x00, 0x00, 0x70, 0x00,
   0x07, 0x80, 0x0f, 0xe0, 0x87, 0x07, 0xf8, 0x01, 0x00, 0x00, 0x00, 0x70,
   0x00, 0x07, 0x00, 0x07, 0xc0, 0x81, 0x03, 0xf0, 0x00, 0x00, 0x00, 0x00,
   0x70, 0x00, 0x03, 0x00, 0x00, 0xc0, 0x00, 0x01, 0x20, 0x00, 0x00, 0x00,
   0x00, 0x70, 0x80, 0x03, 0x00, 0x00, 0x00, 0x00, 0x00, 0x00, 0x00, 0x00,
   0x00, 0x00, 0x70, 0x80, 0x01, 0x00, 0x00, 0x00, 0x00, 0x00, 0x00, 0x00,
   0x00, 0x00, 0x00, 0xf0, 0xc0, 0x00, 0x00, 0x00, 0x00, 0x00, 0x00, 0x00,
   0x00, 0x00, 0x00, 0x00, 0xe0, 0x33, 0x00, 0x00, 0x00, 0x00, 0x00, 0x00,
   0x00, 0x00, 0x00, 0x00, 0x00, 0xc0, 0x0f, 0x00, 0x00, 0x00, 0x00, 0x00,
   0x00, 0x00, 0x00, 0x00, 0x00, 0x00, 0x00, 0x00, 0x00, 0x00, 0x00, 0x00,
   0x00, 0x00, 0x00, 0x00, 0x00, 0x00, 0x00, 0x00, 0x00, 0x00, 0x00, 0x00,
   0x00, 0x00, 0x00, 0x00, 0x00, 0x00, 0x00, 0x00, 0x00, 0x00, 0x00, 0x00,
   0x00, 0x00, 0x00, 0x00, 0x00, 0x00, 0x00, 0x00, 0x00, 0x00, 0x00, 0x00,
   0x00, 0x00, 0x00, 0x00, 0x00, 0x00, 0x00, 0x00, 0x00, 0x00, 0x00, 0x00,
   0x00, 0x00, 0x00, 0x00, 0x00, 0x00, 0x00, 0x00, 0x00, 0x00, 0x00, 0x00,
   0x00, 0x00, 0x00, 0x00, 0x00, 0x00, 0x00, 0x00, 0x00, 0x00, 0x00, 0x00,
   0x00, 0x00, 0x00, 0x00, 0x00, 0x00, 0x00, 0x00, 0x00, 0x00, 0x00, 0x00,
   0x00, 0x00, 0x00, 0x00, 0x00, 0x00, 0x00, 0x00, 0x00, 0x00, 0x00, 0x00,
   0x00, 0x00, 0x00, 0x00, 0x00, 0x00, 0x00, 0x40, 0x00, 0x00, 0x00, 0x00,
   0x00, 0x00, 0x00, 0x00, 0xfc, 0x00, 0x00, 0x00, 0x70, 0x00, 0x00, 0x00,
   0x1f, 0x00, 0x00, 0x00, 0x80, 0xff, 0x01, 0x00, 0x00, 0x70, 0x00, 0x00,
   0xc0, 0x3f, 0x00, 0x00, 0x00, 0xc0, 0xe1, 0x01, 0x00, 0x00, 0x78, 0x00,
   0x00, 0x30, 0x3e, 0x00, 0x00, 0x00, 0x70, 0xc0, 0x01, 0x00, 0x00, 0x7c,
   0x00, 0x00, 0x18, 0x3c, 0x00, 0x00, 0x00, 0x18, 0xc0, 0x01, 0x00, 0x00,
   0x7c, 0x00, 0x00, 0x0c, 0x3c, 0x00, 0x00, 0x00, 0x0c, 0xc0, 0x01, 0x00,
   0x00, 0x76, 0x00, 0x00, 0x0e, 0x3c, 0x00, 0x00, 0x00, 0x06, 0xe0, 0x00,
   0x00, 0x00, 0x76, 0x00, 0x00, 0x07, 0x1c, 0x00, 0x00, 0x00, 0x07, 0xe0,
   0x00, 0x00, 0x00, 0x73, 0x00, 0x00, 0x07, 0x0c, 0x00, 0x00, 0x00, 0x03,
   0x70, 0x00, 0x00, 0x00, 0x73, 0x00, 0x80, 0x03, 0x00, 0x00, 0x00, 0x80,
   0x03, 0x30, 0x00, 0x00, 0x80, 0x71, 0x00, 0x80, 0x03, 0x00, 0x00, 0x00,
   0xc0, 0x01, 0x00, 0x00, 0x00, 0x80, 0x70, 0x00, 0xc0, 0x03, 0x00, 0x00,
   0x00, 0xc0, 0x01, 0x00, 0x00, 0x00, 0xc0, 0x70, 0x00, 0xc0, 0x01, 0x00,
   0x00, 0x00, 0xe0, 0x00, 0x00, 0x00, 0x00, 0x40, 0x70, 0x00, 0xc0, 0x01,
   0x00, 0x00, 0x00, 0xe0, 0x00, 0x00, 0x00, 0x00, 0x60, 0x70, 0x00, 0xe0,
   0x01, 0x00, 0x00, 0x00, 0xe0, 0x00, 0x00, 0x00, 0x00, 0x30, 0xf0, 0x00,
   0xe0, 0x00, 0x00, 0x00, 0x00, 0xf0, 0x00, 0x00, 0x00, 0x00, 0x30, 0xf0,
   0x00, 0xe0, 0x00, 0x00, 0x00, 0x00, 0x70, 0x00, 0x00, 0x00, 0x00, 0x18,
   0xf0, 0x00, 0xf0, 0x00, 0x00, 0x00, 0x00, 0x70, 0x00, 0x00, 0x00, 0x00,
   0x08, 0xf0, 0x00, 0xf0, 0x00, 0x00, 0x00, 0x00, 0x70, 0x00, 0x00, 0x00,
   0x00, 0x0c, 0xf0, 0x00, 0x70, 0x00, 0x00, 0x00, 0x00, 0x70, 0x00, 0x00,
   0x00, 0x00, 0x06, 0xf0, 0x00, 0x70, 0x00, 0x00, 0x00, 0x00, 0x70, 0x00,
   0x00, 0x00, 0x00, 0xfa, 0xff, 0x00, 0x78, 0x00, 0x00, 0x00, 0x00, 0x70,
   0x00, 0x00, 0x00, 0x00, 0xff, 0xff, 0x00, 0x38, 0x00, 0x00, 0x00, 0x00,
   0xf0, 0x00, 0x80, 0x00, 0x80, 0xff, 0xff, 0x00, 0x38, 0x00, 0x00, 0x00,
   0x00, 0xf0, 0x00, 0x60, 0x00, 0xc0, 0x01, 0xe0, 0x00, 0x1c, 0x00, 0x80,
   0x00, 0x00, 0xf0, 0x01, 0x70, 0x00, 0xe0, 0x00, 0xe0, 0x01, 0x1c, 0x00,
   0xe0, 0x00, 0x00, 0xe0, 0x01, 0x30, 0x40, 0x60, 0x00, 0xe0, 0x01, 0xfe,
   0x00, 0x70, 0x00, 0x00, 0xe0, 0x03, 0x1c, 0xe0, 0x38, 0x00, 0xe0, 0x01,
   0xfe, 0x0f, 0x38, 0x00, 0x00, 0xc0, 0x0f, 0x07, 0xe0, 0x3f, 0x00, 0xe0,
   0x11, 0xff, 0xff, 0x18, 0x00, 0x00, 0x80, 0xff, 0x03, 0xe0, 0x1f, 0x00,
   0xc0, 0x8f, 0x83, 0xff, 0x0f, 0x00, 0x00, 0x00, 0xff, 0x00, 0xe0, 0x0f,
   0x00, 0xc0, 0xc7, 0x00, 0xfc, 0x03, 0x00, 0x00, 0x00, 0x00, 0x00, 0xc0,
   0x07, 0x00, 0x00, 0x00, 0x00, 0x00, 0x00, 0x00, 0x00, 0x00, 0x00, 0x00,
   0x00, 0x00, 0x00, 0x00, 0x00, 0x00, 0x00, 0x00, 0x00, 0x00, 0x00, 0x00,
   0x00, 0x00, 0x00, 0x00, 0x00, 0x00, 0x00, 0x00, 0x00, 0x00, 0x00, 0x00,
   0x00, 0x00, 0x00, 0x00, 0x00, 0x00, 0x00, 0x00, 0x00, 0x00, 0x00, 0x00};
