/* XPM */
static char * foot_xpm[] = {
"20 20 2 1",
" 	c black",
".	c #BFBFBFBFBFBF",
"                    ",
" .................. ",
" ...              . ",
" .................. ",
" ...              . ",
" .................. ",
" ...              . ",
" .................. ",
" ...              . ",
" .................. ",
" .................. ",
" .................. ",
" .............. ... ",
" ...        ..  ... ",
" ............     . ",
" ...        ..  ... ",
" .............. ... ",
" .................. ",
" .................. ",
"                    "};


