#define Greek_width 182
#define Greek_height 60
static char Greek_bits[] = {
 0x00,0x00,0x00,0x00,0x00,0x00,0x00,0x00,0x00,0x00,0x00,0x00,0x00,0x00,0x00,
 0x00,0x00,0x00,0x00,0x00,0x00,0x00,0xc0,0x00,0x00,0x00,0x00,0x00,0x00,0x00,
 0x00,0x00,0x00,0x00,0x00,0x00,0x00,0x00,0x00,0x00,0x00,0x00,0x00,0x00,0x00,
 0xc0,0x00,0x00,0x00,0x00,0x00,0x00,0x00,0x00,0x00,0x00,0x00,0x00,0x00,0x00,
 0x00,0x00,0x00,0x00,0x00,0x00,0x00,0x00,0xc0,0x00,0x00,0x00,0x00,0x00,0x00,
 0x00,0x00,0x00,0x00,0x00,0x00,0x00,0x00,0x00,0x00,0x00,0x00,0x00,0x00,0x00,
 0x00,0xc0,0x00,0x00,0x00,0x00,0x00,0x08,0x00,0x00,0x00,0x00,0x00,0x00,0x00,
 0x04,0x00,0x00,0x00,0x00,0x00,0x00,0x00,0x00,0xc0,0xc0,0xff,0x03,0x00,0x00,
 0x1c,0x00,0x00,0x00,0x3f,0x00,0x00,0x00,0x04,0x00,0x00,0xf8,0xff,0x01,0x00,
 0xff,0x7f,0xc0,0x00,0x03,0x06,0x00,0x00,0x1c,0x00,0x00,0x80,0xc0,0x00,0x00,
 0x00,0x0e,0x00,0x00,0xf8,0xff,0x01,0x00,0x0c,0x18,0xc0,0x00,0x03,0x04,0x00,
 0x00,0x3a,0x00,0x00,0x60,0x00,0x01,0x00,0x00,0x0e,0x00,0x00,0x08,0x00,0x01,
 0x00,0x0c,0x18,0xc0,0x00,0x03,0x04,0x00,0x00,0x32,0x00,0x00,0x20,0x00,0x03,
 0x00,0x00,0x0d,0x00,0x00,0x08,0x00,0x01,0x00,0x0c,0x18,0xc0,0x00,0x03,0x04,
 0x00,0x00,0x71,0x00,0x00,0x30,0x00,0x02,0x00,0x00,0x19,0x00,0x00,0x00,0x00,
 0x00,0x00,0x0c,0x18,0xc0,0x00,0x03,0x00,0x00,0x00,0x61,0x00,0x00,0x30,0x00,
 0x06,0x00,0x00,0x19,0x00,0x00,0x00,0x00,0x00,0x00,0x0c,0x18,0xc0,0x00,0x03,
 0x00,0x00,0x80,0xe0,0x00,0x00,0x78,0x80,0x06,0x00,0x80,0x18,0x00,0x00,0x20,
 0x40,0x00,0x00,0x0c,0x18,0xc0,0x00,0x03,0x00,0x00,0x80,0xc0,0x00,0x00,0x98,
 0xff,0x06,0x00,0x80,0x30,0x00,0x00,0xe0,0x7f,0x00,0x00,0x0c,0x18,0xc0,0x00,
 0x03,0x00,0x00,0x40,0xc0,0x01,0x00,0x98,0xff,0x06,0x00,0x80,0x30,0x00,0x00,
 0xe0,0x7f,0x00,0x00,0x0c,0x18,0xc0,0x00,0x03,0x00,0x00,0x40,0x80,0x01,0x00,
 0x78,0x80,0x06,0x00,0x40,0x30,0x00,0x00,0x20,0x40,0x00,0x00,0x0c,0x18,0xc0,
 0x00,0x03,0x00,0x00,0x20,0x80,0x01,0x00,0x30,0x00,0x06,0x00,0x40,0x60,0x00,
 0x00,0x00,0x00,0x00,0x00,0x0c,0x18,0xc0,0x00,0x03,0x00,0x00,0x20,0x00,0x03,
 0x00,0x30,0x00,0x03,0x00,0x40,0x60,0x00,0x00,0x00,0x00,0x00,0x00,0x0c,0x18,
 0xc0,0x00,0x03,0x00,0x00,0x10,0x00,0x03,0x00,0x70,0x00,0x03,0x00,0x20,0x60,
 0x00,0x00,0x08,0x00,0x01,0x00,0x0c,0x18,0xc0,0x00,0x03,0x00,0x00,0x10,0x00,
 0x06,0x00,0x60,0x80,0x01,0x00,0x20,0xc0,0x00,0x00,0x08,0x00,0x01,0x00,0x0c,
 0x18,0xc0,0x00,0x03,0x00,0x00,0xf0,0xff,0x07,0x00,0xc0,0xe1,0x00,0x00,0x20,
 0xc0,0x00,0x00,0xf8,0xff,0x01,0x00,0x0c,0x18,0xc0,0xc0,0x1f,0x00,0x00,0xf8,
 0xff,0x0f,0x00,0x00,0x3f,0x00,0x00,0xf8,0xf0,0x03,0x00,0xf8,0xff,0x01,0x00,
 0x3f,0x7e,0xc0,0x00,0x00,0x00,0x00,0x00,0x00,0x00,0x00,0x00,0x00,0x00,0x00,
 0x00,0x00,0x00,0x00,0x00,0x00,0x00,0x00,0x00,0x00,0xc0,0x00,0x00,0x00,0x00,
 0x00,0x00,0x00,0x00,0x00,0x00,0x00,0x00,0x00,0x00,0x00,0x00,0x00,0x00,0x00,
 0x00,0x00,0x00,0xc0,0x00,0x00,0x00,0x00,0x00,0x00,0x00,0x00,0x00,0x00,0x00,
 0x00,0x00,0x00,0x00,0x00,0x00,0x00,0x00,0x00,0x00,0x00,0xc0,0x00,0x00,0x00,
 0x00,0x00,0x00,0x00,0x00,0x00,0x00,0x00,0x00,0x00,0x00,0x00,0x00,0x00,0x00,
 0x00,0x00,0x00,0x00,0xc0,0x00,0x00,0x00,0x00,0x00,0x00,0x00,0x00,0x00,0x00,
 0x00,0x00,0x00,0x00,0x00,0x00,0x00,0x00,0x00,0x00,0x00,0x00,0xc0,0x00,0x00,
 0x00,0x00,0x00,0x00,0x00,0x00,0x00,0x00,0x00,0x00,0x00,0x00,0x00,0x00,0x00,
 0x00,0x00,0x00,0x00,0x00,0xc0,0x00,0x00,0x00,0x00,0x00,0x00,0x00,0x00,0x00,
 0x00,0x00,0x00,0x00,0x00,0x00,0x00,0x00,0x00,0x00,0x00,0x00,0x00,0xc0,0x00,
 0x00,0x00,0x00,0x00,0x00,0x00,0x00,0x00,0x00,0x00,0x00,0x00,0x00,0x00,0x00,
 0x00,0x00,0x00,0x00,0x00,0x00,0xc0,0x00,0x00,0x00,0x00,0x00,0x00,0x00,0x00,
 0x00,0x00,0x00,0x00,0x00,0x00,0x00,0x00,0x00,0x00,0x00,0x00,0x00,0x00,0xc0,
 0x00,0x00,0x00,0x00,0x00,0x00,0x00,0x00,0x00,0x00,0x00,0x00,0x00,0x00,0x00,
 0x00,0x00,0x00,0x00,0x00,0x00,0x00,0xc0,0x00,0x00,0x00,0x00,0x00,0x00,0x00,
 0x00,0x00,0x00,0x00,0x00,0x00,0x00,0x00,0x00,0x00,0x00,0x00,0x00,0x00,0x00,
 0xc0,0x00,0x00,0x00,0x00,0x00,0x00,0x00,0x00,0x00,0x00,0x00,0x00,0x00,0x00,
 0x00,0x00,0x00,0x00,0x00,0x00,0x00,0x00,0xc0,0x00,0x00,0x00,0x00,0x00,0x00,
 0x00,0x00,0x00,0x00,0x00,0x00,0x00,0x00,0x00,0x00,0x00,0x00,0x00,0x00,0x00,
 0x00,0xc0,0x00,0x00,0x00,0x00,0x00,0x00,0x00,0x00,0x00,0x00,0x00,0x00,0x00,
 0x00,0x00,0x00,0x00,0x00,0x00,0x00,0x00,0x00,0xc0,0x00,0x00,0x00,0x00,0x00,
 0x00,0x00,0x00,0x00,0x00,0x00,0x00,0x00,0x00,0x00,0x00,0x00,0x00,0x00,0x00,
 0x00,0x00,0xc0,0x00,0x00,0x00,0x00,0x00,0x00,0x00,0x00,0x00,0x00,0x00,0x00,
 0x00,0x00,0x00,0x00,0x00,0x00,0x00,0x00,0x00,0x00,0xc0,0x00,0x00,0x00,0x00,
 0x00,0x00,0x00,0x00,0x00,0x00,0x00,0x00,0x00,0x00,0x00,0x00,0x00,0x00,0x00,
 0x00,0x00,0x00,0xc0,0x00,0x00,0x00,0x00,0x00,0x00,0x00,0x00,0x00,0x00,0x00,
 0x00,0x00,0x00,0x00,0x00,0x00,0x00,0x00,0x00,0x00,0x00,0xc0,0xc0,0xff,0x07,
 0x00,0xe0,0xc0,0x01,0x00,0x80,0xff,0x00,0x00,0x80,0x7f,0x00,0x00,0xc0,0x1f,
 0x00,0x00,0x00,0x00,0xc0,0x80,0x01,0x0e,0x00,0xf0,0xe1,0x03,0x00,0x00,0x0c,
 0x00,0x00,0x00,0x0c,0x00,0x00,0x60,0x30,0x00,0x00,0x00,0x00,0xc0,0x80,0x03,
 0x08,0x00,0x18,0x33,0x02,0x00,0x00,0x0c,0x00,0x00,0x00,0x0c,0x00,0x00,0x38,
 0x60,0x00,0x00,0x00,0x00,0xc0,0x00,0x03,0x08,0x00,0x08,0x12,0x04,0x00,0x00,
 0x3f,0x00,0x00,0x38,0x0c,0x07,0x00,0x18,0xc0,0x00,0x00,0x00,0x00,0xc0,0x00,
 0x06,0x08,0x00,0x00,0x1e,0x00,0x00,0xc0,0xcc,0x01,0x00,0x30,0x0c,0x03,0x00,
 0x1c,0xc0,0x01,0x00,0x00,0x00,0xc0,0x00,0x0e,0x00,0x00,0x00,0x0c,0x00,0x00,
 0x60,0x0c,0x03,0x00,0x60,0x8c,0x01,0x00,0x1c,0xc0,0x01,0x00,0x00,0x00,0xc0,
 0x00,0x0c,0x00,0x00,0x00,0x0c,0x00,0x00,0x30,0x0c,0x06,0x00,0x60,0x8c,0x01,
 0x00,0x1c,0xc0,0x01,0x00,0x00,0x00,0xc0,0x00,0x18,0x00,0x00,0x00,0x0c,0x00,
 0x00,0x30,0x0c,0x06,0x00,0x60,0x8c,0x01,0x00,0x18,0xc0,0x00,0x00,0x00,0x00,
 0xc0,0x00,0x18,0x00,0x00,0x00,0x0c,0x00,0x00,0x30,0x0c,0x06,0x00,0x60,0x8c,
 0x01,0x00,0x18,0xc0,0x00,0x00,0x00,0x00,0xc0,0x00,0x08,0x00,0x00,0x00,0x0c,
 0x00,0x00,0x30,0x0c,0x06,0x00,0x60,0x8c,0x01,0x00,0x10,0x60,0x00,0x00,0x00,
 0x00,0xc0,0x00,0x04,0x00,0x00,0x00,0x0c,0x00,0x00,0x60,0x0c,0x03,0x00,0xc0,
 0xcc,0x00,0x00,0x20,0x20,0x00,0x00,0x00,0x00,0xc0,0x00,0x04,0x08,0x00,0x00,
 0x0c,0x00,0x00,0xc0,0x8c,0x01,0x00,0x80,0x6d,0x00,0x00,0x20,0x20,0x00,0x00,
 0x00,0x00,0xc0,0x00,0x02,0x08,0x00,0x00,0x0c,0x00,0x00,0x00,0x7f,0x00,0x00,
 0x00,0x3f,0x00,0x00,0x44,0x10,0x01,0x00,0x00,0x00,0xc0,0x00,0x01,0x08,0x00,
 0x00,0x0c,0x00,0x00,0x00,0x0c,0x00,0x00,0x00,0x0c,0x00,0x00,0x44,0x10,0x01,
 0x00,0x00,0x00,0xc0,0x80,0x00,0x0e,0x00,0x00,0x0c,0x00,0x00,0x00,0x0c,0x00,
 0x00,0x00,0x0c,0x00,0x00,0x7c,0xf0,0x00,0x00,0x00,0x00,0xc0,0xc0,0xff,0x07,
 0x00,0x80,0x7f,0x00,0x00,0x80,0xff,0x00,0x00,0x80,0x7f,0x00,0x00,0x78,0xf0,
 0x00,0x00,0x00,0x00,0xc0,0x00,0x00,0x00,0x00,0x00,0x00,0x00,0x00,0x00,0x00,
 0x00,0x00,0x00,0x00,0x00,0x00,0x00,0x00,0x00,0x00,0x00,0x00,0xc0,0x00,0x00,
 0x00,0x00,0x00,0x00,0x00,0x00,0x00,0x00,0x00,0x00,0x00,0x00,0x00,0x00,0x00,
 0x00,0x00,0x00,0x00,0x00,0xc0,0x00,0x00,0x00,0x00,0x00,0x00,0x00,0x00,0x00,
 0x00,0x00,0x00,0x00,0x00,0x00,0x00,0x00,0x00,0x00,0x00,0x00,0x00,0xc0,0x00,
 0x00,0x00,0x00,0x00,0x00,0x00,0x00,0x00,0x00,0x00,0x00,0x00,0x00,0x00,0x00,
 0x00,0x00,0x00,0x00,0x00,0x00,0xc0,0x00,0x00,0x00,0x00,0x00,0x00,0x00,0x00,
 0x00,0x00,0x00,0x00,0x00,0x00,0x00,0x00,0x00,0x00,0x00,0x00,0x00,0x00,0xc0
 };
#define greek_width 199
#define greek_height 132
static char greek_bits[] = {
 0x00,0x00,0x00,0x00,0x00,0x00,0x00,0x00,0x00,0x00,0x00,0x00,0x00,0x00,0x00,
 0x00,0x00,0x00,0x00,0x00,0x00,0x00,0x00,0x00,0x80,0x00,0x00,0x00,0x00,0x00,
 0x00,0x00,0x00,0x00,0x00,0x00,0x00,0x00,0x00,0x00,0x00,0x00,0x00,0x00,0x00,
 0x00,0x00,0x00,0x00,0x80,0x00,0x00,0x00,0x00,0x00,0x00,0x00,0x00,0x00,0x00,
 0x00,0x00,0x00,0x00,0x00,0x00,0x00,0x00,0x00,0x00,0x00,0x00,0x00,0x00,0x80,
 0x00,0x00,0x00,0x00,0x00,0x00,0x00,0x00,0x00,0x00,0x00,0x00,0x00,0x00,0x00,
 0x00,0x00,0x00,0x00,0x00,0x00,0x00,0x00,0x00,0x80,0x00,0x00,0x00,0x00,0x00,
 0x78,0x00,0x00,0x00,0x00,0x00,0x00,0x60,0x00,0x00,0x00,0x00,0x00,0x00,0x00,
 0x00,0x00,0x00,0x10,0x80,0x00,0x00,0x00,0x00,0x00,0x84,0x00,0x00,0x00,0x00,
 0x00,0x00,0x98,0x00,0x00,0x00,0x00,0x00,0x00,0x00,0x00,0x00,0x00,0x10,0x80,
 0x00,0x00,0x00,0x00,0x00,0x82,0x00,0x00,0x00,0x00,0x00,0x00,0x84,0x00,0x00,
 0x00,0x00,0x00,0x00,0x00,0x00,0x00,0x00,0xf0,0x80,0x00,0x00,0x00,0x00,0x00,
 0x81,0x00,0x00,0x00,0x00,0x00,0x00,0x02,0x00,0x00,0x00,0x00,0x00,0x00,0x00,
 0x00,0x00,0x00,0xf8,0x80,0x00,0x00,0x00,0x00,0x80,0x80,0x00,0x00,0x00,0x00,
 0x00,0x00,0x06,0x00,0x00,0x00,0x00,0x00,0x00,0x00,0x00,0x00,0x00,0x04,0x80,
 0x00,0x00,0x00,0x00,0x40,0x40,0x00,0x00,0x00,0x00,0x00,0x00,0x0e,0x00,0x00,
 0x00,0x00,0x00,0x00,0x00,0x00,0x00,0x00,0x02,0x80,0x00,0x78,0x00,0x00,0x40,
 0x60,0x00,0x00,0x38,0x04,0x00,0x00,0x18,0x00,0x00,0x00,0x1c,0x00,0x00,0xc0,
 0x03,0x00,0x00,0x03,0x80,0x00,0x8c,0x00,0x00,0x40,0x3e,0x00,0x00,0x3e,0x04,
 0x00,0x00,0x36,0x00,0x00,0x00,0x02,0x00,0x00,0x30,0x04,0x00,0x00,0x01,0x80,
 0x00,0x06,0x09,0x00,0x20,0x40,0x00,0x00,0x62,0x02,0x00,0x00,0x61,0x00,0x00,
 0x00,0x03,0x00,0x00,0x08,0x00,0x00,0x80,0x00,0x80,0x00,0x03,0x09,0x00,0x20,
 0x40,0x00,0x00,0x41,0x02,0x00,0x80,0x41,0x00,0x00,0x00,0x01,0x00,0x00,0x08,
 0x00,0x00,0x80,0x00,0x80,0x00,0x01,0x05,0x00,0x20,0x40,0x00,0x00,0x41,0x01,
 0x00,0xc0,0x40,0x00,0x00,0x80,0x01,0x00,0x00,0xf0,0x00,0x00,0xc0,0x00,0x80,
 0x80,0x01,0x03,0x00,0x20,0x40,0x00,0x00,0x80,0x01,0x00,0xc0,0x40,0x00,0x00,
 0x80,0x0f,0x00,0x00,0x68,0x00,0x00,0x40,0x00,0x80,0x80,0x01,0x03,0x00,0x10,
 0x60,0x00,0x00,0x80,0x01,0x00,0xc0,0x20,0x00,0x00,0x80,0x00,0x00,0x00,0x04,
 0x00,0x00,0x40,0x00,0x80,0x80,0x01,0x01,0x00,0x10,0x20,0x00,0x00,0x80,0x00,
 0x00,0x40,0x20,0x00,0x00,0x80,0x00,0x00,0x00,0x02,0x00,0x00,0x40,0x00,0x80,
 0x80,0x81,0x01,0x00,0x10,0x10,0x00,0x00,0x80,0x00,0x00,0xc0,0x10,0x00,0x00,
 0x80,0x00,0x00,0x00,0x02,0x02,0x00,0xc0,0x00,0x80,0x00,0x61,0x09,0x00,0x30,
 0x08,0x00,0x00,0x80,0x00,0x00,0x80,0x18,0x00,0x00,0x00,0x11,0x00,0x00,0x06,
 0x01,0x00,0x80,0x01,0x80,0x00,0x1e,0x06,0x00,0x48,0x04,0x00,0x00,0x80,0x00,
 0x00,0x00,0x0f,0x00,0x00,0x00,0x0e,0x00,0x00,0xfc,0x00,0x00,0x00,0x0f,0x80,
 0x00,0x00,0x00,0x00,0x88,0x03,0x00,0x00,0x40,0x00,0x00,0x00,0x00,0x00,0x00,
 0x00,0x00,0x00,0x00,0x00,0x00,0x00,0x00,0x1c,0x80,0x00,0x00,0x00,0x00,0x08,
 0x00,0x00,0x00,0x40,0x00,0x00,0x00,0x00,0x00,0x00,0x00,0x00,0x00,0x00,0x00,
 0x00,0x00,0x00,0x20,0x80,0x00,0x00,0x00,0x00,0x08,0x00,0x00,0x00,0x40,0x00,
 0x00,0x00,0x00,0x00,0x00,0x00,0x00,0x00,0x00,0x00,0x00,0x00,0x00,0x20,0x80,
 0x00,0x00,0x00,0x00,0x04,0x00,0x00,0x00,0x40,0x00,0x00,0x00,0x00,0x00,0x00,
 0x00,0x00,0x00,0x00,0x00,0x00,0x00,0x00,0x22,0x80,0x00,0x00,0x00,0x00,0x04,
 0x00,0x00,0x00,0x40,0x00,0x00,0x00,0x00,0x00,0x00,0x00,0x00,0x00,0x00,0x00,
 0x00,0x00,0x00,0x1c,0x80,0x00,0x00,0x00,0x00,0x00,0x00,0x00,0x00,0x00,0x00,
 0x00,0x00,0x00,0x00,0x00,0x00,0x00,0x00,0x00,0x00,0x00,0x00,0x00,0x00,0x80,
 0x00,0x00,0x00,0x00,0x00,0x00,0x00,0x00,0x00,0x00,0x00,0x00,0x00,0x00,0x00,
 0x00,0x00,0x00,0x00,0x00,0x00,0x00,0x00,0x00,0x80,0x00,0x00,0x00,0x00,0x00,
 0x00,0x00,0x00,0x00,0x00,0x00,0x00,0x00,0x00,0x00,0x00,0x00,0x00,0x00,0x00,
 0x00,0x00,0x00,0x00,0x80,0x00,0x00,0x00,0x00,0x00,0x00,0x00,0x00,0x00,0x00,
 0x00,0x00,0x00,0x00,0x00,0x00,0x00,0x00,0x00,0x00,0x00,0x00,0x00,0x00,0x80,
 0x00,0x00,0x00,0x00,0x00,0x00,0x00,0x00,0x00,0x00,0x00,0x00,0x00,0x00,0x00,
 0x00,0x00,0x00,0x00,0x00,0x00,0x00,0x00,0x00,0x80,0x00,0x00,0x00,0x00,0x00,
 0x00,0x00,0x00,0x00,0x00,0x00,0x00,0x00,0x00,0x00,0x00,0x00,0x00,0x00,0x00,
 0x00,0x00,0x00,0x00,0x80,0x00,0x00,0x00,0x00,0x00,0x00,0x00,0x00,0x00,0x00,
 0x00,0x00,0x00,0x00,0x00,0x00,0x00,0x00,0x00,0x00,0x00,0x00,0x00,0x00,0x80,
 0x00,0x00,0x00,0x00,0x00,0x00,0x00,0x00,0x00,0x00,0x00,0x00,0x00,0x00,0x00,
 0x00,0x00,0x00,0x00,0x00,0x00,0x00,0x00,0x00,0x80,0x00,0x00,0x00,0x00,0x00,
 0x00,0x00,0x00,0x00,0x00,0x00,0x00,0x00,0x00,0x00,0x00,0x00,0x00,0x00,0x00,
 0x00,0x00,0x00,0x00,0x80,0x00,0x00,0x00,0x00,0x00,0x00,0x00,0x00,0x00,0x00,
 0x00,0x00,0x00,0x00,0x00,0x00,0x00,0x00,0x00,0x00,0x00,0x00,0x00,0x00,0x80,
 0x00,0x00,0x00,0x00,0x00,0x00,0x00,0x00,0x00,0x00,0x00,0x00,0x00,0x00,0x00,
 0x00,0x00,0x00,0x00,0x00,0x00,0x00,0x00,0x00,0x80,0x00,0x00,0x00,0x00,0x00,
 0x00,0x00,0x00,0x00,0x00,0x00,0x00,0x00,0x00,0x00,0x00,0x00,0x00,0x00,0x00,
 0x00,0x00,0x00,0x00,0x80,0x00,0x00,0x00,0x00,0x00,0x00,0x00,0x00,0x80,0x01,
 0x00,0x00,0x00,0x00,0x00,0x00,0x00,0x00,0x00,0x00,0x00,0x00,0x00,0x00,0x80,
 0x00,0x00,0x00,0x00,0x00,0x0e,0x00,0x00,0x60,0x02,0x00,0x00,0x00,0x00,0x00,
 0x00,0x00,0x00,0x00,0x70,0x00,0x00,0x00,0x00,0x80,0x00,0x00,0x00,0x00,0x00,
 0x11,0x00,0x00,0x20,0x02,0x00,0x00,0x00,0x00,0x00,0x00,0x00,0x00,0x00,0x40,
 0x00,0x00,0x00,0x00,0x80,0x00,0x00,0x00,0x00,0x80,0x10,0x00,0x00,0x10,0x02,
 0x00,0x00,0x00,0x00,0x00,0x00,0x00,0x00,0x00,0xc0,0x00,0x00,0x00,0x00,0x80,
 0x00,0x00,0x00,0x00,0x80,0x10,0x00,0x00,0x10,0x06,0x00,0x00,0x00,0x00,0x00,
 0x00,0x00,0x00,0x00,0xc0,0x00,0x00,0x00,0x00,0x80,0x00,0x00,0x00,0x00,0xc0,
 0x10,0x00,0x00,0x10,0x06,0x00,0x00,0x00,0x00,0x00,0x00,0x00,0x00,0x00,0x80,
 0x00,0x00,0x00,0x00,0x80,0x00,0xc6,0x01,0x00,0x40,0x18,0x00,0x00,0x27,0x02,
 0x00,0x00,0x08,0x00,0x00,0x00,0x01,0x00,0x00,0x80,0x01,0x00,0x00,0x02,0x80,
 0x00,0x29,0x02,0x00,0x40,0x18,0x00,0x00,0x45,0x02,0x00,0x00,0x08,0x00,0x00,
 0x00,0x61,0x00,0x00,0x80,0x01,0x00,0x00,0x82,0x80,0x00,0x19,0x02,0x00,0xe0,
 0x1f,0x00,0x80,0x84,0x03,0x00,0x00,0x08,0x00,0x00,0x00,0x59,0x00,0x00,0x00,
 0x01,0x00,0x00,0xc2,0x80,0x00,0x09,0x02,0x00,0x60,0x08,0x00,0x80,0x04,0x07,
 0x00,0x00,0x0c,0x00,0x00,0x80,0x05,0x00,0x00,0x00,0x03,0x00,0x00,0x43,0x80,
 0x00,0x0c,0x02,0x00,0x60,0x08,0x00,0x00,0x04,0x03,0x00,0x00,0x04,0x00,0x00,
 0x80,0x03,0x00,0x00,0x80,0x03,0x00,0x00,0x43,0x80,0x00,0x0c,0x02,0x00,0x20,
 0x0c,0x00,0x00,0x86,0x01,0x00,0x00,0x04,0x00,0x00,0x80,0x1e,0x00,0x00,0x40,
 0x02,0x00,0x00,0x41,0x80,0x00,0x04,0x01,0x00,0x20,0x04,0x00,0x00,0x82,0x01,
 0x00,0x00,0x04,0x00,0x00,0x80,0x10,0x00,0x00,0x20,0x02,0x00,0x00,0x61,0x80,
 0x00,0x04,0x01,0x00,0x20,0x04,0x00,0x00,0x82,0x00,0x00,0x00,0x26,0x00,0x00,
 0x80,0x90,0x00,0x00,0x30,0x06,0x00,0x00,0x61,0x81,0x00,0x06,0x01,0x00,0x20,
 0x02,0x00,0x00,0xc2,0x00,0x00,0x00,0x22,0x00,0x00,0xc0,0x90,0x00,0x00,0x18,
 0x04,0x00,0x80,0x21,0x81,0x00,0x06,0x01,0x00,0x40,0x01,0x00,0x00,0x42,0x00,
 0x00,0x00,0x12,0x00,0x00,0x40,0x50,0x00,0x00,0x08,0x04,0x00,0x80,0xb1,0x80,
 0x00,0x82,0x01,0x00,0xc0,0x00,0x00,0x00,0x3c,0x00,0x00,0x00,0x0c,0x00,0x00,
 0x40,0x70,0x00,0x00,0x04,0x0c,0x00,0x80,0xce,0x80,0x00,0x80,0x00,0x00,0x00,
 0x00,0x00,0x00,0x00,0x00,0x00,0x00,0x00,0x00,0x00,0x00,0x00,0x00,0x00,0x00,
 0x00,0x00,0x80,0x00,0x80,0x00,0x80,0x00,0x00,0x00,0x00,0x00,0x00,0x00,0x00,
 0x00,0x00,0x00,0x00,0x00,0x00,0x00,0x00,0x00,0x00,0x00,0x00,0x80,0x00,0x80,
 0x00,0x80,0x00,0x00,0x00,0x00,0x00,0x00,0x00,0x00,0x00,0x00,0x00,0x00,0x00,
 0x00,0x00,0x00,0x00,0x00,0x00,0x00,0xc0,0x00,0x80,0x00,0xc0,0x00,0x00,0x00,
 0x00,0x00,0x00,0x00,0x00,0x00,0x00,0x00,0x00,0x00,0x00,0x00,0x00,0x00,0x00,
 0x00,0x00,0xc0,0x00,0x80,0x00,0xc0,0x00,0x00,0x00,0x00,0x00,0x00,0x00,0x00,
 0x00,0x00,0x00,0x00,0x00,0x00,0x00,0x00,0x00,0x00,0x00,0x00,0x40,0x00,0x80,
 0x00,0x00,0x00,0x00,0x00,0x00,0x00,0x00,0x00,0x00,0x00,0x00,0x00,0x00,0x00,
 0x00,0x00,0x00,0x00,0x00,0x00,0x00,0x00,0x00,0x80,0x00,0x00,0x00,0x00,0x00,
 0x00,0x00,0x00,0x00,0x00,0x00,0x00,0x00,0x00,0x00,0x00,0x00,0x00,0x00,0x00,
 0x00,0x00,0x00,0x00,0x80,0x00,0x00,0x00,0x00,0x00,0x00,0x00,0x00,0x00,0x00,
 0x00,0x00,0x00,0x00,0x00,0x00,0x00,0x00,0x00,0x00,0x00,0x00,0x00,0x00,0x80,
 0x00,0x00,0x00,0x00,0x00,0x00,0x00,0x00,0x00,0x00,0x00,0x00,0x00,0x00,0x00,
 0x00,0x00,0x00,0x00,0x00,0x00,0x00,0x00,0x00,0x80,0x00,0x00,0x00,0x00,0x00,
 0x00,0x00,0x00,0x00,0x00,0x00,0x00,0x00,0x00,0x00,0x00,0x00,0x00,0x00,0x00,
 0x00,0x00,0x00,0x00,0x80,0x00,0x00,0x00,0x00,0x00,0x00,0x00,0x00,0x00,0x00,
 0x00,0x00,0x00,0x00,0x00,0x00,0x00,0x00,0x00,0x00,0x00,0x00,0x00,0x00,0x80,
 0x00,0x00,0x00,0x00,0x00,0x00,0x00,0x00,0x00,0x00,0x00,0x00,0x00,0x00,0x00,
 0x00,0x00,0x00,0x00,0x00,0x00,0x00,0x00,0x00,0x80,0x00,0x00,0x00,0x00,0x00,
 0x00,0x00,0x00,0x00,0x00,0x00,0x00,0x00,0x00,0x00,0x00,0x00,0x00,0x00,0x00,
 0x00,0x00,0x00,0x00,0x80,0x00,0x00,0x00,0x00,0x00,0x00,0x00,0x00,0x00,0x00,
 0x00,0x00,0x00,0x00,0x00,0x00,0x00,0x00,0x00,0x00,0x00,0x00,0x00,0x00,0x80,
 0x00,0x00,0x00,0x00,0x00,0x00,0x00,0x00,0x00,0x00,0x00,0x00,0x00,0x00,0x00,
 0x00,0x00,0x00,0x00,0x00,0x00,0x00,0x00,0x00,0x80,0x00,0x00,0x00,0x00,0x00,
 0x00,0x00,0x00,0x00,0x00,0x00,0x00,0x00,0x00,0x00,0x00,0x00,0x00,0x00,0x00,
 0x00,0x00,0x00,0x00,0x80,0x00,0x00,0x00,0x00,0x00,0x00,0x00,0x00,0x00,0x00,
 0x00,0x00,0x00,0x00,0x00,0x00,0x00,0x00,0x00,0x00,0x00,0x00,0x00,0x00,0x80,
 0x00,0x00,0x00,0x00,0x00,0x04,0x00,0x00,0x00,0x00,0x00,0x00,0x00,0x00,0x00,
 0x00,0x00,0x00,0x00,0x00,0x00,0x00,0x00,0x00,0x80,0x00,0x00,0x00,0x00,0x00,
 0x04,0x00,0x00,0x00,0x00,0x00,0x00,0x00,0x00,0x00,0x00,0x00,0x00,0x00,0x00,
 0x00,0x00,0x00,0x00,0x80,0x00,0x00,0x00,0x00,0x00,0x3c,0x00,0x00,0x00,0x00,
 0x00,0x00,0x00,0x00,0x00,0x00,0x00,0x00,0x00,0x00,0x00,0x00,0x00,0x00,0x80,
 0x00,0x00,0x00,0x00,0x00,0x3a,0x00,0x00,0x00,0x00,0x00,0x00,0x00,0x00,0x00,
 0x00,0x00,0x00,0x00,0x00,0x00,0x00,0x00,0x00,0x80,0x00,0x00,0x00,0x00,0x00,
 0x01,0x00,0x00,0x00,0x00,0x00,0x00,0x00,0x00,0x00,0x00,0x00,0x00,0x00,0x00,
 0x00,0x00,0x00,0x00,0x80,0x00,0x00,0x00,0x00,0x80,0x00,0x00,0x00,0x00,0x00,
 0x00,0x00,0x00,0x00,0x00,0x00,0x00,0x00,0x00,0x00,0x00,0x00,0x00,0x00,0x80,
 0x00,0x08,0x02,0x00,0x80,0x00,0x00,0x00,0xfe,0x07,0x00,0xf0,0xff,0x07,0x00,
 0x00,0x3c,0x00,0x00,0xf0,0x0f,0x00,0x00,0xf8,0x80,0x00,0x07,0x03,0x00,0x80,
 0x00,0x00,0x00,0xff,0x07,0x00,0xf8,0xff,0x07,0x00,0x00,0x26,0x00,0x00,0xf8,
 0x0f,0x00,0x00,0x86,0x80,0x00,0x04,0x03,0x00,0x80,0x00,0x00,0x80,0x49,0x00,
 0x00,0x28,0x00,0x02,0x00,0x00,0x63,0x00,0x00,0x8c,0x01,0x00,0x00,0x01,0x80,
 0x00,0x04,0x01,0x00,0x00,0x1f,0x00,0x80,0x48,0x00,0x00,0x24,0x00,0x02,0x00,
 0x00,0x41,0x00,0x00,0x82,0x01,0x00,0x00,0x01,0x80,0x00,0x86,0x01,0x00,0xc0,
 0x00,0x00,0x00,0x48,0x00,0x00,0x10,0x04,0x02,0x00,0x80,0x61,0x00,0x00,0x02,
 0x01,0x00,0x80,0x00,0x80,0x00,0x86,0x00,0x00,0x40,0x00,0x00,0x00,0x44,0x00,
 0x00,0x10,0x04,0x01,0x00,0x80,0x61,0x00,0x00,0x83,0x01,0x00,0x80,0x00,0x80,
 0x00,0x42,0x00,0x00,0x20,0x00,0x00,0x00,0x44,0x00,0x00,0x10,0x04,0x01,0x00,
 0x80,0x60,0x00,0x00,0x81,0x01,0x00,0x80,0x00,0x80,0x00,0x22,0x00,0x00,0x20,
 0x00,0x00,0x00,0x44,0x00,0x00,0x10,0x06,0x01,0x00,0x80,0x20,0x00,0x00,0x81,
 0x00,0x00,0x80,0x03,0x80,0x00,0x12,0x00,0x00,0x20,0x00,0x00,0x00,0x42,0x00,
 0x00,0x10,0xcd,0x00,0x00,0xc0,0x30,0x00,0x00,0xc1,0x00,0x00,0x00,0x0f,0x80,
 0x00,0x0b,0x00,0x00,0x60,0x00,0x00,0x00,0xc2,0x00,0x00,0xf0,0x79,0x00,0x00,
 0xc0,0x19,0x00,0x00,0x41,0x00,0x00,0x00,0x1c,0x80,0x00,0x07,0x00,0x00,0xc0,
 0x01,0x00,0x00,0xc3,0x00,0x00,0x70,0x38,0x00,0x00,0x40,0x06,0x00,0x00,0x3e,
 0x00,0x00,0x00,0x30,0x80,0x00,0x00,0x00,0x00,0x80,0x07,0x00,0x00,0x00,0x00,
 0x00,0x00,0x00,0x00,0x00,0x40,0x00,0x00,0x00,0x00,0x00,0x00,0x00,0x20,0x80,
 0x00,0x00,0x00,0x00,0x00,0x0e,0x00,0x00,0x00,0x00,0x00,0x00,0x00,0x00,0x00,
 0x40,0x00,0x00,0x00,0x00,0x00,0x00,0x00,0x30,0x80,0x00,0x00,0x00,0x00,0x00,
 0x18,0x00,0x00,0x00,0x00,0x00,0x00,0x00,0x00,0x00,0x60,0x00,0x00,0x00,0x00,
 0x00,0x00,0x00,0x0c,0x80,0x00,0x00,0x00,0x00,0x80,0x08,0x00,0x00,0x00,0x00,
 0x00,0x00,0x00,0x00,0x00,0x60,0x00,0x00,0x00,0x00,0x00,0x00,0x00,0x00,0x80,
 0x00,0x00,0x00,0x00,0x00,0x0f,0x00,0x00,0x00,0x00,0x00,0x00,0x00,0x00,0x00,
 0x20,0x00,0x00,0x00,0x00,0x00,0x00,0x00,0x00,0x80,0x00,0x00,0x00,0x00,0x00,
 0x00,0x00,0x00,0x00,0x00,0x00,0x00,0x00,0x00,0x00,0x00,0x00,0x00,0x00,0x00,
 0x00,0x00,0x00,0x00,0x80,0x00,0x00,0x00,0x00,0x00,0x00,0x00,0x00,0x00,0x00,
 0x00,0x00,0x00,0x00,0x00,0x00,0x00,0x00,0x00,0x00,0x00,0x00,0x00,0x00,0x80,
 0x00,0x00,0x00,0x00,0x00,0x00,0x00,0x00,0x00,0x00,0x00,0x00,0x00,0x00,0x00,
 0x00,0x00,0x00,0x00,0x00,0x00,0x00,0x00,0x00,0x80,0x00,0x00,0x00,0x00,0x00,
 0x00,0x00,0x00,0x00,0x00,0x00,0x00,0x00,0x00,0x00,0x00,0x00,0x00,0x00,0x00,
 0x00,0x00,0x00,0x00,0x80,0x00,0x00,0x00,0x00,0x00,0x00,0x00,0x00,0x00,0x00,
 0x00,0x00,0x00,0x00,0x00,0x00,0x00,0x00,0x00,0x00,0x00,0x00,0x00,0x00,0x80,
 0x00,0x00,0x00,0x00,0x00,0x00,0x00,0x00,0x00,0x00,0x00,0x00,0x00,0x00,0x00,
 0x00,0x00,0x00,0x00,0x00,0x00,0x00,0x00,0x00,0x80,0x00,0x00,0x00,0x00,0x00,
 0x00,0x00,0x00,0x00,0x00,0x00,0x00,0x00,0x00,0x00,0x00,0x00,0x00,0x00,0x00,
 0x00,0x00,0x00,0x00,0x80,0x00,0x00,0x00,0x00,0x00,0x00,0x00,0x00,0x00,0x00,
 0x00,0x00,0x00,0x00,0x00,0x00,0x00,0x00,0x00,0x00,0x00,0x00,0x00,0x00,0x80,
 0x00,0x00,0x00,0x00,0x00,0x00,0x00,0x00,0x00,0x00,0x00,0x00,0x00,0x00,0x00,
 0x00,0x00,0x00,0x00,0x00,0x00,0x00,0x00,0x00,0x80,0x00,0x00,0x00,0x00,0x00,
 0x00,0x00,0x00,0x00,0x00,0x00,0x00,0x00,0x00,0x00,0x00,0x00,0x00,0x00,0x00,
 0x00,0x00,0x00,0x00,0x80,0x00,0x00,0x00,0x00,0x00,0x00,0x00,0x00,0x00,0x00,
 0x00,0x00,0x00,0x00,0x00,0x00,0x00,0x00,0x00,0x00,0x00,0x00,0x00,0x00,0x80,
 0x00,0x00,0x00,0x00,0x00,0x00,0x00,0x00,0x00,0x00,0x00,0x00,0x00,0x00,0x00,
 0x00,0x00,0x00,0x00,0x00,0x00,0x00,0x00,0x00,0x80,0x00,0x00,0x00,0x00,0x00,
 0x00,0x00,0x00,0x00,0x00,0x00,0x00,0x00,0x00,0x00,0x00,0x00,0x00,0x00,0x00,
 0x00,0x00,0x00,0x00,0x80,0x00,0x00,0x00,0x00,0x00,0x00,0x00,0x00,0x80,0x00,
 0x00,0x00,0x00,0x00,0x00,0x00,0x00,0x00,0x00,0x00,0x01,0x00,0x00,0x00,0x80,
 0x00,0x00,0x00,0x00,0x00,0x00,0x00,0x00,0x80,0x00,0x00,0x00,0x00,0x00,0x00,
 0x00,0x00,0x00,0x00,0x00,0x01,0x00,0x00,0x00,0x80,0x00,0x00,0x00,0x00,0x00,
 0x00,0x00,0x00,0x80,0x00,0x00,0x00,0x00,0x00,0x00,0x00,0x00,0x00,0x00,0x00,
 0x01,0x00,0x00,0x00,0x80,0x00,0x00,0x00,0x00,0x00,0x00,0x00,0x00,0x80,0x00,
 0x00,0x00,0x00,0x00,0x00,0x00,0x00,0x00,0x00,0x80,0x00,0x00,0x00,0x00,0x80,
 0x00,0x00,0x00,0x00,0x00,0x00,0x00,0x00,0x40,0x00,0x00,0x00,0x00,0x00,0x00,
 0x00,0x00,0x00,0x00,0x80,0x00,0x00,0x00,0x00,0x80,0x00,0xf8,0x07,0x00,0x60,
 0x20,0x00,0x00,0x40,0x00,0x00,0x40,0xe0,0x00,0x00,0xe0,0x00,0x00,0x00,0x86,
 0x08,0x00,0x00,0x00,0x83,0x00,0xfc,0x07,0x00,0xd0,0x70,0x00,0x00,0xf0,0x01,
 0x00,0xc0,0xf0,0x01,0x00,0x90,0x81,0x00,0x00,0x85,0x18,0x00,0xc0,0x00,0x83,
 0x00,0x24,0x00,0x00,0xc8,0x60,0x00,0x00,0x4c,0x02,0x00,0x40,0x18,0x01,0x00,
 0x80,0x41,0x00,0x80,0x4c,0x18,0x00,0x40,0x00,0x82,0x00,0x22,0x00,0x00,0x48,
 0x20,0x00,0x00,0x22,0x04,0x00,0x20,0x08,0x01,0x00,0x00,0x23,0x00,0x80,0x44,
 0x08,0x00,0x20,0x00,0x82,0x00,0x20,0x00,0x00,0x40,0x20,0x00,0x00,0x22,0x04,
 0x00,0x20,0x04,0x01,0x00,0x00,0x13,0x00,0x00,0x44,0x08,0x00,0x20,0x08,0x82,
 0x00,0x20,0x00,0x00,0x60,0x20,0x00,0x00,0x23,0x06,0x00,0x20,0x04,0x01,0x00,
 0x00,0x0b,0x00,0x00,0x46,0x08,0x00,0x20,0x08,0x81,0x00,0x20,0x00,0x00,0x20,
 0x20,0x00,0x00,0x21,0x06,0x00,0x20,0x82,0x00,0x00,0x00,0x0a,0x00,0x00,0x22,
 0x08,0x00,0x20,0x04,0x81,0x00,0x30,0x00,0x00,0x20,0x10,0x00,0x00,0x11,0x02,
 0x00,0x20,0x82,0x00,0x00,0x00,0x06,0x00,0x00,0x22,0x04,0x00,0x20,0x84,0x80,
 0x00,0x10,0x00,0x00,0x20,0x08,0x00,0x00,0x11,0x03,0x00,0x40,0x42,0x00,0x00,
 0x00,0x06,0x00,0x00,0x22,0x02,0x00,0x20,0xce,0x80,0x00,0x10,0x00,0x00,0x20,
 0x08,0x00,0x00,0x92,0x01,0x00,0xc0,0x22,0x00,0x00,0x00,0x05,0x00,0x00,0x22,
 0x01,0x00,0xe0,0x7b,0x80,0x00,0x10,0x00,0x00,0xc0,0x07,0x00,0x00,0xd6,0x00,
 0x00,0x80,0x1f,0x00,0x00,0x00,0x05,0x00,0x00,0x9c,0x00,0x00,0xc0,0x39,0x80,
 0x00,0x00,0x00,0x00,0x00,0x00,0x00,0x00,0x38,0x00,0x00,0x00,0x01,0x00,0x00,
 0x80,0x0c,0x00,0x00,0x70,0x00,0x00,0x00,0x00,0x80,0x00,0x00,0x00,0x00,0x00,
 0x00,0x00,0x00,0x08,0x00,0x00,0x00,0x01,0x00,0x00,0x40,0x0c,0x00,0x00,0x10,
 0x00,0x00,0x00,0x00,0x80,0x00,0x00,0x00,0x00,0x00,0x00,0x00,0x00,0x08,0x00,
 0x00,0x00,0x01,0x00,0x00,0x20,0x08,0x00,0x00,0x10,0x00,0x00,0x00,0x00,0x80,
 0x00,0x00,0x00,0x00,0x00,0x00,0x00,0x00,0x08,0x00,0x00,0x00,0x01,0x00,0x00,
 0x20,0x58,0x00,0x00,0x08,0x00,0x00,0x00,0x00,0x80,0x00,0x00,0x00,0x00,0x00,
 0x00,0x00,0x00,0x08,0x00,0x00,0x80,0x01,0x00,0x00,0x10,0x70,0x00,0x00,0x08,
 0x00,0x00,0x00,0x00,0x80,0x00,0x00,0x00,0x00,0x00,0x00,0x00,0x00,0x00,0x00,
 0x00,0x00,0x00,0x00,0x00,0x00,0x00,0x00,0x00,0x00,0x00,0x00,0x00,0x00,0x80,
 0x00,0x00,0x00,0x00,0x00,0x00,0x00,0x00,0x00,0x00,0x00,0x00,0x00,0x00,0x00,
 0x00,0x00,0x00,0x00,0x00,0x00,0x00,0x00,0x00,0x80,0x00,0x00,0x00,0x00,0x00,
 0x00,0x00,0x00,0x00,0x00,0x00,0x00,0x00,0x00,0x00,0x00,0x00,0x00,0x00,0x00,
 0x00,0x00,0x00,0x00,0x80,0x00,0x00,0x00,0x00,0x00,0x00,0x00,0x00,0x00,0x00,
 0x00,0x00,0x00,0x00,0x00,0x00,0x00,0x00,0x00,0x00,0x00,0x00,0x00,0x00,0x80
 };


