/* XPM */
static char * make_ascii_xpm[] = {
"20 20 2 1",
" 	c #BFBFBFBFBFBF",
".	c black",
"                    ",
" .................. ",
" .                . ",
" .  .   .  . . . .. ",
" . . . .  .  . .  . ",
" . . . .  .  . .  . ",
" . ...  . .  . .  . ",
" . . .  . .  . .  . ",
" . . . .   . . .  . ",
" .                . ",
" .                . ",
" .................. ",
" .                . ",
" .  ............  . ",
" .  .       .  .  . ",
" .  .       .  .  . ",
" .  .       .  .  . ",
"  . .       .  .  . ",
"   ................ ",
"                    "};



