/* XPM */
static char * quit_xpm[] = {
/* width height num_colors chars_per_pixel */
"20 20 2 1",
/* colors */
" 	c #BFBFBFBFBFBF",
".	c black",
/* pixels */
"                    ",
"                    ",
"                    ",
"         ....       ",
"        .    .      ",
"       .      .     ",
"       .      .     ",
"     ....      ..   ",
"    ......      .   ",
"   .........     .  ",
"  ...........    .  ",
"  ...........    .  ",
"  ...........       ",
"  ...........       ",
"  ...........       ",
"  ...........       ",
"  ...........       ",
"   .........        ",
"    ......          ",
"                    "};


