/* XPM */
static char const * smallcaps_xpm[] = {
/**/
"20 20 2 1",
/**/
" 	c #BFBFBFBFBFBF",
".	c black",
/**/
"                    ",
"                    ",
"                    ",
"                    ",
"                    ",
"    .               ",
"    .               ",
"   . .  ....   .... ",
"   . .   .  . ..    ",
"  .   .  .  . .     ",
"  .....  ...  .     ",
"  .   .  .  . .     ",
" .     . .  . ..    ",
"...   ......   .... ",
"                    ",
"                    ",
"                    ",
"                    ",
"                    ",
"                    "};


