/* XPM */
static char const * space_xpm[] = {
"20 20 2 1",
" 	c #BEFBBEFBBEFB",
".	c #FBEE14514103",
"                    ",
"                    ",
"                    ",
"                    ",
"                    ",
"                    ",
"                    ",
"                    ",
"                    ",
"                    ",
"                    ",
"    ...      ...    ",
"    ...      ...    ",
"    ...      ...    ",
"    ............    ",
"    ............    ",
"                    ",
"                    ",
"                    ",
"                    "};


