/* XPM */
static char const * tab_xpm[] = {
/*.e:*/
"20 20 2 1",
/**/
" 	c #BFBFBFBFBFBF",
".	c black",
/**/
"                    ",
"  ................  ",
"  .    .    .    .  ",
"  .    .    .    .  ",
"  .    .    .    .  ",
"  ................  ",
"                    ",
"  ................  ",
"  .    .    .    .  ",
"  .    .    .    .  ",
"  .    .    .    .  ",
"  ................  ",
"  .    .    .    .  ",
"  .    .    .    .  ",
"  .    .    .    .  ",
"  ................  ",
"  .    .    .    .  ",
"  .    .    .    .  ",
"  .    .    .    .  ",
"  ................  "};


