/* XPM */
static char const * unknown_xpm[] = {
/* width height num_colors chars_per_pixel */
"20 20 2 1",
/**/
" 	c #BFBFBFBFBFBF",
".	c black",
/**/
"                    ",
"                    ",
"                    ",
"                    ",
"                    ",
"        .....       ",
"       ..  ..       ",
"       ..  ..       ",
"          ..        ",
"        ...         ",
"        ..          ",
"                    ",
"        ..          ",
"        ..          ",
"                    ",
"                    ",
"                    ",
"                    ",
"                    ",
"                    "};


