<?xml version="1.0" encoding="UTF-8" standalone="no"?>
<!-- Created with Inkscape (http://www.inkscape.org/) -->
<svg
   xmlns:dc="http://purl.org/dc/elements/1.1/"
   xmlns:cc="http://creativecommons.org/ns#"
   xmlns:rdf="http://www.w3.org/1999/02/22-rdf-syntax-ns#"
   xmlns:svg="http://www.w3.org/2000/svg"
   xmlns="http://www.w3.org/2000/svg"
   xmlns:xlink="http://www.w3.org/1999/xlink"
   xmlns:sodipodi="http://sodipodi.sourceforge.net/DTD/sodipodi-0.dtd"
   xmlns:inkscape="http://www.inkscape.org/namespaces/inkscape"
   width="128"
   height="128"
   id="svg2"
   sodipodi:version="0.32"
   inkscape:version="0.46"
   version="1.0"
   sodipodi:docbase="/home/david/Progetti/oxygen-svn/Oxygen/theme/svg/actions"
   sodipodi:docname="toolbar-table.svg"
   inkscape:output_extension="org.inkscape.output.svg.inkscape"
   sodipodi:modified="true">
  <defs
     id="defs4">
    <linearGradient
       id="linearGradient4309">
      <stop
         style="stop-color:#bbbbbb;stop-opacity:1;"
         offset="0"
         id="stop4311" />
      <stop
         style="stop-color:#dddddd;stop-opacity:1;"
         offset="1"
         id="stop4313" />
    </linearGradient>
    <linearGradient
       inkscape:collect="always"
       xlink:href="#XMLID_43_"
       id="linearGradient4437"
       x1="25.308176"
       y1="64"
       x2="5.5849061"
       y2="64"
       gradientUnits="userSpaceOnUse"
       gradientTransform="matrix(0.6328125,0,0,0.6919643,31.562497,31.964288)" />
    <linearGradient
       id="XMLID_43_"
       gradientUnits="userSpaceOnUse"
       x1="153"
       y1="175.5566"
       x2="153"
       y2="172.4442"
       gradientTransform="translate(-143,-64)">
      <stop
         offset="0"
         style="stop-color:#FFFFFF"
         id="stop92" />
      <stop
         offset="1"
         style="stop-color:#DDDDDD"
         id="stop94" />
    </linearGradient>
    <linearGradient
       inkscape:collect="always"
       xlink:href="#XMLID_43_"
       id="linearGradient4441"
       gradientUnits="userSpaceOnUse"
       x1="25.308176"
       y1="64"
       x2="5.5849061"
       y2="64"
       gradientTransform="matrix(0.6605113,0,0,0.5725448,35.738642,-115.45536)" />
    <inkscape:perspective
       sodipodi:type="inkscape:persp3d"
       inkscape:vp_x="0 : 64 : 1"
       inkscape:vp_y="0 : 1000 : 0"
       inkscape:vp_z="128 : 64 : 1"
       inkscape:persp3d-origin="64 : 42.666667 : 1"
       id="perspective2857" />
    <radialGradient
       inkscape:collect="always"
       xlink:href="#linearGradient3291"
       id="radialGradient3336"
       gradientUnits="userSpaceOnUse"
       gradientTransform="matrix(1,0,0,0.197802,0,92.82166)"
       cx="63.912209"
       cy="115.70919"
       fx="63.912209"
       fy="115.7093"
       r="63.912209" />
    <radialGradient
       inkscape:collect="always"
       xlink:href="#linearGradient3765"
       id="radialGradient3521"
       gradientUnits="userSpaceOnUse"
       gradientTransform="matrix(1.484142,0.129521,-0.489782,5.61225,35.51325,-445.3727)"
       cx="23.662739"
       cy="95.898506"
       fx="24.26058"
       fy="96.778763"
       r="2.793914" />
    <radialGradient
       inkscape:collect="always"
       xlink:href="#linearGradient3747"
       id="radialGradient3519"
       gradientUnits="userSpaceOnUse"
       gradientTransform="matrix(1,0,0,9.492274e-2,0,-41.10492)"
       cx="5.7531347"
       cy="-45.41592"
       fx="74.816956"
       fy="-43.169445"
       r="124.10334" />
    <radialGradient
       inkscape:collect="always"
       xlink:href="#linearGradient3747"
       id="radialGradient3517"
       gradientUnits="userSpaceOnUse"
       gradientTransform="matrix(1,0,0,9.492274e-2,0,-41.10492)"
       cx="5.7531347"
       cy="-45.41592"
       fx="74.816956"
       fy="-43.169445"
       r="124.10334" />
    <radialGradient
       inkscape:collect="always"
       xlink:href="#linearGradient3747"
       id="radialGradient3515"
       gradientUnits="userSpaceOnUse"
       gradientTransform="matrix(1,0,0,9.492274e-2,0,-41.10492)"
       cx="5.7531347"
       cy="-45.41592"
       fx="74.816956"
       fy="-43.169445"
       r="124.10334" />
    <linearGradient
       inkscape:collect="always"
       xlink:href="#linearGradient1563"
       id="linearGradient3513"
       gradientUnits="userSpaceOnUse"
       x1="98.291809"
       y1="-44.01474"
       x2="44.242641"
       y2="101.45739" />
    <linearGradient
       inkscape:collect="always"
       xlink:href="#linearGradient1563"
       id="linearGradient3511"
       gradientUnits="userSpaceOnUse"
       x1="98.291809"
       y1="-44.01474"
       x2="44.242641"
       y2="101.45739" />
    <linearGradient
       inkscape:collect="always"
       xlink:href="#linearGradient1563"
       id="linearGradient3509"
       gradientUnits="userSpaceOnUse"
       x1="98.291809"
       y1="-126.7503"
       x2="44.242641"
       y2="101.45739" />
    <radialGradient
       inkscape:collect="always"
       xlink:href="#linearGradient12948"
       id="radialGradient3507"
       gradientUnits="userSpaceOnUse"
       gradientTransform="matrix(1,0,0,0.941176,0,3.492906)"
       cx="23.190451"
       cy="59.379417"
       fx="22.471308"
       fy="59.354759"
       r="2.1082227" />
    <linearGradient
       inkscape:collect="always"
       xlink:href="#linearGradient3638"
       id="linearGradient3505"
       gradientUnits="userSpaceOnUse"
       x1="57.287113"
       y1="1.1597457"
       x2="144.2531"
       y2="16.876789" />
    <linearGradient
       inkscape:collect="always"
       xlink:href="#linearGradient3638"
       id="linearGradient3503"
       gradientUnits="userSpaceOnUse"
       x1="57.287113"
       y1="1.1597457"
       x2="144.2531"
       y2="16.876789" />
    <linearGradient
       inkscape:collect="always"
       xlink:href="#linearGradient3638"
       id="linearGradient3501"
       gradientUnits="userSpaceOnUse"
       x1="57.287113"
       y1="1.1597457"
       x2="144.2531"
       y2="16.876789" />
    <radialGradient
       inkscape:collect="always"
       xlink:href="#linearGradient3291"
       id="radialGradient3499"
       gradientUnits="userSpaceOnUse"
       gradientTransform="matrix(1,0,0,0.197802,0,92.82166)"
       cx="63.912209"
       cy="115.70919"
       fx="63.975182"
       fy="116.88514"
       r="63.912209" />
    <linearGradient
       inkscape:collect="always"
       xlink:href="#linearGradient3273"
       id="linearGradient3497"
       gradientUnits="userSpaceOnUse"
       gradientTransform="matrix(0.959962,0,0,0.959962,2.35549,3.275418)"
       spreadMethod="reflect"
       x1="80.100487"
       y1="44.807674"
       x2="77.714729"
       y2="101.4734" />
    <linearGradient
       inkscape:collect="always"
       xlink:href="#linearGradient3290"
       id="linearGradient3495"
       gradientUnits="userSpaceOnUse"
       x1="84.634949"
       y1="116.10083"
       x2="89.72541"
       y2="-15.33666" />
    <linearGradient
       id="linearGradient3235">
      <stop
         style="stop-color:#e3e3e6;stop-opacity:1;"
         offset="0"
         id="stop3237" />
      <stop
         style="stop-color:#ffffff;stop-opacity:1;"
         offset="1"
         id="stop3239" />
    </linearGradient>
    <linearGradient
       id="linearGradient3236">
      <stop
         style="stop-color:#727272;stop-opacity:1;"
         offset="0"
         id="stop3238" />
      <stop
         style="stop-color:#f8f8f8;stop-opacity:1;"
         offset="1"
         id="stop3240" />
    </linearGradient>
    <linearGradient
       id="linearGradient3290">
      <stop
         style="stop-color:yellow;stop-opacity:1;"
         offset="0"
         id="stop3292" />
      <stop
         style="stop-color:#ffb66d;stop-opacity:1;"
         offset="1"
         id="stop3294" />
    </linearGradient>
    <linearGradient
       inkscape:collect="always"
       id="linearGradient3765">
      <stop
         style="stop-color:#ffffff;stop-opacity:1;"
         offset="0"
         id="stop3767" />
      <stop
         style="stop-color:#ffffff;stop-opacity:0;"
         offset="1"
         id="stop3769" />
    </linearGradient>
    <linearGradient
       inkscape:collect="always"
       id="linearGradient3747">
      <stop
         style="stop-color:#ffffff;stop-opacity:1;"
         offset="0"
         id="stop3749" />
      <stop
         style="stop-color:#ffffff;stop-opacity:0;"
         offset="1"
         id="stop3751" />
    </linearGradient>
    <linearGradient
       id="linearGradient3638">
      <stop
         style="stop-color:#ffffff;stop-opacity:0;"
         offset="0"
         id="stop3640" />
      <stop
         id="stop3661"
         offset="0.06868132"
         style="stop-color:#ffffff;stop-opacity:1;" />
      <stop
         id="stop3659"
         offset="0.5"
         style="stop-color:#ffffff;stop-opacity:1;" />
      <stop
         style="stop-color:#ffffff;stop-opacity:0;"
         offset="1"
         id="stop3642" />
    </linearGradient>
    <linearGradient
       id="linearGradient1563">
      <stop
         id="stop1565"
         offset="0"
         style="stop-color:#ffffff;stop-opacity:1;" />
      <stop
         id="stop1567"
         offset="1"
         style="stop-color:white;stop-opacity:0;" />
    </linearGradient>
    <linearGradient
       id="linearGradient3273">
      <stop
         id="stop3275"
         offset="0"
         style="stop-color:#ffffff;stop-opacity:0.55035973;" />
      <stop
         id="stop3277"
         offset="1"
         style="stop-color:#ffffff;stop-opacity:0;" />
    </linearGradient>
    <linearGradient
       id="linearGradient3291"
       inkscape:collect="always">
      <stop
         id="stop3293"
         offset="0"
         style="stop-color:#000000;stop-opacity:1;" />
      <stop
         id="stop3295"
         offset="1"
         style="stop-color:#000000;stop-opacity:0;" />
    </linearGradient>
    <linearGradient
       id="linearGradient12948">
      <stop
         style="stop-color:#ffffff;stop-opacity:1;"
         offset="0"
         id="stop12950" />
      <stop
         style="stop-color:#c0c0c0;stop-opacity:0;"
         offset="1"
         id="stop12952" />
    </linearGradient>
    <radialGradient
       inkscape:collect="always"
       xlink:href="#linearGradient3236"
       id="radialGradient3165"
       cx="152.08052"
       cy="40.428711"
       fx="153.39473"
       fy="41.424862"
       r="4.3543735"
       gradientUnits="userSpaceOnUse"
       gradientTransform="matrix(1.17806,-4.586233e-6,4.447791e-6,1.142499,-27.0796,-5.760327)" />
    <radialGradient
       inkscape:collect="always"
       xlink:href="#linearGradient3236"
       id="radialGradient3179"
       gradientUnits="userSpaceOnUse"
       gradientTransform="matrix(1.17806,-4.586233e-6,4.447791e-6,1.142499,-27.0796,-5.760327)"
       cx="152.08052"
       cy="40.428711"
       fx="153.39473"
       fy="41.424862"
       r="4.3543735" />
    <radialGradient
       inkscape:collect="always"
       xlink:href="#linearGradient3236"
       id="radialGradient3181"
       gradientUnits="userSpaceOnUse"
       gradientTransform="matrix(1.17806,-4.586233e-6,4.447791e-6,1.142499,-27.0796,-5.760327)"
       cx="152.08052"
       cy="40.428711"
       fx="153.39473"
       fy="41.424862"
       r="4.3543735" />
    <linearGradient
       inkscape:collect="always"
       xlink:href="#linearGradient3290"
       id="linearGradient3208"
       gradientUnits="userSpaceOnUse"
       gradientTransform="matrix(0.627872,0,0,0.627872,201.602,20.28579)"
       x1="84.634949"
       y1="116.10083"
       x2="89.72541"
       y2="-15.33666" />
    <linearGradient
       inkscape:collect="always"
       xlink:href="#linearGradient3273"
       id="linearGradient3210"
       gradientUnits="userSpaceOnUse"
       gradientTransform="matrix(0.602733,0,0,0.602733,203.0809,22.34233)"
       spreadMethod="reflect"
       x1="80.100487"
       y1="44.807674"
       x2="77.714729"
       y2="101.4734" />
    <linearGradient
       inkscape:collect="always"
       xlink:href="#linearGradient3638"
       id="linearGradient3212"
       gradientUnits="userSpaceOnUse"
       gradientTransform="matrix(0.627872,0,0,0.627872,201.602,20.28579)"
       x1="57.287113"
       y1="1.1597457"
       x2="144.2531"
       y2="16.876789" />
    <linearGradient
       inkscape:collect="always"
       xlink:href="#linearGradient3638"
       id="linearGradient3214"
       gradientUnits="userSpaceOnUse"
       gradientTransform="matrix(0.627872,0,0,0.627872,201.602,20.28579)"
       x1="57.287113"
       y1="1.1597457"
       x2="144.2531"
       y2="16.876789" />
    <linearGradient
       inkscape:collect="always"
       xlink:href="#linearGradient3638"
       id="linearGradient3216"
       gradientUnits="userSpaceOnUse"
       gradientTransform="matrix(0.627872,0,0,0.627872,201.602,20.28579)"
       x1="57.287113"
       y1="1.1597457"
       x2="144.2531"
       y2="16.876789" />
    <radialGradient
       inkscape:collect="always"
       xlink:href="#linearGradient12948"
       id="radialGradient3218"
       gradientUnits="userSpaceOnUse"
       gradientTransform="matrix(1,0,0,0.941176,0,3.492906)"
       cx="23.190451"
       cy="59.379417"
       fx="22.471308"
       fy="59.354759"
       r="2.1082227" />
    <linearGradient
       inkscape:collect="always"
       xlink:href="#linearGradient1563"
       id="linearGradient3220"
       gradientUnits="userSpaceOnUse"
       gradientTransform="matrix(0.627872,0,0,0.627872,201.602,20.28579)"
       x1="98.291809"
       y1="-126.7503"
       x2="44.242641"
       y2="101.45739" />
    <linearGradient
       inkscape:collect="always"
       xlink:href="#linearGradient1563"
       id="linearGradient3222"
       gradientUnits="userSpaceOnUse"
       gradientTransform="matrix(0.627872,0,0,0.627872,201.602,20.28579)"
       x1="98.291809"
       y1="-44.01474"
       x2="44.242641"
       y2="101.45739" />
    <linearGradient
       inkscape:collect="always"
       xlink:href="#linearGradient1563"
       id="linearGradient3224"
       gradientUnits="userSpaceOnUse"
       gradientTransform="matrix(0.627872,0,0,0.627872,201.602,20.28579)"
       x1="98.291809"
       y1="-44.01474"
       x2="44.242641"
       y2="101.45739" />
    <radialGradient
       inkscape:collect="always"
       xlink:href="#linearGradient3747"
       id="radialGradient3226"
       gradientUnits="userSpaceOnUse"
       gradientTransform="matrix(1,0,0,9.492274e-2,0,-41.10492)"
       cx="5.7531347"
       cy="-45.41592"
       fx="74.816956"
       fy="-43.169445"
       r="124.10334" />
    <radialGradient
       inkscape:collect="always"
       xlink:href="#linearGradient3747"
       id="radialGradient3228"
       gradientUnits="userSpaceOnUse"
       gradientTransform="matrix(1,0,0,9.492274e-2,0,-41.10492)"
       cx="5.7531347"
       cy="-45.41592"
       fx="74.816956"
       fy="-43.169445"
       r="124.10334" />
    <radialGradient
       inkscape:collect="always"
       xlink:href="#linearGradient3747"
       id="radialGradient3230"
       gradientUnits="userSpaceOnUse"
       gradientTransform="matrix(1,0,0,9.492274e-2,0,-41.10492)"
       cx="5.7531347"
       cy="-45.41592"
       fx="74.816956"
       fy="-43.169445"
       r="124.10334" />
    <radialGradient
       inkscape:collect="always"
       xlink:href="#linearGradient3765"
       id="radialGradient3232"
       gradientUnits="userSpaceOnUse"
       gradientTransform="matrix(0.931851,8.132258e-2,-0.30752,3.523773,223.8997,-259.3512)"
       cx="23.662739"
       cy="95.898506"
       fx="24.26058"
       fy="96.778763"
       r="2.793914" />
    <linearGradient
       inkscape:collect="always"
       xlink:href="#linearGradient3235"
       id="linearGradient4214"
       x1="144"
       y1="32"
       x2="145.24672"
       y2="88.013878"
       gradientUnits="userSpaceOnUse"
       gradientTransform="translate(-80,0)" />
  </defs>
  <sodipodi:namedview
     id="base"
     pagecolor="#ffffff"
     bordercolor="#666666"
     borderopacity="1.0"
     inkscape:pageopacity="0.0"
     inkscape:pageshadow="2"
     inkscape:zoom="4"
     inkscape:cx="102.93971"
     inkscape:cy="57.138406"
     inkscape:document-units="px"
     inkscape:current-layer="layer1"
     inkscape:window-width="1018"
     inkscape:window-height="729"
     inkscape:window-x="191"
     inkscape:window-y="265"
     showgrid="true"
     showguides="true"
     inkscape:guide-bbox="true">
    <inkscape:grid
       id="GridFromPre046Settings"
       type="xygrid"
       originx="0px"
       originy="0px"
       spacingx="8px"
       spacingy="8px"
       color="#0000ff"
       empcolor="#0000ff"
       opacity="0.2"
       empopacity="0.4"
       empspacing="0" />
  </sodipodi:namedview>
  <metadata
     id="metadata7">
    <rdf:RDF>
      <cc:Work
         rdf:about="">
        <dc:format>image/svg+xml</dc:format>
        <dc:type
           rdf:resource="http://purl.org/dc/dcmitype/StillImage" />
      </cc:Work>
    </rdf:RDF>
  </metadata>
  <g
     inkscape:label="Layer 1"
     inkscape:groupmode="layer"
     id="layer1">
    <path
       sodipodi:type="arc"
       style="opacity:0.38139535;fill:url(#radialGradient3336);fill-opacity:1;fill-rule:nonzero;stroke:none;stroke-width:0;stroke-linecap:round;stroke-linejoin:round;stroke-miterlimit:4;stroke-dasharray:none;stroke-dashoffset:4;stroke-opacity:1"
       id="path1563"
       sodipodi:cx="63.912209"
       sodipodi:cy="115.70919"
       sodipodi:rx="63.912209"
       sodipodi:ry="12.641975"
       d="M 127.82442 115.70919 A 63.912209 12.641975 0 1 1  0,115.70919 A 63.912209 12.641975 0 1 1  127.82442 115.70919 z"
       transform="matrix(1.001374,0,0,0.410379,-2.3931686e-5,75.327377)" />
    <rect
       ry="8.2106857"
       rx="8.2106857"
       y="32"
       x="8"
       height="56"
       width="112"
       id="rect4216"
       style="opacity:1;fill:#888888;fill-opacity:1;fill-rule:nonzero;stroke:#bbbbbb;stroke-width:8;stroke-linecap:round;stroke-linejoin:round;stroke-miterlimit:4;stroke-dasharray:none;stroke-opacity:1" />
    <rect
       style="opacity:1;fill:url(#linearGradient4214);fill-opacity:1;fill-rule:nonzero;stroke:none;stroke-width:8;stroke-linecap:round;stroke-linejoin:round;stroke-miterlimit:4;stroke-dasharray:none;stroke-opacity:1"
       id="rect4212"
       width="112"
       height="56"
       x="8"
       y="32"
       rx="8.2106857"
       ry="8.2106857" />
    <path
       sodipodi:nodetypes="ccc"
       id="path2276"
       d="M -106.3852,44.124126 L -106.3852,41.329417 L -106.3852,44.124126 z "
       style="fill:#ffffff;fill-opacity:0.75688076;fill-rule:nonzero;stroke:none;stroke-width:0.5;stroke-linecap:round;stroke-linejoin:round;stroke-miterlimit:4;stroke-dasharray:none;stroke-dashoffset:4;stroke-opacity:1" />
    <path
       sodipodi:nodetypes="ccc"
       id="path2191"
       d="M 188.2242,-18.066764 L 188.2242,-20.861473 L 188.2242,-18.066764 z "
       style="fill:white;fill-opacity:0.75688076;fill-rule:nonzero;stroke:none;stroke-width:0.5;stroke-linecap:round;stroke-linejoin:round;stroke-miterlimit:4;stroke-dasharray:none;stroke-dashoffset:4;stroke-opacity:1" />
    <path
       sodipodi:nodetypes="ccc"
       id="path2985"
       d="M 31.2159,-87.701864 L 31.2159,-90.496573 L 31.2159,-87.701864 z "
       style="fill:white;fill-opacity:0.75688076;fill-rule:nonzero;stroke:none;stroke-width:0.5;stroke-linecap:round;stroke-linejoin:round;stroke-miterlimit:4;stroke-dasharray:none;stroke-dashoffset:4;stroke-opacity:1" />
    <path
       sodipodi:nodetypes="ccc"
       id="path3206"
       d="M -88.2863,-174.33211 L -88.2863,-177.12682 L -88.2863,-174.33211 z "
       style="fill:white;fill-opacity:0.75688076;fill-rule:nonzero;stroke:none;stroke-width:0.5;stroke-linecap:round;stroke-linejoin:round;stroke-miterlimit:4;stroke-dasharray:none;stroke-dashoffset:4;stroke-opacity:1" />
    <g
       id="layer4"
       inkscape:label="box"
       style="display:inline"
       transform="translate(94.6653,-29.75048)" />
    <g
       id="layer5"
       inkscape:label="zip_app"
       style="display:inline"
       transform="translate(94.6653,-29.75048)" />
    <path
       sodipodi:nodetypes="ccc"
       id="path3946"
       d="M 158.3051,-108.57684 L 158.3051,-111.37155 L 158.3051,-108.57684 z "
       style="fill:white;fill-opacity:0.75688076;fill-rule:nonzero;stroke:none;stroke-width:0.5;stroke-linecap:round;stroke-linejoin:round;stroke-miterlimit:4;stroke-dasharray:none;stroke-dashoffset:4;stroke-opacity:1" />
    <path
       sodipodi:nodetypes="ccc"
       id="path1561"
       d="M 65.680654,-34.683164 L 65.680654,-36.2099 L 65.680654,-34.683164 z "
       style="fill:white;fill-opacity:0.75688076;fill-rule:nonzero;stroke:none;stroke-width:0.5;stroke-linecap:round;stroke-linejoin:round;stroke-miterlimit:4;stroke-dasharray:none;stroke-dashoffset:4;stroke-opacity:1" />
    <rect
       style="opacity:0.57786889;fill:white;fill-opacity:1;fill-rule:nonzero;stroke:none;stroke-width:3.63199997;stroke-linecap:round;stroke-linejoin:round;stroke-miterlimit:4;stroke-dasharray:none;stroke-dashoffset:4;stroke-opacity:1"
       id="rect1327"
       width="1"
       height="0"
       x="8.1959171"
       y="-91.28315" />
    <rect
       style="opacity:0.57786889;fill:white;fill-opacity:1;fill-rule:nonzero;stroke:none;stroke-width:3.63199997;stroke-linecap:round;stroke-linejoin:round;stroke-miterlimit:4;stroke-dasharray:none;stroke-dashoffset:4;stroke-opacity:1"
       id="rect2482"
       width="1"
       height="0"
       x="-26.930899"
       y="-118.81076" />
    <path
       sodipodi:nodetypes="ccc"
       id="path2494"
       d="M -185.86832,-192.02683 L -185.86832,-194.82154 L -185.86832,-192.02683 z "
       style="fill:white;fill-opacity:0.75688076;fill-rule:nonzero;stroke:none;stroke-width:0.5;stroke-linecap:round;stroke-linejoin:round;stroke-miterlimit:4;stroke-dasharray:none;stroke-dashoffset:4;stroke-opacity:1" />
    <g
       style="opacity:0.40163933"
       transform="matrix(-0.782995,0,0,0.650879,-2508.727,494.4908)"
       id="g4640" />
    <g
       id="g4646"
       transform="matrix(-0.782995,0,0,0.650879,-2508.727,494.4908)"
       style="opacity:0.40163933" />
    <g
       id="g4730"
       transform="matrix(1,0,0,0.650879,692.2361,501.8186)"
       style="opacity:0.40163933" />
    <g
       style="opacity:0.40163933"
       transform="matrix(1,0,0,0.650879,692.2361,501.8186)"
       id="g4748" />
    <path
       sodipodi:type="arc"
       style="opacity:1;fill:url(#radialGradient3165);fill-opacity:1;fill-rule:nonzero;stroke:none;stroke-width:1;stroke-linecap:round;stroke-linejoin:round;stroke-miterlimit:4;stroke-dasharray:none;stroke-dashoffset:4;stroke-opacity:0.71951222"
       id="path2258"
       sodipodi:cx="152.08052"
       sodipodi:cy="40.428711"
       sodipodi:rx="4.3543735"
       sodipodi:ry="4.3543735"
       d="M 156.43489 40.428711 A 4.3543735 4.3543735 0 1 1  147.72615,40.428711 A 4.3543735 4.3543735 0 1 1  156.43489 40.428711 z"
       transform="matrix(0.9186167,0,0,0.9186167,-119.70371,6.8615108)" />
    <path
       sodipodi:type="arc"
       style="opacity:1;fill:url(#radialGradient3181);fill-opacity:1;fill-rule:nonzero;stroke:none;stroke-width:1;stroke-linecap:round;stroke-linejoin:round;stroke-miterlimit:4;stroke-dasharray:none;stroke-dashoffset:4;stroke-opacity:0.71951222"
       id="path3175"
       sodipodi:cx="152.08052"
       sodipodi:cy="40.428711"
       sodipodi:rx="4.3543735"
       sodipodi:ry="4.3543735"
       d="M 156.43489 40.428711 A 4.3543735 4.3543735 0 1 1  147.72615,40.428711 A 4.3543735 4.3543735 0 1 1  156.43489 40.428711 z"
       transform="matrix(0.9186167,0,0,0.9186167,-119.70371,22.861511)" />
    <path
       transform="matrix(0.9186167,0,0,0.9186167,-119.70371,38.861511)"
       d="M 156.43489 40.428711 A 4.3543735 4.3543735 0 1 1  147.72615,40.428711 A 4.3543735 4.3543735 0 1 1  156.43489 40.428711 z"
       sodipodi:ry="4.3543735"
       sodipodi:rx="4.3543735"
       sodipodi:cy="40.428711"
       sodipodi:cx="152.08052"
       id="path3177"
       style="opacity:1;fill:url(#radialGradient3179);fill-opacity:1;fill-rule:nonzero;stroke:none;stroke-width:1;stroke-linecap:round;stroke-linejoin:round;stroke-miterlimit:4;stroke-dasharray:none;stroke-dashoffset:4;stroke-opacity:0.71951222"
       sodipodi:type="arc" />
    <rect
       style="fill:#ffffff;fill-opacity:1;fill-rule:evenodd;stroke:none;stroke-width:1px;stroke-linecap:butt;stroke-linejoin:miter;stroke-opacity:1"
       id="rect2344"
       width="81"
       height="77.5"
       x="33.25"
       y="37.5" />
    <rect
       y="-110.875"
       x="41.022724"
       height="64.125"
       width="10.568179"
       id="rect4439"
       style="opacity:1;fill:url(#linearGradient4441);fill-opacity:1;stroke:none;stroke-width:8;stroke-linecap:round;stroke-linejoin:round;stroke-miterlimit:4;stroke-dasharray:none;stroke-opacity:1"
       transform="matrix(-3.1865693e-8,1,-1,-4.2409676e-8,0,0)" />
    <rect
       style="opacity:1;fill:url(#linearGradient4437);fill-opacity:1;stroke:none;stroke-width:8;stroke-linecap:round;stroke-linejoin:round;stroke-miterlimit:4;stroke-dasharray:none;stroke-opacity:1"
       id="rect4429"
       width="10.125"
       height="77.5"
       x="36.625"
       y="37.5" />
    <path
       style="opacity:1;fill:#4d4d4d;fill-opacity:1;stroke:none;stroke-width:8;stroke-linecap:round;stroke-linejoin:round;stroke-miterlimit:4;stroke-dasharray:none;stroke-opacity:1"
       d="M 33.25,37.5 L 33.25,93.863636 L 33.25,115 L 70.375,115 L 87.25,115 L 114.25,115 L 114.25,111.47727 L 114.25,104.43182 L 114.25,100.90909 L 114.25,93.863636 L 114.25,90.340909 L 114.25,83.295455 L 114.25,79.772727 L 114.25,72.727273 L 114.25,69.204545 L 114.25,62.159091 L 114.25,58.636364 L 114.25,51.590909 L 114.25,48.068182 L 114.25,41.022727 L 114.25,37.5 L 87.25,37.5 L 33.25,37.5 z M 36.625,41.022727 L 43.375,41.022727 L 43.375,48.068182 L 36.625,48.068182 L 36.625,41.022727 z M 46.75,41.022727 L 56.875,41.022727 L 56.875,48.068182 L 46.75,48.068182 L 46.75,41.022727 z M 60.25,41.022727 L 70.375,41.022727 L 70.375,48.068182 L 60.25,48.068182 L 60.25,41.022727 z M 73.75,41.022727 L 83.875,41.022727 L 83.875,48.068182 L 73.75,48.068182 L 73.75,41.022727 z M 87.25,41.022727 L 97.375,41.022727 L 97.375,48.068182 L 87.25,48.068182 L 87.25,41.022727 z M 100.75,41.022727 L 110.875,41.022727 L 110.875,48.068182 L 100.75,48.068182 L 100.75,41.022727 z M 36.625,51.590909 L 43.375,51.590909 L 43.375,58.636364 L 36.625,58.636364 L 36.625,51.590909 z M 46.75,51.590909 L 56.875,51.590909 L 56.875,58.636364 L 46.75,58.636364 L 46.75,51.590909 z M 60.25,51.590909 L 70.375,51.590909 L 70.375,58.636364 L 60.25,58.636364 L 60.25,51.590909 z M 73.75,51.590909 L 83.875,51.590909 L 83.875,58.636364 L 73.75,58.636364 L 73.75,51.590909 z M 87.25,51.590909 L 97.375,51.590909 L 97.375,58.636364 L 87.25,58.636364 L 87.25,51.590909 z M 100.75,51.590909 L 110.875,51.590909 L 110.875,58.636364 L 100.75,58.636364 L 100.75,51.590909 z M 36.625,62.159091 L 43.375,62.159091 L 43.375,69.204545 L 36.625,69.204545 L 36.625,62.159091 z M 46.75,62.159091 L 56.875,62.159091 L 56.875,69.204545 L 46.75,69.204545 L 46.75,62.159091 z M 60.25,62.159091 L 70.375,62.159091 L 70.375,69.204545 L 60.25,69.204545 L 60.25,62.159091 z M 73.75,62.159091 L 83.875,62.159091 L 83.875,69.204545 L 73.75,69.204545 L 73.75,62.159091 z M 87.25,62.159091 L 97.375,62.159091 L 97.375,69.204545 L 87.25,69.204545 L 87.25,62.159091 z M 100.75,62.159091 L 110.875,62.159091 L 110.875,69.204545 L 100.75,69.204545 L 100.75,62.159091 z M 36.625,72.727273 L 43.375,72.727273 L 43.375,79.772727 L 36.625,79.772727 L 36.625,72.727273 z M 46.75,72.727273 L 56.875,72.727273 L 56.875,79.772727 L 46.75,79.772727 L 46.75,72.727273 z M 60.25,72.727273 L 70.375,72.727273 L 70.375,79.772727 L 60.25,79.772727 L 60.25,72.727273 z M 73.75,72.727273 L 83.875,72.727273 L 83.875,79.772727 L 73.75,79.772727 L 73.75,72.727273 z M 87.25,72.727273 L 97.375,72.727273 L 97.375,79.772727 L 87.25,79.772727 L 87.25,72.727273 z M 100.75,72.727273 L 110.875,72.727273 L 110.875,79.772727 L 100.75,79.772727 L 100.75,72.727273 z M 36.625,83.295455 L 43.375,83.295455 L 43.375,90.340909 L 36.625,90.340909 L 36.625,83.295455 z M 46.75,83.295455 L 56.875,83.295455 L 56.875,90.340909 L 46.75,90.340909 L 46.75,83.295455 z M 60.25,83.295455 L 70.375,83.295455 L 70.375,90.340909 L 60.25,90.340909 L 60.25,83.295455 z M 73.75,83.295455 L 83.875,83.295455 L 83.875,90.340909 L 73.75,90.340909 L 73.75,83.295455 z M 87.25,83.295455 L 97.375,83.295455 L 97.375,90.340909 L 87.25,90.340909 L 87.25,83.295455 z M 100.75,83.295455 L 110.875,83.295455 L 110.875,90.340909 L 100.75,90.340909 L 100.75,83.295455 z M 36.625,93.863636 L 43.375,93.863636 L 43.375,100.90909 L 36.625,100.90909 L 36.625,93.863636 z M 46.75,93.863636 L 56.875,93.863636 L 56.875,100.90909 L 46.75,100.90909 L 46.75,93.863636 z M 60.25,93.863636 L 70.375,93.863636 L 70.375,100.90909 L 60.25,100.90909 L 60.25,93.863636 z M 73.75,93.863636 L 83.875,93.863636 L 83.875,100.90909 L 73.75,100.90909 L 73.75,93.863636 z M 87.25,93.863636 L 97.375,93.863636 L 97.375,100.90909 L 87.25,100.90909 L 87.25,93.863636 z M 100.75,93.863636 L 110.875,93.863636 L 110.875,100.90909 L 100.75,100.90909 L 100.75,93.863636 z M 36.625,104.43182 L 43.375,104.43182 L 43.375,111.47727 L 36.625,111.47727 L 36.625,104.43182 z M 46.75,104.43182 L 56.875,104.43182 L 56.875,111.47727 L 46.75,111.47727 L 46.75,104.43182 z M 60.25,104.43182 L 70.375,104.43182 L 70.375,111.47727 L 60.25,111.47727 L 60.25,104.43182 z M 73.75,104.43182 L 83.875,104.43182 L 83.875,111.47727 L 73.75,111.47727 L 73.75,104.43182 z M 87.25,104.43182 L 97.375,104.43182 L 97.375,111.47727 L 87.25,111.47727 L 87.25,104.43182 z M 100.75,104.43182 L 110.875,104.43182 L 110.875,111.47727 L 100.75,111.47727 L 100.75,104.43182 z"
       id="rect3338" />
    <rect
       y="19.886364"
       x="19.75"
       height="116.36363"
       width="0"
       id="rect3244"
       style="opacity:0.73000004;fill:#e5ff00;fill-opacity:1;stroke:none;stroke-width:8;stroke-linecap:square;stroke-linejoin:miter;stroke-miterlimit:4;stroke-dasharray:none;stroke-opacity:1" />
  </g>
</svg>
