<?xml version="1.0" encoding="UTF-8" standalone="no"?>
<!-- Created with Inkscape (http://www.inkscape.org/) -->
<svg
   xmlns:dc="http://purl.org/dc/elements/1.1/"
   xmlns:cc="http://creativecommons.org/ns#"
   xmlns:rdf="http://www.w3.org/1999/02/22-rdf-syntax-ns#"
   xmlns:svg="http://www.w3.org/2000/svg"
   xmlns="http://www.w3.org/2000/svg"
   xmlns:xlink="http://www.w3.org/1999/xlink"
   xmlns:sodipodi="http://sodipodi.sourceforge.net/DTD/sodipodi-0.dtd"
   xmlns:inkscape="http://www.inkscape.org/namespaces/inkscape"
   width="128"
   height="128"
   id="svg2"
   sodipodi:version="0.32"
   inkscape:version="0.46"
   version="1.0"
   sodipodi:docbase="/home/david/Progetti/oxygen-svn/Oxygen/theme/svg/actions"
   sodipodi:docname="toolbar-math.svg"
   inkscape:output_extension="org.inkscape.output.svg.inkscape"
   sodipodi:modified="true">
  <defs
     id="defs4">
    <filter
       inkscape:collect="always"
       id="filter3518"
       x="-0.11678882"
       width="1.2335776"
       y="-0.13633316"
       height="1.2726663">
      <feGaussianBlur
         inkscape:collect="always"
         stdDeviation="0.19355217"
         id="feGaussianBlur3520" />
    </filter>
    <radialGradient
       inkscape:collect="always"
       xlink:href="#linearGradient3178"
       id="radialGradient3418"
       cx="119.06503"
       cy="86.620445"
       fx="119.06503"
       fy="86.620445"
       r="1.98874"
       gradientTransform="matrix(0.9522422,0.3053434,-1.5320271,4.7777695,136.40853,-367.10086)"
       gradientUnits="userSpaceOnUse" />
    <radialGradient
       inkscape:collect="always"
       xlink:href="#linearGradient3178"
       id="radialGradient3315"
       cx="101.15124"
       cy="96.727608"
       fx="101.15124"
       fy="96.727608"
       r="57.028141"
       gradientTransform="matrix(0.124565,2.6357006e-2,-4.1227975e-2,0.1957531,94.791544,79.887385)"
       gradientUnits="userSpaceOnUse" />
    <filter
       inkscape:collect="always"
       id="filter3290"
       x="-0.23513261"
       width="1.4702652"
       y="-0.28595279"
       height="1.5719056">
      <feGaussianBlur
         inkscape:collect="always"
         stdDeviation="0.38968136"
         id="feGaussianBlur3292" />
    </filter>
    <radialGradient
       inkscape:collect="always"
       xlink:href="#linearGradient3178"
       id="radialGradient3184"
       cx="116.76101"
       cy="11.175352"
       fx="116.76101"
       fy="11.175352"
       r="1.944545"
       gradientTransform="matrix(0.9001592,0.4355611,-0.681818,1.4090899,17.344574,-57.36464)"
       gradientUnits="userSpaceOnUse" />
    <linearGradient
       inkscape:collect="always"
       xlink:href="#linearGradient3164"
       id="linearGradient3170"
       x1="49.262497"
       y1="-1.4687502"
       x2="116.0125"
       y2="29.53125"
       gradientUnits="userSpaceOnUse"
       gradientTransform="matrix(0.7460978,0,0,0.747832,27.934861,29.267007)" />
    <radialGradient
       inkscape:collect="always"
       xlink:href="#linearGradient3139"
       id="radialGradient3149"
       gradientUnits="userSpaceOnUse"
       gradientTransform="matrix(1,0,0,0.1428571,0,104.57143)"
       cx="30"
       cy="122"
       fx="30"
       fy="122"
       r="14" />
    <filter
       inkscape:collect="always"
       id="filter3135"
       x="-0.035023041"
       width="1.0700461"
       y="-0.24516129"
       height="1.4903226">
      <feGaussianBlur
         inkscape:collect="always"
         stdDeviation="0.40860215"
         id="feGaussianBlur3137" />
    </filter>
    <radialGradient
       inkscape:collect="always"
       xlink:href="#linearGradient3139"
       id="radialGradient3145"
       cx="30"
       cy="122"
       fx="30"
       fy="122"
       r="14"
       gradientTransform="matrix(1,0,0,0.1428571,0,104.57143)"
       gradientUnits="userSpaceOnUse" />
    <linearGradient
       inkscape:collect="always"
       xlink:href="#linearGradient3081"
       id="linearGradient3087"
       x1="213.9899"
       y1="1.2132037"
       x2="237.62236"
       y2="58.45406"
       gradientUnits="userSpaceOnUse"
       gradientTransform="matrix(0.7460978,0,0,0.747832,-80.217152,29.267007)" />
    <linearGradient
       inkscape:collect="always"
       id="linearGradient3081">
      <stop
         style="stop-color:#ffffff;stop-opacity:1;"
         offset="0"
         id="stop3083" />
      <stop
         style="stop-color:#ffffff;stop-opacity:0;"
         offset="1"
         id="stop3085" />
    </linearGradient>
    <radialGradient
       inkscape:collect="always"
       xlink:href="#linearGradient3081"
       id="radialGradient3095"
       cx="340"
       cy="79.349312"
       fx="340"
       fy="79.349312"
       r="50.34375"
       gradientTransform="matrix(0.7460978,0,0,0.7814867,-177.98813,27.083129)"
       gradientUnits="userSpaceOnUse" />
    <filter
       inkscape:collect="always"
       id="filter3398">
      <feGaussianBlur
         inkscape:collect="always"
         stdDeviation="0.52225998"
         id="feGaussianBlur3400" />
    </filter>
    <linearGradient
       inkscape:collect="always"
       id="linearGradient3164">
      <stop
         style="stop-color:#ffffff;stop-opacity:1;"
         offset="0"
         id="stop3166" />
      <stop
         style="stop-color:#ffffff;stop-opacity:0;"
         offset="1"
         id="stop3168" />
    </linearGradient>
    <linearGradient
       inkscape:collect="always"
       xlink:href="#linearGradient3164"
       id="linearGradient3336"
       x1="65.298004"
       y1="124.5"
       x2="72.75"
       y2="57"
       gradientUnits="userSpaceOnUse"
       gradientTransform="translate(-1.9324979,-1.9999999)" />
    <linearGradient
       inkscape:collect="always"
       id="linearGradient3178">
      <stop
         style="stop-color:#ffffff;stop-opacity:1;"
         offset="0"
         id="stop3180" />
      <stop
         style="stop-color:#ffffff;stop-opacity:0;"
         offset="1"
         id="stop3182" />
    </linearGradient>
    <radialGradient
       inkscape:collect="always"
       xlink:href="#linearGradient3178"
       id="radialGradient3302"
       cx="27.965677"
       cy="15.017876"
       fx="29.527468"
       fy="20.172876"
       r="57.028141"
       gradientTransform="matrix(0.1763719,-9.5160719e-2,0.125663,0.2339894,41.980436,39.82371)"
       gradientUnits="userSpaceOnUse" />
    <linearGradient
       inkscape:collect="always"
       xlink:href="#linearGradient3139"
       id="linearGradient3584"
       x1="28.991379"
       y1="123.05025"
       x2="34.992661"
       y2="93.351768"
       gradientUnits="userSpaceOnUse"
       gradientTransform="translate(-1.9324979,-0.9999999)" />
    <filter
       inkscape:collect="always"
       id="filter3734"
       x="-0.15878725"
       width="1.3175745"
       y="-0.19291067"
       height="1.3858213">
      <feGaussianBlur
         inkscape:collect="always"
         stdDeviation="2.3871476"
         id="feGaussianBlur3736" />
    </filter>
    <linearGradient
       inkscape:collect="always"
       id="linearGradient3139">
      <stop
         style="stop-color:#000000;stop-opacity:1;"
         offset="0"
         id="stop3141" />
      <stop
         style="stop-color:#000000;stop-opacity:0;"
         offset="1"
         id="stop3143" />
    </linearGradient>
    <linearGradient
       inkscape:collect="always"
       xlink:href="#linearGradient3139"
       id="linearGradient3740"
       gradientUnits="userSpaceOnUse"
       x1="28.991379"
       y1="123.05025"
       x2="30.750019"
       y2="91.230446"
       gradientTransform="translate(61.353559,-0.9999999)" />
    <inkscape:perspective
       sodipodi:type="inkscape:persp3d"
       inkscape:vp_x="0 : 64 : 1"
       inkscape:vp_y="0 : 1000 : 0"
       inkscape:vp_z="128 : 64 : 1"
       inkscape:persp3d-origin="64 : 42.666667 : 1"
       id="perspective2857" />
    <radialGradient
       inkscape:collect="always"
       xlink:href="#linearGradient3291"
       id="radialGradient3336"
       gradientUnits="userSpaceOnUse"
       gradientTransform="matrix(1,0,0,0.197802,0,92.82166)"
       cx="63.912209"
       cy="115.70919"
       fx="63.912209"
       fy="115.7093"
       r="63.912209" />
    <linearGradient
       id="linearGradient3235">
      <stop
         style="stop-color:#e3e3e6;stop-opacity:1;"
         offset="0"
         id="stop3237" />
      <stop
         style="stop-color:#ffffff;stop-opacity:1;"
         offset="1"
         id="stop3239" />
    </linearGradient>
    <linearGradient
       id="linearGradient3236">
      <stop
         style="stop-color:#727272;stop-opacity:1;"
         offset="0"
         id="stop3238" />
      <stop
         style="stop-color:#f8f8f8;stop-opacity:1;"
         offset="1"
         id="stop3240" />
    </linearGradient>
    <linearGradient
       id="linearGradient3290">
      <stop
         style="stop-color:yellow;stop-opacity:1;"
         offset="0"
         id="stop3292" />
      <stop
         style="stop-color:#ffb66d;stop-opacity:1;"
         offset="1"
         id="stop3294" />
    </linearGradient>
    <linearGradient
       inkscape:collect="always"
       id="linearGradient3765">
      <stop
         style="stop-color:#ffffff;stop-opacity:1;"
         offset="0"
         id="stop3767" />
      <stop
         style="stop-color:#ffffff;stop-opacity:0;"
         offset="1"
         id="stop3769" />
    </linearGradient>
    <linearGradient
       inkscape:collect="always"
       id="linearGradient3747">
      <stop
         style="stop-color:#ffffff;stop-opacity:1;"
         offset="0"
         id="stop3749" />
      <stop
         style="stop-color:#ffffff;stop-opacity:0;"
         offset="1"
         id="stop3751" />
    </linearGradient>
    <linearGradient
       id="linearGradient3638">
      <stop
         style="stop-color:#ffffff;stop-opacity:0;"
         offset="0"
         id="stop3640" />
      <stop
         id="stop3661"
         offset="0.06868132"
         style="stop-color:#ffffff;stop-opacity:1;" />
      <stop
         id="stop3659"
         offset="0.5"
         style="stop-color:#ffffff;stop-opacity:1;" />
      <stop
         style="stop-color:#ffffff;stop-opacity:0;"
         offset="1"
         id="stop3642" />
    </linearGradient>
    <linearGradient
       id="linearGradient1563">
      <stop
         id="stop1565"
         offset="0"
         style="stop-color:#ffffff;stop-opacity:1;" />
      <stop
         id="stop1567"
         offset="1"
         style="stop-color:white;stop-opacity:0;" />
    </linearGradient>
    <linearGradient
       id="linearGradient3273">
      <stop
         id="stop3275"
         offset="0"
         style="stop-color:#ffffff;stop-opacity:0.55035973;" />
      <stop
         id="stop3277"
         offset="1"
         style="stop-color:#ffffff;stop-opacity:0;" />
    </linearGradient>
    <linearGradient
       id="linearGradient3291"
       inkscape:collect="always">
      <stop
         id="stop3293"
         offset="0"
         style="stop-color:#000000;stop-opacity:1;" />
      <stop
         id="stop3295"
         offset="1"
         style="stop-color:#000000;stop-opacity:0;" />
    </linearGradient>
    <linearGradient
       id="linearGradient12948">
      <stop
         style="stop-color:#ffffff;stop-opacity:1;"
         offset="0"
         id="stop12950" />
      <stop
         style="stop-color:#c0c0c0;stop-opacity:0;"
         offset="1"
         id="stop12952" />
    </linearGradient>
    <radialGradient
       inkscape:collect="always"
       xlink:href="#linearGradient3236"
       id="radialGradient3165"
       cx="152.08052"
       cy="40.428711"
       fx="153.39473"
       fy="41.424862"
       r="4.3543735"
       gradientUnits="userSpaceOnUse"
       gradientTransform="matrix(1.17806,-4.586233e-6,4.447791e-6,1.142499,-27.0796,-5.760327)" />
    <radialGradient
       inkscape:collect="always"
       xlink:href="#linearGradient3236"
       id="radialGradient3179"
       gradientUnits="userSpaceOnUse"
       gradientTransform="matrix(1.17806,-4.586233e-6,4.447791e-6,1.142499,-27.0796,-5.760327)"
       cx="152.08052"
       cy="40.428711"
       fx="153.39473"
       fy="41.424862"
       r="4.3543735" />
    <radialGradient
       inkscape:collect="always"
       xlink:href="#linearGradient3236"
       id="radialGradient3181"
       gradientUnits="userSpaceOnUse"
       gradientTransform="matrix(1.17806,-4.586233e-6,4.447791e-6,1.142499,-27.0796,-5.760327)"
       cx="152.08052"
       cy="40.428711"
       fx="153.39473"
       fy="41.424862"
       r="4.3543735" />
    <linearGradient
       inkscape:collect="always"
       xlink:href="#linearGradient3290"
       id="linearGradient3208"
       gradientUnits="userSpaceOnUse"
       gradientTransform="matrix(0.627872,0,0,0.627872,201.602,20.28579)"
       x1="84.634949"
       y1="116.10083"
       x2="89.72541"
       y2="-15.33666" />
    <linearGradient
       inkscape:collect="always"
       xlink:href="#linearGradient3273"
       id="linearGradient3210"
       gradientUnits="userSpaceOnUse"
       gradientTransform="matrix(0.602733,0,0,0.602733,203.0809,22.34233)"
       spreadMethod="reflect"
       x1="80.100487"
       y1="44.807674"
       x2="77.714729"
       y2="101.4734" />
    <linearGradient
       inkscape:collect="always"
       xlink:href="#linearGradient3638"
       id="linearGradient3212"
       gradientUnits="userSpaceOnUse"
       gradientTransform="matrix(0.627872,0,0,0.627872,201.602,20.28579)"
       x1="57.287113"
       y1="1.1597457"
       x2="144.2531"
       y2="16.876789" />
    <linearGradient
       inkscape:collect="always"
       xlink:href="#linearGradient3638"
       id="linearGradient3214"
       gradientUnits="userSpaceOnUse"
       gradientTransform="matrix(0.627872,0,0,0.627872,201.602,20.28579)"
       x1="57.287113"
       y1="1.1597457"
       x2="144.2531"
       y2="16.876789" />
    <linearGradient
       inkscape:collect="always"
       xlink:href="#linearGradient3638"
       id="linearGradient3216"
       gradientUnits="userSpaceOnUse"
       gradientTransform="matrix(0.627872,0,0,0.627872,201.602,20.28579)"
       x1="57.287113"
       y1="1.1597457"
       x2="144.2531"
       y2="16.876789" />
    <radialGradient
       inkscape:collect="always"
       xlink:href="#linearGradient12948"
       id="radialGradient3218"
       gradientUnits="userSpaceOnUse"
       gradientTransform="matrix(1,0,0,0.941176,0,3.492906)"
       cx="23.190451"
       cy="59.379417"
       fx="22.471308"
       fy="59.354759"
       r="2.1082227" />
    <linearGradient
       inkscape:collect="always"
       xlink:href="#linearGradient1563"
       id="linearGradient3220"
       gradientUnits="userSpaceOnUse"
       gradientTransform="matrix(0.627872,0,0,0.627872,201.602,20.28579)"
       x1="98.291809"
       y1="-126.7503"
       x2="44.242641"
       y2="101.45739" />
    <linearGradient
       inkscape:collect="always"
       xlink:href="#linearGradient1563"
       id="linearGradient3222"
       gradientUnits="userSpaceOnUse"
       gradientTransform="matrix(0.627872,0,0,0.627872,201.602,20.28579)"
       x1="98.291809"
       y1="-44.01474"
       x2="44.242641"
       y2="101.45739" />
    <linearGradient
       inkscape:collect="always"
       xlink:href="#linearGradient1563"
       id="linearGradient3224"
       gradientUnits="userSpaceOnUse"
       gradientTransform="matrix(0.627872,0,0,0.627872,201.602,20.28579)"
       x1="98.291809"
       y1="-44.01474"
       x2="44.242641"
       y2="101.45739" />
    <radialGradient
       inkscape:collect="always"
       xlink:href="#linearGradient3747"
       id="radialGradient3226"
       gradientUnits="userSpaceOnUse"
       gradientTransform="matrix(1,0,0,9.492274e-2,0,-41.10492)"
       cx="5.7531347"
       cy="-45.41592"
       fx="74.816956"
       fy="-43.169445"
       r="124.10334" />
    <radialGradient
       inkscape:collect="always"
       xlink:href="#linearGradient3747"
       id="radialGradient3228"
       gradientUnits="userSpaceOnUse"
       gradientTransform="matrix(1,0,0,9.492274e-2,0,-41.10492)"
       cx="5.7531347"
       cy="-45.41592"
       fx="74.816956"
       fy="-43.169445"
       r="124.10334" />
    <radialGradient
       inkscape:collect="always"
       xlink:href="#linearGradient3747"
       id="radialGradient3230"
       gradientUnits="userSpaceOnUse"
       gradientTransform="matrix(1,0,0,9.492274e-2,0,-41.10492)"
       cx="5.7531347"
       cy="-45.41592"
       fx="74.816956"
       fy="-43.169445"
       r="124.10334" />
    <radialGradient
       inkscape:collect="always"
       xlink:href="#linearGradient3765"
       id="radialGradient3232"
       gradientUnits="userSpaceOnUse"
       gradientTransform="matrix(0.931851,8.132258e-2,-0.30752,3.523773,223.8997,-259.3512)"
       cx="23.662739"
       cy="95.898506"
       fx="24.26058"
       fy="96.778763"
       r="2.793914" />
    <linearGradient
       inkscape:collect="always"
       xlink:href="#linearGradient3235"
       id="linearGradient4214"
       x1="144"
       y1="32"
       x2="145.24672"
       y2="88.013878"
       gradientUnits="userSpaceOnUse"
       gradientTransform="translate(-80,0)" />
    <radialGradient
       inkscape:collect="always"
       xlink:href="#linearGradient3178"
       id="radialGradient3071"
       gradientUnits="userSpaceOnUse"
       gradientTransform="matrix(0.9001592,0.4355611,-0.681818,1.4090899,17.344574,-57.36464)"
       cx="116.76101"
       cy="11.175352"
       fx="116.76101"
       fy="11.175352"
       r="1.944545" />
  </defs>
  <sodipodi:namedview
     id="base"
     pagecolor="#ffffff"
     bordercolor="#666666"
     borderopacity="1.0"
     inkscape:pageopacity="0.0"
     inkscape:pageshadow="2"
     inkscape:zoom="4"
     inkscape:cx="102.93971"
     inkscape:cy="67.632609"
     inkscape:document-units="px"
     inkscape:current-layer="layer1"
     inkscape:window-width="1018"
     inkscape:window-height="729"
     inkscape:window-x="191"
     inkscape:window-y="265"
     showgrid="true"
     showguides="true"
     inkscape:guide-bbox="true">
    <inkscape:grid
       id="GridFromPre046Settings"
       type="xygrid"
       originx="0px"
       originy="0px"
       spacingx="8px"
       spacingy="8px"
       color="#0000ff"
       empcolor="#0000ff"
       opacity="0.2"
       empopacity="0.4"
       empspacing="0" />
  </sodipodi:namedview>
  <metadata
     id="metadata7">
    <rdf:RDF>
      <cc:Work
         rdf:about="">
        <dc:format>image/svg+xml</dc:format>
        <dc:type
           rdf:resource="http://purl.org/dc/dcmitype/StillImage" />
      </cc:Work>
    </rdf:RDF>
  </metadata>
  <g
     inkscape:label="Layer 1"
     inkscape:groupmode="layer"
     id="layer1">
    <path
       sodipodi:type="arc"
       style="opacity:0.38139535;fill:url(#radialGradient3336);fill-opacity:1;fill-rule:nonzero;stroke:none;stroke-width:0;stroke-linecap:round;stroke-linejoin:round;stroke-miterlimit:4;stroke-dasharray:none;stroke-dashoffset:4;stroke-opacity:1"
       id="path1563"
       sodipodi:cx="63.912209"
       sodipodi:cy="115.70919"
       sodipodi:rx="63.912209"
       sodipodi:ry="12.641975"
       d="M 127.82442 115.70919 A 63.912209 12.641975 0 1 1  0,115.70919 A 63.912209 12.641975 0 1 1  127.82442 115.70919 z"
       transform="matrix(1.001374,0,0,0.410379,-2.3931686e-5,75.327377)" />
    <rect
       ry="8.2106857"
       rx="8.2106857"
       y="32"
       x="8"
       height="56"
       width="112"
       id="rect4216"
       style="opacity:1;fill:#888888;fill-opacity:1;fill-rule:nonzero;stroke:#bbbbbb;stroke-width:8;stroke-linecap:round;stroke-linejoin:round;stroke-miterlimit:4;stroke-dasharray:none;stroke-opacity:1" />
    <rect
       style="opacity:1;fill:url(#linearGradient4214);fill-opacity:1;fill-rule:nonzero;stroke:none;stroke-width:8;stroke-linecap:round;stroke-linejoin:round;stroke-miterlimit:4;stroke-dasharray:none;stroke-opacity:1"
       id="rect4212"
       width="112"
       height="56"
       x="8"
       y="32"
       rx="8.2106857"
       ry="8.2106857" />
    <path
       sodipodi:nodetypes="ccc"
       id="path2276"
       d="M -106.3852,44.124126 L -106.3852,41.329417 L -106.3852,44.124126 z "
       style="fill:#ffffff;fill-opacity:0.75688076;fill-rule:nonzero;stroke:none;stroke-width:0.5;stroke-linecap:round;stroke-linejoin:round;stroke-miterlimit:4;stroke-dasharray:none;stroke-dashoffset:4;stroke-opacity:1" />
    <path
       sodipodi:nodetypes="ccc"
       id="path2191"
       d="M 188.2242,-18.066764 L 188.2242,-20.861473 L 188.2242,-18.066764 z "
       style="fill:white;fill-opacity:0.75688076;fill-rule:nonzero;stroke:none;stroke-width:0.5;stroke-linecap:round;stroke-linejoin:round;stroke-miterlimit:4;stroke-dasharray:none;stroke-dashoffset:4;stroke-opacity:1" />
    <path
       sodipodi:nodetypes="ccc"
       id="path2985"
       d="M 31.2159,-87.701864 L 31.2159,-90.496573 L 31.2159,-87.701864 z "
       style="fill:white;fill-opacity:0.75688076;fill-rule:nonzero;stroke:none;stroke-width:0.5;stroke-linecap:round;stroke-linejoin:round;stroke-miterlimit:4;stroke-dasharray:none;stroke-dashoffset:4;stroke-opacity:1" />
    <path
       sodipodi:nodetypes="ccc"
       id="path3206"
       d="M -88.2863,-174.33211 L -88.2863,-177.12682 L -88.2863,-174.33211 z "
       style="fill:white;fill-opacity:0.75688076;fill-rule:nonzero;stroke:none;stroke-width:0.5;stroke-linecap:round;stroke-linejoin:round;stroke-miterlimit:4;stroke-dasharray:none;stroke-dashoffset:4;stroke-opacity:1" />
    <g
       id="layer4"
       inkscape:label="box"
       style="display:inline"
       transform="translate(94.6653,-29.75048)" />
    <g
       id="layer5"
       inkscape:label="zip_app"
       style="display:inline"
       transform="translate(94.6653,-29.75048)" />
    <path
       sodipodi:nodetypes="ccc"
       id="path3946"
       d="M 158.3051,-108.57684 L 158.3051,-111.37155 L 158.3051,-108.57684 z "
       style="fill:white;fill-opacity:0.75688076;fill-rule:nonzero;stroke:none;stroke-width:0.5;stroke-linecap:round;stroke-linejoin:round;stroke-miterlimit:4;stroke-dasharray:none;stroke-dashoffset:4;stroke-opacity:1" />
    <path
       sodipodi:nodetypes="ccc"
       id="path1561"
       d="M 65.680654,-34.683164 L 65.680654,-36.2099 L 65.680654,-34.683164 z "
       style="fill:white;fill-opacity:0.75688076;fill-rule:nonzero;stroke:none;stroke-width:0.5;stroke-linecap:round;stroke-linejoin:round;stroke-miterlimit:4;stroke-dasharray:none;stroke-dashoffset:4;stroke-opacity:1" />
    <rect
       style="opacity:0.57786889;fill:white;fill-opacity:1;fill-rule:nonzero;stroke:none;stroke-width:3.63199997;stroke-linecap:round;stroke-linejoin:round;stroke-miterlimit:4;stroke-dasharray:none;stroke-dashoffset:4;stroke-opacity:1"
       id="rect1327"
       width="1"
       height="0"
       x="8.1959171"
       y="-91.28315" />
    <rect
       style="opacity:0.57786889;fill:white;fill-opacity:1;fill-rule:nonzero;stroke:none;stroke-width:3.63199997;stroke-linecap:round;stroke-linejoin:round;stroke-miterlimit:4;stroke-dasharray:none;stroke-dashoffset:4;stroke-opacity:1"
       id="rect2482"
       width="1"
       height="0"
       x="-26.930899"
       y="-118.81076" />
    <path
       sodipodi:nodetypes="ccc"
       id="path2494"
       d="M -185.86832,-192.02683 L -185.86832,-194.82154 L -185.86832,-192.02683 z "
       style="fill:white;fill-opacity:0.75688076;fill-rule:nonzero;stroke:none;stroke-width:0.5;stroke-linecap:round;stroke-linejoin:round;stroke-miterlimit:4;stroke-dasharray:none;stroke-dashoffset:4;stroke-opacity:1" />
    <g
       style="opacity:0.40163933"
       transform="matrix(-0.782995,0,0,0.650879,-2508.727,494.4908)"
       id="g4640" />
    <g
       id="g4646"
       transform="matrix(-0.782995,0,0,0.650879,-2508.727,494.4908)"
       style="opacity:0.40163933" />
    <g
       id="g4730"
       transform="matrix(1,0,0,0.650879,692.2361,501.8186)"
       style="opacity:0.40163933" />
    <g
       style="opacity:0.40163933"
       transform="matrix(1,0,0,0.650879,692.2361,501.8186)"
       id="g4748" />
    <path
       sodipodi:type="arc"
       style="opacity:1;fill:url(#radialGradient3165);fill-opacity:1;fill-rule:nonzero;stroke:none;stroke-width:1;stroke-linecap:round;stroke-linejoin:round;stroke-miterlimit:4;stroke-dasharray:none;stroke-dashoffset:4;stroke-opacity:0.71951222"
       id="path2258"
       sodipodi:cx="152.08052"
       sodipodi:cy="40.428711"
       sodipodi:rx="4.3543735"
       sodipodi:ry="4.3543735"
       d="M 156.43489 40.428711 A 4.3543735 4.3543735 0 1 1  147.72615,40.428711 A 4.3543735 4.3543735 0 1 1  156.43489 40.428711 z"
       transform="matrix(0.9186167,0,0,0.9186167,-119.70371,6.8615108)" />
    <path
       sodipodi:type="arc"
       style="opacity:1;fill:url(#radialGradient3181);fill-opacity:1;fill-rule:nonzero;stroke:none;stroke-width:1;stroke-linecap:round;stroke-linejoin:round;stroke-miterlimit:4;stroke-dasharray:none;stroke-dashoffset:4;stroke-opacity:0.71951222"
       id="path3175"
       sodipodi:cx="152.08052"
       sodipodi:cy="40.428711"
       sodipodi:rx="4.3543735"
       sodipodi:ry="4.3543735"
       d="M 156.43489 40.428711 A 4.3543735 4.3543735 0 1 1  147.72615,40.428711 A 4.3543735 4.3543735 0 1 1  156.43489 40.428711 z"
       transform="matrix(0.9186167,0,0,0.9186167,-119.70371,22.861511)" />
    <path
       transform="matrix(0.9186167,0,0,0.9186167,-119.70371,38.861511)"
       d="M 156.43489 40.428711 A 4.3543735 4.3543735 0 1 1  147.72615,40.428711 A 4.3543735 4.3543735 0 1 1  156.43489 40.428711 z"
       sodipodi:ry="4.3543735"
       sodipodi:rx="4.3543735"
       sodipodi:cy="40.428711"
       sodipodi:cx="152.08052"
       id="path3177"
       style="opacity:1;fill:url(#radialGradient3179);fill-opacity:1;fill-rule:nonzero;stroke:none;stroke-width:1;stroke-linecap:round;stroke-linejoin:round;stroke-miterlimit:4;stroke-dasharray:none;stroke-dashoffset:4;stroke-opacity:0.71951222"
       sodipodi:type="arc" />
    <path
       sodipodi:nodetypes="ccsc"
       id="path3738"
       d="M 81.506102,91.998214 L 123.57896,93.412427 C 117.86142,111.28754 102.35355,121.34254 91.561356,120.51126 C 82.890584,119.84338 77.389106,112.83776 81.506102,91.998214 z"
       style="fill:url(#linearGradient3740);fill-opacity:1;fill-rule:evenodd;stroke:none;stroke-width:1px;stroke-linecap:butt;stroke-linejoin:miter;stroke-opacity:1;filter:url(#filter3734)"
       transform="matrix(0.7460978,0,0,0.747832,29.376694,30.762671)" />
    <path
       style="fill:url(#linearGradient3584);fill-opacity:1;fill-rule:evenodd;stroke:none;stroke-width:1px;stroke-linecap:butt;stroke-linejoin:miter;stroke-opacity:1;filter:url(#filter3734)"
       d="M 34.837055,90.230447 L 51.100511,92.351767 C 46.102304,105.15626 41.765835,121.03132 26.707057,120.71953 C 7.2644101,120.31697 31.073115,98.02773 34.837055,90.230447 z"
       id="path3568"
       sodipodi:nodetypes="ccsc"
       transform="matrix(0.7460978,0,0,0.747832,29.376694,30.762671)" />
    <path
       style="font-size:28px;font-style:normal;font-weight:bold;text-align:justify;text-anchor:start;fill:#000000;fill-opacity:1;stroke:none;stroke-width:1px;stroke-linecap:butt;stroke-linejoin:miter;stroke-opacity:1;font-family:Symbol"
       d="M 33.483976,58.526577 C 33.279648,59.290913 33.584171,60.192094 34.264379,60.492011 C 35.051175,60.838926 36.269703,60.48405 36.64469,59.833043 C 41.376595,51.618093 44.644374,50.154068 52.322544,50.154068 L 59.897201,50.154068 L 55.615874,86.794986 C 54.957208,91.416363 52.816538,95.04745 47.217885,100.16397 C 42.113231,104.78534 40.631228,107.42614 40.631228,111.05721 C 40.631228,116.00868 44.583229,120.13492 49.687882,120.13492 C 54.792536,120.13492 58.744542,116.33878 60.8852,109.24167 C 62.367197,104.9504 64.672534,88.115367 66.154525,71.445412 L 68.130522,50.154068 L 86.079165,50.154068 C 84.103173,63.192941 82.621169,81.018276 82.621169,90.426068 C 82.621169,108.91156 88.878505,120.13492 98.92315,120.13492 C 105.34513,120.13492 111.10848,115.67859 115.06046,107.92128 C 116.96592,104.1015 117.51941,101.25793 118.2388,95.778406 C 118.46881,94.026408 117.51091,93.223396 116.53806,92.998935 C 115.52395,92.764952 114.47078,93.823252 114.00398,95.379263 C 112.33656,100.93735 109.75638,103.9601 105.18047,103.9601 C 101.88715,103.9601 98.42915,101.64941 96.617816,98.183378 C 95.135824,95.212499 94.641818,92.571702 94.641818,87.125084 C 94.641818,74.581358 95.465151,59.231768 96.617816,50.154068 L 115.92767,50.202446 C 116.81735,50.202446 117.46659,49.709282 117.46659,48.710637 L 117.46659,37.374436 C 117.46659,35.99584 116.63335,35.249663 115.24782,35.249663 L 60.763163,35.249663 C 51.871187,35.249663 47.711879,36.620043 42.936558,41.241413 C 38.651903,45.536032 36.073685,49.973198 33.483976,58.526577 z"
       id="text2468"
       sodipodi:nodetypes="cssccccssccccsscsssscscccccccc" />
    <path
       style="font-size:28px;font-style:normal;font-weight:bold;text-align:justify;text-anchor:start;opacity:0.6875;fill:url(#radialGradient3302);fill-opacity:1;stroke:none;stroke-width:1px;stroke-linecap:butt;stroke-linejoin:miter;stroke-opacity:1;font-family:Symbol"
       d="M 59.154389,35.273033 C 51.353184,35.440511 47.403627,36.899783 42.926763,41.232318 C 41.595741,42.566436 40.43597,43.93475 39.382799,45.415503 C 40.473915,46.19821 41.784301,47.121495 41.784301,47.121495 C 46.093586,40.623675 51.938685,37.970007 59.061127,38.521428 L 59.294283,35.273033 C 59.248808,35.273916 59.199605,35.272062 59.154389,35.273033 z"
       id="path3294" />
    <path
       sodipodi:nodetypes="csccsccccccccccsssscccscccccccsssccscccscccccc"
       style="font-size:28px;font-style:normal;font-weight:bold;text-align:justify;text-anchor:start;opacity:0.75271738;fill:none;fill-opacity:1;stroke:url(#linearGradient3336);stroke-width:1px;stroke-linecap:butt;stroke-linejoin:miter;stroke-opacity:1;filter:url(#filter3398);font-family:Symbol"
       d="M 42.067502,10 C 36.281352,10 30.75764,10.702865 28.10101,11.625 C 25.44438,12.547135 23.4195,13.941411 20.41351,16.84375 C 17.15755,20.099715 14.78737,23.400615 12.66351,27.875 C 13.70454,26.874877 14.77731,25.96998 15.94476,25.21875 C 19.96756,22.630163 24.56107,21.9375 30.16351,21.9375 L 41.567502,22 L 46.067502,22 L 45.536252,26.46875 C 42.647245,42.025459 40.462819,58.52161 38.56976,75.40625 L 38.53851,75.4375 L 38.53851,75.5 C 37.52559,82.590459 33.86355,88.615399 26.03851,95.75 L 26.00726,95.75 L 26.00726,95.78125 C 22.72471,98.74613 20.80333,100.92672 19.78851,102.625 C 18.77369,104.32328 18.50726,105.49272 18.50726,107.375 C 18.50726,111.86276 21.941,115.5 26.63226,115.5 C 29.06391,115.5 30.96305,114.73264 32.85101,112.90625 C 34.73897,111.07986 36.52534,108.06279 37.81976,103.78125 L 37.85101,103.71875 L 37.88226,103.625 C 38.55624,101.67796 39.96831,94.393766 41.22601,85.34375 C 42.48371,76.293734 43.73855,65.112707 44.72601,54.03125 L 48.630002,25.625 L 48.973752,22 L 52.598752,22 L 75.47375,22 L 80.130002,22 L 79.442502,26.59375 C 76.83076,43.787767 74.78851,67.62222 74.78851,79.78125 C 74.78851,91.688257 76.87344,101.013 80.163512,106.96875 C 83.453582,112.9245 87.387152,115.5 92.632262,115.5 C 99.393532,115.5 105.83204,110.89785 110.69476,101.375 C 111.62383,99.51685 112.24507,97.907686 112.78851,96.25 C 110.01264,99.8294 105.65896,101.875 101.00726,101.875 C 94.726532,101.875 89.066892,97.841105 86.007262,92 L 85.976012,91.96875 L 85.976012,91.9375 C 83.724672,87.434814 82.882262,82.90064 82.882262,75.375 C 82.882272,58.426107 84.043892,37.962258 85.630002,25.5 L 86.067502,22 L 89.598752,22 L 114.0675,22 L 114.0675,10 L 42.067502,10 z"
       id="path3328"
       transform="matrix(0.7460978,0,0,0.747832,29.376694,30.762671)" />
    <path
       id="path3078"
       d="M 60.763163,38.24099 C 56.44613,38.24099 52.3249,38.766616 50.342794,39.456218 C 48.360689,40.14582 46.849931,41.188504 44.607168,43.358966 C 42.177903,45.793881 40.409517,48.262399 38.82491,51.608486 C 39.60162,50.860563 40.402012,50.183852 41.273043,49.622058 C 44.274446,47.68623 47.701653,47.168234 51.881621,47.168234 L 60.390115,47.214974 L 63.747554,47.214974 L 63.35119,50.556848 C 61.195708,62.190652 59.565912,74.527001 58.153506,87.153875 L 58.13019,87.177244 L 58.13019,87.223983 C 57.374453,92.526455 54.642213,97.032098 48.803968,102.36758 L 48.780652,102.36758 L 48.780652,102.39095 C 46.331549,104.60818 44.898011,106.2389 44.140857,107.50893 C 43.383702,108.77895 43.184919,109.6535 43.184919,111.06113 C 43.184919,114.41721 45.746825,117.13726 49.246963,117.13726 C 51.061212,117.13726 52.478156,116.56341 53.886759,115.19757 C 55.295361,113.83174 56.628168,111.57548 57.593933,108.37361 L 57.617248,108.32687 L 57.640564,108.25676 C 58.143418,106.8007 59.196961,101.35335 60.135328,94.585454 C 61.073695,87.817564 62.009928,79.456034 62.74667,71.168966 L 65.65943,49.925865 L 65.915901,47.214974 L 68.620505,47.214974 L 85.68749,47.214974 L 89.161509,47.214974 L 88.648568,50.650327 C 86.699952,63.508562 85.176234,81.332728 85.176234,90.42564 C 85.176234,99.330079 86.731796,106.30342 89.186511,110.75732 C 91.641225,115.21122 94.576053,117.13726 98.48942,117.13726 C 103.53399,117.13726 108.33774,113.69563 111.96581,106.57413 C 112.65898,105.18455 113.12249,103.98117 113.52795,102.7415 C 111.45687,105.41828 108.20861,106.94805 104.73798,106.94805 C 100.05195,106.94805 95.829303,103.93138 93.54652,99.563211 L 93.523205,99.539841 L 93.523205,99.516471 C 91.843485,96.149219 91.214965,92.758418 91.214965,87.130505 C 91.214972,74.455581 92.081654,59.152061 93.265048,49.832386 L 93.591465,47.214974 L 96.226123,47.214974 L 114.4822,47.214974 L 114.4822,38.24099 L 60.763163,38.24099 z"
       style="font-size:28px;font-style:normal;font-weight:bold;text-align:justify;text-anchor:start;opacity:0.52717393;fill:url(#radialGradient3095);fill-opacity:1;stroke:none;stroke-width:1px;stroke-linecap:butt;stroke-linejoin:miter;stroke-opacity:1;font-family:Symbol"
       sodipodi:nodetypes="csccsccccccccccsssscccscccccccsssccscccscccccc" />
    <path
       style="font-size:28px;font-style:normal;font-weight:bold;text-align:justify;text-anchor:start;opacity:0.6875;fill:url(#linearGradient3087);fill-opacity:1;stroke:none;stroke-width:1px;stroke-linecap:butt;stroke-linejoin:miter;stroke-opacity:1;font-family:Symbol"
       d="M 60.763163,38.24099 C 56.44613,38.24099 52.495272,38.766616 50.513167,39.456218 C 48.531061,40.14582 47.020303,41.188504 44.77754,43.358966 C 42.348275,45.793881 40.579889,48.262399 38.995282,51.608486 C 39.771992,50.860563 40.572384,50.183852 41.443415,49.622058 C 44.444818,47.68623 47.872025,47.168234 52.051994,47.168234 L 60.390115,47.214974 L 63.747554,47.214974 L 63.35119,50.556848 L 61.131071,64.415109 C 62.007012,64.284729 62.877134,64.142458 63.742413,63.994453 L 65.65943,49.925865 L 65.915901,47.214974 L 68.620505,47.214974 L 85.687491,47.214974 L 89.161509,47.214974 L 88.648568,50.650327 C 88.343309,52.664613 88.189635,54.776234 87.911318,56.983529 C 89.595297,56.27183 91.256589,55.526032 92.854215,54.740033 C 93.023371,52.972845 93.075427,51.32572 93.265048,49.832386 L 93.591465,47.214974 L 96.226123,47.214974 L 105.52902,47.214974 C 108.77405,44.808178 111.92261,41.95097 114.4822,39.19915 L 114.4822,38.24099 L 60.763163,38.24099 z"
       id="path2473"
       sodipodi:nodetypes="csccsccccccccccccccccccccc" />
    <path
       sodipodi:type="arc"
       style="opacity:1;fill:url(#radialGradient3145);fill-opacity:1;stroke:none;stroke-width:8;stroke-linecap:round;stroke-linejoin:round;stroke-miterlimit:4;stroke-dasharray:none;stroke-dashoffset:4.15;stroke-opacity:1;filter:url(#filter3135)"
       id="path3097"
       sodipodi:cx="30"
       sodipodi:cy="122"
       sodipodi:rx="14"
       sodipodi:ry="2"
       d="M 44,122 A 14,2 0 1 1 16,122 A 14,2 0 1 1 44,122 z"
       transform="matrix(0.4529879,0,0,0.747832,36.355108,28.519176)" />
    <path
       d="M 44,122 A 14,2 0 1 1 16,122 A 14,2 0 1 1 44,122 z"
       sodipodi:ry="2"
       sodipodi:rx="14"
       sodipodi:cy="122"
       sodipodi:cx="30"
       id="path3147"
       style="opacity:1;fill:url(#radialGradient3149);fill-opacity:1;stroke:none;stroke-width:8;stroke-linecap:round;stroke-linejoin:round;stroke-miterlimit:4;stroke-dasharray:none;stroke-dashoffset:4.15;stroke-opacity:1;filter:url(#filter3135)"
       sodipodi:type="arc"
       transform="matrix(0.5728965,0,0,0.747832,81.478036,28.519176)" />
    <path
       style="font-size:28px;font-style:normal;font-weight:bold;text-align:justify;text-anchor:start;opacity:0.6875;fill:url(#linearGradient3170);fill-opacity:1;stroke:none;stroke-width:1px;stroke-linecap:butt;stroke-linejoin:miter;stroke-opacity:1;font-family:Symbol"
       d="M 60.725856,38.217621 C 56.408823,38.217621 52.449118,38.743245 50.467013,39.432848 C 48.484907,40.122449 46.974148,41.165134 44.731386,43.335596 C 42.302121,45.770511 40.533735,48.239029 38.949128,51.585117 C 39.171518,51.370975 39.397906,51.178945 39.625279,50.977503 C 41.040366,48.296856 42.642163,46.177512 44.731386,44.083428 C 46.974148,41.912967 48.484907,40.870282 50.467013,40.18068 C 52.449118,39.491078 56.408823,38.965453 60.725856,38.965453 L 113.67548,38.965453 C 111.13993,41.673745 108.05193,44.475282 104.8622,46.841058 L 96.118871,47.028016 L 93.484213,47.028016 L 93.157795,49.645428 C 92.968174,51.138762 92.347689,52.598929 92.178541,54.366117 C 90.830252,55.029445 89.44269,55.672703 88.028372,56.282436 L 87.865163,56.96016 L 87.93511,56.936789 L 87.911795,57.053638 C 89.595775,56.34194 91.257065,55.59614 92.854693,54.810143 L 93.507529,47.051385 L 105.53836,47.285083 C 108.78339,44.878287 111.93194,42.021079 114.49152,39.26926 L 114.49152,38.3111 L 114.4449,38.3111 L 114.4449,38.217621 L 60.725856,38.217621 z M 63.080728,63.620538 C 62.486304,63.722212 61.884942,63.806879 61.28543,63.900975 L 61.098905,64.391739 C 61.114037,64.389487 61.130667,64.395042 61.145537,64.391739 L 61.122221,64.485218 C 61.998155,64.354839 62.868284,64.212567 63.733564,64.064563 L 63.080728,63.620538 z"
       id="path3151"
       sodipodi:nodetypes="csccccscccccccccccccccccccccccccc" />
    <path
       style="opacity:0.6875;fill:url(#radialGradient3071);fill-opacity:1;fill-rule:evenodd;stroke:none;stroke-width:1px;stroke-linecap:butt;stroke-linejoin:miter;stroke-opacity:1;filter:url(#filter3290)"
       d="M 114.20979,6.4989531 L 114.1214,9.7693211 L 118.09888,8.4434971 C 117.20364,7.5661051 116.67227,6.4807831 114.20979,6.4989531 z"
       id="path3176"
       sodipodi:nodetypes="cccc"
       transform="matrix(0.7460978,0,0,0.747832,29.376694,30.762671)" />
    <path
       style="font-size:28px;font-style:normal;font-weight:bold;text-align:justify;text-anchor:start;opacity:0.76902173;fill:url(#radialGradient3315);fill-opacity:1;stroke:none;stroke-width:1px;stroke-linecap:butt;stroke-linejoin:miter;stroke-opacity:1;font-family:Symbol"
       d="M 95.713181,96.011009 L 93.61478,99.867018 C 96.546278,104.63791 101.98617,109.04612 109.91236,105.82631 L 110.14551,102.36758 C 108.78934,103.41479 107.12906,103.95672 105.17929,103.95672 C 101.88597,103.95672 98.43382,101.65043 96.622487,98.184396 C 96.260025,97.457785 95.964671,96.744008 95.713181,96.011009 z"
       id="path3307" />
    <path
       style="fill:url(#radialGradient3418);fill-opacity:1;fill-rule:evenodd;stroke:none;stroke-width:1px;stroke-linecap:butt;stroke-linejoin:miter;stroke-opacity:1;filter:url(#filter3518)"
       d="M 114.65173,84.899418 L 114.22756,93.984127 L 118.62921,85.606525 C 117.59943,83.693212 116.38485,82.82711 114.65173,84.899418 z"
       id="path3402"
       sodipodi:nodetypes="cccc"
       transform="matrix(0.7460978,0,0,0.747832,29.376694,30.762671)" />
    <path
       sodipodi:nodetypes="cccc"
       id="path3558"
       d="M 114.20979,6.4989531 L 114.1214,9.7693211 L 118.09888,8.4434971 C 117.20364,7.5661051 116.67227,6.4807831 114.20979,6.4989531 z"
       style="opacity:0.6875;fill:url(#radialGradient3184);fill-opacity:1;fill-rule:evenodd;stroke:none;stroke-width:1px;stroke-linecap:butt;stroke-linejoin:miter;stroke-opacity:1;filter:url(#filter3290)"
       transform="matrix(0.7460978,0,0,0.747832,29.376694,30.762671)" />
  </g>
</svg>
