<?xml version="1.0" encoding="UTF-8" standalone="no"?>
<!-- Created with Inkscape (http://www.inkscape.org/) -->

<svg
   xmlns:dc="http://purl.org/dc/elements/1.1/"
   xmlns:cc="http://creativecommons.org/ns#"
   xmlns:rdf="http://www.w3.org/1999/02/22-rdf-syntax-ns#"
   xmlns:svg="http://www.w3.org/2000/svg"
   xmlns="http://www.w3.org/2000/svg"
   xmlns:sodipodi="http://sodipodi.sourceforge.net/DTD/sodipodi-0.dtd"
   xmlns:inkscape="http://www.inkscape.org/namespaces/inkscape"
   width="160.15625"
   height="384.0332"
   id="svg2"
   inkscape:label="Pozadí"
   sodipodi:version="0.32"
   inkscape:version="0.48.2 r9819"
   sodipodi:docname="0x027d.svg"
   version="1.0"
   inkscape:export-filename="/home/jspitzm/lyx/lyx-devel/lib/images/ipa/unicode-insert_0x027d.png"
   inkscape:export-xdpi="4.6870947"
   inkscape:export-ydpi="4.6870947">
  <defs
     id="defs1876" />
  <sodipodi:namedview
     id="base"
     pagecolor="#ffffff"
     bordercolor="#666666"
     borderopacity="1.0"
     inkscape:pageopacity="0.0"
     inkscape:pageshadow="2"
     inkscape:zoom="0.35"
     inkscape:cx="375"
     inkscape:cy="62.857143"
     inkscape:document-units="px"
     inkscape:current-layer="layer1"
     inkscape:window-width="1280"
     inkscape:window-height="968"
     inkscape:window-x="0"
     inkscape:window-y="0"
     showgrid="false"
     inkscape:window-maximized="0" />
  <metadata
     id="metadata1879">
    <rdf:RDF>
      <cc:Work
         rdf:about="">
        <dc:format>image/svg+xml</dc:format>
        <dc:type
           rdf:resource="http://purl.org/dc/dcmitype/StillImage" />
        <cc:license
           rdf:resource="http://web.resource.org/cc/PublicDomain" />
        <dc:title></dc:title>
      </cc:Work>
      <cc:License
         rdf:about="http://web.resource.org/cc/PublicDomain">
        <cc:permits
           rdf:resource="http://web.resource.org/cc/Reproduction" />
        <cc:permits
           rdf:resource="http://web.resource.org/cc/Distribution" />
        <cc:permits
           rdf:resource="http://web.resource.org/cc/DerivativeWorks" />
      </cc:License>
    </rdf:RDF>
  </metadata>
  <g
     inkscape:label="Vrstva 1"
     inkscape:groupmode="layer"
     id="layer1"
     transform="translate(309.3855,354.5449)">
    <path
       transform="translate(-23.36705,-155.4154)"
       style="font-size:500px;font-style:normal;font-weight:normal;fill:black;fill-opacity:1;stroke:none;stroke-width:1px;stroke-linecap:butt;stroke-linejoin:miter;stroke-opacity:1;font-family:DejaVu Sans"
       d="M -125.86215,-150.54548 C -130.90793,-153.47493 -136.40108,-155.63151 -142.34164,-157.01521 C -148.28258,-158.39843 -154.83368,-159.09016 -161.99496,-159.0904 C -187.54849,-159.09016 -207.12041,-150.83008 -220.71078,-134.31013 C -234.30138,-117.78975 -241.09662,-94.067439 -241.09653,-63.143135 L -241.09653,85.782646 C -241.09662,110.68496 -238.00417,127.08306 -231.81918,134.97698 C -225.63439,142.8708 -213.99704,146.81774 -196.90707,146.8178 L -140.02231,146.8178 L -140.02231,184.90374 L -202.03403,184.90374 C -231.49376,184.90364 -252.85605,177.09114 -266.12094,161.46624 C -279.38597,145.84117 -286.01845,120.61334 -286.0184,85.782646 L -286.0184,-192.53767 L -240.85239,-192.53767 L -240.85239,-150.0572 C -231.41238,-166.65851 -219.12398,-178.9876 -203.98715,-187.0445 C -188.85058,-195.10087 -170.45867,-199.12918 -148.81137,-199.12946 C -145.71911,-199.12918 -142.30114,-198.92573 -138.55746,-198.51911 C -134.81417,-198.11193 -130.66379,-197.50158 -126.10629,-196.68806 L -125.86215,-150.54548 z "
       id="text1870" />
  </g>
</svg>
