<?xml version="1.0" encoding="UTF-8" standalone="no"?>
<!-- Created with Inkscape (http://www.inkscape.org/) -->

<svg
   xmlns:dc="http://purl.org/dc/elements/1.1/"
   xmlns:cc="http://creativecommons.org/ns#"
   xmlns:rdf="http://www.w3.org/1999/02/22-rdf-syntax-ns#"
   xmlns:svg="http://www.w3.org/2000/svg"
   xmlns="http://www.w3.org/2000/svg"
   xmlns:sodipodi="http://sodipodi.sourceforge.net/DTD/sodipodi-0.dtd"
   xmlns:inkscape="http://www.inkscape.org/namespaces/inkscape"
   version="1.0"
   width="250.97656"
   height="287.10938"
   id="svg2"
   inkscape:version="0.48.2 r9819"
   sodipodi:docname="unicode-insert_0x006f.svg"
   inkscape:export-filename="/home/jspitzm/lyx/lyx-devel/lib/images/ipa/unicode-insert_0x006f.png"
   inkscape:export-xdpi="6.2693882"
   inkscape:export-ydpi="6.2693882">
  <metadata
     id="metadata8">
    <rdf:RDF>
      <cc:Work
         rdf:about="">
        <dc:format>image/svg+xml</dc:format>
        <dc:type
           rdf:resource="http://purl.org/dc/dcmitype/StillImage" />
        <dc:title></dc:title>
      </cc:Work>
    </rdf:RDF>
  </metadata>
  <sodipodi:namedview
     pagecolor="#ffffff"
     bordercolor="#666666"
     borderopacity="1"
     objecttolerance="10"
     gridtolerance="10"
     guidetolerance="10"
     inkscape:pageopacity="0"
     inkscape:pageshadow="2"
     inkscape:window-width="640"
     inkscape:window-height="480"
     id="namedview6"
     showgrid="false"
     inkscape:zoom="0.82198639"
     inkscape:cx="125.48828"
     inkscape:cy="143.55469"
     inkscape:window-x="0"
     inkscape:window-y="0"
     inkscape:window-maximized="0"
     inkscape:current-layer="svg2" />
  <defs
     id="defs4" />
  <g
     transform="translate(-333.8753,288.8294)"
     id="layer1">
    <path
       d="M 459.36359,-250.74345 C 435.27492,-250.7432 416.23197,-241.3438 402.23468,-222.5452 C 388.2372,-203.74618 381.23851,-177.98937 381.23859,-145.2747 C 381.23851,-112.55975 388.19651,-86.802939 402.11261,-68.004189 C 416.02852,-49.20532 435.11216,-39.805915 459.36359,-39.805946 C 483.28919,-39.805915 502.25076,-49.24601 516.24835,-68.126259 C 530.24552,-87.006389 537.24421,-112.72251 537.24445,-145.2747 C 537.24421,-177.66385 530.24552,-203.33928 516.24835,-222.30106 C 502.25076,-241.26242 483.28919,-250.7432 459.36359,-250.74345 L 459.36359,-250.74345 z M 459.36359,-288.82938 C 498.42589,-288.8291 529.1062,-276.1338 551.4046,-250.74345 C 573.70251,-225.3526 584.85159,-190.19639 584.85187,-145.2747 C 584.85159,-100.51549 573.70251,-65.399965 551.4046,-39.928017 C 529.1062,-14.456006 498.42589,-1.7200159 459.36359,-1.7200089 C 420.13821,-1.7200159 389.41721,-14.456006 367.2005,-39.928017 C 344.98366,-65.399965 333.87528,-100.51549 333.87531,-145.2747 C 333.87528,-190.19639 344.98366,-225.3526 367.2005,-250.74345 C 389.41721,-276.1338 420.13821,-288.8291 459.36359,-288.82938 L 459.36359,-288.82938 z "
       style="font-size:500px;font-style:normal;font-variant:normal;font-weight:normal;font-stretch:normal;text-align:start;line-height:125%;writing-mode:lr-tb;text-anchor:start;fill:black;fill-opacity:1;stroke:none;stroke-width:1px;stroke-linecap:butt;stroke-linejoin:miter;stroke-opacity:1;font-family:DejaVu Sans"
       id="text1904" />
  </g>
</svg>
