<?xml version="1.0" encoding="UTF-8" standalone="no"?>
<!-- Created with Inkscape (http://www.inkscape.org/) -->

<svg
   xmlns:dc="http://purl.org/dc/elements/1.1/"
   xmlns:cc="http://creativecommons.org/ns#"
   xmlns:rdf="http://www.w3.org/1999/02/22-rdf-syntax-ns#"
   xmlns:svg="http://www.w3.org/2000/svg"
   xmlns="http://www.w3.org/2000/svg"
   xmlns:sodipodi="http://sodipodi.sourceforge.net/DTD/sodipodi-0.dtd"
   xmlns:inkscape="http://www.inkscape.org/namespaces/inkscape"
   width="457.51953"
   height="287.10938"
   id="svg2"
   inkscape:label="Pozadí"
   sodipodi:version="0.32"
   inkscape:version="0.48.2 r9819"
   sodipodi:docname="unicode-insert_0x0153.svg"
   version="1.0"
   inkscape:export-filename="/home/jspitzm/lyx/lyx-devel/lib/images/ipa/unicode-insert_0x0153.png"
   inkscape:export-xdpi="4.0751019"
   inkscape:export-ydpi="4.0751019">
  <defs
     id="defs1876" />
  <sodipodi:namedview
     id="base"
     pagecolor="#ffffff"
     bordercolor="#666666"
     borderopacity="1.0"
     inkscape:pageopacity="0.0"
     inkscape:pageshadow="2"
     inkscape:zoom="0.35"
     inkscape:cx="375"
     inkscape:cy="62.857143"
     inkscape:document-units="px"
     inkscape:current-layer="layer1"
     inkscape:window-width="1280"
     inkscape:window-height="968"
     inkscape:window-x="0"
     inkscape:window-y="0"
     showgrid="false"
     inkscape:window-maximized="0" />
  <metadata
     id="metadata1879">
    <rdf:RDF>
      <cc:Work
         rdf:about="">
        <dc:format>image/svg+xml</dc:format>
        <dc:type
           rdf:resource="http://purl.org/dc/dcmitype/StillImage" />
        <cc:license
           rdf:resource="http://web.resource.org/cc/PublicDomain" />
        <dc:title></dc:title>
      </cc:Work>
      <cc:License
         rdf:about="http://web.resource.org/cc/PublicDomain">
        <cc:permits
           rdf:resource="http://web.resource.org/cc/Reproduction" />
        <cc:permits
           rdf:resource="http://web.resource.org/cc/Distribution" />
        <cc:permits
           rdf:resource="http://web.resource.org/cc/DerivativeWorks" />
      </cc:License>
    </rdf:RDF>
  </metadata>
  <g
     inkscape:label="Vrstva 1"
     inkscape:groupmode="layer"
     id="layer1"
     transform="translate(327.2077,354.5449)">
    <path
       transform="translate(-23.36705,-155.4154)"
       style="font-size:500px;font-style:normal;font-weight:normal;fill:black;fill-opacity:1;stroke:none;stroke-width:1px;stroke-linecap:butt;stroke-linejoin:miter;stroke-opacity:1;font-family:DejaVu Sans"
       d="M 108.51285,-80.232979 C 108.18689,-104.97238 101.35096,-124.62568 88.005035,-139.19294 C 74.658275,-153.75976 56.836027,-161.04328 34.538239,-161.04353 C 9.6355537,-161.04328 -10.343267,-153.96321 -25.398285,-139.80329 C -40.453914,-125.64293 -49.120898,-105.7048 -51.399261,-79.988838 L 108.51285,-80.232979 z M 153.67886,-67.049385 L 153.67886,-45.076729 L -52.864105,-45.076729 C -50.911261,-14.152155 -41.633926,9.4073922 -25.032074,25.601982 C -8.4308345,41.796683 14.762502,49.894005 44.548004,49.893974 C 61.800215,49.894005 78.564521,47.778122 94.840973,43.546318 C 111.11657,39.314589 127.22984,32.966939 143.18082,24.503349 L 143.18082,66.983818 C 126.90432,73.819763 110.30277,79.028091 93.376129,82.608818 C 76.448638,86.189542 59.358811,87.979905 42.106598,87.979912 C 16.064584,87.979905 -6.8032319,83.503998 -26.496918,74.552177 C -46.191213,65.60037 -62.629999,52.254029 -75.813324,34.513115 C -87.369558,52.416789 -101.65177,65.80382 -118.66,74.674248 C -135.66866,83.544688 -155.5661,87.979905 -178.35239,87.979912 C -217.57776,87.979905 -248.29876,75.243915 -270.51547,49.771904 C -292.73231,24.299955 -303.8407,-10.815569 -303.84067,-55.574776 C -303.8407,-100.49647 -292.73231,-135.65268 -270.51547,-161.04353 C -248.29876,-186.43388 -217.57776,-199.12918 -178.35239,-199.12946 C -155.5661,-199.12918 -135.58728,-194.61259 -118.41586,-185.57966 C -101.24487,-176.5462 -87.288177,-163.24055 -76.545746,-145.66267 C -63.850701,-163.07779 -48.062956,-176.34275 -29.182465,-185.45759 C -10.302577,-194.5719 10.774875,-199.12918 34.049957,-199.12946 C 70.833409,-199.12918 99.967495,-187.28837 121.4523,-163.607 C 142.9362,-139.92514 153.67838,-107.7393 153.67886,-67.049385 L 153.67886,-67.049385 z M -178.35239,-161.04353 C -202.44106,-161.04328 -221.48401,-151.64388 -235.48129,-132.84528 C -249.47877,-114.04626 -256.47746,-88.28945 -256.47739,-55.574776 C -256.47746,-22.859828 -249.51946,2.896982 -235.60336,21.695732 C -221.68746,40.494601 -202.60382,49.894005 -178.35239,49.893974 C -154.42678,49.894005 -135.46521,40.453911 -121.46762,21.573662 C -107.47045,2.6935317 -100.47176,-23.022588 -100.47153,-55.574776 C -100.47176,-87.96393 -107.47045,-113.63936 -121.46762,-132.60114 C -135.46521,-151.5625 -154.42678,-161.04328 -178.35239,-161.04353 L -178.35239,-161.04353 z "
       id="text1870" />
  </g>
</svg>
