<?xml version="1.0" encoding="UTF-8" standalone="no"?>
<!-- Created with Inkscape (http://www.inkscape.org/) -->

<svg
   xmlns:dc="http://purl.org/dc/elements/1.1/"
   xmlns:cc="http://creativecommons.org/ns#"
   xmlns:rdf="http://www.w3.org/1999/02/22-rdf-syntax-ns#"
   xmlns:svg="http://www.w3.org/2000/svg"
   xmlns="http://www.w3.org/2000/svg"
   xmlns:sodipodi="http://sodipodi.sourceforge.net/DTD/sodipodi-0.dtd"
   xmlns:inkscape="http://www.inkscape.org/namespaces/inkscape"
   width="259.52148"
   height="379.88281"
   id="svg2"
   inkscape:label="Pozadí"
   sodipodi:version="0.32"
   inkscape:version="0.48.2 r9819"
   sodipodi:docname="0x0127.svg"
   version="1.0"
   inkscape:export-filename="/home/jspitzm/lyx/lyx-devel/lib/images/ipa/unicode-insert_0x0127.png"
   inkscape:export-xdpi="4.7383037"
   inkscape:export-ydpi="4.7383037">
  <defs
     id="defs1876" />
  <sodipodi:namedview
     id="base"
     pagecolor="#ffffff"
     bordercolor="#666666"
     borderopacity="1.0"
     inkscape:pageopacity="0.0"
     inkscape:pageshadow="2"
     inkscape:zoom="0.35"
     inkscape:cx="375"
     inkscape:cy="62.857143"
     inkscape:document-units="px"
     inkscape:current-layer="layer1"
     inkscape:window-width="1280"
     inkscape:window-height="968"
     inkscape:window-x="0"
     inkscape:window-y="0"
     showgrid="false"
     inkscape:window-maximized="0" />
  <metadata
     id="metadata1879">
    <rdf:RDF>
      <cc:Work
         rdf:about="">
        <dc:format>image/svg+xml</dc:format>
        <dc:type
           rdf:resource="http://purl.org/dc/dcmitype/StillImage" />
        <cc:license
           rdf:resource="http://web.resource.org/cc/PublicDomain" />
        <dc:title></dc:title>
      </cc:Work>
      <cc:License
         rdf:about="http://web.resource.org/cc/PublicDomain">
        <cc:permits
           rdf:resource="http://web.resource.org/cc/Reproduction" />
        <cc:permits
           rdf:resource="http://web.resource.org/cc/Distribution" />
        <cc:permits
           rdf:resource="http://web.resource.org/cc/DerivativeWorks" />
      </cc:License>
    </rdf:RDF>
  </metadata>
  <g
     inkscape:label="Vrstva 1"
     inkscape:groupmode="layer"
     id="layer1"
     transform="translate(325.4987,454.3984)">
    <path
       transform="translate(-23.36705,-155.4154)"
       style="font-size:500px;font-style:normal;font-weight:normal;fill:black;fill-opacity:1;stroke:none;stroke-width:1px;stroke-linecap:butt;stroke-linejoin:miter;stroke-opacity:1;font-family:DejaVu Sans"
       d="M -42.610199,-84.139229 L -42.610199,80.899834 L -87.532074,80.899834 L -87.532074,-82.674385 C -87.532318,-108.5531 -92.577886,-127.92157 -102.66879,-140.77985 C -112.76016,-153.63769 -127.89686,-160.06672 -148.07895,-160.06696 C -172.33041,-160.06672 -191.45474,-152.33561 -205.452,-136.8736 C -219.4495,-121.41116 -226.44819,-100.33371 -226.44809,-73.641182 L -226.44809,80.899834 L -271.61411,80.899834 L -271.61411,-229.15876 L -302.13168,-229.15876 L -302.13168,-269.19782 L -271.61411,-269.19782 L -271.61411,-298.98298 L -226.44809,-298.98298 L -226.44809,-269.19782 L -140.51059,-269.19782 L -140.51059,-229.15876 L -226.44809,-229.15876 L -226.44809,-150.0572 C -215.70602,-166.49575 -203.05141,-178.78415 -188.48422,-186.92243 C -173.91732,-195.06018 -157.11233,-199.12918 -138.06918,-199.12946 C -106.65665,-199.12918 -82.893651,-189.40426 -66.780121,-169.95466 C -50.66712,-150.50456 -42.610488,-121.89944 -42.610199,-84.139229 L -42.610199,-84.139229 z "
       id="text1870" />
  </g>
</svg>
