<?xml version="1.0" encoding="UTF-8" standalone="no"?>
<!-- Created with Inkscape (http://www.inkscape.org/) -->

<svg
   xmlns:dc="http://purl.org/dc/elements/1.1/"
   xmlns:cc="http://creativecommons.org/ns#"
   xmlns:rdf="http://www.w3.org/1999/02/22-rdf-syntax-ns#"
   xmlns:svg="http://www.w3.org/2000/svg"
   xmlns="http://www.w3.org/2000/svg"
   xmlns:sodipodi="http://sodipodi.sourceforge.net/DTD/sodipodi-0.dtd"
   xmlns:inkscape="http://www.inkscape.org/namespaces/inkscape"
   width="241.45508"
   height="273.4375"
   id="svg2"
   inkscape:label="Pozadí"
   sodipodi:version="0.32"
   inkscape:version="0.48.2 r9819"
   sodipodi:docname="0x0281.svg"
   version="1.0"
   inkscape:export-filename="/home/jspitzm/lyx/lyx-devel/lib/images/ipa/unicode-insert_0x0281.png"
   inkscape:export-xdpi="6.5828571"
   inkscape:export-ydpi="6.5828571">
  <defs
     id="defs1876" />
  <sodipodi:namedview
     id="base"
     pagecolor="#ffffff"
     bordercolor="#666666"
     borderopacity="1.0"
     inkscape:pageopacity="0.0"
     inkscape:pageshadow="2"
     inkscape:zoom="0.35"
     inkscape:cx="375"
     inkscape:cy="62.857143"
     inkscape:document-units="px"
     inkscape:current-layer="layer1"
     inkscape:window-width="1280"
     inkscape:window-height="968"
     inkscape:window-x="0"
     inkscape:window-y="0"
     showgrid="false"
     inkscape:window-maximized="0" />
  <metadata
     id="metadata1879">
    <rdf:RDF>
      <cc:Work
         rdf:about="">
        <dc:format>image/svg+xml</dc:format>
        <dc:type
           rdf:resource="http://purl.org/dc/dcmitype/StillImage" />
        <cc:license
           rdf:resource="http://web.resource.org/cc/PublicDomain" />
        <dc:title></dc:title>
      </cc:Work>
      <cc:License
         rdf:about="http://web.resource.org/cc/PublicDomain">
        <cc:permits
           rdf:resource="http://web.resource.org/cc/Reproduction" />
        <cc:permits
           rdf:resource="http://web.resource.org/cc/Distribution" />
        <cc:permits
           rdf:resource="http://web.resource.org/cc/DerivativeWorks" />
      </cc:License>
    </rdf:RDF>
  </metadata>
  <g
     inkscape:label="Vrstva 1"
     inkscape:groupmode="layer"
     id="layer1"
     transform="translate(309.3855,347.9531)">
    <path
       transform="translate(-23.36705,-155.4154)"
       style="font-size:500px;font-style:normal;font-weight:normal;fill:black;fill-opacity:1;stroke:none;stroke-width:1px;stroke-linecap:butt;stroke-linejoin:miter;stroke-opacity:1;font-family:DejaVu Sans"
       d="M -286.0184,-192.53767 L -240.85239,-192.53767 L -240.85239,-77.059151 L -199.59262,-77.059151 C -186.40917,-77.058993 -174.8125,-79.419016 -164.80258,-84.139229 C -154.79299,-88.859111 -143.76599,-101.63579 -131.72153,-122.46931 L -92.170746,-192.53767 L -44.563324,-192.53767 L -87.043793,-117.83064 C -95.18205,-102.69373 -103.93041,-90.405334 -113.28891,-80.965401 C -122.64784,-71.525144 -131.23345,-65.991295 -139.04575,-64.363838 C -121.79335,-59.969166 -108.60977,-52.075294 -99.494965,-40.682198 C -90.380622,-29.288858 -85.823335,-15.047336 -85.82309,2.0424118 C -85.823335,28.897933 -94.531009,48.754684 -111.94614,61.612724 C -129.3617,74.470804 -155.81024,80.899834 -191.29184,80.899834 L -286.0184,80.899834 L -286.0184,-192.53767 z M -240.85239,-39.217354 L -240.85239,43.058037 L -192.51254,43.058037 C -171.51661,43.058075 -156.25784,39.151829 -146.73618,31.339287 C -137.21489,23.526844 -132.45415,13.354328 -132.45395,0.82170868 C -132.45415,-11.873511 -137.62179,-21.720506 -147.95688,-28.719307 C -158.29234,-35.717888 -173.14421,-39.217234 -192.51254,-39.217354 L -240.85239,-39.217354 z "
       id="text1870" />
  </g>
</svg>
