<?xml version="1.0" encoding="UTF-8" standalone="no"?>
<!-- Created with Inkscape (http://www.inkscape.org/) -->

<svg
   xmlns:dc="http://purl.org/dc/elements/1.1/"
   xmlns:cc="http://creativecommons.org/ns#"
   xmlns:rdf="http://www.w3.org/1999/02/22-rdf-syntax-ns#"
   xmlns:svg="http://www.w3.org/2000/svg"
   xmlns="http://www.w3.org/2000/svg"
   xmlns:sodipodi="http://sodipodi.sourceforge.net/DTD/sodipodi-0.dtd"
   xmlns:inkscape="http://www.inkscape.org/namespaces/inkscape"
   width="329.83398"
   height="483.88672"
   id="svg2"
   inkscape:label="Pozadí"
   sodipodi:version="0.32"
   inkscape:version="0.48.2 r9819"
   sodipodi:docname="unicode-insert_0x0260.svg"
   version="1.0"
   inkscape:export-filename="/home/jspitzm/lyx/lyx-devel/lib/images/ipa/unicode-insert_0x0260.png"
   inkscape:export-xdpi="3.7198789"
   inkscape:export-ydpi="3.7198789">
  <defs
     id="defs1876" />
  <sodipodi:namedview
     id="base"
     pagecolor="#ffffff"
     bordercolor="#666666"
     borderopacity="1.0"
     inkscape:pageopacity="0.0"
     inkscape:pageshadow="2"
     inkscape:zoom="0.35"
     inkscape:cx="375"
     inkscape:cy="62.857143"
     inkscape:document-units="px"
     inkscape:current-layer="layer1"
     inkscape:window-width="1280"
     inkscape:window-height="968"
     inkscape:window-x="0"
     inkscape:window-y="0"
     showgrid="false"
     inkscape:window-maximized="0" />
  <metadata
     id="metadata1879">
    <rdf:RDF>
      <cc:Work
         rdf:about="">
        <dc:format>image/svg+xml</dc:format>
        <dc:type
           rdf:resource="http://purl.org/dc/dcmitype/StillImage" />
        <cc:license
           rdf:resource="http://web.resource.org/cc/PublicDomain" />
        <dc:title></dc:title>
      </cc:Work>
      <cc:License
         rdf:about="http://web.resource.org/cc/PublicDomain">
        <cc:permits
           rdf:resource="http://web.resource.org/cc/Reproduction" />
        <cc:permits
           rdf:resource="http://web.resource.org/cc/Distribution" />
        <cc:permits
           rdf:resource="http://web.resource.org/cc/DerivativeWorks" />
      </cc:License>
    </rdf:RDF>
  </metadata>
  <g
     inkscape:label="Vrstva 1"
     inkscape:groupmode="layer"
     id="layer1"
     transform="translate(327.2077,454.3984)">
    <path
       transform="translate(-23.36705,-155.4154)"
       style="font-size:500px;font-style:normal;font-weight:normal;fill:black;fill-opacity:1;stroke:none;stroke-width:1px;stroke-linecap:butt;stroke-linejoin:miter;stroke-opacity:1;font-family:DejaVu Sans"
       d="M -104.37778,-58.992744 C -104.378,-91.544655 -111.09186,-116.77249 -124.51938,-134.67634 C -137.94731,-152.57975 -156.78681,-161.53156 -181.03793,-161.53181 C -205.1266,-161.53156 -223.88472,-152.57975 -237.31235,-134.67634 C -250.74016,-116.77249 -257.45402,-91.544655 -257.45395,-58.992744 C -257.45402,-26.603314 -250.74016,-1.4568548 -237.31235,16.446709 C -223.88472,34.350401 -205.1266,43.302215 -181.03793,43.302177 C -156.78681,43.302215 -137.94731,34.350401 -124.51938,16.446709 C -111.09186,-1.4568548 -104.378,-26.603314 -104.37778,-58.992744 L -104.37778,-58.992744 z M -59.455902,46.964287 C -59.456174,93.513753 -69.79145,128.141 -90.461761,150.84612 C -111.13255,173.55111 -142.78942,184.90364 -185.43246,184.90374 C -201.22036,184.90364 -216.11292,183.72362 -230.1102,181.3637 C -244.10768,179.00358 -257.69816,175.38216 -270.88168,170.49944 L -270.88168,126.79827 C -257.69816,133.95968 -244.67734,139.24938 -231.81918,142.66741 C -218.96122,146.08532 -205.85902,147.7943 -192.51254,147.79436 C -163.05308,147.7943 -140.99906,140.10388 -126.35043,124.72308 C -111.70222,109.34219 -104.378,86.108162 -104.37778,55.020927 L -104.37778,32.804131 C -113.65534,48.917444 -125.53684,60.961703 -140.02231,68.936943 C -154.50816,76.912207 -171.84213,80.899834 -192.02426,80.899834 C -225.55301,80.899834 -252.57122,68.123154 -273.07895,42.569756 C -293.5868,17.016434 -303.8407,-16.837699 -303.84067,-58.992744 C -303.8407,-101.31027 -293.5868,-135.24578 -273.07895,-160.79939 C -252.57122,-186.3525 -225.55301,-199.12918 -192.02426,-199.12946 C -171.84213,-199.12918 -154.50816,-195.14156 -140.02231,-187.16657 C -125.53684,-179.19105 -113.65534,-167.14679 -104.37778,-151.03376 L -104.37778,-199.86189 C -104.378,-234.6923 -97.745524,-259.92014 -84.480316,-275.54548 C -71.215602,-291.17011 -49.853319,-298.9826 -20.393402,-298.98298 L 25.993317,-298.98298 L 25.993317,-260.89704 L -15.266449,-260.89704 C -32.356592,-260.8967 -43.99395,-256.94976 -50.178558,-249.05622 C -56.363729,-241.16202 -59.456174,-224.76392 -59.455902,-199.86189 L -59.455902,46.964287 z "
       id="text1870" />
  </g>
</svg>
