<?xml version="1.0" encoding="UTF-8" standalone="no"?>
<!-- Created with Inkscape (http://www.inkscape.org/) -->

<svg
   xmlns:dc="http://purl.org/dc/elements/1.1/"
   xmlns:cc="http://creativecommons.org/ns#"
   xmlns:rdf="http://www.w3.org/1999/02/22-rdf-syntax-ns#"
   xmlns:svg="http://www.w3.org/2000/svg"
   xmlns="http://www.w3.org/2000/svg"
   xmlns:sodipodi="http://sodipodi.sourceforge.net/DTD/sodipodi-0.dtd"
   xmlns:inkscape="http://www.inkscape.org/namespaces/inkscape"
   width="219.48242"
   height="300.53711"
   id="svg2"
   inkscape:label="Pozadí"
   sodipodi:version="0.32"
   inkscape:version="0.48.2 r9819"
   sodipodi:docname="unicode-insert_0x0291.svg"
   version="1.0"
   inkscape:export-filename="/home/jspitzm/lyx/lyx-devel/lib/images/ipa/unicode-insert_0x0291.png"
   inkscape:export-xdpi="5.9892769"
   inkscape:export-ydpi="5.9892769">
  <defs
     id="defs1876" />
  <sodipodi:namedview
     id="base"
     pagecolor="#ffffff"
     bordercolor="#666666"
     borderopacity="1.0"
     inkscape:pageopacity="0.0"
     inkscape:pageshadow="2"
     inkscape:zoom="0.35"
     inkscape:cx="375"
     inkscape:cy="62.857143"
     inkscape:document-units="px"
     inkscape:current-layer="layer1"
     inkscape:window-width="1280"
     inkscape:window-height="968"
     inkscape:window-x="0"
     inkscape:window-y="0"
     showgrid="false"
     inkscape:window-maximized="0" />
  <metadata
     id="metadata1879">
    <rdf:RDF>
      <cc:Work
         rdf:about="">
        <dc:format>image/svg+xml</dc:format>
        <dc:type
           rdf:resource="http://purl.org/dc/dcmitype/StillImage" />
        <cc:license
           rdf:resource="http://web.resource.org/cc/PublicDomain" />
        <dc:title></dc:title>
      </cc:Work>
      <cc:License
         rdf:about="http://web.resource.org/cc/PublicDomain">
        <cc:permits
           rdf:resource="http://web.resource.org/cc/Reproduction" />
        <cc:permits
           rdf:resource="http://web.resource.org/cc/Distribution" />
        <cc:permits
           rdf:resource="http://web.resource.org/cc/DerivativeWorks" />
      </cc:License>
    </rdf:RDF>
  </metadata>
  <g
     inkscape:label="Vrstva 1"
     inkscape:groupmode="layer"
     id="layer1"
     transform="translate(333.3112,347.9531)">
    <path
       transform="translate(-23.36705,-155.4154)"
       style="font-size:500px;font-style:normal;font-weight:normal;fill:black;fill-opacity:1;stroke:none;stroke-width:1px;stroke-linecap:butt;stroke-linejoin:miter;stroke-opacity:1;font-family:DejaVu Sans"
       d="M -303.84067,-192.53767 L -90.461761,-192.53767 L -90.461761,-151.52204 L -259.40707,45.011162 L -216.68246,45.011162 C -211.14873,18.644037 -201.54588,-0.31753302 -187.87387,-11.873604 C -177.2946,-20.825325 -164.1924,-25.301232 -148.56723,-25.301338 C -127.08306,-25.301232 -111.62084,-18.221161 -102.18051,-4.0611038 C -95.995851,5.2163156 -92.903406,16.935054 -92.903168,31.095146 C -92.740646,46.72018 -97.704834,58.357539 -107.79575,66.007256 C -121.14231,75.935646 -138.06938,80.899834 -158.577,80.899834 L -184.21176,80.899834 C -184.70019,89.200607 -184.94433,98.233801 -184.94418,107.99944 L -222.2977,107.99944 C -222.29781,98.396561 -222.05367,89.363367 -221.56528,80.899834 L -309.94418,80.899834 L -309.94418,39.884209 L -140.99887,-156.64899 L -303.84067,-156.64899 L -303.84067,-192.53767 z M -179.08481,45.011162 L -165.41293,45.011162 C -142.95218,45.011198 -131.72173,40.616671 -131.72153,31.827568 C -131.72173,16.690914 -137.41834,9.285322 -148.81137,9.6107712 C -163.13446,9.936363 -173.22559,21.736481 -179.08481,45.011162 L -179.08481,45.011162 z "
       id="text1870" />
  </g>
</svg>
