<?xml version="1.0" encoding="UTF-8" standalone="no"?>
<!-- Created with Inkscape (http://www.inkscape.org/) -->
<svg
   xmlns:dc="http://purl.org/dc/elements/1.1/"
   xmlns:cc="http://web.resource.org/cc/"
   xmlns:rdf="http://www.w3.org/1999/02/22-rdf-syntax-ns#"
   xmlns:svg="http://www.w3.org/2000/svg"
   xmlns="http://www.w3.org/2000/svg"
   xmlns:sodipodi="http://sodipodi.sourceforge.net/DTD/sodipodi-0.dtd"
   xmlns:inkscape="http://www.inkscape.org/namespaces/inkscape"
   width="161.13281"
   height="379.88281"
   id="svg2"
   inkscape:label="Pozadí"
   sodipodi:version="0.32"
   inkscape:version="0.44.1"
   sodipodi:docbase="B:\Pracovní data\Projekty\Aktivní\Jazyky na Wikipedii CS\Znaky IPA\Křivky"
   sodipodi:docname="IPA Unicode 0x26B.svg"
   version="1.0">
  <defs
     id="defs1876" />
  <sodipodi:namedview
     id="base"
     pagecolor="#ffffff"
     bordercolor="#666666"
     borderopacity="1.0"
     inkscape:pageopacity="0.0"
     inkscape:pageshadow="2"
     inkscape:zoom="0.35"
     inkscape:cx="375"
     inkscape:cy="62.857143"
     inkscape:document-units="px"
     inkscape:current-layer="layer1"
     inkscape:window-width="1280"
     inkscape:window-height="968"
     inkscape:window-x="-4"
     inkscape:window-y="-4" />
  <metadata
     id="metadata1879">
    <rdf:RDF>
      <cc:Work
         rdf:about="">
        <dc:format>image/svg+xml</dc:format>
        <dc:type
           rdf:resource="http://purl.org/dc/dcmitype/StillImage" />
        <cc:license
           rdf:resource="http://web.resource.org/cc/PublicDomain" />
      </cc:Work>
      <cc:License
         rdf:about="http://web.resource.org/cc/PublicDomain">
        <cc:permits
           rdf:resource="http://web.resource.org/cc/Reproduction" />
        <cc:permits
           rdf:resource="http://web.resource.org/cc/Distribution" />
        <cc:permits
           rdf:resource="http://web.resource.org/cc/DerivativeWorks" />
      </cc:License>
    </rdf:RDF>
  </metadata>
  <g
     inkscape:label="Vrstva 1"
     inkscape:groupmode="layer"
     id="layer1"
     transform="translate(336.4851,454.3984)">
    <path
       transform="translate(-23.36705,-155.4154)"
       style="font-size:500px;font-style:normal;font-weight:normal;fill:black;fill-opacity:1;stroke:none;stroke-width:1px;stroke-linecap:butt;stroke-linejoin:miter;stroke-opacity:1;font-family:DejaVu Sans"
       d="M -254.03598,-298.98298 L -209.11411,-298.98298 L -209.11411,-106.84431 C -208.78871,-106.68136 -208.54457,-106.5186 -208.38168,-106.35603 C -205.61488,-104.891 -203.17348,-104.15858 -201.05746,-104.15876 C -194.87271,-104.15858 -190.31542,-107.16964 -187.38559,-113.19196 C -184.45605,-119.05114 -182.82845,-128.65399 -182.50278,-142.00056 L -151.9852,-142.00056 C -152.3109,-120.0277 -156.62405,-103.10063 -164.92465,-91.219307 C -173.22559,-79.174876 -184.78157,-73.152747 -199.59262,-73.152901 C -202.84796,-73.152747 -206.02178,-73.478267 -209.11411,-74.129463 L -209.11411,80.899834 L -254.03598,80.899834 L -254.03598,-107.08845 C -255.01262,-107.7393 -255.9078,-108.30896 -256.72153,-108.79743 C -259.48853,-110.26208 -261.92993,-110.99451 -264.04575,-110.9947 C -270.2307,-110.99451 -274.78799,-107.98344 -277.71762,-101.96149 C -280.64736,-96.101942 -282.27496,-86.499087 -282.60043,-73.152901 L -313.11801,-73.152901 C -312.79251,-95.125381 -308.47936,-112.05245 -300.17856,-123.93415 C -291.87782,-135.9782 -280.32184,-142.00033 -265.51059,-142.00056 C -261.44165,-142.00033 -257.61678,-141.51205 -254.03598,-140.53571 L -254.03598,-298.98298 z "
       id="text1870" />
  </g>
</svg>
