<?xml version="1.0" encoding="UTF-8" standalone="no"?>
<!-- Created with Inkscape (http://www.inkscape.org/) -->

<svg
   xmlns:dc="http://purl.org/dc/elements/1.1/"
   xmlns:cc="http://creativecommons.org/ns#"
   xmlns:rdf="http://www.w3.org/1999/02/22-rdf-syntax-ns#"
   xmlns:svg="http://www.w3.org/2000/svg"
   xmlns="http://www.w3.org/2000/svg"
   xmlns:sodipodi="http://sodipodi.sourceforge.net/DTD/sodipodi-0.dtd"
   xmlns:inkscape="http://www.inkscape.org/namespaces/inkscape"
   width="230.95703"
   height="287.10938"
   id="svg2"
   inkscape:label="Pozadí"
   sodipodi:version="0.32"
   inkscape:version="0.48.2 r9819"
   sodipodi:docname="unicode-insert_0x0250.svg"
   version="1.0"
   inkscape:export-filename="/home/jspitzm/lyx/lyx-devel/lib/images/ipa/unicode-insert_0x0250.png"
   inkscape:export-xdpi="6.2693877"
   inkscape:export-ydpi="6.2693877">
  <defs
     id="defs1876" />
  <sodipodi:namedview
     id="base"
     pagecolor="#ffffff"
     bordercolor="#666666"
     borderopacity="1.0"
     inkscape:pageopacity="0.0"
     inkscape:pageshadow="2"
     inkscape:zoom="0.35"
     inkscape:cx="375"
     inkscape:cy="62.857143"
     inkscape:document-units="px"
     inkscape:current-layer="layer1"
     inkscape:window-width="1280"
     inkscape:window-height="968"
     inkscape:window-x="0"
     inkscape:window-y="0"
     showgrid="false"
     inkscape:window-maximized="0" />
  <metadata
     id="metadata1879">
    <rdf:RDF>
      <cc:Work
         rdf:about="">
        <dc:format>image/svg+xml</dc:format>
        <dc:type
           rdf:resource="http://purl.org/dc/dcmitype/StillImage" />
        <cc:license
           rdf:resource="http://web.resource.org/cc/PublicDomain" />
        <dc:title></dc:title>
      </cc:Work>
      <cc:License
         rdf:about="http://web.resource.org/cc/PublicDomain">
        <cc:permits
           rdf:resource="http://web.resource.org/cc/Reproduction" />
        <cc:permits
           rdf:resource="http://web.resource.org/cc/Distribution" />
        <cc:permits
           rdf:resource="http://web.resource.org/cc/DerivativeWorks" />
      </cc:License>
    </rdf:RDF>
  </metadata>
  <g
     inkscape:label="Vrstva 1"
     inkscape:groupmode="layer"
     id="layer1"
     transform="translate(312.3151,354.5449)">
    <path
       transform="translate(-23.36705,-155.4154)"
       style="font-size:500px;font-style:normal;font-weight:normal;fill:black;fill-opacity:1;stroke:none;stroke-width:1px;stroke-linecap:butt;stroke-linejoin:miter;stroke-opacity:1;font-family:DejaVu Sans"
       d="M -199.34848,-54.598213 C -163.05308,-54.598078 -137.90662,-58.748464 -123.90903,-67.049385 C -109.91185,-75.35001 -102.91316,-89.510152 -102.91293,-109.52985 C -102.91316,-125.48017 -108.20287,-138.17547 -118.78207,-147.61579 C -129.19894,-156.8929 -143.44047,-161.53156 -161.50668,-161.53181 C -186.40917,-161.53156 -206.3473,-152.66113 -221.32114,-134.92048 C -236.45795,-117.34216 -244.0263,-93.904679 -244.02621,-64.607979 L -244.02621,-54.598213 L -199.34848,-54.598213 z M -288.94809,-36.043526 L -288.94809,-192.04939 L -244.02621,-192.04939 L -244.02621,-150.54548 C -233.77241,-167.14679 -220.99573,-179.35381 -205.69614,-187.16657 C -190.3968,-195.14156 -171.67937,-199.12918 -149.54379,-199.12946 C -121.54921,-199.12918 -99.251056,-191.23531 -82.649261,-175.44782 C -66.210725,-159.82258 -57.991332,-138.82651 -57.991058,-112.45954 C -57.991332,-81.69766 -68.326608,-58.504324 -88.996918,-42.879463 C -109.50495,-27.254355 -140.18526,-19.441863 -181.03793,-19.441963 L -244.02621,-19.441963 L -244.02621,-15.047432 C -244.0263,5.6232162 -237.27175,21.655101 -223.76254,33.048271 C -210.09079,44.278777 -190.96646,49.894005 -166.3895,49.893974 C -150.76468,49.894005 -135.54659,48.022262 -120.7352,44.27874 C -105.92423,40.535291 -91.682704,34.920062 -78.01059,27.433037 L -78.01059,68.936943 C -94.449629,75.284605 -110.40013,80.086032 -125.86215,83.34124 C -141.32458,86.433682 -156.37991,87.979905 -171.02817,87.979912 C -210.57907,87.979905 -240.12006,77.726009 -259.65121,57.218193 C -279.18252,36.710425 -288.94813,5.6232162 -288.94809,-36.043526 L -288.94809,-36.043526 z "
       id="text1870" />
  </g>
</svg>
