<?xml version="1.0" encoding="UTF-8" standalone="no"?>
<!-- Created with Inkscape (http://www.inkscape.org/) -->
<svg
   xmlns:dc="http://purl.org/dc/elements/1.1/"
   xmlns:cc="http://web.resource.org/cc/"
   xmlns:rdf="http://www.w3.org/1999/02/22-rdf-syntax-ns#"
   xmlns:svg="http://www.w3.org/2000/svg"
   xmlns="http://www.w3.org/2000/svg"
   xmlns:sodipodi="http://sodipodi.sourceforge.net/DTD/sodipodi-0.dtd"
   xmlns:inkscape="http://www.inkscape.org/namespaces/inkscape"
   width="479.24805"
   height="486.32813"
   id="svg2"
   inkscape:label="Pozadí"
   sodipodi:version="0.32"
   inkscape:version="0.44.1"
   sodipodi:docbase="D:\Pracovní data\Martin Kozák\Projekty\Aktivní\Jazyky na Wikipedii CS\Znaky IPA\Křivky"
   sodipodi:docname="IPA Unicode 0x2A4.svg"
   version="1.0">
  <defs
     id="defs1876" />
  <sodipodi:namedview
     id="base"
     pagecolor="#ffffff"
     bordercolor="#666666"
     borderopacity="1.0"
     inkscape:pageopacity="0.0"
     inkscape:pageshadow="2"
     inkscape:zoom="0.35"
     inkscape:cx="375"
     inkscape:cy="177.14286"
     inkscape:document-units="px"
     inkscape:current-layer="layer1"
     inkscape:window-width="1280"
     inkscape:window-height="968"
     inkscape:window-x="-4"
     inkscape:window-y="-4" />
  <metadata
     id="metadata1879">
    <rdf:RDF>
      <cc:Work
         rdf:about="">
        <dc:format>image/svg+xml</dc:format>
        <dc:type
           rdf:resource="http://purl.org/dc/dcmitype/StillImage" />
        <cc:license
           rdf:resource="http://web.resource.org/cc/PublicDomain" />
      </cc:Work>
      <cc:License
         rdf:about="http://web.resource.org/cc/PublicDomain">
        <cc:permits
           rdf:resource="http://web.resource.org/cc/Reproduction" />
        <cc:permits
           rdf:resource="http://web.resource.org/cc/Distribution" />
        <cc:permits
           rdf:resource="http://web.resource.org/cc/DerivativeWorks" />
      </cc:License>
    </rdf:RDF>
  </metadata>
  <g
     inkscape:label="Vrstva 1"
     inkscape:groupmode="layer"
     id="layer1"
     transform="translate(327.2077,454.3984)">
    <path
       transform="translate(-23.36705,-155.4154)"
       style="font-size:500px;font-style:normal;font-weight:normal;fill:black;fill-opacity:1;stroke:none;stroke-width:1px;stroke-linecap:butt;stroke-linejoin:miter;stroke-opacity:1;font-family:DejaVu Sans"
       d="M -59.455902,-156.64899 L -59.455902,80.899834 L -104.37778,80.899834 L -104.37778,39.884209 C -113.8181,56.160275 -125.6996,68.204534 -140.02231,76.017021 C -154.50816,83.992279 -171.84213,87.979905 -192.02426,87.979912 C -225.06473,87.979905 -252.00155,74.796324 -272.83481,48.429131 C -293.50542,22.062002 -303.8407,-12.605932 -303.84067,-55.574776 C -303.8407,-98.543346 -293.50542,-133.21128 -272.83481,-159.57868 C -252.00155,-185.9456 -225.06473,-199.12918 -192.02426,-199.12946 C -171.84213,-199.12918 -154.50816,-195.14156 -140.02231,-187.16657 C -125.6996,-179.35381 -113.8181,-167.30955 -104.37778,-151.03376 L -104.37778,-298.98298 L -59.455902,-298.98298 L -59.455902,-192.53767 L 153.923,-192.53767 L 153.923,-151.52204 L 53.581207,-35.311104 C 70.833409,-35.310988 89.876359,-30.753701 110.71011,-21.639229 C 126.66018,-14.803196 141.63412,-2.5147964 155.63199,15.226006 C 168.81508,32.153138 175.40687,51.847128 175.40738,74.308037 C 175.40687,110.27806 163.03709,138.11006 138.298,157.80413 C 113.55798,177.49804 78.401761,187.34504 32.829254,187.34515 C 17.529426,187.34504 1.8230615,185.8802 -14.289886,182.95061 C -30.566229,179.85807 -47.330535,175.30078 -64.582855,169.27874 L -64.582855,121.67132 C -50.911261,129.64653 -35.937317,135.66866 -19.66098,139.73772 C -3.3852666,143.80667 13.62318,145.84117 31.36441,145.84124 C 62.288496,145.84117 85.807353,139.73767 101.92105,127.53069 C 118.19664,115.32363 126.33466,97.58276 126.33511,74.308037 C 126.33466,52.82369 118.84768,35.978004 103.87418,23.770927 C 88.737037,11.726726 67.740964,5.7045964 40.885895,5.7045212 L -1.594574,5.7045212 L -1.594574,-34.822823 L 103.38589,-156.64899 L -59.455902,-156.64899 z M -237.19028,-133.45564 C -250.69947,-114.57523 -257.45402,-88.614971 -257.45395,-55.574776 C -257.45402,-22.534308 -250.69947,3.4259528 -237.19028,22.306084 C -223.51851,41.023571 -204.80108,50.382286 -181.03793,50.382256 C -157.27509,50.382286 -138.55766,41.023571 -124.88559,22.306084 C -111.21393,3.4259528 -104.378,-22.534308 -104.37778,-55.574776 C -104.378,-88.614971 -111.21393,-114.57523 -124.88559,-133.45564 C -138.55766,-152.17285 -157.27509,-161.53156 -181.03793,-161.53181 C -204.80108,-161.53156 -223.51851,-152.17285 -237.19028,-133.45564 L -237.19028,-133.45564 z "
       id="text1870" />
  </g>
</svg>
