<?xml version="1.0" encoding="UTF-8" standalone="no"?>
<!-- Created with Inkscape (http://www.inkscape.org/) -->

<svg
   xmlns:dc="http://purl.org/dc/elements/1.1/"
   xmlns:cc="http://creativecommons.org/ns#"
   xmlns:rdf="http://www.w3.org/1999/02/22-rdf-syntax-ns#"
   xmlns:svg="http://www.w3.org/2000/svg"
   xmlns="http://www.w3.org/2000/svg"
   xmlns:sodipodi="http://sodipodi.sourceforge.net/DTD/sodipodi-0.dtd"
   xmlns:inkscape="http://www.inkscape.org/namespaces/inkscape"
   width="216.30859"
   height="376.46484"
   id="svg2"
   inkscape:label="Pozadí"
   sodipodi:version="0.32"
   inkscape:version="0.48.2 r9819"
   sodipodi:docname="0x00e7.svg"
   version="1.0"
   inkscape:export-filename="/home/jspitzm/lyx/lyx-devel/lib/images/ipa/unicode-insert_0x00e7.png"
   inkscape:export-xdpi="4.781323"
   inkscape:export-ydpi="4.781323">
  <defs
     id="defs1876" />
  <sodipodi:namedview
     id="base"
     pagecolor="#ffffff"
     bordercolor="#666666"
     borderopacity="1.0"
     inkscape:pageopacity="0.0"
     inkscape:pageshadow="2"
     inkscape:zoom="0.35"
     inkscape:cx="375"
     inkscape:cy="62.857143"
     inkscape:document-units="px"
     inkscape:current-layer="layer1"
     inkscape:window-width="1280"
     inkscape:window-height="968"
     inkscape:window-x="0"
     inkscape:window-y="0"
     showgrid="false"
     inkscape:window-maximized="0" />
  <metadata
     id="metadata1879">
    <rdf:RDF>
      <cc:Work
         rdf:about="">
        <dc:format>image/svg+xml</dc:format>
        <dc:type
           rdf:resource="http://purl.org/dc/dcmitype/StillImage" />
        <cc:license
           rdf:resource="http://web.resource.org/cc/PublicDomain" />
        <dc:title></dc:title>
      </cc:Work>
      <cc:License
         rdf:about="http://web.resource.org/cc/PublicDomain">
        <cc:permits
           rdf:resource="http://web.resource.org/cc/Reproduction" />
        <cc:permits
           rdf:resource="http://web.resource.org/cc/Distribution" />
        <cc:permits
           rdf:resource="http://web.resource.org/cc/DerivativeWorks" />
      </cc:License>
    </rdf:RDF>
  </metadata>
  <g
     inkscape:label="Vrstva 1"
     inkscape:groupmode="layer"
     id="layer1"
     transform="translate(327.2077,354.5449)">
    <path
       transform="translate(-23.36705,-155.4154)"
       style="font-size:500px;font-style:normal;font-weight:normal;fill:black;fill-opacity:1;stroke:none;stroke-width:1px;stroke-linecap:butt;stroke-linejoin:miter;stroke-opacity:1;font-family:DejaVu Sans"
       d="M -87.532074,-182.03962 L -87.532074,-140.04743 C -100.22762,-147.0459 -112.96361,-152.29492 -125.74008,-155.7945 C -138.51697,-159.29361 -151.41572,-161.04328 -164.43637,-161.04353 C -193.57062,-161.04328 -216.1943,-151.80664 -232.30746,-133.33356 C -248.42083,-114.86006 -256.47746,-88.940491 -256.47739,-55.574776 C -256.47746,-22.208787 -248.42083,3.7107833 -232.30746,22.184013 C -216.1943,40.657361 -193.57062,49.894005 -164.43637,49.893974 C -151.41572,49.894005 -138.51697,48.144333 -125.74008,44.644951 C -112.96361,41.145642 -100.22762,35.896623 -87.532074,28.897881 L -87.532074,70.401787 C -100.06486,76.261166 -113.04499,80.655693 -126.4725,83.585381 C -139.90043,86.515062 -154.18264,87.979905 -169.31918,87.979912 C -210.49769,87.979905 -243.2125,75.040465 -267.46371,49.161552 C -291.71506,23.282704 -303.8407,-11.629371 -303.84067,-55.574776 C -303.8407,-100.17095 -291.59299,-135.24578 -267.0975,-160.79939 C -242.60215,-186.3525 -209.03285,-199.12918 -166.3895,-199.12946 C -152.55504,-199.12918 -139.04594,-197.70503 -125.86215,-194.857 C -112.67878,-192.00842 -99.902097,-187.73597 -87.532074,-182.03962 L -87.532074,-182.03962 z M -150.7645,80.899834 C -141.81286,90.990969 -135.13969,100.30899 -130.74496,108.85394 C -126.35064,117.39882 -124.15338,125.57752 -124.15317,133.39007 C -124.15338,147.87568 -129.03618,158.82131 -138.80161,166.22698 C -148.56741,173.63249 -163.05308,177.33528 -182.25864,177.33538 C -189.74576,177.33528 -197.02928,176.847 -204.10922,175.87054 C -211.18942,174.89388 -218.2288,173.42904 -225.22739,171.47601 L -225.22739,139.49358 C -219.69364,142.26045 -213.91566,144.25426 -207.8934,145.47503 C -201.8714,146.69567 -195.03547,147.30602 -187.38559,147.30608 C -177.78288,147.30602 -170.54005,145.35289 -165.65707,141.44671 C -160.77443,137.5404 -158.33303,131.84379 -158.33286,124.35686 C -158.33303,119.47401 -160.0827,113.49257 -163.58188,106.41253 C -167.08139,99.332432 -172.49317,90.828209 -179.81723,80.899834 L -150.7645,80.899834 z "
       id="text1870" />
  </g>
</svg>
