<?xml version="1.0" encoding="UTF-8" standalone="no"?>
<!-- Created with Inkscape (http://www.inkscape.org/) -->
<svg
   xmlns:dc="http://purl.org/dc/elements/1.1/"
   xmlns:cc="http://web.resource.org/cc/"
   xmlns:rdf="http://www.w3.org/1999/02/22-rdf-syntax-ns#"
   xmlns:svg="http://www.w3.org/2000/svg"
   xmlns="http://www.w3.org/2000/svg"
   xmlns:sodipodi="http://sodipodi.sourceforge.net/DTD/sodipodi-0.dtd"
   xmlns:inkscape="http://www.inkscape.org/namespaces/inkscape"
   width="390.625"
   height="483.88672"
   id="svg2"
   inkscape:label="Pozadí"
   sodipodi:version="0.32"
   inkscape:version="0.44.1"
   sodipodi:docbase="D:\Pracovní data\Martin Kozák\Projekty\Aktivní\Jazyky na Wikipedii CS\Znaky IPA\Křivky"
   sodipodi:docname="IPA Unicode 0x2A9.svg"
   version="1.0">
  <defs
     id="defs1876" />
  <sodipodi:namedview
     id="base"
     pagecolor="#ffffff"
     bordercolor="#666666"
     borderopacity="1.0"
     inkscape:pageopacity="0.0"
     inkscape:pageshadow="2"
     inkscape:zoom="0.35"
     inkscape:cx="375"
     inkscape:cy="177.14286"
     inkscape:document-units="px"
     inkscape:current-layer="layer1"
     inkscape:window-width="1280"
     inkscape:window-height="968"
     inkscape:window-x="-4"
     inkscape:window-y="-4" />
  <metadata
     id="metadata1879">
    <rdf:RDF>
      <cc:Work
         rdf:about="">
        <dc:format>image/svg+xml</dc:format>
        <dc:type
           rdf:resource="http://purl.org/dc/dcmitype/StillImage" />
        <cc:license
           rdf:resource="http://web.resource.org/cc/PublicDomain" />
      </cc:Work>
      <cc:License
         rdf:about="http://web.resource.org/cc/PublicDomain">
        <cc:permits
           rdf:resource="http://web.resource.org/cc/Reproduction" />
        <cc:permits
           rdf:resource="http://web.resource.org/cc/Distribution" />
        <cc:permits
           rdf:resource="http://web.resource.org/cc/DerivativeWorks" />
      </cc:License>
    </rdf:RDF>
  </metadata>
  <g
     inkscape:label="Vrstva 1"
     inkscape:groupmode="layer"
     id="layer1"
     transform="translate(343.321,454.3984)">
    <path
       transform="translate(-23.36705,-155.4154)"
       style="font-size:500px;font-style:normal;font-weight:normal;fill:black;fill-opacity:1;stroke:none;stroke-width:1px;stroke-linecap:butt;stroke-linejoin:miter;stroke-opacity:1;font-family:DejaVu Sans"
       d="M 70.671051,-84.139229 L 70.671051,85.782646 C 70.670649,120.61334 63.997479,145.84117 50.65152,161.46624 C 37.467557,177.09114 16.145964,184.90364 -13.313324,184.90374 L -75.325043,184.90374 L -75.325043,146.8178 L -18.440277,146.8178 C -1.3507634,146.81774 10.286595,142.91149 16.471832,135.09905 C 22.656374,127.12375 25.748819,110.68496 25.749176,85.782646 L 25.749176,-82.674385 C 25.748819,-108.5531 20.703251,-127.92157 10.612457,-140.77985 C 0.52097949,-153.63769 -14.615724,-160.06672 -34.797699,-160.06696 C -59.049273,-160.06672 -78.173603,-152.33561 -92.170746,-136.8736 C -106.16837,-121.41116 -113.16706,-100.33371 -113.16684,-73.641182 L -113.16684,80.899834 L -158.33286,80.899834 L -158.33286,-157.62556 L -231.81918,-157.62556 L -231.81918,80.899834 L -276.9852,80.899834 L -276.9852,-157.62556 L -319.95395,-157.62556 L -319.95395,-192.53767 L -276.9852,-192.53767 L -276.9852,-211.58064 C -276.98525,-242.01651 -269.90518,-264.1519 -255.74496,-277.98689 C -241.5849,-291.98391 -219.12398,-298.9826 -188.36215,-298.98298 L -145.88168,-298.98298 L -145.88168,-261.62946 L -188.85043,-261.62946 C -204.96384,-261.62912 -216.1943,-258.37392 -222.54184,-251.86384 C -228.72684,-245.3531 -231.81928,-233.63436 -231.81918,-216.70759 L -231.81918,-192.53767 L -158.33286,-192.53767 L -157.84457,-192.53767 L -113.16684,-192.53767 L -113.16684,-150.0572 C -102.42488,-166.49575 -89.810961,-178.78415 -75.325043,-186.92243 C -60.676876,-195.06018 -43.83119,-199.12918 -24.787933,-199.12946 C 6.624489,-199.12918 30.387486,-189.44495 46.501129,-170.07673 C 62.614016,-150.54525 70.670649,-121.89944 70.671051,-84.139229 L 70.671051,-84.139229 z "
       id="text1870" />
  </g>
</svg>
