<?xml version="1.0" encoding="UTF-8" standalone="no"?>
<!-- Created with Inkscape (http://www.inkscape.org/) -->
<svg
   xmlns:dc="http://purl.org/dc/elements/1.1/"
   xmlns:cc="http://web.resource.org/cc/"
   xmlns:rdf="http://www.w3.org/1999/02/22-rdf-syntax-ns#"
   xmlns:svg="http://www.w3.org/2000/svg"
   xmlns="http://www.w3.org/2000/svg"
   xmlns:sodipodi="http://sodipodi.sourceforge.net/DTD/sodipodi-0.dtd"
   xmlns:inkscape="http://www.inkscape.org/namespaces/inkscape"
   width="243.4082"
   height="483.88672"
   id="svg2"
   inkscape:label="Pozadí"
   sodipodi:version="0.32"
   inkscape:version="0.44.1"
   sodipodi:docbase="D:\Pracovní data\Martin Kozák\Projekty\Aktivní\Jazyky na Wikipedii CS\Znaky IPA\Křivky"
   sodipodi:docname="IPA Unicode 0x286.svg"
   version="1.0">
  <defs
     id="defs1876" />
  <sodipodi:namedview
     id="base"
     pagecolor="#ffffff"
     bordercolor="#666666"
     borderopacity="1.0"
     inkscape:pageopacity="0.0"
     inkscape:pageshadow="2"
     inkscape:zoom="0.35"
     inkscape:cx="375"
     inkscape:cy="62.857143"
     inkscape:document-units="px"
     inkscape:current-layer="layer1"
     inkscape:window-width="1280"
     inkscape:window-height="968"
     inkscape:window-x="-4"
     inkscape:window-y="-4" />
  <metadata
     id="metadata1879">
    <rdf:RDF>
      <cc:Work
         rdf:about="">
        <dc:format>image/svg+xml</dc:format>
        <dc:type
           rdf:resource="http://purl.org/dc/dcmitype/StillImage" />
        <cc:license
           rdf:resource="http://web.resource.org/cc/PublicDomain" />
      </cc:Work>
      <cc:License
         rdf:about="http://web.resource.org/cc/PublicDomain">
        <cc:permits
           rdf:resource="http://web.resource.org/cc/Reproduction" />
        <cc:permits
           rdf:resource="http://web.resource.org/cc/Distribution" />
        <cc:permits
           rdf:resource="http://web.resource.org/cc/DerivativeWorks" />
      </cc:License>
    </rdf:RDF>
  </metadata>
  <g
     inkscape:label="Vrstva 1"
     inkscape:groupmode="layer"
     id="layer1"
     transform="translate(420.7136,454.3984)">
    <path
       transform="translate(-23.36705,-155.4154)"
       style="font-size:500px;font-style:normal;font-weight:normal;fill:black;fill-opacity:1;stroke:none;stroke-width:1px;stroke-linecap:butt;stroke-linejoin:miter;stroke-opacity:1;font-family:DejaVu Sans"
       d="M -287.48325,118.49749 L -331.18442,118.49749 C -350.55289,118.49745 -359.99298,122.64784 -359.50473,130.94866 C -359.01642,141.52803 -348.68115,146.81774 -328.49887,146.8178 C -310.59525,146.81774 -298.95789,142.91149 -293.58676,135.09905 C -290.65711,131.35551 -288.62261,125.82166 -287.48325,118.49749 L -287.48325,118.49749 z M -239.38754,80.899834 L -195.19809,80.899834 L -195.19809,118.74163 L -241.82895,118.74163 C -244.75872,136.80798 -250.53671,151.0495 -259.16293,161.46624 C -272.50935,177.09114 -293.91232,184.90364 -323.37192,184.90374 C -372.68828,184.90364 -397.34646,167.32553 -397.34653,132.16936 C -397.34646,97.98966 -375.37383,80.899834 -331.42856,80.899834 L -285.04184,80.899834 L -285.04184,-211.58064 C -285.04189,-240.87719 -277.96181,-263.01258 -263.80161,-277.98689 C -250.61809,-291.98391 -228.15718,-298.9826 -196.41879,-298.98298 L -153.93832,-298.98298 L -153.93832,-261.62946 L -196.90707,-261.62946 C -213.18323,-261.62912 -224.33231,-258.37392 -230.35434,-251.86384 C -236.70209,-245.19034 -239.87592,-233.4716 -239.87582,-216.70759 L -239.38754,80.899834 z "
       id="text1870" />
  </g>
</svg>
