<?xml version="1.0" encoding="UTF-8" standalone="no"?>
<!-- Created with Inkscape (http://www.inkscape.org/) -->

<svg
   xmlns:dc="http://purl.org/dc/elements/1.1/"
   xmlns:cc="http://creativecommons.org/ns#"
   xmlns:rdf="http://www.w3.org/1999/02/22-rdf-syntax-ns#"
   xmlns:svg="http://www.w3.org/2000/svg"
   xmlns="http://www.w3.org/2000/svg"
   xmlns:sodipodi="http://sodipodi.sourceforge.net/DTD/sodipodi-0.dtd"
   xmlns:inkscape="http://www.inkscape.org/namespaces/inkscape"
   width="270.50781"
   height="287.35352"
   id="svg2"
   inkscape:label="Pozadí"
   sodipodi:version="0.32"
   inkscape:version="0.48.2 r9819"
   sodipodi:docname="unicode-insert_0x025e.svg"
   version="1.0"
   inkscape:export-filename="/home/jspitzm/lyx/lyx-devel/lib/images/ipa/unicode-insert_0x025e.png"
   inkscape:export-xdpi="6.2640615"
   inkscape:export-ydpi="6.2640615">
  <defs
     id="defs1876" />
  <sodipodi:namedview
     id="base"
     pagecolor="#ffffff"
     bordercolor="#666666"
     borderopacity="1.0"
     inkscape:pageopacity="0.0"
     inkscape:pageshadow="2"
     inkscape:zoom="0.35"
     inkscape:cx="375"
     inkscape:cy="62.857143"
     inkscape:document-units="px"
     inkscape:current-layer="layer1"
     inkscape:window-width="1280"
     inkscape:window-height="968"
     inkscape:window-x="0"
     inkscape:window-y="0"
     showgrid="false"
     inkscape:window-maximized="0" />
  <metadata
     id="metadata1879">
    <rdf:RDF>
      <cc:Work
         rdf:about="">
        <dc:format>image/svg+xml</dc:format>
        <dc:type
           rdf:resource="http://purl.org/dc/dcmitype/StillImage" />
        <cc:license
           rdf:resource="http://web.resource.org/cc/PublicDomain" />
        <dc:title></dc:title>
      </cc:Work>
      <cc:License
         rdf:about="http://web.resource.org/cc/PublicDomain">
        <cc:permits
           rdf:resource="http://web.resource.org/cc/Reproduction" />
        <cc:permits
           rdf:resource="http://web.resource.org/cc/Distribution" />
        <cc:permits
           rdf:resource="http://web.resource.org/cc/DerivativeWorks" />
      </cc:License>
    </rdf:RDF>
  </metadata>
  <g
     inkscape:label="Vrstva 1"
     inkscape:groupmode="layer"
     id="layer1"
     transform="translate(327.2077,354.789)">
    <path
       transform="translate(-23.36705,-155.4154)"
       style="font-size:500px;font-style:normal;font-weight:normal;fill:black;fill-opacity:1;stroke:none;stroke-width:1px;stroke-linecap:butt;stroke-linejoin:miter;stroke-opacity:1;font-family:DejaVu Sans"
       d="M -147.59067,-160.3111 C -188.44368,-160.31086 -216.68258,-151.35905 -232.30746,-133.45564 C -248.42083,-114.90075 -256.47746,-88.940491 -256.47739,-55.574776 C -256.47746,-21.720506 -248.42083,4.2397541 -232.30746,22.306084 C -215.3805,41.186332 -189.82714,50.626426 -155.64731,50.626396 C -131.07069,50.626426 -111.86498,46.069139 -98.030121,36.954521 C -84.358493,27.839991 -77.522562,15.958492 -77.522308,1.3099899 C -77.522562,-13.012833 -83.870212,-24.731571 -96.565277,-33.84626 C -108.28425,-42.146918 -125.2927,-46.297305 -147.59067,-46.297432 L -183.72348,-46.297432 L -183.72348,-83.406807 L -145.88168,-83.406807 C -127.00168,-83.406643 -112.10912,-86.987368 -101.20395,-94.148994 C -90.136482,-101.47303 -84.602633,-110.83175 -84.602386,-122.22517 C -84.602633,-132.64162 -90.299242,-141.59343 -101.69223,-149.08064 C -112.92292,-156.56738 -128.22238,-160.31086 -147.59067,-160.3111 L -147.59067,-160.3111 z M -143.92856,-199.3736 C -112.02774,-199.37332 -86.881277,-193.02567 -68.489105,-180.33064 C -49.934699,-167.47231 -40.657365,-149.56869 -40.657074,-126.6197 C -40.657365,-111.48279 -45.540172,-98.706107 -55.305511,-88.289619 C -65.071403,-77.710034 -79.068785,-70.467202 -97.297699,-66.561104 C -77.115662,-62.65471 -61.409297,-54.760838 -50.178558,-42.879463 C -38.948382,-30.997841 -33.333153,-16.268038 -33.332855,1.3099899 C -33.333153,29.467593 -43.83119,50.951947 -64.826996,65.763115 C -85.823335,80.574313 -115.68984,87.979905 -154.42661,87.979912 C -205.5335,87.979905 -243.2125,75.040465 -267.46371,49.161552 C -291.71506,23.282704 -303.8407,-11.629371 -303.84067,-55.574776 C -303.8407,-100.17095 -291.5523,-135.24578 -266.97543,-160.79939 C -242.3987,-186.51526 -201.38312,-199.37332 -143.92856,-199.3736 L -143.92856,-199.3736 z "
       id="text1870" />
  </g>
</svg>
