<?xml version="1.0" encoding="UTF-8" standalone="no"?>
<!-- Created with Inkscape (http://www.inkscape.org/) -->

<svg
   xmlns:dc="http://purl.org/dc/elements/1.1/"
   xmlns:cc="http://creativecommons.org/ns#"
   xmlns:rdf="http://www.w3.org/1999/02/22-rdf-syntax-ns#"
   xmlns:svg="http://www.w3.org/2000/svg"
   xmlns="http://www.w3.org/2000/svg"
   xmlns:sodipodi="http://sodipodi.sourceforge.net/DTD/sodipodi-0.dtd"
   xmlns:inkscape="http://www.inkscape.org/namespaces/inkscape"
   width="241.69922"
   height="287.10938"
   id="svg2"
   inkscape:label="Pozadí"
   sodipodi:version="0.32"
   inkscape:version="0.48.2 r9819"
   sodipodi:docname="0x0262.svg"
   version="1.0"
   inkscape:export-filename="/home/jspitzm/lyx/lyx-devel/lib/images/ipa/unicode-insert_0x0262.png"
   inkscape:export-xdpi="6.2693877"
   inkscape:export-ydpi="6.2693877">
  <defs
     id="defs1876" />
  <sodipodi:namedview
     id="base"
     pagecolor="#ffffff"
     bordercolor="#666666"
     borderopacity="1.0"
     inkscape:pageopacity="0.0"
     inkscape:pageshadow="2"
     inkscape:zoom="0.35"
     inkscape:cx="375"
     inkscape:cy="62.857143"
     inkscape:document-units="px"
     inkscape:current-layer="layer1"
     inkscape:window-width="1280"
     inkscape:window-height="968"
     inkscape:window-x="0"
     inkscape:window-y="0"
     showgrid="false"
     inkscape:window-maximized="0" />
  <metadata
     id="metadata1879">
    <rdf:RDF>
      <cc:Work
         rdf:about="">
        <dc:format>image/svg+xml</dc:format>
        <dc:type
           rdf:resource="http://purl.org/dc/dcmitype/StillImage" />
        <cc:license
           rdf:resource="http://web.resource.org/cc/PublicDomain" />
        <dc:title></dc:title>
      </cc:Work>
      <cc:License
         rdf:about="http://web.resource.org/cc/PublicDomain">
        <cc:permits
           rdf:resource="http://web.resource.org/cc/Reproduction" />
        <cc:permits
           rdf:resource="http://web.resource.org/cc/Distribution" />
        <cc:permits
           rdf:resource="http://web.resource.org/cc/DerivativeWorks" />
      </cc:License>
    </rdf:RDF>
  </metadata>
  <g
     inkscape:label="Vrstva 1"
     inkscape:groupmode="layer"
     id="layer1"
     transform="translate(327.2077,354.5449)">
    <path
       transform="translate(-23.36705,-155.4154)"
       style="font-size:500px;font-style:normal;font-weight:normal;fill:black;fill-opacity:1;stroke:none;stroke-width:1px;stroke-linecap:butt;stroke-linejoin:miter;stroke-opacity:1;font-family:DejaVu Sans"
       d="M -102.66879,42.325615 L -102.66879,-24.324776 L -140.51059,-24.324776 L -140.51059,-58.504463 L -62.141449,-58.504463 L -62.141449,70.401787 C -78.580504,76.261166 -95.54826,80.655693 -113.04477,83.585381 C -130.54171,86.515062 -149.29983,87.979905 -169.31918,87.979912 C -210.49769,87.979905 -243.2125,75.040465 -267.46371,49.161552 C -291.71506,23.282704 -303.8407,-11.629371 -303.84067,-55.574776 C -303.8407,-100.17095 -291.59299,-135.24578 -267.0975,-160.79939 C -242.60215,-186.3525 -209.03285,-199.12918 -166.3895,-199.12946 C -149.46259,-199.12918 -132.98312,-196.89123 -116.95102,-192.4156 C -100.91935,-187.93942 -85.335054,-181.22556 -70.19809,-172.27399 L -70.19809,-130.77009 C -85.660575,-140.86101 -101.20418,-148.42936 -116.82895,-153.47517 C -132.45415,-158.5205 -148.32327,-161.04328 -164.43637,-161.04353 C -193.57062,-161.04328 -216.1943,-151.80664 -232.30746,-133.33356 C -248.42083,-114.86006 -256.47746,-88.940491 -256.47739,-55.574776 C -256.47746,-22.208787 -248.42083,3.7107833 -232.30746,22.184013 C -216.1943,40.657361 -193.57062,49.894005 -164.43637,49.893974 C -151.57848,49.894005 -140.10388,49.283654 -130.01254,48.06292 C -119.92161,46.842251 -110.80703,44.929818 -102.66879,42.325615 L -102.66879,42.325615 z "
       id="text1870" />
  </g>
</svg>
