<?xml version="1.0" encoding="UTF-8" standalone="no"?>
<!-- Created with Inkscape (http://www.inkscape.org/) -->
<svg
   xmlns:dc="http://purl.org/dc/elements/1.1/"
   xmlns:cc="http://web.resource.org/cc/"
   xmlns:rdf="http://www.w3.org/1999/02/22-rdf-syntax-ns#"
   xmlns:svg="http://www.w3.org/2000/svg"
   xmlns="http://www.w3.org/2000/svg"
   xmlns:sodipodi="http://sodipodi.sourceforge.net/DTD/sodipodi-0.dtd"
   xmlns:inkscape="http://www.inkscape.org/namespaces/inkscape"
   width="345.45898"
   height="483.39844"
   id="svg2"
   inkscape:label="Pozadí"
   sodipodi:version="0.32"
   inkscape:version="0.44.1"
   sodipodi:docbase="D:\Pracovní data\Martin Kozák\Projekty\Aktivní\Jazyky na Wikipedii CS\Znaky IPA\Křivky"
   sodipodi:docname="IPA Unicode 0x2A0.svg"
   version="1.0">
  <defs
     id="defs1876" />
  <sodipodi:namedview
     id="base"
     pagecolor="#ffffff"
     bordercolor="#666666"
     borderopacity="1.0"
     inkscape:pageopacity="0.0"
     inkscape:pageshadow="2"
     inkscape:zoom="0.35"
     inkscape:cx="375"
     inkscape:cy="177.14286"
     inkscape:document-units="px"
     inkscape:current-layer="layer1"
     inkscape:window-width="1280"
     inkscape:window-height="968"
     inkscape:window-x="-4"
     inkscape:window-y="-4" />
  <metadata
     id="metadata1879">
    <rdf:RDF>
      <cc:Work
         rdf:about="">
        <dc:format>image/svg+xml</dc:format>
        <dc:type
           rdf:resource="http://purl.org/dc/dcmitype/StillImage" />
        <cc:license
           rdf:resource="http://web.resource.org/cc/PublicDomain" />
      </cc:Work>
      <cc:License
         rdf:about="http://web.resource.org/cc/PublicDomain">
        <cc:permits
           rdf:resource="http://web.resource.org/cc/Reproduction" />
        <cc:permits
           rdf:resource="http://web.resource.org/cc/Distribution" />
        <cc:permits
           rdf:resource="http://web.resource.org/cc/DerivativeWorks" />
      </cc:License>
    </rdf:RDF>
  </metadata>
  <g
     inkscape:label="Vrstva 1"
     inkscape:groupmode="layer"
     id="layer1"
     transform="translate(327.2077,453.9101)">
    <path
       transform="translate(-23.36705,-155.4154)"
       style="font-size:500px;font-style:normal;font-weight:normal;fill:black;fill-opacity:1;stroke:none;stroke-width:1px;stroke-linecap:butt;stroke-linejoin:miter;stroke-opacity:1;font-family:DejaVu Sans"
       d="M -257.45395,-55.574776 C -257.45402,-22.534308 -250.65878,3.3852628 -237.06821,22.184013 C -223.47782,40.982881 -204.80108,50.382286 -181.03793,50.382256 C -157.27509,50.382286 -138.55766,40.982881 -124.88559,22.184013 C -111.21393,3.3852628 -104.378,-22.534308 -104.37778,-55.574776 C -104.378,-88.614971 -111.21393,-114.53454 -124.88559,-133.33356 C -138.55766,-152.13216 -157.27509,-161.53156 -181.03793,-161.53181 C -204.80108,-161.53156 -223.47782,-152.13216 -237.06821,-133.33356 C -250.65878,-114.53454 -257.45402,-88.614971 -257.45395,-55.574776 L -257.45395,-55.574776 z M -104.37778,39.884209 C -113.8181,56.160275 -125.74029,68.245224 -140.14438,76.139091 C -154.54885,84.032969 -171.84213,87.979905 -192.02426,87.979912 C -225.06473,87.979905 -251.96086,74.796324 -272.71274,48.429131 C -293.46473,22.062002 -303.8407,-12.605932 -303.84067,-55.574776 C -303.8407,-98.543346 -293.46473,-133.21128 -272.71274,-159.57868 C -251.96086,-185.9456 -225.06473,-199.12918 -192.02426,-199.12946 C -171.84213,-199.12918 -154.54885,-195.18225 -140.14438,-187.28864 C -125.74029,-179.3945 -113.8181,-167.30955 -104.37778,-151.03376 L -104.37778,-199.3736 C -104.378,-234.20402 -97.745524,-259.43186 -84.480316,-275.0572 C -71.215602,-290.68183 -49.853319,-298.49432 -20.393402,-298.4947 L 41.618317,-298.4947 L 41.618317,-260.40876 L -14.778168,-260.40876 C -31.868311,-260.40842 -43.546359,-256.46148 -49.812347,-248.56794 C -56.078899,-240.67374 -59.212034,-224.27564 -59.211761,-199.3736 L -59.211761,184.90374 L -104.37778,184.90374 L -104.37778,39.884209 z "
       id="text1870" />
  </g>
</svg>
