<?xml version="1.0" encoding="UTF-8" standalone="no"?>
<!-- Created with Inkscape (http://www.inkscape.org/) -->

<svg
   xmlns:dc="http://purl.org/dc/elements/1.1/"
   xmlns:cc="http://creativecommons.org/ns#"
   xmlns:rdf="http://www.w3.org/1999/02/22-rdf-syntax-ns#"
   xmlns:svg="http://www.w3.org/2000/svg"
   xmlns="http://www.w3.org/2000/svg"
   xmlns:sodipodi="http://sodipodi.sourceforge.net/DTD/sodipodi-0.dtd"
   xmlns:inkscape="http://www.inkscape.org/namespaces/inkscape"
   width="244.38477"
   height="287.10938"
   id="svg2"
   inkscape:label="Pozadí"
   sodipodi:version="0.32"
   inkscape:version="0.48.2 r9819"
   sodipodi:docname="unicode-insert_0x0252.svg"
   version="1.0"
   inkscape:export-filename="/home/jspitzm/lyx/lyx-devel/lib/images/ipa/unicode-insert_0x0252.png"
   inkscape:export-xdpi="6.2693877"
   inkscape:export-ydpi="6.2693877">
  <defs
     id="defs1876" />
  <sodipodi:namedview
     id="base"
     pagecolor="#ffffff"
     bordercolor="#666666"
     borderopacity="1.0"
     inkscape:pageopacity="0.0"
     inkscape:pageshadow="2"
     inkscape:zoom="0.35"
     inkscape:cx="375"
     inkscape:cy="62.857143"
     inkscape:document-units="px"
     inkscape:current-layer="layer1"
     inkscape:window-width="1280"
     inkscape:window-height="968"
     inkscape:window-x="0"
     inkscape:window-y="0"
     showgrid="false"
     inkscape:window-maximized="0" />
  <metadata
     id="metadata1879">
    <rdf:RDF>
      <cc:Work
         rdf:about="">
        <dc:format>image/svg+xml</dc:format>
        <dc:type
           rdf:resource="http://purl.org/dc/dcmitype/StillImage" />
        <cc:license
           rdf:resource="http://web.resource.org/cc/PublicDomain" />
        <dc:title></dc:title>
      </cc:Work>
      <cc:License
         rdf:about="http://web.resource.org/cc/PublicDomain">
        <cc:permits
           rdf:resource="http://web.resource.org/cc/Reproduction" />
        <cc:permits
           rdf:resource="http://web.resource.org/cc/Distribution" />
        <cc:permits
           rdf:resource="http://web.resource.org/cc/DerivativeWorks" />
      </cc:License>
    </rdf:RDF>
  </metadata>
  <g
     inkscape:label="Vrstva 1"
     inkscape:groupmode="layer"
     id="layer1"
     transform="translate(309.3855,354.5449)">
    <path
       transform="translate(-23.36705,-155.4154)"
       style="font-size:500px;font-style:normal;font-weight:normal;fill:black;fill-opacity:1;stroke:none;stroke-width:1px;stroke-linecap:butt;stroke-linejoin:miter;stroke-opacity:1;font-family:DejaVu Sans"
       d="M -88.020355,-55.574776 C -88.020599,-88.614971 -94.815839,-114.53454 -108.4061,-133.33356 C -121.9968,-152.13216 -140.67354,-161.53156 -164.43637,-161.53181 C -188.19953,-161.53156 -206.91696,-152.13216 -220.58871,-133.33356 C -234.26069,-114.53454 -241.09662,-88.614971 -241.09653,-55.574776 C -241.09662,-22.534308 -234.26069,3.3852628 -220.58871,22.184013 C -206.91696,40.982881 -188.19953,50.382286 -164.43637,50.382256 C -140.67354,50.382286 -121.9968,40.982881 -108.4061,22.184013 C -94.815839,3.3852628 -88.020599,-22.534308 -88.020355,-55.574776 L -88.020355,-55.574776 z M -241.09653,-151.03376 C -231.65652,-167.30955 -219.73433,-179.3945 -205.32993,-187.28864 C -190.92577,-195.18225 -173.63249,-199.12918 -153.45004,-199.12946 C -120.40989,-199.12918 -93.513757,-185.9456 -72.761566,-159.57868 C -52.009892,-133.21128 -41.633926,-98.543346 -41.633636,-55.574776 C -41.633926,-12.605932 -52.009892,22.062002 -72.761566,48.429131 C -93.513757,74.796324 -120.40989,87.979905 -153.45004,87.979912 C -173.63249,87.979905 -190.92577,84.032969 -205.32993,76.139091 C -219.73433,68.245224 -231.65652,56.160275 -241.09653,39.884209 L -241.09653,81.388115 L -286.0184,81.388115 L -286.0184,-192.04939 L -241.09653,-192.04939 L -241.09653,-151.03376 z "
       id="text1870" />
  </g>
</svg>
