<?xml version="1.0" encoding="UTF-8" standalone="no"?>
<!-- Created with Inkscape (http://www.inkscape.org/) -->

<svg
   xmlns:dc="http://purl.org/dc/elements/1.1/"
   xmlns:cc="http://creativecommons.org/ns#"
   xmlns:rdf="http://www.w3.org/1999/02/22-rdf-syntax-ns#"
   xmlns:svg="http://www.w3.org/2000/svg"
   xmlns="http://www.w3.org/2000/svg"
   xmlns:sodipodi="http://sodipodi.sourceforge.net/DTD/sodipodi-0.dtd"
   xmlns:inkscape="http://www.inkscape.org/namespaces/inkscape"
   width="225.83008"
   height="273.92578"
   id="svg2"
   inkscape:label="Pozadí"
   sodipodi:version="0.32"
   inkscape:version="0.48.2 r9819"
   sodipodi:docname="0x028b.svg"
   version="1.0"
   inkscape:export-filename="/home/jspitzm/lyx/lyx-devel/lib/images/ipa/unicode-insert_0x028b.png"
   inkscape:export-xdpi="6.5711226"
   inkscape:export-ydpi="6.5711226">
  <defs
     id="defs1876" />
  <sodipodi:namedview
     id="base"
     pagecolor="#ffffff"
     bordercolor="#666666"
     borderopacity="1.0"
     inkscape:pageopacity="0.0"
     inkscape:pageshadow="2"
     inkscape:zoom="0.35"
     inkscape:cx="375"
     inkscape:cy="62.857143"
     inkscape:document-units="px"
     inkscape:current-layer="layer1"
     inkscape:window-width="1280"
     inkscape:window-height="968"
     inkscape:window-x="0"
     inkscape:window-y="0"
     showgrid="false"
     inkscape:window-maximized="0" />
  <metadata
     id="metadata1879">
    <rdf:RDF>
      <cc:Work
         rdf:about="">
        <dc:format>image/svg+xml</dc:format>
        <dc:type
           rdf:resource="http://purl.org/dc/dcmitype/StillImage" />
        <cc:license
           rdf:resource="http://web.resource.org/cc/PublicDomain" />
        <dc:title></dc:title>
      </cc:Work>
      <cc:License
         rdf:about="http://web.resource.org/cc/PublicDomain">
        <cc:permits
           rdf:resource="http://web.resource.org/cc/Reproduction" />
        <cc:permits
           rdf:resource="http://web.resource.org/cc/Distribution" />
        <cc:permits
           rdf:resource="http://web.resource.org/cc/DerivativeWorks" />
      </cc:License>
    </rdf:RDF>
  </metadata>
  <g
     inkscape:label="Vrstva 1"
     inkscape:groupmode="layer"
     id="layer1"
     transform="translate(307.6765,348.4413)">
    <path
       transform="translate(-23.36705,-155.4154)"
       style="font-size:500px;font-style:normal;font-weight:normal;fill:black;fill-opacity:1;stroke:none;stroke-width:1px;stroke-linecap:butt;stroke-linejoin:miter;stroke-opacity:1;font-family:DejaVu Sans"
       d="M -58.967621,-47.762276 C -59.456174,-9.0252066 -71.012152,21.980622 -93.63559,45.255302 C -116.74778,69.018335 -146.61429,80.899834 -183.2352,80.899834 L -200.32504,80.899834 C -229.78478,80.899834 -251.18775,73.087341 -264.53403,57.462334 C -277.71767,41.837373 -284.30946,16.609533 -284.30942,-18.22126 L -284.30942,-192.53767 L -239.38754,-192.53767 L -239.38754,-18.22126 C -239.38763,6.6811579 -236.29519,23.119944 -230.1102,31.095146 C -223.59989,39.233209 -211.96253,43.139455 -195.19809,42.813896 L -182.74692,42.569756 C -159.30959,42.569794 -140.4294,34.675922 -126.10629,18.888115 C -111.7836,2.9376721 -104.62214,-17.89564 -104.62192,-43.611885 C -104.62214,-81.372139 -110.64427,-108.47172 -122.68832,-124.91071 C -134.57003,-141.02377 -149.46259,-151.52181 -167.36606,-156.40485 L -167.36606,-193.02595 C -150.43916,-191.72359 -134.81417,-187.1663 -120.49106,-179.35407 C -93.798588,-164.86815 -76.05772,-143.54656 -67.268402,-115.38923 C -61.409297,-96.671603 -58.642373,-74.129308 -58.967621,-47.762276 L -58.967621,-47.762276 z "
       id="text1870" />
  </g>
</svg>
