<?xml version="1.0" encoding="UTF-8" standalone="no"?>
<!-- Created with Inkscape (http://www.inkscape.org/) -->
<svg
   xmlns:dc="http://purl.org/dc/elements/1.1/"
   xmlns:cc="http://web.resource.org/cc/"
   xmlns:rdf="http://www.w3.org/1999/02/22-rdf-syntax-ns#"
   xmlns:svg="http://www.w3.org/2000/svg"
   xmlns="http://www.w3.org/2000/svg"
   xmlns:sodipodi="http://sodipodi.sourceforge.net/DTD/sodipodi-0.dtd"
   xmlns:inkscape="http://www.inkscape.org/namespaces/inkscape"
   width="348.14453"
   height="386.23047"
   id="svg2"
   inkscape:label="Pozadí"
   sodipodi:version="0.32"
   inkscape:version="0.44.1"
   sodipodi:docbase="D:\Pracovní data\Martin Kozák\Projekty\Aktivní\Jazyky na Wikipedii CS\Znaky IPA\Křivky"
   sodipodi:docname="IPA Unicode 0x2A8.svg"
   version="1.0">
  <defs
     id="defs1876" />
  <sodipodi:namedview
     id="base"
     pagecolor="#ffffff"
     bordercolor="#666666"
     borderopacity="1.0"
     inkscape:pageopacity="0.0"
     inkscape:pageshadow="2"
     inkscape:zoom="0.35"
     inkscape:cx="375"
     inkscape:cy="177.14286"
     inkscape:document-units="px"
     inkscape:current-layer="layer1"
     inkscape:window-width="1280"
     inkscape:window-height="968"
     inkscape:window-x="-4"
     inkscape:window-y="-4" />
  <metadata
     id="metadata1879">
    <rdf:RDF>
      <cc:Work
         rdf:about="">
        <dc:format>image/svg+xml</dc:format>
        <dc:type
           rdf:resource="http://purl.org/dc/dcmitype/StillImage" />
        <cc:license
           rdf:resource="http://web.resource.org/cc/PublicDomain" />
      </cc:Work>
      <cc:License
         rdf:about="http://web.resource.org/cc/PublicDomain">
        <cc:permits
           rdf:resource="http://web.resource.org/cc/Reproduction" />
        <cc:permits
           rdf:resource="http://web.resource.org/cc/Distribution" />
        <cc:permits
           rdf:resource="http://web.resource.org/cc/DerivativeWorks" />
      </cc:License>
    </rdf:RDF>
  </metadata>
  <g
     inkscape:label="Vrstva 1"
     inkscape:groupmode="layer"
     id="layer1"
     transform="translate(341.3679,425.5898)">
    <path
       transform="translate(-23.36705,-155.4154)"
       style="font-size:500px;font-style:normal;font-weight:normal;fill:black;fill-opacity:1;stroke:none;stroke-width:1px;stroke-linecap:butt;stroke-linejoin:miter;stroke-opacity:1;font-family:DejaVu Sans"
       d="M -239.87582,-270.17439 L -239.87582,-192.53767 L -147.34653,-192.53767 L -147.34653,-162.75251 C -123.09543,-187.00354 -90.217862,-199.12918 -48.713715,-199.12946 C -34.879376,-199.12918 -21.370275,-197.74572 -8.1863708,-194.97907 C 4.9968865,-192.04911 17.773566,-187.73597 30.143707,-182.03962 L 30.143707,-140.04743 C 17.448046,-147.0459 4.671366,-152.33561 -8.1863708,-155.91657 C -20.881994,-159.3343 -33.740054,-161.04328 -46.76059,-161.04353 C -75.89496,-161.04328 -98.518635,-151.84733 -114.63168,-133.45564 C -130.74517,-114.90075 -138.8018,-88.940491 -138.80161,-55.574776 C -138.8018,-22.208787 -130.74517,3.7514733 -114.63168,22.306084 L -112.67856,24.503349 C -99.820717,-3.3285977 -76.627381,-17.244599 -43.09848,-17.244698 C 5.5665474,-17.244599 29.980585,2.7749118 30.143707,42.813896 C 30.143346,62.019644 21.923953,74.959084 5.4855042,81.632256 C -6.7218518,86.515062 -25.602041,88.956466 -51.155121,88.956474 C -64.827262,88.956466 -77.603942,87.491624 -89.485199,84.561943 C -89.810961,92.699952 -89.973722,102.95385 -89.97348,115.32366 L -127.327,116.05608 C -127.3272,103.19799 -126.83892,91.47925 -125.86215,80.899834 L -193.48911,80.899834 C -228.15718,80.899834 -252.08293,74.389424 -265.26645,61.368584 C -278.4501,48.510543 -285.04189,24.991686 -285.04184,-9.1880569 L -285.04184,-157.62556 L -318.00082,-157.62556 L -318.00082,-192.53767 L -285.04184,-192.53767 L -285.04184,-270.17439 L -239.87582,-270.17439 z M -83.137543,44.034599 C -72.395614,47.940882 -60.269975,49.894005 -46.76059,49.893974 C -31.29865,49.894005 -21.858555,49.324344 -18.440277,48.18499 C -13.395022,46.39466 -10.953618,42.325654 -11.116058,35.977959 C -11.279139,23.770985 -22.021316,17.667475 -43.342621,17.667412 C -61.897578,17.667475 -74.430117,24.666166 -80.940277,38.663506 C -81.754329,40.29115 -82.48675,42.081513 -83.137543,44.034599 L -83.137543,44.034599 z M -154.91489,43.302177 C -175.74838,17.748855 -186.16503,-15.210096 -186.16489,-55.574776 C -186.16503,-98.380586 -174.85319,-132.39748 -152.22934,-157.62556 L -239.87582,-157.62556 L -239.87582,-9.1880569 C -239.87592,13.110188 -236.86485,27.43309 -230.84262,33.780693 C -224.65783,40.12839 -212.20667,43.302215 -193.48911,43.302177 L -154.91489,43.302177 z "
       id="text1870" />
  </g>
</svg>
