<?xml version="1.0" encoding="UTF-8" standalone="no"?>
<!-- Created with Inkscape (http://www.inkscape.org/) -->

<svg
   xmlns:dc="http://purl.org/dc/elements/1.1/"
   xmlns:cc="http://creativecommons.org/ns#"
   xmlns:rdf="http://www.w3.org/1999/02/22-rdf-syntax-ns#"
   xmlns:svg="http://www.w3.org/2000/svg"
   xmlns="http://www.w3.org/2000/svg"
   xmlns:sodipodi="http://sodipodi.sourceforge.net/DTD/sodipodi-0.dtd"
   xmlns:inkscape="http://www.inkscape.org/namespaces/inkscape"
   width="250.97656"
   height="287.10938"
   id="svg2"
   inkscape:label="Pozadí"
   sodipodi:version="0.32"
   inkscape:version="0.48.2 r9819"
   sodipodi:docname="unicode-insert_0x0275.svg"
   version="1.0"
   inkscape:export-filename="/home/jspitzm/lyx/lyx-devel/lib/images/ipa/unicode-insert_0x0275.png"
   inkscape:export-xdpi="6.2693877"
   inkscape:export-ydpi="6.2693877">
  <defs
     id="defs1876" />
  <sodipodi:namedview
     id="base"
     pagecolor="#ffffff"
     bordercolor="#666666"
     borderopacity="1.0"
     inkscape:pageopacity="0.0"
     inkscape:pageshadow="2"
     inkscape:zoom="0.35"
     inkscape:cx="375"
     inkscape:cy="62.857143"
     inkscape:document-units="px"
     inkscape:current-layer="layer1"
     inkscape:window-width="1280"
     inkscape:window-height="968"
     inkscape:window-x="0"
     inkscape:window-y="0"
     showgrid="false"
     inkscape:window-maximized="0" />
  <metadata
     id="metadata1879">
    <rdf:RDF>
      <cc:Work
         rdf:about="">
        <dc:format>image/svg+xml</dc:format>
        <dc:type
           rdf:resource="http://purl.org/dc/dcmitype/StillImage" />
        <cc:license
           rdf:resource="http://web.resource.org/cc/PublicDomain" />
        <dc:title></dc:title>
      </cc:Work>
      <cc:License
         rdf:about="http://web.resource.org/cc/PublicDomain">
        <cc:permits
           rdf:resource="http://web.resource.org/cc/Reproduction" />
        <cc:permits
           rdf:resource="http://web.resource.org/cc/Distribution" />
        <cc:permits
           rdf:resource="http://web.resource.org/cc/DerivativeWorks" />
      </cc:License>
    </rdf:RDF>
  </metadata>
  <g
     inkscape:label="Vrstva 1"
     inkscape:groupmode="layer"
     id="layer1"
     transform="translate(327.2077,354.5449)">
    <path
       transform="translate(-23.36705,-155.4154)"
       style="font-size:500px;font-style:normal;font-weight:normal;fill:black;fill-opacity:1;stroke:none;stroke-width:1px;stroke-linecap:butt;stroke-linejoin:miter;stroke-opacity:1;font-family:DejaVu Sans"
       d="M -178.59653,-161.04353 C -202.84796,-161.04328 -221.80953,-151.60319 -235.48129,-132.72321 C -249.15325,-113.84281 -255.98918,-92.358457 -255.98911,-68.270088 L -101.20395,-68.270088 C -101.20418,-92.358457 -108.04011,-113.84281 -121.71176,-132.72321 C -135.38383,-151.60319 -154.3454,-161.04328 -178.59653,-161.04353 L -178.59653,-161.04353 z M -178.35239,49.893974 C -154.42678,49.894005 -136.40108,42.040823 -124.27524,26.334404 C -112.14981,10.628094 -104.62214,-7.5603643 -101.69223,-28.231026 L -255.01254,-28.231026 C -252.08293,-7.5603643 -244.55527,10.628094 -232.42953,26.334404 C -220.30399,42.040823 -202.2783,49.894005 -178.35239,49.893974 L -178.35239,49.893974 z M -178.35239,-199.12946 C -139.29008,-199.12918 -108.60977,-186.43388 -86.311371,-161.04353 C -64.013461,-135.65268 -52.864384,-100.49647 -52.864105,-55.574776 C -52.864384,-10.815569 -64.013461,24.299955 -86.311371,49.771904 C -108.60977,75.243915 -139.29008,87.979905 -178.35239,87.979912 C -217.57776,87.979905 -248.29876,75.243915 -270.51547,49.771904 C -292.73231,24.299955 -303.8407,-10.815569 -303.84067,-55.574776 C -303.8407,-100.49647 -292.73231,-135.65268 -270.51547,-161.04353 C -248.29876,-186.43388 -217.57776,-199.12918 -178.35239,-199.12946 L -178.35239,-199.12946 z "
       id="text1870" />
  </g>
</svg>
