<?xml version="1.0" encoding="UTF-8" standalone="no"?>
<!-- Created with Inkscape (http://www.inkscape.org/) -->
<svg
   xmlns:dc="http://purl.org/dc/elements/1.1/"
   xmlns:cc="http://web.resource.org/cc/"
   xmlns:rdf="http://www.w3.org/1999/02/22-rdf-syntax-ns#"
   xmlns:svg="http://www.w3.org/2000/svg"
   xmlns="http://www.w3.org/2000/svg"
   xmlns:sodipodi="http://sodipodi.sourceforge.net/DTD/sodipodi-0.dtd"
   xmlns:inkscape="http://www.inkscape.org/namespaces/inkscape"
   width="301.02539"
   height="483.88672"
   id="svg2"
   inkscape:label="Pozadí"
   sodipodi:version="0.32"
   inkscape:version="0.44.1"
   sodipodi:docbase="D:\Pracovní data\Martin Kozák\Projekty\Aktivní\Jazyky na Wikipedii CS\Znaky IPA\Křivky"
   sodipodi:docname="IPA Unicode 0x2A7.svg"
   version="1.0">
  <defs
     id="defs1876" />
  <sodipodi:namedview
     id="base"
     pagecolor="#ffffff"
     bordercolor="#666666"
     borderopacity="1.0"
     inkscape:pageopacity="0.0"
     inkscape:pageshadow="2"
     inkscape:zoom="0.35"
     inkscape:cx="375"
     inkscape:cy="177.14286"
     inkscape:document-units="px"
     inkscape:current-layer="layer1"
     inkscape:window-width="1280"
     inkscape:window-height="968"
     inkscape:window-x="-4"
     inkscape:window-y="-4" />
  <metadata
     id="metadata1879">
    <rdf:RDF>
      <cc:Work
         rdf:about="">
        <dc:format>image/svg+xml</dc:format>
        <dc:type
           rdf:resource="http://purl.org/dc/dcmitype/StillImage" />
        <cc:license
           rdf:resource="http://web.resource.org/cc/PublicDomain" />
      </cc:Work>
      <cc:License
         rdf:about="http://web.resource.org/cc/PublicDomain">
        <cc:permits
           rdf:resource="http://web.resource.org/cc/Reproduction" />
        <cc:permits
           rdf:resource="http://web.resource.org/cc/Distribution" />
        <cc:permits
           rdf:resource="http://web.resource.org/cc/DerivativeWorks" />
      </cc:License>
    </rdf:RDF>
  </metadata>
  <g
     inkscape:label="Vrstva 1"
     inkscape:groupmode="layer"
     id="layer1"
     transform="translate(341.3679,454.3984)">
    <path
       transform="translate(-23.36705,-155.4154)"
       style="font-size:500px;font-style:normal;font-weight:normal;fill:black;fill-opacity:1;stroke:none;stroke-width:1px;stroke-linecap:butt;stroke-linejoin:miter;stroke-opacity:1;font-family:DejaVu Sans"
       d="M -239.87582,-270.17439 L -239.87582,-192.53767 L -148.07895,-192.53767 L -148.07895,-211.58064 C -148.07913,-241.03995 -140.99906,-263.17534 -126.83871,-277.98689 C -113.65534,-291.98391 -91.194424,-298.9826 -59.455902,-298.98298 L -16.975433,-298.98298 L -16.975433,-261.62946 L -59.944183,-261.62946 C -76.05772,-261.62912 -87.206797,-258.37392 -93.391449,-251.86384 C -99.739337,-245.3531 -102.91316,-233.63436 -102.91293,-216.70759 L -102.42465,85.782646 C -102.42488,120.61334 -109.01667,145.84117 -122.20004,161.46624 C -135.54659,177.09114 -156.94957,184.90364 -186.40903,184.90374 L -203.49887,184.90374 L -203.49887,146.8178 L -191.53598,146.8178 C -174.44629,146.81774 -162.80894,142.91149 -156.62387,135.09905 C -150.43916,127.12375 -147.34671,110.68496 -147.34653,85.782646 L -147.34653,80.899834 L -193.48911,80.899834 C -228.15718,80.899834 -252.08293,74.389424 -265.26645,61.368584 C -278.4501,48.510543 -285.04189,24.991686 -285.04184,-9.1880569 L -285.04184,-157.62556 L -318.00082,-157.62556 L -318.00082,-192.53767 L -285.04184,-192.53767 L -285.04184,-270.17439 L -239.87582,-270.17439 z M -147.59067,43.302177 C -147.91637,-24.731571 -148.07913,-91.707416 -148.07895,-157.62556 L -239.87582,-157.62556 L -239.87582,-9.1880569 C -239.87592,13.110188 -236.86485,27.43309 -230.84262,33.780693 C -224.65783,40.12839 -212.20667,43.302215 -193.48911,43.302177 L -147.59067,43.302177 z "
       id="text1870" />
  </g>
</svg>
