<?xml version="1.0" encoding="UTF-8" standalone="no"?>
<!-- Created with Inkscape (http://www.inkscape.org/) -->
<svg
   xmlns:dc="http://purl.org/dc/elements/1.1/"
   xmlns:cc="http://web.resource.org/cc/"
   xmlns:rdf="http://www.w3.org/1999/02/22-rdf-syntax-ns#"
   xmlns:svg="http://www.w3.org/2000/svg"
   xmlns="http://www.w3.org/2000/svg"
   xmlns:sodipodi="http://sodipodi.sourceforge.net/DTD/sodipodi-0.dtd"
   xmlns:inkscape="http://www.inkscape.org/namespaces/inkscape"
   width="187.01172"
   height="483.88672"
   id="svg2"
   inkscape:label="Pozadí"
   sodipodi:version="0.32"
   inkscape:version="0.44.1"
   sodipodi:docbase="D:\Pracovní data\Martin Kozák\Projekty\Aktivní\Jazyky na Wikipedii CS\Znaky IPA\Křivky"
   sodipodi:docname="IPA Unicode 0x284.svg"
   version="1.0">
  <defs
     id="defs1876" />
  <sodipodi:namedview
     id="base"
     pagecolor="#ffffff"
     bordercolor="#666666"
     borderopacity="1.0"
     inkscape:pageopacity="0.0"
     inkscape:pageshadow="2"
     inkscape:zoom="0.35"
     inkscape:cx="375"
     inkscape:cy="62.857143"
     inkscape:document-units="px"
     inkscape:current-layer="layer1"
     inkscape:window-width="1280"
     inkscape:window-height="968"
     inkscape:window-x="-4"
     inkscape:window-y="-4" />
  <metadata
     id="metadata1879">
    <rdf:RDF>
      <cc:Work
         rdf:about="">
        <dc:format>image/svg+xml</dc:format>
        <dc:type
           rdf:resource="http://purl.org/dc/dcmitype/StillImage" />
        <cc:license
           rdf:resource="http://web.resource.org/cc/PublicDomain" />
      </cc:Work>
      <cc:License
         rdf:about="http://web.resource.org/cc/PublicDomain">
        <cc:permits
           rdf:resource="http://web.resource.org/cc/Reproduction" />
        <cc:permits
           rdf:resource="http://web.resource.org/cc/Distribution" />
        <cc:permits
           rdf:resource="http://web.resource.org/cc/DerivativeWorks" />
      </cc:License>
    </rdf:RDF>
  </metadata>
  <g
     inkscape:label="Vrstva 1"
     inkscape:groupmode="layer"
     id="layer1"
     transform="translate(364.3171,454.3984)">
    <path
       transform="translate(-23.36705,-155.4154)"
       style="font-size:500px;font-style:normal;font-weight:normal;fill:black;fill-opacity:1;stroke:none;stroke-width:1px;stroke-linecap:butt;stroke-linejoin:miter;stroke-opacity:1;font-family:DejaVu Sans"
       d="M -285.04184,-192.53767 L -285.04184,-211.58064 C -285.04189,-242.01651 -277.96181,-264.19259 -263.80161,-278.10896 C -249.64153,-292.0246 -227.18062,-298.9826 -196.41879,-298.98298 L -153.93832,-298.98298 L -153.93832,-261.62946 L -196.90707,-261.62946 C -213.02047,-261.62912 -224.21024,-258.37392 -230.47641,-251.86384 C -236.74278,-245.3531 -239.87592,-233.63436 -239.87582,-216.70759 L -239.87582,-70.223213 L -239.63168,-69.490791 L -200.0809,-69.490791 L -200.0809,-29.451729 L -239.87582,-29.451729 L -239.87582,85.782646 C -239.87592,120.61334 -246.5084,145.84117 -259.77328,161.46624 C -273.03832,177.09114 -294.4006,184.90364 -323.8602,184.90374 L -340.95004,184.90374 L -340.95004,146.8178 L -328.98715,146.8178 C -311.89733,146.81774 -300.30066,142.8708 -294.19711,134.97698 C -288.09364,127.08306 -285.04189,110.68496 -285.04184,85.782646 L -285.04184,-29.451729 L -328.98715,-29.451729 L -328.98715,-69.490791 L -285.04184,-69.490791 L -285.04184,-157.62556 L -327.76645,-157.62556 L -327.76645,-192.53767 L -285.04184,-192.53767 z "
       id="text1870" />
  </g>
</svg>
