<?xml version="1.0" encoding="UTF-8" standalone="no"?>
<!-- Created with Inkscape (http://www.inkscape.org/) -->

<svg
   xmlns:dc="http://purl.org/dc/elements/1.1/"
   xmlns:cc="http://creativecommons.org/ns#"
   xmlns:rdf="http://www.w3.org/1999/02/22-rdf-syntax-ns#"
   xmlns:svg="http://www.w3.org/2000/svg"
   xmlns="http://www.w3.org/2000/svg"
   xmlns:sodipodi="http://sodipodi.sourceforge.net/DTD/sodipodi-0.dtd"
   xmlns:inkscape="http://www.inkscape.org/namespaces/inkscape"
   width="203.85742"
   height="287.35352"
   id="svg2"
   inkscape:label="Pozadí"
   sodipodi:version="0.32"
   inkscape:version="0.48.2 r9819"
   sodipodi:docname="unicode-insert_0x025b.svg"
   version="1.0"
   inkscape:export-filename="/home/jspitzm/lyx/lyx-devel/lib/images/ipa/unicode-insert_0x025b.png"
   inkscape:export-xdpi="6.2640615"
   inkscape:export-ydpi="6.2640615">
  <defs
     id="defs1876" />
  <sodipodi:namedview
     id="base"
     pagecolor="#ffffff"
     bordercolor="#666666"
     borderopacity="1.0"
     inkscape:pageopacity="0.0"
     inkscape:pageshadow="2"
     inkscape:zoom="0.35"
     inkscape:cx="375"
     inkscape:cy="62.857143"
     inkscape:document-units="px"
     inkscape:current-layer="layer1"
     inkscape:window-width="1280"
     inkscape:window-height="968"
     inkscape:window-x="0"
     inkscape:window-y="0"
     showgrid="false"
     inkscape:window-maximized="0" />
  <metadata
     id="metadata1879">
    <rdf:RDF>
      <cc:Work
         rdf:about="">
        <dc:format>image/svg+xml</dc:format>
        <dc:type
           rdf:resource="http://purl.org/dc/dcmitype/StillImage" />
        <cc:license
           rdf:resource="http://web.resource.org/cc/PublicDomain" />
        <dc:title></dc:title>
      </cc:Work>
      <cc:License
         rdf:about="http://web.resource.org/cc/PublicDomain">
        <cc:permits
           rdf:resource="http://web.resource.org/cc/Reproduction" />
        <cc:permits
           rdf:resource="http://web.resource.org/cc/Distribution" />
        <cc:permits
           rdf:resource="http://web.resource.org/cc/DerivativeWorks" />
      </cc:License>
    </rdf:RDF>
  </metadata>
  <g
     inkscape:label="Vrstva 1"
     inkscape:groupmode="layer"
     id="layer1"
     transform="translate(322.3249,354.789)">
    <path
       transform="translate(-23.36705,-155.4154)"
       style="font-size:500px;font-style:normal;font-weight:normal;fill:black;fill-opacity:1;stroke:none;stroke-width:1px;stroke-linecap:butt;stroke-linejoin:miter;stroke-opacity:1;font-family:DejaVu Sans"
       d="M -234.99301,-66.561104 C -253.22226,-70.467202 -267.21964,-77.710034 -276.9852,-88.289619 C -286.75087,-98.706107 -291.63368,-111.48279 -291.63364,-126.6197 C -291.63368,-149.56869 -282.35634,-167.47231 -263.80161,-180.33064 C -245.40976,-193.02567 -220.2633,-199.37332 -188.36215,-199.3736 C -175.99252,-199.37332 -162.89032,-198.39676 -149.05551,-196.44392 C -135.22107,-194.49052 -120.32851,-191.56083 -104.37778,-187.65485 L -104.37778,-146.88337 C -120.16575,-151.60319 -134.57003,-155.02115 -147.59067,-157.13728 C -160.77443,-159.25292 -173.14421,-160.31086 -184.70004,-160.3111 C -204.06866,-160.31086 -219.36812,-156.56738 -230.59848,-149.08064 C -241.9918,-141.59343 -247.68841,-132.64162 -247.68832,-122.22517 C -247.68841,-110.83175 -242.15456,-101.47303 -231.08676,-94.148994 C -220.18192,-86.987368 -205.28936,-83.406643 -186.40903,-83.406807 L -148.56723,-83.406807 L -148.56723,-46.297432 L -184.70004,-46.297432 C -206.99834,-46.297305 -224.00679,-42.146918 -235.72543,-33.84626 C -248.42083,-24.731571 -254.76848,-13.012833 -254.7684,1.3099899 C -254.76848,15.958492 -247.93255,27.839991 -234.26059,36.954521 C -220.42607,46.069139 -201.22036,50.626426 -176.6434,50.626396 C -161.50685,50.626426 -147.02119,49.161584 -133.18637,46.231865 C -119.35195,43.139455 -106.65665,38.582168 -95.100433,32.55999 L -95.100433,74.308037 C -109.74909,78.865331 -123.90923,82.283296 -137.5809,84.561943 C -151.41572,86.840583 -164.84344,87.979905 -177.86411,87.979912 C -216.6012,87.979905 -246.46771,80.574313 -267.46371,65.763115 C -288.45985,50.951947 -298.95789,29.467593 -298.95786,1.3099899 C -298.95789,-16.268038 -293.34266,-30.997841 -282.11215,-42.879463 C -270.88174,-54.760838 -255.17538,-62.65471 -234.99301,-66.561104 L -234.99301,-66.561104 z "
       id="text1870" />
  </g>
</svg>
