<?xml version="1.0" encoding="UTF-8" standalone="no"?>
<!-- Created with Inkscape (http://www.inkscape.org/) -->

<svg
   xmlns:dc="http://purl.org/dc/elements/1.1/"
   xmlns:cc="http://creativecommons.org/ns#"
   xmlns:rdf="http://www.w3.org/1999/02/22-rdf-syntax-ns#"
   xmlns:svg="http://www.w3.org/2000/svg"
   xmlns="http://www.w3.org/2000/svg"
   xmlns:sodipodi="http://sodipodi.sourceforge.net/DTD/sodipodi-0.dtd"
   xmlns:inkscape="http://www.inkscape.org/namespaces/inkscape"
   width="434.57031"
   height="287.10938"
   id="svg2"
   inkscape:label="Pozadí"
   sodipodi:version="0.32"
   inkscape:version="0.48.2 r9819"
   sodipodi:docname="unicode-insert_0x00e6.svg"
   version="1.0"
   inkscape:export-filename="/home/jspitzm/lyx/lyx-devel/lib/images/ipa/unicode-insert_0x00e6.png"
   inkscape:export-xdpi="4.1420226"
   inkscape:export-ydpi="4.1420226">
  <defs
     id="defs1876" />
  <sodipodi:namedview
     id="base"
     pagecolor="#ffffff"
     bordercolor="#666666"
     borderopacity="1.0"
     inkscape:pageopacity="0.0"
     inkscape:pageshadow="2"
     inkscape:zoom="0.35"
     inkscape:cx="375"
     inkscape:cy="62.857143"
     inkscape:document-units="px"
     inkscape:current-layer="layer1"
     inkscape:window-width="1280"
     inkscape:window-height="968"
     inkscape:window-x="0"
     inkscape:window-y="0"
     showgrid="false"
     inkscape:window-maximized="0" />
  <metadata
     id="metadata1879">
    <rdf:RDF>
      <cc:Work
         rdf:about="">
        <dc:format>image/svg+xml</dc:format>
        <dc:type
           rdf:resource="http://purl.org/dc/dcmitype/StillImage" />
        <cc:license
           rdf:resource="http://web.resource.org/cc/PublicDomain" />
        <dc:title></dc:title>
      </cc:Work>
      <cc:License
         rdf:about="http://web.resource.org/cc/PublicDomain">
        <cc:permits
           rdf:resource="http://web.resource.org/cc/Reproduction" />
        <cc:permits
           rdf:resource="http://web.resource.org/cc/Distribution" />
        <cc:permits
           rdf:resource="http://web.resource.org/cc/DerivativeWorks" />
      </cc:License>
    </rdf:RDF>
  </metadata>
  <g
     inkscape:label="Vrstva 1"
     inkscape:groupmode="layer"
     id="layer1"
     transform="translate(324.7663,354.5449)">
    <path
       transform="translate(-23.36705,-155.4154)"
       style="font-size:500px;font-style:normal;font-weight:normal;fill:black;fill-opacity:1;stroke:none;stroke-width:1px;stroke-linecap:butt;stroke-linejoin:miter;stroke-opacity:1;font-family:DejaVu Sans"
       d="M 88.005035,-80.232979 C 87.841856,-104.80962 81.046615,-124.42223 67.619293,-139.07087 C 54.191173,-153.71907 36.328235,-161.04328 14.030426,-161.04353 C -10.872238,-161.04328 -30.851059,-153.96321 -45.906097,-139.80329 C -60.961706,-125.64293 -69.62869,-105.7048 -71.907074,-79.988838 L 88.005035,-80.232979 z M -88.508636,-154.20759 C -76.464621,-168.85578 -61.816198,-180.00485 -44.563324,-187.65485 C -27.311024,-195.30432 -7.9425537,-199.12918 13.542145,-199.12946 C 50.325617,-199.12918 79.459703,-187.28837 100.94449,-163.607 C 122.42841,-139.92514 133.17059,-107.7393 133.17105,-67.049385 L 133.17105,-45.076729 L -73.371918,-45.076729 C -71.419053,-13.989394 -62.141718,9.6922226 -45.539886,25.968193 C -28.938626,42.244273 -5.7452903,50.382286 24.040192,50.382256 C 40.966903,50.382286 57.568448,48.225713 73.844879,43.912529 C 90.120499,39.599419 106.39652,33.129699 122.673,24.503349 L 122.673,66.983818 C 106.39652,73.819763 89.794979,79.028091 72.868317,82.608818 C 55.940846,86.189542 38.851019,87.979905 21.598785,87.979912 C -5.58253,87.979905 -29.264147,83.056407 -49.446136,73.209404 C -69.62869,63.362416 -85.986095,48.754684 -98.518402,29.386162 C -110.40013,48.917444 -125.12994,63.565867 -142.70786,73.331474 C -160.28615,83.097097 -180.71256,87.979905 -203.98715,87.979912 C -234.74897,87.979905 -258.67472,80.370863 -275.7645,65.152763 C -292.85438,49.934695 -301.39929,28.653792 -301.39926,1.3099899 C -301.39929,-29.451618 -291.10471,-52.644955 -270.51547,-68.270088 C -249.92636,-83.894923 -219.20536,-91.707416 -178.35239,-91.707588 L -115.36411,-91.707588 L -115.36411,-96.102119 C -115.36432,-116.77249 -122.15956,-132.76369 -135.74985,-144.07575 C -149.34052,-155.38736 -168.42416,-161.04328 -193.00082,-161.04353 C -208.62595,-161.04328 -223.84403,-159.17154 -238.65512,-155.42829 C -253.4664,-151.68457 -267.70792,-146.06934 -281.37973,-138.58259 L -281.37973,-180.08649 C -264.94099,-186.43388 -248.99049,-191.19462 -233.52817,-194.36872 C -218.06604,-197.54227 -203.01072,-199.12918 -188.36215,-199.12946 C -165.25034,-199.12918 -145.02738,-195.22294 -127.69321,-187.41071 C -110.35944,-179.59795 -97.297933,-168.53026 -88.508636,-154.20759 L -88.508636,-154.20759 z M -160.04184,-56.551338 C -196.33755,-56.551201 -221.48401,-52.400814 -235.48129,-44.100166 C -249.47877,-35.799268 -256.47746,-21.639126 -256.47739,-1.6196976 C -256.47746,14.33089 -251.22844,26.9855 -240.73032,36.34417 C -230.23237,45.702929 -215.95016,50.382286 -197.88364,50.382256 C -172.98145,50.382286 -153.00263,41.552542 -137.94711,23.892998 C -122.89198,6.2335672 -115.36432,-17.244599 -115.36411,-46.541573 L -115.36411,-56.551338 L -160.04184,-56.551338 z "
       id="text1870" />
  </g>
</svg>
