<?xml version="1.0" encoding="UTF-8" standalone="no"?>
<!-- Created with Inkscape (http://www.inkscape.org/) -->
<svg
   xmlns:dc="http://purl.org/dc/elements/1.1/"
   xmlns:cc="http://web.resource.org/cc/"
   xmlns:rdf="http://www.w3.org/1999/02/22-rdf-syntax-ns#"
   xmlns:svg="http://www.w3.org/2000/svg"
   xmlns="http://www.w3.org/2000/svg"
   xmlns:sodipodi="http://sodipodi.sourceforge.net/DTD/sodipodi-0.dtd"
   xmlns:inkscape="http://www.inkscape.org/namespaces/inkscape"
   width="376.95313"
   height="287.10938"
   id="svg2"
   inkscape:label="Pozadí"
   sodipodi:version="0.32"
   inkscape:version="0.44.1"
   sodipodi:docbase="b:\Pracovní data\Projekty\Aktivní\Jazyky na Wikipedii CS\Znaky IPA\Křivky"
   sodipodi:docname="IPA Unicode 0x25A.svg"
   version="1.0">
  <defs
     id="defs1876" />
  <sodipodi:namedview
     id="base"
     pagecolor="#ffffff"
     bordercolor="#666666"
     borderopacity="1.0"
     inkscape:pageopacity="0.0"
     inkscape:pageshadow="2"
     inkscape:zoom="0.35"
     inkscape:cx="375"
     inkscape:cy="62.857143"
     inkscape:document-units="px"
     inkscape:current-layer="layer1"
     inkscape:window-width="1280"
     inkscape:window-height="968"
     inkscape:window-x="-4"
     inkscape:window-y="-4" />
  <metadata
     id="metadata1879">
    <rdf:RDF>
      <cc:Work
         rdf:about="">
        <dc:format>image/svg+xml</dc:format>
        <dc:type
           rdf:resource="http://purl.org/dc/dcmitype/StillImage" />
        <cc:license
           rdf:resource="http://web.resource.org/cc/PublicDomain" />
      </cc:Work>
      <cc:License
         rdf:about="http://web.resource.org/cc/PublicDomain">
        <cc:permits
           rdf:resource="http://web.resource.org/cc/Reproduction" />
        <cc:permits
           rdf:resource="http://web.resource.org/cc/Distribution" />
        <cc:permits
           rdf:resource="http://web.resource.org/cc/DerivativeWorks" />
      </cc:License>
    </rdf:RDF>
  </metadata>
  <g
     inkscape:label="Vrstva 1"
     inkscape:groupmode="layer"
     id="layer1"
     transform="translate(324.5222,354.5449)">
    <path
       transform="translate(-23.36705,-155.4154)"
       style="font-size:500px;font-style:normal;font-weight:normal;fill:black;fill-opacity:1;stroke:none;stroke-width:1px;stroke-linecap:butt;stroke-linejoin:miter;stroke-opacity:1;font-family:DejaVu Sans"
       d="M -124.88559,28.65374 C -108.28425,6.1928771 -100.14624,-21.883267 -100.47153,-55.574776 C -100.309,-65.665775 -101.04142,-75.26863 -102.66879,-84.383369 L -253.30356,2.5306931 C -248.42083,13.761229 -243.37526,22.224762 -238.16684,27.921318 C -224.82059,42.569794 -207.07972,49.894005 -184.94418,49.893974 C -157.60061,49.894005 -137.5811,42.813934 -124.88559,28.65374 L -124.88559,28.65374 z M -57.991058,-110.26228 C -52.945764,-94.6371 -50.42298,-77.221753 -50.422699,-58.016182 C -50.42298,-13.256973 -62.548619,22.306142 -86.799652,48.673271 C -110.88841,74.877704 -143.44047,87.979905 -184.4559,87.979912 C -221.56539,87.979905 -250.69947,76.179786 -271.85825,52.579521 C -286.83225,35.815243 -296.59786,14.73779 -301.15512,-10.652901 L -114.1434,-118.8072 C -117.23606,-125.15465 -120.97955,-131.17678 -125.37387,-136.8736 C -137.74386,-153.14941 -160.93719,-161.20604 -194.95395,-161.04353 C -212.53219,-160.88052 -229.21512,-158.76464 -245.00278,-154.69587 C -261.27889,-150.46387 -277.39215,-144.11622 -293.34262,-135.6529 L -293.34262,-178.13337 C -277.22939,-184.96904 -260.70923,-190.17737 -243.78207,-193.75837 C -226.8551,-197.33882 -209.68389,-199.12918 -192.2684,-199.12946 C -148.64879,-199.12918 -114.14362,-186.43388 -88.752777,-161.04353 C -82.893651,-155.34667 -77.766703,-149.16179 -73.371918,-142.48884 L -23.811371,-171.05329 L 21.110504,-171.05329 L 21.110504,-134.92048 C 21.110152,-110.01794 24.202596,-93.579159 30.387848,-85.604073 C 36.572376,-77.791414 48.209734,-73.885168 65.299957,-73.885323 L 75.798004,-73.885323 L 75.798004,-35.799385 L 60.173004,-35.799385 C 31.689568,-35.799268 10.367975,-43.611761 -3.7918396,-59.236885 C -17.138508,-73.885168 -23.811678,-97.485405 -23.811371,-130.03767 L -57.991058,-110.26228 z "
       id="text1870" />
  </g>
</svg>
