<?xml version="1.0" encoding="UTF-8" standalone="no"?>
<!-- Created with Inkscape (http://www.inkscape.org/) -->

<svg
   xmlns:dc="http://purl.org/dc/elements/1.1/"
   xmlns:cc="http://creativecommons.org/ns#"
   xmlns:rdf="http://www.w3.org/1999/02/22-rdf-syntax-ns#"
   xmlns:svg="http://www.w3.org/2000/svg"
   xmlns="http://www.w3.org/2000/svg"
   xmlns:sodipodi="http://sodipodi.sourceforge.net/DTD/sodipodi-0.dtd"
   xmlns:inkscape="http://www.inkscape.org/namespaces/inkscape"
   width="239.99023"
   height="379.88281"
   id="svg2"
   inkscape:label="Pozadí"
   sodipodi:version="0.32"
   inkscape:version="0.48.2 r9819"
   sodipodi:docname="0x0292.svg"
   version="1.0"
   inkscape:export-filename="/home/jspitzm/lyx/lyx-devel/lib/images/ipa/unicode-insert_0x0292.png"
   inkscape:export-xdpi="4.7383032"
   inkscape:export-ydpi="4.7383032">
  <defs
     id="defs1876" />
  <sodipodi:namedview
     id="base"
     pagecolor="#ffffff"
     bordercolor="#666666"
     borderopacity="1.0"
     inkscape:pageopacity="0.0"
     inkscape:pageshadow="2"
     inkscape:zoom="0.35"
     inkscape:cx="375"
     inkscape:cy="62.857143"
     inkscape:document-units="px"
     inkscape:current-layer="layer1"
     inkscape:window-width="1280"
     inkscape:window-height="968"
     inkscape:window-x="0"
     inkscape:window-y="0"
     showgrid="false"
     inkscape:window-maximized="0" />
  <metadata
     id="metadata1879">
    <rdf:RDF>
      <cc:Work
         rdf:about="">
        <dc:format>image/svg+xml</dc:format>
        <dc:type
           rdf:resource="http://purl.org/dc/dcmitype/StillImage" />
        <cc:license
           rdf:resource="http://web.resource.org/cc/PublicDomain" />
        <dc:title></dc:title>
      </cc:Work>
      <cc:License
         rdf:about="http://web.resource.org/cc/PublicDomain">
        <cc:permits
           rdf:resource="http://web.resource.org/cc/Reproduction" />
        <cc:permits
           rdf:resource="http://web.resource.org/cc/Distribution" />
        <cc:permits
           rdf:resource="http://web.resource.org/cc/DerivativeWorks" />
      </cc:License>
    </rdf:RDF>
  </metadata>
  <g
     inkscape:label="Vrstva 1"
     inkscape:groupmode="layer"
     id="layer1"
     transform="translate(333.3112,347.9531)">
    <path
       transform="translate(-23.36705,-155.4154)"
       style="font-size:500px;font-style:normal;font-weight:normal;fill:black;fill-opacity:1;stroke:none;stroke-width:1px;stroke-linecap:butt;stroke-linejoin:miter;stroke-opacity:1;font-family:DejaVu Sans"
       d="M -191.78012,-35.311104 C -174.52767,-35.310988 -155.48472,-30.753701 -134.65121,-21.639229 C -118.70091,-14.803196 -103.72696,-2.5147964 -89.72934,15.226006 C -76.546001,32.153138 -69.95421,51.847128 -69.953949,74.308037 C -69.95421,110.27806 -82.32399,138.11006 -107.06332,157.80413 C -131.80311,177.49804 -166.95932,187.34504 -212.53207,187.34515 C -227.83166,187.34504 -243.53802,185.8802 -259.65121,182.95061 C -275.92731,179.85807 -292.69162,175.30078 -309.94418,169.27874 L -309.94418,121.67132 C -296.27234,129.64653 -281.2984,135.66866 -265.02231,139.73772 C -248.74635,143.80667 -231.7379,145.84117 -213.99692,145.84124 C -183.07259,145.84117 -159.55373,139.73767 -143.44028,127.53069 C -127.16444,115.32363 -119.02643,97.58276 -119.02621,74.308037 C -119.02643,52.82369 -126.5134,35.978004 -141.48715,23.770927 C -156.62405,11.726726 -177.62012,5.7045964 -204.47543,5.7045212 L -246.9559,5.7045212 L -246.9559,-34.822823 L -141.97543,-156.64899 L -304.81723,-156.64899 L -304.81723,-192.53767 L -91.438324,-192.53767 L -91.438324,-151.52204 L -191.78012,-35.311104 z "
       id="text1870" />
  </g>
</svg>
