<?xml version="1.0" encoding="UTF-8" standalone="no"?>
<!-- Created with Inkscape (http://www.inkscape.org/) -->

<svg
   xmlns:dc="http://purl.org/dc/elements/1.1/"
   xmlns:cc="http://creativecommons.org/ns#"
   xmlns:rdf="http://www.w3.org/1999/02/22-rdf-syntax-ns#"
   xmlns:svg="http://www.w3.org/2000/svg"
   xmlns="http://www.w3.org/2000/svg"
   xmlns:sodipodi="http://sodipodi.sourceforge.net/DTD/sodipodi-0.dtd"
   xmlns:inkscape="http://www.inkscape.org/namespaces/inkscape"
   width="241.45508"
   height="273.4375"
   id="svg2"
   inkscape:label="Pozadí"
   sodipodi:version="0.32"
   inkscape:version="0.48.2 r9819"
   sodipodi:docname="0x0280.svg"
   version="1.0"
   inkscape:export-filename="/home/jspitzm/lyx/lyx-devel/lib/images/ipa/unicode-insert_0x0280.png"
   inkscape:export-xdpi="6.5828571"
   inkscape:export-ydpi="6.5828571">
  <defs
     id="defs1876" />
  <sodipodi:namedview
     id="base"
     pagecolor="#ffffff"
     bordercolor="#666666"
     borderopacity="1.0"
     inkscape:pageopacity="0.0"
     inkscape:pageshadow="2"
     inkscape:zoom="0.35"
     inkscape:cx="375"
     inkscape:cy="62.857143"
     inkscape:document-units="px"
     inkscape:current-layer="layer1"
     inkscape:window-width="1280"
     inkscape:window-height="968"
     inkscape:window-x="0"
     inkscape:window-y="0"
     showgrid="false"
     inkscape:window-maximized="0" />
  <metadata
     id="metadata1879">
    <rdf:RDF>
      <cc:Work
         rdf:about="">
        <dc:format>image/svg+xml</dc:format>
        <dc:type
           rdf:resource="http://purl.org/dc/dcmitype/StillImage" />
        <cc:license
           rdf:resource="http://web.resource.org/cc/PublicDomain" />
        <dc:title></dc:title>
      </cc:Work>
      <cc:License
         rdf:about="http://web.resource.org/cc/PublicDomain">
        <cc:permits
           rdf:resource="http://web.resource.org/cc/Reproduction" />
        <cc:permits
           rdf:resource="http://web.resource.org/cc/Distribution" />
        <cc:permits
           rdf:resource="http://web.resource.org/cc/DerivativeWorks" />
      </cc:License>
    </rdf:RDF>
  </metadata>
  <g
     inkscape:label="Vrstva 1"
     inkscape:groupmode="layer"
     id="layer1"
     transform="translate(309.3855,347.9531)">
    <path
       transform="translate(-23.36705,-155.4154)"
       style="font-size:500px;font-style:normal;font-weight:normal;fill:black;fill-opacity:1;stroke:none;stroke-width:1px;stroke-linecap:butt;stroke-linejoin:miter;stroke-opacity:1;font-family:DejaVu Sans"
       d="M -139.04575,-47.273994 C -131.23345,-45.646264 -122.64784,-40.112415 -113.28891,-30.672432 C -103.93041,-21.232226 -95.18205,-8.9438265 -87.043793,6.1928024 L -44.563324,80.899834 L -92.170746,80.899834 L -131.72153,10.831474 C -143.76599,-10.001768 -154.79299,-22.778448 -164.80258,-27.498604 C -174.8125,-32.218543 -186.40917,-34.578566 -199.59262,-34.578682 L -240.85239,-34.578682 L -240.85239,80.899834 L -286.0184,80.899834 L -286.0184,-192.53767 L -191.29184,-192.53767 C -155.81024,-192.53739 -129.3617,-186.10836 -111.94614,-173.25056 C -94.531009,-160.39224 -85.823335,-140.53549 -85.82309,-113.68024 C -85.823335,-96.590223 -90.380622,-82.348701 -99.494965,-70.955635 C -108.60977,-59.562265 -121.79335,-51.668393 -139.04575,-47.273994 L -139.04575,-47.273994 z M -240.85239,-154.69587 L -240.85239,-72.420479 L -192.51254,-72.420479 C -173.14421,-72.420326 -158.29234,-75.919671 -147.95688,-82.918526 C -137.62179,-89.917053 -132.45415,-99.764048 -132.45395,-112.45954 C -132.45415,-124.99189 -137.21489,-135.1644 -146.73618,-142.97712 C -156.25784,-150.78939 -171.51661,-154.69563 -192.51254,-154.69587 L -240.85239,-154.69587 z "
       id="text1870" />
  </g>
</svg>
