<?xml version="1.0" encoding="UTF-8" standalone="no"?>
<!-- Created with Inkscape (http://www.inkscape.org/) -->

<svg
   xmlns:dc="http://purl.org/dc/elements/1.1/"
   xmlns:cc="http://creativecommons.org/ns#"
   xmlns:rdf="http://www.w3.org/1999/02/22-rdf-syntax-ns#"
   xmlns:svg="http://www.w3.org/2000/svg"
   xmlns="http://www.w3.org/2000/svg"
   xmlns:sodipodi="http://sodipodi.sourceforge.net/DTD/sodipodi-0.dtd"
   xmlns:inkscape="http://www.inkscape.org/namespaces/inkscape"
   width="399.16992"
   height="280.27344"
   id="svg2"
   inkscape:label="Pozadí"
   sodipodi:version="0.32"
   inkscape:version="0.48.2 r9819"
   sodipodi:docname="unicode-insert_0x026f.svg"
   version="1.0"
   inkscape:export-filename="/home/jspitzm/lyx/lyx-devel/lib/images/ipa/unicode-insert_0x026f.png"
   inkscape:export-xdpi="4.5093575"
   inkscape:export-ydpi="4.5093575">
  <defs
     id="defs1876" />
  <sodipodi:namedview
     id="base"
     pagecolor="#ffffff"
     bordercolor="#666666"
     borderopacity="1.0"
     inkscape:pageopacity="0.0"
     inkscape:pageshadow="2"
     inkscape:zoom="0.35"
     inkscape:cx="375"
     inkscape:cy="62.857143"
     inkscape:document-units="px"
     inkscape:current-layer="layer1"
     inkscape:window-width="1280"
     inkscape:window-height="968"
     inkscape:window-x="0"
     inkscape:window-y="0"
     showgrid="false"
     inkscape:window-maximized="0" />
  <metadata
     id="metadata1879">
    <rdf:RDF>
      <cc:Work
         rdf:about="">
        <dc:format>image/svg+xml</dc:format>
        <dc:type
           rdf:resource="http://purl.org/dc/dcmitype/StillImage" />
        <cc:license
           rdf:resource="http://web.resource.org/cc/PublicDomain" />
        <dc:title></dc:title>
      </cc:Work>
      <cc:License
         rdf:about="http://web.resource.org/cc/PublicDomain">
        <cc:permits
           rdf:resource="http://web.resource.org/cc/Reproduction" />
        <cc:permits
           rdf:resource="http://web.resource.org/cc/Distribution" />
        <cc:permits
           rdf:resource="http://web.resource.org/cc/DerivativeWorks" />
      </cc:License>
    </rdf:RDF>
  </metadata>
  <g
     inkscape:label="Vrstva 1"
     inkscape:groupmode="layer"
     id="layer1"
     transform="translate(309.3855,348.4413)">
    <path
       transform="translate(-23.36705,-155.4154)"
       style="font-size:500px;font-style:normal;font-weight:normal;fill:black;fill-opacity:1;stroke:none;stroke-width:1px;stroke-linecap:butt;stroke-linejoin:miter;stroke-opacity:1;font-family:DejaVu Sans"
       d="M -101.44809,28.165459 C -112.35326,47.859502 -125.78098,62.670685 -141.73129,72.599052 C -157.35647,82.364676 -175.74838,87.247484 -196.90707,87.24749 C -225.39025,87.247484 -247.36289,77.237728 -262.82504,57.218193 C -278.28734,37.198706 -286.01845,8.7970412 -286.0184,-27.986885 L -286.0184,-193.02595 L -240.85239,-193.02595 L -240.85239,-29.451729 C -240.85248,-3.0844573 -236.21381,16.446773 -226.93637,29.142021 C -217.65914,41.837373 -203.499,48.185023 -184.4559,48.18499 C -161.18133,48.185023 -142.78942,40.37253 -129.28012,24.74749 C -115.77122,9.4480822 -109.01667,-11.547991 -109.01645,-38.240791 L -109.01645,-193.02595 L -63.850433,-193.02595 L -63.850433,-29.451729 C -63.850701,-3.0844573 -59.212034,16.446773 -49.934418,29.142021 C -40.657365,41.837373 -26.334462,48.185023 -6.9656677,48.18499 C 15.983204,48.185023 34.212352,40.37253 47.721832,24.74749 C 61.230554,9.1225617 67.985105,-11.873511 67.985504,-38.240791 L 67.985504,-193.02595 L 113.15152,-193.02595 L 113.15152,80.899834 L 67.985504,80.899834 L 67.985504,37.931084 C 58.056729,54.369912 45.76833,66.739692 31.12027,75.040459 C 16.797005,83.178477 -0.21144165,87.247484 -19.905121,87.24749 C -39.762183,87.247484 -56.68925,82.201916 -70.686371,72.110771 C -84.521253,62.019644 -94.775149,47.371221 -101.44809,28.165459 L -101.44809,28.165459 z "
       id="text1870" />
  </g>
</svg>
