<?xml version="1.0" encoding="UTF-8" standalone="no"?>
<!-- Created with Inkscape (http://www.inkscape.org/) -->
<svg
   xmlns:dc="http://purl.org/dc/elements/1.1/"
   xmlns:cc="http://web.resource.org/cc/"
   xmlns:rdf="http://www.w3.org/1999/02/22-rdf-syntax-ns#"
   xmlns:svg="http://www.w3.org/2000/svg"
   xmlns="http://www.w3.org/2000/svg"
   xmlns:sodipodi="http://sodipodi.sourceforge.net/DTD/sodipodi-0.dtd"
   xmlns:inkscape="http://www.inkscape.org/namespaces/inkscape"
   width="270.50781"
   height="287.35352"
   id="svg2"
   inkscape:label="Pozadí"
   sodipodi:version="0.32"
   inkscape:version="0.44.1"
   sodipodi:docbase="D:\Pracovní data\Martin Kozák\Projekty\Aktivní\Jazyky na Wikipedii CS\Znaky IPA\Křivky"
   sodipodi:docname="IPA Unicode 0x29A.svg"
   version="1.0">
  <defs
     id="defs1876" />
  <sodipodi:namedview
     id="base"
     pagecolor="#ffffff"
     bordercolor="#666666"
     borderopacity="1.0"
     inkscape:pageopacity="0.0"
     inkscape:pageshadow="2"
     inkscape:zoom="0.35"
     inkscape:cx="375"
     inkscape:cy="177.14286"
     inkscape:document-units="px"
     inkscape:current-layer="layer1"
     inkscape:window-width="1280"
     inkscape:window-height="968"
     inkscape:window-x="-4"
     inkscape:window-y="-4" />
  <metadata
     id="metadata1879">
    <rdf:RDF>
      <cc:Work
         rdf:about="">
        <dc:format>image/svg+xml</dc:format>
        <dc:type
           rdf:resource="http://purl.org/dc/dcmitype/StillImage" />
        <cc:license
           rdf:resource="http://web.resource.org/cc/PublicDomain" />
      </cc:Work>
      <cc:License
         rdf:about="http://web.resource.org/cc/PublicDomain">
        <cc:permits
           rdf:resource="http://web.resource.org/cc/Reproduction" />
        <cc:permits
           rdf:resource="http://web.resource.org/cc/Distribution" />
        <cc:permits
           rdf:resource="http://web.resource.org/cc/DerivativeWorks" />
      </cc:License>
    </rdf:RDF>
  </metadata>
  <g
     inkscape:label="Vrstva 1"
     inkscape:groupmode="layer"
     id="layer1"
     transform="translate(327.2077,354.789)">
    <path
       transform="translate(-23.36705,-155.4154)"
       style="font-size:500px;font-style:normal;font-weight:normal;fill:black;fill-opacity:1;stroke:none;stroke-width:1px;stroke-linecap:butt;stroke-linejoin:miter;stroke-opacity:1;font-family:DejaVu Sans"
       d="M -189.58286,-160.3111 C -208.95147,-160.31086 -224.25093,-156.56738 -235.48129,-149.08064 C -246.87461,-141.59343 -252.57122,-132.64162 -252.57114,-122.22517 C -252.57122,-110.83175 -247.03737,-101.47303 -235.96957,-94.148994 C -225.06473,-86.987368 -210.17217,-83.406643 -191.29184,-83.406807 L -153.45004,-83.406807 L -153.45004,-46.297432 L -189.58286,-46.297432 C -211.88115,-46.297305 -228.8896,-42.146918 -240.60825,-33.84626 C -253.30364,-24.731571 -259.65129,-13.012833 -259.65121,1.3099899 C -259.65129,15.958492 -252.81536,27.839991 -239.1434,36.954521 C -225.30887,46.069139 -206.10316,50.626426 -181.52621,50.626396 C -147.34671,50.626426 -121.79335,41.186332 -104.86606,22.306084 C -88.75302,4.2397541 -80.696387,-21.720506 -80.696136,-55.574776 C -80.696387,-88.940491 -88.75302,-114.90075 -104.86606,-133.45564 C -120.49127,-151.35905 -148.73017,-160.31086 -189.58286,-160.3111 L -189.58286,-160.3111 z M -193.24496,-199.3736 C -135.79073,-199.37332 -94.775149,-186.51526 -70.19809,-160.79939 C -45.621552,-135.24578 -33.333153,-100.17095 -33.332855,-55.574776 C -33.333153,-11.629371 -45.458792,23.282704 -69.709808,49.161552 C -93.961348,75.040465 -131.64035,87.979905 -182.74692,87.979912 C -221.48401,87.979905 -251.35051,80.574313 -272.34653,65.763115 C -293.34266,50.951947 -303.8407,29.467593 -303.84067,1.3099899 C -303.8407,-16.268038 -298.22547,-30.997841 -286.99496,-42.879463 C -275.76455,-54.760838 -260.05819,-62.65471 -239.87582,-66.561104 C -258.10506,-70.467202 -272.10245,-77.710034 -281.86801,-88.289619 C -291.63368,-98.706107 -296.51648,-111.48279 -296.51645,-126.6197 C -296.51648,-149.56869 -287.23915,-167.47231 -268.68442,-180.33064 C -250.29257,-193.02567 -225.14611,-199.37332 -193.24496,-199.3736 L -193.24496,-199.3736 z "
       id="text1870" />
  </g>
</svg>
