<?xml version="1.0" encoding="UTF-8" standalone="no"?>
<!-- Created with Inkscape (http://www.inkscape.org/) -->
<svg
   xmlns:dc="http://purl.org/dc/elements/1.1/"
   xmlns:cc="http://web.resource.org/cc/"
   xmlns:rdf="http://www.w3.org/1999/02/22-rdf-syntax-ns#"
   xmlns:svg="http://www.w3.org/2000/svg"
   xmlns="http://www.w3.org/2000/svg"
   xmlns:sodipodi="http://sodipodi.sourceforge.net/DTD/sodipodi-0.dtd"
   xmlns:inkscape="http://www.inkscape.org/namespaces/inkscape"
   width="206.29883"
   height="379.39453"
   id="svg2"
   inkscape:label="Pozadí"
   sodipodi:version="0.32"
   inkscape:version="0.44.1"
   sodipodi:docbase="D:\Pracovní data\Martin Kozák\Projekty\Aktivní\Jazyky na Wikipedii CS\Znaky IPA\Křivky"
   sodipodi:docname="IPA Unicode 0x296.svg"
   version="1.0">
  <defs
     id="defs1876" />
  <sodipodi:namedview
     id="base"
     pagecolor="#ffffff"
     bordercolor="#666666"
     borderopacity="1.0"
     inkscape:pageopacity="0.0"
     inkscape:pageshadow="2"
     inkscape:zoom="0.35"
     inkscape:cx="375"
     inkscape:cy="177.14286"
     inkscape:document-units="px"
     inkscape:current-layer="layer1"
     inkscape:window-width="1280"
     inkscape:window-height="968"
     inkscape:window-x="-4"
     inkscape:window-y="-4" />
  <metadata
     id="metadata1879">
    <rdf:RDF>
      <cc:Work
         rdf:about="">
        <dc:format>image/svg+xml</dc:format>
        <dc:type
           rdf:resource="http://purl.org/dc/dcmitype/StillImage" />
        <cc:license
           rdf:resource="http://web.resource.org/cc/PublicDomain" />
      </cc:Work>
      <cc:License
         rdf:about="http://web.resource.org/cc/PublicDomain">
        <cc:permits
           rdf:resource="http://web.resource.org/cc/Reproduction" />
        <cc:permits
           rdf:resource="http://web.resource.org/cc/Distribution" />
        <cc:permits
           rdf:resource="http://web.resource.org/cc/DerivativeWorks" />
      </cc:License>
    </rdf:RDF>
  </metadata>
  <g
     inkscape:label="Vrstva 1"
     inkscape:groupmode="layer"
     id="layer1"
     transform="translate(333.3112,453.9101)">
    <path
       transform="translate(-23.36705,-155.4154)"
       style="font-size:500px;font-style:normal;font-weight:normal;fill:black;fill-opacity:1;stroke:none;stroke-width:1px;stroke-linecap:butt;stroke-linejoin:miter;stroke-opacity:1;font-family:DejaVu Sans"
       d="M -248.42075,-103.67048 L -248.17661,-298.4947 L -198.8602,-298.4947 L -198.8602,-139.31501 C -171.19109,-134.43198 -148.24189,-122.30634 -130.01254,-102.93806 C -112.43464,-84.220444 -103.64558,-61.027108 -103.64536,-33.357979 C -103.64558,-3.0844573 -112.51602,22.224762 -130.25668,42.569756 C -152.7178,68.123154 -186.32779,80.899834 -231.08676,80.899834 C -244.92148,80.899834 -258.43058,79.434991 -271.61411,76.505302 C -284.79775,73.738383 -297.57443,69.506616 -309.94418,63.80999 L -309.94418,21.817802 C -297.24891,28.816552 -284.55361,34.024881 -271.85825,37.442802 C -259.00025,41.023571 -246.06081,42.813934 -233.03989,42.813896 C -203.9059,42.813934 -181.28222,33.5366 -165.16879,14.981865 C -155.89162,4.4025143 -151.17158,-11.710751 -151.00864,-33.357979 C -151.00882,-49.308369 -155.72886,-63.468512 -165.16879,-75.838448 C -179.16634,-94.39296 -201.79002,-103.67029 -233.03989,-103.67048 L -248.42075,-103.67048 z "
       id="text1870" />
  </g>
</svg>
