<?xml version="1.0" encoding="UTF-8" standalone="no"?>
<!-- Created with Inkscape (http://www.inkscape.org/) -->
<svg
   xmlns:dc="http://purl.org/dc/elements/1.1/"
   xmlns:cc="http://web.resource.org/cc/"
   xmlns:rdf="http://www.w3.org/1999/02/22-rdf-syntax-ns#"
   xmlns:svg="http://www.w3.org/2000/svg"
   xmlns="http://www.w3.org/2000/svg"
   xmlns:sodipodi="http://sodipodi.sourceforge.net/DTD/sodipodi-0.dtd"
   xmlns:inkscape="http://www.inkscape.org/namespaces/inkscape"
   width="244.62891"
   height="384.0332"
   id="svg2"
   inkscape:label="Pozadí"
   sodipodi:version="0.32"
   inkscape:version="0.44.1"
   sodipodi:docbase="D:\Pracovní data\Martin Kozák\Projekty\Aktivní\Jazyky na Wikipedii CS\Znaky IPA\Křivky\Nové"
   sodipodi:docname="IPA Unicode 0x0070.svg"
   version="1.0">
  <defs
     id="defs1876" />
  <sodipodi:namedview
     id="base"
     pagecolor="#ffffff"
     bordercolor="#666666"
     borderopacity="1.0"
     inkscape:pageopacity="0.0"
     inkscape:pageshadow="2"
     inkscape:zoom="0.35"
     inkscape:cx="375"
     inkscape:cy="62.857143"
     inkscape:document-units="px"
     inkscape:current-layer="layer1"
     inkscape:window-width="1280"
     inkscape:window-height="968"
     inkscape:window-x="-4"
     inkscape:window-y="-4" />
  <metadata
     id="metadata1879">
    <rdf:RDF>
      <cc:Work
         rdf:about="">
        <dc:format>image/svg+xml</dc:format>
        <dc:type
           rdf:resource="http://purl.org/dc/dcmitype/StillImage" />
        <cc:license
           rdf:resource="http://web.resource.org/cc/PublicDomain" />
      </cc:Work>
      <cc:License
         rdf:about="http://web.resource.org/cc/PublicDomain">
        <cc:permits
           rdf:resource="http://web.resource.org/cc/Reproduction" />
        <cc:permits
           rdf:resource="http://web.resource.org/cc/Distribution" />
        <cc:permits
           rdf:resource="http://web.resource.org/cc/DerivativeWorks" />
      </cc:License>
    </rdf:RDF>
  </metadata>
  <g
     inkscape:label="Vrstva 1"
     inkscape:groupmode="layer"
     id="layer1"
     transform="translate(309.3855,354.5449)">
    <path
       transform="translate(-23.36705,-155.4154)"
       style="font-size:500px;font-style:normal;font-weight:normal;fill:black;fill-opacity:1;stroke:none;stroke-width:1px;stroke-linecap:butt;stroke-linejoin:miter;stroke-opacity:1;font-family:DejaVu Sans"
       d="M -240.85239,39.884209 L -240.85239,184.90374 L -286.0184,184.90374 L -286.0184,-192.53767 L -240.85239,-192.53767 L -240.85239,-151.03376 C -231.41238,-167.30955 -219.49019,-179.3945 -205.08578,-187.28864 C -190.68163,-195.18225 -173.46973,-199.12918 -153.45004,-199.12946 C -120.24713,-199.12918 -93.269617,-185.9456 -72.517426,-159.57868 C -51.765752,-133.21128 -41.389786,-98.543346 -41.389496,-55.574776 C -41.389786,-12.605932 -51.765752,22.062002 -72.517426,48.429131 C -93.269617,74.796324 -120.24713,87.979905 -153.45004,87.979912 C -173.46973,87.979905 -190.68163,84.032969 -205.08578,76.139091 C -219.49019,68.245224 -231.41238,56.160275 -240.85239,39.884209 L -240.85239,39.884209 z M -88.020355,-55.574776 C -88.020599,-88.614971 -94.815839,-114.53454 -108.4061,-133.33356 C -121.9968,-152.13216 -140.67354,-161.53156 -164.43637,-161.53181 C -188.19953,-161.53156 -206.87627,-152.13216 -220.46664,-133.33356 C -234.05724,-114.53454 -240.85248,-88.614971 -240.85239,-55.574776 C -240.85248,-22.534308 -234.05724,3.3852628 -220.46664,22.184013 C -206.87627,40.982881 -188.19953,50.382286 -164.43637,50.382256 C -140.67354,50.382286 -121.9968,40.982881 -108.4061,22.184013 C -94.815839,3.3852628 -88.020599,-22.534308 -88.020355,-55.574776 L -88.020355,-55.574776 z "
       id="text1870" />
  </g>
</svg>
