<?xml version="1.0" encoding="UTF-8" standalone="no"?>
<!-- Created with Inkscape (http://www.inkscape.org/) -->

<svg
   xmlns:dc="http://purl.org/dc/elements/1.1/"
   xmlns:cc="http://creativecommons.org/ns#"
   xmlns:rdf="http://www.w3.org/1999/02/22-rdf-syntax-ns#"
   xmlns:svg="http://www.w3.org/2000/svg"
   xmlns="http://www.w3.org/2000/svg"
   xmlns:sodipodi="http://sodipodi.sourceforge.net/DTD/sodipodi-0.dtd"
   xmlns:inkscape="http://www.inkscape.org/namespaces/inkscape"
   width="229.00391"
   height="483.88672"
   id="svg2"
   inkscape:label="Pozadí"
   sodipodi:version="0.32"
   inkscape:version="0.48.2 r9819"
   sodipodi:docname="unicode-insert_0x0267.svg"
   version="1.0"
   inkscape:export-filename="/home/jspitzm/lyx/lyx-devel/lib/images/ipa/unicode-insert_0x0267.png"
   inkscape:export-xdpi="3.7198789"
   inkscape:export-ydpi="3.7198789">
  <defs
     id="defs1876" />
  <sodipodi:namedview
     id="base"
     pagecolor="#ffffff"
     bordercolor="#666666"
     borderopacity="1.0"
     inkscape:pageopacity="0.0"
     inkscape:pageshadow="2"
     inkscape:zoom="0.35"
     inkscape:cx="375"
     inkscape:cy="62.857143"
     inkscape:document-units="px"
     inkscape:current-layer="layer1"
     inkscape:window-width="1280"
     inkscape:window-height="968"
     inkscape:window-x="0"
     inkscape:window-y="0"
     showgrid="false"
     inkscape:window-maximized="0" />
  <metadata
     id="metadata1879">
    <rdf:RDF>
      <cc:Work
         rdf:about="">
        <dc:format>image/svg+xml</dc:format>
        <dc:type
           rdf:resource="http://purl.org/dc/dcmitype/StillImage" />
        <cc:license
           rdf:resource="http://web.resource.org/cc/PublicDomain" />
        <dc:title></dc:title>
      </cc:Work>
      <cc:License
         rdf:about="http://web.resource.org/cc/PublicDomain">
        <cc:permits
           rdf:resource="http://web.resource.org/cc/Reproduction" />
        <cc:permits
           rdf:resource="http://web.resource.org/cc/Distribution" />
        <cc:permits
           rdf:resource="http://web.resource.org/cc/DerivativeWorks" />
      </cc:License>
    </rdf:RDF>
  </metadata>
  <g
     inkscape:label="Vrstva 1"
     inkscape:groupmode="layer"
     id="layer1"
     transform="translate(309.3855,454.3984)">
    <path
       transform="translate(-23.36705,-155.4154)"
       style="font-size:500px;font-style:normal;font-weight:normal;fill:black;fill-opacity:1;stroke:none;stroke-width:1px;stroke-linecap:butt;stroke-linejoin:miter;stroke-opacity:1;font-family:DejaVu Sans"
       d="M -57.014496,-84.139229 L -57.014496,85.782646 C -57.01477,120.61334 -63.647251,145.84117 -76.911957,161.46624 C -90.177172,177.09114 -111.53946,184.90364 -140.99887,184.90374 L -203.01059,184.90374 L -203.01059,146.8178 L -146.12582,146.8178 C -129.03618,146.81774 -117.39882,142.8708 -111.21371,134.97698 C -105.02905,127.08306 -101.9366,110.68496 -101.93637,85.782646 L -101.93637,-82.674385 C -101.9366,-134.26922 -122.11887,-160.06672 -162.48325,-160.06696 C -186.73469,-160.06672 -205.85902,-152.33561 -219.85629,-136.8736 C -233.85379,-121.41116 -240.85248,-100.33371 -240.85239,-73.641182 L -240.85239,80.899834 L -286.0184,80.899834 L -286.0184,-199.86189 C -286.01845,-234.6923 -279.38597,-259.92014 -266.12094,-275.54548 C -252.85605,-291.17011 -231.49376,-298.9826 -202.03403,-298.98298 L -140.02231,-298.98298 L -140.02231,-260.89704 L -196.41879,-260.89704 C -213.50875,-260.8967 -225.1868,-256.94976 -231.45297,-249.05622 C -237.71934,-241.16202 -240.85248,-224.76392 -240.85239,-199.86189 L -240.85239,-150.0572 C -219.53088,-182.77178 -190.07128,-199.12918 -152.47348,-199.12946 C -121.06093,-199.12918 -97.297933,-189.40426 -81.184418,-169.95466 C -65.071403,-150.50456 -57.01477,-121.89944 -57.014496,-84.139229 L -57.014496,-84.139229 z "
       id="text1870" />
  </g>
</svg>
