<?xml version="1.0" encoding="UTF-8" standalone="no"?>
<!-- Created with Inkscape (http://www.inkscape.org/) -->

<svg
   xmlns:dc="http://purl.org/dc/elements/1.1/"
   xmlns:cc="http://creativecommons.org/ns#"
   xmlns:rdf="http://www.w3.org/1999/02/22-rdf-syntax-ns#"
   xmlns:svg="http://www.w3.org/2000/svg"
   xmlns="http://www.w3.org/2000/svg"
   xmlns:sodipodi="http://sodipodi.sourceforge.net/DTD/sodipodi-0.dtd"
   xmlns:inkscape="http://www.inkscape.org/namespaces/inkscape"
   width="250.97656"
   height="280.51758"
   id="svg2"
   inkscape:label="Pozadí"
   sodipodi:version="0.32"
   inkscape:version="0.48.2 r9819"
   sodipodi:docname="unicode-insert_0x0264.svg"
   version="1.0"
   inkscape:export-filename="/home/jspitzm/lyx/lyx-devel/lib/images/ipa/unicode-insert_0x0264.png"
   inkscape:export-xdpi="6.4167099"
   inkscape:export-ydpi="6.4167099">
  <defs
     id="defs1876" />
  <sodipodi:namedview
     id="base"
     pagecolor="#ffffff"
     bordercolor="#666666"
     borderopacity="1.0"
     inkscape:pageopacity="0.0"
     inkscape:pageshadow="2"
     inkscape:zoom="0.35"
     inkscape:cx="375"
     inkscape:cy="62.857143"
     inkscape:document-units="px"
     inkscape:current-layer="layer1"
     inkscape:window-width="1280"
     inkscape:window-height="968"
     inkscape:window-x="0"
     inkscape:window-y="0"
     showgrid="false"
     inkscape:window-maximized="0" />
  <metadata
     id="metadata1879">
    <rdf:RDF>
      <cc:Work
         rdf:about="">
        <dc:format>image/svg+xml</dc:format>
        <dc:type
           rdf:resource="http://purl.org/dc/dcmitype/StillImage" />
        <cc:license
           rdf:resource="http://web.resource.org/cc/PublicDomain" />
        <dc:title></dc:title>
      </cc:Work>
      <cc:License
         rdf:about="http://web.resource.org/cc/PublicDomain">
        <cc:permits
           rdf:resource="http://web.resource.org/cc/Reproduction" />
        <cc:permits
           rdf:resource="http://web.resource.org/cc/Distribution" />
        <cc:permits
           rdf:resource="http://web.resource.org/cc/DerivativeWorks" />
      </cc:License>
    </rdf:RDF>
  </metadata>
  <g
     inkscape:label="Vrstva 1"
     inkscape:groupmode="layer"
     id="layer1"
     transform="translate(331.3581,347.9531)">
    <path
       transform="translate(-23.36705,-155.4154)"
       style="font-size:500px;font-style:normal;font-weight:normal;fill:black;fill-opacity:1;stroke:none;stroke-width:1px;stroke-linecap:butt;stroke-linejoin:miter;stroke-opacity:1;font-family:DejaVu Sans"
       d="M -182.50278,-95.125557 L -109.99301,-192.53767 L -57.014496,-192.53767 L -154.18246,-62.166573 C -142.62666,-46.215925 -133.26795,-32.055783 -126.10629,-19.686104 C -114.87604,-0.15477277 -109.26081,14.65641 -109.26059,24.74749 C -109.26081,45.906379 -115.36432,61.734814 -127.57114,72.232841 C -139.77836,82.730887 -158.08889,87.979905 -182.50278,87.979912 C -206.91696,87.979905 -225.22749,82.730887 -237.43442,72.232841 C -249.64153,61.734814 -255.74504,45.906379 -255.74496,24.74749 C -255.74504,14.65641 -250.12981,-0.15477277 -238.89926,-19.686104 C -231.7379,-32.055783 -222.37919,-46.215925 -210.82309,-62.166573 L -307.99106,-192.53767 L -255.01254,-192.53767 L -182.50278,-95.125557 z M -182.50278,49.893974 C -171.59799,49.894005 -163.62274,47.696742 -158.577,43.302177 C -154.01988,39.395969 -151.74124,33.78074 -151.74106,26.456474 C -151.74124,21.08544 -154.91506,13.191568 -161.26254,2.7748337 C -166.30828,-5.3631009 -173.38835,-15.128716 -182.50278,-26.522041 C -191.6175,-15.128716 -198.69757,-5.3631009 -203.74301,2.7748337 C -210.09079,13.191568 -213.26461,21.08544 -213.2645,26.456474 C -213.26461,33.78074 -210.98597,39.395969 -206.42856,43.302177 C -201.38312,47.696742 -193.40786,49.894005 -182.50278,49.893974 L -182.50278,49.893974 z "
       id="text1870" />
  </g>
</svg>
