<?xml version="1.0" encoding="UTF-8" standalone="no"?>
<!-- Created with Inkscape (http://www.inkscape.org/) -->

<svg
   xmlns:dc="http://purl.org/dc/elements/1.1/"
   xmlns:cc="http://creativecommons.org/ns#"
   xmlns:rdf="http://www.w3.org/1999/02/22-rdf-syntax-ns#"
   xmlns:svg="http://www.w3.org/2000/svg"
   xmlns="http://www.w3.org/2000/svg"
   xmlns:sodipodi="http://sodipodi.sourceforge.net/DTD/sodipodi-0.dtd"
   xmlns:inkscape="http://www.inkscape.org/namespaces/inkscape"
   width="206.29883"
   height="379.39453"
   id="svg2"
   inkscape:label="Pozadí"
   sodipodi:version="0.32"
   inkscape:version="0.48.2 r9819"
   sodipodi:docname="unicode-insert_0x02a2.svg"
   version="1.0"
   inkscape:export-filename="/home/jspitzm/lyx/lyx-devel/lib/images/ipa/unicode-insert_0x02a2.png"
   inkscape:export-xdpi="4.7444015"
   inkscape:export-ydpi="4.7444015">
  <defs
     id="defs1876" />
  <sodipodi:namedview
     id="base"
     pagecolor="#ffffff"
     bordercolor="#666666"
     borderopacity="1.0"
     inkscape:pageopacity="0.0"
     inkscape:pageshadow="2"
     inkscape:zoom="0.35"
     inkscape:cx="375"
     inkscape:cy="177.14286"
     inkscape:document-units="px"
     inkscape:current-layer="layer1"
     inkscape:window-width="1280"
     inkscape:window-height="968"
     inkscape:window-x="0"
     inkscape:window-y="0"
     showgrid="false"
     inkscape:window-maximized="0" />
  <metadata
     id="metadata1879">
    <rdf:RDF>
      <cc:Work
         rdf:about="">
        <dc:format>image/svg+xml</dc:format>
        <dc:type
           rdf:resource="http://purl.org/dc/dcmitype/StillImage" />
        <cc:license
           rdf:resource="http://web.resource.org/cc/PublicDomain" />
        <dc:title></dc:title>
      </cc:Work>
      <cc:License
         rdf:about="http://web.resource.org/cc/PublicDomain">
        <cc:permits
           rdf:resource="http://web.resource.org/cc/Reproduction" />
        <cc:permits
           rdf:resource="http://web.resource.org/cc/Distribution" />
        <cc:permits
           rdf:resource="http://web.resource.org/cc/DerivativeWorks" />
      </cc:License>
    </rdf:RDF>
  </metadata>
  <g
     inkscape:label="Vrstva 1"
     inkscape:groupmode="layer"
     id="layer1"
     transform="translate(333.3112,453.9101)">
    <path
       transform="translate(-23.36705,-155.4154)"
       style="font-size:500px;font-style:normal;font-weight:normal;fill:black;fill-opacity:1;stroke:none;stroke-width:1px;stroke-linecap:butt;stroke-linejoin:miter;stroke-opacity:1;font-family:DejaVu Sans"
       d="M -271.12582,13.517021 L -271.12582,-26.522041 L -214.72934,-26.522041 L -214.72934,-78.279854 C -242.3987,-83.162502 -265.3479,-95.288141 -283.577,-114.65681 C -301.15515,-133.37404 -309.9442,-156.56738 -309.94418,-184.23689 C -309.9442,-214.51003 -300.99239,-239.81925 -283.08871,-260.16462 C -260.79061,-285.71764 -227.262,-298.49432 -182.50278,-298.4947 C -168.6683,-298.49432 -155.1592,-297.02948 -141.97543,-294.10017 C -128.79204,-291.33287 -116.01536,-287.1011 -103.64536,-281.40485 L -103.64536,-239.41267 C -116.34088,-246.41104 -129.11756,-251.61937 -141.97543,-255.03767 C -154.67092,-258.61806 -167.52898,-260.40842 -180.54965,-260.40876 C -209.68389,-260.40842 -232.30756,-251.13108 -248.42075,-232.57673 C -257.69816,-221.997 -262.41821,-205.88373 -262.5809,-184.23689 C -262.58097,-168.28612 -257.86092,-154.12597 -248.42075,-141.75642 C -234.42345,-123.20152 -211.79977,-113.92419 -180.54965,-113.92439 L -165.41293,-113.92439 L -165.41293,-26.522041 L -109.50473,-26.522041 L -109.50473,13.517021 L -165.41293,13.517021 L -165.41293,80.899834 L -214.72934,80.899834 L -214.72934,13.517021 L -271.12582,13.517021 z "
       id="text1870" />
  </g>
</svg>
