<?xml version="1.0" encoding="UTF-8" standalone="no"?>
<!-- Created with Inkscape (http://www.inkscape.org/) -->

<svg
   xmlns:dc="http://purl.org/dc/elements/1.1/"
   xmlns:cc="http://creativecommons.org/ns#"
   xmlns:rdf="http://www.w3.org/1999/02/22-rdf-syntax-ns#"
   xmlns:svg="http://www.w3.org/2000/svg"
   xmlns="http://www.w3.org/2000/svg"
   xmlns:sodipodi="http://sodipodi.sourceforge.net/DTD/sodipodi-0.dtd"
   xmlns:inkscape="http://www.inkscape.org/namespaces/inkscape"
   width="208.98438"
   height="384.0332"
   id="svg2"
   inkscape:label="Pozadí"
   sodipodi:version="0.32"
   inkscape:version="0.48.2 r9819"
   sodipodi:docname="0x0282.svg"
   version="1.0"
   inkscape:export-filename="/home/jspitzm/lyx/lyx-devel/lib/images/ipa/unicode-insert_0x0282.png"
   inkscape:export-xdpi="4.6870947"
   inkscape:export-ydpi="4.6870947">
  <defs
     id="defs1876" />
  <sodipodi:namedview
     id="base"
     pagecolor="#ffffff"
     bordercolor="#666666"
     borderopacity="1.0"
     inkscape:pageopacity="0.0"
     inkscape:pageshadow="2"
     inkscape:zoom="0.35"
     inkscape:cx="375"
     inkscape:cy="62.857143"
     inkscape:document-units="px"
     inkscape:current-layer="layer1"
     inkscape:window-width="1280"
     inkscape:window-height="968"
     inkscape:window-x="0"
     inkscape:window-y="0"
     showgrid="false"
     inkscape:window-maximized="0" />
  <metadata
     id="metadata1879">
    <rdf:RDF>
      <cc:Work
         rdf:about="">
        <dc:format>image/svg+xml</dc:format>
        <dc:type
           rdf:resource="http://purl.org/dc/dcmitype/StillImage" />
        <cc:license
           rdf:resource="http://web.resource.org/cc/PublicDomain" />
        <dc:title></dc:title>
      </cc:Work>
      <cc:License
         rdf:about="http://web.resource.org/cc/PublicDomain">
        <cc:permits
           rdf:resource="http://web.resource.org/cc/Reproduction" />
        <cc:permits
           rdf:resource="http://web.resource.org/cc/Distribution" />
        <cc:permits
           rdf:resource="http://web.resource.org/cc/DerivativeWorks" />
      </cc:License>
    </rdf:RDF>
  </metadata>
  <g
     inkscape:label="Vrstva 1"
     inkscape:groupmode="layer"
     id="layer1"
     transform="translate(327.696,354.5449)">
    <path
       transform="translate(-23.36705,-155.4154)"
       style="font-size:500px;font-style:normal;font-weight:normal;fill:black;fill-opacity:1;stroke:none;stroke-width:1px;stroke-linecap:butt;stroke-linejoin:miter;stroke-opacity:1;font-family:DejaVu Sans"
       d="M -109.99301,-184.48103 L -109.99301,-142.00056 C -122.68853,-148.51074 -135.87211,-153.39355 -149.54379,-156.64899 C -163.21584,-159.90396 -177.37598,-161.53156 -192.02426,-161.53181 C -214.32256,-161.53156 -231.04617,-158.1136 -242.19516,-151.2779 C -253.34433,-144.44174 -258.91887,-134.18784 -258.91879,-120.51618 C -258.91887,-110.09932 -254.93124,-101.92062 -246.9559,-95.980049 C -238.98073,-90.039123 -222.94885,-84.383204 -198.8602,-79.012276 L -183.47934,-75.594307 C -151.57848,-68.75822 -128.91411,-59.114675 -115.48618,-46.663643 C -102.05867,-34.212356 -95.34481,-16.837699 -95.344574,5.4603806 C -95.34481,30.851056 -105.39526,50.951947 -125.49594,65.763115 C -145.59704,80.574313 -173.22559,87.979905 -208.38168,87.979912 C -224.65783,87.979905 -239.9573,86.596443 -254.28012,83.829521 L -259.40707,82.852959 L -259.40707,85.782646 C -259.40715,110.68496 -256.3147,127.08306 -250.12973,134.97698 C -243.94492,142.8708 -232.30756,146.81774 -215.21762,146.8178 L -158.33286,146.8178 L -158.33286,184.90374 L -220.34457,184.90374 C -249.80429,184.90364 -271.16657,177.09114 -284.43149,161.46624 C -297.6965,145.84117 -304.32898,120.61334 -304.32895,85.782646 L -304.32895,24.503349 C -271.12588,41.755993 -238.81797,50.382286 -207.40512,50.382256 C -186.24641,50.382286 -169.97039,46.76087 -158.577,39.517998 C -147.18395,32.275208 -141.48734,22.062002 -141.48715,8.8783493 C -141.48734,-3.3285977 -145.59704,-12.687312 -153.81625,-19.197823 C -162.03582,-25.708133 -180.06152,-31.974402 -207.8934,-37.996651 L -223.5184,-41.65876 C -251.35051,-47.518007 -271.4514,-56.510511 -283.82114,-68.636299 C -296.19096,-80.761789 -302.37585,-97.404024 -302.37582,-118.56306 C -302.37585,-144.27898 -293.26128,-164.13573 -275.03207,-178.13337 C -256.80298,-192.13049 -230.9241,-199.12918 -197.39536,-199.12946 C -180.79394,-199.12918 -165.16896,-197.90848 -150.52036,-195.46735 C -135.87211,-193.02567 -122.36301,-189.36357 -109.99301,-184.48103 L -109.99301,-184.48103 z "
       id="text1870" />
  </g>
</svg>
