<?xml version="1.0" encoding="UTF-8" standalone="no"?>
<!-- Created with Inkscape (http://www.inkscape.org/) -->

<svg
   xmlns:dc="http://purl.org/dc/elements/1.1/"
   xmlns:cc="http://creativecommons.org/ns#"
   xmlns:rdf="http://www.w3.org/1999/02/22-rdf-syntax-ns#"
   xmlns:svg="http://www.w3.org/2000/svg"
   xmlns="http://www.w3.org/2000/svg"
   xmlns:sodipodi="http://sodipodi.sourceforge.net/DTD/sodipodi-0.dtd"
   xmlns:inkscape="http://www.inkscape.org/namespaces/inkscape"
   width="285.15625"
   height="384.0332"
   id="svg2"
   sodipodi:version="0.32"
   inkscape:version="0.48.2 r9819"
   version="1.0"
   sodipodi:docname="0x0273.svg"
   inkscape:export-filename="/home/jspitzm/lyx/lyx-devel/lib/images/ipa/unicode-insert_0x0273.png"
   inkscape:export-xdpi="4.6870947"
   inkscape:export-ydpi="4.6870947">
  <defs
     id="defs4" />
  <sodipodi:namedview
     id="base"
     pagecolor="#ffffff"
     bordercolor="#666666"
     borderopacity="1.0"
     inkscape:pageopacity="0.0"
     inkscape:pageshadow="2"
     inkscape:zoom="1"
     inkscape:cx="308.0369"
     inkscape:cy="171.63187"
     inkscape:document-units="px"
     inkscape:current-layer="layer1"
     inkscape:window-width="1280"
     inkscape:window-height="964"
     inkscape:window-x="0"
     inkscape:window-y="0"
     showgrid="false"
     inkscape:window-maximized="0" />
  <metadata
     id="metadata7">
    <rdf:RDF>
      <cc:Work
         rdf:about="">
        <dc:format>image/svg+xml</dc:format>
        <dc:type
           rdf:resource="http://purl.org/dc/dcmitype/StillImage" />
        <dc:title></dc:title>
      </cc:Work>
    </rdf:RDF>
  </metadata>
  <g
     inkscape:label="Capa 1"
     inkscape:groupmode="layer"
     id="layer1"
     transform="translate(-95.84766,-69.51466)">
    <path
       transform="translate(-41,-181)"
       style="font-size:500px"
       d="M 340.94922,611.11036 C 327.60263,595.48529 320.92946,570.25746 320.92969,535.42677 L 320.92969,366.96973 C 320.92946,341.09102 315.88389,321.72255 305.79297,308.86427 C 295.70162,296.00643 280.56492,289.5774 260.38281,289.57716 C 236.13137,289.5774 217.00704,297.30851 203.00977,312.77052 C 189.01227,328.23296 182.01358,349.31041 182.01367,376.00294 L 182.01367,530.54395 L 136.84766,530.54395 L 136.84766,257.10645 L 182.01367,257.10645 L 182.01367,299.58692 C 192.75576,283.14837 205.41037,270.85997 219.97754,262.72169 C 234.54445,254.58394 251.34945,250.51494 270.39258,250.51466 C 301.80513,250.51494 325.56813,260.23986 341.68164,279.68946 C 357.79466,299.13956 365.85129,327.74468 365.85156,365.50489 L 365.85156,535.42677 C 365.85129,560.32908 368.94373,576.76787 375.12891,584.74317 C 381.31351,592.55561 392.95087,596.46186 410.04102,596.46192 L 422.00391,596.46192 L 422.00391,634.54786 L 404.91406,634.54786 C 375.45414,634.54776 354.13255,626.73526 340.94922,611.11036 L 340.94922,611.11036 z "
       id="flowRoot1872" />
  </g>
</svg>
