<?xml version="1.0" encoding="UTF-8" standalone="no"?>
<!-- Created with Inkscape (http://www.inkscape.org/) -->

<svg
   xmlns:dc="http://purl.org/dc/elements/1.1/"
   xmlns:cc="http://creativecommons.org/ns#"
   xmlns:rdf="http://www.w3.org/1999/02/22-rdf-syntax-ns#"
   xmlns:svg="http://www.w3.org/2000/svg"
   xmlns="http://www.w3.org/2000/svg"
   xmlns:sodipodi="http://sodipodi.sourceforge.net/DTD/sodipodi-0.dtd"
   xmlns:inkscape="http://www.inkscape.org/namespaces/inkscape"
   width="278.56445"
   height="486.32813"
   id="svg2"
   inkscape:label="Pozadí"
   sodipodi:version="0.32"
   inkscape:version="0.48.2 r9819"
   sodipodi:docname="0x026e.svg"
   version="1.0"
   inkscape:export-filename="/home/jspitzm/lyx/lyx-devel/lib/images/ipa/unicode-insert_0x026e.png"
   inkscape:export-xdpi="3.7012048"
   inkscape:export-ydpi="3.7012048">
  <defs
     id="defs1876" />
  <sodipodi:namedview
     id="base"
     pagecolor="#ffffff"
     bordercolor="#666666"
     borderopacity="1.0"
     inkscape:pageopacity="0.0"
     inkscape:pageshadow="2"
     inkscape:zoom="0.35"
     inkscape:cx="375"
     inkscape:cy="62.857143"
     inkscape:document-units="px"
     inkscape:current-layer="layer1"
     inkscape:window-width="1280"
     inkscape:window-height="968"
     inkscape:window-x="0"
     inkscape:window-y="0"
     showgrid="false"
     inkscape:window-maximized="0" />
  <metadata
     id="metadata1879">
    <rdf:RDF>
      <cc:Work
         rdf:about="">
        <dc:format>image/svg+xml</dc:format>
        <dc:type
           rdf:resource="http://purl.org/dc/dcmitype/StillImage" />
        <cc:license
           rdf:resource="http://web.resource.org/cc/PublicDomain" />
        <dc:title></dc:title>
      </cc:Work>
      <cc:License
         rdf:about="http://web.resource.org/cc/PublicDomain">
        <cc:permits
           rdf:resource="http://web.resource.org/cc/Reproduction" />
        <cc:permits
           rdf:resource="http://web.resource.org/cc/Distribution" />
        <cc:permits
           rdf:resource="http://web.resource.org/cc/DerivativeWorks" />
      </cc:License>
    </rdf:RDF>
  </metadata>
  <g
     inkscape:label="Vrstva 1"
     inkscape:groupmode="layer"
     id="layer1"
     transform="translate(307.6765,454.3984)">
    <path
       transform="translate(-23.36705,-155.4154)"
       style="font-size:500px;font-style:normal;font-weight:normal;fill:black;fill-opacity:1;stroke:none;stroke-width:1px;stroke-linecap:butt;stroke-linejoin:miter;stroke-opacity:1;font-family:DejaVu Sans"
       d="M -127.57114,-35.311104 C -110.48151,-35.310988 -91.438564,-30.753701 -70.44223,-21.639229 C -54.329226,-14.640435 -39.355283,-2.3520362 -25.520355,15.226006 C -12.337081,32.153138 -5.7452903,51.847128 -5.7449646,74.308037 C -5.7452903,110.27806 -18.11507,138.11006 -42.85434,157.80413 C -67.594187,177.49804 -102.7504,187.34504 -148.32309,187.34515 C -163.62274,187.34504 -179.3291,185.8802 -195.44223,182.95061 C -211.71839,179.85807 -228.4827,175.30078 -245.7352,169.27874 L -245.7352,121.67132 C -232.06342,129.64653 -217.08948,135.66866 -200.81332,139.73772 C -184.53743,143.80667 -167.52898,145.84117 -149.78793,145.84124 C -118.86367,145.84117 -95.34481,139.73767 -79.231293,127.53069 C -62.95552,115.32363 -54.817507,97.58276 -54.81723,74.308037 C -54.817507,52.82369 -62.304479,35.978004 -77.278168,23.770927 C -92.089605,11.726726 -113.08568,5.7045964 -140.26645,5.7045212 L -182.74692,5.7045212 L -182.74692,-34.822823 L -77.766449,-156.64899 L -239.38754,-156.64899 L -239.38754,80.899834 L -284.30942,80.899834 L -284.30942,-298.98298 L -239.38754,-298.98298 L -239.38754,-192.53767 L -27.22934,-192.53767 L -27.22934,-151.52204 L -127.57114,-35.311104 z "
       id="text1870" />
  </g>
</svg>
