<?xml version="1.0" encoding="UTF-8" standalone="no"?>
<!-- Created with Inkscape (http://www.inkscape.org/) -->

<svg
   xmlns:dc="http://purl.org/dc/elements/1.1/"
   xmlns:cc="http://creativecommons.org/ns#"
   xmlns:rdf="http://www.w3.org/1999/02/22-rdf-syntax-ns#"
   xmlns:svg="http://www.w3.org/2000/svg"
   xmlns="http://www.w3.org/2000/svg"
   xmlns:sodipodi="http://sodipodi.sourceforge.net/DTD/sodipodi-0.dtd"
   xmlns:inkscape="http://www.inkscape.org/namespaces/inkscape"
   width="216.30859"
   height="287.10938"
   id="svg2"
   inkscape:label="Pozadí"
   sodipodi:version="0.32"
   inkscape:version="0.48.2 r9819"
   sodipodi:docname="unicode-insert_0x0254.svg"
   version="1.0"
   inkscape:export-filename="/home/jspitzm/lyx/lyx-devel/lib/images/ipa/unicode-insert_0x0254.png"
   inkscape:export-xdpi="6.2693877"
   inkscape:export-ydpi="6.2693877">
  <defs
     id="defs1876" />
  <sodipodi:namedview
     id="base"
     pagecolor="#ffffff"
     bordercolor="#666666"
     borderopacity="1.0"
     inkscape:pageopacity="0.0"
     inkscape:pageshadow="2"
     inkscape:zoom="0.35"
     inkscape:cx="375"
     inkscape:cy="62.857143"
     inkscape:document-units="px"
     inkscape:current-layer="layer1"
     inkscape:window-width="1280"
     inkscape:window-height="968"
     inkscape:window-x="0"
     inkscape:window-y="0"
     showgrid="false"
     inkscape:window-maximized="0" />
  <metadata
     id="metadata1879">
    <rdf:RDF>
      <cc:Work
         rdf:about="">
        <dc:format>image/svg+xml</dc:format>
        <dc:type
           rdf:resource="http://purl.org/dc/dcmitype/StillImage" />
        <cc:license
           rdf:resource="http://web.resource.org/cc/PublicDomain" />
        <dc:title></dc:title>
      </cc:Work>
      <cc:License
         rdf:about="http://web.resource.org/cc/PublicDomain">
        <cc:permits
           rdf:resource="http://web.resource.org/cc/Reproduction" />
        <cc:permits
           rdf:resource="http://web.resource.org/cc/Distribution" />
        <cc:permits
           rdf:resource="http://web.resource.org/cc/DerivativeWorks" />
      </cc:License>
    </rdf:RDF>
  </metadata>
  <g
     inkscape:label="Vrstva 1"
     inkscape:groupmode="layer"
     id="layer1"
     transform="translate(323.7897,354.5449)">
    <path
       transform="translate(-23.36705,-155.4154)"
       style="font-size:500px;font-style:normal;font-weight:normal;fill:black;fill-opacity:1;stroke:none;stroke-width:1px;stroke-linecap:butt;stroke-linejoin:miter;stroke-opacity:1;font-family:DejaVu Sans"
       d="M -300.4227,-182.03962 C -288.05295,-187.73597 -275.27627,-192.04911 -262.09262,-194.97907 C -248.90911,-197.74572 -235.40001,-199.12918 -221.56528,-199.12946 C -178.9222,-199.12918 -145.39359,-186.3525 -120.97934,-160.79939 C -96.402752,-135.24578 -84.114353,-100.17095 -84.114105,-55.574776 C -84.114353,-11.629371 -96.239991,23.282704 -120.49106,49.161552 C -144.74255,75.040465 -177.45736,87.979905 -218.63559,87.979912 C -233.77241,87.979905 -248.09531,86.515062 -261.60434,83.585381 C -274.95075,80.655693 -287.89019,76.261166 -300.4227,70.401787 L -300.4227,28.897881 C -287.72743,35.896623 -274.95075,41.186332 -262.09262,44.767021 C -249.39739,48.185023 -236.53933,49.894005 -223.5184,49.893974 C -194.38442,49.894005 -171.76075,40.698051 -155.64731,22.306084 C -139.53422,3.7514733 -131.47759,-22.208787 -131.47739,-55.574776 C -131.47759,-88.940491 -139.53422,-114.90075 -155.64731,-133.45564 C -171.76075,-151.84733 -194.38442,-161.04328 -223.5184,-161.04353 C -236.53933,-161.04328 -249.39739,-159.3343 -262.09262,-155.91657 C -274.95075,-152.33561 -287.72743,-147.0459 -300.4227,-140.04743 L -300.4227,-182.03962 z "
       id="text1870" />
  </g>
</svg>
