<?xml version="1.0" encoding="UTF-8" standalone="no"?>
<!-- Created with Inkscape (http://www.inkscape.org/) -->

<svg
   xmlns:dc="http://purl.org/dc/elements/1.1/"
   xmlns:cc="http://creativecommons.org/ns#"
   xmlns:rdf="http://www.w3.org/1999/02/22-rdf-syntax-ns#"
   xmlns:svg="http://www.w3.org/2000/svg"
   xmlns="http://www.w3.org/2000/svg"
   xmlns:sodipodi="http://sodipodi.sourceforge.net/DTD/sodipodi-0.dtd"
   xmlns:inkscape="http://www.inkscape.org/namespaces/inkscape"
   width="253.41797"
   height="287.10938"
   id="svg2"
   inkscape:label="Pozadí"
   sodipodi:version="0.32"
   inkscape:version="0.48.2 r9819"
   sodipodi:docname="unicode-insert_0x0259.svg"
   version="1.0"
   inkscape:export-filename="/home/jspitzm/lyx/lyx-devel/lib/images/ipa/unicode-insert_0x0259.png"
   inkscape:export-xdpi="6.2693877"
   inkscape:export-ydpi="6.2693877">
  <defs
     id="defs1876" />
  <sodipodi:namedview
     id="base"
     pagecolor="#ffffff"
     bordercolor="#666666"
     borderopacity="1.0"
     inkscape:pageopacity="0.0"
     inkscape:pageshadow="2"
     inkscape:zoom="0.35"
     inkscape:cx="375"
     inkscape:cy="62.857143"
     inkscape:document-units="px"
     inkscape:current-layer="layer1"
     inkscape:window-width="1280"
     inkscape:window-height="968"
     inkscape:window-x="0"
     inkscape:window-y="0"
     showgrid="false"
     inkscape:window-maximized="0" />
  <metadata
     id="metadata1879">
    <rdf:RDF>
      <cc:Work
         rdf:about="">
        <dc:format>image/svg+xml</dc:format>
        <dc:type
           rdf:resource="http://purl.org/dc/dcmitype/StillImage" />
        <cc:license
           rdf:resource="http://web.resource.org/cc/PublicDomain" />
        <dc:title></dc:title>
      </cc:Work>
      <cc:License
         rdf:about="http://web.resource.org/cc/PublicDomain">
        <cc:permits
           rdf:resource="http://web.resource.org/cc/Reproduction" />
        <cc:permits
           rdf:resource="http://web.resource.org/cc/Distribution" />
        <cc:permits
           rdf:resource="http://web.resource.org/cc/DerivativeWorks" />
      </cc:License>
    </rdf:RDF>
  </metadata>
  <g
     inkscape:label="Vrstva 1"
     inkscape:groupmode="layer"
     id="layer1"
     transform="translate(327.2077,354.5449)">
    <path
       transform="translate(-23.36705,-155.4154)"
       style="font-size:500px;font-style:normal;font-weight:normal;fill:black;fill-opacity:1;stroke:none;stroke-width:1px;stroke-linecap:butt;stroke-linejoin:miter;stroke-opacity:1;font-family:DejaVu Sans"
       d="M -303.84067,-44.100166 L -303.84067,-66.072823 L -97.297699,-66.072823 C -99.251056,-96.997124 -108.56908,-120.55667 -125.2518,-136.75153 C -141.93493,-152.94596 -165.16896,-161.04328 -194.95395,-161.04353 C -212.20667,-161.04328 -228.93029,-158.9274 -245.12485,-154.69587 C -261.31958,-150.46387 -277.39215,-144.11622 -293.34262,-135.6529 L -293.34262,-178.13337 C -277.22939,-184.96904 -260.70923,-190.17737 -243.78207,-193.75837 C -226.8551,-197.33882 -209.68389,-199.12918 -192.2684,-199.12946 C -148.64879,-199.12918 -114.10293,-186.43388 -88.630707,-161.04353 C -63.15897,-135.65268 -50.42298,-101.31027 -50.422699,-58.016182 C -50.42298,-13.256973 -62.507929,22.265452 -86.677582,48.551201 C -110.84772,74.837014 -143.44047,87.979905 -184.4559,87.979912 C -221.23987,87.979905 -250.33326,76.139096 -271.73618,52.457451 C -293.13921,28.775862 -303.8407,-3.4099778 -303.84067,-44.100166 L -303.84067,-44.100166 z M -258.91879,-30.916573 C -258.59334,-6.3396624 -251.71672,13.272948 -238.28891,27.921318 C -224.86128,42.569794 -207.07972,49.894005 -184.94418,49.893974 C -159.87925,49.894005 -139.81905,42.813934 -124.76352,28.65374 C -109.7084,14.49365 -101.04142,-5.444481 -98.762543,-31.160713 L -258.91879,-30.916573 z "
       id="text1870" />
  </g>
</svg>
