<?xml version="1.0" encoding="UTF-8" standalone="no"?>
<!-- Created with Inkscape (http://www.inkscape.org/) -->
<svg
   xmlns:dc="http://purl.org/dc/elements/1.1/"
   xmlns:cc="http://web.resource.org/cc/"
   xmlns:rdf="http://www.w3.org/1999/02/22-rdf-syntax-ns#"
   xmlns:svg="http://www.w3.org/2000/svg"
   xmlns="http://www.w3.org/2000/svg"
   xmlns:sodipodi="http://sodipodi.sourceforge.net/DTD/sodipodi-0.dtd"
   xmlns:inkscape="http://www.inkscape.org/namespaces/inkscape"
   width="377.19727"
   height="358.1543"
   id="svg2"
   inkscape:label="Pozadí"
   sodipodi:version="0.32"
   inkscape:version="0.44.1"
   sodipodi:docbase="D:\Pracovní data\Martin Kozák\Projekty\Aktivní\Jazyky na Wikipedii CS\Znaky IPA\Křivky"
   sodipodi:docname="IPA Unicode 0x2A6.svg"
   version="1.0">
  <defs
     id="defs1876" />
  <sodipodi:namedview
     id="base"
     pagecolor="#ffffff"
     bordercolor="#666666"
     borderopacity="1.0"
     inkscape:pageopacity="0.0"
     inkscape:pageshadow="2"
     inkscape:zoom="0.35"
     inkscape:cx="375"
     inkscape:cy="177.14286"
     inkscape:document-units="px"
     inkscape:current-layer="layer1"
     inkscape:window-width="1280"
     inkscape:window-height="968"
     inkscape:window-x="-4"
     inkscape:window-y="-4" />
  <metadata
     id="metadata1879">
    <rdf:RDF>
      <cc:Work
         rdf:about="">
        <dc:format>image/svg+xml</dc:format>
        <dc:type
           rdf:resource="http://purl.org/dc/dcmitype/StillImage" />
        <cc:license
           rdf:resource="http://web.resource.org/cc/PublicDomain" />
      </cc:Work>
      <cc:License
         rdf:about="http://web.resource.org/cc/PublicDomain">
        <cc:permits
           rdf:resource="http://web.resource.org/cc/Reproduction" />
        <cc:permits
           rdf:resource="http://web.resource.org/cc/Distribution" />
        <cc:permits
           rdf:resource="http://web.resource.org/cc/DerivativeWorks" />
      </cc:License>
    </rdf:RDF>
  </metadata>
  <g
     inkscape:label="Vrstva 1"
     inkscape:groupmode="layer"
     id="layer1"
     transform="translate(341.3679,425.5898)">
    <path
       transform="translate(-23.36705,-155.4154)"
       style="font-size:500px;font-style:normal;font-weight:normal;fill:black;fill-opacity:1;stroke:none;stroke-width:1px;stroke-linecap:butt;stroke-linejoin:miter;stroke-opacity:1;font-family:DejaVu Sans"
       d="M 44.548004,-184.48103 L 44.548004,-142.00056 C 31.852328,-148.51074 18.668748,-153.39355 4.9972229,-156.64899 C -8.6749749,-159.90396 -22.835117,-161.53156 -37.483246,-161.53181 C -59.781695,-161.53156 -76.546001,-158.1136 -87.776215,-151.2779 C -98.844156,-144.44174 -104.378,-134.18784 -104.37778,-120.51618 C -104.378,-110.09932 -100.39038,-101.87993 -92.414886,-95.857979 C -84.439873,-89.998433 -68.407988,-84.383204 -44.319183,-79.012276 L -28.938324,-75.594307 C 3.2879038,-68.432699 25.992959,-58.748464 39.17691,-46.541573 C 52.522881,-34.171666 59.196051,-16.837699 59.196442,5.4603806 C 59.196051,30.851056 49.104915,50.951947 28.923004,65.763115 C 8.9031326,80.574313 -18.68473,87.979905 -53.840668,87.979912 C -68.489368,87.979905 -83.707452,86.596443 -99.494965,83.829521 C -114.6319,81.062594 -130.58241,76.993588 -147.34653,71.62249 L -147.34653,80.899834 L -193.48911,80.899834 C -228.15718,80.899834 -252.08293,74.389424 -265.26645,61.368584 C -278.4501,48.510543 -285.04189,24.991686 -285.04184,-9.1880569 L -285.04184,-157.62556 L -318.00082,-157.62556 L -318.00082,-192.53767 L -285.04184,-192.53767 L -285.04184,-270.17439 L -239.87582,-270.17439 L -239.87582,-192.53767 L -147.34653,-192.53767 L -147.34653,-157.62556 L -239.87582,-157.62556 L -239.87582,-9.1880569 C -239.87592,13.110188 -236.86485,27.43309 -230.84262,33.780693 C -224.65783,40.12839 -212.20667,43.302215 -193.48911,43.302177 L -149.78793,43.302177 L -149.78793,24.503349 C -133.18657,33.129699 -116.82916,39.558729 -100.71567,43.790459 C -84.602633,48.185023 -68.652128,50.382286 -52.864105,50.382256 C -31.705551,50.382286 -15.429525,46.72018 -4.0359802,39.395927 C 7.3569102,32.234518 13.053519,22.062002 13.053864,8.8783493 C 13.053519,-3.3285977 8.9031326,-12.687312 0.60269165,-19.197823 C -6.5590916,-25.057092 -24.5441,-31.323361 -53.352386,-37.996651 L -68.977386,-41.65876 C -96.809652,-47.518007 -116.91054,-56.469821 -129.28012,-68.514229 C -141.6501,-80.721098 -147.83499,-97.404024 -147.83481,-118.56306 C -147.83499,-144.27898 -138.72042,-164.13573 -120.49106,-178.13337 C -102.26212,-192.13049 -76.38324,-199.12918 -42.85434,-199.12946 C -26.253082,-199.12918 -10.628098,-197.90848 4.0206604,-195.46735 C 18.668748,-193.02567 32.177849,-189.36357 44.548004,-184.48103 L 44.548004,-184.48103 z "
       id="text1870" />
  </g>
</svg>
