<?xml version="1.0" encoding="UTF-8" standalone="no"?>
<!-- Created with Inkscape (http://www.inkscape.org/) -->

<svg
   xmlns:dc="http://purl.org/dc/elements/1.1/"
   xmlns:cc="http://creativecommons.org/ns#"
   xmlns:rdf="http://www.w3.org/1999/02/22-rdf-syntax-ns#"
   xmlns:svg="http://www.w3.org/2000/svg"
   xmlns="http://www.w3.org/2000/svg"
   xmlns:sodipodi="http://sodipodi.sourceforge.net/DTD/sodipodi-0.dtd"
   xmlns:inkscape="http://www.inkscape.org/namespaces/inkscape"
   width="399.16992"
   height="280.0293"
   id="svg2"
   inkscape:label="Pozadí"
   sodipodi:version="0.32"
   inkscape:version="0.48.2 r9819"
   sodipodi:docname="0x006d.svg"
   version="1.0"
   inkscape:export-filename="/home/jspitzm/lyx/lyx-devel/lib/images/ipa/unicode-insert_0x006d.png"
   inkscape:export-xdpi="4.5093575"
   inkscape:export-ydpi="4.5093575">
  <defs
     id="defs1876" />
  <sodipodi:namedview
     id="base"
     pagecolor="#ffffff"
     bordercolor="#666666"
     borderopacity="1.0"
     inkscape:pageopacity="0.0"
     inkscape:pageshadow="2"
     inkscape:zoom="0.35"
     inkscape:cx="375"
     inkscape:cy="62.857143"
     inkscape:document-units="px"
     inkscape:current-layer="layer1"
     inkscape:window-width="1280"
     inkscape:window-height="968"
     inkscape:window-x="0"
     inkscape:window-y="0"
     showgrid="false"
     inkscape:window-maximized="0" />
  <metadata
     id="metadata1879">
    <rdf:RDF>
      <cc:Work
         rdf:about="">
        <dc:format>image/svg+xml</dc:format>
        <dc:type
           rdf:resource="http://purl.org/dc/dcmitype/StillImage" />
        <cc:license
           rdf:resource="http://web.resource.org/cc/PublicDomain" />
        <dc:title></dc:title>
      </cc:Work>
      <cc:License
         rdf:about="http://web.resource.org/cc/PublicDomain">
        <cc:permits
           rdf:resource="http://web.resource.org/cc/Reproduction" />
        <cc:permits
           rdf:resource="http://web.resource.org/cc/Distribution" />
        <cc:permits
           rdf:resource="http://web.resource.org/cc/DerivativeWorks" />
      </cc:License>
    </rdf:RDF>
  </metadata>
  <g
     inkscape:label="Vrstva 1"
     inkscape:groupmode="layer"
     id="layer1"
     transform="translate(309.3855,354.5449)">
    <path
       transform="translate(-23.36705,-155.4154)"
       style="font-size:500px;font-style:normal;font-weight:normal;fill:black;fill-opacity:1;stroke:none;stroke-width:1px;stroke-linecap:butt;stroke-linejoin:miter;stroke-opacity:1;font-family:DejaVu Sans"
       d="M -71.418793,-140.04743 C -60.188595,-160.22948 -46.760874,-175.12205 -31.13559,-184.72517 C -15.510906,-194.32776 2.8810032,-199.12918 24.040192,-199.12946 C 52.522881,-199.12918 74.495515,-189.16012 89.95816,-169.22224 C 105.41996,-149.28386 113.15108,-120.92288 113.15152,-84.139229 L 113.15152,80.899834 L 67.985504,80.899834 L 67.985504,-82.674385 C 67.985105,-108.87862 63.346437,-128.32847 54.069489,-141.02399 C 44.791769,-153.71907 30.631626,-160.06672 11.58902,-160.06696 C -11.68604,-160.06672 -30.077948,-152.33561 -43.586761,-136.8736 C -57.09615,-121.41116 -63.850701,-100.33371 -63.850433,-73.641182 L -63.850433,80.899834 L -109.01645,80.899834 L -109.01645,-82.674385 C -109.01667,-109.04138 -113.65534,-128.53192 -122.93246,-141.14606 C -132.21001,-153.75976 -146.53291,-160.06672 -165.90121,-160.06696 C -188.85058,-160.06672 -207.07972,-152.29492 -220.58871,-136.75153 C -234.09793,-121.20771 -240.85248,-100.17095 -240.85239,-73.641182 L -240.85239,80.899834 L -286.0184,80.899834 L -286.0184,-192.53767 L -240.85239,-192.53767 L -240.85239,-150.0572 C -230.59858,-166.82127 -218.31018,-179.19105 -203.98715,-187.16657 C -189.66438,-195.14156 -172.65593,-199.12918 -152.96176,-199.12946 C -133.10519,-199.12918 -116.21881,-194.08362 -102.30258,-183.99274 C -88.386809,-173.90134 -78.092223,-159.25292 -71.418793,-140.04743 L -71.418793,-140.04743 z "
       id="text1870" />
  </g>
</svg>
