<?xml version="1.0" encoding="UTF-8" standalone="no"?>
<!-- Created with Inkscape (http://www.inkscape.org/) -->
<svg
   xmlns:dc="http://purl.org/dc/elements/1.1/"
   xmlns:cc="http://web.resource.org/cc/"
   xmlns:rdf="http://www.w3.org/1999/02/22-rdf-syntax-ns#"
   xmlns:svg="http://www.w3.org/2000/svg"
   xmlns="http://www.w3.org/2000/svg"
   xmlns:sodipodi="http://sodipodi.sourceforge.net/DTD/sodipodi-0.dtd"
   xmlns:inkscape="http://www.inkscape.org/namespaces/inkscape"
   width="251.95313"
   height="386.96289"
   id="svg2"
   inkscape:label="Pozadí"
   sodipodi:version="0.32"
   inkscape:version="0.44.1"
   sodipodi:docbase="D:\Pracovní data\Martin Kozák\Projekty\Aktivní\Jazyky na Wikipedii CS\Znaky IPA\Křivky"
   sodipodi:docname="IPA Unicode 0x2AA.svg"
   version="1.0">
  <defs
     id="defs1876" />
  <sodipodi:namedview
     id="base"
     pagecolor="#ffffff"
     bordercolor="#666666"
     borderopacity="1.0"
     inkscape:pageopacity="0.0"
     inkscape:pageshadow="2"
     inkscape:zoom="0.35"
     inkscape:cx="375"
     inkscape:cy="177.14286"
     inkscape:document-units="px"
     inkscape:current-layer="layer1"
     inkscape:window-width="1280"
     inkscape:window-height="968"
     inkscape:window-x="-4"
     inkscape:window-y="-4" />
  <metadata
     id="metadata1879">
    <rdf:RDF>
      <cc:Work
         rdf:about="">
        <dc:format>image/svg+xml</dc:format>
        <dc:type
           rdf:resource="http://purl.org/dc/dcmitype/StillImage" />
        <cc:license
           rdf:resource="http://web.resource.org/cc/PublicDomain" />
      </cc:Work>
      <cc:License
         rdf:about="http://web.resource.org/cc/PublicDomain">
        <cc:permits
           rdf:resource="http://web.resource.org/cc/Reproduction" />
        <cc:permits
           rdf:resource="http://web.resource.org/cc/Distribution" />
        <cc:permits
           rdf:resource="http://web.resource.org/cc/DerivativeWorks" />
      </cc:License>
    </rdf:RDF>
  </metadata>
  <g
     inkscape:label="Vrstva 1"
     inkscape:groupmode="layer"
     id="layer1"
     transform="translate(307.6765,454.3984)">
    <path
       transform="translate(-23.36705,-155.4154)"
       style="font-size:500px;font-style:normal;font-weight:normal;fill:black;fill-opacity:1;stroke:none;stroke-width:1px;stroke-linecap:butt;stroke-linejoin:miter;stroke-opacity:1;font-family:DejaVu Sans"
       d="M -47.00473,-184.48103 L -47.00473,-142.00056 C -59.700314,-148.51074 -72.883895,-153.39355 -86.555511,-156.64899 C -100.22762,-159.90396 -114.38776,-161.53156 -129.03598,-161.53181 C -151.33434,-161.53156 -168.01726,-158.1136 -179.08481,-151.2779 C -190.31542,-144.44174 -195.93065,-134.18784 -195.93051,-120.51618 C -195.93065,-110.09932 -191.94302,-101.87993 -183.96762,-95.857979 C -175.99252,-89.998433 -159.96063,-84.383204 -135.87192,-79.012276 L -120.49106,-75.594307 C -88.264739,-68.432699 -65.641064,-58.748464 -52.619965,-46.541573 C -39.111142,-34.171666 -32.356592,-16.837699 -32.356293,5.4603806 C -32.356592,30.851056 -42.366347,50.951947 -62.38559,65.763115 C -82.56813,80.574313 -110.23737,87.979905 -145.3934,87.979912 C -160.04201,87.979905 -175.34147,86.596443 -191.29184,83.829521 C -206.42868,81.062594 -222.46057,76.993588 -239.38754,71.62249 L -239.38754,80.899834 L -284.30942,80.899834 L -284.30942,-298.98298 L -239.38754,-298.98298 L -239.38754,-118.56306 C -239.38763,-144.27898 -230.27306,-164.13573 -212.04379,-178.13337 C -193.81476,-192.13049 -167.93588,-199.12918 -134.40707,-199.12946 C -117.80573,-199.12918 -102.18074,-197.90848 -87.532074,-195.46735 C -72.883895,-193.02567 -59.374794,-189.36357 -47.00473,-184.48103 L -47.00473,-184.48103 z M -239.38754,-118.56306 L -239.38754,25.479912 C -223.43713,33.61798 -207.73077,39.721489 -192.2684,43.790459 C -176.15528,48.185023 -160.20477,50.382286 -144.41684,50.382256 C -123.25819,50.382286 -106.98217,46.72018 -95.588715,39.395927 C -84.195733,32.234518 -78.499124,22.062002 -78.498871,8.8783493 C -78.499124,-3.3285977 -82.56813,-12.687312 -90.705902,-19.197823 C -98.030354,-25.057092 -116.09674,-31.323361 -144.90512,-37.996651 L -160.53012,-41.65876 C -188.3623,-47.518007 -208.46319,-56.469821 -220.83286,-68.514229 C -233.20275,-80.721098 -239.38763,-97.404024 -239.38754,-118.56306 L -239.38754,-118.56306 z "
       id="text1870" />
  </g>
</svg>
