<?xml version="1.0" encoding="UTF-8" standalone="no"?>
<!-- Created with Inkscape (http://www.inkscape.org/) -->

<svg
   xmlns:dc="http://purl.org/dc/elements/1.1/"
   xmlns:cc="http://creativecommons.org/ns#"
   xmlns:rdf="http://www.w3.org/1999/02/22-rdf-syntax-ns#"
   xmlns:svg="http://www.w3.org/2000/svg"
   xmlns="http://www.w3.org/2000/svg"
   xmlns:sodipodi="http://sodipodi.sourceforge.net/DTD/sodipodi-0.dtd"
   xmlns:inkscape="http://www.inkscape.org/namespaces/inkscape"
   version="1.0"
   width="230.95703"
   height="287.10938"
   id="svg1905"
   inkscape:version="0.48.2 r9819"
   sodipodi:docname="unicode-insert_0x0061.svg"
   inkscape:export-filename="/home/jspitzm/lyx/lyx-devel/lib/images/ipa/unicode-insert_0x0061.png"
   inkscape:export-xdpi="6.2693877"
   inkscape:export-ydpi="6.2693877">
  <metadata
     id="metadata8">
    <rdf:RDF>
      <cc:Work
         rdf:about="">
        <dc:format>image/svg+xml</dc:format>
        <dc:type
           rdf:resource="http://purl.org/dc/dcmitype/StillImage" />
        <dc:title></dc:title>
      </cc:Work>
    </rdf:RDF>
  </metadata>
  <sodipodi:namedview
     pagecolor="#ffffff"
     bordercolor="#666666"
     borderopacity="1"
     objecttolerance="10"
     gridtolerance="10"
     guidetolerance="10"
     inkscape:pageopacity="0"
     inkscape:pageshadow="2"
     inkscape:window-width="640"
     inkscape:window-height="480"
     id="namedview6"
     showgrid="false"
     inkscape:zoom="0.82198639"
     inkscape:cx="115.47852"
     inkscape:cy="143.55469"
     inkscape:window-x="0"
     inkscape:window-y="0"
     inkscape:window-maximized="0"
     inkscape:current-layer="svg1905" />
  <defs
     id="defs1907" />
  <g
     transform="translate(-55.4668,-51.23341)"
     id="layer1">
    <path
       d="M 122.82422,198.81153 C 86.528511,198.81167 61.382052,202.96206 47.384766,211.2627 C 33.387288,219.5636 26.388597,233.72374 26.388672,253.74317 C 26.388597,269.69376 31.637615,282.34837 42.135742,291.70704 C 52.633688,301.0658 66.9159,305.74516 84.982422,305.74513 C 109.88461,305.74516 129.86343,296.91541 144.91895,279.25587 C 159.97408,261.59644 167.50174,238.11827 167.50195,208.8213 L 167.50195,198.81153 L 122.82422,198.81153 z M 212.42383,180.25684 L 212.42383,336.2627 L 167.50195,336.2627 L 167.50195,294.7588 C 157.24784,311.36038 144.47116,323.60809 129.17188,331.50196 C 113.87223,339.39584 95.154804,343.34277 73.019531,343.34278 C 45.024646,343.34277 22.767181,335.48959 6.2470703,319.78321 C -10.27315,304.07686 -18.533233,283.0401 -18.533203,256.67286 C -18.533233,225.91125 -8.2386471,202.71791 12.350586,187.09278 C 32.939697,171.46795 63.660695,163.65545 104.51367,163.65528 L 167.50195,163.65528 L 167.50195,159.26075 C 167.50174,138.59037 160.7065,122.59918 147.11621,111.28712 C 133.52553,99.975505 114.44189,94.319586 89.865234,94.319344 C 74.240112,94.319586 59.022028,96.191329 44.210938,99.934578 C 29.399662,103.6783 15.158139,109.29353 1.4863281,116.78028 L 1.4863281,75.276375 C 17.925064,68.928986 33.875569,64.168249 49.337891,60.994149 C 64.800017,57.820599 79.85534,56.233686 94.503906,56.233406 C 134.0545,56.233686 163.59549,66.487582 183.12695,86.995125 C 202.65795,107.50317 212.42357,138.59037 212.42383,180.25684 L 212.42383,180.25684 z "
       transform="translate(74,-5)"
       id="flowRoot1913" />
  </g>
</svg>
