<?xml version="1.0" encoding="UTF-8" standalone="no"?>
<!-- Created with Inkscape (http://www.inkscape.org/) -->

<svg
   xmlns:dc="http://purl.org/dc/elements/1.1/"
   xmlns:cc="http://creativecommons.org/ns#"
   xmlns:rdf="http://www.w3.org/1999/02/22-rdf-syntax-ns#"
   xmlns:svg="http://www.w3.org/2000/svg"
   xmlns="http://www.w3.org/2000/svg"
   xmlns:sodipodi="http://sodipodi.sourceforge.net/DTD/sodipodi-0.dtd"
   xmlns:inkscape="http://www.inkscape.org/namespaces/inkscape"
   width="219.72656"
   height="273.4375"
   id="svg2"
   inkscape:label="Pozadí"
   sodipodi:version="0.32"
   inkscape:version="0.48.2 r9819"
   sodipodi:docname="0x0299.svg"
   version="1.0"
   inkscape:export-filename="/home/jspitzm/lyx/lyx-devel/lib/images/ipa/unicode-insert_0x0299.png"
   inkscape:export-xdpi="6.5828571"
   inkscape:export-ydpi="6.5828571">
  <defs
     id="defs1876" />
  <sodipodi:namedview
     id="base"
     pagecolor="#ffffff"
     bordercolor="#666666"
     borderopacity="1.0"
     inkscape:pageopacity="0.0"
     inkscape:pageshadow="2"
     inkscape:zoom="0.35"
     inkscape:cx="375"
     inkscape:cy="177.14286"
     inkscape:document-units="px"
     inkscape:current-layer="layer1"
     inkscape:window-width="1280"
     inkscape:window-height="968"
     inkscape:window-x="0"
     inkscape:window-y="0"
     showgrid="false"
     inkscape:window-maximized="0" />
  <metadata
     id="metadata1879">
    <rdf:RDF>
      <cc:Work
         rdf:about="">
        <dc:format>image/svg+xml</dc:format>
        <dc:type
           rdf:resource="http://purl.org/dc/dcmitype/StillImage" />
        <cc:license
           rdf:resource="http://web.resource.org/cc/PublicDomain" />
        <dc:title></dc:title>
      </cc:Work>
      <cc:License
         rdf:about="http://web.resource.org/cc/PublicDomain">
        <cc:permits
           rdf:resource="http://web.resource.org/cc/Reproduction" />
        <cc:permits
           rdf:resource="http://web.resource.org/cc/Distribution" />
        <cc:permits
           rdf:resource="http://web.resource.org/cc/DerivativeWorks" />
      </cc:License>
    </rdf:RDF>
  </metadata>
  <g
     inkscape:label="Vrstva 1"
     inkscape:groupmode="layer"
     id="layer1"
     transform="translate(309.3855,347.9531)">
    <path
       transform="translate(-23.36705,-155.4154)"
       style="font-size:500px;font-style:normal;font-weight:normal;fill:black;fill-opacity:1;stroke:none;stroke-width:1px;stroke-linecap:butt;stroke-linejoin:miter;stroke-opacity:1;font-family:DejaVu Sans"
       d="M -241.09653,-45.076729 L -241.09653,45.011162 L -177.13168,45.011162 C -156.62405,45.011198 -140.99906,41.145642 -130.25668,33.414482 C -119.51471,25.683418 -114.14362,14.49365 -114.1434,-0.15485382 C -114.14362,-14.803196 -119.51471,-25.952273 -130.25668,-33.602119 C -140.99906,-41.251737 -156.62405,-45.076603 -177.13168,-45.076729 L -241.09653,-45.076729 z M -241.09653,-156.64899 L -241.09653,-80.965401 L -182.0145,-80.965401 C -165.08758,-80.965239 -151.25296,-84.342514 -140.51059,-91.097237 C -129.7686,-97.851615 -124.39752,-107.25102 -124.39731,-119.29548 C -124.39752,-131.33954 -129.7686,-140.57618 -140.51059,-147.00544 C -151.25296,-153.43424 -165.08758,-156.64876 -182.0145,-156.64899 L -241.09653,-156.64899 z M -286.0184,-192.53767 L -179.08481,-192.53767 C -147.02119,-192.53739 -122.36301,-186.67802 -105.1102,-174.95954 C -87.857838,-163.24055 -79.231545,-146.55762 -79.231293,-124.91071 C -79.231545,-108.1462 -83.626072,-94.84055 -92.414886,-84.993721 C -101.20418,-75.14656 -114.225,-69.00236 -131.47739,-66.561104 C -110.80703,-62.65471 -94.775149,-54.516698 -83.381683,-42.147041 C -71.988714,-29.777139 -66.292105,-14.314915 -66.29184,4.2396774 C -66.292105,28.653792 -75.691509,47.533982 -94.490082,60.880302 C -113.28913,74.226663 -140.10388,80.899834 -174.93442,80.899834 L -286.0184,80.899834 L -286.0184,-192.53767 z "
       id="text1870" />
  </g>
</svg>
