<?xml version="1.0" encoding="UTF-8" standalone="no"?>
<!-- Created with Inkscape (http://www.inkscape.org/) -->

<svg
   xmlns:dc="http://purl.org/dc/elements/1.1/"
   xmlns:cc="http://creativecommons.org/ns#"
   xmlns:rdf="http://www.w3.org/1999/02/22-rdf-syntax-ns#"
   xmlns:svg="http://www.w3.org/2000/svg"
   xmlns="http://www.w3.org/2000/svg"
   xmlns:sodipodi="http://sodipodi.sourceforge.net/DTD/sodipodi-0.dtd"
   xmlns:inkscape="http://www.inkscape.org/namespaces/inkscape"
   width="250.97656"
   height="378.41797"
   id="svg2"
   inkscape:label="Pozadí"
   sodipodi:version="0.32"
   inkscape:version="0.48.2 r9819"
   sodipodi:docname="0x0263.svg"
   version="1.0"
   inkscape:export-filename="/home/jspitzm/lyx/lyx-devel/lib/images/ipa/unicode-insert_0x0263.png"
   inkscape:export-xdpi="4.7566452"
   inkscape:export-ydpi="4.7566452">
  <defs
     id="defs1876" />
  <sodipodi:namedview
     id="base"
     pagecolor="#ffffff"
     bordercolor="#666666"
     borderopacity="1.0"
     inkscape:pageopacity="0.0"
     inkscape:pageshadow="2"
     inkscape:zoom="0.35"
     inkscape:cx="375"
     inkscape:cy="62.857143"
     inkscape:document-units="px"
     inkscape:current-layer="layer1"
     inkscape:window-width="1280"
     inkscape:window-height="968"
     inkscape:window-x="0"
     inkscape:window-y="0"
     showgrid="false"
     inkscape:window-maximized="0" />
  <metadata
     id="metadata1879">
    <rdf:RDF>
      <cc:Work
         rdf:about="">
        <dc:format>image/svg+xml</dc:format>
        <dc:type
           rdf:resource="http://purl.org/dc/dcmitype/StillImage" />
        <cc:license
           rdf:resource="http://web.resource.org/cc/PublicDomain" />
        <dc:title></dc:title>
      </cc:Work>
      <cc:License
         rdf:about="http://web.resource.org/cc/PublicDomain">
        <cc:permits
           rdf:resource="http://web.resource.org/cc/Reproduction" />
        <cc:permits
           rdf:resource="http://web.resource.org/cc/Distribution" />
        <cc:permits
           rdf:resource="http://web.resource.org/cc/DerivativeWorks" />
      </cc:License>
    </rdf:RDF>
  </metadata>
  <g
     inkscape:label="Vrstva 1"
     inkscape:groupmode="layer"
     id="layer1"
     transform="translate(331.3581,347.9531)">
    <path
       transform="translate(-23.36705,-155.4154)"
       style="font-size:500px;font-style:normal;font-weight:normal;fill:black;fill-opacity:1;stroke:none;stroke-width:1px;stroke-linecap:butt;stroke-linejoin:miter;stroke-opacity:1;font-family:DejaVu Sans"
       d="M -182.50278,-38.240791 L -103.8895,-192.53767 L -57.014496,-192.53767 L -158.82114,3.7513962 C -141.56872,32.560038 -129.84998,53.718871 -123.66489,67.227959 C -114.06224,88.061285 -109.26081,106.53457 -109.26059,122.64788 C -109.26081,143.64391 -115.36432,159.43166 -127.57114,170.01116 C -139.77836,180.59049 -158.08889,185.8802 -182.50278,185.8803 C -206.91696,185.8802 -225.22749,180.59049 -237.43442,170.01116 C -249.64153,159.43166 -255.74504,143.64391 -255.74496,122.64788 C -255.74504,106.53457 -250.94361,88.061285 -241.34067,67.227959 C -235.15587,53.718871 -223.43713,32.560038 -206.18442,3.7513962 L -307.99106,-192.53767 L -261.11606,-192.53767 L -182.50278,-38.240791 z M -182.50278,147.79436 C -171.59799,147.7943 -163.62274,145.59703 -158.577,141.20257 C -154.01988,137.29626 -151.74124,131.68103 -151.74106,124.35686 C -151.74124,113.12636 -154.01988,101.57039 -158.577,89.688896 C -165.08758,73.412862 -173.06283,57.218217 -182.50278,41.104912 C -191.94302,57.218217 -199.91827,73.412862 -206.42856,89.688896 C -210.98597,101.57039 -213.26461,113.12636 -213.2645,124.35686 C -213.26461,131.68103 -210.98597,137.29626 -206.42856,141.20257 C -201.38312,145.59703 -193.40786,147.7943 -182.50278,147.79436 L -182.50278,147.79436 z "
       id="text1870" />
  </g>
</svg>
