<?xml version="1.0" encoding="UTF-8" standalone="no"?>
<!-- Created with Inkscape (http://www.inkscape.org/) -->

<svg
   xmlns:dc="http://purl.org/dc/elements/1.1/"
   xmlns:cc="http://creativecommons.org/ns#"
   xmlns:rdf="http://www.w3.org/1999/02/22-rdf-syntax-ns#"
   xmlns:svg="http://www.w3.org/2000/svg"
   xmlns="http://www.w3.org/2000/svg"
   xmlns:sodipodi="http://sodipodi.sourceforge.net/DTD/sodipodi-0.dtd"
   xmlns:inkscape="http://www.inkscape.org/namespaces/inkscape"
   width="330.07813"
   height="386.96289"
   id="svg2"
   inkscape:label="Pozadí"
   sodipodi:version="0.32"
   inkscape:version="0.48.2 r9819"
   sodipodi:docname="unicode-insert_0x0257.svg"
   version="1.0"
   inkscape:export-filename="/home/jspitzm/lyx/lyx-devel/lib/images/ipa/unicode-insert_0x0257.png"
   inkscape:export-xdpi="4.6516089"
   inkscape:export-ydpi="4.6516089">
  <defs
     id="defs1876" />
  <sodipodi:namedview
     id="base"
     pagecolor="#ffffff"
     bordercolor="#666666"
     borderopacity="1.0"
     inkscape:pageopacity="0.0"
     inkscape:pageshadow="2"
     inkscape:zoom="0.35"
     inkscape:cx="375"
     inkscape:cy="62.857143"
     inkscape:document-units="px"
     inkscape:current-layer="layer1"
     inkscape:window-width="1280"
     inkscape:window-height="968"
     inkscape:window-x="0"
     inkscape:window-y="0"
     showgrid="false"
     inkscape:window-maximized="0" />
  <metadata
     id="metadata1879">
    <rdf:RDF>
      <cc:Work
         rdf:about="">
        <dc:format>image/svg+xml</dc:format>
        <dc:type
           rdf:resource="http://purl.org/dc/dcmitype/StillImage" />
        <cc:license
           rdf:resource="http://web.resource.org/cc/PublicDomain" />
        <dc:title></dc:title>
      </cc:Work>
      <cc:License
         rdf:about="http://web.resource.org/cc/PublicDomain">
        <cc:permits
           rdf:resource="http://web.resource.org/cc/Reproduction" />
        <cc:permits
           rdf:resource="http://web.resource.org/cc/Distribution" />
        <cc:permits
           rdf:resource="http://web.resource.org/cc/DerivativeWorks" />
      </cc:License>
    </rdf:RDF>
  </metadata>
  <g
     inkscape:label="Vrstva 1"
     inkscape:groupmode="layer"
     id="layer1"
     transform="translate(327.2077,454.3984)">
    <path
       transform="translate(-23.36705,-155.4154)"
       style="font-size:500px;font-style:normal;font-weight:normal;fill:black;fill-opacity:1;stroke:none;stroke-width:1px;stroke-linecap:butt;stroke-linejoin:miter;stroke-opacity:1;font-family:DejaVu Sans"
       d="M -104.37778,-151.03376 L -104.37778,-199.86189 C -104.378,-234.6923 -97.745524,-259.92014 -84.480316,-275.54548 C -71.215602,-291.17011 -49.853319,-298.9826 -20.393402,-298.98298 L 26.237457,-298.98298 L 26.237457,-260.89704 L -15.266449,-260.89704 C -32.356592,-260.8967 -43.99395,-256.94976 -50.178558,-249.05622 C -56.363729,-241.16202 -59.456174,-224.76392 -59.455902,-199.86189 L -59.455902,80.899834 L -104.37778,80.899834 L -104.37778,39.884209 C -113.8181,56.160275 -125.74029,68.245224 -140.14438,76.139091 C -154.54885,84.032969 -171.84213,87.979905 -192.02426,87.979912 C -225.06473,87.979905 -251.96086,74.796324 -272.71274,48.429131 C -293.46473,22.062002 -303.8407,-12.605932 -303.84067,-55.574776 C -303.8407,-98.543346 -293.46473,-133.21128 -272.71274,-159.57868 C -251.96086,-185.9456 -225.06473,-199.12918 -192.02426,-199.12946 C -171.84213,-199.12918 -154.54885,-195.18225 -140.14438,-187.28864 C -125.74029,-179.3945 -113.8181,-167.30955 -104.37778,-151.03376 L -104.37778,-151.03376 z M -257.45395,-55.574776 C -257.45402,-22.534308 -250.65878,3.3852628 -237.06821,22.184013 C -223.47782,40.982881 -204.80108,50.382286 -181.03793,50.382256 C -157.27509,50.382286 -138.55766,40.982881 -124.88559,22.184013 C -111.21393,3.3852628 -104.378,-22.534308 -104.37778,-55.574776 C -104.378,-88.614971 -111.21393,-114.53454 -124.88559,-133.33356 C -138.55766,-152.13216 -157.27509,-161.53156 -181.03793,-161.53181 C -204.80108,-161.53156 -223.47782,-152.13216 -237.06821,-133.33356 C -250.65878,-114.53454 -257.45402,-88.614971 -257.45395,-55.574776 L -257.45395,-55.574776 z "
       id="text1870" />
  </g>
</svg>
