<?xml version="1.0" encoding="UTF-8" standalone="no"?>
<!-- Created with Inkscape (http://www.inkscape.org/) -->

<svg
   xmlns:dc="http://purl.org/dc/elements/1.1/"
   xmlns:cc="http://creativecommons.org/ns#"
   xmlns:rdf="http://www.w3.org/1999/02/22-rdf-syntax-ns#"
   xmlns:svg="http://www.w3.org/2000/svg"
   xmlns="http://www.w3.org/2000/svg"
   xmlns:sodipodi="http://sodipodi.sourceforge.net/DTD/sodipodi-0.dtd"
   xmlns:inkscape="http://www.inkscape.org/namespaces/inkscape"
   width="254.88281"
   height="255.12695"
   id="svg2"
   inkscape:label="Pozadí"
   sodipodi:version="0.32"
   inkscape:version="0.48.2 r9819"
   sodipodi:docname="unicode-insert_0x0298.svg"
   version="1.0"
   inkscape:export-filename="/home/jspitzm/lyx/lyx-devel/lib/images/ipa/unicode-insert_0x0298.png"
   inkscape:export-xdpi="7.0553112"
   inkscape:export-ydpi="7.0553112">
  <defs
     id="defs1876" />
  <sodipodi:namedview
     id="base"
     pagecolor="#ffffff"
     bordercolor="#666666"
     borderopacity="1.0"
     inkscape:pageopacity="0.0"
     inkscape:pageshadow="2"
     inkscape:zoom="0.35"
     inkscape:cx="375"
     inkscape:cy="177.14286"
     inkscape:document-units="px"
     inkscape:current-layer="layer1"
     inkscape:window-width="1280"
     inkscape:window-height="968"
     inkscape:window-x="0"
     inkscape:window-y="0"
     showgrid="false"
     inkscape:window-maximized="0" />
  <metadata
     id="metadata1879">
    <rdf:RDF>
      <cc:Work
         rdf:about="">
        <dc:format>image/svg+xml</dc:format>
        <dc:type
           rdf:resource="http://purl.org/dc/dcmitype/StillImage" />
        <cc:license
           rdf:resource="http://web.resource.org/cc/PublicDomain" />
        <dc:title></dc:title>
      </cc:Work>
      <cc:License
         rdf:about="http://web.resource.org/cc/PublicDomain">
        <cc:permits
           rdf:resource="http://web.resource.org/cc/Reproduction" />
        <cc:permits
           rdf:resource="http://web.resource.org/cc/Distribution" />
        <cc:permits
           rdf:resource="http://web.resource.org/cc/DerivativeWorks" />
      </cc:License>
    </rdf:RDF>
  </metadata>
  <g
     inkscape:label="Vrstva 1"
     inkscape:groupmode="layer"
     id="layer1"
     transform="translate(331.6022,340.6288)">
    <path
       transform="translate(-23.36705,-155.4154)"
       style="font-size:500px;font-style:normal;font-weight:normal;fill:black;fill-opacity:1;stroke:none;stroke-width:1px;stroke-linecap:butt;stroke-linejoin:miter;stroke-opacity:1;font-family:DejaVu Sans"
       d="M -264.04575,-57.28376 C -264.04581,-34.334426 -255.74504,-14.803196 -239.1434,1.3099899 C -222.86747,17.423335 -203.25486,25.479967 -180.30551,25.479912 C -157.35647,25.479967 -137.82524,17.423335 -121.71176,1.3099899 C -105.59871,-14.803196 -97.542073,-34.334426 -97.54184,-57.28376 C -97.542073,-79.744537 -105.68009,-99.275767 -121.9559,-115.87751 C -138.55766,-132.47886 -158.08889,-140.77963 -180.54965,-140.77985 C -203.33624,-140.77963 -222.86747,-132.47886 -239.1434,-115.87751 C -255.74504,-99.275767 -264.04581,-79.744537 -264.04575,-57.28376 L -264.04575,-57.28376 z M -308.2352,-57.039619 C -308.23522,-91.544655 -295.70268,-121.49254 -270.63754,-146.88337 C -245.57252,-172.4365 -215.46188,-185.21318 -180.30551,-185.21345 C -145.80049,-185.21318 -116.01536,-172.4365 -90.950043,-146.88337 C -65.885204,-121.49254 -53.352665,-91.544655 -53.352386,-57.039619 C -53.352665,-21.883267 -65.681754,8.0646201 -90.339691,32.804131 C -114.99811,57.543737 -144.946,69.913517 -180.18344,69.913506 C -215.42119,69.913517 -245.57252,57.543737 -270.63754,32.804131 C -295.70268,8.0646201 -308.23522,-21.883267 -308.2352,-57.039619 L -308.2352,-57.039619 z M -208.38168,-57.527901 C -208.38181,-65.014734 -205.61488,-71.525144 -200.0809,-77.059151 C -194.87271,-82.592841 -188.3623,-85.359766 -180.54965,-85.359932 C -173.06283,-85.359766 -166.55242,-82.592841 -161.0184,-77.059151 C -155.81024,-71.525144 -153.20608,-65.014734 -153.2059,-57.527901 C -153.20608,-49.87803 -155.89162,-43.36762 -161.26254,-37.996651 C -166.6338,-32.625443 -173.14421,-29.939899 -180.79379,-29.94001 C -188.44368,-29.939899 -194.87271,-32.625443 -200.0809,-37.996651 C -205.61488,-43.36762 -208.38181,-49.87803 -208.38168,-57.527901 L -208.38168,-57.527901 z "
       id="text1870" />
  </g>
</svg>
