<?xml version="1.0" encoding="UTF-8" standalone="no"?>
<!-- Created with Inkscape (http://www.inkscape.org/) -->
<svg
   xmlns:dc="http://purl.org/dc/elements/1.1/"
   xmlns:cc="http://web.resource.org/cc/"
   xmlns:rdf="http://www.w3.org/1999/02/22-rdf-syntax-ns#"
   xmlns:svg="http://www.w3.org/2000/svg"
   xmlns="http://www.w3.org/2000/svg"
   xmlns:sodipodi="http://sodipodi.sourceforge.net/DTD/sodipodi-0.dtd"
   xmlns:inkscape="http://www.inkscape.org/namespaces/inkscape"
   width="352.7832"
   height="287.35352"
   id="svg2"
   inkscape:label="Pozadí"
   sodipodi:version="0.32"
   inkscape:version="0.44.1"
   sodipodi:docbase="B:\Pracovní data\Projekty\Aktivní\Jazyky na Wikipedii CS\Znaky IPA\Křivky"
   sodipodi:docname="IPA Unicode 0x25D.svg"
   version="1.0">
  <defs
     id="defs1876" />
  <sodipodi:namedview
     id="base"
     pagecolor="#ffffff"
     bordercolor="#666666"
     borderopacity="1.0"
     inkscape:pageopacity="0.0"
     inkscape:pageshadow="2"
     inkscape:zoom="0.35"
     inkscape:cx="375"
     inkscape:cy="62.857143"
     inkscape:document-units="px"
     inkscape:current-layer="layer1"
     inkscape:window-width="1280"
     inkscape:window-height="968"
     inkscape:window-x="-4"
     inkscape:window-y="-4" />
  <metadata
     id="metadata1879">
    <rdf:RDF>
      <cc:Work
         rdf:about="">
        <dc:format>image/svg+xml</dc:format>
        <dc:type
           rdf:resource="http://purl.org/dc/dcmitype/StillImage" />
        <cc:license
           rdf:resource="http://web.resource.org/cc/PublicDomain" />
      </cc:Work>
      <cc:License
         rdf:about="http://web.resource.org/cc/PublicDomain">
        <cc:permits
           rdf:resource="http://web.resource.org/cc/Reproduction" />
        <cc:permits
           rdf:resource="http://web.resource.org/cc/Distribution" />
        <cc:permits
           rdf:resource="http://web.resource.org/cc/DerivativeWorks" />
      </cc:License>
    </rdf:RDF>
  </metadata>
  <g
     inkscape:label="Vrstva 1"
     inkscape:groupmode="layer"
     id="layer1"
     transform="translate(322.3249,354.789)">
    <path
       transform="translate(-23.36705,-155.4154)"
       style="font-size:500px;font-style:normal;font-weight:normal;fill:black;fill-opacity:1;stroke:none;stroke-width:1px;stroke-linecap:butt;stroke-linejoin:miter;stroke-opacity:1;font-family:DejaVu Sans"
       d="M -159.06528,-66.561104 C -138.88318,-62.65471 -123.17681,-54.760838 -111.94614,-42.879463 C -100.7159,-30.997841 -95.10067,-16.268038 -95.100433,1.3099899 C -95.10067,29.467593 -105.59871,50.951947 -126.59457,65.763115 C -147.59085,80.574313 -177.45736,87.979905 -216.19418,87.979912 C -229.21512,87.979905 -242.64284,86.840583 -256.47739,84.561943 C -270.14932,82.283296 -284.30946,78.865331 -298.95786,74.308037 L -298.95786,32.55999 C -287.40191,38.582168 -274.70661,43.139455 -260.87192,46.231865 C -247.03737,49.161584 -232.5517,50.626426 -217.41489,50.626396 C -192.8382,50.626426 -173.63249,46.069139 -159.7977,36.954521 C -146.12601,27.839991 -139.29008,15.958492 -139.28989,1.3099899 C -139.29008,-13.012833 -145.63773,-24.731571 -158.33286,-33.84626 C -170.05177,-42.146918 -187.06021,-46.297305 -209.35825,-46.297432 L -245.49106,-46.297432 L -245.49106,-83.406807 L -207.64926,-83.406807 C -188.7692,-83.406643 -173.87663,-86.987368 -162.97153,-94.148994 C -151.904,-101.47303 -146.37015,-110.83175 -146.36996,-122.22517 C -146.37015,-132.64162 -152.06676,-141.59343 -163.45981,-149.08064 C -174.69043,-156.56738 -189.9899,-160.31086 -209.35825,-160.3111 C -220.91435,-160.31086 -233.28413,-159.25292 -246.46762,-157.13728 C -259.48853,-155.02115 -273.89281,-151.60319 -289.68051,-146.88337 L -289.68051,-187.65485 C -273.73005,-191.56083 -258.83749,-194.49052 -245.00278,-196.44392 C -231.16824,-198.39676 -218.06604,-199.37332 -205.69614,-199.3736 C -173.79525,-199.37332 -148.64879,-193.02567 -130.25668,-180.33064 C -114.79466,-169.5882 -105.84285,-155.59082 -103.40121,-138.33845 L -45.784027,-171.05329 L -0.8621521,-171.05329 L -0.8621521,-134.92048 C -0.86248267,-110.01794 2.2299622,-93.579159 8.4151917,-85.604073 C 14.599741,-77.791414 26.2371,-73.885168 43.327301,-73.885323 L 53.825348,-73.885323 L 53.825348,-35.799385 L 38.200348,-35.799385 C 9.7169338,-35.799268 -11.604659,-43.611761 -25.764496,-59.236885 C -39.111142,-73.885168 -45.784313,-97.485405 -45.784027,-130.03767 L -116.09653,-89.510323 C -126.5134,-78.116934 -140.8363,-70.467202 -159.06528,-66.561104 L -159.06528,-66.561104 z "
       id="text1870" />
  </g>
</svg>
