<?xml version="1.0" encoding="UTF-8" standalone="no"?>
<!-- Created with Inkscape (http://www.inkscape.org/) -->

<svg
   xmlns:dc="http://purl.org/dc/elements/1.1/"
   xmlns:cc="http://creativecommons.org/ns#"
   xmlns:rdf="http://www.w3.org/1999/02/22-rdf-syntax-ns#"
   xmlns:svg="http://www.w3.org/2000/svg"
   xmlns="http://www.w3.org/2000/svg"
   xmlns:sodipodi="http://sodipodi.sourceforge.net/DTD/sodipodi-0.dtd"
   xmlns:inkscape="http://www.inkscape.org/namespaces/inkscape"
   version="1.0"
   width="253.41797"
   height="287.10938"
   id="svg2"
   inkscape:version="0.48.2 r9819"
   sodipodi:docname="unicode-insert_0x0065.svg"
   inkscape:export-filename="/home/jspitzm/lyx/lyx-devel/lib/images/ipa/unicode-insert_0x0065.png"
   inkscape:export-xdpi="6.2693882"
   inkscape:export-ydpi="6.2693882">
  <metadata
     id="metadata8">
    <rdf:RDF>
      <cc:Work
         rdf:about="">
        <dc:format>image/svg+xml</dc:format>
        <dc:type
           rdf:resource="http://purl.org/dc/dcmitype/StillImage" />
        <dc:title></dc:title>
      </cc:Work>
    </rdf:RDF>
  </metadata>
  <sodipodi:namedview
     pagecolor="#ffffff"
     bordercolor="#666666"
     borderopacity="1"
     objecttolerance="10"
     gridtolerance="10"
     guidetolerance="10"
     inkscape:pageopacity="0"
     inkscape:pageshadow="2"
     inkscape:window-width="640"
     inkscape:window-height="480"
     id="namedview6"
     showgrid="false"
     inkscape:zoom="0.82198639"
     inkscape:cx="126.70898"
     inkscape:cy="143.55469"
     inkscape:window-x="0"
     inkscape:window-y="0"
     inkscape:window-maximized="0"
     inkscape:current-layer="svg2" />
  <defs
     id="defs4" />
  <g
     transform="translate(-127.5968,-110.5191)"
     id="layer1">
    <path
       d="M 252.44336,228.31348 L 252.44336,250.28614 L 45.900391,250.28614 C 47.853439,281.21071 57.171464,304.77026 73.854492,320.96485 C 90.537316,337.15955 113.77134,345.25687 143.55664,345.25684 C 160.80906,345.25687 177.53267,343.14099 193.72754,338.90919 C 209.92196,334.67746 225.99454,328.32981 241.94531,319.86622 L 241.94531,362.34669 C 225.83178,369.18263 209.31161,374.39096 192.38477,377.97169 C 175.45748,381.55241 158.28627,383.34277 140.87109,383.34278 C 97.251176,383.34277 62.705312,370.64747 37.233398,345.25684 C 11.761353,319.86628 -0.97463696,285.52386 -0.97460938,242.2295 C -0.97463696,197.47056 11.110312,161.94814 35.280273,135.66212 C 59.450107,109.37658 92.042848,96.233686 133.05859,96.233406 C 169.84225,96.233686 198.93564,108.07449 220.33887,131.75587 C 241.74159,155.43773 252.44308,187.62357 252.44336,228.31348 L 252.44336,228.31348 z M 207.52148,215.12989 C 207.19573,190.55325 200.31911,170.94064 186.8916,156.292 C 173.46367,141.6438 155.68211,134.31959 133.54688,134.31934 C 108.48163,134.31959 88.421432,141.39966 73.366211,155.55958 C 58.310786,169.71994 49.643802,189.65807 47.365234,215.37403 L 207.52148,215.12989 z "
       transform="translate(128.5714,14.28571)"
       style="font-size:500px;font-family:DejaVu Sans"
       id="flowRoot1872" />
  </g>
</svg>
