<?xml version="1.0" encoding="UTF-8" standalone="no"?>
<!-- Created with Inkscape (http://www.inkscape.org/) -->
<svg
   xmlns:dc="http://purl.org/dc/elements/1.1/"
   xmlns:cc="http://web.resource.org/cc/"
   xmlns:rdf="http://www.w3.org/1999/02/22-rdf-syntax-ns#"
   xmlns:svg="http://www.w3.org/2000/svg"
   xmlns="http://www.w3.org/2000/svg"
   xmlns:sodipodi="http://sodipodi.sourceforge.net/DTD/sodipodi-0.dtd"
   xmlns:inkscape="http://www.inkscape.org/namespaces/inkscape"
   width="292.48047"
   height="287.59766"
   id="svg2"
   inkscape:label="Pozadí"
   sodipodi:version="0.32"
   inkscape:version="0.44.1"
   sodipodi:docbase="B:\Pracovní data\Projekty\Aktivní\Jazyky na Wikipedii CS\Znaky IPA\Křivky"
   sodipodi:docname="IPA Unicode 0x277.svg"
   version="1.0">
  <defs
     id="defs1876" />
  <sodipodi:namedview
     id="base"
     pagecolor="#ffffff"
     bordercolor="#666666"
     borderopacity="1.0"
     inkscape:pageopacity="0.0"
     inkscape:pageshadow="2"
     inkscape:zoom="0.35"
     inkscape:cx="375"
     inkscape:cy="62.857143"
     inkscape:document-units="px"
     inkscape:current-layer="layer1"
     inkscape:window-width="1280"
     inkscape:window-height="968"
     inkscape:window-x="-4"
     inkscape:window-y="-4" />
  <metadata
     id="metadata1879">
    <rdf:RDF>
      <cc:Work
         rdf:about="">
        <dc:format>image/svg+xml</dc:format>
        <dc:type
           rdf:resource="http://purl.org/dc/dcmitype/StillImage" />
        <cc:license
           rdf:resource="http://web.resource.org/cc/PublicDomain" />
      </cc:Work>
      <cc:License
         rdf:about="http://web.resource.org/cc/PublicDomain">
        <cc:permits
           rdf:resource="http://web.resource.org/cc/Reproduction" />
        <cc:permits
           rdf:resource="http://web.resource.org/cc/Distribution" />
        <cc:permits
           rdf:resource="http://web.resource.org/cc/DerivativeWorks" />
      </cc:License>
    </rdf:RDF>
  </metadata>
  <g
     inkscape:label="Vrstva 1"
     inkscape:groupmode="layer"
     id="layer1"
     transform="translate(319.6394,354.789)">
    <path
       transform="translate(-23.36705,-155.4154)"
       style="font-size:500px;font-style:normal;font-weight:normal;fill:black;fill-opacity:1;stroke:none;stroke-width:1px;stroke-linecap:butt;stroke-linejoin:miter;stroke-opacity:1;font-family:DejaVu Sans"
       d="M -234.26059,-109.52985 C -243.86354,-93.904679 -248.90911,-84.464584 -249.39731,-81.209541 C -253.30364,-62.980231 -254.93124,-48.494568 -254.28012,-37.75251 C -252.81536,-10.571429 -248.42083,8.1460002 -241.09653,18.399834 C -231.331,32.234518 -220.10054,39.151829 -207.40512,39.151787 C -194.87271,39.151829 -184.13053,32.722799 -175.17856,19.864677 C -170.29591,12.866048 -167.8545,-5.6886214 -167.85434,-35.799385 L -167.85434,-80.232979 L -129.7684,-80.232979 L -129.7684,-35.799385 C -129.7686,-5.6886214 -127.3272,12.866048 -122.44418,19.864677 C -113.49258,32.722799 -102.7504,39.151829 -90.217621,39.151787 C -78.010843,39.151829 -66.780385,32.234518 -56.526215,18.399834 C -50.66712,10.587404 -46.272594,-8.1300252 -43.342621,-37.75251 C -44.15671,-49.95941 -45.784313,-64.445073 -48.225433,-81.209541 C -48.713997,-84.952865 -53.840945,-94.39296 -63.606293,-109.52985 C -80.696387,-135.5713 -109.91185,-148.59212 -151.25278,-148.59235 C -190.64094,-148.59212 -218.31018,-135.5713 -234.26059,-109.52985 L -234.26059,-109.52985 z M -281.37973,-109.52985 C -265.91756,-169.42544 -221.72815,-199.29194 -148.81137,-199.12946 C -80.452247,-198.80366 -36.669739,-168.93716 -17.463715,-109.52985 C -11.279139,-89.998433 -7.8611736,-80.070057 -7.2098083,-79.744698 C -4.931489,-63.305751 -3.7921672,-47.843527 -3.7918396,-33.357979 C -3.7921672,4.0769938 -10.872238,33.69936 -25.032074,55.509209 C -39.192522,77.319108 -58.235472,88.224045 -82.16098,88.224052 C -98.925536,88.224045 -113.08568,82.446056 -124.64145,70.890068 C -136.19763,59.3341 -144.25427,42.895314 -148.81137,21.573662 C -153.36884,42.895314 -161.42547,59.3341 -172.98129,70.890068 C -184.53743,82.446056 -198.69757,88.224045 -215.46176,88.224052 C -239.38763,88.224045 -258.43058,77.319108 -272.59067,55.509209 C -288.37847,31.257956 -295.45854,1.63559 -293.8309,-33.357979 C -293.34266,-36.450309 -292.20334,-51.912534 -290.41293,-79.744698 C -286.83225,-90.486714 -283.82118,-100.41509 -281.37973,-109.52985 L -281.37973,-109.52985 z "
       id="text1870" />
  </g>
</svg>
