<?xml version="1.0" encoding="UTF-8" standalone="no"?>
<!-- Created with Inkscape (http://www.inkscape.org/) -->

<svg
   xmlns:dc="http://purl.org/dc/elements/1.1/"
   xmlns:cc="http://creativecommons.org/ns#"
   xmlns:rdf="http://www.w3.org/1999/02/22-rdf-syntax-ns#"
   xmlns:svg="http://www.w3.org/2000/svg"
   xmlns="http://www.w3.org/2000/svg"
   xmlns:sodipodi="http://sodipodi.sourceforge.net/DTD/sodipodi-0.dtd"
   xmlns:inkscape="http://www.inkscape.org/namespaces/inkscape"
   width="206.29883"
   height="379.39453"
   id="svg2"
   inkscape:label="Pozadí"
   sodipodi:version="0.32"
   inkscape:version="0.48.2 r9819"
   sodipodi:docname="0x0294.svg"
   version="1.0"
   inkscape:export-filename="/home/jspitzm/lyx/lyx-devel/lib/images/ipa/unicode-insert_0x0294.png"
   inkscape:export-xdpi="4.7444015"
   inkscape:export-ydpi="4.7444015">
  <defs
     id="defs1876" />
  <sodipodi:namedview
     id="base"
     pagecolor="#ffffff"
     bordercolor="#666666"
     borderopacity="1.0"
     inkscape:pageopacity="0.0"
     inkscape:pageshadow="2"
     inkscape:zoom="0.35"
     inkscape:cx="375"
     inkscape:cy="62.857143"
     inkscape:document-units="px"
     inkscape:current-layer="layer1"
     inkscape:window-width="1280"
     inkscape:window-height="968"
     inkscape:window-x="0"
     inkscape:window-y="0"
     showgrid="false"
     inkscape:window-maximized="0" />
  <metadata
     id="metadata1879">
    <rdf:RDF>
      <cc:Work
         rdf:about="">
        <dc:format>image/svg+xml</dc:format>
        <dc:type
           rdf:resource="http://purl.org/dc/dcmitype/StillImage" />
        <cc:license
           rdf:resource="http://web.resource.org/cc/PublicDomain" />
        <dc:title></dc:title>
      </cc:Work>
      <cc:License
         rdf:about="http://web.resource.org/cc/PublicDomain">
        <cc:permits
           rdf:resource="http://web.resource.org/cc/Reproduction" />
        <cc:permits
           rdf:resource="http://web.resource.org/cc/Distribution" />
        <cc:permits
           rdf:resource="http://web.resource.org/cc/DerivativeWorks" />
      </cc:License>
    </rdf:RDF>
  </metadata>
  <g
     inkscape:label="Vrstva 1"
     inkscape:groupmode="layer"
     id="layer1"
     transform="translate(333.3112,453.9101)">
    <path
       transform="translate(-23.36705,-155.4154)"
       style="font-size:500px;font-style:normal;font-weight:normal;fill:black;fill-opacity:1;stroke:none;stroke-width:1px;stroke-linecap:butt;stroke-linejoin:miter;stroke-opacity:1;font-family:DejaVu Sans"
       d="M -248.42075,-113.92439 L -233.03989,-113.92439 C -201.79002,-113.92419 -179.16634,-123.20152 -165.16879,-141.75642 C -155.72886,-154.12597 -151.00882,-168.28612 -151.00864,-184.23689 C -151.17158,-205.88373 -155.89162,-221.997 -165.16879,-232.57673 C -181.28222,-251.13108 -203.9059,-260.40842 -233.03989,-260.40876 C -246.06081,-260.40842 -259.00025,-258.61806 -271.85825,-255.03767 C -284.55361,-251.61937 -297.24891,-246.41104 -309.94418,-239.41267 L -309.94418,-281.40485 C -297.57443,-287.1011 -284.79775,-291.33287 -271.61411,-294.10017 C -258.43058,-297.02948 -244.92148,-298.49432 -231.08676,-298.4947 C -186.32779,-298.49432 -152.7178,-285.71764 -130.25668,-260.16462 C -112.51602,-239.81925 -103.64558,-214.51003 -103.64536,-184.23689 C -103.64558,-156.56738 -112.43464,-133.37404 -130.01254,-114.65681 C -148.24189,-95.288141 -171.19109,-83.162502 -198.8602,-78.279854 L -198.8602,80.899834 L -248.17661,80.899834 L -248.42075,-113.92439 z "
       id="text1870" />
  </g>
</svg>
