<?xml version="1.0" encoding="UTF-8" standalone="no"?>
<!-- Created with Inkscape (http://www.inkscape.org/) -->

<svg
   xmlns:dc="http://purl.org/dc/elements/1.1/"
   xmlns:cc="http://creativecommons.org/ns#"
   xmlns:rdf="http://www.w3.org/1999/02/22-rdf-syntax-ns#"
   xmlns:svg="http://www.w3.org/2000/svg"
   xmlns="http://www.w3.org/2000/svg"
   xmlns:sodipodi="http://sodipodi.sourceforge.net/DTD/sodipodi-0.dtd"
   xmlns:inkscape="http://www.inkscape.org/namespaces/inkscape"
   width="254.63867"
   height="280.76172"
   id="svg2"
   inkscape:label="Pozadí"
   sodipodi:version="0.32"
   inkscape:version="0.48.2 r9819"
   sodipodi:docname="unicode-insert_0x028a.svg"
   version="1.0"
   inkscape:export-filename="/home/jspitzm/lyx/lyx-devel/lib/images/ipa/unicode-insert_0x028a.png"
   inkscape:export-xdpi="6.4111304"
   inkscape:export-ydpi="6.4111304">
  <defs
     id="defs1876" />
  <sodipodi:namedview
     id="base"
     pagecolor="#ffffff"
     bordercolor="#666666"
     borderopacity="1.0"
     inkscape:pageopacity="0.0"
     inkscape:pageshadow="2"
     inkscape:zoom="0.35"
     inkscape:cx="375"
     inkscape:cy="62.857143"
     inkscape:document-units="px"
     inkscape:current-layer="layer1"
     inkscape:window-width="1280"
     inkscape:window-height="968"
     inkscape:window-x="0"
     inkscape:window-y="0"
     showgrid="false"
     inkscape:window-maximized="0" />
  <metadata
     id="metadata1879">
    <rdf:RDF>
      <cc:Work
         rdf:about="">
        <dc:format>image/svg+xml</dc:format>
        <dc:type
           rdf:resource="http://purl.org/dc/dcmitype/StillImage" />
        <cc:license
           rdf:resource="http://web.resource.org/cc/PublicDomain" />
        <dc:title></dc:title>
      </cc:Work>
      <cc:License
         rdf:about="http://web.resource.org/cc/PublicDomain">
        <cc:permits
           rdf:resource="http://web.resource.org/cc/Reproduction" />
        <cc:permits
           rdf:resource="http://web.resource.org/cc/Distribution" />
        <cc:permits
           rdf:resource="http://web.resource.org/cc/DerivativeWorks" />
      </cc:License>
    </rdf:RDF>
  </metadata>
  <g
     inkscape:label="Vrstva 1"
     inkscape:groupmode="layer"
     id="layer1"
     transform="translate(327.2077,347.9531)">
    <path
       transform="translate(-23.36705,-155.4154)"
       style="font-size:500px;font-style:normal;font-weight:normal;fill:black;fill-opacity:1;stroke:none;stroke-width:1px;stroke-linecap:butt;stroke-linejoin:miter;stroke-opacity:1;font-family:DejaVu Sans"
       d="M -49.201996,-152.4986 L -49.201996,-192.53767 L -155.64731,-192.53767 L -155.89145,-138.82673 C -139.29008,-128.08433 -125.45546,-113.96488 -114.38754,-96.46833 C -103.32006,-78.971426 -97.786214,-58.911224 -97.78598,-36.287666 C -97.786214,-10.408669 -104.94767,10.424644 -119.27036,26.212334 C -133.59347,42.000133 -152.47366,49.894005 -175.91098,49.893974 C -199.34861,49.894005 -218.2288,42.000133 -232.55161,26.212334 C -246.87461,10.424644 -254.03606,-10.408669 -254.03598,-36.287666 C -254.03606,-58.911224 -248.50221,-78.971426 -237.43442,-96.46833 C -226.36681,-113.96488 -212.53219,-128.08433 -195.93051,-138.82673 L -195.93051,-192.53767 L -303.84067,-192.53767 L -303.84067,-152.4986 L -245.97934,-152.4986 C -261.76717,-140.77963 -274.82868,-125.3581 -285.16391,-106.23396 C -295.49923,-87.109438 -300.66687,-65.177494 -300.66684,-40.438057 C -300.66687,-2.1892759 -289.11089,28.816552 -265.99887,52.579521 C -242.88698,76.342547 -213.02047,88.224045 -176.39926,88.224052 C -139.77836,88.224045 -109.91185,76.342547 -86.799652,52.579521 C -63.687941,28.816552 -52.131963,-2.1892759 -52.131683,-40.438057 C -52.131963,-65.177494 -57.299601,-87.109438 -67.634613,-106.23396 C -77.970153,-125.3581 -91.031663,-140.77963 -106.81918,-152.4986 L -49.201996,-152.4986 z "
       id="text1870" />
  </g>
</svg>
