<?xml version="1.0" encoding="UTF-8" standalone="no"?>
<!-- Created with Inkscape (http://www.inkscape.org/) -->

<svg
   xmlns:dc="http://purl.org/dc/elements/1.1/"
   xmlns:cc="http://creativecommons.org/ns#"
   xmlns:rdf="http://www.w3.org/1999/02/22-rdf-syntax-ns#"
   xmlns:svg="http://www.w3.org/2000/svg"
   xmlns="http://www.w3.org/2000/svg"
   xmlns:sodipodi="http://sodipodi.sourceforge.net/DTD/sodipodi-0.dtd"
   xmlns:inkscape="http://www.inkscape.org/namespaces/inkscape"
   width="203.85742"
   height="287.35352"
   id="svg2"
   inkscape:label="Pozadí"
   sodipodi:version="0.32"
   inkscape:version="0.48.2 r9819"
   sodipodi:docname="unicode-insert_0x025c.svg"
   version="1.0"
   inkscape:export-filename="/home/jspitzm/lyx/lyx-devel/lib/images/ipa/unicode-insert_0x025c.png"
   inkscape:export-xdpi="6.2640615"
   inkscape:export-ydpi="6.2640615">
  <defs
     id="defs1876" />
  <sodipodi:namedview
     id="base"
     pagecolor="#ffffff"
     bordercolor="#666666"
     borderopacity="1.0"
     inkscape:pageopacity="0.0"
     inkscape:pageshadow="2"
     inkscape:zoom="0.35"
     inkscape:cx="375"
     inkscape:cy="62.857143"
     inkscape:document-units="px"
     inkscape:current-layer="layer1"
     inkscape:window-width="1280"
     inkscape:window-height="968"
     inkscape:window-x="0"
     inkscape:window-y="0"
     showgrid="false"
     inkscape:window-maximized="0" />
  <metadata
     id="metadata1879">
    <rdf:RDF>
      <cc:Work
         rdf:about="">
        <dc:format>image/svg+xml</dc:format>
        <dc:type
           rdf:resource="http://purl.org/dc/dcmitype/StillImage" />
        <cc:license
           rdf:resource="http://web.resource.org/cc/PublicDomain" />
        <dc:title></dc:title>
      </cc:Work>
      <cc:License
         rdf:about="http://web.resource.org/cc/PublicDomain">
        <cc:permits
           rdf:resource="http://web.resource.org/cc/Reproduction" />
        <cc:permits
           rdf:resource="http://web.resource.org/cc/Distribution" />
        <cc:permits
           rdf:resource="http://web.resource.org/cc/DerivativeWorks" />
      </cc:License>
    </rdf:RDF>
  </metadata>
  <g
     inkscape:label="Vrstva 1"
     inkscape:groupmode="layer"
     id="layer1"
     transform="translate(322.3249,354.789)">
    <path
       transform="translate(-23.36705,-155.4154)"
       style="font-size:500px;font-style:normal;font-weight:normal;fill:black;fill-opacity:1;stroke:none;stroke-width:1px;stroke-linecap:butt;stroke-linejoin:miter;stroke-opacity:1;font-family:DejaVu Sans"
       d="M -159.06528,-66.561104 C -138.88318,-62.65471 -123.17681,-54.760838 -111.94614,-42.879463 C -100.7159,-30.997841 -95.10067,-16.268038 -95.100433,1.3099899 C -95.10067,29.467593 -105.59871,50.951947 -126.59457,65.763115 C -147.59085,80.574313 -177.45736,87.979905 -216.19418,87.979912 C -229.21512,87.979905 -242.60215,86.840583 -256.35532,84.561943 C -270.10863,82.283296 -284.30946,78.865331 -298.95786,74.308037 L -298.95786,32.55999 C -287.40191,38.582168 -274.70661,43.098765 -260.87192,46.109795 C -247.03737,49.120894 -232.5517,50.626426 -217.41489,50.626396 C -192.8382,50.626426 -173.67318,46.069139 -159.91977,36.954521 C -146.1667,27.839991 -139.29008,15.958492 -139.28989,1.3099899 C -139.29008,-13.012833 -145.39359,-24.528121 -157.60043,-33.235909 C -169.80763,-41.943468 -187.06021,-46.297305 -209.35825,-46.297432 L -245.49106,-46.297432 L -245.49106,-83.406807 L -207.64926,-83.406807 C -188.7692,-83.406643 -173.83594,-87.028058 -162.84946,-94.271065 C -151.86331,-101.51372 -146.37015,-110.83175 -146.36996,-122.22517 C -146.37015,-132.64162 -152.02607,-141.59343 -163.33774,-149.08064 C -174.64974,-156.56738 -189.9899,-160.31086 -209.35825,-160.3111 C -220.91435,-160.31086 -233.24344,-159.25292 -246.34555,-157.13728 C -259.44784,-155.02115 -273.89281,-151.60319 -289.68051,-146.88337 L -289.68051,-187.65485 C -273.73005,-191.56083 -258.83749,-194.49052 -245.00278,-196.44392 C -231.16824,-198.39676 -218.06604,-199.37332 -205.69614,-199.3736 C -173.79525,-199.37332 -148.6081,-192.98498 -130.13461,-180.20856 C -111.66153,-167.43162 -102.42488,-149.56869 -102.42465,-126.6197 C -102.42488,-111.48279 -107.30769,-98.665416 -117.07309,-88.167549 C -126.83892,-77.669344 -140.8363,-70.467202 -159.06528,-66.561104 L -159.06528,-66.561104 z "
       id="text1870" />
  </g>
</svg>
