<?xml version="1.0" encoding="UTF-8" standalone="no"?>
<!-- Created with Inkscape (http://www.inkscape.org/) -->

<svg
   xmlns:dc="http://purl.org/dc/elements/1.1/"
   xmlns:cc="http://creativecommons.org/ns#"
   xmlns:rdf="http://www.w3.org/1999/02/22-rdf-syntax-ns#"
   xmlns:svg="http://www.w3.org/2000/svg"
   xmlns="http://www.w3.org/2000/svg"
   xmlns:sodipodi="http://sodipodi.sourceforge.net/DTD/sodipodi-0.dtd"
   xmlns:inkscape="http://www.inkscape.org/namespaces/inkscape"
   width="270.50781"
   height="318.84766"
   id="svg2"
   inkscape:label="Pozadí"
   sodipodi:version="0.32"
   inkscape:version="0.48.2 r9819"
   sodipodi:docname="unicode-insert_0x00f8.svg"
   version="1.0"
   inkscape:export-filename="/home/jspitzm/lyx/lyx-devel/lib/images/ipa/unicode-insert_0x00f8.png"
   inkscape:export-xdpi="5.6453295"
   inkscape:export-ydpi="5.6453295">
  <defs
     id="defs1876" />
  <sodipodi:namedview
     id="base"
     pagecolor="#ffffff"
     bordercolor="#666666"
     borderopacity="1.0"
     inkscape:pageopacity="0.0"
     inkscape:pageshadow="2"
     inkscape:zoom="0.35"
     inkscape:cx="375"
     inkscape:cy="62.857143"
     inkscape:document-units="px"
     inkscape:current-layer="layer1"
     inkscape:window-width="1280"
     inkscape:window-height="968"
     inkscape:window-x="0"
     inkscape:window-y="0"
     showgrid="false"
     inkscape:window-maximized="0" />
  <metadata
     id="metadata1879">
    <rdf:RDF>
      <cc:Work
         rdf:about="">
        <dc:format>image/svg+xml</dc:format>
        <dc:type
           rdf:resource="http://purl.org/dc/dcmitype/StillImage" />
        <cc:license
           rdf:resource="http://web.resource.org/cc/PublicDomain" />
        <dc:title></dc:title>
      </cc:Work>
      <cc:License
         rdf:about="http://web.resource.org/cc/PublicDomain">
        <cc:permits
           rdf:resource="http://web.resource.org/cc/Reproduction" />
        <cc:permits
           rdf:resource="http://web.resource.org/cc/Distribution" />
        <cc:permits
           rdf:resource="http://web.resource.org/cc/DerivativeWorks" />
      </cc:License>
    </rdf:RDF>
  </metadata>
  <g
     inkscape:label="Vrstva 1"
     inkscape:groupmode="layer"
     id="layer1"
     transform="translate(337.2175,370.414)">
    <path
       transform="translate(-23.36705,-155.4154)"
       style="font-size:500px;font-style:normal;font-weight:normal;fill:black;fill-opacity:1;stroke:none;stroke-width:1px;stroke-linecap:butt;stroke-linejoin:miter;stroke-opacity:1;font-family:DejaVu Sans"
       d="M -110.48129,-114.65681 L -229.37778,29.874443 C -222.70471,36.710425 -215.17705,41.755993 -206.79477,45.011162 C -198.41274,48.266403 -188.93196,49.894005 -178.35239,49.893974 C -154.42678,49.894005 -135.46521,40.453911 -121.46762,21.573662 C -107.47045,2.6935317 -100.47176,-23.022588 -100.47153,-55.574776 C -100.47176,-68.432699 -101.28556,-79.622467 -102.91293,-89.144112 C -104.54076,-98.665416 -107.06355,-107.16964 -110.48129,-114.65681 L -110.48129,-114.65681 z M -127.81528,-141.02399 C -134.65141,-147.69694 -142.26045,-152.70182 -150.64243,-156.03864 C -159.02476,-159.37499 -168.2614,-161.04328 -178.35239,-161.04353 C -202.92934,-161.04328 -222.09436,-151.48112 -235.8475,-132.357 C -249.60084,-113.23246 -256.47746,-86.499087 -256.47739,-52.156807 C -256.47746,-40.437936 -255.70435,-30.102659 -254.15805,-21.150948 C -252.61191,-12.199032 -250.21119,-3.9796387 -246.9559,3.5072556 L -127.81528,-141.02399 z M -277.47348,40.37249 C -286.26259,27.839991 -292.85438,13.557779 -297.24887,-2.4741898 C -301.64343,-18.505991 -303.8407,-36.206169 -303.84067,-55.574776 C -303.8407,-100.49647 -292.73231,-135.65268 -270.51547,-161.04353 C -248.29876,-186.43388 -217.57776,-199.12918 -178.35239,-199.12946 C -163.21584,-199.12918 -149.17776,-197.05399 -136.23813,-192.90388 C -123.29888,-188.75322 -111.3767,-182.44626 -100.47153,-173.98298 L -66.53598,-214.9986 L -43.342621,-195.71149 L -78.987152,-152.01032 C -70.361111,-139.47755 -63.850701,-125.15465 -59.455902,-109.04157 C -55.061647,-92.928117 -52.864384,-75.10587 -52.864105,-55.574776 C -52.864384,-10.815569 -64.013461,24.299955 -86.311371,49.771904 C -108.60977,75.243915 -139.29008,87.979905 -178.35239,87.979912 C -193.97752,87.979905 -208.34112,85.864021 -221.44321,81.632256 C -234.54552,77.400488 -246.22357,71.134218 -256.47739,62.833427 L -290.41293,103.84905 L -313.85043,84.806084 L -277.47348,40.37249 z "
       id="text1870" />
  </g>
</svg>
