<?xml version="1.0" encoding="UTF-8" standalone="no"?>
<!-- Created with Inkscape (http://www.inkscape.org/) -->

<svg
   xmlns:dc="http://purl.org/dc/elements/1.1/"
   xmlns:cc="http://creativecommons.org/ns#"
   xmlns:rdf="http://www.w3.org/1999/02/22-rdf-syntax-ns#"
   xmlns:svg="http://www.w3.org/2000/svg"
   xmlns="http://www.w3.org/2000/svg"
   xmlns:sodipodi="http://sodipodi.sourceforge.net/DTD/sodipodi-0.dtd"
   xmlns:inkscape="http://www.inkscape.org/namespaces/inkscape"
   width="253.41797"
   height="287.10938"
   id="svg2"
   inkscape:label="Pozadí"
   sodipodi:version="0.32"
   inkscape:version="0.48.2 r9819"
   sodipodi:docname="unicode-insert_0x0258.svg"
   version="1.0"
   inkscape:export-filename="/home/jspitzm/lyx/lyx-devel/lib/images/ipa/unicode-insert_0x0258.png"
   inkscape:export-xdpi="6.2693877"
   inkscape:export-ydpi="6.2693877">
  <defs
     id="defs1876" />
  <sodipodi:namedview
     id="base"
     pagecolor="#ffffff"
     bordercolor="#666666"
     borderopacity="1.0"
     inkscape:pageopacity="0.0"
     inkscape:pageshadow="2"
     inkscape:zoom="0.35"
     inkscape:cx="375"
     inkscape:cy="62.857143"
     inkscape:document-units="px"
     inkscape:current-layer="layer1"
     inkscape:window-width="1280"
     inkscape:window-height="968"
     inkscape:window-x="0"
     inkscape:window-y="0"
     showgrid="false"
     inkscape:window-maximized="0" />
  <metadata
     id="metadata1879">
    <rdf:RDF>
      <cc:Work
         rdf:about="">
        <dc:format>image/svg+xml</dc:format>
        <dc:type
           rdf:resource="http://purl.org/dc/dcmitype/StillImage" />
        <cc:license
           rdf:resource="http://web.resource.org/cc/PublicDomain" />
        <dc:title></dc:title>
      </cc:Work>
      <cc:License
         rdf:about="http://web.resource.org/cc/PublicDomain">
        <cc:permits
           rdf:resource="http://web.resource.org/cc/Reproduction" />
        <cc:permits
           rdf:resource="http://web.resource.org/cc/Distribution" />
        <cc:permits
           rdf:resource="http://web.resource.org/cc/DerivativeWorks" />
      </cc:License>
    </rdf:RDF>
  </metadata>
  <g
     inkscape:label="Vrstva 1"
     inkscape:groupmode="layer"
     id="layer1"
     transform="translate(327.2077,354.5449)">
    <path
       transform="translate(-23.36705,-155.4154)"
       style="font-size:500px;font-style:normal;font-weight:normal;fill:black;fill-opacity:1;stroke:none;stroke-width:1px;stroke-linecap:butt;stroke-linejoin:miter;stroke-opacity:1;font-family:DejaVu Sans"
       d="M -303.84067,-67.049385 C -303.8407,-107.7393 -293.1799,-139.96583 -271.85825,-163.72907 C -250.37395,-187.32906 -221.23987,-199.12918 -184.4559,-199.12946 C -143.44047,-199.12918 -110.88841,-186.02698 -86.799652,-159.82282 C -62.548619,-133.45542 -50.42298,-97.892305 -50.422699,-53.133369 C -50.42298,-9.8390079 -63.19966,24.503406 -88.752777,49.893974 C -114.14362,75.284605 -148.64879,87.979905 -192.2684,87.979912 C -209.68389,87.979905 -226.8551,86.189542 -243.78207,82.608818 C -260.70923,79.028091 -277.22939,73.819763 -293.34262,66.983818 L -293.34262,24.503349 C -277.39215,32.966939 -261.27889,39.314589 -245.00278,43.546318 C -228.8896,47.778122 -212.20667,49.894005 -194.95395,49.893974 C -165.16896,49.894005 -141.97562,41.837373 -125.37387,25.724052 C -108.60977,9.4480822 -99.251056,-14.152155 -97.297699,-45.076729 L -303.84067,-45.076729 L -303.84067,-67.049385 z M -258.91879,-80.232979 L -98.762543,-79.988838 C -101.04142,-105.7048 -109.74909,-125.64293 -124.88559,-139.80329 C -139.85974,-153.96321 -159.87925,-161.04328 -184.94418,-161.04353 C -207.07972,-161.04328 -224.82059,-153.71907 -238.16684,-139.07087 C -251.67603,-124.42223 -258.59334,-104.80962 -258.91879,-80.232979 L -258.91879,-80.232979 z "
       id="text1870" />
  </g>
</svg>
