<?xml version="1.0" encoding="UTF-8" standalone="no"?>
<!-- Created with Inkscape (http://www.inkscape.org/) -->

<svg
   xmlns:dc="http://purl.org/dc/elements/1.1/"
   xmlns:cc="http://creativecommons.org/ns#"
   xmlns:rdf="http://www.w3.org/1999/02/22-rdf-syntax-ns#"
   xmlns:svg="http://www.w3.org/2000/svg"
   xmlns="http://www.w3.org/2000/svg"
   xmlns:sodipodi="http://sodipodi.sourceforge.net/DTD/sodipodi-0.dtd"
   xmlns:inkscape="http://www.inkscape.org/namespaces/inkscape"
   width="285.15625"
   height="384.0332"
   id="svg2"
   inkscape:label="Pozadí"
   sodipodi:version="0.32"
   inkscape:version="0.48.2 r9819"
   sodipodi:docname="0x0272.svg"
   version="1.0"
   inkscape:export-filename="/home/jspitzm/lyx/lyx-devel/lib/images/ipa/unicode-insert_0x0272.png"
   inkscape:export-xdpi="4.6870947"
   inkscape:export-ydpi="4.6870947">
  <defs
     id="defs1876" />
  <sodipodi:namedview
     id="base"
     pagecolor="#ffffff"
     bordercolor="#666666"
     borderopacity="1.0"
     inkscape:pageopacity="0.0"
     inkscape:pageshadow="2"
     inkscape:zoom="0.35"
     inkscape:cx="375"
     inkscape:cy="62.857143"
     inkscape:document-units="px"
     inkscape:current-layer="layer1"
     inkscape:window-width="1280"
     inkscape:window-height="968"
     inkscape:window-x="0"
     inkscape:window-y="0"
     showgrid="false"
     inkscape:window-maximized="0" />
  <metadata
     id="metadata1879">
    <rdf:RDF>
      <cc:Work
         rdf:about="">
        <dc:format>image/svg+xml</dc:format>
        <dc:type
           rdf:resource="http://purl.org/dc/dcmitype/StillImage" />
        <cc:license
           rdf:resource="http://web.resource.org/cc/PublicDomain" />
        <dc:title></dc:title>
      </cc:Work>
      <cc:License
         rdf:about="http://web.resource.org/cc/PublicDomain">
        <cc:permits
           rdf:resource="http://web.resource.org/cc/Reproduction" />
        <cc:permits
           rdf:resource="http://web.resource.org/cc/Distribution" />
        <cc:permits
           rdf:resource="http://web.resource.org/cc/DerivativeWorks" />
      </cc:License>
    </rdf:RDF>
  </metadata>
  <g
     inkscape:label="Vrstva 1"
     inkscape:groupmode="layer"
     id="layer1"
     transform="translate(363.8288,354.5449)">
    <path
       transform="translate(-23.36705,-155.4154)"
       style="font-size:500px;font-style:normal;font-weight:normal;fill:black;fill-opacity:1;stroke:none;stroke-width:1px;stroke-linecap:butt;stroke-linejoin:miter;stroke-opacity:1;font-family:DejaVu Sans"
       d="M -55.305511,-84.139229 L -55.305511,80.899834 L -100.22739,80.899834 L -100.22739,-82.674385 C -100.22762,-108.5531 -105.27319,-127.92157 -115.36411,-140.77985 C -125.45546,-153.63769 -140.59216,-160.06672 -160.77426,-160.06696 C -185.02571,-160.06672 -204.19073,-152.33561 -218.26938,-136.8736 C -232.34825,-121.41116 -239.38763,-100.33371 -239.38754,-73.641182 L -239.38754,85.782646 C -239.38763,120.61334 -246.02012,145.84117 -259.285,161.46624 C -272.55004,177.09114 -293.91232,184.90364 -323.37192,184.90374 L -340.46176,184.90374 L -340.46176,146.8178 L -328.49887,146.8178 C -311.40905,146.81774 -299.77169,142.8708 -293.58676,134.97698 C -287.40191,127.08306 -284.30946,110.68496 -284.30942,85.782646 L -284.30942,-192.53767 L -239.1434,-192.53767 L -239.1434,-150.0572 C -228.40132,-166.49575 -215.74671,-178.78415 -201.17953,-186.92243 C -186.61262,-195.06018 -169.80763,-199.12918 -150.7645,-199.12946 C -119.35195,-199.12918 -95.58895,-189.40426 -79.475433,-169.95466 C -63.36242,-150.50456 -55.305788,-121.89944 -55.305511,-84.139229 L -55.305511,-84.139229 z "
       id="text1870" />
  </g>
</svg>
