<?xml version="1.0" encoding="UTF-8" standalone="no"?>
<!-- Created with Inkscape (http://www.inkscape.org/) -->
<svg
   xmlns:dc="http://purl.org/dc/elements/1.1/"
   xmlns:cc="http://web.resource.org/cc/"
   xmlns:rdf="http://www.w3.org/1999/02/22-rdf-syntax-ns#"
   xmlns:svg="http://www.w3.org/2000/svg"
   xmlns="http://www.w3.org/2000/svg"
   xmlns:sodipodi="http://sodipodi.sourceforge.net/DTD/sodipodi-0.dtd"
   xmlns:inkscape="http://www.inkscape.org/namespaces/inkscape"
   width="206.29883"
   height="486.32813"
   id="svg2"
   inkscape:label="Pozadí"
   sodipodi:version="0.32"
   inkscape:version="0.44.1"
   sodipodi:docbase="D:\Pracovní data\Martin Kozák\Projekty\Aktivní\Jazyky na Wikipedii CS\Znaky IPA\Křivky"
   sodipodi:docname="IPA Unicode 0x297.svg"
   version="1.0">
  <defs
     id="defs1876" />
  <sodipodi:namedview
     id="base"
     pagecolor="#ffffff"
     bordercolor="#666666"
     borderopacity="1.0"
     inkscape:pageopacity="0.0"
     inkscape:pageshadow="2"
     inkscape:zoom="0.35"
     inkscape:cx="375"
     inkscape:cy="177.14286"
     inkscape:document-units="px"
     inkscape:current-layer="layer1"
     inkscape:window-width="1280"
     inkscape:window-height="968"
     inkscape:window-x="-4"
     inkscape:window-y="-4" />
  <metadata
     id="metadata1879">
    <rdf:RDF>
      <cc:Work
         rdf:about="">
        <dc:format>image/svg+xml</dc:format>
        <dc:type
           rdf:resource="http://purl.org/dc/dcmitype/StillImage" />
        <cc:license
           rdf:resource="http://web.resource.org/cc/PublicDomain" />
      </cc:Work>
      <cc:License
         rdf:about="http://web.resource.org/cc/PublicDomain">
        <cc:permits
           rdf:resource="http://web.resource.org/cc/Reproduction" />
        <cc:permits
           rdf:resource="http://web.resource.org/cc/Distribution" />
        <cc:permits
           rdf:resource="http://web.resource.org/cc/DerivativeWorks" />
      </cc:License>
    </rdf:RDF>
  </metadata>
  <g
     inkscape:label="Vrstva 1"
     inkscape:groupmode="layer"
     id="layer1"
     transform="translate(333.3112,454.3984)">
    <path
       transform="translate(-23.36705,-155.4154)"
       style="font-size:500px;font-style:normal;font-weight:normal;fill:black;fill-opacity:1;stroke:none;stroke-width:1px;stroke-linecap:butt;stroke-linejoin:miter;stroke-opacity:1;font-family:DejaVu Sans"
       d="M -309.94418,-184.72517 C -309.9442,-214.99831 -300.99239,-240.30753 -283.08871,-260.6529 C -260.79061,-286.20592 -227.262,-298.9826 -182.50278,-298.98298 C -168.6683,-298.9826 -155.1592,-297.51776 -141.97543,-294.58845 C -128.79204,-291.82115 -116.01536,-287.58938 -103.64536,-281.89314 L -103.64536,-239.90095 C -116.34088,-246.89932 -129.11756,-252.10765 -141.97543,-255.52595 C -154.67092,-259.10634 -167.52898,-260.8967 -180.54965,-260.89704 C -209.68389,-260.8967 -232.30756,-251.61937 -248.42075,-233.06501 C -257.69816,-222.48528 -262.41821,-206.37201 -262.5809,-184.72517 L -262.5809,73.087334 C -262.41821,94.734455 -257.69816,110.84772 -248.42075,121.42718 C -232.30756,139.98181 -209.68389,149.25914 -180.54965,149.25921 C -167.52898,149.25914 -154.67092,147.46878 -141.97543,143.88811 C -129.11756,140.47009 -116.34088,135.26176 -103.64536,128.26311 L -103.64536,170.2553 C -116.01536,175.95182 -128.79204,180.18359 -141.97543,182.95061 C -155.1592,185.8802 -168.6683,187.34504 -182.50278,187.34515 C -227.262,187.34504 -260.79061,174.56836 -283.08871,149.01507 C -300.99239,128.66997 -309.9442,103.36075 -309.94418,73.087334 L -309.94418,-184.72517 z "
       id="text1870" />
  </g>
</svg>
