<?xml version="1.0" encoding="UTF-8" standalone="no"?>
<!-- Created with Inkscape (http://www.inkscape.org/) -->

<svg
   xmlns:dc="http://purl.org/dc/elements/1.1/"
   xmlns:cc="http://creativecommons.org/ns#"
   xmlns:rdf="http://www.w3.org/1999/02/22-rdf-syntax-ns#"
   xmlns:svg="http://www.w3.org/2000/svg"
   xmlns="http://www.w3.org/2000/svg"
   xmlns:sodipodi="http://sodipodi.sourceforge.net/DTD/sodipodi-0.dtd"
   xmlns:inkscape="http://www.inkscape.org/namespaces/inkscape"
   width="216.30859"
   height="314.45313"
   id="svg2"
   inkscape:label="Pozadí"
   sodipodi:version="0.32"
   inkscape:version="0.48.2 r9819"
   sodipodi:docname="unicode-insert_0x0255.svg"
   version="1.0"
   inkscape:export-filename="/home/jspitzm/lyx/lyx-devel/lib/images/ipa/unicode-insert_0x0255.png"
   inkscape:export-xdpi="5.7242236"
   inkscape:export-ydpi="5.7242236">
  <defs
     id="defs1876" />
  <sodipodi:namedview
     id="base"
     pagecolor="#ffffff"
     bordercolor="#666666"
     borderopacity="1.0"
     inkscape:pageopacity="0.0"
     inkscape:pageshadow="2"
     inkscape:zoom="0.35"
     inkscape:cx="375"
     inkscape:cy="62.857143"
     inkscape:document-units="px"
     inkscape:current-layer="layer1"
     inkscape:window-width="1280"
     inkscape:window-height="968"
     inkscape:window-x="0"
     inkscape:window-y="0"
     showgrid="false"
     inkscape:window-maximized="0" />
  <metadata
     id="metadata1879">
    <rdf:RDF>
      <cc:Work
         rdf:about="">
        <dc:format>image/svg+xml</dc:format>
        <dc:type
           rdf:resource="http://purl.org/dc/dcmitype/StillImage" />
        <cc:license
           rdf:resource="http://web.resource.org/cc/PublicDomain" />
        <dc:title></dc:title>
      </cc:Work>
      <cc:License
         rdf:about="http://web.resource.org/cc/PublicDomain">
        <cc:permits
           rdf:resource="http://web.resource.org/cc/Reproduction" />
        <cc:permits
           rdf:resource="http://web.resource.org/cc/Distribution" />
        <cc:permits
           rdf:resource="http://web.resource.org/cc/DerivativeWorks" />
      </cc:License>
    </rdf:RDF>
  </metadata>
  <g
     inkscape:label="Vrstva 1"
     inkscape:groupmode="layer"
     id="layer1"
     transform="translate(327.2077,354.5449)">
    <path
       transform="translate(-23.36705,-155.4154)"
       style="font-size:500px;font-style:normal;font-weight:normal;fill:black;fill-opacity:1;stroke:none;stroke-width:1px;stroke-linecap:butt;stroke-linejoin:miter;stroke-opacity:1;font-family:DejaVu Sans"
       d="M -87.532074,-182.03962 L -87.532074,-140.04743 C -100.22762,-147.0459 -112.96361,-152.29492 -125.74008,-155.7945 C -138.51697,-159.29361 -151.41572,-161.04328 -164.43637,-161.04353 C -193.57062,-161.04328 -216.1943,-151.80664 -232.30746,-133.33356 C -248.42083,-114.86006 -256.47746,-88.940491 -256.47739,-55.574776 C -256.47746,-22.208787 -248.42083,3.7514733 -232.30746,22.306084 C -231.16824,23.608224 -230.1103,24.747546 -229.13364,25.724052 C -222.78609,12.540527 -214.5667,2.3680112 -204.47543,-4.7935257 C -192.59406,-13.094213 -178.02702,-17.244599 -160.77426,-17.244698 C -134.24451,-17.244599 -114.95742,-11.38523 -102.91293,0.33342743 C -92.659266,10.261883 -87.532318,22.468903 -87.532074,36.954521 C -87.532318,57.299597 -95.26343,71.296979 -110.72543,78.946709 C -124.23476,85.619881 -143.60323,88.956466 -168.8309,88.956474 C -181.85189,88.956466 -194.30304,87.573004 -206.18442,84.806084 C -207.1611,94.083414 -207.64939,104.25593 -207.64926,115.32366 L -245.00278,115.32366 C -245.00286,98.396561 -244.0263,83.341237 -242.07309,70.157646 C -251.35051,64.461048 -259.81405,57.462357 -267.46371,49.161552 C -291.71506,22.957183 -303.8407,-11.954891 -303.84067,-55.574776 C -303.8407,-100.17095 -291.59299,-135.24578 -267.0975,-160.79939 C -242.60215,-186.3525 -209.03285,-199.12918 -166.3895,-199.12946 C -152.55504,-199.12918 -139.04594,-197.70503 -125.86215,-194.857 C -112.67878,-192.00842 -99.902097,-187.73597 -87.532074,-182.03962 L -87.532074,-182.03962 z M -197.39536,45.255302 C -187.95539,48.347783 -176.96908,49.894005 -164.43637,49.893974 C -140.67354,49.894005 -128.79204,45.255338 -128.79184,35.977959 C -128.79204,23.770985 -139.53422,17.667475 -161.0184,17.667412 C -177.45736,17.667475 -189.583,26.863429 -197.39536,45.255302 L -197.39536,45.255302 z "
       id="text1870" />
  </g>
</svg>
