<?xml version="1.0" encoding="UTF-8" standalone="no"?>
<!-- Created with Inkscape (http://www.inkscape.org/) -->

<svg
   xmlns:dc="http://purl.org/dc/elements/1.1/"
   xmlns:cc="http://creativecommons.org/ns#"
   xmlns:rdf="http://www.w3.org/1999/02/22-rdf-syntax-ns#"
   xmlns:svg="http://www.w3.org/2000/svg"
   xmlns="http://www.w3.org/2000/svg"
   xmlns:sodipodi="http://sodipodi.sourceforge.net/DTD/sodipodi-0.dtd"
   xmlns:inkscape="http://www.inkscape.org/namespaces/inkscape"
   width="316.89453"
   height="280.51758"
   id="svg2"
   inkscape:label="Pozadí"
   sodipodi:version="0.32"
   inkscape:version="0.48.2 r9819"
   sodipodi:docname="unicode-insert_0x0289.svg"
   version="1.0"
   inkscape:export-filename="/home/jspitzm/lyx/lyx-devel/lib/images/ipa/unicode-insert_0x0289.png"
   inkscape:export-xdpi="5.6801229"
   inkscape:export-ydpi="5.6801229">
  <defs
     id="defs1876" />
  <sodipodi:namedview
     id="base"
     pagecolor="#ffffff"
     bordercolor="#666666"
     borderopacity="1.0"
     inkscape:pageopacity="0.0"
     inkscape:pageshadow="2"
     inkscape:zoom="0.35"
     inkscape:cx="375"
     inkscape:cy="62.857143"
     inkscape:document-units="px"
     inkscape:current-layer="layer1"
     inkscape:window-width="1280"
     inkscape:window-height="968"
     inkscape:window-x="0"
     inkscape:window-y="0"
     showgrid="false"
     inkscape:window-maximized="0" />
  <metadata
     id="metadata1879">
    <rdf:RDF>
      <cc:Work
         rdf:about="">
        <dc:format>image/svg+xml</dc:format>
        <dc:type
           rdf:resource="http://purl.org/dc/dcmitype/StillImage" />
        <cc:license
           rdf:resource="http://web.resource.org/cc/PublicDomain" />
        <dc:title></dc:title>
      </cc:Work>
      <cc:License
         rdf:about="http://web.resource.org/cc/PublicDomain">
        <cc:permits
           rdf:resource="http://web.resource.org/cc/Reproduction" />
        <cc:permits
           rdf:resource="http://web.resource.org/cc/Distribution" />
        <cc:permits
           rdf:resource="http://web.resource.org/cc/DerivativeWorks" />
      </cc:License>
    </rdf:RDF>
  </metadata>
  <g
     inkscape:label="Vrstva 1"
     inkscape:groupmode="layer"
     id="layer1"
     transform="translate(354.7956,347.9531)">
    <path
       transform="translate(-23.36705,-155.4154)"
       style="font-size:500px;font-style:normal;font-weight:normal;fill:black;fill-opacity:1;stroke:none;stroke-width:1px;stroke-linecap:butt;stroke-linejoin:miter;stroke-opacity:1;font-family:DejaVu Sans"
       d="M -288.94809,-69.490791 L -288.94809,-192.53767 L -244.02621,-192.53767 L -244.02621,-69.490791 L -104.86606,-69.490791 L -104.86606,-192.53767 L -59.944183,-192.53767 L -59.944183,-69.490791 L -14.534027,-69.490791 L -14.534027,-29.451729 L -59.944183,-29.451729 L -59.944183,80.899834 L -104.86606,80.899834 L -104.86606,38.907646 C -115.77122,55.509234 -128.42583,67.838323 -142.82993,75.894951 C -157.2344,83.951588 -173.95801,87.979905 -193.00082,87.979912 C -224.41369,87.979905 -248.25807,78.214289 -264.53403,58.683037 C -280.81012,39.151829 -288.94813,10.587404 -288.94809,-27.010323 L -288.94809,-29.451729 L -331.42856,-29.451729 L -331.42856,-69.490791 L -288.94809,-69.490791 z M -105.1102,-29.207588 L -244.02621,-29.207588 L -244.02621,-28.719307 C -244.0263,-2.840317 -238.98073,16.568843 -228.8895,29.508232 C -218.79846,42.447724 -203.66176,48.917444 -183.47934,48.917412 C -160.20477,48.917444 -141.32458,41.349092 -126.83871,26.212334 C -112.35326,11.075685 -105.11043,-7.3976041 -105.1102,-29.207588 L -105.1102,-29.207588 z "
       id="text1870" />
  </g>
</svg>
