<?xml version="1.0" encoding="UTF-8" standalone="no"?>
<!-- Created with Inkscape (http://www.inkscape.org/) -->
<svg
   xmlns:dc="http://purl.org/dc/elements/1.1/"
   xmlns:cc="http://web.resource.org/cc/"
   xmlns:rdf="http://www.w3.org/1999/02/22-rdf-syntax-ns#"
   xmlns:svg="http://www.w3.org/2000/svg"
   xmlns="http://www.w3.org/2000/svg"
   xmlns:sodipodi="http://sodipodi.sourceforge.net/DTD/sodipodi-0.dtd"
   xmlns:inkscape="http://www.inkscape.org/namespaces/inkscape"
   width="249.75586"
   height="379.88281"
   id="svg2"
   inkscape:label="Pozadí"
   sodipodi:version="0.32"
   inkscape:version="0.44.1"
   sodipodi:docbase="D:\Pracovní data\Martin Kozák\Projekty\Aktivní\Jazyky na Wikipedii CS\Znaky IPA\Křivky"
   sodipodi:docname="IPA Unicode 0x293.svg"
   version="1.0">
  <defs
     id="defs1876" />
  <sodipodi:namedview
     id="base"
     pagecolor="#ffffff"
     bordercolor="#666666"
     borderopacity="1.0"
     inkscape:pageopacity="0.0"
     inkscape:pageshadow="2"
     inkscape:zoom="0.35"
     inkscape:cx="375"
     inkscape:cy="62.857143"
     inkscape:document-units="px"
     inkscape:current-layer="layer1"
     inkscape:window-width="1280"
     inkscape:window-height="968"
     inkscape:window-x="-4"
     inkscape:window-y="-4" />
  <metadata
     id="metadata1879">
    <rdf:RDF>
      <cc:Work
         rdf:about="">
        <dc:format>image/svg+xml</dc:format>
        <dc:type
           rdf:resource="http://purl.org/dc/dcmitype/StillImage" />
        <cc:license
           rdf:resource="http://web.resource.org/cc/PublicDomain" />
      </cc:Work>
      <cc:License
         rdf:about="http://web.resource.org/cc/PublicDomain">
        <cc:permits
           rdf:resource="http://web.resource.org/cc/Reproduction" />
        <cc:permits
           rdf:resource="http://web.resource.org/cc/Distribution" />
        <cc:permits
           rdf:resource="http://web.resource.org/cc/DerivativeWorks" />
      </cc:License>
    </rdf:RDF>
  </metadata>
  <g
     inkscape:label="Vrstva 1"
     inkscape:groupmode="layer"
     id="layer1"
     transform="translate(328.1843,347.9531)">
    <path
       transform="translate(-23.36705,-155.4154)"
       style="font-size:500px;font-style:normal;font-weight:normal;fill:black;fill-opacity:1;stroke:none;stroke-width:1px;stroke-linecap:butt;stroke-linejoin:miter;stroke-opacity:1;font-family:DejaVu Sans"
       d="M -212.53207,187.34515 C -267.05688,187.34504 -294.15646,171.9642 -293.8309,141.20257 C -293.50542,100.34968 -269.09138,80.330173 -220.58871,81.143974 C -180.5498,81.795015 -147.67223,86.921963 -121.9559,96.524834 C -120.00299,89.688887 -119.02643,82.283296 -119.02621,74.308037 C -119.02643,52.66093 -126.5134,35.815243 -141.48715,23.770927 C -156.78681,11.726726 -177.78288,5.7045964 -204.47543,5.7045212 L -246.9559,5.7045212 L -246.9559,-34.822823 L -141.97543,-156.64899 L -304.81723,-156.64899 L -304.81723,-192.53767 L -91.438324,-192.53767 L -91.438324,-151.52204 L -191.78012,-35.311104 C -174.69043,-35.310988 -155.64748,-30.753701 -134.65121,-21.639229 C -118.37539,-14.640435 -103.40144,-2.3520362 -89.72934,15.226006 C -76.546001,31.990377 -69.95421,51.684368 -69.953949,74.308037 C -69.95421,92.699952 -73.128035,108.81322 -79.475433,122.64788 C -63.19966,139.08662 -55.061647,160.65236 -55.061371,187.34515 L -92.414886,187.34515 C -92.415125,173.9987 -95.670331,162.76824 -102.18051,153.65374 L -107.06332,157.80413 C -131.64035,177.49804 -166.79656,187.34504 -212.53207,187.34515 L -212.53207,187.34515 z M -141.73129,126.30999 C -162.07651,119.47401 -188.28092,116.05605 -220.34457,116.05608 C -241.66628,116.05605 -252.40846,122.15956 -252.57114,134.36663 C -252.57122,142.01631 -239.71316,145.84117 -213.99692,145.84124 C -183.07259,145.84117 -159.55373,139.73767 -143.44028,127.53069 L -141.73129,126.30999 z "
       id="text1870" />
  </g>
</svg>
