/* XPM */
static char * all_changes_accept_xpm[] = {
"24 24 167 2",
"  	c None",
". 	c #3F883F",
"+ 	c #2C812C",
"@ 	c #1F7B1F",
"# 	c #167716",
"$ 	c #0D710D",
"% 	c #076807",
"& 	c #005C00",
"* 	c #005000",
"= 	c #529652",
"- 	c #3D8F3D",
"; 	c #348E34",
"> 	c #338D33",
", 	c #2D892D",
"' 	c #248324",
") 	c #1A7C1A",
"! 	c #107410",
"~ 	c #066C06",
"{ 	c #006600",
"] 	c #005B00",
"^ 	c #004900",
"/ 	c #767676",
"( 	c #4E964E",
"_ 	c #409640",
": 	c #489B48",
"< 	c #4B9E4B",
"[ 	c #278527",
"} 	c #0D730D",
"| 	c #046A04",
"1 	c #006400",
"2 	c #026002",
"3 	c #416B41",
"4 	c #A0A3A0",
"5 	c #9F9F9F",
"6 	c #459A45",
"7 	c #55A455",
"8 	c #5FAA5F",
"9 	c #62AB62",
"0 	c #54A354",
"a 	c #469A46",
"b 	c #157815",
"c 	c #086E08",
"d 	c #688C68",
"e 	c #CACDCA",
"f 	c #C4C5C4",
"g 	c #65AE65",
"h 	c #72B672",
"i 	c #78B978",
"j 	c #66AE66",
"k 	c #1B7D1B",
"l 	c #0C710C",
"m 	c #688F68",
"n 	c #DEDEDE",
"o 	c #D9D9D9",
"p 	c #447744",
"q 	c #003E00",
"r 	c #83C083",
"s 	c #8BC58B",
"t 	c #328C32",
"u 	c #208020",
"v 	c #4D864D",
"w 	c #DCDCDC",
"x 	c #E7E7E7",
"y 	c #799779",
"z 	c #004F00",
"A 	c #001B00",
"B 	c #4B9D4B",
"C 	c #8AC08A",
"D 	c #91B991",
"E 	c #79B979",
"F 	c #3C843C",
"G 	c #D4D4D4",
"H 	c #EFEFEF",
"I 	c #B9BFB9",
"J 	c #086208",
"K 	c #005700",
"L 	c #003800",
"M 	c #5EA95E",
"N 	c #7DA87D",
"O 	c #BEC2BE",
"P 	c #CDCDCD",
"Q 	c #96AD96",
"R 	c #378B37",
"S 	c #BCC2BC",
"T 	c #F0F0F0",
"U 	c #D7D7D7",
"V 	c #246F24",
"W 	c #006000",
"X 	c #004500",
"Y 	c #5A955A",
"Z 	c #ABB0AB",
"` 	c #EAEAEA",
" .	c #F9F9F9",
"..	c #DBDBDB",
"+.	c #77A477",
"@.	c #91A891",
"#.	c #ECECEC",
"$.	c #5F8B5F",
"%.	c #006300",
"&.	c #005F00",
"*.	c #004E00",
"=.	c #000000",
"-.	c #5E9E5E",
";.	c #C6CBC6",
">.	c #F6F6F6",
",.	c #F5F5F5",
"'.	c #B3BDB3",
").	c #639563",
"!.	c #E0E0E0",
"~.	c #F2F2F2",
"{.	c #ABB7AB",
"].	c #076707",
"^.	c #006200",
"/.	c #005E00",
"(.	c #005A00",
"_.	c #005600",
":.	c #005200",
"<.	c #197B19",
"[.	c #288528",
"}.	c #358F35",
"|.	c #609960",
"1.	c #DDDDDD",
"2.	c #FBFBFB",
"3.	c #E4E4E4",
"4.	c #74A674",
"5.	c #CBD1CB",
"6.	c #307730",
"7.	c #005900",
"8.	c #005500",
"9.	c #005100",
"0.	c #076907",
"a.	c #0F740F",
"b.	c #95AC95",
"c.	c #F1F1F1",
"d.	c #F8F8F8",
"e.	c #8AA38A",
"f.	c #006500",
"g.	c #005300",
"h.	c #004B00",
"i.	c #FEFEFE",
"j.	c #FFFFFF",
"k.	c #D8D8D8",
"l.	c #236F23",
"m.	c #004200",
"n.	c #036A03",
"o.	c #107510",
"p.	c #AAB6AA",
"q.	c #FDFDFD",
"r.	c #789878",
"s.	c #005D00",
"t.	c #003000",
"u.	c #026802",
"v.	c #478047",
"w.	c #94A794",
"x.	c #176717",
"y.	c #005400",
"z.	c #004800",
"A.	c #001300",
"B.	c #076507",
"C.	c #ACACAC",
"D.	c #508150",
"E.	c #004C00",
"F.	c #146114",
"G.	c #003A00",
"H.	c #000100",
"I.	c #000C00",
"J.	c #003700",
"                                                ",
"              . + @ # $ % & *                   ",
"          = - ; > , ' ) ! ~ { ] ^       /       ",
"        ( _ : < : _ ; [ ) } | 1 2 3 4 5         ",
"      ( 6 7 8 9 8 0 a ; ' b c { d e f           ",
"    = _ 0 g h i h j 0 _ , k l m n o p q         ",
"    - : 8 h r s r h 8 : t u v w x y & z A       ",
"  . ; B 9 i C D s E 9 B ; F G H I J & K L       ",
"  + > : M N O P Q h 8 : R S T U V W ] K X       ",
"  @ , _ Y Z `  ...+.0 _ @.#.x $.%.&.] K *.=.    ",
"  # ' ; 6 -.;.>.,.'.6 ).!.~.{.].^./.(._.:.=.    ",
"  $ <.[.}._ |.1.2.3.4.5.,.w 6.1 W & 7.8.9.=.    ",
"  0.a.<.' , > b.c. .~.d.T e.f.^./.] K g.h.=.    ",
"  & ~ } b k u F w i.j.2.k.l.%.W & 7.8.:.m.=.    ",
"  * { n.c l a.o.p.>.q.` r.%.W s.(._.g.* t.=.    ",
"    ] 1 { u.n.| v.!.3.w.x.W s.(.K y.:.z.A.      ",
"    ^ W ^.%.1 1 B.C.D.W /.& (.K y.:.* t.=.      ",
"      E./.&.W W &.F./.& ] 7.K y.:.* G.H.        ",
"        ^ ] & & & ] (.7.K 8.g.9.* G.I.          ",
"          q z K K K _.8.y.:.* z.t.H.            ",
"            A J.X *.9.9.h.m.t.A.=.              ",
"                  =.=.=.=.=.=.                  ",
"                                                ",
"                                                "};
