#define amssymb_width 264
#define amssymb_height 174
static char const amssymb_bits[] = {
 0x00,0x00,0x00,0x00,0x00,0x00,0x00,0x00,0x00,0x00,0x00,0x00,0x00,0x00,0x00,
 0x00,0x00,0x00,0x00,0x00,0x00,0x00,0x00,0x00,0x00,0x00,0x00,0x00,0x00,0x00,
 0x00,0x00,0x00,0x00,0x00,0x00,0x00,0x00,0x00,0x00,0x00,0x00,0x00,0x00,0x00,
 0x00,0x00,0x00,0x00,0x00,0x00,0x00,0x00,0x00,0x00,0x00,0x00,0x00,0x00,0x00,
 0x00,0x00,0x00,0x00,0x00,0x00,0x00,0x00,0x00,0x00,0x00,0x00,0x00,0x00,0x00,
 0x00,0x00,0x00,0x00,0x00,0x00,0x00,0x00,0x00,0x00,0x00,0x00,0x00,0x00,0x00,
 0x00,0x00,0x00,0x00,0x00,0x00,0x00,0x00,0x00,0x00,0x00,0x00,0x00,0x00,0x00,
 0x00,0x00,0x00,0x00,0x00,0x00,0x00,0x00,0x00,0x00,0x00,0x00,0x00,0x00,0x00,
 0x00,0x00,0x00,0x00,0x00,0x00,0x00,0x00,0x00,0x00,0x00,0x00,0x00,0x00,0x00,
 0x00,0x00,0x00,0x00,0x00,0x00,0x00,0x00,0x00,0x00,0x00,0x00,0x00,0x00,0x00,
 0x00,0x00,0x00,0x00,0x00,0x00,0x00,0x00,0x00,0x00,0x00,0x00,0x00,0x00,0x00,
 0x00,0x00,0x00,0x00,0x00,0x00,0x00,0x00,0x00,0x00,0x00,0x00,0x00,0x00,0x00,
 0x00,0x00,0x00,0x00,0x00,0x00,0x00,0x00,0x00,0x00,0x00,0x00,0x00,0x00,0x00,
 0x00,0x00,0x00,0x00,0x00,0x00,0x00,0x00,0x00,0x00,0x00,0x00,0x00,0x00,0x00,
 0x00,0x00,0x00,0x00,0x00,0x00,0x00,0x00,0x00,0x00,0x00,0x00,0x00,0x00,0x00,
 0x00,0x00,0x00,0x00,0x00,0x00,0x00,0x00,0x00,0x00,0x00,0x00,0x00,0x00,0x00,
 0x00,0x00,0x00,0x00,0x00,0x00,0x00,0x00,0x00,0x00,0x00,0x00,0x00,0x00,0x00,
 0x00,0x00,0x00,0x00,0x00,0x00,0x00,0x00,0x00,0x00,0x00,0x80,0x01,0x00,0x00,
 0x00,0x00,0x00,0x00,0x00,0x00,0x00,0x00,0x00,0x00,0x00,0x00,0x00,0x00,0x00,
 0x00,0x00,0x00,0x00,0x00,0x00,0x00,0x00,0x00,0x00,0x00,0x00,0x00,0x00,0x00,
 0x01,0x00,0x00,0x00,0x00,0x00,0x00,0x00,0x00,0x00,0x00,0x00,0x00,0x00,0x00,
 0x00,0x00,0x00,0x00,0x00,0xc0,0x07,0x00,0x00,0x00,0x00,0x00,0x00,0x00,0x00,
 0x00,0x80,0xaa,0x03,0x00,0x00,0x00,0x00,0x00,0x00,0x00,0x00,0x00,0x00,0x00,
 0x00,0x00,0x00,0x00,0x00,0x00,0x00,0x00,0x60,0x04,0x00,0x00,0x00,0x00,0x00,
 0x00,0x00,0x00,0x00,0xe0,0xff,0x07,0x00,0x00,0x00,0x00,0x00,0x00,0x00,0x00,
 0x00,0x00,0x00,0x00,0x00,0x00,0x00,0x00,0x00,0x00,0x00,0x20,0x0c,0x00,0x00,
 0x00,0x00,0x00,0x00,0x00,0x00,0x00,0x00,0x00,0x04,0x00,0x00,0x00,0x02,0x00,
 0x04,0x00,0x00,0x00,0x00,0x09,0x00,0x00,0x00,0x00,0x80,0x00,0x00,0x00,0x30,
 0x08,0x08,0x00,0x00,0x00,0x00,0x00,0x06,0x00,0x00,0x00,0x00,0x0c,0x00,0x00,
 0x00,0x04,0x00,0x04,0x00,0x00,0x00,0x00,0x11,0x00,0x00,0x00,0x08,0x08,0x01,
 0x00,0x00,0x20,0x0c,0x10,0x00,0x00,0x00,0x00,0x00,0x1f,0x00,0x00,0x00,0x00,
 0x18,0x00,0x00,0x00,0x0c,0x00,0x08,0x00,0x00,0x00,0x00,0x22,0x00,0x00,0x00,
 0x1c,0x1c,0x02,0x00,0x00,0x60,0x08,0x20,0x00,0x00,0x00,0x00,0x80,0x11,0x00,
 0x00,0xe0,0xff,0x7f,0x00,0x00,0x00,0xf8,0xff,0x1f,0x00,0x00,0xe0,0xff,0x7f,
 0x00,0x00,0x00,0x36,0xf7,0x07,0x00,0x00,0xc0,0xff,0x7f,0x00,0x00,0x00,0xfe,
 0xff,0x30,0x00,0x00,0x80,0x10,0x31,0x00,0x00,0x00,0x58,0x92,0x1a,0x00,0x00,
 0x00,0x49,0x37,0x00,0x00,0x00,0xe0,0x41,0x03,0x00,0x00,0x00,0x9d,0x34,0x00,
 0x00,0x00,0x90,0xa4,0x30,0x00,0x00,0x00,0x00,0x18,0x00,0x00,0x00,0x04,0x00,
 0x0c,0x00,0x00,0x00,0x00,0x12,0x00,0x00,0x00,0xc0,0x00,0x01,0x00,0x00,0x00,
 0x08,0x10,0x00,0x00,0x00,0x00,0x80,0x19,0x00,0x00,0x00,0x00,0x0c,0x00,0x00,
 0x00,0x04,0x00,0x04,0x00,0x00,0x00,0x00,0x11,0x00,0x00,0x00,0x00,0x00,0x01,
 0x00,0x00,0x00,0x08,0x10,0x00,0x00,0x00,0x00,0x00,0x0f,0x00,0x00,0xa0,0xaa,
 0x06,0x00,0x00,0x00,0x00,0x00,0x00,0x00,0x00,0x00,0x00,0x08,0x00,0x00,0x00,
 0x00,0x80,0x00,0x00,0x00,0x00,0x0c,0x08,0x00,0x00,0x00,0x00,0x00,0x00,0x00,
 0x00,0xe0,0xff,0x03,0x00,0x00,0x00,0x00,0x00,0x00,0x00,0x00,0x00,0x00,0x00,
 0x00,0x00,0x00,0x00,0x00,0x00,0x00,0x00,0x00,0x08,0x00,0x00,0x00,0x00,0x00,
 0x00,0x00,0x00,0x00,0x00,0x00,0x03,0x00,0x00,0x00,0x00,0x00,0x00,0x00,0x00,
 0x00,0x00,0x00,0x00,0x00,0x00,0x00,0x00,0x00,0x00,0x00,0x00,0x08,0x00,0x00,
 0x00,0x00,0x00,0x00,0x00,0x00,0x00,0x00,0x00,0x01,0x00,0x00,0x00,0x00,0x00,
 0x00,0x00,0x00,0x00,0x00,0x00,0x00,0x00,0x00,0x00,0x00,0x00,0x00,0x00,0x00,
 0x00,0x00,0x00,0x00,0x00,0x00,0x00,0x00,0x00,0x00,0x00,0x00,0x01,0x00,0x00,
 0x00,0x00,0x00,0x00,0x00,0x00,0x00,0x00,0x00,0x00,0x00,0x00,0x00,0x00,0x00,
 0x00,0x00,0x00,0x00,0x00,0x00,0x00,0x00,0x00,0x00,0x00,0x00,0x00,0x00,0x00,
 0x00,0x00,0x00,0x00,0x00,0x00,0x00,0x00,0x00,0x00,0x00,0x00,0x00,0x00,0x00,
 0x00,0x00,0x00,0x00,0x00,0x00,0x00,0x00,0x00,0x00,0x00,0x00,0x00,0x00,0x00,
 0x00,0x00,0x00,0x00,0x00,0x00,0x00,0x00,0x00,0x00,0x00,0x00,0x00,0x00,0x00,
 0x00,0x00,0x00,0x00,0x00,0x00,0x00,0x00,0x00,0x00,0x00,0x00,0x00,0x00,0x00,
 0x00,0x00,0x00,0x00,0x00,0x00,0x00,0x00,0x00,0x00,0x00,0x00,0x00,0x00,0x00,
 0x00,0x00,0x00,0x00,0x00,0x00,0x00,0x00,0x00,0x00,0x00,0x00,0x00,0x00,0x00,
 0x00,0x00,0x00,0x00,0x00,0x00,0x00,0x00,0x00,0x00,0x00,0x00,0x00,0x00,0x00,
 0x00,0x00,0x00,0x00,0x00,0x00,0x00,0x00,0x00,0x00,0x00,0x00,0x00,0x00,0x00,
 0x00,0x00,0x00,0x00,0x00,0x00,0x00,0x00,0x00,0x00,0x00,0x00,0x00,0x00,0x00,
 0x00,0x00,0x00,0x00,0x00,0x00,0x00,0x00,0x00,0x00,0x00,0x00,0x00,0x00,0x00,
 0x00,0x00,0x00,0x00,0x00,0x00,0x00,0x00,0x00,0x00,0x00,0x00,0x00,0x00,0x00,
 0x00,0x00,0x00,0x00,0x00,0x00,0x00,0x00,0x00,0x00,0x00,0x00,0x00,0x00,0x00,
 0x00,0x00,0x00,0x00,0x00,0x00,0x00,0x00,0x00,0x00,0x00,0x00,0x00,0x00,0x00,
 0x00,0x00,0x00,0x00,0x00,0x00,0x00,0x00,0x00,0x00,0x00,0x00,0x00,0x00,0x00,
 0x00,0x00,0x00,0x00,0x00,0x00,0x00,0x00,0x00,0x00,0x00,0x00,0x00,0x00,0x00,
 0x00,0x00,0x00,0x00,0x00,0x00,0x00,0x00,0x00,0x00,0x00,0x00,0x00,0x00,0x00,
 0x00,0x00,0x00,0x00,0x00,0x00,0x00,0x00,0x00,0x00,0x00,0x00,0x00,0x00,0x00,
 0x00,0x00,0x00,0x00,0x00,0x00,0x00,0x00,0x00,0x00,0x00,0x00,0x00,0x00,0x00,
 0x00,0x00,0x00,0x00,0x00,0x00,0x00,0x00,0x00,0x00,0x00,0x00,0x00,0x00,0x00,
 0x00,0x00,0x00,0x00,0x00,0x00,0x00,0x00,0x00,0x00,0x00,0x00,0x00,0x00,0x00,
 0x00,0x00,0x00,0x00,0x00,0x00,0x00,0x00,0x00,0x00,0x00,0x00,0x00,0x00,0x00,
 0x00,0x00,0x00,0x00,0x00,0x00,0x00,0x00,0x00,0x00,0x00,0x00,0x00,0x00,0x00,
 0x00,0x00,0x00,0x00,0x00,0x00,0x00,0x00,0x00,0x00,0x00,0x00,0x00,0x00,0x00,
 0x00,0x00,0x00,0x00,0x00,0x00,0x00,0x00,0x00,0x00,0x00,0x00,0x00,0x00,0x00,
 0x00,0x00,0x00,0x00,0x00,0x00,0x00,0x00,0x00,0x00,0x00,0x00,0x00,0x00,0x00,
 0x00,0x00,0x00,0x00,0x00,0x00,0x00,0x00,0x00,0x00,0x00,0x00,0x00,0x00,0x22,
 0x02,0x00,0x00,0x00,0xe0,0xff,0x07,0x00,0x00,0x00,0xfe,0x7f,0x00,0x00,0x00,
 0xe0,0xff,0x07,0x00,0x00,0x00,0xfe,0x7f,0x00,0x00,0x00,0x00,0x00,0x00,0x00,
 0x00,0x00,0x22,0x02,0x00,0x00,0x00,0xe0,0x00,0x07,0x00,0x00,0x00,0x82,0x41,
 0x00,0x00,0x00,0x20,0x00,0x04,0x00,0x00,0x00,0x02,0x40,0x00,0x00,0x00,0x00,
 0x00,0x00,0x00,0x00,0x00,0x66,0x06,0x00,0x00,0x00,0xa0,0x01,0x07,0x00,0x00,
 0x00,0x06,0x61,0x00,0x00,0x00,0x60,0x00,0x06,0x00,0x00,0x00,0x06,0x60,0x00,
 0x00,0x00,0x00,0x00,0x00,0x00,0x00,0x00,0x22,0x02,0x00,0x00,0x00,0x60,0xc3,
 0x04,0x00,0x00,0x00,0x82,0x41,0x00,0x00,0x00,0x20,0x00,0x04,0x00,0x00,0x00,
 0x02,0x40,0x00,0x00,0x00,0x00,0x38,0x00,0x00,0x00,0x00,0x22,0x06,0x00,0x00,
 0x00,0x20,0xc6,0x04,0x00,0x00,0x00,0x06,0x41,0x00,0x00,0x00,0x60,0x00,0x04,
 0x00,0x00,0x00,0x06,0x40,0x00,0x00,0x00,0x80,0xbd,0x01,0x00,0x00,0x00,0x66,
 0x02,0x00,0x00,0x00,0x60,0x34,0x06,0x00,0x00,0x00,0x82,0x61,0x00,0x00,0x00,
 0x20,0x00,0x06,0x00,0x00,0x00,0x02,0x60,0x00,0x00,0x00,0x00,0x93,0x00,0x00,
 0x00,0x00,0x22,0x02,0x00,0x00,0x00,0x20,0x1c,0x04,0x00,0x00,0x00,0xfe,0x7d,
 0x00,0x00,0x00,0xe0,0xff,0x07,0x00,0x00,0x00,0x82,0x41,0x00,0x00,0x00,0x00,
 0xe6,0x00,0x00,0x00,0x00,0x62,0xfe,0x01,0x00,0x00,0x20,0x38,0x04,0x00,0x00,
 0x00,0xae,0x6f,0x00,0x00,0x00,0xe0,0xaa,0x06,0x00,0x00,0x00,0x86,0x41,0x00,
 0x00,0x00,0x00,0x2c,0x00,0x00,0x00,0x00,0x26,0x96,0x00,0x00,0x00,0x60,0x34,
 0x06,0x00,0x00,0x00,0x82,0x40,0x00,0x00,0x00,0x20,0x00,0x04,0x00,0x00,0x00,
 0x02,0x60,0x00,0x00,0x00,0xe0,0xff,0x07,0x00,0x00,0x00,0x22,0x02,0x00,0x00,
 0x00,0x20,0x67,0x04,0x00,0x00,0x00,0x82,0x41,0x00,0x00,0x00,0x20,0x00,0x04,
 0x00,0x00,0x00,0x06,0x40,0x00,0x00,0x00,0x00,0x3d,0x01,0x00,0x00,0x00,0x66,
 0x06,0x00,0x00,0x00,0x60,0xc3,0x05,0x00,0x00,0x00,0x06,0x61,0x00,0x00,0x00,
 0x60,0x00,0x06,0x00,0x00,0x00,0x02,0x40,0x00,0x00,0x00,0x00,0x66,0x00,0x00,
 0x00,0x00,0x22,0x02,0x00,0x00,0x00,0xe0,0x00,0x07,0x00,0x00,0x00,0x82,0x41,
 0x00,0x00,0x00,0x20,0x00,0x04,0x00,0x00,0x00,0x02,0x60,0x00,0x00,0x00,0x00,
 0xc6,0x00,0x00,0x00,0x00,0x22,0x06,0x00,0x00,0x00,0xe0,0x00,0x07,0x00,0x00,
 0x00,0x06,0x41,0x00,0x00,0x00,0x60,0x00,0x04,0x00,0x00,0x00,0x06,0x40,0x00,
 0x00,0x00,0x80,0xb9,0x01,0x00,0x00,0x00,0x66,0x02,0x00,0x00,0x00,0xe0,0xff,
 0x07,0x00,0x00,0x00,0xfe,0x7f,0x00,0x00,0x00,0xe0,0xff,0x07,0x00,0x00,0x00,
 0xfe,0x7f,0x00,0x00,0x00,0x80,0x39,0x01,0x00,0x00,0x00,0x22,0x02,0x00,0x00,
 0x00,0x00,0x00,0x00,0x00,0x00,0x00,0x00,0x00,0x00,0x00,0x00,0x00,0x00,0x00,
 0x00,0x00,0x00,0x00,0x00,0x00,0x00,0x00,0x00,0x18,0x00,0x00,0x00,0x00,0x00,
 0x00,0x00,0x00,0x00,0x00,0x00,0x00,0x00,0x00,0x00,0x00,0x00,0x00,0x00,0x00,
 0x00,0x00,0x00,0x00,0x00,0x00,0x00,0x00,0x00,0x00,0x00,0x00,0x00,0x00,0x00,
 0x00,0x00,0x00,0x00,0x00,0x00,0x00,0x00,0x00,0x00,0x00,0x00,0x00,0x00,0x00,
 0x00,0x00,0x00,0x00,0x00,0x00,0x00,0x00,0x00,0x00,0x00,0x00,0x00,0x00,0x00,
 0x00,0x00,0x00,0x00,0x00,0x00,0x00,0x00,0x00,0x00,0x00,0x00,0x00,0x00,0x00,
 0x00,0x00,0x00,0x00,0x00,0x00,0x00,0x00,0x00,0x00,0x00,0x00,0x00,0x00,0x00,
 0x00,0x00,0x00,0x00,0x00,0x00,0x00,0x00,0x00,0x00,0x00,0x00,0x00,0x00,0x00,
 0x00,0x00,0x00,0x00,0x00,0x00,0x00,0x00,0x00,0x00,0x00,0x00,0x00,0x00,0x00,
 0x00,0x00,0x00,0x00,0x00,0x00,0x00,0x00,0x00,0x00,0x00,0x00,0x00,0x00,0x00,
 0x00,0x00,0x00,0x00,0x00,0x00,0x00,0x00,0x00,0x00,0x00,0x00,0x00,0x00,0x00,
 0x00,0x00,0x00,0x00,0x00,0x00,0x00,0x00,0x00,0x00,0x00,0x00,0x00,0x00,0x00,
 0x00,0x00,0x00,0x00,0x00,0x00,0x00,0x00,0x00,0x00,0x00,0x00,0x00,0x00,0x00,
 0x00,0x00,0x00,0x00,0x00,0x00,0x00,0x00,0x00,0x00,0x00,0x00,0x00,0x00,0x00,
 0x00,0x00,0x00,0x00,0x00,0x00,0x00,0x00,0x00,0x00,0x00,0x00,0x00,0x00,0x00,
 0x00,0x00,0x00,0x00,0x00,0x00,0x00,0x00,0x00,0x00,0x00,0x00,0x00,0x00,0x00,
 0x00,0x00,0x00,0x00,0x00,0x00,0x00,0x00,0x00,0x00,0x00,0x00,0x00,0x00,0x00,
 0x00,0x00,0x00,0x00,0x00,0x00,0x00,0x00,0x00,0x00,0x00,0x00,0x00,0x00,0x00,
 0x00,0x00,0x00,0x00,0x00,0x00,0x00,0x00,0x00,0x00,0x00,0x00,0x00,0x00,0x00,
 0x00,0x00,0x00,0x00,0x00,0x00,0x00,0x00,0x00,0x00,0x00,0x00,0x00,0x00,0x00,
 0x00,0x00,0x00,0x00,0x00,0x00,0x00,0x00,0x00,0x00,0x00,0x00,0x00,0x00,0x00,
 0x00,0x00,0x00,0x00,0x00,0x00,0x00,0x00,0x00,0x00,0x00,0x00,0x00,0x00,0x00,
 0x00,0x00,0x00,0x00,0x00,0x00,0x00,0x00,0x00,0x00,0x00,0x00,0x00,0x00,0x00,
 0x00,0x00,0x00,0x00,0x00,0x00,0x00,0x00,0x00,0x00,0x00,0x00,0x00,0x00,0x00,
 0x00,0x00,0x00,0x00,0x00,0x00,0x00,0x00,0x00,0x00,0x00,0x00,0x00,0x00,0x00,
 0x00,0x00,0x00,0x00,0x00,0x00,0x00,0x00,0x00,0x00,0x00,0x00,0x00,0x00,0x00,
 0x00,0x00,0x00,0x00,0x00,0x00,0x00,0x00,0x00,0x00,0x00,0x00,0x00,0x00,0x00,
 0x00,0x00,0x00,0x00,0x00,0x00,0x00,0x00,0x00,0x00,0x00,0x00,0x00,0x00,0x00,
 0x00,0x00,0x00,0x00,0x00,0x00,0x00,0x00,0x00,0x00,0x00,0x00,0x00,0x00,0x00,
 0x00,0x00,0x00,0x00,0x00,0x00,0x00,0x00,0x00,0x00,0x00,0x00,0x00,0x00,0x00,
 0x00,0x00,0x00,0x00,0x00,0x00,0x00,0x00,0x00,0x00,0xff,0x01,0x00,0x00,0x00,
 0x00,0x00,0x00,0x00,0x00,0x00,0x00,0x04,0x00,0x00,0x00,0x42,0x00,0x00,0x00,
 0x00,0x00,0x00,0x00,0x00,0x00,0x00,0x00,0x00,0x00,0x00,0x00,0x00,0xfe,0x00,
 0x00,0x00,0x00,0x00,0x06,0x00,0x00,0x00,0x00,0x00,0x02,0x00,0x00,0x00,0x42,
 0x00,0x00,0x00,0x00,0x00,0x00,0x00,0x00,0x00,0x00,0x00,0x00,0x00,0x00,0x00,
 0x00,0x7c,0x00,0x00,0x00,0x00,0x00,0x06,0x00,0x00,0x00,0x00,0x00,0x01,0x00,
 0x00,0x00,0x46,0x00,0x00,0x00,0x00,0x00,0x00,0x02,0x00,0x00,0x00,0x04,0x00,
 0x00,0x00,0x00,0x20,0x38,0x10,0x00,0x00,0x00,0x00,0x07,0x00,0x00,0x00,0x00,
 0x80,0x01,0x00,0x00,0x00,0x62,0x00,0x00,0x00,0x00,0x00,0x80,0x03,0x00,0x00,
 0x00,0x1c,0x00,0x00,0x00,0x00,0x20,0x30,0x18,0x00,0x00,0x00,0x00,0x07,0x00,
 0x00,0x00,0x00,0x40,0x00,0x00,0x00,0x00,0x46,0x00,0x00,0x00,0x00,0x00,0xe0,
 0x00,0x00,0x00,0x00,0x70,0x00,0x00,0x00,0x00,0x70,0x10,0x1c,0x00,0x00,0x00,
 0x00,0x0f,0x00,0x00,0x00,0x00,0x60,0x00,0x00,0x00,0x00,0x42,0x00,0x00,0x00,
 0x00,0x00,0x38,0x00,0x00,0x00,0x00,0xc0,0x01,0x00,0x00,0x00,0xe0,0x11,0x1f,
 0x00,0x00,0x00,0xaa,0xaf,0x02,0x00,0x00,0x00,0x30,0x00,0x00,0x00,0x00,0x66,
 0x00,0x00,0x00,0x00,0x00,0x0e,0x00,0x00,0x00,0x00,0x00,0x07,0x00,0x00,0x00,
 0xf0,0xff,0x1f,0x00,0x00,0x00,0xfe,0xff,0x03,0x00,0x00,0x00,0x10,0x00,0x00,
 0x00,0x00,0xc2,0x3f,0x00,0x00,0x00,0x80,0xc3,0x00,0x00,0x00,0x00,0x30,0x1c,
 0x00,0x00,0x00,0xe0,0x13,0x0f,0x00,0x00,0x00,0xf8,0xff,0x01,0x00,0x00,0x00,
 0x18,0x00,0x00,0x00,0x00,0xc6,0x04,0x00,0x00,0x00,0xc0,0xe0,0x00,0x00,0x00,
 0x00,0x70,0x30,0x00,0x00,0x00,0xe0,0x10,0x1e,0x00,0x00,0x00,0xf0,0xff,0x00,
 0x00,0x00,0xc0,0x0c,0x00,0x00,0x00,0x00,0x62,0x00,0x00,0x00,0x00,0xc0,0xc1,
 0x00,0x00,0x00,0x00,0x30,0x38,0x00,0x00,0x00,0x70,0x30,0x18,0x00,0x00,0x00,
 0xe0,0x3f,0x00,0x00,0x00,0xc0,0x0c,0x00,0x00,0x00,0x00,0x46,0x00,0x00,0x00,
 0x00,0x00,0x07,0x00,0x00,0x00,0x00,0x00,0x0e,0x00,0x00,0x00,0x20,0x38,0x18,
 0x00,0x00,0x00,0xc0,0x3f,0x00,0x00,0x00,0xc0,0x0d,0x00,0x00,0x00,0x00,0x42,
 0x00,0x00,0x00,0x00,0x00,0x3c,0x00,0x00,0x00,0x00,0x80,0x03,0x00,0x00,0x00,
 0x00,0x38,0x00,0x00,0x00,0x00,0xe0,0x3f,0x00,0x00,0x00,0x80,0x07,0x00,0x00,
 0x00,0x00,0x66,0x00,0x00,0x00,0x00,0x00,0x70,0x00,0x00,0x00,0x00,0xf0,0x00,
 0x00,0x00,0x00,0x00,0x7c,0x00,0x00,0x00,0x00,0xe0,0x3f,0x00,0x00,0x00,0x80,
 0x07,0x00,0x00,0x00,0x00,0x42,0x00,0x00,0x00,0x00,0x00,0xc0,0x01,0x00,0x00,
 0x00,0x38,0x00,0x00,0x00,0x00,0x00,0xfe,0x01,0x00,0x00,0x00,0xe0,0x79,0x00,
 0x00,0x00,0x00,0x07,0x00,0x00,0x00,0x00,0x42,0x00,0x00,0x00,0x00,0x00,0x00,
 0x03,0x00,0x00,0x00,0x0c,0x00,0x00,0x00,0x00,0x00,0xff,0x01,0x00,0x00,0x00,
 0x70,0x70,0x00,0x00,0x00,0x00,0x02,0x00,0x00,0x00,0x00,0x00,0x00,0x00,0x00,
 0x00,0x00,0x00,0x00,0x00,0x00,0x00,0x00,0x00,0x00,0x00,0x00,0x00,0x00,0x00,
 0x00,0x00,0x00,0x30,0x40,0x00,0x00,0x00,0x00,0x00,0x00,0x00,0x00,0x00,0x00,
 0x00,0x00,0x00,0x00,0x00,0x00,0x00,0x00,0x00,0x00,0x00,0x00,0x00,0x00,0x00,
 0x00,0x00,0x00,0x00,0x00,0x00,0x00,0x00,0x00,0x00,0x00,0x00,0x00,0x00,0x00,
 0x00,0x00,0x00,0x00,0x00,0x00,0x00,0x00,0x00,0x00,0x00,0x00,0x00,0x00,0x00,
 0x00,0x00,0x00,0x00,0x00,0x00,0x00,0x00,0x00,0x00,0x00,0x00,0x00,0x00,0x00,
 0x00,0x00,0x00,0x00,0x00,0x00,0x00,0x00,0x00,0x00,0x00,0x00,0x00,0x00,0x00,
 0x00,0x00,0x00,0x00,0x00,0x00,0x00,0x00,0x00,0x00,0x00,0x00,0x00,0x00,0x00,
 0x00,0x00,0x00,0x00,0x00,0x00,0x00,0x00,0x00,0x00,0x00,0x00,0x00,0x00,0x00,
 0x00,0x00,0x00,0x00,0x00,0x00,0x00,0x00,0x00,0x00,0x00,0x00,0x00,0x00,0x00,
 0x00,0x00,0x00,0x00,0x00,0x00,0x00,0x00,0x00,0x00,0x00,0x00,0x00,0x00,0x00,
 0x00,0x00,0x00,0x00,0x00,0x00,0x00,0x00,0x00,0x00,0x00,0x00,0x00,0x00,0x00,
 0x00,0x00,0x00,0x00,0x00,0x00,0x00,0x00,0x00,0x00,0x00,0x00,0x00,0x00,0x00,
 0x00,0x00,0x00,0x00,0x00,0x00,0x00,0x00,0x00,0x00,0x00,0x00,0x00,0x00,0x00,
 0x00,0x00,0x00,0x00,0x00,0x00,0x00,0x00,0x00,0x00,0x00,0x00,0x00,0x00,0x00,
 0x00,0x00,0x00,0x00,0x00,0x00,0x00,0x00,0x00,0x00,0x00,0x00,0x00,0x00,0x00,
 0x00,0x00,0x00,0x00,0x00,0x00,0x00,0x00,0x00,0x00,0x00,0x00,0x00,0x00,0x00,
 0x00,0x00,0x00,0x00,0x00,0x00,0x00,0x00,0x00,0x00,0x00,0x00,0x00,0x00,0x00,
 0x00,0x00,0x00,0x00,0x00,0x00,0x00,0x00,0x00,0x00,0x00,0x00,0x00,0x00,0x00,
 0x00,0x00,0x00,0x00,0x00,0x00,0x00,0x00,0x00,0x00,0x00,0x00,0x00,0x00,0x00,
 0x00,0x00,0x00,0x00,0x00,0x00,0x00,0x00,0x00,0x00,0x00,0x00,0x00,0x00,0x00,
 0x00,0x00,0x00,0x00,0x00,0x00,0x00,0x00,0x00,0x00,0x00,0x00,0x00,0x00,0x00,
 0x00,0x00,0x00,0x00,0x00,0x00,0x00,0x00,0x00,0x00,0x00,0x00,0x00,0x00,0x00,
 0x00,0x00,0x00,0x00,0x00,0x00,0x00,0x00,0x00,0x00,0x00,0x00,0x00,0x00,0x00,
 0x00,0x00,0x00,0x00,0x00,0x00,0x00,0x00,0x00,0x00,0x00,0x00,0x00,0x00,0x00,
 0x00,0x00,0x00,0x00,0x00,0x00,0x00,0x00,0x00,0x00,0x00,0x00,0x00,0x00,0x00,
 0x00,0x00,0x00,0x00,0x00,0x00,0x00,0x00,0x00,0x00,0x00,0x00,0x00,0x00,0x00,
 0x00,0x00,0x00,0x00,0x00,0x00,0x00,0x00,0x00,0x00,0x00,0x00,0x00,0x00,0x00,
 0x00,0x00,0x00,0x00,0x00,0x00,0x00,0x00,0x00,0x00,0x00,0x00,0x00,0x00,0x00,
 0x00,0x00,0x00,0x00,0x00,0x00,0x00,0x00,0x00,0x00,0x00,0x00,0x00,0x00,0x00,
 0x00,0x00,0x00,0x00,0x00,0x00,0x00,0x00,0x00,0x00,0x00,0x00,0x00,0x00,0x00,
 0x00,0x00,0x00,0x00,0x00,0x00,0x00,0x00,0x00,0x00,0x00,0x00,0x00,0x00,0x00,
 0x00,0x00,0x00,0x00,0x00,0x00,0x00,0x00,0x00,0x00,0x00,0x00,0x00,0x00,0x00,
 0x00,0x00,0x00,0x00,0x00,0x00,0x00,0x00,0x00,0x00,0x00,0x00,0x00,0x00,0x00,
 0x00,0x00,0x00,0x00,0x00,0x00,0x00,0x00,0x00,0x00,0x00,0x00,0x00,0x00,0x00,
 0x00,0x00,0x00,0x00,0x00,0x00,0x00,0x00,0x00,0x00,0x00,0x00,0x00,0x00,0x00,
 0x00,0x00,0x00,0x00,0x00,0x00,0x00,0x00,0x00,0x00,0x00,0x00,0x10,0x00,0x00,
 0x00,0x00,0x00,0x00,0x00,0x00,0x00,0x00,0x00,0x00,0x00,0x00,0x00,0x00,0x00,
 0x00,0x00,0x00,0x00,0x00,0x00,0x00,0x00,0x00,0xe0,0x07,0x00,0x00,0x00,0x00,
 0x6e,0x00,0x00,0x00,0x00,0xe0,0x07,0x00,0x00,0x00,0x00,0x00,0x00,0x00,0x00,
 0x00,0x00,0x00,0x00,0x00,0x00,0x00,0x00,0x00,0x00,0x00,0x00,0x10,0x18,0x00,
 0x00,0x00,0x00,0x01,0x01,0x00,0x00,0x00,0x10,0x18,0x00,0x00,0x00,0x00,0x00,
 0x00,0x00,0x00,0x00,0x00,0x00,0x00,0x00,0x00,0x00,0x00,0x00,0x00,0x00,0x00,
 0x08,0x20,0x00,0x00,0x00,0xc0,0x10,0x02,0x00,0x00,0x00,0x08,0x20,0x00,0x00,
 0x00,0x00,0x00,0x00,0x00,0x00,0x00,0x00,0x00,0x00,0x00,0x00,0x00,0x00,0x00,
 0x00,0x00,0x00,0x04,0x20,0x00,0x00,0x00,0x40,0x18,0x02,0x00,0x00,0x00,0x04,
 0x20,0x00,0x00,0x00,0x00,0x80,0x01,0x00,0x00,0x00,0x30,0x40,0x00,0x00,0x00,
 0x00,0x00,0x00,0x00,0x00,0x00,0x02,0x40,0x00,0x00,0x00,0x20,0x93,0x04,0x00,
 0x00,0x00,0xc2,0x43,0x00,0x00,0x00,0x20,0xe0,0x03,0x00,0x00,0x00,0xfc,0x40,
 0x00,0x00,0x00,0x00,0x00,0x00,0x00,0x00,0x00,0x02,0x40,0x00,0x00,0x00,0x20,
 0xfe,0x04,0x00,0x00,0x00,0x62,0x46,0x00,0x00,0x00,0x60,0x38,0x06,0x00,0x00,
 0x00,0xee,0x61,0x00,0x00,0x00,0x00,0x00,0x00,0x00,0x00,0x00,0xc2,0x46,0x00,
 0x00,0x00,0x00,0x38,0x04,0x00,0x00,0x00,0x22,0x44,0x00,0x00,0x00,0xc0,0x1e,
 0x04,0x00,0x00,0x00,0x86,0x3f,0x00,0x00,0x00,0x00,0x00,0x00,0x00,0x00,0x00,
 0x02,0x40,0x00,0x00,0x00,0x20,0x7e,0x04,0x00,0x00,0x00,0x62,0x44,0x00,0x00,
 0x00,0x80,0x07,0x04,0x00,0x00,0x00,0x02,0x3e,0x00,0x00,0x00,0xe0,0x01,0x00,
 0x00,0x00,0x00,0x02,0x40,0x00,0x00,0x00,0x20,0xd3,0x04,0x00,0x00,0x00,0xc2,
 0x47,0x00,0x00,0x00,0x00,0x00,0x00,0x00,0x00,0x00,0x00,0x00,0x00,0x00,0x00,
 0xe0,0x01,0x00,0x00,0x00,0x00,0x04,0x00,0x00,0x00,0x00,0x40,0x18,0x00,0x00,
 0x00,0x00,0x04,0x01,0x00,0x00,0x00,0x00,0x00,0x00,0x00,0x00,0x00,0x00,0x00,
 0x00,0x00,0x00,0xe0,0x01,0x00,0x00,0x00,0x00,0x04,0x20,0x00,0x00,0x00,0x40,
 0x10,0x02,0x00,0x00,0x00,0x04,0x20,0x00,0x00,0x00,0x00,0x00,0x00,0x00,0x00,
 0x00,0x00,0x00,0x00,0x00,0x00,0xe0,0x00,0x00,0x00,0x00,0x00,0x08,0x10,0x00,
 0x00,0x00,0x80,0x00,0x03,0x00,0x00,0x00,0x08,0x10,0x00,0x00,0x00,0x00,0x00,
 0x00,0x00,0x00,0x00,0x00,0x00,0x00,0x00,0x00,0x00,0x00,0x00,0x00,0x00,0x00,
 0x30,0x0c,0x00,0x00,0x00,0x00,0x83,0x00,0x00,0x00,0x00,0x30,0x0c,0x00,0x00,
 0x00,0x00,0x00,0x00,0x00,0x00,0x00,0x00,0x00,0x00,0x00,0x00,0x00,0x00,0x00,
 0x00,0x00,0x00,0x80,0x03,0x00,0x00,0x00,0x00,0x7c,0x00,0x00,0x00,0x00,0xc0,
 0x03,0x00,0x00,0x00,0x00,0x00,0x00,0x00,0x00,0x00,0x00,0x00,0x00,0x00,0x00,
 0x00,0x00,0x00,0x00,0x00,0x00,0x00,0x00,0x00,0x00,0x00,0x00,0x00,0x00,0x00,
 0x00,0x00,0x00,0x00,0x00,0x00,0x00,0x00,0x00,0x00,0x00,0x00,0x00,0x00,0x00,
 0x00,0x00,0x00,0x00,0x00,0x00,0x00,0x00,0x00,0x00,0x00,0x00,0x00,0x00,0x00,
 0x00,0x00,0x00,0x00,0x00,0x00,0x00,0x00,0x00,0x00,0x00,0x00,0x00,0x00,0x00,
 0x00,0x00,0x00,0x00,0x00,0x00,0x00,0x00,0x00,0x00,0x00,0x00,0x00,0x00,0x00,
 0x00,0x00,0x00,0x00,0x00,0x00,0x00,0x00,0x00,0x00,0x00,0x00,0x00,0x00,0x00,
 0x00,0x00,0x00,0x00,0x00,0x00,0x00,0x00,0x00,0x00,0x00,0x00,0x00,0x00,0x00,
 0x00,0x00,0x00,0x00,0x00,0x00,0x00,0x00,0x00,0x00,0x00,0x00,0x00,0x00,0x00,
 0x00,0x00,0x00,0x00,0x00,0x00,0x00,0x00,0x00,0x00,0x00,0x00,0x00,0x00,0x00,
 0x00,0x00,0x00,0x00,0x00,0x00,0x00,0x00,0x00,0x00,0x00,0x00,0x00,0x00,0x00,
 0x00,0x00,0x00,0x00,0x00,0x00,0x00,0x00,0x00,0x00,0x00,0x00,0x00,0x00,0x00,
 0x00,0x00,0x00,0x00,0x00,0x00,0x00,0x00,0x00,0x00,0x00,0x00,0x00,0x00,0x00,
 0x00,0x00,0x00,0x00,0x00,0x00,0x00,0x00,0x00,0x00,0x00,0x00,0x00,0x00,0x00,
 0x00,0x00,0x00,0x00,0x00,0x00,0x00,0x00,0x00,0x00,0x00,0x00,0x00,0x00,0x00,
 0x00,0x00,0x00,0x00,0x00,0x00,0x00,0x00,0x00,0x00,0x00,0x00,0x00,0x00,0x00,
 0x00,0x00,0x00,0x00,0x00,0x00,0x00,0x00,0x00,0x00,0x00,0x00,0x00,0x00,0x00,
 0x00,0x00,0x00,0x00,0x00,0x00,0x00,0x00,0x00,0x00,0x00,0x00,0x00,0x00,0x00,
 0x00,0x00,0x00,0x00,0x00,0x00,0x00,0x00,0x00,0x00,0x00,0x00,0x00,0x00,0x00,
 0x00,0x00,0x00,0x00,0x00,0x00,0x00,0x00,0x00,0x00,0x00,0x00,0x00,0x00,0x00,
 0x00,0x00,0x00,0x00,0x00,0x00,0x00,0x00,0x00,0x00,0x00,0x00,0x00,0x00,0x00,
 0x00,0x00,0x00,0x00,0x00,0x00,0x00,0x00,0x00,0x00,0x00,0x00,0x00,0x00,0x00,
 0x00,0x00,0x00,0x00,0x00,0x00,0x00,0x00,0x00,0x00,0x00,0x00,0x00,0x00,0x00,
 0x00,0x00,0x00,0x00,0x00,0x00,0x00,0x00,0x00,0x00,0x00,0x00,0x00,0x00,0x00,
 0x00,0x00,0x00,0x00,0x00,0x00,0x00,0x00,0x00,0x00,0x00,0x00,0x00,0x00,0x00,
 0x00,0x00,0x00,0x00,0x00,0x00,0x00,0x00,0x00,0x00,0x00,0x00,0x00,0x00,0x00,
 0x00,0x00,0x00,0x00,0x00,0x00,0x00,0x00,0x00,0x00,0x00,0x00,0x00,0x00,0x00,
 0x00,0x00,0x00,0x00,0x00,0x00,0x00,0x00,0x00,0x00,0x00,0x00,0x00,0x00,0x00,
 0x00,0x00,0x00,0x0c,0x00,0x00,0x00,0x00,0x00,0x00,0x00,0x00,0x00,0x00,0x00,
 0x00,0x00,0x00,0x00,0x00,0x00,0x00,0x00,0x00,0x00,0x00,0x00,0x00,0x00,0x00,
 0x00,0x00,0x00,0x00,0x00,0x00,0x0e,0x00,0x00,0x00,0x00,0xfe,0x7f,0x00,0x00,
 0x00,0x00,0x00,0x00,0x00,0x00,0x00,0x00,0x00,0x00,0x00,0x00,0x00,0x00,0x00,
 0x00,0x00,0x00,0x00,0x00,0x00,0x00,0x00,0x00,0x1a,0x00,0x00,0x00,0x00,0x02,
 0x40,0x00,0x00,0x00,0x00,0x00,0x00,0x00,0x00,0x00,0x00,0x00,0x00,0x00,0x00,
 0x00,0x08,0x00,0x00,0x00,0x00,0xfc,0x1f,0x00,0x00,0x00,0x00,0x13,0x00,0x00,
 0x00,0x00,0x06,0x60,0x00,0x00,0x00,0x00,0x00,0x03,0x00,0x00,0x00,0x0e,0x00,
 0x00,0x00,0x00,0x00,0x1c,0x00,0x00,0x00,0x00,0x04,0x18,0x00,0x00,0x00,0x80,
 0x31,0x00,0x00,0x00,0x00,0x02,0x40,0x00,0x00,0x00,0x00,0xc0,0x07,0x00,0x00,
 0x00,0x3c,0x00,0x00,0x00,0x00,0x00,0x1c,0x00,0x00,0x00,0x00,0x0c,0x08,0x00,
 0x00,0x00,0x80,0x60,0x00,0x00,0x00,0x00,0x06,0x40,0x00,0x00,0x00,0x00,0x70,
 0x02,0x00,0x00,0x00,0xe4,0x00,0x00,0x00,0x00,0x00,0x36,0x00,0x00,0x00,0x00,
 0x08,0x0c,0x00,0x00,0x00,0xc0,0x40,0x00,0x00,0x00,0x00,0x02,0x60,0x00,0x00,
 0x00,0x00,0x1c,0x06,0x00,0x00,0x00,0x86,0x03,0x00,0x00,0x00,0x00,0x22,0x00,
 0x00,0x00,0x00,0x18,0x0c,0x00,0x00,0x00,0x60,0xc0,0x00,0x00,0x00,0x00,0x02,
 0x40,0x00,0x00,0x00,0x00,0x07,0x02,0x00,0x00,0x00,0x04,0x0e,0x00,0x00,0x00,
 0x00,0x23,0x00,0x00,0x00,0x00,0x10,0x04,0x00,0x00,0x00,0x60,0x80,0x01,0x00,
 0x00,0x00,0x06,0x40,0x00,0x00,0x00,0xc0,0x01,0x02,0x00,0x00,0x00,0x04,0x38,
 0x00,0x00,0x00,0x00,0x63,0x00,0x00,0x00,0x00,0x30,0x06,0x00,0x00,0x00,0x60,
 0x80,0x00,0x00,0x00,0x00,0x02,0x60,0x00,0x00,0x00,0xc0,0x01,0x06,0x00,0x00,
 0x00,0x06,0x38,0x00,0x00,0x00,0x00,0x41,0x00,0x00,0x00,0x00,0x20,0x02,0x00,
 0x00,0x00,0x40,0xc0,0x00,0x00,0x00,0x00,0x06,0x40,0x00,0x00,0x00,0x00,0x07,
 0x02,0x00,0x00,0x00,0x04,0x0e,0x00,0x00,0x00,0x80,0xc1,0x00,0x00,0x00,0x00,
 0x60,0x03,0x00,0x00,0x00,0xc0,0x60,0x00,0x00,0x00,0x00,0x02,0x40,0x00,0x00,
 0x00,0x00,0x1c,0x06,0x00,0x00,0x00,0x84,0x03,0x00,0x00,0x00,0x80,0x80,0x00,
 0x00,0x00,0x00,0x60,0x01,0x00,0x00,0x00,0x80,0x61,0x00,0x00,0x00,0x00,0x02,
 0x60,0x00,0x00,0x00,0x00,0x70,0x02,0x00,0x00,0x00,0xc6,0x00,0x00,0x00,0x00,
 0xc0,0x80,0x01,0x00,0x00,0x00,0xc0,0x01,0x00,0x00,0x00,0x00,0x31,0x00,0x00,
 0x00,0x00,0x06,0x40,0x00,0x00,0x00,0x00,0xc0,0x03,0x00,0x00,0x00,0x3c,0x00,
 0x00,0x00,0x00,0x40,0xff,0x01,0x00,0x00,0x00,0xc0,0x00,0x00,0x00,0x00,0x00,
 0x13,0x00,0x00,0x00,0x00,0xfe,0x7f,0x00,0x00,0x00,0x00,0x00,0x07,0x00,0x00,
 0x00,0x1c,0x00,0x00,0x00,0x00,0xc0,0xb5,0x01,0x00,0x00,0x00,0x80,0x00,0x00,
 0x00,0x00,0x00,0x1e,0x00,0x00,0x00,0x00,0x00,0x00,0x00,0x00,0x00,0x00,0x00,
 0x00,0x00,0x00,0x00,0x00,0x00,0x00,0x00,0x00,0x00,0x00,0x00,0x00,0x00,0x00,
 0x00,0x00,0x00,0x00,0x00,0x00,0x0c,0x00,0x00,0x00,0x00,0x00,0x00,0x00,0x00,
 0x00,0x00,0x00,0x00,0x00,0x00,0x00,0x00,0x00,0x00,0x00,0x00,0x00,0x00,0x00,
 0x00,0x00,0x00,0x00,0x00,0x00,0x00,0x00,0x00,0x04,0x00,0x00,0x00,0x00,0x00,
 0x00,0x00,0x00,0x00,0x00,0x00,0x00,0x00,0x00,0x00,0x00,0x00,0x00,0x00,0x00,
 0x00,0x00,0x00,0x00,0x00,0x00,0x00,0x00,0x00,0x00,0x00,0x00,0x00,0x00,0x00,
 0x00,0x00,0x00,0x00,0x00,0x00,0x00,0x00,0x00,0x00,0x00,0x00,0x00,0x00,0x00,
 0x00,0x00,0x00,0x00,0x00,0x00,0x00,0x00,0x00,0x00,0x00,0x00,0x00,0x00,0x00,
 0x00,0x00,0x00,0x00,0x00,0x00,0x00,0x00,0x00,0x00,0x00,0x00,0x00,0x00,0x00,
 0x00,0x00,0x00,0x00,0x00,0x00,0x00,0x00,0x00,0x00,0x00,0x00,0x00,0x00,0x00,
 0x00,0x00,0x00,0x00,0x00,0x00,0x00,0x00,0x00,0x00,0x00,0x00,0x00,0x00,0x00,
 0x00,0x00,0x00,0x00,0x00,0x00,0x00,0x00,0x00,0x00,0x00,0x00,0x00,0x00,0x00,
 0x00,0x00,0x00,0x00,0x00,0x00,0x00,0x00,0x00,0x00,0x00,0x00,0x00,0x00,0x00,
 0x00,0x00,0x00,0x00,0x00,0x00,0x00,0x00,0x00,0x00,0x00,0x00,0x00,0x00,0x00,
 0x00,0x00,0x00,0x00,0x00,0x00,0x00,0x00,0x00,0x00,0x00,0x00,0x00,0x00,0x00,
 0x00,0x00,0x00,0x00,0x00,0x00,0x00,0x00,0x00,0x00,0x00,0x00,0x00,0x00,0x00,
 0x00,0x00,0x00,0x00,0x00,0x00,0x00,0x00,0x00,0x00,0x00,0x00,0x00,0x00,0x00,
 0x00,0x00,0x00,0x00,0x00,0x00,0x00,0x00,0x00,0x00,0x00,0x00,0x00,0x00,0x00,
 0x00,0x00,0x00,0x00,0x00,0x00,0x00,0x00,0x00,0x00,0x00,0x00,0x00,0x00,0x00,
 0x00,0x00,0x00,0x00,0x00,0x00,0x00,0x00,0x00,0x00,0x00,0x00,0x00,0x00,0x00,
 0x00,0x00,0x00,0x00,0x00,0x00,0x00,0x00,0x00,0x00,0x00,0x00,0x00,0x00,0x00,
 0x00,0x00,0x00,0x00,0x00,0x00,0x00,0x00,0x00,0x00,0x00,0x00,0x00,0x00,0x00,
 0x00,0x00,0x00,0x00,0x00,0x00,0x00,0x00,0x00,0x00,0x00,0x00,0x00,0x00,0x00,
 0x00,0x00,0x00,0x00,0x00,0x00,0x00,0x00,0x00,0x00,0x00,0x00,0x00,0x00,0x00,
 0x00,0x00,0x00,0x00,0x00,0x00,0x00,0x00,0x00,0x00,0x00,0x00,0x00,0x00,0x00,
 0x00,0x00,0x00,0x00,0x00,0x00,0x00,0x00,0x00,0x00,0x00,0x00,0x00,0x00,0x00,
 0x00,0x00,0x00,0x00,0x00,0x00,0x00,0x00,0x00,0x00,0x00,0x00,0x00,0x00,0x00,
 0x00,0x00,0x00,0x00,0x00,0x00,0x00,0x00,0x00,0x00,0x00,0x00,0x00,0x00,0x00,
 0x00,0x00,0x00,0x00,0x00,0x00,0x00,0x00,0x00,0x00,0x00,0x00,0x00,0x00,0x00,
 0x00,0x00,0x00,0x00,0x00,0x00,0x00,0x00,0x00,0x00,0x00,0x00,0x00,0x00,0x00,
 0x0c,0x00,0x00,0x00,0x00,0x00,0x00,0x00,0x00,0x00,0x00,0x00,0x00,0x00,0x00,
 0x00,0x00,0x00,0x00,0x00,0x00,0x00,0x00,0x00,0x00,0x00,0x00,0x00,0x00,0x00,
 0x00,0x00,0x00,0x0e,0x00,0x00,0x00,0x00,0xfe,0x7f,0x00,0x00,0x00,0x00,0x00,
 0x00,0x00,0x00,0x00,0x00,0x00,0x00,0x00,0x00,0x00,0x00,0x00,0x00,0x00,0x00,
 0x00,0x00,0x00,0x00,0x00,0x00,0x1e,0x00,0x00,0x00,0x00,0xfe,0x7f,0x00,0x00,
 0x00,0x00,0x00,0x00,0x00,0x00,0x00,0x00,0x00,0x00,0x00,0x00,0x00,0x08,0x00,
 0x00,0x00,0x00,0xfc,0x1f,0x00,0x00,0x00,0x00,0x1f,0x00,0x00,0x00,0x00,0xfe,
 0x7f,0x00,0x00,0x00,0x00,0x00,0x03,0x00,0x00,0x00,0x0e,0x00,0x00,0x00,0x00,
 0x00,0x1c,0x00,0x00,0x00,0x00,0xfc,0x1f,0x00,0x00,0x00,0x80,0x3f,0x00,0x00,
 0x00,0x00,0xfe,0x7f,0x00,0x00,0x00,0x00,0xc0,0x07,0x00,0x00,0x00,0x3c,0x00,
 0x00,0x00,0x00,0x00,0x1c,0x00,0x00,0x00,0x00,0xfc,0x0f,0x00,0x00,0x00,0x80,
 0x7f,0x00,0x00,0x00,0x00,0xfe,0x7f,0x00,0x00,0x00,0x00,0xf0,0x03,0x00,0x00,
 0x00,0xfe,0x00,0x00,0x00,0x00,0x00,0x3e,0x00,0x00,0x00,0x00,0xf8,0x0f,0x00,
 0x00,0x00,0xc0,0x7f,0x00,0x00,0x00,0x00,0xfe,0x7f,0x00,0x00,0x00,0x00,0xfc,
 0x07,0x00,0x00,0x00,0xfc,0x03,0x00,0x00,0x00,0x00,0x3e,0x00,0x00,0x00,0x00,
 0xf8,0x0f,0x00,0x00,0x00,0xc0,0xff,0x00,0x00,0x00,0x00,0xfe,0x7f,0x00,0x00,
 0x00,0x00,0xff,0x03,0x00,0x00,0x00,0xfe,0x0f,0x00,0x00,0x00,0x00,0x3f,0x00,
 0x00,0x00,0x00,0xf0,0x07,0x00,0x00,0x00,0xe0,0xff,0x01,0x00,0x00,0x00,0xfe,
 0x7f,0x00,0x00,0x00,0xc0,0xff,0x07,0x00,0x00,0x00,0xfc,0x3f,0x00,0x00,0x00,
 0x00,0x7f,0x00,0x00,0x00,0x00,0xf0,0x07,0x00,0x00,0x00,0xe0,0xff,0x00,0x00,
 0x00,0x00,0xfe,0x7f,0x00,0x00,0x00,0xc0,0xff,0x03,0x00,0x00,0x00,0xfe,0x3f,
 0x00,0x00,0x00,0x80,0x7f,0x00,0x00,0x00,0x00,0xe0,0x03,0x00,0x00,0x00,0xc0,
 0xff,0x00,0x00,0x00,0x00,0xfe,0x7f,0x00,0x00,0x00,0x00,0xff,0x07,0x00,0x00,
 0x00,0xfc,0x1f,0x00,0x00,0x00,0x80,0xff,0x00,0x00,0x00,0x00,0xe0,0x03,0x00,
 0x00,0x00,0xc0,0x7f,0x00,0x00,0x00,0x00,0xfe,0x7f,0x00,0x00,0x00,0x00,0xfc,
 0x03,0x00,0x00,0x00,0xfc,0x03,0x00,0x00,0x00,0x80,0xff,0x00,0x00,0x00,0x00,
 0xe0,0x01,0x00,0x00,0x00,0x80,0x7f,0x00,0x00,0x00,0x00,0xfe,0x7f,0x00,0x00,
 0x00,0x00,0xf0,0x03,0x00,0x00,0x00,0xfe,0x00,0x00,0x00,0x00,0xc0,0xff,0x01,
 0x00,0x00,0x00,0xc0,0x01,0x00,0x00,0x00,0x00,0x3f,0x00,0x00,0x00,0x00,0xfe,
 0x7f,0x00,0x00,0x00,0x00,0xc0,0x07,0x00,0x00,0x00,0x7c,0x00,0x00,0x00,0x00,
 0xc0,0xff,0x01,0x00,0x00,0x00,0xc0,0x00,0x00,0x00,0x00,0x00,0x1f,0x00,0x00,
 0x00,0x00,0xfe,0x7f,0x00,0x00,0x00,0x00,0x00,0x03,0x00,0x00,0x00,0x0e,0x00,
 0x00,0x00,0x00,0xc0,0xff,0x01,0x00,0x00,0x00,0x80,0x00,0x00,0x00,0x00,0x00,
 0x1e,0x00,0x00,0x00,0x00,0x00,0x00,0x00,0x00,0x00,0x00,0x00,0x00,0x00,0x00,
 0x00,0x00,0x00,0x00,0x00,0x00,0x00,0x00,0x00,0x00,0x00,0x00,0x00,0x00,0x00,
 0x00,0x00,0x00,0x0e,0x00,0x00,0x00,0x00,0x00,0x00,0x00,0x00,0x00,0x00,0x00,
 0x00,0x00,0x00,0x00,0x00,0x00,0x00,0x00,0x00,0x00,0x00,0x00,0x00,0x00,0x00,
 0x00,0x00,0x00,0x00,0x00,0x00,0x04,0x00,0x00,0x00,0x00,0x00,0x00,0x00,0x00,
 0x00,0x00,0x00,0x00,0x00,0x00,0x00,0x00,0x00,0x00,0x00,0x00,0x00,0x00,0x00,
 0x00,0x00,0x00,0x00,0x00,0x00,0x00,0x00,0x00,0x00,0x00,0x00,0x00,0x00,0x00,
 0x00,0x00,0x00,0x00,0x00,0x00,0x00,0x00,0x00,0x00,0x00,0x00,0x00,0x00,0x00,
 0x00,0x00,0x00,0x00,0x00,0x00,0x00,0x00,0x00,0x00,0x00,0x00,0x00,0x00,0x00,
 0x00,0x00,0x00,0x00,0x00,0x00,0x00,0x00,0x00,0x00,0x00,0x00,0x00,0x00,0x00,
 0x00,0x00,0x00,0x00,0x00,0x00,0x00,0x00,0x00,0x00,0x00,0x00,0x00,0x00,0x00,
 0x00,0x00,0x00,0x00,0x00,0x00,0x00,0x00,0x00,0x00,0x00,0x00,0x00,0x00,0x00,
 0x00,0x00,0x00,0x00,0x00,0x00,0x00,0x00,0x00,0x00,0x00,0x00,0x00,0x00,0x00,
 0x00,0x00,0x00,0x00,0x00,0x00,0x00,0x00,0x00,0x00,0x00,0x00};


