/* XPM */
static char * break_line_xpm[] = {
"11 14 2 1",
" 	c None",
".	c blue",
"          .",
"          .",
"          .",
"          .",
"          .",
"          .",
"          .",
"   .      .",
"  ..      .",
" ...      .",
"...........",
" ...       ",
"  ..       ",
"   .       "};
