/* XPM */
static char * buffer_export_dvi_xpm[] = {
"22 22 114 2",
"  	c None",
". 	c #000000",
"+ 	c #0A0A0A",
"@ 	c #B3B1B0",
"# 	c #EEECEB",
"$ 	c #F0DCAA",
"% 	c #E5C470",
"& 	c #DFB84F",
"* 	c #8A681F",
"= 	c #100E09",
"- 	c #252C33",
"; 	c #202020",
"> 	c #EEECE9",
", 	c #E6D498",
"' 	c #EED682",
") 	c #EED680",
"! 	c #E3C15E",
"~ 	c #D29815",
"{ 	c #976E15",
"] 	c #7F5B0A",
"^ 	c #1C190F",
"/ 	c #38414C",
"( 	c #A5BDD1",
"_ 	c #2B333B",
": 	c #EBE9E5",
"< 	c #CBB771",
"[ 	c #735817",
"} 	c #C6A546",
"| 	c #E3C05D",
"1 	c #BC8710",
"2 	c #AD7C10",
"3 	c #3E4954",
"4 	c #556573",
"5 	c #B5CFE5",
"6 	c #3F566C",
"7 	c #AE9C5C",
"8 	c #010100",
"9 	c #9C7E2B",
"0 	c #AB7C12",
"a 	c #242012",
"b 	c #3F4A56",
"c 	c #9DB8D2",
"d 	c #4B6983",
"e 	c #415B71",
"f 	c #2B343C",
"g 	c #3D351F",
"h 	c #A37819",
"i 	c #231F13",
"j 	c #3E4955",
"k 	c #5A6A79",
"l 	c #0B0B06",
"m 	c #A97C1A",
"n 	c #2C333C",
"o 	c #221E11",
"p 	c #EAE8E3",
"q 	c #C58F13",
"r 	c #B68411",
"s 	c #826321",
"t 	c #302C19",
"u 	c #687A8B",
"v 	c #394E62",
"w 	c #363220",
"x 	c #916F25",
"y 	c #322F1E",
"z 	c #111418",
"A 	c #364A5D",
"B 	c #181C21",
"C 	c #2B2719",
"D 	c #353120",
"E 	c #1E2B36",
"F 	c #937025",
"G 	c #202F3B",
"H 	c #080704",
"I 	c #020201",
"J 	c #030201",
"K 	c #2F2C19",
"L 	c #0A0804",
"M 	c #263644",
"N 	c #060503",
"O 	c #3B1C15",
"P 	c #CD5446",
"Q 	c #CF5749",
"R 	c #C74B3F",
"S 	c #C03F35",
"T 	c #030301",
"U 	c #D46051",
"V 	c #DD7C6F",
"W 	c #C4463A",
"X 	c #992C25",
"Y 	c #FFFFFF",
"Z 	c #DC7B6D",
"` 	c #C5483C",
" .	c #C24D45",
"..	c #6B1813",
"+.	c #CB6A63",
"@.	c #6E1813",
"#.	c #CB6A64",
"$.	c #821A16",
"%.	c #BA352D",
"&.	c #C25550",
"*.	c #6B110E",
"=.	c #BB372E",
"-.	c #B8322A",
";.	c #C35C57",
">.	c #B53732",
",.	c #470705",
"'.	c #090805",
").	c #C6635E",
"!.	c #C05350",
"~.	c #B33430",
"{.	c #520907",
"].	c #6F0E0B",
"^.	c #490504",
"/.	c #35170F",
"                        . . . . .           ",
"                    + @ # $ % & * . =       ",
"        -         ; > , ' ) ) ! ~ { ] ^     ",
"      / ( _     . : < . . . [ } | 1 2 ^     ",
"    3 4 5 6 _   . 7 8         9 ) ~ 0 a     ",
"    b c 5 d e f   .           g ) ~ h i     ",
"  j k c 5 d d e -       l . . . ) ~ m . . . ",
"  b c c 5 d d d 6 n     o p ) ) ) ~ q r s t ",
"j u c c 5 d d d d v _     w p ) ) ~ ~ x y   ",
"z c c c 5 d d d d d A B     C p ) ~ x D     ",
"  . c c 5 d d d d E .         t p F y       ",
"    . c 5 d d G . H         I J t K L       ",
"      . 5 M . N         O . P Q P R S .     ",
"        . T             . P U V U P W X .   ",
"  Y Y Y     Y Y   Y Y . Y Y Y Y Z Q `  ...  ",
"Y . . . Y Y . . Y . . Y . . . . Y P W +.@.T ",
"Y . . Y . Y . . Y . . Y Y . . Y P R S #.$.. ",
"Y . . Y . Y . . Y . . Y Y . . Y W S %.&.*.8 ",
"Y . . Y . Y . . Y . . Y Y . . Y =.-.;.>.,.'.",
"Y . . Y . Y Y . . . Y   Y . . Y ).!.~.{..   ",
"Y . . . Y     Y . Y   Y . . . . Y ].^.. /.  ",
"  Y Y Y         Y       Y Y Y Y . . J       "};
