/* XPM */
static char * buffer_write_as_xpm[] = {
"24 24 133 2",
"  	c None",
". 	c #FDD7A6",
"+ 	c #E08F4D",
"@ 	c #9A6234",
"# 	c #FD8504",
"$ 	c #F6E0AB",
"% 	c #1A1A1A",
"& 	c #3F3F3F",
"* 	c #404040",
"= 	c #1C1C1C",
"- 	c #DD6F04",
"; 	c #F3F2F1",
"> 	c #FBF9F7",
", 	c #FCF9F6",
"' 	c #FCF7F3",
") 	c #FBF5F0",
"! 	c #FAF3EE",
"~ 	c #F9F2EB",
"{ 	c #F9F0E8",
"] 	c #F8EEE5",
"^ 	c #767676",
"/ 	c #757575",
"( 	c #000000",
"_ 	c #649D9D",
": 	c #68A3A3",
"< 	c #69A5A5",
"[ 	c #ABBBB6",
"} 	c #F7ECE2",
"| 	c #747474",
"1 	c #727272",
"2 	c #E6DFDA",
"3 	c #F7EFE8",
"4 	c #F8EFE7",
"5 	c #F8EDE4",
"6 	c #F7EBE2",
"7 	c #F6EADF",
"8 	c #717171",
"9 	c #707070",
"0 	c #151515",
"a 	c #DE6935",
"b 	c #F9BEA1",
"c 	c #E1A183",
"d 	c #609898",
"e 	c #F5E7DC",
"f 	c #6F6F6F",
"g 	c #6D6D6D",
"h 	c #616161",
"i 	c #D06517",
"j 	c #C37B5A",
"k 	c #E3D8CF",
"l 	c #F4E7DC",
"m 	c #F5E7DB",
"n 	c #F5E5D8",
"o 	c #6C6C6C",
"p 	c #6B6B6B",
"q 	c #7C7C7C",
"r 	c #3A3A3A",
"s 	c #C1BCB7",
"t 	c #454038",
"u 	c #774F34",
"v 	c #945935",
"w 	c #A9B9B4",
"x 	c #F4E3D5",
"y 	c #6A6A6A",
"z 	c #686868",
"A 	c #7B7B7B",
"B 	c #797979",
"C 	c #EEE7E0",
"D 	c #E3DBD3",
"E 	c #BFB7B0",
"F 	c #B6ADA7",
"G 	c #B6ACA5",
"H 	c #B5ABA2",
"I 	c #B7ADA3",
"J 	c #C7BAAF",
"K 	c #EBDACD",
"L 	c #F3E1D2",
"M 	c #676767",
"N 	c #666666",
"O 	c #787878",
"P 	c #777777",
"Q 	c #3D3D3D",
"R 	c #3C3C3C",
"S 	c #656565",
"T 	c #636363",
"U 	c #737373",
"V 	c #6E6E6E",
"W 	c #696969",
"X 	c #646464",
"Y 	c #626262",
"Z 	c #606060",
"` 	c #5F5F5F",
" .	c #5D5D5D",
"..	c #5C5C5C",
"+.	c #E6E6E6",
"@.	c #DEDEDE",
"#.	c #D7D7D7",
"$.	c #CFCFCF",
"%.	c #C8C8C8",
"&.	c #C0C0C0",
"*.	c #8E8E8E",
"=.	c #8B8B8B",
"-.	c #5B5B5B",
";.	c #5A5A5A",
">.	c #E0E0E0",
",.	c #424242",
"'.	c #C9C9C9",
").	c #C2C2C2",
"!.	c #BABABA",
"~.	c #878787",
"{.	c #858585",
"].	c #595959",
"^.	c #575757",
"/.	c #DADADA",
"(.	c #C3C3C3",
"_.	c #BCBCBC",
":.	c #B4B4B4",
"<.	c #818181",
"[.	c #7F7F7F",
"}.	c #565656",
"|.	c #555555",
"1.	c #D4D4D4",
"2.	c #BDBDBD",
"3.	c #B6B6B6",
"4.	c #AEAEAE",
"5.	c #545454",
"6.	c #535353",
"7.	c #CECECE",
"8.	c #C6C6C6",
"9.	c #BFBFBF",
"0.	c #B7B7B7",
"a.	c #B0B0B0",
"b.	c #A8A8A8",
"                                                ",
"                                                ",
"  . + @                                         ",
"  # $ . + @ % & * * * * * * * * * = = =         ",
"  - # # $ . + @ ; > , ' ) ! ~ { ] * ^ / =       ",
"  ( - - # # $ . + @ _ : < < < [ } * | 1 =       ",
"    ( ( - - # # $ . + 2 3 4 5 6 7 * 8 9 =       ",
"      0 ( ( - - # a b c d : < [ e * f g =       ",
"      % | h ( ( i j j c c k l m n * o p =       ",
"      = q ^ r s ( t u u v ( d w x * y z =       ",
"      = A B & C D E F G H I J K L * M N =       ",
"      = O P ^ * & Q R R R R Q & * N S T =       ",
"      = ^ | U 1 9 f V o p W z M S X Y h =       ",
"      = U 1 8 f V o p y z M S X T h Z ` =       ",
"      = 8 9 V g * * * * * * * * * `  ...=       ",
"      = V g o * +.@.#.$.%.&.* *.=.* -.;.=       ",
"      = o p W * >.,.,.'.).!.* ~.{.* ].^.=       ",
"      = W z M * /.,.N (._.:.* <.[.* }.|.=       ",
"      = M = X * 1.,.N 2.3.4.* A O * 5.6.=       ",
"      = S T Y * 7.8.9.0.a.b.* ^ U * 6.6.=       ",
"        = = = = * * * * * * = = = = = =         ",
"                                                ",
"                                                ",
"                                                "};
