/* XPM */
static char const * build_xpm[] = {
"20 20 4 1",
".	c #000000",
" 	c None",
"+	c #ffffff",
"O	c #ff0000",
"     ...            ",
"   ...O...          ",
"   .OO.OO.          ",
"  ..O...O..         ",
"  .OO..OOO.         ",
"  ..OO.OO..         ",
"   .OOOOO....       ",
"   ...O....+.  .    ",
"     ...+.+++..+.   ",
"     .++++++++++..  ",
"      .+++...+++.   ",
"      .++.+. .++.   ",
"    ..++.+.   .++.. ",
"    .+++..    .+++. ",
"    ...+.+.   .+... ",
"      .++.+. .++.   ",
"      .+++...+++.   ",
"     .+++++++++++.  ",
"      .+..+++..+.   ",
"       .  .+.  .    ",
"          ...       "};

