/* XPM */
static char * changes_reject_xpm[] = {
"20 20 4 1",
" 	c None",
".	c #000000",
"+	c #FF0000",
"@	c #C00000",
"                    ",
"                    ",
"                    ",
"                    ",
"     ..      ..     ",
"    .+.     .++.    ",
"    .++.   .+@@.    ",
"    .+@+. .+@..     ",
"    .+@@@.+@.       ",
"     .@@@+@.        ",
"      .@@@@.        ",
"      .+@@@@.       ",
"     .+@.@@@@.      ",
"    .+@. .@@@@..    ",
"    .+.   .@@@@.    ",
"    .@.    ....     ",
"     .              ",
"                    ",
"                    ",
"                    "};
