/* XPM */
static char * closetab_xpm[] = {
"16 16 71 1",
" 	c None",
".	c #272727",
"+	c #2C2C2C",
"@	c #393939",
"#	c #3E3F3F",
"$	c #3F3F3F",
"%	c #2C2C2C",
"&	c #2D2D2D",
"*	c #404040",
"=	c #414141",
"-	c #2B2B2B",
";	c #333333",
">	c #3E3E3E",
",	c #444544",
"'	c #454545",
")	c #2D2D2D",
"!	c #3A3A3A",
"~	c #414141",
"{	c #484748",
"]	c #484848",
"^	c #323232",
"/	c #373737",
"(	c #474747",
"_	c #484848",
":	c #2F2F2F",
"<	c #3F3F3F",
"[	c #424242",
"}	c #484949",
"|	c #494949",
"1	c #363636",
"2	c #494949",
"3	c #FFFFFF",
"4	c #4A4A4A",
"5	c #4F4F4F",
"6	c #505050",
"7	c #525252",
"8	c #3C3C3C",
"9	c #404040",
"0	c #4D4D4D",
"a	c #4E4E4E",
"b	c #414141",
"c	c #424242",
"d	c #5A5A5A",
"e	c #5D5D5D",
"f	c #E0E0E0",
"g	c #E2E2E2",
"h	c #E3E3E3",
"i	c #E5E5E5",
"j	c #E7E7E7",
"k	c #3E3E3E",
"l	c #5B5B5B",
"m	c #4B4B4B",
"n	c #373737",
"o	c #434343",
"p	c #5E5E5E",
"q	c #626262",
"r	c #444444",
"s	c #6A6A6A",
"t	c #6B6B6B",
"u	c #737373",
"v	c #878787",
"w	c #999999",
"x	c #9B9B9B",
"y	c #9C9C9C",
"z	c #DEDEDE",
"A	c #454545",
"B	c #474747",
"C	c #494949",
"D	c #545454",
"E	c #555555",
"F	c #414140",
"                ",
"     -)::)-     ",
"    ^n8kk8n^    ",
"   19Ca77aC91   ",
"  /r5ytqqty5r/  ",
" ;b5x3iuui3x5b; ",
" !4Eef3jj3feE4! ",
" <5d7mg33gm7d5< ",
" [7eplg33glpe7[ ",
" ~6dsh3ff3hsd6~ ",
" >0Dw3z88z3wD0> ",
"  (acvobFovca(  ",
"   2B9A66A9B2   ",
"    _406604_    ",
"     ']}|{,     ",
"                "};
