/* XPM */
static char * find_replace_xpm[] = {
"24 24 196 2",
"  	c None",
". 	c #6B6B6B",
"+ 	c #6D6D6D",
"@ 	c #6F6F6F",
"# 	c #717171",
"$ 	c #737373",
"% 	c #979797",
"& 	c #5B5B5B",
"* 	c #646465",
"= 	c #6E6E6F",
"- 	c #9CA2A3",
"; 	c #CCD7D9",
"> 	c #E1EEF1",
", 	c #CAD7D8",
"' 	c #9BA3A4",
") 	c #747576",
"! 	c #747475",
"~ 	c #3D3D3D",
"{ 	c #5F5F60",
"] 	c #8D9192",
"^ 	c #E4EFF1",
"/ 	c #DFF1F4",
"( 	c #DDF2F7",
"_ 	c #DAF3F9",
": 	c #D4F0F7",
"< 	c #D5EFF5",
"[ 	c #DCEFF3",
"} 	c #8E9495",
"| 	c #747474",
"1 	c #8B8F90",
"2 	c #E6F3F5",
"3 	c #F8FCFC",
"4 	c #EEF9FB",
"5 	c #D4F1F7",
"6 	c #C3EBF3",
"7 	c #B5E3EE",
"8 	c #A6DCE8",
"9 	c #ACDDE7",
"0 	c #CCEAEF",
"a 	c #8B9294",
"b 	c #8A8A8A",
"c 	c #767676",
"d 	c #636464",
"e 	c #E4F2F4",
"f 	c #FFFFFF",
"g 	c #FCFEFE",
"h 	c #EBF9FB",
"i 	c #C9ECF2",
"j 	c #AADFEA",
"k 	c #98D6E2",
"l 	c #8ECFDA",
"m 	c #99D4DE",
"n 	c #CAE8ED",
"o 	c #707272",
"p 	c #838383",
"q 	c #6C6C6C",
"r 	c #4A4A4A",
"s 	c #535353",
"t 	c #959B9C",
"u 	c #EBF7FA",
"v 	c #F3FBFC",
"w 	c #DAF2F6",
"x 	c #BCE6EF",
"y 	c #A5DDE9",
"z 	c #93D4E2",
"A 	c #82C9D8",
"B 	c #7AC2D1",
"C 	c #A4D6E1",
"D 	c #919C9E",
"E 	c #494949",
"F 	c #505050",
"G 	c #C8D4D6",
"H 	c #D2ECF3",
"I 	c #D4EDF4",
"J 	c #ECF8FA",
"K 	c #C0E8F0",
"L 	c #97D8E6",
"M 	c #85CFE0",
"N 	c #6EC0D3",
"O 	c #60B0C2",
"P 	c #82C3CF",
"Q 	c #BBD2D4",
"R 	c #575757",
"S 	c #4D4D4D",
"T 	c #454545",
"U 	c #373737",
"V 	c #4D4D4E",
"W 	c #DFEEF0",
"X 	c #C9E8EF",
"Y 	c #C3E8F0",
"Z 	c #C9EBF2",
"` 	c #BAE7EF",
" .	c #A8DFEB",
"..	c #86D1E1",
"+.	c #73C5D9",
"@.	c #5CB2C5",
"#.	c #4EA2B2",
"$.	c #6BB7C4",
"%.	c #CEE9ED",
"&.	c #696969",
"*.	c #484848",
"=.	c #4A4A4B",
"-.	c #C5D2D5",
";.	c #C1E3EA",
">.	c #AFE0E9",
",.	c #A7DEE9",
"'.	c #A2DCE9",
").	c #95D7E6",
"!.	c #86D0E1",
"~.	c #71C8DB",
"{.	c #5CB8CB",
"].	c #4CA1B1",
"^.	c #4799A7",
"/.	c #72BCC7",
"(.	c #B8CFD3",
"_.	c #666666",
":.	c #474748",
"<.	c #8C9496",
"[.	c #C1E2EA",
"}.	c #98D4E0",
"|.	c #91D3E0",
"1.	c #8DD0DF",
"2.	c #81CBDC",
"3.	c #6FC5D8",
"4.	c #59B9CC",
"5.	c #46A4B4",
"6.	c #4092A0",
"7.	c #509CA9",
"8.	c #98D0DA",
"9.	c #889699",
"0.	c #636364",
"a.	c #535556",
"b.	c #CEE9EE",
"c.	c #9CD5DF",
"d.	c #83C9D6",
"e.	c #75C1D0",
"f.	c #68BACA",
"g.	c #55B2C4",
"h.	c #46A2B3",
"i.	c #4091A0",
"j.	c #4996A5",
"k.	c #72B8C5",
"l.	c #BEE4EA",
"m.	c #606263",
"n.	c #434344",
"o.	c #798182",
"p.	c #C1E4ED",
"q.	c #92CCD7",
"r.	c #75BDCC",
"s.	c #62B2C0",
"t.	c #54A5B3",
"u.	c #4E9BA9",
"v.	c #56A0AE",
"w.	c #79BCCB",
"x.	c #B2DFE8",
"y.	c #798486",
"z.	c #5B5B5C",
"A.	c #424243",
"B.	c #777F81",
"C.	c #CCE8EE",
"D.	c #B3DEE7",
"E.	c #9AD2DD",
"F.	c #88CAD7",
"G.	c #8ECEDC",
"H.	c #ACDCE6",
"I.	c #C6E8ED",
"J.	c #778284",
"K.	c #565657",
"L.	c #675B22",
"M.	c #8C6F4F",
"N.	c #896D4F",
"O.	c #414142",
"P.	c #4E5052",
"Q.	c #828E90",
"R.	c #B6CDD1",
"S.	c #CCE9ED",
"T.	c #B4CCD1",
"U.	c #819092",
"V.	c #555858",
"W.	c #525252",
"X.	c #635920",
"Y.	c #84682E",
"Z.	c #CA8F49",
"`.	c #D79D49",
" +	c #434343",
".+	c #474747",
"++	c #4B4B4B",
"@+	c #3C3938",
"#+	c #B47648",
"$+	c #BF8248",
"%+	c #CB9049",
"&+	c #363637",
"*+	c #A76848",
"=+	c #B37548",
"-+	c #9D9D9D",
";+	c #906741",
"          . + @ # $                 % &         ",
"      * = - ; > , ' ) !             & ~   %     ",
"    { ] ^ / ( _ : < [ } |                 &     ",
"  & 1 2 3 4 5 6 7 8 9 0 a $         b c         ",
"  d e 3 f g h i j k l m n o       p q & r       ",
"s t / u g v w x y z A B C D @     c & s E       ",
"F G H I J w K j L M N O P Q q     R S T U       ",
"V W X Y Z `  .L ..+.@.#.$.%.&.      *.U         ",
"=.-.;.>.,.'.).!.~.{.].^./.(._.                  ",
":.<.[.}.|.1.2.3.4.5.6.7.8.9.0.                  ",
"  a.b.c.d.e.f.g.h.i.j.k.l.m.                    ",
"  n.o.p.q.r.s.t.u.v.w.x.y.z.                    ",
"    A.B.C.D.E.F.G.H.I.J.K.L.M.N.                ",
"      O.P.Q.R.S.T.U.V.W.X.Y.Z.`.N.              ",
"           +T .+E ++    @+#+$+%+`.N.            ",
"  % &                   &+*+=+$+%+`.N.          ",
"  & ~   % &               &+*+=+$+%+`.N.        ",
"        & ~                 &+*+=+$+%+`.N.      ",
"-+b c                         &+*+=+$+%+`.N.    ",
"p q & r   % &                   &+*+=+$+%+N.    ",
"c & s E   & ~                     &+*+=+;+&+    ",
"R S T U                             &+&+&+      ",
"                                                ",
"                                                "};
