/* XPM */
static char const * bold_xpm[] = {
"20 20 2 1",
" 	c #BFBFBFBFBFBF",
".	c #000000000000",
"                    ",
" ...           .... ",
" ...          ..... ",
" ...          ...   ",
" ...          ...   ",
" ...          ...   ",
" ... ...    ....... ",
" ........   ....... ",
" ....  ...    ...   ",
" ...    ..    ...   ",
" ...    ...   ...   ",
" ...     ..   ...   ",
" ...     ..   ...   ",
" ...     ..   ...   ",
" ...    ...   ...   ",
" ...    ..    ...   ",
" ....  ...    ...   ",
" ........     ...   ",
" ... ...      ...   ",
"                    "};



