/* XPM */
static char * footnote_insert_xpm[] = {
"20 20 3 1",
" 	c None",
".	c #000000",
"+	c #7B0000",
".                   ",
".                   ",
".   ............... ",
".                   ",
".   ............... ",
".                   ",
".   ............... ",
".                   ",
".   ............... ",
".                   ",
".                   ",
".                   ",
".                   ",
".   ++++++++        ",
".                   ",
".   ++++++++        ",
".                   ",
".                   ",
".                   ",
"...................."};
