/* XPM */
static char const * fig_xpm[] = {
"20 20 4 1",
" 	c None",
".	c #FFFFFFFFFFFF",
"X	c #7B7B00000000",
"o	c gray70",
"                    ",
" .................. ",
" ..              .. ",
" .................. ",
" ..              .. ",
" .................. ",
" ....XXXXXXXXXX.... ",
" ....X........X.... ",
" ....X....  ..X.... ",
" ....X... .. .X.... ",
" ....X.. oooo X.... ",
" ....X. ooooooX.... ",
" ....X oooooooX.... ",
" ....XXXXXXXXXX.... ",
" .................. ",
" ..              .. ",
" .................. ",
" ..              .. ",
" .................. ",
"                    "};


