/* XPM */
static char const * layout_code_xpm[] = {
"20 20 4 1",
" 	c #7f7f7f",
".	c black",
"X	c white",
"+      c #7B0000",
".XXXXXXXXXXXXXXXXXX ",
".X..........XXXXXXX ",
".XXXXXXXXXXXXXXXXXX ",
".X..........XXXXXXX ",
".XXXXXXXXXXXXXXXXXX ",
".XXXX..........XXXX ",
".XXXXXXXXXXXXXXXXXX ",
".XXXXXXX.........XX ",
".XXXXXXXXXXXXXXXXXX ",
".X............XXXXX ",
".XXXXXXXXXXX++++XXX ",
".X.......X++++++++X ",
".XXXXXXXXX+++XX+++X ",
".XXXX...X+++XXXXXXX ",
".XXXXXXXX+++XXXXXXX ",
".XXXX...XX+++XX+++X ",
".XXXXXXXXX++++++++X ",
".X.......XXX++++XXX ",
".XXXXXXXXXXXXXXXXXX ",
"................... "};




