/* XPM */
static char const * layout_std_xpm[] = {
"20 20 3 1",
" 	c gray50",
".	c #000000000000",
"X	c #FFFFFFFFFFFF",
"                    ",
".XXXXXXXXXXXXXXXXXX ",
".XXXXXX............ ",
".XXXXXXXXXXXXXXXXXX ",
".X................. ",
".XXXXXXXXXXXXXXXXXX ",
".X................. ",
".XXXXXXXXXXXXXXXXXX ",
".X................. ",
".XXXXXXXXXXXXXXXXXX ",
".XXXXXXXXXXXXXXXXXX ",
".XXXXXX............ ",
".XXXXXXXXXXXXXXXXXX ",
".X................. ",
".XXXXXXXXXXXXXXXXXX ",
".X................. ",
".XXXXXXXXXXXXXXXXXX ",
".XXXXXXXXXXXXXXXXXX ",
".XXXXXXXXXXXXXXXXXX ",
"................... "};


