/* XPM */
static char const * super_xpm[] = {
"20 20 3 1",
" 	c None",
"X	c #000000",
".	c #0000ff",
"                    ",
"          .....     ",
"          .   .     ",
"          .   .     ",
"   XXXXXX .   .     ",
"   X    X .   .     ",
"   X    X .   .     ",
"   X    X .....     ",
"   X    X           ",
"   X    X           ",
"   X    X           ",
"   X    X           ",
"   X    X           ",
"   XXXXXX           ",
"                    ",
"                    ",
"                    ",
"                    ",
"                    ",
"                    "};
