/* XPM */
static char *math-matrix[] = {
/* columns rows colors chars-per-pixel */
"22 22 4 1",
"  c black",
". c #0000c0",
"X c #800080",
"o c None",
/* pixels */
"oooooooooooooooooooooo",
"oooooooooooooooooooooo",
"ooXXXXoXXXXoXXXXoXXXXo",
"ooXooXoXooXoXooXoXooXo",
"ooXooXoXooXoXooXoXooXo",
"ooXXXXoXXXXoXXXXoXXXXo",
"oooooooooooooooooooooo",
"ooXXXXoXXXXoXXXXoXXXXo",
"ooXooXoXooXoXooXoXooXo",
"ooXooXoXooXoXooXoXooXo",
"ooXXXXoXXXXoXXXXoXXXXo",
"oooooooooooooooooooooo",
"ooXXXXoXXXXoXXXXoXXXXo",
"ooXooXoXooXoXooXoXooXo",
"ooXooXoXooXoXooXoXooXo",
"ooXXXXoXXXXoXXXXoXXXXo",
"oooooooooooooooooooooo",
"ooXXXXoXXXXoXXXXoXXXXo",
"ooXooXoXooXoXooXoXooXo",
"ooXooXoXooXoXooXoXooXo",
"ooXXXXoXXXXoXXXXoXXXXo",
"oooooooooooooooooooooo"
};
