/* XPM */
static char const * sub_xpm[] = {
"20 20 3 1",
" 	c None",
".	c Black",
"X	c Blue",
"                    ",
"                    ",
"                    ",
"                    ",
"   ......           ",
"   .    .           ",
"   .    .           ",
"   .    .           ",
"   .    .           ",
"   .    .           ",
"   .    . XXXXX     ",
"   .    . X   X     ",
"   .    . X   X     ",
"   ...... X   X     ",
"          X   X     ",
"          X   X     ",
"          XXXXX     ",
"                    ",
"                    ",
"                    "};
