/* XPM */
static char * nomencl_insert_xpm[] = {
"22 22 8 1",
" 	c None",
".	c #000000",
"+	c #FFFFFF",
"@	c #FFDEAC",
"#	c #C5C2C5",
"$	c #FFAA5A",
"%	c #7F7F7F",
"&	c #BFBFBF",
"                      ",
"                      ",
"                      ",
"                      ",
"   ................   ",
"  .++++++++++++++++.  ",
"  .+....+++++++++++.  ",
"  ...@@.+++++#+++++.  ",
"  ..@@.....+++##+++.  ",
" ..@@@@@@$@.++#++++.  ",
" .@@@@......%&%.%++.  ",
" .@@@@$$.++++#+++++.  ",
" .@@@@@@.#+#..#.+++.  ",
" ..$$$$.+++++++++++.  ",
"  ......+++++++++++.  ",
"  .++++++++++++++++.  ",
"   ................   ",
"                      ",
"                      ",
"                      ",
"                      ",
"                      "};
