/* XPM */
static char *note-insert[] = {
/* columns rows colors chars-per-pixel */
"22 22 7 1",
"  c #000000",
". c #7f7f00",
"X c #7f7f7f",
"o c #ffff00",
"O c #bfbfbf",
"+ c #ffffff",
"@ c None",
/* pixels */
"@@@@@@@@@@@@@@@@@@@@@@",
"@@@@@@@@@@@@@@@@@@@@@@",
"@@@@@@@@@@@@@@@@@@@@@@",
"@@@@@@@@@@@@@@@@@@@@@@",
"@@@                @@@",
"@@ o+o+o+o+o+o+o+o+ O@",
"@@ +o+o+o+o+o+o+o+o X@",
"@O o+.   .   .. +o+ X@",
"@O +o+o+o+o+o+o+o+o @@",
"@O o+ ...  o.   +o+ @@",
"@O +o+o+o+o+o+o+o+o @@",
"@@ o+..  ..  o+o+o+ @@",
"@O +o+o+o+o+o+o+o+o @@",
"@O o+... .. +o+o+o+ @@",
"@@ +o+o+o+o+o+o+o+o @@",
"@@ o+o+o+o+o+o+o+o+ @@",
"@@O                @O@",
"@@@@@@@@@@@@@@@@@@@@@@",
"@@@@@@@@@@@@@@@@@@@@@@",
"@@O@@@@@@@@@@@@@@@@@@@",
"@@@@@@@@@@@@@@@@@@@@@@",
"@@@@@@@@@@@@@@@@@@@@@@"
};
