/* XPM */
static char *promote[] = {
/* columns rows colors chars-per-pixel */
"20 20 4 1",
"  c black",
". c #0000BC",
"X c blue",
"o c None",
/* pixels */
"oooooooooooooooooooo",
"oooo ooooooooooooooo",
"ooo  ooooooooooooooo",
"oooo oooo        ooo",
"oooo ooooooooooooooo",
"oooo oo.oooooooooooo",
"oooooo.Xoooooooooooo",
"ooooo.XXoooooo oooo ",
"oooo.XXXXXXXo  ooo  ",
"ooo.XXXXXXXXoo oooo ",
"oooo.XXXXXXXoo oooo ",
"ooooo.XXoooooo oo o ",
"oooooo.Xoooooooooooo",
"oooo oo.oooooooooooo",
"ooo o oooooooooooooo",
"ooooo ooo        ooo",
"oooo ooooooooooooooo",
"ooo   oooooooooooooo",
"oooooooooooooooooooo",
"oooooooooooooooooooo"
};
