#define psnfss3_width 264
#define psnfss3_height 174
static char psnfss3_bits[] = {
 0x00,0x00,0x00,0x00,0x00,0x00,0x00,0x00,0x00,0x00,0x00,0x00,0x00,0x00,0x00,
 0x00,0x00,0x00,0x00,0x00,0x00,0x00,0x00,0x00,0x00,0x00,0x00,0x00,0x00,0x00,
 0x00,0x00,0x00,0x00,0x00,0x00,0x00,0x00,0x00,0x00,0x00,0x00,0x00,0x00,0x00,
 0x00,0x00,0x00,0x00,0x00,0x00,0x00,0x00,0x00,0x00,0x00,0x00,0x00,0x00,0x00,
 0x00,0x00,0x00,0x00,0x00,0x00,0x00,0x00,0x00,0x00,0x00,0x00,0x00,0x00,0x00,
 0x00,0x00,0x00,0x00,0x00,0x00,0x00,0x00,0x00,0x00,0x00,0x00,0x00,0x00,0x00,
 0x00,0x00,0x00,0x00,0x00,0x00,0x00,0x00,0x00,0x00,0x00,0x00,0x00,0x00,0x00,
 0x00,0x00,0x00,0x00,0x00,0x00,0x00,0x00,0x00,0x00,0x00,0x00,0x00,0x00,0x00,
 0x00,0x00,0x00,0x00,0x00,0x00,0x00,0x00,0x00,0x00,0x00,0x00,0x00,0x00,0x00,
 0x00,0x00,0x00,0x00,0x00,0x00,0x00,0x00,0x00,0x00,0x00,0x00,0x00,0x00,0x00,
 0x00,0x00,0x00,0x00,0x00,0x00,0x00,0x00,0x00,0x00,0x00,0x00,0x00,0x00,0x00,
 0x00,0x00,0x00,0x00,0x00,0x00,0x00,0x00,0x00,0x00,0x00,0x00,0x00,0x00,0x00,
 0x00,0x00,0x00,0x00,0x00,0x00,0x00,0x00,0x00,0x00,0x00,0x00,0x00,0x00,0x00,
 0x00,0x00,0x00,0x00,0x00,0x00,0x00,0x00,0x00,0x00,0x00,0x00,0x00,0x00,0x00,
 0x00,0x00,0x00,0x00,0x00,0x00,0x00,0x00,0x00,0x00,0x00,0x00,0x70,0x00,0x00,
 0x00,0x00,0xc0,0x07,0x00,0x00,0x00,0x00,0x0c,0x00,0x00,0x00,0x00,0x00,0x01,
 0x00,0x00,0x00,0x00,0x10,0x00,0x00,0x00,0x00,0x00,0x01,0x00,0x00,0x00,0x00,
 0x70,0x00,0x00,0x00,0x00,0xf0,0x1f,0x00,0x00,0x00,0x00,0x1c,0x00,0x00,0x00,
 0x00,0x00,0x03,0x00,0x00,0x00,0x00,0x10,0x00,0x00,0x00,0x00,0x00,0x01,0x00,
 0x00,0x00,0x00,0xe0,0x00,0x00,0x00,0x00,0xf8,0x3e,0x00,0x00,0x00,0x00,0x12,
 0x00,0x00,0x00,0x00,0x80,0x02,0x00,0x00,0x00,0x00,0x38,0x00,0x00,0x00,0x00,
 0x80,0x03,0x00,0x00,0x00,0x00,0xe8,0x00,0x00,0x00,0x00,0x7c,0x3e,0x00,0x00,
 0x00,0xe0,0xff,0x03,0x00,0x00,0x00,0x80,0x04,0x00,0x00,0x00,0x00,0x38,0x00,
 0x00,0x00,0x00,0x80,0x03,0x00,0x00,0x00,0x00,0xc8,0x01,0x00,0x00,0x00,0x7e,
 0x7e,0x00,0x00,0x00,0x60,0x21,0x01,0x00,0x00,0x00,0xf4,0xb6,0x00,0x00,0x00,
 0x00,0x38,0x00,0x00,0x00,0x00,0x80,0x03,0x00,0x00,0x00,0x40,0xc5,0x15,0x00,
 0x00,0x00,0x7e,0xf4,0x00,0x00,0x00,0xc0,0xc1,0x00,0x00,0x00,0x00,0xd6,0xcf,
 0x00,0x00,0x00,0xe0,0xef,0x0f,0x00,0x00,0x00,0xfe,0xff,0x00,0x00,0x00,0xa0,
 0x02,0x3a,0x00,0x00,0x00,0x06,0xc0,0x00,0x00,0x00,0x80,0xc0,0x00,0x00,0x00,
 0x00,0xc8,0x27,0x00,0x00,0x00,0x80,0xc7,0x07,0x00,0x00,0x00,0xf8,0x3f,0x00,
 0x00,0x00,0x80,0x00,0x1e,0x00,0x00,0x00,0x0f,0xf0,0x00,0x00,0x00,0xc0,0xc0,
 0x00,0x00,0x00,0x00,0xd0,0x37,0x00,0x00,0x00,0x00,0x83,0x01,0x00,0x00,0x00,
 0xf0,0x1f,0x00,0x00,0x00,0x00,0x01,0x0f,0x00,0x00,0x00,0x1e,0xf8,0x00,0x00,
 0x00,0x40,0xc1,0x01,0x00,0x00,0x00,0xe0,0x0f,0x00,0x00,0x00,0x00,0xc4,0x00,
 0x00,0x00,0x00,0xe0,0x0f,0x00,0x00,0x00,0x00,0x82,0x03,0x00,0x00,0x00,0x3e,
 0x78,0x00,0x00,0x00,0xe0,0x75,0x01,0x00,0x00,0x00,0xa0,0x1b,0x00,0x00,0x00,
 0x00,0xee,0x00,0x00,0x00,0x00,0xe0,0x0f,0x00,0x00,0x00,0x00,0x82,0x07,0x00,
 0x00,0x00,0x1e,0x79,0x00,0x00,0x00,0xa0,0xbf,0x03,0x00,0x00,0x00,0x30,0x13,
 0x00,0x00,0x00,0x00,0xfe,0x00,0x00,0x00,0x00,0xe0,0x0f,0x00,0x00,0x00,0x00,
 0x31,0x07,0x00,0x00,0x00,0xdc,0x7b,0x00,0x00,0x00,0x00,0x14,0x00,0x00,0x00,
 0x00,0x90,0x16,0x00,0x00,0x00,0x00,0xc6,0x01,0x00,0x00,0x00,0xf0,0x1e,0x00,
 0x00,0x00,0x00,0x7d,0x07,0x00,0x00,0x00,0xec,0x37,0x00,0x00,0x00,0x00,0x0c,
 0x00,0x00,0x00,0x00,0x70,0x14,0x00,0x00,0x00,0x00,0x83,0x01,0x00,0x00,0x00,
 0x30,0x18,0x00,0x00,0x00,0x00,0x1f,0x0f,0x00,0x00,0x00,0xf8,0x1f,0x00,0x00,
 0x00,0x00,0x08,0x00,0x00,0x00,0x00,0x10,0x10,0x00,0x00,0x00,0x00,0x01,0x02,
 0x00,0x00,0x00,0x10,0x10,0x00,0x00,0x00,0x00,0x0f,0x0e,0x00,0x00,0x00,0xe0,
 0x0f,0x00,0x00,0x00,0x00,0x00,0x00,0x00,0x00,0x00,0x00,0x00,0x00,0x00,0x00,
 0x00,0x00,0x00,0x00,0x00,0x00,0x00,0x00,0x00,0x00,0x00,0x00,0x00,0x00,0x00,
 0x00,0x00,0x00,0x01,0x00,0x00,0x00,0x00,0x00,0x00,0x00,0x00,0x00,0x00,0x00,
 0x00,0x00,0x00,0x00,0x00,0x00,0x00,0x00,0x00,0x00,0x00,0x00,0x00,0x00,0x00,
 0x00,0x00,0x00,0x00,0x00,0x00,0x00,0x00,0x00,0x00,0x00,0x00,0x00,0x00,0x00,
 0x00,0x00,0x00,0x00,0x00,0x00,0x00,0x00,0x00,0x00,0x00,0x00,0x00,0x00,0x00,
 0x00,0x00,0x00,0x00,0x00,0x00,0x00,0x00,0x00,0x00,0x00,0x00,0x00,0x00,0x00,
 0x00,0x00,0x00,0x00,0x00,0x00,0x00,0x00,0x00,0x00,0x00,0x00,0x00,0x00,0x00,
 0x00,0x00,0x00,0x00,0x00,0x00,0x00,0x00,0x00,0x00,0x00,0x00,0x00,0x00,0x00,
 0x00,0x00,0x00,0x00,0x00,0x00,0x00,0x00,0x00,0x00,0x00,0x00,0x00,0x00,0x00,
 0x00,0x00,0x00,0x00,0x00,0x00,0x00,0x00,0x00,0x00,0x00,0x00,0x00,0x00,0x00,
 0x00,0x00,0x00,0x00,0x00,0x00,0x00,0x00,0x00,0x00,0x00,0x00,0x00,0x00,0x00,
 0x00,0x00,0x00,0x00,0x00,0x00,0x00,0x00,0x00,0x00,0x00,0x00,0x00,0x00,0x00,
 0x00,0x00,0x00,0x00,0x00,0x00,0x00,0x00,0x00,0x00,0x00,0x00,0x00,0x00,0x00,
 0x00,0x00,0x00,0x00,0x00,0x00,0x00,0x00,0x00,0x00,0x00,0x00,0x00,0x00,0x00,
 0x00,0x00,0x00,0x00,0x00,0x00,0x00,0x00,0x00,0x00,0x00,0x00,0x00,0x00,0x00,
 0x00,0x00,0x00,0x00,0x00,0x00,0x00,0x00,0x00,0x00,0x00,0x00,0x00,0x00,0x00,
 0x00,0x00,0x00,0x00,0x00,0x00,0x00,0x00,0x00,0x00,0x00,0x00,0x00,0x00,0x00,
 0x00,0x00,0x00,0x00,0x00,0x00,0x00,0x00,0x00,0x00,0x00,0x00,0x00,0x00,0x00,
 0x00,0x00,0x00,0x00,0x00,0x00,0x00,0x00,0x00,0x00,0x00,0x00,0x00,0x00,0x00,
 0x00,0x00,0x00,0x00,0x00,0x00,0x00,0x00,0x00,0x00,0x00,0x00,0x00,0x00,0x00,
 0x00,0x00,0x00,0x00,0x00,0x00,0x00,0x00,0x00,0x00,0x00,0x00,0x00,0x00,0x00,
 0x00,0x00,0x00,0x00,0x00,0x00,0x00,0x00,0x00,0x00,0x00,0x00,0x00,0x00,0x00,
 0x00,0x00,0x00,0x00,0x00,0x00,0x00,0x00,0x00,0x00,0x00,0x00,0x00,0x00,0x00,
 0x00,0x00,0x00,0x00,0x00,0x00,0x00,0x00,0x00,0x00,0x00,0x00,0x00,0x00,0x00,
 0x00,0x00,0x00,0x00,0x00,0x00,0x00,0x00,0x00,0x00,0x00,0x00,0x00,0x00,0x00,
 0x00,0x00,0x00,0x00,0x00,0x00,0x00,0x00,0x00,0x00,0x00,0x00,0x00,0x00,0x00,
 0x00,0x00,0x00,0x00,0x00,0x00,0x00,0x00,0x00,0x00,0x00,0x00,0x00,0x00,0x00,
 0x00,0x00,0x00,0x00,0x00,0x00,0x00,0x00,0x00,0x00,0x00,0x00,0x00,0x00,0x00,
 0x00,0x00,0x00,0x00,0x00,0x00,0x00,0x00,0x00,0x00,0x00,0x00,0x00,0x00,0x00,
 0x00,0x00,0x00,0x00,0x00,0x00,0x00,0x00,0x00,0x00,0x00,0x00,0x00,0x00,0x00,
 0x00,0x00,0x00,0x00,0x00,0x00,0x00,0x00,0x00,0x00,0x00,0x00,0x00,0x00,0x00,
 0x00,0x00,0x00,0x00,0x01,0x00,0x00,0x00,0x00,0x08,0x00,0x00,0x00,0x00,0xc0,
 0x07,0x00,0x00,0x00,0x00,0x18,0x00,0x00,0x00,0x00,0x00,0x01,0x00,0x00,0x00,
 0x00,0x10,0x00,0x00,0x00,0x00,0x00,0x01,0x00,0x00,0x00,0x00,0x4a,0x00,0x00,
 0x00,0x00,0xf0,0x1e,0x00,0x00,0x00,0x00,0x38,0x00,0x00,0x00,0x00,0x00,0x03,
 0x00,0x00,0x00,0x00,0x30,0x00,0x00,0x00,0x00,0x00,0x21,0x00,0x00,0x00,0x00,
 0x6a,0x00,0x00,0x00,0x00,0xf8,0x1e,0x00,0x00,0x00,0x00,0x38,0x00,0x00,0x00,
 0x00,0x80,0x02,0x00,0x00,0x00,0x00,0x28,0x00,0x00,0x00,0x00,0x98,0x11,0x00,
 0x00,0x00,0xc0,0xac,0x01,0x00,0x00,0x00,0xec,0x6e,0x00,0x00,0x00,0x00,0x68,
 0x00,0x00,0x00,0x00,0x80,0x03,0x00,0x00,0x00,0x00,0x38,0x00,0x00,0x00,0x00,
 0x70,0x1f,0x00,0x00,0x00,0x00,0xbd,0x00,0x00,0x00,0x00,0xae,0x76,0x00,0x00,
 0x00,0x40,0xd7,0x05,0x00,0x00,0x00,0x40,0x05,0x00,0x00,0x00,0x00,0x60,0x00,
 0x00,0x00,0x00,0xd0,0x0b,0x00,0x00,0x00,0xe0,0x7b,0x07,0x00,0x00,0x00,0x2e,
 0x70,0x00,0x00,0x00,0xe0,0x5d,0x0f,0x00,0x00,0x00,0xfe,0xfb,0x00,0x00,0x00,
 0xe0,0xf7,0x0f,0x00,0x00,0x00,0xa0,0x0d,0x00,0x00,0x00,0x00,0xff,0x00,0x00,
 0x00,0x00,0x1e,0xf8,0x00,0x00,0x00,0xc0,0xfe,0x06,0x00,0x00,0x00,0xe8,0x5f,
 0x00,0x00,0x00,0x80,0x2e,0x07,0x00,0x00,0x00,0xfc,0xf7,0x00,0x00,0x00,0xe0,
 0xff,0x07,0x00,0x00,0x00,0x13,0xc8,0x00,0x00,0x00,0x80,0x7b,0x03,0x00,0x00,
 0x00,0xd0,0x2f,0x00,0x00,0x00,0x00,0xf1,0x01,0x00,0x00,0x00,0xaa,0x1f,0x00,
 0x00,0x00,0x00,0x7e,0x00,0x00,0x00,0x00,0x16,0xe8,0x00,0x00,0x00,0x00,0xba,
 0x00,0x00,0x00,0x00,0xe0,0x0f,0x00,0x00,0x00,0x00,0xae,0x00,0x00,0x00,0x00,
 0xe0,0x0a,0x00,0x00,0x00,0xc0,0xff,0x03,0x00,0x00,0x00,0x1e,0xf8,0x00,0x00,
 0x00,0x00,0xef,0x01,0x00,0x00,0x00,0xe0,0x17,0x00,0x00,0x00,0x00,0x6e,0x01,
 0x00,0x00,0x00,0xb0,0x0e,0x00,0x00,0x00,0x60,0x56,0x06,0x00,0x00,0x00,0x2e,
 0x74,0x00,0x00,0x00,0x00,0x3b,0x01,0x00,0x00,0x00,0xd0,0x1e,0x00,0x00,0x00,
 0x00,0x76,0x01,0x00,0x00,0x00,0xb0,0x1a,0x00,0x00,0x00,0x80,0xbd,0x00,0x00,
 0x00,0x00,0xcc,0x66,0x00,0x00,0x00,0x00,0xed,0x01,0x00,0x00,0x00,0xd0,0x16,
 0x00,0x00,0x00,0x00,0xcb,0x01,0x00,0x00,0x00,0x88,0x31,0x00,0x00,0x00,0x80,
 0x6a,0x01,0x00,0x00,0x00,0x7c,0x3e,0x00,0x00,0x00,0x00,0xc7,0x01,0x00,0x00,
 0x00,0x30,0x18,0x00,0x00,0x00,0x00,0x03,0x03,0x00,0x00,0x00,0x00,0x01,0x00,
 0x00,0x00,0x00,0x4a,0x00,0x00,0x00,0x00,0xf8,0x1e,0x00,0x00,0x00,0x80,0x01,
 0x01,0x00,0x00,0x00,0x10,0x30,0x00,0x00,0x00,0x00,0x01,0x02,0x00,0x00,0x00,
 0x00,0x01,0x00,0x00,0x00,0x00,0x48,0x00,0x00,0x00,0x00,0xe0,0x0f,0x00,0x00,
 0x00,0x00,0x00,0x00,0x00,0x00,0x00,0x00,0x00,0x00,0x00,0x00,0x00,0x00,0x00,
 0x00,0x00,0x00,0x00,0x00,0x00,0x00,0x00,0x00,0x00,0x00,0x00,0x00,0x00,0x80,
 0x00,0x00,0x00,0x00,0x00,0x00,0x00,0x00,0x00,0x00,0x00,0x00,0x00,0x00,0x00,
 0x00,0x00,0x00,0x00,0x00,0x00,0x00,0x00,0x00,0x00,0x00,0x00,0x00,0x00,0x00,
 0x00,0x00,0x00,0x00,0x00,0x00,0x00,0x00,0x00,0x00,0x00,0x00,0x00,0x00,0x00,
 0x00,0x00,0x00,0x00,0x00,0x00,0x00,0x00,0x00,0x00,0x00,0x00,0x00,0x00,0x00,
 0x00,0x00,0x00,0x00,0x00,0x00,0x00,0x00,0x00,0x00,0x00,0x00,0x00,0x00,0x00,
 0x00,0x00,0x00,0x00,0x00,0x00,0x00,0x00,0x00,0x00,0x00,0x00,0x00,0x00,0x00,
 0x00,0x00,0x00,0x00,0x00,0x00,0x00,0x00,0x00,0x00,0x00,0x00,0x00,0x00,0x00,
 0x00,0x00,0x00,0x00,0x00,0x00,0x00,0x00,0x00,0x00,0x00,0x00,0x00,0x00,0x00,
 0x00,0x00,0x00,0x00,0x00,0x00,0x00,0x00,0x00,0x00,0x00,0x00,0x00,0x00,0x00,
 0x00,0x00,0x00,0x00,0x00,0x00,0x00,0x00,0x00,0x00,0x00,0x00,0x00,0x00,0x00,
 0x00,0x00,0x00,0x00,0x00,0x00,0x00,0x00,0x00,0x00,0x00,0x00,0x00,0x00,0x00,
 0x00,0x00,0x00,0x00,0x00,0x00,0x00,0x00,0x00,0x00,0x00,0x00,0x00,0x00,0x00,
 0x00,0x00,0x00,0x00,0x00,0x00,0x00,0x00,0x00,0x00,0x00,0x00,0x00,0x00,0x00,
 0x00,0x00,0x00,0x00,0x00,0x00,0x00,0x00,0x00,0x00,0x00,0x00,0x00,0x00,0x00,
 0x00,0x00,0x00,0x00,0x00,0x00,0x00,0x00,0x00,0x00,0x00,0x00,0x00,0x00,0x00,
 0x00,0x00,0x00,0x00,0x00,0x00,0x00,0x00,0x00,0x00,0x00,0x00,0x00,0x00,0x00,
 0x00,0x00,0x00,0x00,0x00,0x00,0x00,0x00,0x00,0x00,0x00,0x00,0x00,0x00,0x00,
 0x00,0x00,0x00,0x00,0x00,0x00,0x00,0x00,0x00,0x00,0x00,0x00,0x00,0x00,0x00,
 0x00,0x00,0x00,0x00,0x00,0x00,0x00,0x00,0x00,0x00,0x00,0x00,0x00,0x00,0x00,
 0x00,0x00,0x00,0x00,0x00,0x00,0x00,0x00,0x00,0x00,0x00,0x00,0x00,0x00,0x00,
 0x00,0x00,0x00,0x00,0x00,0x00,0x00,0x00,0x00,0x00,0x00,0x00,0x00,0x00,0x00,
 0x00,0x00,0x00,0x00,0x00,0x00,0x00,0x00,0x00,0x00,0x00,0x00,0x00,0x00,0x00,
 0x00,0x00,0x00,0x00,0x00,0x00,0x00,0x00,0x00,0x00,0x00,0x00,0x00,0x00,0x00,
 0x00,0x00,0x00,0x00,0x00,0x00,0x00,0x00,0x00,0x00,0x00,0x00,0x00,0x00,0x00,
 0x00,0x00,0x00,0x00,0x00,0x00,0x00,0x00,0x00,0x00,0x00,0x00,0x00,0x00,0x00,
 0x00,0x00,0x00,0x00,0x00,0x00,0x00,0x00,0x00,0x00,0x00,0x00,0x00,0x00,0x00,
 0x00,0x00,0x00,0x00,0x00,0x00,0x00,0x00,0x00,0x00,0x00,0x00,0x00,0x00,0x00,
 0x00,0x00,0x00,0x00,0x00,0x00,0x00,0x00,0x00,0x00,0x00,0x00,0x00,0x00,0x00,
 0x00,0x00,0x00,0x00,0x00,0x00,0x00,0x00,0x00,0x00,0x00,0x00,0x00,0x00,0x08,
 0x00,0x00,0x00,0x00,0x00,0x00,0x00,0x00,0x00,0x00,0x00,0x00,0x00,0x00,0x00,
 0x00,0x00,0x00,0x00,0x00,0x00,0x00,0x00,0x00,0x00,0x00,0x00,0x00,0x00,0x00,
 0x00,0x00,0x08,0x00,0x00,0x00,0x00,0x00,0x01,0x00,0x00,0x00,0x00,0x08,0x00,
 0x00,0x00,0x00,0x20,0x04,0x00,0x00,0x00,0x00,0x42,0x00,0x00,0x00,0x00,0x00,
 0x09,0x00,0x00,0x00,0x00,0x18,0x00,0x00,0x00,0x00,0x00,0x01,0x00,0x00,0x00,
 0x00,0x0c,0x00,0x00,0x00,0x00,0x60,0x06,0x00,0x00,0x00,0x00,0x66,0x00,0x00,
 0x00,0x00,0xb0,0x09,0x00,0x00,0x00,0xc0,0x88,0x01,0x00,0x00,0x00,0x88,0x11,
 0x00,0x00,0x00,0x00,0x0c,0x00,0x00,0x00,0x00,0xe0,0x06,0x00,0x00,0x00,0x00,
 0x7e,0x00,0x00,0x00,0x00,0xe0,0x0f,0x00,0x00,0x00,0x00,0x89,0x00,0x00,0x00,
 0x00,0xb0,0x0c,0x00,0x00,0x00,0x60,0x0c,0x03,0x00,0x00,0x00,0xc2,0x43,0x00,
 0x00,0x00,0x40,0x7e,0x02,0x00,0x00,0x00,0xfc,0x3f,0x00,0x00,0x00,0x00,0x6a,
 0x00,0x00,0x00,0x00,0xa0,0x07,0x00,0x00,0x00,0xc0,0xff,0x00,0x00,0x00,0x00,
 0xfc,0x7f,0x00,0x00,0x00,0xe0,0xff,0x07,0x00,0x00,0x00,0xf0,0x1f,0x00,0x00,
 0x00,0x00,0x14,0x00,0x00,0x00,0x00,0xc0,0x07,0x00,0x00,0x00,0x80,0xff,0x00,
 0x00,0x00,0x00,0xf8,0x1f,0x00,0x00,0x00,0x80,0xff,0x01,0x00,0x00,0x00,0xf8,
 0x3f,0x00,0x00,0x00,0xe0,0xff,0x07,0x00,0x00,0x00,0xfc,0xff,0x00,0x00,0x00,
 0x00,0x3f,0x00,0x00,0x00,0x00,0xf0,0x0f,0x00,0x00,0x00,0x00,0xff,0x00,0x00,
 0x00,0x00,0xfe,0x7f,0x00,0x00,0x00,0xa0,0x1c,0x00,0x00,0x00,0x00,0xe8,0x07,
 0x00,0x00,0x00,0x00,0x7f,0x00,0x00,0x00,0x00,0xf0,0x0f,0x00,0x00,0x00,0x80,
 0xff,0x01,0x00,0x00,0x00,0xf0,0x1f,0x00,0x00,0x00,0x00,0x2c,0x00,0x00,0x00,
 0x00,0xe0,0x07,0x00,0x00,0x00,0x80,0xff,0x00,0x00,0x00,0x00,0xfc,0x3f,0x00,
 0x00,0x00,0xc0,0xff,0x03,0x00,0x00,0x00,0xf8,0x1f,0x00,0x00,0x00,0x00,0x6b,
 0x00,0x00,0x00,0x00,0xa0,0x0d,0x00,0x00,0x00,0xc0,0xdd,0x01,0x00,0x00,0x00,
 0xee,0x77,0x00,0x00,0x00,0xe0,0xff,0x07,0x00,0x00,0x00,0xfc,0x3f,0x00,0x00,
 0x00,0x00,0xc1,0x00,0x00,0x00,0x00,0x10,0x09,0x00,0x00,0x00,0x20,0x0c,0x01,
 0x00,0x00,0x00,0xe0,0x07,0x00,0x00,0x00,0x00,0x7e,0x00,0x00,0x00,0x00,0xe0,
 0x0f,0x00,0x00,0x00,0xc0,0x08,0x01,0x00,0x00,0x00,0x08,0x11,0x00,0x00,0x00,
 0x00,0x0c,0x00,0x00,0x00,0x00,0x60,0x06,0x00,0x00,0x00,0x00,0x6e,0x00,0x00,
 0x00,0x00,0xa0,0x0d,0x00,0x00,0x00,0x00,0x18,0x00,0x00,0x00,0x00,0x00,0x01,
 0x00,0x00,0x00,0x00,0x08,0x00,0x00,0x00,0x00,0x20,0x04,0x00,0x00,0x00,0x00,
 0x62,0x00,0x00,0x00,0x00,0x90,0x08,0x00,0x00,0x00,0x00,0x08,0x00,0x00,0x00,
 0x00,0x00,0x00,0x00,0x00,0x00,0x00,0x08,0x00,0x00,0x00,0x00,0x20,0x04,0x00,
 0x00,0x00,0x00,0x42,0x00,0x00,0x00,0x00,0x00,0x00,0x00,0x00,0x00,0x00,0x00,
 0x00,0x00,0x00,0x00,0x00,0x00,0x00,0x00,0x00,0x00,0x00,0x00,0x00,0x00,0x00,
 0x00,0x00,0x00,0x00,0x00,0x00,0x00,0x00,0x00,0x00,0x00,0x00,0x00,0x00,0x00,
 0x00,0x00,0x00,0x00,0x00,0x00,0x00,0x00,0x00,0x00,0x00,0x00,0x00,0x00,0x00,
 0x00,0x00,0x00,0x00,0x00,0x00,0x00,0x00,0x00,0x00,0x00,0x00,0x00,0x00,0x00,
 0x00,0x00,0x00,0x00,0x00,0x00,0x00,0x00,0x00,0x00,0x00,0x00,0x00,0x00,0x00,
 0x00,0x00,0x00,0x00,0x00,0x00,0x00,0x00,0x00,0x00,0x00,0x00,0x00,0x00,0x00,
 0x00,0x00,0x00,0x00,0x00,0x00,0x00,0x00,0x00,0x00,0x00,0x00,0x00,0x00,0x00,
 0x00,0x00,0x00,0x00,0x00,0x00,0x00,0x00,0x00,0x00,0x00,0x00,0x00,0x00,0x00,
 0x00,0x00,0x00,0x00,0x00,0x00,0x00,0x00,0x00,0x00,0x00,0x00,0x00,0x00,0x00,
 0x00,0x00,0x00,0x00,0x00,0x00,0x00,0x00,0x00,0x00,0x00,0x00,0x00,0x00,0x00,
 0x00,0x00,0x00,0x00,0x00,0x00,0x00,0x00,0x00,0x00,0x00,0x00,0x00,0x00,0x00,
 0x00,0x00,0x00,0x00,0x00,0x00,0x00,0x00,0x00,0x00,0x00,0x00,0x00,0x00,0x00,
 0x00,0x00,0x00,0x00,0x00,0x00,0x00,0x00,0x00,0x00,0x00,0x00,0x00,0x00,0x00,
 0x00,0x00,0x00,0x00,0x00,0x00,0x00,0x00,0x00,0x00,0x00,0x00,0x00,0x00,0x00,
 0x00,0x00,0x00,0x00,0x00,0x00,0x00,0x00,0x00,0x00,0x00,0x00,0x00,0x00,0x00,
 0x00,0x00,0x00,0x00,0x00,0x00,0x00,0x00,0x00,0x00,0x00,0x00,0x00,0x00,0x00,
 0x00,0x00,0x00,0x00,0x00,0x00,0x00,0x00,0x00,0x00,0x00,0x00,0x00,0x00,0x00,
 0x00,0x00,0x00,0x00,0x00,0x00,0x00,0x00,0x00,0x00,0x00,0x00,0x00,0x00,0x00,
 0x00,0x00,0x00,0x00,0x00,0x00,0x00,0x00,0x00,0x00,0x00,0x00,0x00,0x00,0x00,
 0x00,0x00,0x00,0x00,0x00,0x00,0x00,0x00,0x00,0x00,0x00,0x00,0x00,0x00,0x00,
 0x00,0x00,0x00,0x00,0x00,0x00,0x00,0x00,0x00,0x00,0x00,0x00,0x00,0x00,0x00,
 0x00,0x00,0x00,0x00,0x00,0x00,0x00,0x00,0x00,0x00,0x00,0x00,0x00,0x00,0x00,
 0x00,0x00,0x00,0x00,0x00,0x00,0x00,0x00,0x00,0x00,0x00,0x00,0x00,0x00,0x00,
 0x00,0x00,0x00,0x00,0x00,0x00,0x00,0x00,0x00,0x00,0x00,0x00,0x00,0x00,0x00,
 0x00,0x00,0x00,0x00,0x00,0x00,0x00,0x00,0x00,0x00,0x00,0x00,0x00,0x00,0x00,
 0x00,0x00,0x00,0x00,0x00,0x00,0x00,0x00,0x00,0x00,0x00,0x00,0x00,0x00,0x00,
 0x00,0x00,0x00,0x00,0x00,0x00,0x00,0x00,0x00,0x00,0x00,0x00,0x00,0x00,0x00,
 0x00,0x00,0x00,0x00,0x00,0x00,0x00,0x00,0x00,0x00,0x00,0x00,0x00,0x00,0x00,
 0x00,0x00,0x00,0x00,0x00,0x00,0x00,0x00,0x00,0x00,0x00,0x00,0x00,0x00,0x00,
 0x00,0x00,0x00,0x00,0x00,0x00,0x00,0x00,0x00,0x00,0x00,0x00,0x00,0x00,0x00,
 0x00,0x00,0x00,0x00,0x00,0x00,0x00,0x00,0x00,0x00,0x00,0x00,0x00,0x00,0x00,
 0x00,0x00,0x00,0x00,0x00,0x00,0x00,0x00,0x00,0x00,0x00,0x00,0x00,0x00,0x00,
 0x00,0x00,0x00,0x00,0x00,0x00,0x00,0x00,0x00,0x00,0x00,0x00,0x00,0x00,0x0c,
 0x00,0x00,0x00,0x00,0xc0,0x00,0x00,0x00,0x00,0x00,0x00,0x00,0x00,0x00,0x00,
 0xc0,0x01,0x00,0x00,0x00,0x00,0x08,0x00,0x00,0x00,0x00,0xc0,0x01,0x00,0x00,
 0x00,0x00,0x1c,0x00,0x00,0x00,0x00,0xc0,0x01,0x00,0x00,0x00,0x00,0x1e,0x00,
 0x00,0x00,0x00,0xc0,0x01,0x00,0x00,0x00,0x00,0x16,0x00,0x00,0x00,0x00,0x20,
 0x01,0x00,0x00,0x00,0x00,0x1c,0x00,0x00,0x00,0x00,0xc0,0x01,0x00,0x00,0x00,
 0x00,0x1e,0x00,0x00,0x00,0x00,0xe0,0x01,0x00,0x00,0x00,0x00,0x22,0x00,0x00,
 0x00,0x00,0xa0,0x03,0x00,0x00,0x00,0x40,0x0c,0x01,0x00,0x00,0x00,0xc4,0x10,
 0x00,0x00,0x00,0x40,0x9c,0x01,0x00,0x00,0x00,0xce,0x39,0x00,0x00,0x00,0xe0,
 0xb2,0x01,0x00,0x00,0x00,0x8e,0x39,0x00,0x00,0x00,0xe0,0x88,0x03,0x00,0x00,
 0x00,0x8e,0x38,0x00,0x00,0x00,0xe0,0xcc,0x03,0x00,0x00,0x00,0x8e,0x3c,0x00,
 0x00,0x00,0xe0,0xe3,0x03,0x00,0x00,0x00,0xde,0x25,0x00,0x00,0x00,0xe0,0xdd,
 0x03,0x00,0x00,0x00,0x1e,0x3c,0x00,0x00,0x00,0xf0,0xed,0x01,0x00,0x00,0x00,
 0x9e,0x3c,0x00,0x00,0x00,0xe0,0xf7,0x03,0x00,0x00,0x00,0x78,0x3b,0x00,0x00,
 0x00,0x80,0xf7,0x00,0x00,0x00,0x00,0xd0,0x0f,0x00,0x00,0x00,0xe0,0xf3,0x01,
 0x00,0x00,0x00,0xb6,0x1a,0x00,0x00,0x00,0xe0,0xff,0x03,0x00,0x00,0x00,0xe6,
 0x1e,0x00,0x00,0x00,0x00,0x22,0x00,0x00,0x00,0x00,0xe0,0x01,0x00,0x00,0x00,
 0x00,0x1e,0x00,0x00,0x00,0x00,0xc0,0x01,0x00,0x00,0x00,0x40,0xff,0x00,0x00,
 0x00,0x00,0xf0,0x07,0x00,0x00,0x00,0x00,0x32,0x00,0x00,0x00,0x00,0xe0,0x01,
 0x00,0x00,0x00,0x00,0x5f,0x00,0x00,0x00,0x00,0xe4,0x0b,0x00,0x00,0x00,0xa0,
 0x5d,0x01,0x00,0x00,0x00,0xfc,0x11,0x00,0x00,0x00,0xe0,0xff,0x01,0x00,0x00,
 0x00,0x9c,0x1e,0x00,0x00,0x00,0xe0,0xe9,0x01,0x00,0x00,0x00,0x9e,0x3c,0x00,
 0x00,0x00,0x20,0x1c,0x02,0x00,0x00,0x00,0xce,0x27,0x00,0x00,0x00,0xe0,0xc9,
 0x03,0x00,0x00,0x00,0x8f,0x3c,0x00,0x00,0x00,0xe0,0xed,0x03,0x00,0x00,0x00,
 0x9e,0x3c,0x00,0x00,0x00,0x10,0x3e,0x02,0x00,0x00,0x00,0x56,0x3f,0x00,0x00,
 0x00,0x60,0x8c,0x03,0x00,0x00,0x00,0x8e,0x38,0x00,0x00,0x00,0xe0,0xcc,0x01,
 0x00,0x00,0x00,0x8e,0x38,0x00,0x00,0x00,0x60,0xdf,0x02,0x00,0x00,0x00,0x6a,
 0x39,0x00,0x00,0x00,0x00,0x1c,0x00,0x00,0x00,0x00,0xc0,0x00,0x00,0x00,0x00,
 0x00,0x1e,0x00,0x00,0x00,0x00,0xc4,0x09,0x00,0x00,0x00,0x00,0x3e,0x00,0x00,
 0x00,0x00,0x60,0x01,0x00,0x00,0x00,0x00,0x1c,0x00,0x00,0x00,0x00,0xc0,0x01,
 0x00,0x00,0x00,0x00,0x1e,0x00,0x00,0x00,0x00,0xe0,0x01,0x00,0x00,0x00,0x00,
 0x3e,0x00,0x00,0x00,0x00,0x60,0x01,0x00,0x00,0x00,0x00,0x0c,0x00,0x00,0x00,
 0x00,0xc0,0x00,0x00,0x00,0x00,0x00,0x0c,0x00,0x00,0x00,0x00,0xc0,0x01,0x00,
 0x00,0x00,0x00,0x1c,0x00,0x00,0x00,0x00,0xc0,0x01,0x00,0x00,0x00,0x00,0x00,
 0x00,0x00,0x00,0x00,0x80,0x00,0x00,0x00,0x00,0x00,0x00,0x00,0x00,0x00,0x00,
 0x80,0x00,0x00,0x00,0x00,0x00,0x00,0x00,0x00,0x00,0x00,0x00,0x00,0x00,0x00,
 0x00,0x00,0x00,0x00,0x00,0x00,0x00,0x00,0x00,0x00,0x00,0x00,0x00,0x00,0x00,
 0x00,0x00,0x00,0x00,0x00,0x00,0x00,0x00,0x00,0x00,0x00,0x00,0x00,0x00,0x00,
 0x00,0x00,0x00,0x00,0x00,0x00,0x00,0x00,0x00,0x00,0x00,0x00,0x00,0x00,0x00,
 0x00,0x00,0x00,0x00,0x00,0x00,0x00,0x00,0x00,0x00,0x00,0x00,0x00,0x00,0x00,
 0x00,0x00,0x00,0x00,0x00,0x00,0x00,0x00,0x00,0x00,0x00,0x00,0x00,0x00,0x00,
 0x00,0x00,0x00,0x00,0x00,0x00,0x00,0x00,0x00,0x00,0x00,0x00,0x00,0x00,0x00,
 0x00,0x00,0x00,0x00,0x00,0x00,0x00,0x00,0x00,0x00,0x00,0x00,0x00,0x00,0x00,
 0x00,0x00,0x00,0x00,0x00,0x00,0x00,0x00,0x00,0x00,0x00,0x00,0x00,0x00,0x00,
 0x00,0x00,0x00,0x00,0x00,0x00,0x00,0x00,0x00,0x00,0x00,0x00,0x00,0x00,0x00,
 0x00,0x00,0x00,0x00,0x00,0x00,0x00,0x00,0x00,0x00,0x00,0x00,0x00,0x00,0x00,
 0x00,0x00,0x00,0x00,0x00,0x00,0x00,0x00,0x00,0x00,0x00,0x00,0x00,0x00,0x00,
 0x00,0x00,0x00,0x00,0x00,0x00,0x00,0x00,0x00,0x00,0x00,0x00,0x00,0x00,0x00,
 0x00,0x00,0x00,0x00,0x00,0x00,0x00,0x00,0x00,0x00,0x00,0x00,0x00,0x00,0x00,
 0x00,0x00,0x00,0x00,0x00,0x00,0x00,0x00,0x00,0x00,0x00,0x00,0x00,0x00,0x00,
 0x00,0x00,0x00,0x00,0x00,0x00,0x00,0x00,0x00,0x00,0x00,0x00,0x00,0x00,0x00,
 0x00,0x00,0x00,0x00,0x00,0x00,0x00,0x00,0x00,0x00,0x00,0x00,0x00,0x00,0x00,
 0x00,0x00,0x00,0x00,0x00,0x00,0x00,0x00,0x00,0x00,0x00,0x00,0x00,0x00,0x00,
 0x00,0x00,0x00,0x00,0x00,0x00,0x00,0x00,0x00,0x00,0x00,0x00,0x00,0x00,0x00,
 0x00,0x00,0x00,0x00,0x00,0x00,0x00,0x00,0x00,0x00,0x00,0x00,0x00,0x00,0x00,
 0x00,0x00,0x00,0x00,0x00,0x00,0x00,0x00,0x00,0x00,0x00,0x00,0x00,0x00,0x00,
 0x00,0x00,0x00,0x00,0x00,0x00,0x00,0x00,0x00,0x00,0x00,0x00,0x00,0x00,0x00,
 0x00,0x00,0x00,0x00,0x00,0x00,0x00,0x00,0x00,0x00,0x00,0x00,0x00,0x00,0x00,
 0x00,0x00,0x00,0x00,0x00,0x00,0x00,0x00,0x00,0x00,0x00,0x00,0x00,0x00,0x00,
 0x00,0x00,0x00,0x00,0x00,0x00,0x00,0x00,0x00,0x00,0x00,0x00,0x00,0x00,0x00,
 0x00,0x00,0x00,0x00,0x00,0x00,0x00,0x00,0x00,0x00,0x00,0x00,0x00,0x00,0x00,
 0x00,0x00,0x00,0x00,0x00,0x00,0x00,0x00,0x00,0x00,0x00,0x00,0x00,0x00,0x00,
 0x00,0x00,0x00,0x00,0x00,0x00,0x00,0x00,0x00,0x00,0x00,0x00,0x00,0x00,0x00,
 0x00,0x00,0x00,0x00,0x00,0x00,0x00,0x00,0x00,0x00,0x00,0x00,0x00,0x00,0x00,
 0x00,0x00,0x00,0x00,0x00,0x00,0x00,0x00,0x00,0x00,0x00,0x18,0x00,0x00,0x00,
 0x00,0x80,0x01,0x00,0x00,0x00,0x00,0x10,0x00,0x00,0x00,0x00,0x00,0x01,0x00,
 0x00,0x00,0x00,0x38,0x00,0x00,0x00,0x00,0x80,0x01,0x00,0x00,0x00,0x00,0x18,
 0x02,0x00,0x00,0x00,0x84,0x03,0x00,0x00,0x00,0x00,0x18,0x00,0x00,0x00,0x00,
 0x80,0x01,0x00,0x00,0x00,0x00,0x3c,0x00,0x00,0x00,0x00,0x80,0x03,0x00,0x00,
 0x00,0xc0,0x38,0x02,0x00,0x00,0x00,0xc8,0x23,0x00,0x00,0x00,0x80,0x18,0x03,
 0x00,0x00,0x00,0x98,0x13,0x00,0x00,0x00,0x00,0x7e,0x00,0x00,0x00,0x00,0xc0,
 0x03,0x00,0x00,0x00,0x80,0x98,0x01,0x00,0x00,0x00,0xc8,0x13,0x00,0x00,0x00,
 0xc0,0x91,0x01,0x00,0x00,0x00,0x9c,0x39,0x00,0x00,0x00,0x00,0x7e,0x00,0x00,
 0x00,0x00,0xe0,0x07,0x00,0x00,0x00,0x00,0x99,0x00,0x00,0x00,0x00,0xb0,0x09,
 0x00,0x00,0x00,0x80,0x93,0x01,0x00,0x00,0x00,0xb8,0x1d,0x00,0x00,0x00,0x00,
 0x7c,0x00,0x00,0x00,0x00,0xc0,0x07,0x00,0x00,0x00,0x00,0x56,0x00,0x00,0x00,
 0x00,0x20,0x05,0x00,0x00,0x00,0x00,0x4a,0x00,0x00,0x00,0x00,0xf0,0x0f,0x00,
 0x00,0x00,0xc0,0xb9,0x07,0x00,0x00,0x00,0x18,0x19,0x00,0x00,0x00,0xa0,0x34,
 0x05,0x00,0x00,0x00,0x8e,0x7b,0x00,0x00,0x00,0x00,0x3c,0x00,0x00,0x00,0x00,
 0xc0,0x57,0x00,0x00,0x00,0xe0,0xdb,0x07,0x00,0x00,0x00,0x3c,0x79,0x00,0x00,
 0x00,0xe0,0xfb,0x0f,0x00,0x00,0x00,0xfe,0xff,0x00,0x00,0x00,0xe0,0xfd,0x0f,
 0x00,0x00,0x00,0xff,0xff,0x00,0x00,0x00,0xe0,0xff,0x0f,0x00,0x00,0x00,0xfe,
 0xfd,0x00,0x00,0x00,0xe0,0x9b,0x07,0x00,0x00,0x00,0xbe,0xfb,0x00,0x00,0x00,
 0xe0,0x3c,0x06,0x00,0x00,0x00,0xfe,0x7b,0x00,0x00,0x00,0xf0,0xd7,0x0f,0x00,
 0x00,0x00,0x1e,0xf9,0x00,0x00,0x00,0x00,0x24,0x00,0x00,0x00,0x00,0x8c,0x21,
 0x00,0x00,0x00,0x00,0x38,0x00,0x00,0x00,0x00,0xc0,0x07,0x00,0x00,0x00,0xe0,
 0x9b,0x07,0x00,0x00,0x00,0x38,0x39,0x00,0x00,0x00,0x00,0xda,0x00,0x00,0x00,
 0x00,0x20,0x0d,0x00,0x00,0x00,0x00,0xc3,0x00,0x00,0x00,0x00,0x70,0x1d,0x00,
 0x00,0x00,0xc0,0x3c,0x03,0x00,0x00,0x00,0x88,0x03,0x00,0x00,0x00,0x00,0x19,
 0x01,0x00,0x00,0x00,0x90,0x09,0x00,0x00,0x00,0x80,0x93,0x01,0x00,0x00,0x00,
 0xb8,0x3d,0x00,0x00,0x00,0x00,0x7c,0x00,0x00,0x00,0x00,0xc0,0x07,0x00,0x00,
 0x00,0xc0,0x18,0x03,0x00,0x00,0x00,0xc8,0x13,0x00,0x00,0x00,0x80,0x98,0x03,
 0x00,0x00,0x00,0x9c,0x39,0x00,0x00,0x00,0x00,0x7e,0x00,0x00,0x00,0x00,0xe0,
 0x07,0x00,0x00,0x00,0x40,0x38,0x02,0x00,0x00,0x00,0xc4,0x23,0x00,0x00,0x00,
 0x80,0x18,0x00,0x00,0x00,0x00,0x98,0x03,0x00,0x00,0x00,0x00,0x7c,0x00,0x00,
 0x00,0x00,0x80,0x03,0x00,0x00,0x00,0x00,0x18,0x00,0x00,0x00,0x00,0x80,0x03,
 0x00,0x00,0x00,0x00,0x18,0x00,0x00,0x00,0x00,0x80,0x01,0x00,0x00,0x00,0x00,
 0x3c,0x00,0x00,0x00,0x00,0x80,0x03,0x00,0x00,0x00,0x00,0x00,0x00,0x00,0x00,
 0x00,0x00,0x00,0x00,0x00,0x00,0x00,0x00,0x00,0x00,0x00,0x00,0x00,0x00,0x00,
 0x00,0x00,0x00,0x10,0x00,0x00,0x00,0x00,0x00,0x00,0x00,0x00,0x00,0x00,0x00,
 0x00,0x00,0x00,0x00,0x00,0x00,0x00,0x00,0x00,0x00,0x00,0x00,0x00,0x00,0x00,
 0x00,0x00,0x00,0x00,0x00,0x00,0x00,0x00,0x00,0x00,0x00,0x00,0x00,0x00,0x00,
 0x00,0x00,0x00,0x00,0x00,0x00,0x00,0x00,0x00,0x00,0x00,0x00,0x00,0x00,0x00,
 0x00,0x00,0x00,0x00,0x00,0x00,0x00,0x00,0x00,0x00,0x00,0x00,0x00,0x00,0x00,
 0x00,0x00,0x00,0x00,0x00,0x00,0x00,0x00,0x00,0x00,0x00,0x00,0x00,0x00,0x00,
 0x00,0x00,0x00,0x00,0x00,0x00,0x00,0x00,0x00,0x00,0x00,0x00,0x00,0x00,0x00,
 0x00,0x00,0x00,0x00,0x00,0x00,0x00,0x00,0x00,0x00,0x00,0x00,0x00,0x00,0x00,
 0x00,0x00,0x00,0x00,0x00,0x00,0x00,0x00,0x00,0x00,0x00,0x00,0x00,0x00,0x00,
 0x00,0x00,0x00,0x00,0x00,0x00,0x00,0x00,0x00,0x00,0x00,0x00,0x00,0x00,0x00,
 0x00,0x00,0x00,0x00,0x00,0x00,0x00,0x00,0x00,0x00,0x00,0x00,0x00,0x00,0x00,
 0x00,0x00,0x00,0x00,0x00,0x00,0x00,0x00,0x00,0x00,0x00,0x00,0x00,0x00,0x00,
 0x00,0x00,0x00,0x00,0x00,0x00,0x00,0x00,0x00,0x00,0x00,0x00,0x00,0x00,0x00,
 0x00,0x00,0x00,0x00,0x00,0x00,0x00,0x00,0x00,0x00,0x00,0x00,0x00,0x00,0x00,
 0x00,0x00,0x00,0x00,0x00,0x00,0x00,0x00,0x00,0x00,0x00,0x00,0x00,0x00,0x00,
 0x00,0x00,0x00,0x00,0x00,0x00,0x00,0x00,0x00,0x00,0x00,0x00,0x00,0x00,0x00,
 0x00,0x00,0x00,0x00,0x00,0x00,0x00,0x00,0x00,0x00,0x00,0x00,0x00,0x00,0x00,
 0x00,0x00,0x00,0x00,0x00,0x00,0x00,0x00,0x00,0x00,0x00,0x00,0x00,0x00,0x00,
 0x00,0x00,0x00,0x00,0x00,0x00,0x00,0x00,0x00,0x00,0x00,0x00,0x00,0x00,0x00,
 0x00,0x00,0x00,0x00,0x00,0x00,0x00,0x00,0x00,0x00,0x00,0x00,0x00,0x00,0x00,
 0x00,0x00,0x00,0x00,0x00,0x00,0x00,0x00,0x00,0x00,0x00,0x00,0x00,0x00,0x00,
 0x00,0x00,0x00,0x00,0x00,0x00,0x00,0x00,0x00,0x00,0x00,0x00,0x00,0x00,0x00,
 0x00,0x00,0x00,0x00,0x00,0x00,0x00,0x00,0x00,0x00,0x00,0x00,0x00,0x00,0x00,
 0x00,0x00,0x00,0x00,0x00,0x00,0x00,0x00,0x00,0x00,0x00,0x00,0x00,0x00,0x00,
 0x00,0x00,0x00,0x00,0x00,0x00,0x00,0x00,0x00,0x00,0x00,0x00,0x00,0x00,0x00,
 0x00,0x00,0x00,0x00,0x00,0x00,0x00,0x00,0x00,0x00,0x00,0x00,0x00,0x00,0x00,
 0x00,0x00,0x00,0x00,0x00,0x00,0x00,0x00,0x00,0x00,0x00,0x00,0x00,0x00,0x00,
 0x00,0x00,0x00,0x00,0x00,0x00,0x00,0x00,0x00,0x00,0x00,0x00,0x00,0x00,0x00,
 0x00,0x00,0x00,0x00,0x00,0x00,0x00,0x00,0x00,0x00,0x00,0x00,0x00,0x00,0x00,
 0x00,0x00,0x00,0x00,0x00,0x00,0x00,0x00,0x00,0x00,0x00,0x00,0x00,0x80,0x00,
 0x00,0x00,0x00,0x00,0x00,0x00,0x00,0x00,0x00,0x80,0x03,0x00,0x00,0x00,0x00,
 0x38,0x00,0x00,0x00,0x00,0x00,0x01,0x00,0x00,0x00,0x00,0x0c,0x00,0x00,0x00,
 0x00,0xc0,0x00,0x00,0x00,0x00,0x00,0x0c,0x00,0x00,0x00,0x00,0xc0,0x06,0x00,
 0x00,0x00,0x00,0x7c,0x00,0x00,0x00,0x00,0xc0,0x02,0x00,0x00,0x00,0x00,0x36,
 0x00,0x00,0x00,0x00,0x90,0x04,0x00,0x00,0x00,0x00,0x3e,0x00,0x00,0x00,0x00,
 0x40,0x04,0x00,0x00,0x00,0x00,0xfe,0x00,0x00,0x00,0x00,0xf8,0x2f,0x00,0x00,
 0x00,0x80,0x4c,0x00,0x00,0x00,0x00,0xe0,0x05,0x00,0x00,0x00,0x80,0xde,0x00,
 0x00,0x00,0x00,0x40,0x0c,0x00,0x00,0x00,0x80,0xfe,0x02,0x00,0x00,0x00,0xa4,
 0x3b,0x00,0x00,0x00,0xa0,0xc8,0x01,0x00,0x00,0x00,0x96,0x34,0x00,0x00,0x00,
 0xe0,0xc8,0x01,0x00,0x00,0x00,0x5c,0x75,0x00,0x00,0x00,0xe0,0x7f,0x0f,0x00,
 0x00,0x00,0xfc,0x1f,0x00,0x00,0x00,0xc0,0xc8,0x00,0x00,0x00,0x00,0x9c,0x1c,
 0x00,0x00,0x00,0xc0,0xc9,0x00,0x00,0x00,0x00,0x62,0xcd,0x00,0x00,0x00,0xe0,
 0xff,0x0f,0x00,0x00,0x00,0xf4,0x3f,0x00,0x00,0x00,0xe0,0xaf,0x03,0x00,0x00,
 0x00,0xf8,0x07,0x00,0x00,0x00,0xe0,0xe9,0x03,0x00,0x00,0x00,0xcb,0x87,0x00,
 0x00,0x00,0xe0,0xc7,0x1f,0x00,0x00,0x00,0x7a,0x6e,0x00,0x00,0x00,0x00,0x1c,
 0x00,0x00,0x00,0x00,0xc6,0x11,0x00,0x00,0x00,0x20,0x1c,0x00,0x00,0x00,0x00,
 0xf2,0x9f,0x00,0x00,0x00,0xf0,0x83,0x0f,0x00,0x00,0x00,0x3e,0xbc,0x00,0x00,
 0x00,0x20,0x1e,0x01,0x00,0x00,0x00,0xe4,0x1b,0x00,0x00,0x00,0x20,0x1e,0x01,
 0x00,0x00,0x00,0xe6,0xcf,0x00,0x00,0x00,0xe0,0x83,0x0f,0x00,0x00,0x00,0x7d,
 0xbc,0x00,0x00,0x00,0xc0,0xe9,0x01,0x00,0x00,0x00,0x38,0x06,0x00,0x00,0x00,
 0xe0,0xe9,0x03,0x00,0x00,0x00,0xf8,0x3f,0x00,0x00,0x00,0x80,0xc7,0x03,0x00,
 0x00,0x00,0x76,0x7f,0x00,0x00,0x00,0xe0,0x88,0x01,0x00,0x00,0x00,0x9e,0x1c,
 0x00,0x00,0x00,0xc0,0xc9,0x01,0x00,0x00,0x00,0xc8,0x17,0x00,0x00,0x00,0x80,
 0xff,0x03,0x00,0x00,0x00,0xf8,0x2f,0x00,0x00,0x00,0xa0,0x4c,0x01,0x00,0x00,
 0x00,0xd2,0x34,0x00,0x00,0x00,0xa0,0x4c,0x01,0x00,0x00,0x00,0x48,0x25,0x00,
 0x00,0x00,0xc0,0xff,0x07,0x00,0x00,0x00,0xfc,0x3d,0x00,0x00,0x00,0x80,0x5c,
 0x00,0x00,0x00,0x00,0xb0,0x05,0x00,0x00,0x00,0x80,0xde,0x00,0x00,0x00,0x00,
 0x0c,0x61,0x00,0x00,0x00,0x80,0xff,0x07,0x00,0x00,0x00,0xa4,0x2b,0x00,0x00,
 0x00,0x00,0x0a,0x00,0x00,0x00,0x00,0xc0,0x00,0x00,0x00,0x00,0x00,0x3a,0x00,
 0x00,0x00,0x00,0x8c,0x22,0x00,0x00,0x00,0xc0,0xef,0x03,0x00,0x00,0x00,0xd8,
 0x1d,0x00,0x00,0x00,0x00,0x08,0x00,0x00,0x00,0x00,0x80,0x00,0x00,0x00,0x00,
 0x00,0x08,0x00,0x00,0x00,0x00,0xf8,0x3e,0x00,0x00,0x00,0x80,0xef,0x03,0x00,
 0x00,0x00,0x80,0x02,0x00,0x00,0x00,0x00,0x00,0x00,0x00,0x00,0x00,0x00,0x00,
 0x00,0x00,0x00,0x00,0x00,0x00,0x00,0x00,0x00,0x20,0x08,0x00,0x00,0x00,0x00,
 0x82,0x00,0x00,0x00,0x00,0x00,0x01,0x00,0x00,0x00,0x00,0x00,0x00,0x00,0x00,
 0x00,0x00,0x00,0x00,0x00,0x00,0x00,0x00,0x00,0x00,0x00,0x00,0x00,0x00,0x00,
 0x00,0x00,0x00,0x00,0x00,0x00,0x00,0x00,0x00,0x00,0x00,0x00,0x00,0x00,0x00,
 0x00,0x00,0x00,0x00,0x00,0x00,0x00,0x00,0x00,0x00,0x00,0x00,0x00,0x00,0x00,
 0x00,0x00,0x00,0x00,0x00,0x00,0x00,0x00,0x00,0x00,0x00,0x00,0x00,0x00,0x00,
 0x00,0x00,0x00,0x00,0x00,0x00,0x00,0x00,0x00,0x00,0x00,0x00,0x00,0x00,0x00,
 0x00,0x00,0x00,0x00,0x00,0x00,0x00,0x00,0x00,0x00,0x00,0x00,0x00,0x00,0x00,
 0x00,0x00,0x00,0x00,0x00,0x00,0x00,0x00,0x00,0x00,0x00,0x00,0x00,0x00,0x00,
 0x00,0x00,0x00,0x00,0x00,0x00,0x00,0x00,0x00,0x00,0x00,0x00,0x00,0x00,0x00,
 0x00,0x00,0x00,0x00,0x00,0x00,0x00,0x00,0x00,0x00,0x00,0x00,0x00,0x00,0x00,
 0x00,0x00,0x00,0x00,0x00,0x00,0x00,0x00,0x00,0x00,0x00,0x00,0x00,0x00,0x00,
 0x00,0x00,0x00,0x00,0x00,0x00,0x00,0x00,0x00,0x00,0x00,0x00,0x00,0x00,0x00,
 0x00,0x00,0x00,0x00,0x00,0x00,0x00,0x00,0x00,0x00,0x00,0x00,0x00,0x00,0x00,
 0x00,0x00,0x00,0x00,0x00,0x00,0x00,0x00,0x00,0x00,0x00,0x00};


