#define psnfss2_width 264
#define psnfss2_height 174
static char psnfss2_bits[] = {
 0x00,0x00,0x00,0x00,0x00,0x00,0x00,0x00,0x00,0x00,0x00,0x00,0x00,0x00,0x00,
 0x00,0x00,0x00,0x00,0x00,0x00,0x00,0x00,0x00,0x00,0x00,0x00,0x00,0x00,0x00,
 0x00,0x00,0x00,0x00,0x00,0x00,0x00,0x00,0x00,0x00,0x00,0x00,0x00,0x00,0x00,
 0x00,0x00,0x00,0x00,0x00,0x00,0x00,0x00,0x00,0x00,0x00,0x00,0x00,0x00,0x00,
 0x00,0x00,0x00,0x00,0x00,0x00,0x00,0x00,0x00,0x00,0x00,0x00,0x00,0x00,0x00,
 0x00,0x00,0x00,0x00,0x00,0x00,0x00,0x00,0x00,0x00,0x00,0x00,0x00,0x00,0x00,
 0x00,0x00,0x00,0x00,0x00,0x00,0x00,0x00,0x00,0x00,0x00,0x00,0x00,0x00,0x00,
 0x00,0x00,0x00,0x00,0x00,0x00,0x00,0x00,0x00,0x00,0x00,0x00,0x00,0x00,0x00,
 0x00,0x00,0x00,0x00,0x00,0x00,0x00,0x00,0x00,0x00,0x00,0x00,0x00,0x00,0x00,
 0x00,0x00,0x00,0x00,0x00,0x00,0x00,0x00,0x00,0x00,0x00,0x00,0x00,0x00,0x00,
 0x00,0x00,0x00,0x00,0x00,0x00,0x00,0x00,0x00,0x00,0x00,0x00,0x00,0x00,0x00,
 0x00,0x00,0x00,0x00,0x00,0x00,0x00,0x00,0x00,0x00,0x00,0x00,0x00,0x00,0x00,
 0x00,0x00,0x00,0x00,0x00,0x00,0x00,0x00,0x00,0x00,0x00,0x00,0x00,0x00,0x00,
 0x00,0x00,0x00,0x00,0x00,0x00,0x00,0x00,0x00,0x00,0x00,0x00,0x00,0x00,0x00,
 0x00,0x00,0x00,0x00,0x00,0x00,0x00,0x00,0x00,0x00,0x00,0x00,0x00,0x00,0x00,
 0x00,0x00,0x00,0x00,0x00,0x00,0x00,0x00,0x00,0x00,0x00,0x00,0x00,0xc0,0x07,
 0x00,0x00,0x00,0x00,0x00,0x00,0x00,0x00,0x00,0x08,0x00,0x00,0x00,0x00,0x00,
 0x7c,0x00,0x00,0x00,0x00,0x40,0x00,0x00,0x00,0x00,0x00,0x00,0x00,0x00,0x00,
 0x00,0x30,0x18,0x00,0x00,0x00,0x00,0x00,0x00,0x00,0x00,0x00,0x3a,0x00,0x00,
 0x00,0x00,0x00,0x89,0x01,0x00,0x00,0x00,0xc0,0x00,0x00,0x00,0x00,0x00,0x00,
 0x00,0x00,0x00,0x00,0x0c,0x37,0x00,0x00,0x00,0xc0,0x00,0x00,0x00,0x00,0x00,
 0x6e,0x00,0x03,0x00,0x00,0x80,0x18,0x02,0x00,0x00,0x00,0xc0,0x03,0x00,0x00,
 0x00,0x00,0xff,0x00,0x00,0x00,0x00,0x84,0x27,0x00,0x00,0x00,0x20,0x01,0x00,
 0x00,0x00,0x00,0x65,0xe0,0x04,0x00,0x00,0x40,0x38,0x02,0x00,0x00,0x00,0x80,
 0x01,0x00,0x00,0x00,0xe0,0xff,0x03,0x00,0x00,0x00,0x86,0x4f,0x00,0x00,0x00,
 0x30,0x01,0x7c,0x00,0x00,0x00,0x56,0x18,0x06,0x00,0x00,0x20,0x3c,0x04,0x00,
 0x00,0x00,0x80,0x07,0x00,0x00,0x00,0xe0,0xe3,0x03,0x00,0x00,0x00,0xc2,0xc1,
 0x00,0x00,0x00,0xe0,0x03,0x3f,0x00,0x00,0x00,0xaa,0x0f,0x01,0x00,0x00,0x20,
 0x00,0x08,0x00,0x00,0x00,0x02,0x07,0x00,0x00,0x00,0xf0,0xbe,0x03,0x00,0x00,
 0x00,0xe2,0x80,0x00,0x00,0x00,0x40,0xef,0x07,0x00,0x00,0x00,0x78,0xc3,0x00,
 0x00,0x00,0x20,0x3c,0x08,0x00,0x00,0x00,0x86,0x07,0x00,0x00,0x00,0x40,0x63,
 0x02,0x00,0x00,0x00,0x62,0x80,0x00,0x00,0x00,0x00,0xf8,0x00,0x00,0x00,0x00,
 0x80,0x35,0x00,0x00,0x00,0x10,0x3c,0x08,0x00,0x00,0x00,0xfe,0xff,0x00,0x00,
 0x00,0x00,0x63,0x00,0x00,0x00,0x00,0x62,0x80,0x00,0x00,0x00,0x00,0xf8,0x03,
 0x00,0x00,0x00,0x50,0x2e,0x00,0x00,0x00,0x20,0xff,0x08,0x00,0x00,0x00,0xf6,
 0x7f,0x00,0x00,0x00,0x80,0xe3,0x00,0x00,0x00,0x00,0x72,0x80,0x00,0x00,0x00,
 0xc0,0xcf,0x1f,0x00,0x00,0x00,0xcc,0xc6,0x00,0x00,0x00,0xa0,0xff,0x01,0x00,
 0x00,0x00,0x06,0x07,0x00,0x00,0x00,0x80,0xf7,0x00,0x00,0x00,0x00,0xf2,0x40,
 0x00,0x00,0x00,0x20,0x01,0x7e,0x00,0x00,0x00,0x7a,0x09,0x01,0x00,0x00,0xe0,
 0xc3,0x0b,0x00,0x00,0x00,0x82,0x07,0x00,0x00,0x00,0x80,0xff,0x00,0x00,0x00,
 0x00,0xf4,0x40,0x00,0x00,0x00,0x20,0x01,0x30,0x00,0x00,0x00,0x46,0x30,0x06,
 0x00,0x00,0x80,0x01,0x05,0x00,0x00,0x00,0x80,0x07,0x00,0x00,0x00,0x00,0x52,
 0x00,0x00,0x00,0x00,0x50,0x30,0x00,0x00,0x00,0xe0,0x01,0x00,0x00,0x00,0x00,
 0x66,0x40,0x04,0x00,0x00,0x40,0x00,0x02,0x00,0x00,0x00,0x80,0x01,0x00,0x00,
 0x00,0x00,0x00,0x00,0x00,0x00,0x00,0x10,0x18,0x00,0x00,0x00,0x00,0x00,0x00,
 0x00,0x00,0x00,0x5a,0x80,0x03,0x00,0x00,0x80,0x01,0x01,0x00,0x00,0x00,0xc0,
 0x01,0x00,0x00,0x00,0x00,0x00,0x00,0x00,0x00,0x00,0xe0,0x0f,0x00,0x00,0x00,
 0x00,0x00,0x00,0x00,0x00,0x00,0x3c,0x00,0x00,0x00,0x00,0x00,0xec,0x00,0x00,
 0x00,0x00,0x40,0x00,0x00,0x00,0x00,0x00,0x00,0x00,0x00,0x00,0x00,0x00,0x00,
 0x00,0x00,0x00,0x00,0x00,0x00,0x00,0x00,0x00,0x00,0x00,0x00,0x00,0x00,0x00,
 0x10,0x00,0x00,0x00,0x00,0x40,0x00,0x00,0x00,0x00,0x00,0x00,0x00,0x00,0x00,
 0x00,0x00,0x00,0x00,0x00,0x00,0x00,0x00,0x00,0x00,0x00,0x00,0x00,0x00,0x00,
 0x00,0x00,0x00,0x00,0x00,0x00,0x00,0x00,0x00,0x00,0x00,0x00,0x00,0x00,0x00,
 0x00,0x00,0x00,0x00,0x00,0x00,0x00,0x00,0x00,0x00,0x00,0x00,0x00,0x00,0x00,
 0x00,0x00,0x00,0x00,0x00,0x00,0x00,0x00,0x00,0x00,0x00,0x00,0x00,0x00,0x00,
 0x00,0x00,0x00,0x00,0x00,0x00,0x00,0x00,0x00,0x00,0x00,0x00,0x00,0x00,0x00,
 0x00,0x00,0x00,0x00,0x00,0x00,0x00,0x00,0x00,0x00,0x00,0x00,0x00,0x00,0x00,
 0x00,0x00,0x00,0x00,0x00,0x00,0x00,0x00,0x00,0x00,0x00,0x00,0x00,0x00,0x00,
 0x00,0x00,0x00,0x00,0x00,0x00,0x00,0x00,0x00,0x00,0x00,0x00,0x00,0x00,0x00,
 0x00,0x00,0x00,0x00,0x00,0x00,0x00,0x00,0x00,0x00,0x00,0x00,0x00,0x00,0x00,
 0x00,0x00,0x00,0x00,0x00,0x00,0x00,0x00,0x00,0x00,0x00,0x00,0x00,0x00,0x00,
 0x00,0x00,0x00,0x00,0x00,0x00,0x00,0x00,0x00,0x00,0x00,0x00,0x00,0x00,0x00,
 0x00,0x00,0x00,0x00,0x00,0x00,0x00,0x00,0x00,0x00,0x00,0x00,0x00,0x00,0x00,
 0x00,0x00,0x00,0x00,0x00,0x00,0x00,0x00,0x00,0x00,0x00,0x00,0x00,0x00,0x00,
 0x00,0x00,0x00,0x00,0x00,0x00,0x00,0x00,0x00,0x00,0x00,0x00,0x00,0x00,0x00,
 0x00,0x00,0x00,0x00,0x00,0x00,0x00,0x00,0x00,0x00,0x00,0x00,0x00,0x00,0x00,
 0x00,0x00,0x00,0x00,0x00,0x00,0x00,0x00,0x00,0x00,0x00,0x00,0x00,0x00,0x00,
 0x00,0x00,0x00,0x00,0x00,0x00,0x00,0x00,0x00,0x00,0x00,0x00,0x00,0x00,0x00,
 0x00,0x00,0x00,0x00,0x00,0x00,0x00,0x00,0x00,0x00,0x00,0x00,0x00,0x00,0x00,
 0x00,0x00,0x00,0x00,0x00,0x00,0x00,0x00,0x00,0x00,0x00,0x00,0x00,0x00,0x00,
 0x00,0x00,0x00,0x00,0x00,0x00,0x00,0x00,0x00,0x00,0x00,0x00,0x00,0x00,0x00,
 0x00,0x00,0x00,0x00,0x00,0x00,0x00,0x00,0x00,0x00,0x00,0x00,0x00,0x00,0x00,
 0x00,0x00,0x00,0x00,0x00,0x00,0x00,0x00,0x00,0x00,0x00,0x00,0x00,0x00,0x00,
 0x00,0x00,0x00,0x00,0x00,0x00,0x00,0x00,0x00,0x00,0x00,0x00,0x00,0x00,0x00,
 0x00,0x00,0x00,0x00,0x00,0x00,0x00,0x00,0x00,0x00,0x00,0x00,0x00,0x00,0x00,
 0x00,0x00,0x00,0x00,0x00,0x00,0x00,0x00,0x00,0x00,0x00,0x00,0x00,0x00,0x00,
 0x00,0x00,0x00,0x00,0x00,0x00,0x00,0x00,0x00,0x00,0x00,0x00,0x00,0x00,0x00,
 0x00,0x00,0x00,0x00,0x00,0x00,0x00,0x00,0x00,0x00,0x00,0x00,0x00,0x00,0x00,
 0x00,0x00,0x00,0x00,0x00,0x00,0x00,0x00,0x00,0x00,0x00,0x00,0x00,0x00,0x00,
 0x00,0x00,0x00,0x00,0x00,0x00,0x00,0x00,0x00,0x00,0x00,0x00,0x00,0x00,0x00,
 0x00,0x00,0x00,0x00,0x00,0x00,0x08,0x00,0x00,0x00,0x00,0x00,0x00,0x00,0x00,
 0x00,0x00,0x00,0x00,0x00,0x00,0x00,0x00,0x00,0x00,0x00,0x00,0x00,0x00,0x00,
 0x00,0x00,0x00,0x00,0x00,0x00,0x00,0x00,0x00,0x1c,0x07,0x00,0x00,0x00,0x00,
 0x00,0x00,0x00,0x00,0x00,0x00,0x00,0x00,0x00,0x00,0x00,0x00,0x00,0x00,0x00,
 0x00,0x00,0x00,0x00,0x00,0x00,0x00,0x00,0x00,0x00,0x00,0x00,0xa8,0x05,0x00,
 0x00,0x00,0x00,0xc0,0x00,0x00,0x00,0x00,0x00,0x00,0x00,0x00,0x00,0xe0,0xff,
 0x03,0x00,0x00,0x00,0x00,0x3f,0x00,0x00,0x00,0x00,0x60,0x05,0x00,0x00,0x00,
 0xa8,0x02,0x00,0x00,0x00,0x00,0x6c,0x00,0x00,0x00,0x00,0xf8,0x1f,0x00,0x00,
 0x00,0x10,0x00,0x02,0x00,0x00,0x00,0xc0,0xff,0x01,0x00,0x00,0xe0,0xcd,0x74,
 0x00,0x00,0x00,0xa8,0x02,0x00,0x00,0x00,0x00,0x72,0x00,0x00,0x00,0x00,0x1c,
 0x70,0x00,0x00,0x00,0x20,0x80,0x02,0x00,0x00,0x00,0xfe,0xff,0x07,0x00,0x00,
 0x60,0x83,0x41,0x00,0x00,0x00,0xd0,0x02,0x00,0x00,0x00,0x00,0x79,0x00,0x00,
 0x00,0x00,0x12,0xa0,0x00,0x00,0x00,0x90,0x1c,0x02,0x00,0x00,0x00,0xfc,0xbf,
 0x07,0x00,0x00,0x70,0x21,0x3f,0x00,0x00,0x00,0xf8,0x03,0x00,0x00,0x00,0x80,
 0x9c,0x1e,0x00,0x00,0x00,0xea,0x7f,0x01,0x00,0x00,0x00,0x1e,0x02,0x00,0x00,
 0x00,0xfe,0x3f,0x00,0x00,0x00,0x60,0x65,0x02,0x00,0x00,0x00,0x1c,0x02,0x00,
 0x00,0x00,0x00,0x0e,0x12,0x00,0x00,0x00,0x1d,0x20,0x06,0x00,0x00,0x30,0x3e,
 0x00,0x00,0x00,0x00,0xfd,0x3f,0x00,0x00,0x00,0x60,0x19,0x07,0x00,0x00,0x00,
 0xf4,0x05,0x00,0x00,0x00,0x40,0x0e,0x12,0x00,0x00,0x00,0x0d,0x20,0x03,0x00,
 0x00,0x00,0x49,0x02,0x00,0x00,0x00,0xfd,0x3f,0x00,0x00,0x00,0x70,0xe1,0x04,
 0x00,0x00,0x00,0xe6,0x04,0x00,0x00,0x00,0xc0,0x17,0x10,0x00,0x00,0x00,0xf4,
 0xbf,0x01,0x00,0x00,0x60,0x80,0x02,0x00,0x00,0x00,0xfe,0x1f,0x00,0x00,0x00,
 0x60,0xc7,0x05,0x00,0x00,0x00,0x6b,0x04,0x00,0x00,0x00,0xa0,0x00,0x16,0x00,
 0x00,0x00,0x12,0x60,0x00,0x00,0x00,0x60,0x55,0x03,0x00,0x00,0x00,0xe2,0x1f,
 0x00,0x00,0x00,0xe0,0xa9,0x06,0x00,0x00,0x00,0x3a,0x06,0x00,0x00,0x00,0xc0,
 0xb3,0x12,0x00,0x00,0x00,0xbc,0x35,0x00,0x00,0x00,0x90,0x92,0x00,0x00,0x00,
 0x00,0x00,0x03,0x00,0x00,0x00,0x00,0x00,0x00,0x00,0x00,0x00,0x36,0x02,0x00,
 0x00,0x00,0xc0,0x8a,0x1a,0x00,0x00,0x00,0x00,0x00,0x00,0x00,0x00,0x00,0x00,
 0x00,0x00,0x00,0x00,0x00,0x00,0x00,0x00,0x00,0x00,0x00,0x00,0x00,0x00,0x00,
 0x04,0x03,0x00,0x00,0x00,0x20,0x00,0x00,0x00,0x00,0x00,0x00,0x00,0x00,0x00,
 0x00,0x00,0x00,0x00,0x00,0x00,0x00,0x00,0x00,0x00,0x00,0x00,0x00,0x00,0x00,
 0x00,0x00,0x00,0xfc,0x00,0x00,0x00,0x00,0x00,0x00,0x00,0x00,0x00,0x00,0x00,
 0x00,0x00,0x00,0x00,0x00,0x00,0x00,0x00,0x00,0x00,0x00,0x00,0x00,0x00,0x00,
 0x00,0x00,0x00,0x00,0x00,0x00,0x00,0x00,0x00,0x00,0x00,0x00,0x00,0x00,0x00,
 0x00,0x00,0x00,0x00,0x00,0x00,0x00,0x00,0x00,0x00,0x00,0x00,0x00,0x00,0x00,
 0x00,0x00,0x00,0x00,0x00,0x00,0x00,0x00,0x00,0x00,0x00,0x00,0x00,0x00,0x00,
 0x00,0x00,0x00,0x00,0x00,0x00,0x00,0x00,0x00,0x00,0x00,0x00,0x00,0x00,0x00,
 0x00,0x00,0x00,0x00,0x00,0x00,0x00,0x00,0x00,0x00,0x00,0x00,0x00,0x00,0x00,
 0x00,0x00,0x00,0x00,0x00,0x00,0x00,0x00,0x00,0x00,0x00,0x00,0x00,0x00,0x00,
 0x00,0x00,0x00,0x00,0x00,0x00,0x00,0x00,0x00,0x00,0x00,0x00,0x00,0x00,0x00,
 0x00,0x00,0x00,0x00,0x00,0x00,0x00,0x00,0x00,0x00,0x00,0x00,0x00,0x00,0x00,
 0x00,0x00,0x00,0x00,0x00,0x00,0x00,0x00,0x00,0x00,0x00,0x00,0x00,0x00,0x00,
 0x00,0x00,0x00,0x00,0x00,0x00,0x00,0x00,0x00,0x00,0x00,0x00,0x00,0x00,0x00,
 0x00,0x00,0x00,0x00,0x00,0x00,0x00,0x00,0x00,0x00,0x00,0x00,0x00,0x00,0x00,
 0x00,0x00,0x00,0x00,0x00,0x00,0x00,0x00,0x00,0x00,0x00,0x00,0x00,0x00,0x00,
 0x00,0x00,0x00,0x00,0x00,0x00,0x00,0x00,0x00,0x00,0x00,0x00,0x00,0x00,0x00,
 0x00,0x00,0x00,0x00,0x00,0x00,0x00,0x00,0x00,0x00,0x00,0x00,0x00,0x00,0x00,
 0x00,0x00,0x00,0x00,0x00,0x00,0x00,0x00,0x00,0x00,0x00,0x00,0x00,0x00,0x00,
 0x00,0x00,0x00,0x00,0x00,0x00,0x00,0x00,0x00,0x00,0x00,0x00,0x00,0x00,0x00,
 0x00,0x00,0x00,0x00,0x00,0x00,0x00,0x00,0x00,0x00,0x00,0x00,0x00,0x00,0x00,
 0x00,0x00,0x00,0x00,0x00,0x00,0x00,0x00,0x00,0x00,0x00,0x00,0x00,0x00,0x00,
 0x00,0x00,0x00,0x00,0x00,0x00,0x00,0x00,0x00,0x00,0x00,0x00,0x00,0x00,0x00,
 0x00,0x00,0x00,0x00,0x00,0x00,0x00,0x00,0x00,0x00,0x00,0x00,0x00,0x00,0x00,
 0x00,0x00,0x00,0x00,0x00,0x00,0x00,0x00,0x00,0x00,0x00,0x00,0x00,0x00,0x00,
 0x00,0x00,0x00,0x00,0x00,0x00,0x00,0x00,0x00,0x00,0x00,0x00,0x00,0x00,0x00,
 0x00,0x00,0x00,0x00,0x00,0x00,0x00,0x00,0x00,0x00,0x00,0x00,0x00,0x00,0x00,
 0x00,0x00,0x00,0x00,0x00,0x00,0x00,0x00,0x00,0x00,0x00,0x00,0x00,0x00,0x00,
 0x00,0x00,0x00,0x00,0x00,0x00,0x00,0x00,0x00,0x00,0x00,0x00,0x00,0x00,0x00,
 0x00,0x00,0x00,0x00,0x00,0x00,0x00,0x00,0x00,0x00,0x00,0x00,0x00,0x00,0x00,
 0x00,0x00,0x00,0x00,0x00,0x00,0x00,0x00,0x00,0x00,0x00,0x00,0x00,0x00,0x00,
 0x00,0x00,0x00,0x00,0x00,0x00,0x00,0x00,0x00,0x00,0x00,0x00,0x00,0x00,0x00,
 0x00,0x00,0x00,0x00,0x00,0x00,0x00,0x00,0x00,0x00,0x00,0x00,0x00,0x00,0x00,
 0x00,0x00,0x00,0x00,0x00,0x00,0x00,0x00,0x00,0x00,0x00,0x00,0x00,0x00,0x00,
 0x00,0x00,0x00,0x00,0x00,0x00,0x00,0x00,0x00,0x00,0x00,0x00,0x00,0x08,0x00,
 0x00,0x00,0x00,0xc0,0x03,0x00,0x00,0x00,0x00,0x02,0x00,0x00,0x00,0x00,0x30,
 0x00,0x00,0x00,0x00,0x60,0x00,0x06,0x00,0x00,0x00,0x18,0x1c,0x00,0x00,0x00,
 0x00,0x18,0x00,0x00,0x00,0x00,0x60,0x06,0x00,0x00,0x00,0x80,0x05,0x00,0x00,
 0x00,0x00,0x70,0x00,0x00,0x00,0x00,0xe0,0x00,0x07,0x00,0x00,0x00,0x3c,0x3c,
 0x00,0x00,0x00,0x00,0x1c,0x00,0x00,0x00,0x00,0xa0,0x03,0x00,0x00,0x00,0x00,
 0x0c,0x00,0x00,0x00,0x00,0x30,0x00,0x00,0x00,0x00,0xc0,0x81,0x01,0x00,0x00,
 0x00,0x7e,0x7f,0x00,0x00,0x00,0x00,0x18,0x00,0x00,0x00,0x00,0xa0,0x03,0x00,
 0x00,0x00,0xa0,0x1d,0x00,0x00,0x00,0x00,0x30,0x00,0x00,0x00,0x00,0x80,0xc3,
 0x01,0x00,0x00,0x00,0xfe,0x7f,0x00,0x00,0x00,0x00,0x1c,0x00,0x00,0x00,0x00,
 0xe0,0x07,0x00,0x00,0x00,0x50,0x24,0x00,0x00,0x00,0x00,0xfe,0x03,0x00,0x00,
 0x00,0x00,0xe7,0x00,0x00,0x00,0x00,0xfc,0x3f,0x00,0x00,0x00,0x00,0x18,0x00,
 0x00,0x00,0x00,0xb6,0x7b,0x00,0x00,0x00,0x10,0x60,0x00,0x00,0x00,0x00,0xfe,
 0x03,0x00,0x00,0x00,0x00,0x7e,0x00,0x00,0x00,0x00,0xf8,0x1f,0x00,0x00,0x00,
 0x40,0xbd,0x02,0x00,0x00,0x00,0xbe,0x5d,0x00,0x00,0x00,0xe0,0x7c,0x00,0x00,
 0x00,0x00,0xb5,0x00,0x00,0x00,0x00,0x00,0x3c,0x00,0x00,0x00,0x00,0xf0,0x0f,
 0x00,0x00,0x00,0xf0,0xe7,0x07,0x00,0x00,0x00,0xfd,0x7f,0x00,0x00,0x00,0xc0,
 0x7c,0x00,0x00,0x00,0x00,0x70,0x00,0x00,0x00,0x00,0x00,0x3c,0x00,0x00,0x00,
 0x00,0xf8,0x0f,0x00,0x00,0x00,0xe0,0xe7,0x07,0x00,0x00,0x00,0xfe,0x7f,0x00,
 0x00,0x00,0x00,0x0d,0x00,0x00,0x00,0x00,0x30,0x00,0x00,0x00,0x00,0x00,0x76,
 0x00,0x00,0x00,0x00,0xfc,0x1f,0x00,0x00,0x00,0x00,0x18,0x00,0x00,0x00,0x00,
 0xb6,0x6b,0x00,0x00,0x00,0x80,0x0c,0x00,0x00,0x00,0x00,0x70,0x00,0x00,0x00,
 0x00,0x00,0xe7,0x00,0x00,0x00,0x00,0xfe,0x3f,0x00,0x00,0x00,0x00,0x18,0x00,
 0x00,0x00,0x00,0xa9,0x17,0x00,0x00,0x00,0x00,0x0c,0x00,0x00,0x00,0x00,0x30,
 0x00,0x00,0x00,0x00,0x80,0xc3,0x01,0x00,0x00,0x00,0xfe,0x7f,0x00,0x00,0x00,
 0x00,0x1c,0x00,0x00,0x00,0x00,0xa0,0x03,0x00,0x00,0x00,0x00,0x0d,0x00,0x00,
 0x00,0x00,0x70,0x00,0x00,0x00,0x00,0xc0,0x80,0x03,0x00,0x00,0x00,0x7c,0x3e,
 0x00,0x00,0x00,0x00,0x18,0x00,0x00,0x00,0x00,0xe0,0x05,0x00,0x00,0x00,0x80,
 0x0c,0x00,0x00,0x00,0x00,0x30,0x00,0x00,0x00,0x00,0xe0,0x00,0x07,0x00,0x00,
 0x00,0x38,0x1e,0x00,0x00,0x00,0x00,0x1c,0x00,0x00,0x00,0x00,0xa0,0x03,0x00,
 0x00,0x00,0x00,0x0f,0x00,0x00,0x00,0x00,0x30,0x00,0x00,0x00,0x00,0x60,0x00,
 0x06,0x00,0x00,0x00,0x10,0x08,0x00,0x00,0x00,0x00,0x18,0x00,0x00,0x00,0x00,
 0xc0,0x07,0x00,0x00,0x00,0x00,0x0e,0x00,0x00,0x00,0x00,0x70,0x00,0x00,0x00,
 0x00,0x00,0x00,0x00,0x00,0x00,0x00,0x00,0x00,0x00,0x00,0x00,0x00,0x00,0x00,
 0x00,0x00,0x00,0x00,0x00,0x00,0x00,0x00,0x00,0x00,0x00,0x00,0x00,0x00,0x00,
 0x00,0x00,0x00,0x00,0x00,0x00,0x00,0x00,0x00,0x00,0x00,0x00,0x00,0x00,0x00,
 0x00,0x00,0x00,0x00,0x00,0x00,0x00,0x00,0x00,0x00,0x00,0x00,0x00,0x00,0x00,
 0x00,0x00,0x00,0x00,0x00,0x00,0x00,0x00,0x00,0x00,0x00,0x00,0x00,0x00,0x00,
 0x00,0x00,0x00,0x00,0x00,0x00,0x00,0x00,0x00,0x00,0x00,0x00,0x00,0x00,0x00,
 0x00,0x00,0x00,0x00,0x00,0x00,0x00,0x00,0x00,0x00,0x00,0x00,0x00,0x00,0x00,
 0x00,0x00,0x00,0x00,0x00,0x00,0x00,0x00,0x00,0x00,0x00,0x00,0x00,0x00,0x00,
 0x00,0x00,0x00,0x00,0x00,0x00,0x00,0x00,0x00,0x00,0x00,0x00,0x00,0x00,0x00,
 0x00,0x00,0x00,0x00,0x00,0x00,0x00,0x00,0x00,0x00,0x00,0x00,0x00,0x00,0x00,
 0x00,0x00,0x00,0x00,0x00,0x00,0x00,0x00,0x00,0x00,0x00,0x00,0x00,0x00,0x00,
 0x00,0x00,0x00,0x00,0x00,0x00,0x00,0x00,0x00,0x00,0x00,0x00,0x00,0x00,0x00,
 0x00,0x00,0x00,0x00,0x00,0x00,0x00,0x00,0x00,0x00,0x00,0x00,0x00,0x00,0x00,
 0x00,0x00,0x00,0x00,0x00,0x00,0x00,0x00,0x00,0x00,0x00,0x00,0x00,0x00,0x00,
 0x00,0x00,0x00,0x00,0x00,0x00,0x00,0x00,0x00,0x00,0x00,0x00,0x00,0x00,0x00,
 0x00,0x00,0x00,0x00,0x00,0x00,0x00,0x00,0x00,0x00,0x00,0x00,0x00,0x00,0x00,
 0x00,0x00,0x00,0x00,0x00,0x00,0x00,0x00,0x00,0x00,0x00,0x00,0x00,0x00,0x00,
 0x00,0x00,0x00,0x00,0x00,0x00,0x00,0x00,0x00,0x00,0x00,0x00,0x00,0x00,0x00,
 0x00,0x00,0x00,0x00,0x00,0x00,0x00,0x00,0x00,0x00,0x00,0x00,0x00,0x00,0x00,
 0x00,0x00,0x00,0x00,0x00,0x00,0x00,0x00,0x00,0x00,0x00,0x00,0x00,0x00,0x00,
 0x00,0x00,0x00,0x00,0x00,0x00,0x00,0x00,0x00,0x00,0x00,0x00,0x00,0x00,0x00,
 0x00,0x00,0x00,0x00,0x00,0x00,0x00,0x00,0x00,0x00,0x00,0x00,0x00,0x00,0x00,
 0x00,0x00,0x00,0x00,0x00,0x00,0x00,0x00,0x00,0x00,0x00,0x00,0x00,0x00,0x00,
 0x00,0x00,0x00,0x00,0x00,0x00,0x00,0x00,0x00,0x00,0x00,0x00,0x00,0x00,0x00,
 0x00,0x00,0x00,0x00,0x00,0x00,0x00,0x00,0x00,0x00,0x00,0x00,0x00,0x00,0x00,
 0x00,0x00,0x00,0x00,0x00,0x00,0x00,0x00,0x00,0x00,0x00,0x00,0x00,0x00,0x00,
 0x00,0x00,0x00,0x00,0x00,0x00,0x00,0x00,0x00,0x00,0x00,0x00,0x00,0x00,0x00,
 0x00,0x00,0x00,0x00,0x00,0x00,0x00,0x00,0x00,0x00,0x00,0x00,0x00,0x00,0x00,
 0x00,0x00,0x00,0x00,0x00,0x00,0x00,0x00,0x00,0x00,0x00,0x00,0x00,0x00,0x00,
 0x00,0x00,0x00,0x00,0x00,0x00,0x00,0x00,0x00,0x00,0x00,0x00,0x00,0x00,0x00,
 0x00,0x00,0x00,0x00,0x00,0x00,0x00,0x00,0x00,0x00,0x00,0x00,0x00,0x00,0x00,
 0x00,0x00,0x00,0x00,0x00,0x08,0x00,0x00,0x00,0x00,0x3c,0x00,0x00,0x00,0x00,
 0x40,0x01,0x00,0x00,0x00,0x00,0x05,0x00,0x00,0x00,0x00,0x00,0x00,0x00,0x00,
 0x00,0x00,0xc0,0x00,0x00,0x00,0x00,0x08,0x1c,0x00,0x00,0x00,0x00,0x7e,0x00,
 0x00,0x00,0x00,0xc0,0x03,0x00,0x00,0x00,0x00,0x0b,0x00,0x00,0x00,0x00,0x00,
 0x00,0x00,0x00,0x00,0x80,0xe1,0x00,0x00,0x00,0x00,0x1c,0x1e,0x00,0x00,0x00,
 0x00,0x3e,0x00,0x00,0x00,0x00,0xe0,0x03,0x00,0x00,0x00,0x00,0x0f,0x00,0x00,
 0x00,0x00,0x50,0x01,0x00,0x00,0x00,0x80,0x73,0x00,0x00,0x00,0x00,0x3c,0x1f,
 0x00,0x00,0x00,0x00,0x3c,0x00,0x00,0x00,0x00,0xc0,0x03,0x00,0x00,0x00,0xa0,
 0x2f,0x00,0x00,0x00,0x00,0xf8,0x01,0x00,0x00,0x00,0x80,0x3f,0x00,0x00,0x00,
 0x00,0xbc,0x07,0x00,0x00,0x00,0x00,0x7e,0x00,0x00,0x00,0x00,0xe0,0x03,0x00,
 0x00,0x00,0xe0,0x5b,0x00,0x00,0x00,0x00,0x62,0x04,0x00,0x00,0x00,0x00,0x1f,
 0x00,0x00,0x00,0x00,0xf8,0x07,0x00,0x00,0x00,0xe0,0xff,0x07,0x00,0x00,0x00,
 0xca,0x2b,0x00,0x00,0x00,0xd0,0x7f,0x00,0x00,0x00,0x00,0x62,0x0c,0x00,0x00,
 0x00,0x00,0x1f,0x00,0x00,0x00,0x00,0xf8,0x03,0x00,0x00,0x00,0xe0,0xff,0x07,
 0x00,0x00,0x00,0x3f,0x7c,0x00,0x00,0x00,0xd0,0x5f,0x00,0x00,0x00,0x00,0x67,
 0x06,0x00,0x00,0x00,0x00,0x0e,0x00,0x00,0x00,0x00,0xf0,0x01,0x00,0x00,0x00,
 0xe0,0xff,0x07,0x00,0x00,0x00,0x3f,0x7c,0x00,0x00,0x00,0x60,0x37,0x00,0x00,
 0x00,0x00,0xfe,0x07,0x00,0x00,0x00,0x00,0x1f,0x00,0x00,0x00,0x00,0xf0,0x01,
 0x00,0x00,0x00,0xf0,0xff,0x07,0x00,0x00,0x00,0x3f,0x7c,0x00,0x00,0x00,0x00,
 0x0f,0x00,0x00,0x00,0x00,0x4e,0x0f,0x00,0x00,0x00,0x80,0x1f,0x00,0x00,0x00,
 0x00,0xf8,0x03,0x00,0x00,0x00,0xe0,0xff,0x07,0x00,0x00,0x00,0x3e,0x7c,0x00,
 0x00,0x00,0x80,0x0b,0x00,0x00,0x00,0x00,0x63,0x04,0x00,0x00,0x00,0xc0,0x1f,
 0x00,0x00,0x00,0x00,0xfc,0x07,0x00,0x00,0x00,0x40,0x7e,0x02,0x00,0x00,0x00,
 0xc0,0x03,0x00,0x00,0x00,0x00,0x0f,0x00,0x00,0x00,0x00,0x62,0x0c,0x00,0x00,
 0x00,0xe0,0x39,0x00,0x00,0x00,0x00,0xfe,0x0f,0x00,0x00,0x00,0x00,0x3e,0x00,
 0x00,0x00,0x00,0xc0,0x03,0x00,0x00,0x00,0x00,0x0b,0x00,0x00,0x00,0x00,0xf0,
 0x00,0x00,0x00,0x00,0xe0,0x38,0x00,0x00,0x00,0x00,0x9e,0x07,0x00,0x00,0x00,
 0x00,0x7e,0x00,0x00,0x00,0x00,0xe0,0x03,0x00,0x00,0x00,0x80,0x0f,0x00,0x00,
 0x00,0x00,0xf8,0x03,0x00,0x00,0x00,0xf0,0x10,0x00,0x00,0x00,0x00,0x0f,0x07,
 0x00,0x00,0x00,0x00,0x3c,0x00,0x00,0x00,0x00,0xc0,0x03,0x00,0x00,0x00,0x00,
 0x0b,0x00,0x00,0x00,0x00,0x00,0x00,0x00,0x00,0x00,0x70,0x00,0x00,0x00,0x00,
 0x00,0x0e,0x00,0x00,0x00,0x00,0x00,0x7e,0x00,0x00,0x00,0x00,0xe0,0x03,0x00,
 0x00,0x00,0x00,0x0f,0x00,0x00,0x00,0x00,0x00,0x00,0x00,0x00,0x00,0x30,0x00,
 0x00,0x00,0x00,0x00,0x00,0x00,0x00,0x00,0x00,0x00,0x00,0x00,0x00,0x00,0x00,
 0x00,0x00,0x00,0x00,0x00,0x00,0x00,0x00,0x00,0x00,0x00,0x00,0x00,0x00,0x00,
 0x00,0x20,0x00,0x00,0x00,0x00,0x00,0x00,0x00,0x00,0x00,0x00,0x00,0x00,0x00,
 0x00,0x00,0x00,0x00,0x00,0x00,0x00,0x00,0x00,0x00,0x00,0x00,0x00,0x00,0x00,
 0x00,0x00,0x00,0x00,0x00,0x00,0x00,0x00,0x00,0x00,0x00,0x00,0x00,0x00,0x00,
 0x00,0x00,0x00,0x00,0x00,0x00,0x00,0x00,0x00,0x00,0x00,0x00,0x00,0x00,0x00,
 0x00,0x00,0x00,0x00,0x00,0x00,0x00,0x00,0x00,0x00,0x00,0x00,0x00,0x00,0x00,
 0x00,0x00,0x00,0x00,0x00,0x00,0x00,0x00,0x00,0x00,0x00,0x00,0x00,0x00,0x00,
 0x00,0x00,0x00,0x00,0x00,0x00,0x00,0x00,0x00,0x00,0x00,0x00,0x00,0x00,0x00,
 0x00,0x00,0x00,0x00,0x00,0x00,0x00,0x00,0x00,0x00,0x00,0x00,0x00,0x00,0x00,
 0x00,0x00,0x00,0x00,0x00,0x00,0x00,0x00,0x00,0x00,0x00,0x00,0x00,0x00,0x00,
 0x00,0x00,0x00,0x00,0x00,0x00,0x00,0x00,0x00,0x00,0x00,0x00,0x00,0x00,0x00,
 0x00,0x00,0x00,0x00,0x00,0x00,0x00,0x00,0x00,0x00,0x00,0x00,0x00,0x00,0x00,
 0x00,0x00,0x00,0x00,0x00,0x00,0x00,0x00,0x00,0x00,0x00,0x00,0x00,0x00,0x00,
 0x00,0x00,0x00,0x00,0x00,0x00,0x00,0x00,0x00,0x00,0x00,0x00,0x00,0x00,0x00,
 0x00,0x00,0x00,0x00,0x00,0x00,0x00,0x00,0x00,0x00,0x00,0x00,0x00,0x00,0x00,
 0x00,0x00,0x00,0x00,0x00,0x00,0x00,0x00,0x00,0x00,0x00,0x00,0x00,0x00,0x00,
 0x00,0x00,0x00,0x00,0x00,0x00,0x00,0x00,0x00,0x00,0x00,0x00,0x00,0x00,0x00,
 0x00,0x00,0x00,0x00,0x00,0x00,0x00,0x00,0x00,0x00,0x00,0x00,0x00,0x00,0x00,
 0x00,0x00,0x00,0x00,0x00,0x00,0x00,0x00,0x00,0x00,0x00,0x00,0x00,0x00,0x00,
 0x00,0x00,0x00,0x00,0x00,0x00,0x00,0x00,0x00,0x00,0x00,0x00,0x00,0x00,0x00,
 0x00,0x00,0x00,0x00,0x00,0x00,0x00,0x00,0x00,0x00,0x00,0x00,0x00,0x00,0x00,
 0x00,0x00,0x00,0x00,0x00,0x00,0x00,0x00,0x00,0x00,0x00,0x00,0x00,0x00,0x00,
 0x00,0x00,0x00,0x00,0x00,0x00,0x00,0x00,0x00,0x00,0x00,0x00,0x00,0x00,0x00,
 0x00,0x00,0x00,0x00,0x00,0x00,0x00,0x00,0x00,0x00,0x00,0x00,0x00,0x00,0x00,
 0x00,0x00,0x00,0x00,0x00,0x00,0x00,0x00,0x00,0x00,0x00,0x00,0x00,0x00,0x00,
 0x00,0x00,0x00,0x00,0x00,0x00,0x00,0x00,0x00,0x00,0x00,0x00,0x00,0x00,0x00,
 0x00,0x00,0x00,0x00,0x00,0x00,0x00,0x00,0x00,0x00,0x00,0x00,0x00,0x00,0x00,
 0x00,0x00,0x00,0x00,0x00,0x00,0x00,0x00,0x00,0x00,0x00,0x00,0x00,0x00,0x00,
 0x00,0x00,0x00,0x00,0x00,0x00,0x00,0x00,0x00,0x00,0x00,0x00,0x00,0x00,0x00,
 0x00,0x00,0x00,0x00,0x00,0x00,0x00,0x00,0x00,0x00,0x00,0x00,0x06,0x00,0x00,
 0x00,0x00,0x80,0x01,0x00,0x00,0x00,0x00,0x00,0x00,0x00,0x00,0x00,0x00,0x00,
 0x00,0x00,0x00,0x00,0x00,0x00,0x00,0x00,0x00,0x00,0x00,0x00,0x00,0x00,0x80,
 0x03,0x00,0x00,0x00,0x00,0xc0,0x01,0x00,0x00,0x00,0x00,0x00,0x00,0x00,0x00,
 0x00,0x00,0x00,0x00,0x00,0x00,0x00,0x00,0x00,0x00,0x00,0x00,0x00,0x00,0x00,
 0x00,0x00,0xc0,0x03,0x00,0x00,0x00,0x00,0xe0,0x01,0x00,0x00,0x00,0x00,0x00,
 0x00,0x00,0x00,0x00,0x00,0x00,0x00,0x00,0x00,0x00,0x00,0x00,0x00,0x00,0x00,
 0x00,0x00,0x00,0x00,0x00,0xc0,0x01,0x00,0x00,0x00,0x00,0xf0,0x00,0x00,0x00,
 0x00,0x08,0x00,0x00,0x00,0x00,0x80,0x00,0x00,0x00,0x00,0x00,0x00,0x00,0x00,
 0x00,0x00,0x00,0x00,0x00,0x00,0x00,0x00,0xe0,0x00,0x00,0x00,0x00,0x00,0xf8,
 0x00,0x00,0x00,0x00,0x1c,0x00,0x00,0x00,0x00,0xe0,0x03,0x00,0x00,0x00,0x00,
 0x18,0x00,0x00,0x00,0x00,0x78,0x0e,0x00,0x00,0x00,0x00,0x70,0x00,0x00,0x00,
 0x00,0x1c,0x3c,0x00,0x00,0x00,0x00,0x3e,0x00,0x00,0x00,0x00,0xe0,0x07,0x00,
 0x00,0x00,0x00,0x1c,0x00,0x00,0x00,0x00,0x78,0x1f,0x00,0x00,0x00,0x00,0x38,
 0x00,0x00,0x00,0x00,0x1e,0x3e,0x00,0x00,0x00,0x00,0x7e,0x00,0x00,0x00,0x00,
 0xe0,0x07,0x00,0x00,0x00,0x00,0x3e,0x00,0x00,0x00,0x00,0xfc,0x1f,0x00,0x00,
 0x00,0x00,0x38,0x00,0x00,0x00,0x00,0x1e,0x1f,0x00,0x00,0x00,0x00,0x7f,0x00,
 0x00,0x00,0x00,0xe0,0x03,0x00,0x00,0x00,0x00,0x7f,0x00,0x00,0x00,0x00,0xfc,
 0x1f,0x00,0x00,0x00,0x00,0x1c,0x00,0x00,0x00,0x00,0x9f,0x0f,0x00,0x00,0x00,
 0x80,0xff,0x00,0x00,0x00,0x00,0xd0,0x0b,0x00,0x00,0x00,0x00,0xff,0x00,0x00,
 0x00,0x00,0xf8,0x1f,0x00,0x00,0x00,0x60,0x0e,0x00,0x00,0x00,0x00,0xfe,0x07,
 0x00,0x00,0x00,0x80,0xff,0x01,0x00,0x00,0x00,0xfc,0x1f,0x00,0x00,0x00,0x80,
 0xff,0x00,0x00,0x00,0x00,0xf8,0x1f,0x00,0x00,0x00,0xe0,0x0e,0x00,0x00,0x00,
 0x00,0xfe,0x03,0x00,0x00,0x00,0xc0,0xff,0x01,0x00,0x00,0x00,0xfc,0x3f,0x00,
 0x00,0x00,0x80,0xff,0x00,0x00,0x00,0x00,0xf0,0x0f,0x00,0x00,0x00,0xe0,0x07,
 0x00,0x00,0x00,0x00,0xfe,0x01,0x00,0x00,0x00,0xc0,0xff,0x01,0x00,0x00,0x00,
 0xfe,0x3f,0x00,0x00,0x00,0x00,0x7f,0x00,0x00,0x00,0x00,0xf0,0x07,0x00,0x00,
 0x00,0xe0,0x03,0x00,0x00,0x00,0x00,0xfe,0x00,0x00,0x00,0x00,0xc0,0xff,0x01,
 0x00,0x00,0x00,0xbc,0x3f,0x00,0x00,0x00,0x00,0x7e,0x00,0x00,0x00,0x00,0xe0,
 0x03,0x00,0x00,0x00,0xe0,0x03,0x00,0x00,0x00,0x00,0x7e,0x00,0x00,0x00,0x00,
 0x80,0xeb,0x00,0x00,0x00,0x00,0xb8,0x1d,0x00,0x00,0x00,0x00,0x3c,0x00,0x00,
 0x00,0x00,0xc0,0x03,0x00,0x00,0x00,0xc0,0x01,0x00,0x00,0x00,0x00,0x1c,0x00,
 0x00,0x00,0x00,0x00,0x18,0x00,0x00,0x00,0x00,0x80,0x01,0x00,0x00,0x00,0x00,
 0x18,0x00,0x00,0x00,0x00,0x80,0x01,0x00,0x00,0x00,0x80,0x00,0x00,0x00,0x00,
 0x00,0x08,0x00,0x00,0x00,0x00,0x00,0x1c,0x00,0x00,0x00,0x00,0x80,0x00,0x00,
 0x00,0x00,0x00,0x08,0x00,0x00,0x00,0x00,0x00,0x00,0x00,0x00,0x00,0x00,0x00,
 0x00,0x00,0x00,0x00,0x00,0x00,0x00,0x00,0x00,0x00,0x00,0x00,0x00,0x00,0x00,
 0x00,0x00,0x00,0x00,0x00,0x00,0x00,0x00,0x00,0x00,0x00,0x00,0x00,0x00,0x00,
 0x00,0x00,0x00,0x00,0x00,0x00,0x00,0x00,0x00,0x00,0x00,0x00,0x00,0x00,0x00,
 0x00,0x00,0x00,0x00,0x00,0x00,0x00,0x00,0x00,0x00,0x00,0x00,0x00,0x00,0x00,
 0x00,0x00,0x00,0x00,0x00,0x00,0x00,0x00,0x00,0x00,0x00,0x00,0x00,0x00,0x00,
 0x00,0x00,0x00,0x00,0x00,0x00,0x00,0x00,0x00,0x00,0x00,0x00,0x00,0x00,0x00,
 0x00,0x00,0x00,0x00,0x00,0x00,0x00,0x00,0x00,0x00,0x00,0x00,0x00,0x00,0x00,
 0x00,0x00,0x00,0x00,0x00,0x00,0x00,0x00,0x00,0x00,0x00,0x00,0x00,0x00,0x00,
 0x00,0x00,0x00,0x00,0x00,0x00,0x00,0x00,0x00,0x00,0x00,0x00,0x00,0x00,0x00,
 0x00,0x00,0x00,0x00,0x00,0x00,0x00,0x00,0x00,0x00,0x00,0x00,0x00,0x00,0x00,
 0x00,0x00,0x00,0x00,0x00,0x00,0x00,0x00,0x00,0x00,0x00,0x00,0x00,0x00,0x00,
 0x00,0x00,0x00,0x00,0x00,0x00,0x00,0x00,0x00,0x00,0x00,0x00,0x00,0x00,0x00,
 0x00,0x00,0x00,0x00,0x00,0x00,0x00,0x00,0x00,0x00,0x00,0x00,0x00,0x00,0x00,
 0x00,0x00,0x00,0x00,0x00,0x00,0x00,0x00,0x00,0x00,0x00,0x00,0x00,0x00,0x00,
 0x00,0x00,0x00,0x00,0x00,0x00,0x00,0x00,0x00,0x00,0x00,0x00,0x00,0x00,0x00,
 0x00,0x00,0x00,0x00,0x00,0x00,0x00,0x00,0x00,0x00,0x00,0x00,0x00,0x00,0x00,
 0x00,0x00,0x00,0x00,0x00,0x00,0x00,0x00,0x00,0x00,0x00,0x00,0x00,0x00,0x00,
 0x00,0x00,0x00,0x00,0x00,0x00,0x00,0x00,0x00,0x00,0x00,0x00,0x00,0x00,0x00,
 0x00,0x00,0x00,0x00,0x00,0x00,0x00,0x00,0x00,0x00,0x00,0x00,0x00,0x00,0x00,
 0x00,0x00,0x00,0x00,0x00,0x00,0x00,0x00,0x00,0x00,0x00,0x00,0x00,0x00,0x00,
 0x00,0x00,0x00,0x00,0x00,0x00,0x00,0x00,0x00,0x00,0x00,0x00,0x00,0x00,0x00,
 0x00,0x00,0x00,0x00,0x00,0x00,0x00,0x00,0x00,0x00,0x00,0x00,0x00,0x00,0x00,
 0x00,0x00,0x00,0x00,0x00,0x00,0x00,0x00,0x00,0x00,0x00,0x00,0x00,0x00,0x00,
 0x00,0x00,0x00,0x00,0x00,0x00,0x00,0x00,0x00,0x00,0x00,0x00,0x00,0x00,0x00,
 0x00,0x00,0x00,0x00,0x00,0x00,0x00,0x00,0x00,0x00,0x00,0x00,0x00,0x00,0x00,
 0x00,0x00,0x00,0x00,0x00,0x00,0x00,0x00,0x00,0x00,0x00,0x00,0x00,0x00,0x00,
 0x00,0x00,0x00,0x00,0x00,0x00,0x00,0x00,0x00,0x00,0x00,0x00,0x00,0x00,0x00,
 0x00,0x00,0x00,0x00,0x00,0x00,0x00,0x00,0x00,0x00,0x00,0x00,0x00,0x00,0x00,
 0x00,0x00,0x00,0x00,0x00,0x00,0x00,0x00,0x00,0x00,0x00,0x00,0x00,0x38,0x00,
 0x00,0x00,0x00,0x00,0x00,0x00,0x00,0x00,0x00,0x80,0x03,0x00,0x00,0x00,0x00,
 0x00,0x00,0x00,0x00,0x00,0x1c,0x0e,0x00,0x00,0x00,0x00,0x03,0x06,0x00,0x00,
 0x00,0x7e,0x00,0x00,0x00,0x00,0x00,0x04,0x00,0x00,0x00,0x00,0xe0,0x07,0x00,
 0x00,0x00,0x00,0x06,0x00,0x00,0x00,0x00,0x7e,0x1f,0x00,0x00,0x00,0xc0,0x8f,
 0x1f,0x00,0x00,0x00,0xfe,0x00,0x00,0x00,0x00,0x00,0x0e,0x00,0x00,0x00,0x00,
 0xe0,0x07,0x00,0x00,0x00,0x00,0x0e,0x00,0x00,0x00,0x00,0xfe,0x3f,0x00,0x00,
 0x00,0xe0,0xdf,0x3f,0x00,0x00,0x00,0xfe,0x00,0x00,0x00,0x00,0x00,0x0e,0x00,
 0x00,0x00,0x00,0xf0,0x0f,0x00,0x00,0x00,0x00,0x0f,0x00,0x00,0x00,0x00,0xfe,
 0x3f,0x00,0x00,0x00,0xe0,0xff,0x3f,0x00,0x00,0x00,0xff,0x01,0x00,0x00,0x00,
 0x00,0x1f,0x00,0x00,0x00,0x00,0xe0,0x07,0x00,0x00,0x00,0x80,0x1f,0x00,0x00,
 0x00,0x00,0xfe,0x3f,0x00,0x00,0x00,0xf0,0xff,0x3f,0x00,0x00,0x00,0xfe,0x01,
 0x00,0x00,0x00,0xc0,0x3f,0x00,0x00,0x00,0x00,0xfc,0x3f,0x00,0x00,0x00,0xc0,
 0x3f,0x00,0x00,0x00,0x00,0xfe,0x1f,0x00,0x00,0x00,0xe0,0xff,0x3f,0x00,0x00,
 0x00,0xfc,0x07,0x00,0x00,0x00,0xc0,0x7f,0x00,0x00,0x00,0x00,0xfe,0x7f,0x00,
 0x00,0x00,0xc0,0x7f,0x00,0x00,0x00,0x00,0xfc,0x1f,0x00,0x00,0x00,0xe0,0xff,
 0x3f,0x00,0x00,0x00,0xf8,0x1f,0x00,0x00,0x00,0xe0,0xff,0x00,0x00,0x00,0x00,
 0xfe,0x7f,0x00,0x00,0x00,0xe0,0xff,0x00,0x00,0x00,0x00,0xfc,0x0f,0x00,0x00,
 0x00,0xe0,0xff,0x3f,0x00,0x00,0x00,0xfc,0x1f,0x00,0x00,0x00,0xe0,0xff,0x01,
 0x00,0x00,0x00,0xff,0xff,0x00,0x00,0x00,0xe0,0x7f,0x00,0x00,0x00,0x00,0xf8,
 0x0f,0x00,0x00,0x00,0x80,0xff,0x0f,0x00,0x00,0x00,0xfe,0x03,0x00,0x00,0x00,
 0xf0,0xff,0x00,0x00,0x00,0x00,0xfe,0x7f,0x00,0x00,0x00,0xc0,0x3f,0x00,0x00,
 0x00,0x00,0xf0,0x07,0x00,0x00,0x00,0x00,0xff,0x07,0x00,0x00,0x00,0xfe,0x01,
 0x00,0x00,0x00,0xe0,0xff,0x00,0x00,0x00,0x00,0x7e,0x7f,0x00,0x00,0x00,0x80,
 0x3f,0x00,0x00,0x00,0x00,0xe0,0x03,0x00,0x00,0x00,0x00,0xf8,0x00,0x00,0x00,
 0x00,0xfe,0x01,0x00,0x00,0x00,0xc0,0x75,0x00,0x00,0x00,0x00,0xb8,0x39,0x00,
 0x00,0x00,0x80,0x1f,0x00,0x00,0x00,0x00,0xe0,0x01,0x00,0x00,0x00,0x00,0x70,
 0x00,0x00,0x00,0x00,0xff,0x00,0x00,0x00,0x00,0x00,0x0e,0x00,0x00,0x00,0x00,
 0x80,0x01,0x00,0x00,0x00,0x00,0x0f,0x00,0x00,0x00,0x00,0xc0,0x01,0x00,0x00,
 0x00,0x00,0x20,0x00,0x00,0x00,0x00,0xfe,0x00,0x00,0x00,0x00,0x00,0x1f,0x00,
 0x00,0x00,0x00,0xc0,0x03,0x00,0x00,0x00,0x00,0x06,0x00,0x00,0x00,0x00,0x80,
 0x00,0x00,0x00,0x00,0x00,0x00,0x00,0x00,0x00,0x00,0x7c,0x00,0x00,0x00,0x00,
 0xc0,0x7f,0x00,0x00,0x00,0x00,0xf8,0x1f,0x00,0x00,0x00,0x00,0x06,0x00,0x00,
 0x00,0x00,0x80,0x00,0x00,0x00,0x00,0x00,0x00,0x00,0x00,0x00,0x00,0x00,0x00,
 0x00,0x00,0x00,0x00,0x00,0x00,0x00,0x00,0x00,0x00,0x00,0x00,0x00,0x00,0x00,
 0x00,0x00,0x00,0x00,0x00,0x00,0x00,0x00,0x00,0x00,0x00,0x00,0x00,0x00,0x00,
 0x00,0x00,0x00,0x00,0x00,0x00,0x00,0x00,0x00,0x00,0x00,0x00,0x00,0x00,0x00,
 0x00,0x00,0x00,0x00,0x00,0x00,0x00,0x00,0x00,0x00,0x00,0x00,0x00,0x00,0x00,
 0x00,0x00,0x00,0x00,0x00,0x00,0x00,0x00,0x00,0x00,0x00,0x00,0x00,0x00,0x00,
 0x00,0x00,0x00,0x00,0x00,0x00,0x00,0x00,0x00,0x00,0x00,0x00,0x00,0x00,0x00,
 0x00,0x00,0x00,0x00,0x00,0x00,0x00,0x00,0x00,0x00,0x00,0x00,0x00,0x00,0x00,
 0x00,0x00,0x00,0x00,0x00,0x00,0x00,0x00,0x00,0x00,0x00,0x00,0x00,0x00,0x00,
 0x00,0x00,0x00,0x00,0x00,0x00,0x00,0x00,0x00,0x00,0x00,0x00,0x00,0x00,0x00,
 0x00,0x00,0x00,0x00,0x00,0x00,0x00,0x00,0x00,0x00,0x00,0x00,0x00,0x00,0x00,
 0x00,0x00,0x00,0x00,0x00,0x00,0x00,0x00,0x00,0x00,0x00,0x00,0x00,0x00,0x00,
 0x00,0x00,0x00,0x00,0x00,0x00,0x00,0x00,0x00,0x00,0x00,0x00,0x00,0x00,0x00,
 0x00,0x00,0x00,0x00,0x00,0x00,0x00,0x00,0x00,0x00,0x00,0x00,0x00,0x00,0x00,
 0x00,0x00,0x00,0x00,0x00,0x00,0x00,0x00,0x00,0x00,0x00,0x00,0x00,0x00,0x00,
 0x00,0x00,0x00,0x00,0x00,0x00,0x00,0x00,0x00,0x00,0x00,0x00};


