#define psnfss1_width 264
#define psnfss1_height 174
static char psnfss1_bits[] = {
 0x00,0x00,0x00,0x00,0x00,0x00,0x00,0x00,0x00,0x00,0x00,0x00,0x00,0x00,0x00,
 0x00,0x00,0x00,0x00,0x00,0x00,0x00,0x00,0x00,0x00,0x00,0x00,0x00,0x00,0x00,
 0x00,0x00,0x00,0x00,0x00,0x00,0x00,0x00,0x00,0x00,0x00,0x00,0x00,0x00,0x00,
 0x00,0x00,0x00,0x00,0x00,0x00,0x00,0x00,0x00,0x00,0x00,0x00,0x00,0x00,0x00,
 0x00,0x00,0x00,0x00,0x00,0x00,0x00,0x00,0x00,0x00,0x00,0x00,0x00,0x00,0x00,
 0x00,0x00,0x00,0x00,0x00,0x00,0x00,0x00,0x00,0x00,0x00,0x00,0x00,0x00,0x00,
 0x00,0x00,0x00,0x00,0x00,0x00,0x00,0x00,0x00,0x00,0x00,0x00,0x00,0x00,0x00,
 0x00,0x00,0x00,0x00,0x00,0x00,0x00,0x00,0x00,0x00,0x00,0x00,0x00,0x00,0x00,
 0x00,0x00,0x00,0x00,0x00,0x00,0x00,0x00,0x00,0x00,0x00,0x00,0x00,0x00,0x00,
 0x00,0x00,0x00,0x00,0x00,0x00,0x00,0x00,0x00,0x00,0x00,0x00,0x00,0x00,0x00,
 0x00,0x00,0x00,0x00,0x00,0x00,0x00,0x00,0x00,0x00,0x00,0x00,0x00,0x00,0x00,
 0x00,0x00,0x00,0x00,0x00,0x00,0x00,0x00,0x00,0x00,0x00,0x00,0x00,0x00,0x00,
 0x00,0x00,0x00,0x00,0x00,0x00,0x00,0x00,0x00,0x00,0x00,0x00,0x00,0x00,0x00,
 0x00,0x00,0x00,0x00,0x00,0x7c,0x00,0x00,0x00,0x00,0xc0,0x0f,0x00,0x00,0x00,
 0x60,0x00,0x00,0x00,0x00,0x00,0x00,0x01,0x00,0x00,0x00,0x00,0x10,0x00,0x00,
 0x00,0x00,0x00,0x00,0x00,0x00,0x00,0x00,0xff,0x01,0x00,0x00,0x00,0x30,0x3c,
 0x00,0x00,0x00,0xf0,0x01,0x00,0x00,0x00,0x00,0xf0,0x0f,0x00,0x00,0x00,0x00,
 0xff,0x00,0x00,0x00,0x00,0x00,0x00,0x00,0x00,0x00,0x80,0xff,0x03,0x00,0x00,
 0x00,0x08,0x70,0x00,0x00,0x00,0xe0,0x03,0x00,0x00,0x00,0x00,0x38,0x18,0x00,
 0x00,0x00,0x80,0xc3,0x01,0x00,0x00,0x00,0x00,0x00,0x00,0x00,0x00,0xc0,0xff,
 0x03,0x00,0x00,0x00,0x04,0xe0,0x00,0x00,0x00,0xf0,0x07,0x00,0x00,0x00,0x00,
 0x8c,0x31,0x00,0x00,0x00,0xc0,0x00,0x03,0x00,0x00,0x00,0x00,0x00,0x00,0x00,
 0x00,0xe0,0xff,0x07,0x00,0x00,0x00,0x06,0xc0,0x01,0x00,0x00,0xe0,0x0f,0x00,
 0x00,0x00,0x00,0x86,0x61,0x00,0x00,0x00,0x60,0xc3,0x06,0x00,0x00,0x00,0x78,
 0x00,0x00,0x00,0x00,0xe0,0xff,0x0f,0x00,0x00,0x00,0x02,0xc0,0x01,0x00,0x00,
 0xf0,0x0f,0x00,0x00,0x00,0x00,0x86,0x61,0x00,0x00,0x00,0x60,0x66,0x06,0x00,
 0x00,0x00,0xfc,0x00,0x00,0x00,0x00,0xe0,0xff,0x0f,0x00,0x00,0x00,0x02,0x80,
 0x03,0x00,0x00,0xe0,0x0f,0x00,0x00,0x00,0x00,0x82,0x41,0x00,0x00,0x00,0x20,
 0x3c,0x04,0x00,0x00,0x00,0xfe,0x00,0x00,0x00,0x00,0xf0,0xff,0x0f,0x00,0x00,
 0x00,0x02,0x80,0x03,0x00,0x00,0xf0,0x1f,0x00,0x00,0x00,0x00,0xfa,0xdf,0x00,
 0x00,0x00,0x30,0x18,0x0c,0x00,0x00,0x00,0xfe,0x01,0x00,0x00,0x00,0xe0,0xff,
 0x0f,0x00,0x00,0x00,0x02,0x80,0x03,0x00,0x00,0xe0,0x0f,0x00,0x00,0x00,0x00,
 0xb3,0x5f,0x00,0x00,0x00,0x20,0x3c,0x04,0x00,0x00,0x00,0xfe,0x01,0x00,0x00,
 0x00,0xe0,0xff,0x0f,0x00,0x00,0x00,0x02,0x80,0x01,0x00,0x00,0xf0,0x0f,0x00,
 0x00,0x00,0x00,0x86,0x41,0x00,0x00,0x00,0x60,0x66,0x04,0x00,0x00,0x00,0xfe,
 0x00,0x00,0x00,0x00,0xe0,0xff,0x07,0x00,0x00,0x00,0x02,0xc0,0x01,0x00,0x00,
 0xe0,0x0f,0x00,0x00,0x00,0x00,0x06,0x61,0x00,0x00,0x00,0x60,0xc7,0x06,0x00,
 0x00,0x00,0xfc,0x00,0x00,0x00,0x00,0xc0,0xff,0x07,0x00,0x00,0x00,0x04,0xc0,
 0x01,0x00,0x00,0xf0,0x0f,0x00,0x00,0x00,0x00,0x84,0x21,0x00,0x00,0x00,0xc0,
 0x40,0x06,0x00,0x00,0x00,0x78,0x00,0x00,0x00,0x00,0xc0,0xff,0x03,0x00,0x00,
 0x00,0x0c,0xf0,0x00,0x00,0x00,0xe0,0x07,0x00,0x00,0x00,0x00,0x0c,0x31,0x00,
 0x00,0x00,0x80,0x81,0x03,0x00,0x00,0x00,0x00,0x00,0x00,0x00,0x00,0x80,0xff,
 0x01,0x00,0x00,0x00,0x10,0x70,0x00,0x00,0x00,0xf0,0x03,0x00,0x00,0x00,0x00,
 0x38,0x1c,0x00,0x00,0x00,0x00,0xef,0x00,0x00,0x00,0x00,0x00,0x00,0x00,0x00,
 0x00,0x00,0xfe,0x00,0x00,0x00,0x00,0xe0,0x1f,0x00,0x00,0x00,0xe0,0x01,0x00,
 0x00,0x00,0x00,0xe0,0x07,0x00,0x00,0x00,0x00,0x7c,0x00,0x00,0x00,0x00,0x00,
 0x00,0x00,0x00,0x00,0x00,0x10,0x00,0x00,0x00,0x00,0x00,0x02,0x00,0x00,0x00,
 0x00,0x00,0x00,0x00,0x00,0x00,0x00,0x00,0x00,0x00,0x00,0x00,0x00,0x00,0x00,
 0x00,0x00,0x00,0x00,0x00,0x00,0x00,0x00,0x00,0x00,0x00,0x00,0x00,0x00,0x00,
 0x00,0x00,0x00,0x00,0x00,0x00,0x00,0x00,0x00,0x00,0x00,0x00,0x00,0x00,0x00,
 0x00,0x00,0x00,0x00,0x00,0x00,0x00,0x00,0x00,0x00,0x00,0x00,0x00,0x00,0x00,
 0x00,0x00,0x00,0x00,0x00,0x00,0x00,0x00,0x00,0x00,0x00,0x00,0x00,0x00,0x00,
 0x00,0x00,0x00,0x00,0x00,0x00,0x00,0x00,0x00,0x00,0x00,0x00,0x00,0x00,0x00,
 0x00,0x00,0x00,0x00,0x00,0x00,0x00,0x00,0x00,0x00,0x00,0x00,0x00,0x00,0x00,
 0x00,0x00,0x00,0x00,0x00,0x00,0x00,0x00,0x00,0x00,0x00,0x00,0x00,0x00,0x00,
 0x00,0x00,0x00,0x00,0x00,0x00,0x00,0x00,0x00,0x00,0x00,0x00,0x00,0x00,0x00,
 0x00,0x00,0x00,0x00,0x00,0x00,0x00,0x00,0x00,0x00,0x00,0x00,0x00,0x00,0x00,
 0x00,0x00,0x00,0x00,0x00,0x00,0x00,0x00,0x00,0x00,0x00,0x00,0x00,0x00,0x00,
 0x00,0x00,0x00,0x00,0x00,0x00,0x00,0x00,0x00,0x00,0x00,0x00,0x00,0x00,0x00,
 0x00,0x00,0x00,0x00,0x00,0x00,0x00,0x00,0x00,0x00,0x00,0x00,0x00,0x00,0x00,
 0x00,0x00,0x00,0x00,0x00,0x00,0x00,0x00,0x00,0x00,0x00,0x00,0x00,0x00,0x00,
 0x00,0x00,0x00,0x00,0x00,0x00,0x00,0x00,0x00,0x00,0x00,0x00,0x00,0x00,0x00,
 0x00,0x00,0x00,0x00,0x00,0x00,0x00,0x00,0x00,0x00,0x00,0x00,0x00,0x00,0x00,
 0x00,0x00,0x00,0x00,0x00,0x00,0x00,0x00,0x00,0x00,0x00,0x00,0x00,0x00,0x00,
 0x00,0x00,0x00,0x00,0x00,0x00,0x00,0x00,0x00,0x00,0x00,0x00,0x00,0x00,0x00,
 0x00,0x00,0x00,0x00,0x00,0x00,0x00,0x00,0x00,0x00,0x00,0x00,0x00,0x00,0x00,
 0x00,0x00,0x00,0x00,0x00,0x00,0x00,0x00,0x00,0x00,0x00,0x00,0x00,0x00,0x00,
 0x00,0x00,0x00,0x00,0x00,0x00,0x00,0x00,0x00,0x00,0x00,0x00,0x00,0x00,0x00,
 0x00,0x00,0x00,0x00,0x00,0x00,0x00,0x00,0x00,0x00,0x00,0x00,0x00,0x00,0x00,
 0x00,0x00,0x00,0x00,0x00,0x00,0x00,0x00,0x00,0x00,0x00,0x00,0x00,0x00,0x00,
 0x00,0x00,0x00,0x00,0x00,0x00,0x00,0x00,0x00,0x00,0x00,0x00,0x00,0x00,0x00,
 0x00,0x00,0x00,0x00,0x00,0x00,0x00,0x00,0x00,0x00,0x00,0x00,0x00,0x00,0x00,
 0x00,0x00,0x00,0x00,0x00,0x00,0x00,0x00,0x00,0x00,0x00,0x00,0x00,0x00,0x00,
 0x00,0x00,0x00,0x00,0x00,0x00,0x00,0x00,0x00,0x00,0x00,0x00,0x00,0x00,0x00,
 0x00,0x00,0x00,0x00,0x00,0x00,0x00,0x00,0x00,0x00,0x00,0x00,0x00,0x00,0x00,
 0x00,0x00,0x00,0x00,0x00,0x00,0x00,0x00,0x00,0x00,0x00,0x00,0x00,0x00,0x00,
 0x00,0x00,0x00,0x00,0x00,0x00,0x00,0x00,0x00,0x00,0x00,0x00,0x00,0x00,0x00,
 0x00,0x00,0x00,0x00,0x00,0x00,0x00,0x00,0x00,0x00,0x00,0x00,0x00,0x00,0x00,
 0x00,0x00,0x00,0x00,0x00,0x00,0x00,0x00,0x00,0x00,0x00,0x00,0x00,0x00,0x00,
 0x00,0x00,0x00,0x00,0x00,0x10,0x00,0x00,0x00,0x00,0x00,0x00,0x00,0x00,0x00,
 0x00,0x00,0x00,0x00,0x00,0x00,0x00,0x01,0x00,0x00,0x00,0x00,0x03,0x00,0x00,
 0x00,0x00,0x00,0x00,0x00,0x00,0x00,0x00,0x18,0x00,0x00,0x00,0x00,0x80,0x01,
 0x00,0x00,0x00,0x00,0x18,0x00,0x00,0x00,0x00,0x80,0x03,0x00,0x00,0x00,0x80,
 0x07,0x00,0x00,0x00,0x00,0x00,0x00,0x00,0x00,0x00,0x00,0x18,0x00,0x00,0x00,
 0x00,0x80,0x01,0x00,0x00,0x00,0x00,0x3c,0x00,0x00,0x00,0x00,0xc0,0x07,0x00,
 0x00,0x00,0x80,0x0d,0x00,0x00,0x00,0x00,0x00,0x00,0x00,0x00,0x00,0x00,0x3c,
 0x00,0x00,0x00,0x00,0xc0,0x03,0x00,0x00,0x00,0x00,0x7e,0x00,0x00,0x00,0x00,
 0xe0,0x0f,0x00,0x00,0x00,0xc0,0x0c,0x00,0x00,0x00,0x00,0x00,0x00,0x00,0x00,
 0x00,0x00,0x64,0x00,0x00,0x00,0x00,0xc0,0x07,0x00,0x00,0x00,0x00,0x7e,0x00,
 0x00,0x00,0x00,0xf0,0x1f,0x00,0x00,0x00,0x40,0x08,0x00,0x00,0x00,0x00,0x00,
 0x00,0x00,0x00,0x00,0x00,0xe7,0x00,0x00,0x00,0x00,0xe0,0x0f,0x00,0x00,0x00,
 0x80,0xb9,0x01,0x00,0x00,0x00,0xf8,0x3f,0x00,0x00,0x00,0x60,0x18,0x00,0x00,
 0x00,0x00,0x00,0x00,0x00,0x00,0x00,0x80,0xc3,0x01,0x00,0x00,0x00,0xf8,0x1f,
 0x00,0x00,0x00,0xc0,0xd7,0x03,0x00,0x00,0x00,0xfc,0x7f,0x00,0x00,0x00,0x30,
 0x10,0x00,0x00,0x00,0x00,0x00,0x00,0x00,0x00,0x00,0xe0,0x00,0x0f,0x00,0x00,
 0x00,0xfe,0xff,0x00,0x00,0x00,0xe0,0xe7,0x0f,0x00,0x00,0x00,0xfe,0x7f,0x00,
 0x00,0x00,0x30,0x30,0x00,0x00,0x00,0x00,0x00,0x00,0x00,0x00,0x00,0xc0,0x81,
 0x03,0x00,0x00,0x00,0xfc,0x3f,0x00,0x00,0x00,0xe0,0xc3,0x07,0x00,0x00,0x00,
 0xfe,0x7f,0x00,0x00,0x00,0x60,0x18,0x00,0x00,0x00,0x00,0x04,0x00,0x00,0x00,
 0x00,0x00,0xc7,0x01,0x00,0x00,0x00,0xf0,0x1f,0x00,0x00,0x00,0xc0,0x9b,0x03,
 0x00,0x00,0x00,0xfc,0x3f,0x00,0x00,0x00,0x60,0x18,0x00,0x00,0x00,0x00,0x0e,
 0x00,0x00,0x00,0x00,0x00,0x66,0x00,0x00,0x00,0x00,0xe0,0x07,0x00,0x00,0x00,
 0x00,0x7d,0x01,0x00,0x00,0x00,0xf8,0x1f,0x00,0x00,0x00,0xc0,0x08,0x00,0x00,
 0x00,0x00,0x04,0x00,0x00,0x00,0x00,0x00,0x3c,0x00,0x00,0x00,0x00,0xc0,0x03,
 0x00,0x00,0x00,0x00,0x7e,0x00,0x00,0x00,0x00,0xf0,0x0f,0x00,0x00,0x00,0x80,
 0x0c,0x00,0x00,0x00,0x00,0x00,0x00,0x00,0x00,0x00,0x00,0x38,0x00,0x00,0x00,
 0x00,0x80,0x03,0x00,0x00,0x00,0x00,0x7c,0x00,0x00,0x00,0x00,0xe0,0x07,0x00,
 0x00,0x00,0x80,0x06,0x00,0x00,0x00,0x00,0x00,0x00,0x00,0x00,0x00,0x00,0x18,
 0x00,0x00,0x00,0x00,0x80,0x01,0x00,0x00,0x00,0x00,0x3c,0x00,0x00,0x00,0x00,
 0xc0,0x03,0x00,0x00,0x00,0x80,0x03,0x00,0x00,0x00,0x00,0x00,0x00,0x00,0x00,
 0x00,0x00,0x10,0x00,0x00,0x00,0x00,0x00,0x01,0x00,0x00,0x00,0x00,0x18,0x00,
 0x00,0x00,0x00,0x80,0x01,0x00,0x00,0x00,0x00,0x03,0x00,0x00,0x00,0x00,0x00,
 0x00,0x00,0x00,0x00,0x00,0x00,0x00,0x00,0x00,0x00,0x00,0x00,0x00,0x00,0x00,
 0x00,0x00,0x00,0x00,0x00,0x00,0x00,0x00,0x00,0x00,0x00,0x00,0x00,0x00,0x00,
 0x00,0x00,0x00,0x00,0x00,0x00,0x00,0x00,0x00,0x00,0x00,0x00,0x00,0x00,0x00,
 0x00,0x00,0x00,0x00,0x00,0x00,0x00,0x00,0x00,0x00,0x00,0x00,0x00,0x00,0x00,
 0x00,0x00,0x00,0x00,0x00,0x00,0x00,0x00,0x00,0x00,0x00,0x00,0x00,0x00,0x00,
 0x00,0x00,0x00,0x00,0x00,0x00,0x00,0x00,0x00,0x00,0x00,0x00,0x00,0x00,0x00,
 0x00,0x00,0x00,0x00,0x00,0x00,0x00,0x00,0x00,0x00,0x00,0x00,0x00,0x00,0x00,
 0x00,0x00,0x00,0x00,0x00,0x00,0x00,0x00,0x00,0x00,0x00,0x00,0x00,0x00,0x00,
 0x00,0x00,0x00,0x00,0x00,0x00,0x00,0x00,0x00,0x00,0x00,0x00,0x00,0x00,0x00,
 0x00,0x00,0x00,0x00,0x00,0x00,0x00,0x00,0x00,0x00,0x00,0x00,0x00,0x00,0x00,
 0x00,0x00,0x00,0x00,0x00,0x00,0x00,0x00,0x00,0x00,0x00,0x00,0x00,0x00,0x00,
 0x00,0x00,0x00,0x00,0x00,0x00,0x00,0x00,0x00,0x00,0x00,0x00,0x00,0x00,0x00,
 0x00,0x00,0x00,0x00,0x00,0x00,0x00,0x00,0x00,0x00,0x00,0x00,0x00,0x00,0x00,
 0x00,0x00,0x00,0x00,0x00,0x00,0x00,0x00,0x00,0x00,0x00,0x00,0x00,0x00,0x00,
 0x00,0x00,0x00,0x00,0x00,0x00,0x00,0x00,0x00,0x00,0x00,0x00,0x00,0x00,0x00,
 0x00,0x00,0x00,0x00,0x00,0x00,0x00,0x00,0x00,0x00,0x00,0x00,0x00,0x00,0x00,
 0x00,0x00,0x00,0x00,0x00,0x00,0x00,0x00,0x00,0x00,0x00,0x00,0x00,0x00,0x00,
 0x00,0x00,0x00,0x00,0x00,0x00,0x00,0x00,0x00,0x00,0x00,0x00,0x00,0x00,0x00,
 0x00,0x00,0x00,0x00,0x00,0x00,0x00,0x00,0x00,0x00,0x00,0x00,0x00,0x00,0x00,
 0x00,0x00,0x00,0x00,0x00,0x00,0x00,0x00,0x00,0x00,0x00,0x00,0x00,0x00,0x00,
 0x00,0x00,0x00,0x00,0x00,0x00,0x00,0x00,0x00,0x00,0x00,0x00,0x00,0x00,0x00,
 0x00,0x00,0x00,0x00,0x00,0x00,0x00,0x00,0x00,0x00,0x00,0x00,0x00,0x00,0x00,
 0x00,0x00,0x00,0x00,0x00,0x00,0x00,0x00,0x00,0x00,0x00,0x00,0x00,0x00,0x00,
 0x00,0x00,0x00,0x00,0x00,0x00,0x00,0x00,0x00,0x00,0x00,0x00,0x00,0x00,0x00,
 0x00,0x00,0x00,0x00,0x00,0x00,0x00,0x00,0x00,0x00,0x00,0x00,0x00,0x00,0x00,
 0x00,0x00,0x00,0x00,0x00,0x00,0x00,0x00,0x00,0x00,0x00,0x00,0x00,0x00,0x00,
 0x00,0x00,0x00,0x00,0x00,0x00,0x00,0x00,0x00,0x00,0x00,0x00,0x00,0x00,0x00,
 0x00,0x00,0x00,0x00,0x00,0x00,0x00,0x00,0x00,0x00,0x00,0x00,0x00,0x00,0x00,
 0x00,0x00,0x00,0x00,0x00,0x00,0x00,0x00,0x00,0x00,0x00,0x00,0x00,0x00,0x00,
 0x00,0x00,0x00,0x00,0x00,0x00,0x00,0x00,0x00,0x00,0x00,0x00,0x00,0x00,0x00,
 0x00,0x00,0x00,0x00,0x00,0x00,0x00,0x00,0x00,0x00,0x00,0x00,0x00,0x00,0x00,
 0x00,0xa0,0xaa,0x00,0x00,0x00,0x00,0xf8,0x7f,0x00,0x00,0x00,0xa0,0xaa,0x00,
 0x00,0x00,0x00,0xa8,0x2a,0x00,0x00,0x00,0x00,0x00,0x00,0x00,0x00,0x00,0x54,
 0x15,0x00,0x00,0x00,0xe0,0xee,0x01,0x00,0x00,0x00,0xf8,0x7f,0x00,0x00,0x00,
 0xe0,0xdd,0x01,0x00,0x00,0x00,0xfc,0x7f,0x00,0x00,0x00,0x00,0x04,0x00,0x00,
 0x00,0x00,0xfe,0x3f,0x00,0x00,0x00,0x20,0x00,0x03,0x00,0x00,0x00,0xf8,0x7f,
 0x00,0x00,0x00,0x10,0x00,0x07,0x00,0x00,0x00,0xfe,0x7f,0x00,0x00,0x00,0x00,
 0x0c,0x00,0x00,0x00,0x00,0x0e,0x10,0x00,0x00,0x00,0x20,0x00,0x07,0x00,0x00,
 0x00,0x5f,0x75,0x00,0x00,0x00,0x20,0x00,0x07,0x00,0x00,0x00,0x92,0x74,0x00,
 0x00,0x00,0x00,0x0e,0x00,0x00,0x00,0x00,0x0c,0x10,0x00,0x00,0x00,0x20,0x00,
 0x07,0x00,0x00,0x00,0x02,0x70,0x00,0x00,0x00,0x20,0x00,0x07,0x00,0x00,0x00,
 0x02,0x70,0x00,0x00,0x00,0x00,0x1e,0x00,0x00,0x00,0x00,0x1c,0x18,0x00,0x00,
 0x00,0x20,0x00,0x07,0x00,0x00,0x00,0x01,0x70,0x00,0x00,0x00,0x20,0x00,0x07,
 0x00,0x00,0x00,0x03,0x70,0x00,0x00,0x00,0x00,0x1f,0x00,0x00,0x00,0x00,0x18,
 0x08,0x00,0x00,0x00,0x20,0x00,0x07,0x00,0x00,0x00,0x02,0x70,0x00,0x00,0x00,
 0x20,0x00,0x07,0x00,0x00,0x00,0x02,0x70,0x00,0x00,0x00,0x00,0x19,0x00,0x00,
 0x00,0x00,0x38,0x04,0x00,0x00,0x00,0x20,0x00,0x07,0x00,0x00,0x00,0x02,0x70,
 0x00,0x00,0x00,0x20,0x00,0x07,0x00,0x00,0x00,0x02,0x70,0x00,0x00,0x00,0x00,
 0x39,0x00,0x00,0x00,0x00,0x30,0x06,0x00,0x00,0x00,0x20,0x00,0x07,0x00,0x00,
 0x00,0x02,0x70,0x00,0x00,0x00,0x20,0x00,0x07,0x00,0x00,0x00,0x02,0x70,0x00,
 0x00,0x00,0x80,0x30,0x00,0x00,0x00,0x00,0x70,0x02,0x00,0x00,0x00,0x20,0x00,
 0x07,0x00,0x00,0x00,0x02,0x70,0x00,0x00,0x00,0x30,0x00,0x07,0x00,0x00,0x00,
 0x02,0x70,0x00,0x00,0x00,0xc0,0x70,0x00,0x00,0x00,0x00,0x70,0x02,0x00,0x00,
 0x00,0x20,0x00,0x07,0x00,0x00,0x00,0x02,0x70,0x00,0x00,0x00,0x20,0x00,0x07,
 0x00,0x00,0x00,0x02,0x70,0x00,0x00,0x00,0x40,0x70,0x00,0x00,0x00,0x00,0xe0,
 0x03,0x00,0x00,0x00,0x30,0x00,0x07,0x00,0x00,0x00,0x03,0x70,0x00,0x00,0x00,
 0x20,0x00,0x07,0x00,0x00,0x00,0x02,0x70,0x00,0x00,0x00,0x40,0x60,0x00,0x00,
 0x00,0x00,0xe0,0x01,0x00,0x00,0x00,0xe0,0xff,0x07,0x00,0x00,0x00,0x02,0x70,
 0x00,0x00,0x00,0xa0,0xff,0x07,0x00,0x00,0x00,0x03,0x70,0x00,0x00,0x00,0x60,
 0xe0,0x00,0x00,0x00,0x00,0xc0,0x00,0x00,0x00,0x00,0x80,0xff,0x07,0x00,0x00,
 0x00,0x02,0x10,0x00,0x00,0x00,0xe0,0xff,0x07,0x00,0x00,0x00,0x02,0x30,0x00,
 0x00,0x00,0x20,0xc0,0x00,0x00,0x00,0x00,0xc0,0x00,0x00,0x00,0x00,0x80,0xff,
 0x07,0x00,0x00,0x00,0xfe,0x1f,0x00,0x00,0x00,0x80,0xff,0x07,0x00,0x00,0x00,
 0xfe,0x1f,0x00,0x00,0x00,0xf0,0xff,0x01,0x00,0x00,0x00,0x00,0x00,0x00,0x00,
 0x00,0x00,0x00,0x00,0x00,0x00,0x00,0x00,0x00,0x00,0x00,0x00,0x00,0x00,0x00,
 0x00,0x00,0x00,0x00,0x00,0x00,0x00,0x00,0x00,0x00,0x00,0x00,0x00,0x00,0x00,
 0x00,0x00,0x00,0x00,0x00,0x00,0x00,0x00,0x00,0x00,0x00,0x00,0x00,0x00,0x00,
 0x00,0x00,0x00,0x00,0x00,0x00,0x00,0x00,0x00,0x00,0x00,0x00,0x00,0x00,0x00,
 0x00,0x00,0x00,0x00,0x00,0x00,0x00,0x00,0x00,0x00,0x00,0x00,0x00,0x00,0x00,
 0x00,0x00,0x00,0x00,0x00,0x00,0x00,0x00,0x00,0x00,0x00,0x00,0x00,0x00,0x00,
 0x00,0x00,0x00,0x00,0x00,0x00,0x00,0x00,0x00,0x00,0x00,0x00,0x00,0x00,0x00,
 0x00,0x00,0x00,0x00,0x00,0x00,0x00,0x00,0x00,0x00,0x00,0x00,0x00,0x00,0x00,
 0x00,0x00,0x00,0x00,0x00,0x00,0x00,0x00,0x00,0x00,0x00,0x00,0x00,0x00,0x00,
 0x00,0x00,0x00,0x00,0x00,0x00,0x00,0x00,0x00,0x00,0x00,0x00,0x00,0x00,0x00,
 0x00,0x00,0x00,0x00,0x00,0x00,0x00,0x00,0x00,0x00,0x00,0x00,0x00,0x00,0x00,
 0x00,0x00,0x00,0x00,0x00,0x00,0x00,0x00,0x00,0x00,0x00,0x00,0x00,0x00,0x00,
 0x00,0x00,0x00,0x00,0x00,0x00,0x00,0x00,0x00,0x00,0x00,0x00,0x00,0x00,0x00,
 0x00,0x00,0x00,0x00,0x00,0x00,0x00,0x00,0x00,0x00,0x00,0x00,0x00,0x00,0x00,
 0x00,0x00,0x00,0x00,0x00,0x00,0x00,0x00,0x00,0x00,0x00,0x00,0x00,0x00,0x00,
 0x00,0x00,0x00,0x00,0x00,0x00,0x00,0x00,0x00,0x00,0x00,0x00,0x00,0x00,0x00,
 0x00,0x00,0x00,0x00,0x00,0x00,0x00,0x00,0x00,0x00,0x00,0x00,0x00,0x00,0x00,
 0x00,0x00,0x00,0x00,0x00,0x00,0x00,0x00,0x00,0x00,0x00,0x00,0x00,0x00,0x00,
 0x00,0x00,0x00,0x00,0x00,0x00,0x00,0x00,0x00,0x00,0x00,0x00,0x00,0x00,0x00,
 0x00,0x00,0x00,0x00,0x00,0x00,0x00,0x00,0x00,0x00,0x00,0x00,0x00,0x00,0x00,
 0x00,0x00,0x00,0x00,0x00,0x00,0x00,0x00,0x00,0x00,0x00,0x00,0x00,0x00,0x00,
 0x00,0x00,0x00,0x00,0x00,0x00,0x00,0x00,0x00,0x00,0x00,0x00,0x00,0x00,0x00,
 0x00,0x00,0x00,0x00,0x00,0x00,0x00,0x00,0x00,0x00,0x00,0x00,0x00,0x00,0x00,
 0x00,0x00,0x00,0x00,0x00,0x00,0x00,0x00,0x00,0x00,0x00,0x00,0x00,0x00,0x00,
 0x00,0x00,0x00,0x00,0x00,0x00,0x00,0x00,0x00,0x00,0x00,0x00,0x00,0x00,0x00,
 0x00,0x00,0x00,0x00,0x00,0x00,0x00,0x00,0x00,0x00,0x00,0x00,0x00,0x00,0x00,
 0x00,0x00,0x00,0x00,0x00,0x00,0x00,0x00,0x00,0x00,0x00,0x00,0x00,0x00,0x00,
 0x00,0x00,0x00,0x00,0x00,0x00,0x00,0x00,0x00,0x00,0x00,0x00,0x00,0x00,0x00,
 0x00,0x00,0x00,0x00,0x00,0x00,0x00,0x00,0x00,0x00,0x00,0x00,0x00,0x00,0x00,
 0x00,0x00,0x00,0x00,0x00,0x00,0x00,0x00,0x00,0x00,0x00,0x00,0x00,0x00,0x00,
 0x00,0x00,0x00,0x00,0x00,0x00,0x00,0x00,0x00,0x00,0x00,0x00,0x00,0x20,0x00,
 0x00,0x00,0x00,0x00,0x1e,0x00,0x00,0x00,0x00,0xe0,0x0f,0x00,0x00,0x00,0x00,
 0xfe,0x7f,0x00,0x00,0x00,0x00,0x00,0x00,0x00,0x00,0x00,0xfe,0xff,0x03,0x00,
 0x00,0x60,0x00,0x00,0x00,0x00,0x00,0x1e,0x00,0x00,0x00,0x00,0xe0,0x0f,0x00,
 0x00,0x00,0x00,0xfe,0x7f,0x00,0x00,0x00,0x00,0x30,0x00,0x00,0x00,0x00,0xfe,
 0xff,0x01,0x00,0x00,0x30,0x00,0x00,0x00,0x00,0x00,0x1e,0x00,0x00,0x00,0x00,
 0xe0,0x0f,0x00,0x00,0x00,0x00,0xfe,0x7f,0x00,0x00,0x00,0x00,0x70,0x00,0x00,
 0x00,0x00,0xfc,0xff,0x01,0x00,0x00,0x60,0x00,0x00,0x00,0x00,0x00,0x1f,0x00,
 0x00,0x00,0x00,0xf0,0x0f,0x00,0x00,0x00,0x00,0xff,0x7f,0x00,0x00,0x00,0x00,
 0x78,0x00,0x00,0x00,0x00,0xf8,0xff,0x00,0x00,0x00,0x30,0x00,0x00,0x00,0x00,
 0x00,0x1e,0x00,0x00,0x00,0x00,0xe0,0x0f,0x00,0x00,0x00,0x00,0xfe,0x7f,0x00,
 0x00,0x00,0x00,0xf8,0x00,0x00,0x00,0x00,0xf8,0xff,0x00,0x00,0x00,0x20,0x00,
 0x00,0x00,0x00,0x00,0x1f,0x00,0x00,0x00,0x00,0xe0,0x0f,0x00,0x00,0x00,0x00,
 0xfe,0x7f,0x00,0x00,0x00,0x00,0xfc,0x00,0x00,0x00,0x00,0xf0,0x7f,0x00,0x00,
 0x00,0x70,0x00,0x00,0x00,0x00,0x00,0x1e,0x00,0x00,0x00,0x00,0xf0,0x0f,0x00,
 0x00,0x00,0x00,0xfe,0x7f,0x00,0x00,0x00,0x00,0xfe,0x01,0x00,0x00,0x00,0xf0,
 0x7f,0x00,0x00,0x00,0x20,0x00,0x00,0x00,0x00,0x00,0x1e,0x00,0x00,0x00,0x00,
 0xe0,0x0f,0x00,0x00,0x00,0x00,0xff,0x7f,0x00,0x00,0x00,0x00,0xfe,0x03,0x00,
 0x00,0x00,0xe0,0x3f,0x00,0x00,0x00,0x60,0x00,0x00,0x00,0x00,0x00,0x1f,0x00,
 0x00,0x00,0x00,0xe0,0x0f,0x00,0x00,0x00,0x00,0xfe,0x7f,0x00,0x00,0x00,0x00,
 0xff,0x03,0x00,0x00,0x00,0xe0,0x1f,0x00,0x00,0x00,0x30,0x00,0x00,0x00,0x00,
 0x00,0x1e,0x00,0x00,0x00,0x00,0xf0,0x0f,0x00,0x00,0x00,0x00,0xfe,0x7f,0x00,
 0x00,0x00,0x00,0xff,0x07,0x00,0x00,0x00,0xc0,0x1f,0x00,0x00,0x00,0x60,0x00,
 0x00,0x00,0x00,0x00,0x1f,0x00,0x00,0x00,0x00,0xe0,0x0f,0x00,0x00,0x00,0x00,
 0xff,0x7f,0x00,0x00,0x00,0x80,0xff,0x07,0x00,0x00,0x00,0xc0,0x0f,0x00,0x00,
 0x00,0x30,0x00,0x00,0x00,0x00,0x00,0x1e,0x00,0x00,0x00,0x00,0xf0,0x0f,0x00,
 0x00,0x00,0x00,0xfe,0x7f,0x00,0x00,0x00,0x80,0xff,0x0f,0x00,0x00,0x00,0x80,
 0x0f,0x00,0x00,0x00,0x60,0x00,0x00,0x00,0x00,0x00,0x1f,0x00,0x00,0x00,0x00,
 0xe0,0x0f,0x00,0x00,0x00,0x00,0xfe,0x7f,0x00,0x00,0x00,0xc0,0xff,0x1f,0x00,
 0x00,0x00,0x00,0x07,0x00,0x00,0x00,0x20,0x00,0x00,0x00,0x00,0x00,0x1e,0x00,
 0x00,0x00,0x00,0xf0,0x0f,0x00,0x00,0x00,0x00,0xff,0x7f,0x00,0x00,0x00,0xe0,
 0xff,0x1f,0x00,0x00,0x00,0x00,0x03,0x00,0x00,0x00,0x30,0x00,0x00,0x00,0x00,
 0x00,0x1f,0x00,0x00,0x00,0x00,0xe0,0x0f,0x00,0x00,0x00,0x00,0xfe,0x7f,0x00,
 0x00,0x00,0xe0,0xff,0x3f,0x00,0x00,0x00,0x00,0x02,0x00,0x00,0x00,0x00,0x00,
 0x00,0x00,0x00,0x00,0x00,0x00,0x00,0x00,0x00,0x00,0x00,0x00,0x00,0x00,0x00,
 0x00,0x00,0x00,0x00,0x00,0x00,0x00,0x00,0x00,0x00,0x00,0x00,0x00,0x00,0x00,
 0x00,0x00,0x00,0x00,0x00,0x00,0x00,0x00,0x00,0x00,0x00,0x00,0x00,0x00,0x00,
 0x00,0x00,0x00,0x00,0x00,0x00,0x00,0x00,0x00,0x00,0x00,0x00,0x00,0x00,0x00,
 0x00,0x00,0x00,0x00,0x00,0x00,0x00,0x00,0x00,0x00,0x00,0x00,0x00,0x00,0x00,
 0x00,0x00,0x00,0x00,0x00,0x00,0x00,0x00,0x00,0x00,0x00,0x00,0x00,0x00,0x00,
 0x00,0x00,0x00,0x00,0x00,0x00,0x00,0x00,0x00,0x00,0x00,0x00,0x00,0x00,0x00,
 0x00,0x00,0x00,0x00,0x00,0x00,0x00,0x00,0x00,0x00,0x00,0x00,0x00,0x00,0x00,
 0x00,0x00,0x00,0x00,0x00,0x00,0x00,0x00,0x00,0x00,0x00,0x00,0x00,0x00,0x00,
 0x00,0x00,0x00,0x00,0x00,0x00,0x00,0x00,0x00,0x00,0x00,0x00,0x00,0x00,0x00,
 0x00,0x00,0x00,0x00,0x00,0x00,0x00,0x00,0x00,0x00,0x00,0x00,0x00,0x00,0x00,
 0x00,0x00,0x00,0x00,0x00,0x00,0x00,0x00,0x00,0x00,0x00,0x00,0x00,0x00,0x00,
 0x00,0x00,0x00,0x00,0x00,0x00,0x00,0x00,0x00,0x00,0x00,0x00,0x00,0x00,0x00,
 0x00,0x00,0x00,0x00,0x00,0x00,0x00,0x00,0x00,0x00,0x00,0x00,0x00,0x00,0x00,
 0x00,0x00,0x00,0x00,0x00,0x00,0x00,0x00,0x00,0x00,0x00,0x00,0x00,0x00,0x00,
 0x00,0x00,0x00,0x00,0x00,0x00,0x00,0x00,0x00,0x00,0x00,0x00,0x00,0x00,0x00,
 0x00,0x00,0x00,0x00,0x00,0x00,0x00,0x00,0x00,0x00,0x00,0x00,0x00,0x00,0x00,
 0x00,0x00,0x00,0x00,0x00,0x00,0x00,0x00,0x00,0x00,0x00,0x00,0x00,0x00,0x00,
 0x00,0x00,0x00,0x00,0x00,0x00,0x00,0x00,0x00,0x00,0x00,0x00,0x00,0x00,0x00,
 0x00,0x00,0x00,0x00,0x00,0x00,0x00,0x00,0x00,0x00,0x00,0x00,0x00,0x00,0x00,
 0x00,0x00,0x00,0x00,0x00,0x00,0x00,0x00,0x00,0x00,0x00,0x00,0x00,0x00,0x00,
 0x00,0x00,0x00,0x00,0x00,0x00,0x00,0x00,0x00,0x00,0x00,0x00,0x00,0x00,0x00,
 0x00,0x00,0x00,0x00,0x00,0x00,0x00,0x00,0x00,0x00,0x00,0x00,0x00,0x00,0x00,
 0x00,0x00,0x00,0x00,0x00,0x00,0x00,0x00,0x00,0x00,0x00,0x00,0x00,0x00,0x00,
 0x00,0x00,0x00,0x00,0x00,0x00,0x00,0x00,0x00,0x00,0x00,0x00,0x00,0x00,0x00,
 0x00,0x00,0x00,0x00,0x00,0x00,0x00,0x00,0x00,0x00,0x00,0x00,0x00,0x00,0x00,
 0x00,0x00,0x00,0x00,0x00,0x00,0x00,0x00,0x00,0x00,0x00,0x00,0x00,0x00,0x00,
 0x00,0x00,0x00,0x00,0x00,0x00,0x00,0x00,0x00,0x00,0x00,0x00,0x00,0x00,0x00,
 0x00,0x00,0x00,0x00,0x00,0x00,0x00,0x00,0x00,0x00,0x00,0x00,0x00,0x00,0x00,
 0x00,0x00,0x00,0x00,0x00,0x00,0x00,0x00,0x00,0x00,0x00,0x00,0x00,0x00,0x00,
 0x00,0x00,0x00,0x00,0x00,0x00,0x00,0x00,0x00,0x00,0x00,0x00,0x00,0x00,0x00,
 0x00,0x80,0x01,0x00,0x00,0x00,0x00,0x18,0x00,0x00,0x00,0x00,0x80,0x00,0x00,
 0x00,0x00,0x00,0x18,0x00,0x00,0x00,0x00,0x00,0x00,0x00,0x00,0x00,0x00,0x00,
 0x00,0x00,0x00,0x00,0xc0,0x03,0x00,0x00,0x00,0x00,0x38,0x00,0x00,0x00,0x00,
 0xc0,0x01,0x00,0x00,0x00,0x00,0x3c,0x00,0x00,0x00,0x00,0x06,0x00,0x00,0x00,
 0x00,0x00,0x00,0x00,0x00,0x00,0x00,0xc0,0x03,0x00,0x00,0x00,0x00,0x3c,0x00,
 0x00,0x00,0x00,0xc0,0x01,0x00,0x00,0x00,0x00,0x1c,0x00,0x00,0x00,0x00,0x3c,
 0x00,0x00,0x00,0x00,0x00,0x00,0x00,0x00,0x00,0x00,0xc0,0x03,0x00,0x00,0x00,
 0x00,0x38,0x00,0x00,0x00,0x00,0xc4,0x11,0x00,0x00,0x00,0xc0,0x3c,0x03,0x00,
 0x00,0x00,0xfc,0x00,0x00,0x00,0x00,0x00,0x03,0x00,0x00,0x00,0x00,0x80,0x01,
 0x00,0x00,0x00,0x00,0x18,0x00,0x00,0x00,0x00,0x8e,0x39,0x00,0x00,0x00,0xe0,
 0xdd,0x03,0x00,0x00,0x00,0xf8,0x07,0x00,0x00,0x00,0x40,0x13,0x00,0x00,0x00,
 0x00,0x00,0x01,0x00,0x00,0x00,0x00,0x18,0x00,0x00,0x00,0x00,0xfe,0x3f,0x00,
 0x00,0x00,0xe0,0xff,0x07,0x00,0x00,0x00,0xf8,0x1f,0x00,0x00,0x00,0xe0,0x1a,
 0x00,0x00,0x00,0x00,0x0e,0x71,0x00,0x00,0x00,0xe0,0x11,0x07,0x00,0x00,0x00,
 0x38,0x0e,0x00,0x00,0x00,0xc0,0xff,0x01,0x00,0x00,0x00,0xf0,0xff,0x00,0x00,
 0x00,0x00,0x07,0x00,0x00,0x00,0x00,0xff,0xff,0x00,0x00,0x00,0xe0,0xff,0x0f,
 0x00,0x00,0x00,0x10,0x04,0x00,0x00,0x00,0x00,0xff,0x00,0x00,0x00,0x00,0xe0,
 0xff,0x03,0x00,0x00,0x80,0x05,0x00,0x00,0x00,0x00,0x9e,0xf9,0x00,0x00,0x00,
 0xe0,0xdb,0x0f,0x00,0x00,0x00,0x30,0x06,0x00,0x00,0x00,0x80,0xff,0x00,0x00,
 0x00,0x00,0xf0,0xff,0x01,0x00,0x00,0xe0,0x1a,0x00,0x00,0x00,0x00,0x0e,0x71,
 0x00,0x00,0x00,0x00,0x18,0x02,0x00,0x00,0x00,0x3c,0x1e,0x00,0x00,0x00,0xc0,
 0xff,0x03,0x00,0x00,0x00,0xf0,0x3f,0x00,0x00,0x00,0x00,0x13,0x00,0x00,0x00,
 0x00,0x00,0x01,0x00,0x00,0x00,0x00,0x18,0x00,0x00,0x00,0x00,0xde,0x3f,0x00,
 0x00,0x00,0xe0,0xff,0x07,0x00,0x00,0x00,0xf8,0x0f,0x00,0x00,0x00,0x00,0x03,
 0x00,0x00,0x00,0x00,0x80,0x01,0x00,0x00,0x00,0x00,0x38,0x00,0x00,0x00,0x00,
 0xce,0x39,0x00,0x00,0x00,0xe0,0xbd,0x03,0x00,0x00,0x00,0xf8,0x03,0x00,0x00,
 0x00,0x00,0x00,0x00,0x00,0x00,0x00,0xc0,0x03,0x00,0x00,0x00,0x00,0x38,0x00,
 0x00,0x00,0x00,0xc0,0x01,0x00,0x00,0x00,0x40,0x1c,0x03,0x00,0x00,0x00,0x7c,
 0x00,0x00,0x00,0x00,0x00,0x00,0x00,0x00,0x00,0x00,0xc0,0x03,0x00,0x00,0x00,
 0x00,0x3c,0x00,0x00,0x00,0x00,0x80,0x01,0x00,0x00,0x00,0x00,0x3c,0x00,0x00,
 0x00,0x00,0x1e,0x00,0x00,0x00,0x00,0x00,0x00,0x00,0x00,0x00,0x00,0xc0,0x03,
 0x00,0x00,0x00,0x00,0x18,0x00,0x00,0x00,0x00,0xc0,0x01,0x00,0x00,0x00,0x00,
 0x1c,0x00,0x00,0x00,0x00,0x02,0x00,0x00,0x00,0x00,0x00,0x00,0x00,0x00,0x00,
 0x00,0x00,0x01,0x00,0x00,0x00,0x00,0x00,0x00,0x00,0x00,0x00,0x00,0x00,0x00,
 0x00,0x00,0x00,0x00,0x00,0x00,0x00,0x00,0x00,0x00,0x00,0x00,0x00,0x00,0x00,
 0x00,0x00,0x00,0x00,0x00,0x00,0x00,0x00,0x00,0x00,0x00,0x00,0x00,0x00,0x00,
 0x00,0x00,0x00,0x00,0x00,0x00,0x00,0x00,0x00,0x00,0x00,0x00,0x00,0x00,0x00,
 0x00,0x00,0x00,0x00,0x00,0x00,0x00,0x00,0x00,0x00,0x00,0x00,0x00,0x00,0x00,
 0x00,0x00,0x00,0x00,0x00,0x00,0x00,0x00,0x00,0x00,0x00,0x00,0x00,0x00,0x00,
 0x00,0x00,0x00,0x00,0x00,0x00,0x00,0x00,0x00,0x00,0x00,0x00,0x00,0x00,0x00,
 0x00,0x00,0x00,0x00,0x00,0x00,0x00,0x00,0x00,0x00,0x00,0x00,0x00,0x00,0x00,
 0x00,0x00,0x00,0x00,0x00,0x00,0x00,0x00,0x00,0x00,0x00,0x00,0x00,0x00,0x00,
 0x00,0x00,0x00,0x00,0x00,0x00,0x00,0x00,0x00,0x00,0x00,0x00,0x00,0x00,0x00,
 0x00,0x00,0x00,0x00,0x00,0x00,0x00,0x00,0x00,0x00,0x00,0x00,0x00,0x00,0x00,
 0x00,0x00,0x00,0x00,0x00,0x00,0x00,0x00,0x00,0x00,0x00,0x00,0x00,0x00,0x00,
 0x00,0x00,0x00,0x00,0x00,0x00,0x00,0x00,0x00,0x00,0x00,0x00,0x00,0x00,0x00,
 0x00,0x00,0x00,0x00,0x00,0x00,0x00,0x00,0x00,0x00,0x00,0x00,0x00,0x00,0x00,
 0x00,0x00,0x00,0x00,0x00,0x00,0x00,0x00,0x00,0x00,0x00,0x00,0x00,0x00,0x00,
 0x00,0x00,0x00,0x00,0x00,0x00,0x00,0x00,0x00,0x00,0x00,0x00,0x00,0x00,0x00,
 0x00,0x00,0x00,0x00,0x00,0x00,0x00,0x00,0x00,0x00,0x00,0x00,0x00,0x00,0x00,
 0x00,0x00,0x00,0x00,0x00,0x00,0x00,0x00,0x00,0x00,0x00,0x00,0x00,0x00,0x00,
 0x00,0x00,0x00,0x00,0x00,0x00,0x00,0x00,0x00,0x00,0x00,0x00,0x00,0x00,0x00,
 0x00,0x00,0x00,0x00,0x00,0x00,0x00,0x00,0x00,0x00,0x00,0x00,0x00,0x00,0x00,
 0x00,0x00,0x00,0x00,0x00,0x00,0x00,0x00,0x00,0x00,0x00,0x00,0x00,0x00,0x00,
 0x00,0x00,0x00,0x00,0x00,0x00,0x00,0x00,0x00,0x00,0x00,0x00,0x00,0x00,0x00,
 0x00,0x00,0x00,0x00,0x00,0x00,0x00,0x00,0x00,0x00,0x00,0x00,0x00,0x00,0x00,
 0x00,0x00,0x00,0x00,0x00,0x00,0x00,0x00,0x00,0x00,0x00,0x00,0x00,0x00,0x00,
 0x00,0x00,0x00,0x00,0x00,0x00,0x00,0x00,0x00,0x00,0x00,0x00,0x00,0x00,0x00,
 0x00,0x00,0x00,0x00,0x00,0x00,0x00,0x00,0x00,0x00,0x00,0x00,0x00,0x00,0x00,
 0x00,0x00,0x00,0x00,0x00,0x00,0x00,0x00,0x00,0x00,0x00,0x00,0x00,0x00,0x00,
 0x00,0x00,0x00,0x00,0x00,0x00,0x00,0x00,0x00,0x00,0x00,0x00,0x00,0x00,0x00,
 0x00,0x00,0x00,0x00,0x00,0x00,0x00,0x00,0x00,0x00,0x00,0x00,0x00,0x00,0x00,
 0x00,0x00,0x00,0x00,0x00,0x00,0x00,0x00,0x00,0x00,0x00,0x00,0x00,0x00,0x00,
 0x00,0x00,0x00,0x00,0x00,0x00,0x00,0x80,0x0f,0x00,0x00,0x00,0x00,0x9c,0x01,
 0x00,0x00,0x00,0x00,0x18,0x06,0x00,0x00,0x00,0x00,0x00,0x00,0x00,0x00,0x00,
 0x00,0x00,0x00,0x00,0x00,0x00,0x00,0x00,0x00,0x00,0xc0,0x3f,0x00,0x00,0x00,
 0x00,0xfe,0x03,0x00,0x00,0x00,0xc0,0x2f,0x06,0x00,0x00,0x00,0x00,0x00,0x00,
 0x00,0x00,0x00,0x00,0x00,0x00,0x00,0x00,0x00,0x00,0x00,0x00,0x00,0xe0,0x3f,
 0x00,0x00,0x00,0x00,0xfe,0x07,0x00,0x00,0x00,0x20,0x2c,0x06,0x00,0x00,0x00,
 0x00,0x00,0x00,0x00,0x00,0x20,0x00,0x00,0x00,0x00,0x00,0x02,0x00,0x00,0x00,
 0x00,0xe0,0x3f,0x00,0x00,0x00,0x00,0xff,0x07,0x00,0x00,0x00,0x20,0x30,0x02,
 0x00,0x00,0x00,0x02,0x00,0x00,0x00,0x00,0xc0,0x01,0x00,0x00,0x00,0x00,0x3c,
 0x00,0x00,0x00,0x00,0xe0,0x3f,0x00,0x00,0x00,0x00,0xfe,0x07,0x00,0x00,0x00,
 0x20,0xe0,0x01,0x00,0x00,0x00,0x86,0x03,0x00,0x00,0x00,0x80,0x0f,0x00,0x00,
 0x00,0x00,0xf8,0x01,0x00,0x00,0x00,0xc0,0x1f,0x00,0x00,0x00,0x00,0xfe,0x03,
 0x00,0x00,0x00,0x00,0x17,0x00,0x00,0x00,0x00,0xce,0x07,0x00,0x00,0x00,0x00,
 0x71,0x00,0x00,0x00,0x00,0xf0,0x0f,0x00,0x00,0x00,0x80,0x0f,0x00,0x00,0x00,
 0x00,0xf8,0x00,0x00,0x00,0x00,0x00,0xef,0x01,0x00,0x00,0x00,0xd8,0x0f,0x00,
 0x00,0x00,0x00,0x82,0x03,0x00,0x00,0x00,0xe0,0xff,0x00,0x00,0x00,0x00,0x06,
 0x00,0x00,0x00,0x00,0x70,0x00,0x00,0x00,0x00,0x80,0xff,0x01,0x00,0x00,0x00,
 0xd4,0x0f,0x00,0x00,0x00,0x00,0x0c,0x1c,0x00,0x00,0x00,0xc0,0xff,0x03,0x00,
 0x00,0x00,0x00,0x00,0x00,0x00,0x00,0x00,0x00,0x00,0x00,0x00,0x80,0xff,0x03,
 0x00,0x00,0x00,0xea,0xcf,0x00,0x00,0x00,0x00,0xfc,0x3f,0x00,0x00,0x00,0x40,
 0xa0,0x00,0x00,0x00,0x00,0x07,0x00,0x00,0x00,0x00,0x70,0x00,0x00,0x00,0x00,
 0x80,0xff,0x01,0x00,0x00,0x00,0xe7,0x8f,0x00,0x00,0x00,0x00,0xfe,0x03,0x00,
 0x00,0x00,0x20,0x1c,0x00,0x00,0x00,0x80,0x0f,0x00,0x00,0x00,0x00,0xf8,0x00,
 0x00,0x00,0x00,0x80,0xff,0x01,0x00,0x00,0x00,0xe3,0x3f,0x00,0x00,0x00,0x00,
 0x7f,0x00,0x00,0x00,0x00,0x90,0x03,0x00,0x00,0x00,0x80,0x1f,0x00,0x00,0x00,
 0x00,0xfc,0x01,0x00,0x00,0x00,0x80,0x7f,0x00,0x00,0x00,0x00,0xce,0x1f,0x00,
 0x00,0x00,0xc0,0x0f,0x00,0x00,0x00,0x00,0x7c,0x00,0x00,0x00,0x00,0x80,0x1f,
 0x00,0x00,0x00,0x00,0xfc,0x01,0x00,0x00,0x00,0x00,0x9f,0x00,0x00,0x00,0x00,
 0x04,0x07,0x00,0x00,0x00,0xc0,0x00,0x00,0x00,0x00,0x00,0x0c,0x00,0x00,0x00,
 0x00,0x80,0x1f,0x00,0x00,0x00,0x00,0xf8,0x00,0x00,0x00,0x00,0x00,0x9e,0x01,
 0x00,0x00,0x00,0x00,0x00,0x00,0x00,0x00,0x00,0x00,0x00,0x00,0x00,0x00,0x00,
 0x00,0x00,0x00,0x00,0x80,0x0f,0x00,0x00,0x00,0x00,0xf8,0x00,0x00,0x00,0x00,
 0x00,0xdc,0x00,0x00,0x00,0x00,0x00,0x00,0x00,0x00,0x00,0x00,0x00,0x00,0x00,
 0x00,0x00,0x00,0x00,0x00,0x00,0x00,0x00,0x00,0x00,0x00,0x00,0x00,0x20,0x00,
 0x00,0x00,0x00,0x00,0x20,0x00,0x00,0x00,0x00,0x00,0x00,0x00,0x00,0x00,0x00,
 0x00,0x00,0x00,0x00,0x00,0x00,0x00,0x00,0x00,0x00,0x00,0x00,0x00,0x00,0x00,
 0x00,0x00,0x00,0x00,0x00,0x00,0x00,0x00,0x00,0x00,0x00,0x00,0x00,0x00,0x00,
 0x00,0x00,0x00,0x00,0x00,0x00,0x00,0x00,0x00,0x00,0x00,0x00,0x00,0x00,0x00,
 0x00,0x00,0x00,0x00,0x00,0x00,0x00,0x00,0x00,0x00,0x00,0x00,0x00,0x00,0x00,
 0x00,0x00,0x00,0x00,0x00,0x00,0x00,0x00,0x00,0x00,0x00,0x00,0x00,0x00,0x00,
 0x00,0x00,0x00,0x00,0x00,0x00,0x00,0x00,0x00,0x00,0x00,0x00,0x00,0x00,0x00,
 0x00,0x00,0x00,0x00,0x00,0x00,0x00,0x00,0x00,0x00,0x00,0x00,0x00,0x00,0x00,
 0x00,0x00,0x00,0x00,0x00,0x00,0x00,0x00,0x00,0x00,0x00,0x00,0x00,0x00,0x00,
 0x00,0x00,0x00,0x00,0x00,0x00,0x00,0x00,0x00,0x00,0x00,0x00,0x00,0x00,0x00,
 0x00,0x00,0x00,0x00,0x00,0x00,0x00,0x00,0x00,0x00,0x00,0x00,0x00,0x00,0x00,
 0x00,0x00,0x00,0x00,0x00,0x00,0x00,0x00,0x00,0x00,0x00,0x00,0x00,0x00,0x00,
 0x00,0x00,0x00,0x00,0x00,0x00,0x00,0x00,0x00,0x00,0x00,0x00,0x00,0x00,0x00,
 0x00,0x00,0x00,0x00,0x00,0x00,0x00,0x00,0x00,0x00,0x00,0x00,0x00,0x00,0x00,
 0x00,0x00,0x00,0x00,0x00,0x00,0x00,0x00,0x00,0x00,0x00,0x00};


