/* XPM */
static char *reload[] = {
/* columns rows colors chars-per-pixel */
"16 16 6 1",
"  c black",
". c #004000",
"X c #008000",
"o c #00C000",
"O c green",
"+ c gray100",
/* pixels */
"++++++     +++++",
"++++  Ooo  . +++",
"+++ OooX ++   ++",
"+++ ooX +++++ ++",
"++ OoX +++++++ +",
"++ ooX +++++++++",
" OOooooX ++  +++",
"+ OoooX ++    ++",
"++ OoX ++      +",
"+++ X ++        ",
"++++ +++++    ++",
"+ ++++++++    ++",
"++ ++++++    +++",
"++   ++      +++",
"+++         ++++",
"+++++     ++++++"
};
