/* XPM */
static char * toolbar-toggle_math_panels_xpm[] = {
"20 20 6 1",
"X	c None",
".	c #777777",
"+	c #C9C9C9",
"@	c #919191",
"#	c #606060",
" 	c #24238E",
".................+@X",
"..+++++++++++++++@@#",
".+XXXXXXXXXXXXXXX@@#",
".+XXXXXXXXXXXXXXX@@#",
".+XXXXXXXXXXXXXXX@@#",
".+XXXXXXXXXXXXXXX@@#",
".+XXXX       XXXX@@#",
".+XXX XX X XXXXXX@@#",
".+XXXXXX X XXXXXX@@#",
".+XXXXXX X XXXXXX@@#",
".+XXXXX XX XXXXXX@@#",
".+XXXXX XXX XXXXX@@#",
".+XXXXX XXX XXXXX@@#",
".+XXXXXXXXXXXXXXX@@#",
".+XXXXXXXXXXXXXXX@@#",
".+XXXXXXXXXXXXXXX@@#",
"+@@@@@@@@@@@@@@@@@@#",
"@@@@@@@@@@@@@@@@@@##",
"X###################",
"XXXXXXXXXXXXXXXXXXXX"};
