/* XPM */
static char * toolbar-toggle_table_xpm[] = {
"20 20 7 1",
"X	c None",
".	c #777777",
"+	c #C9C9C9",
"@	c #919191",
"0	c #ffffff",
"#	c #606060",
" 	c #000000",
".................+@X",
"..+++++++++++++++@@#",
".+XXXXXXXXXXXXXXX@@#",
".+XXXXXXXXXXXXXXX@@#",
".+X             X@@#",
".+X 000 000 000 X@@#",
".+X 000 000 000 X@@#",
".+X             X@@#",
".+X 000 000 000 X@@#",
".+X 000 000 000 X@@#",
".+X             X@@#",
".+X 000 000 000 X@@#",
".+X 000 000 000 X@@#",
".+X             X@@#",
".+XXXXXXXXXXXXXXX@@#",
".+XXXXXXXXXXXXXXX@@#",
"+@@@@@@@@@@@@@@@@@@#",
"@@@@@@@@@@@@@@@@@@##",
"X###################",
"XXXXXXXXXXXXXXXXXXXX"};
