/* XPM */
static char * unknown_xpm[] = {
"22 22 99 2",
"  	c None",
". 	c #020204",
"+ 	c #F0F0EE",
"@ 	c #CBCBCC",
"# 	c #F2F2F0",
"$ 	c #B0B0B0",
"% 	c #DEDEDC",
"& 	c #F0F0EF",
"* 	c #8E8E8D",
"= 	c #E4E4E4",
"- 	c #C6C6C4",
"; 	c #E9E9E7",
"> 	c #DADAD8",
", 	c #D9D9D8",
"' 	c #E1E1E0",
") 	c #C5C5C4",
"! 	c #858584",
"~ 	c #E8E8E6",
"{ 	c #DFDFDE",
"] 	c #DBDBDA",
"^ 	c #D5D5D4",
"/ 	c #D3D3D4",
"( 	c #D1D1D1",
"_ 	c #CFCFCF",
": 	c #D5D5D5",
"< 	c #CCCCCC",
"[ 	c #5B5B5C",
"} 	c #DDDDDC",
"| 	c #D8D8D8",
"1 	c #D7D7D7",
"2 	c #CCCCCD",
"3 	c #CACACB",
"4 	c #C7C7C7",
"5 	c #BCBCBC",
"6 	c #DFDFE0",
"7 	c #DADADC",
"8 	c #D7D7D6",
"9 	c #969694",
"0 	c #656566",
"a 	c #B1B1B2",
"b 	c #C7C7C5",
"c 	c #C4C4C4",
"d 	c #BDBDBC",
"e 	c #898987",
"f 	c #393939",
"g 	c #040404",
"h 	c #070709",
"i 	c #C1C1C2",
"j 	c #BDBDBF",
"k 	c #A4A4A5",
"l 	c #D3D3D2",
"m 	c #090909",
"n 	c #BABABA",
"o 	c #B1B1B1",
"p 	c #9F9F9E",
"q 	c #AFAFAD",
"r 	c #CACAC9",
"s 	c #B1B1B0",
"t 	c #D0D0CF",
"u 	c #101012",
"v 	c #B8B8B7",
"w 	c #ADADAC",
"x 	c #8C8C8E",
"y 	c #7C7C7C",
"z 	c #747474",
"A 	c #B7B7B6",
"B 	c #B4B4B5",
"C 	c #D1D1CF",
"D 	c #CBCBCB",
"E 	c #C6C6C5",
"F 	c #B6B6B4",
"G 	c #B5B5B3",
"H 	c #ACACAD",
"I 	c #595958",
"J 	c #D2D2D1",
"K 	c #C7C7C6",
"L 	c #C3C3C4",
"M 	c #BEBEBC",
"N 	c #B4B4B4",
"O 	c #9A9A9A",
"P 	c #C1C1C0",
"Q 	c #BFBFBE",
"R 	c #BFBFBF",
"S 	c #BBBBBA",
"T 	c #ABABAD",
"U 	c #9C9C9E",
"V 	c #929293",
"W 	c #B3B3B1",
"X 	c #AEAEAC",
"Y 	c #A7A7A6",
"Z 	c #686869",
"` 	c #8E8E8F",
" .	c #19191B",
"..	c #222224",
"+.	c #A9A9A8",
"@.	c #848486",
"#.	c #2B2B2C",
"$.	c #878788",
"%.	c #1C1C1D",
"                                            ",
"                    . .                     ",
"                  . + @ .                   ",
"        . .       . # $ .       . .         ",
"      . % # .   . . & * . .   . = - .       ",
"      . # % ; . # # > , ' ) . = - ! .       ",
"        . ~ { % ' ] ^ / ( _ : < [ .         ",
"          . % } | 1 / ( 2 3 4 5 .           ",
"        . # 6 7 8 9 0 0 a b c d e .         ",
"    . . . # ] 1 9 f g h * 3 i j k . . .     ",
"  . + # # > ^ l 0 g     m = d n o p q o .   ",
"  . r s * , / t 0 h     u # 5 v w x y z .   ",
"    . . . ' ( 2 q * m u # > A B x . . .     ",
"        . ) C D E 3 = # , F G H I .         ",
"          . J K L i M 5 A N a O .           ",
"        . = K P Q R S v B T U a V .         ",
"      . = E [ . e k W X x I . O Y y .       ",
"      . - ! .   . . Z `  ..   . y z .       ",
"        . .       ..+.@..       . .         ",
"                  #.- $..                   ",
"                    . %.                    ",
"                                            "};
